<!-- Generated by SVGMaker - https://svgmaker.io -->
<!-- Prompt: API documentation -->
<svg version="1.1" xmlns="http://www.w3.org/2000/svg" style="display: block;" viewBox="0 0 2048 2048" width="1024" height="1024">
<path transform="translate(0,0)" fill="rgb(252,240,223)" d="M 0 0 L 2048 0 L 2048 2048 L 0 2048 L 0 0 z"/>
<path transform="translate(0,0)" fill="rgb(14,34,51)" d="M 1412.77 199.457 C 1440.73 198.728 1468.76 199.096 1496.74 199.092 L 1540.04 199.107 C 1569.39 199.137 1595.81 198.912 1617.8 221.291 C 1628.41 232.106 1635.11 246.16 1636.82 261.218 C 1638.51 276.282 1638.03 291.593 1638.03 306.729 L 1637.96 370.822 L 1637.97 581.663 L 1637.99 1283.1 C 1666.2 1283.05 1696.55 1290.84 1717.11 1311.27 C 1742.84 1336.83 1745.8 1365.4 1745.94 1399.98 L 1746 1533.44 C 1745.99 1565.88 1749.54 1633.02 1740.28 1661.27 C 1736.75 1672.04 1726.09 1684.55 1718.12 1692.5 C 1691.77 1718.79 1669.78 1720.26 1634.49 1720.04 L 1634.29 1775.52 C 1647.95 1780.1 1659.31 1787.39 1665.85 1800.75 C 1671.33 1811.94 1673.23 1822.83 1668.96 1834.85 C 1664.45 1847.53 1656.33 1858.11 1643.82 1863.74 C 1630.7 1869.65 1613.1 1869.91 1599.76 1864.44 C 1588.02 1859.62 1579.02 1849.69 1574.57 1837.89 C 1569.93 1825.63 1571.37 1812.56 1577.02 1800.91 C 1583.98 1786.52 1595.28 1779.36 1609.87 1774.29 C 1609.21 1756.24 1609.56 1738.12 1609.72 1720.07 L 1434.02 1720.06 L 1434.02 1776.12 C 1436.38 1777.02 1438.72 1777.97 1440.98 1779.1 C 1453.28 1785.23 1463.57 1796.7 1467.87 1809.79 C 1471.76 1821.61 1470.67 1832.89 1464.75 1843.75 C 1458.61 1855.02 1448.66 1863.01 1436.22 1866.25 C 1422.41 1869.86 1405.29 1869.6 1392.87 1862.12 C 1382.2 1855.7 1374.13 1845.01 1371.36 1832.83 C 1368.55 1820.37 1370.8 1807.31 1377.63 1796.52 C 1385.31 1784.46 1396.3 1777.54 1410.07 1774.67 L 1410.07 1720.08 L 1230.01 1720.04 L 1230 1775.12 C 1245.56 1781.44 1256.69 1788.94 1263.53 1804.99 C 1268.2 1815.98 1268.95 1827.51 1264.2 1838.63 C 1259.15 1850.44 1248.66 1860.13 1236.75 1864.79 C 1223.73 1869.88 1206.41 1869.57 1193.74 1863.64 C 1182.87 1858.61 1174.51 1849.37 1170.6 1838.04 C 1166.34 1825.85 1166.99 1812.68 1172.92 1801.16 C 1180.12 1787.18 1192.66 1778.95 1207.21 1774.31 C 1207.04 1756.23 1207.21 1738.14 1207.26 1720.06 L 1204.01 1720.07 C 1196.2 1720.11 1188.14 1720.46 1180.38 1719.49 C 1160.69 1717.03 1136.44 1707.65 1122.2 1693.33 C 1089.1 1660.02 1091.78 1615.64 1092.06 1572.41 C 1073.82 1571.69 1055.42 1572.19 1037.15 1572.15 C 997.968 1571.72 958.781 1571.93 919.604 1572.76 C 873.593 1573.34 827.517 1572.87 781.5 1572.84 L 412.321 1576 C 397.24 1576.21 382.391 1579.12 367.304 1579.17 C 345.799 1579.25 322.979 1575.13 307.372 1559.07 C 282.914 1533.92 287.115 1496.31 287.766 1464.23 C 287.972 1448.16 288.045 1432.08 287.986 1416.01 C 276.487 1416.02 249.74 1419.2 241.602 1410.79 C 233.679 1402.6 236 1384.56 236.093 1373.94 C 228.317 1370.03 220.404 1366.77 212.326 1363.56 C 205.298 1370.79 195.819 1383.25 186.513 1387.02 C 181.159 1387.14 176.987 1385.17 172.592 1382.2 C 164.587 1376.79 134.617 1348.3 134.106 1339.1 C 133.644 1330.78 151.859 1315.2 157.382 1309.83 C 153.757 1301.05 149.675 1292.54 145.529 1283.99 C 142.312 1284.64 139.149 1285.14 135.864 1285.29 C 124.151 1285.82 114.898 1284.34 106.081 1276.34 C 105.192 1263.04 102.983 1238.39 106.038 1226.19 C 108.056 1218.13 111.723 1215.13 118.728 1211.11 C 128.454 1210.42 138.442 1211.1 148.222 1210.94 C 152.238 1203.05 154.968 1194.69 157.308 1186.18 C 150.437 1176.99 135.037 1169.09 133.29 1157.19 C 136.359 1145.07 163.188 1117.14 174.161 1109.71 C 177.009 1107.78 180.185 1105.95 183.702 1106.74 C 193.945 1109.04 204.057 1122.64 209.488 1131.13 C 218.866 1128.34 227.879 1123.87 236.829 1119.94 C 236.211 1112.83 235.607 1105 235.926 1097.87 C 236.193 1091.91 237.427 1085.12 242.23 1081.07 C 251.725 1073.05 276.149 1077.36 288.024 1078.11 L 288.083 978.116 C 251.578 985.038 216.592 980.86 182.904 965.307 C 170.307 976.623 159.615 989.11 148.38 1001.69 C 137.922 1013.4 113.501 1040.63 101.143 1047.78 C 97.1239 1050.09 92.5963 1051.37 87.9622 1051.52 C 77.1348 1051.84 67.084 1046.23 59.5426 1038.83 C 50.7947 1030.25 43.8064 1018.05 44.1185 1005.48 C 44.2602 999.78 45.9128 994.417 49.0764 989.667 C 55.6261 979.832 65.8451 971.627 74.1003 963.204 C 90.1105 946.869 105.872 930.371 122.337 914.483 C 116.113 904.227 109.035 894.55 103.431 883.917 C 88.5828 855.743 82.9091 821.124 86.9027 789.593 C 92.5429 745.062 121.027 702.755 156.332 675.95 C 195.536 646.185 239.642 640.945 287.017 647.479 L 286.109 373.38 L 286.067 305.554 C 286.07 289.565 285.095 272.653 287.876 256.883 C 290.134 244.077 296.65 231.654 305.549 222.22 C 316.969 210.113 332.226 203.179 348.656 201.219 C 359.908 199.877 372.059 200.798 383.415 200.891 C 401.888 201.032 420.361 201.072 438.835 201.011 L 642.341 201.005 L 1109.63 201.022 C 1210.68 202.015 1311.73 201.493 1412.77 199.457 z"/>
<path transform="translate(0,0)" fill="rgb(252,240,223)" d="M 312.947 373.074 L 1610.99 373.066 L 1609.94 1285 L 1304.7 1285.97 C 1277.45 1286.03 1250.21 1285.87 1222.97 1285.49 C 1206.9 1285.29 1189.46 1283.82 1173.53 1285.91 C 1157.71 1287.95 1142.7 1294.1 1130 1303.76 C 1109.49 1319.57 1098.67 1340.35 1095.25 1365.76 C 1092.17 1391.22 1093.81 1417.97 1093.77 1443.65 C 1093.71 1478.41 1092.74 1513.19 1093.5 1547.94 L 637.705 1549.94 L 442.294 1551 C 407.908 1551.08 373.475 1551.87 339.098 1550.9 C 335.906 1548.96 332.615 1546.93 329.865 1544.39 C 322.889 1537.93 317.207 1529.13 314.841 1519.92 C 310.991 1504.93 312.735 1487 312.728 1471.55 C 312.715 1438.7 313.75 1405.72 313.088 1372.89 C 321.853 1368.94 330.866 1365.66 339.888 1362.36 C 347.153 1369.3 354.987 1380.56 364.908 1383.53 C 367.955 1384.45 370.652 1384.33 373.463 1382.78 C 384.205 1376.86 409.768 1353.15 413.617 1341.69 C 413.129 1335.17 394.843 1314.65 389.354 1308.59 C 391.712 1303.32 393.949 1296.41 398.013 1292.24 C 406.453 1283.59 413.43 1286.81 424.048 1286.41 C 428.244 1286.25 431.702 1284.46 434.516 1281.38 C 440.262 1275.09 439.981 1242.78 439.427 1233.36 C 439.104 1227.88 437.47 1222.22 433.06 1218.64 C 426.21 1213.07 409.445 1211.75 400.781 1212.57 C 398.228 1203.93 395.471 1195.34 392.513 1186.83 C 397.562 1183.26 413.926 1168.88 415.959 1163.34 C 416.863 1160.88 416.141 1159.44 415.192 1157.14 C 413.663 1153.43 383.791 1117.91 379.319 1113.71 C 376.4 1110.98 373.54 1109.07 369.847 1107.57 C 360.565 1107.65 345.258 1125.9 338.749 1132.25 C 330.07 1128.81 321.434 1125.35 312.926 1121.5 L 312.758 971.94 C 317.989 969.987 323.109 967.749 328.096 965.236 C 369.265 944.174 402.093 904.873 415.965 860.818 C 429.168 818.89 423.287 771.609 402.892 733.01 C 384.068 697.384 351.693 668.131 312.909 656.007 L 312.947 373.074 z"/>
<path transform="translate(0,0)" fill="rgb(14,34,51)" d="M 940.639 1430.42 C 952.558 1429.42 980.121 1427.46 990.381 1433.32 C 993.095 1434.87 995.338 1437.18 996.043 1440.32 C 996.76 1443.51 996.216 1446.41 994.246 1449.07 C 993.233 1450.44 991.573 1451.51 990.048 1452.22 C 986.294 1453.95 982.053 1454.41 977.966 1454.59 C 967.698 1455.05 957.27 1454.36 946.983 1454.35 L 885.693 1454.79 L 597.962 1458.01 L 508.998 1457.98 C 491.163 1457.97 473.018 1457.28 455.246 1458.76 C 442.883 1459.73 412.877 1463.2 402.864 1456.86 C 401.259 1455.84 399.982 1454.35 399.71 1452.44 C 399.225 1449.04 401.025 1445.89 403.124 1443.34 C 409.662 1435.4 426.539 1435.89 436.242 1435.04 C 446.418 1434.15 457.024 1435.08 467.261 1434.83 C 498.865 1433.9 530.485 1433.6 562.101 1433.93 C 653.869 1434.55 745.642 1433.99 837.396 1432.25 C 871.807 1431.6 906.313 1433.28 940.639 1430.42 z"/>
<path transform="translate(0,0)" fill="rgb(14,34,51)" d="M 485.374 767.151 C 517.474 766.081 549.893 767.003 582.026 767.011 L 766.956 767.089 L 902.127 767.048 C 925.153 766.989 948.895 765.681 971.829 766.923 C 976.2 767.16 979.784 767.763 983.298 770.524 C 986.214 772.815 988.186 776.162 988.288 779.92 C 988.373 783.037 986.844 786.248 984.699 788.471 C 981.091 792.21 976.073 791.963 971.25 792.036 L 576.547 792.997 L 513.485 793.04 C 502.339 793.159 487.238 795.849 476.621 793.061 C 473.811 792.323 470.621 790.593 469.447 787.781 C 468.348 785.15 469.094 782.073 470.21 779.589 C 473.523 772.209 478.002 769.767 485.374 767.151 z"/>
<path transform="translate(0,0)" fill="rgb(14,34,51)" d="M 679.538 1088.46 L 888.771 1087.92 L 947.41 1088.04 C 956.386 1088.04 965.561 1087.08 974.503 1087.79 C 977.755 1088.05 981.206 1088.69 984.02 1090.43 C 986.707 1092.09 988.055 1094.33 988.491 1097.43 C 988.986 1100.96 987.516 1105.47 985.079 1108.04 C 982.046 1111.25 977.984 1111.68 973.805 1112.1 C 947.745 1114.71 918.996 1112.71 892.65 1112.81 C 855.318 1112.97 818.005 1114.53 780.658 1114.77 L 572.737 1114.68 L 518.751 1114.58 C 508.073 1114.66 496.902 1115.53 486.281 1114.76 C 482.578 1114.49 476.281 1113.97 473.396 1111.33 C 470.941 1109.09 469.834 1106.38 469.729 1103.11 C 469.627 1099.95 470.79 1096.43 473.132 1094.22 C 476.668 1090.87 482.855 1090.08 487.517 1089.65 C 508.086 1087.77 529.65 1089.93 550.317 1090.05 C 565.313 1090.14 580.311 1089.06 595.318 1089.03 C 623.345 1088.96 651.544 1089.71 679.538 1088.46 z"/>
<path transform="translate(0,0)" fill="rgb(14,34,51)" d="M 936.98 685.586 C 949.225 684.539 974.043 682.44 984.209 690.457 C 986.639 692.374 988.225 695.173 988.262 698.325 C 988.302 701.799 986.522 704.972 984.221 707.452 C 980.283 711.698 975.41 712.435 969.87 712.862 C 955.763 713.951 941.068 712.877 926.886 712.845 L 839.458 712.855 L 674.143 713.351 C 621.812 713.345 569.59 712.825 517.264 714.236 C 506.203 713.994 481.36 717.01 472.588 711.468 C 470.316 710.032 468.764 707.832 468.34 705.147 C 467.731 701.294 469.138 696.726 471.834 693.908 C 474.906 690.696 479.634 689.419 483.929 689.028 C 494.929 688.027 506.63 689.232 517.717 689.222 L 600.846 689.077 C 646.683 688.824 692.506 687.148 738.381 687.179 C 804.403 687.224 871.024 688.883 936.98 685.586 z"/>
<path transform="translate(0,0)" fill="rgb(14,34,51)" d="M 480.963 927.326 C 507.707 925.876 535.105 927.036 561.929 927.038 L 714.994 927.045 L 883.285 927.034 C 911.563 927.014 940.296 925.837 968.513 927.064 C 972.437 927.235 976.66 927.365 979.856 929.901 C 982.59 932.071 984.768 936.029 984.863 939.544 C 984.928 941.966 983.972 944.227 982.404 946.025 C 979.242 949.65 975.89 950.656 971.246 950.976 C 943.893 952.88 916.205 952.053 888.79 952.057 L 758.757 952.058 L 568.896 952.016 C 543.525 952.247 518.27 954.285 492.814 954.049 C 486.897 953.994 478.009 954.005 472.64 951.439 C 470.302 950.322 468.435 948.766 467.641 946.21 C 466.401 942.216 468.226 937.648 470.383 934.314 C 473.259 929.868 475.822 928.394 480.963 927.326 z"/>
<path transform="translate(0,0)" fill="rgb(14,34,51)" d="M 1056.41 681.777 C 1057.62 681.823 1058.85 681.83 1060.02 682.167 C 1063.54 683.183 1066.82 685.833 1068.51 689.067 C 1073.41 698.41 1070.98 819.736 1070.98 837.162 C 1070.99 889.979 1070.5 942.848 1071.1 995.661 L 1073.13 1147.89 C 1073.22 1163.53 1075.77 1193.91 1071.66 1207.34 C 1070.39 1211.48 1068.24 1213.25 1064.5 1215.18 C 1064.08 1215.28 1063.66 1215.39 1063.23 1215.48 C 1060.21 1216.06 1056.96 1216.38 1054.45 1214.21 C 1050.56 1210.85 1050.34 1203.56 1049.92 1198.74 C 1048.73 1184.89 1048.97 1170.7 1048.61 1156.8 C 1047.84 1116.22 1047.63 1075.64 1047.99 1035.06 L 1047.91 748.668 C 1047.9 736.946 1046.67 696.564 1051.32 687.852 C 1052.56 685.516 1054.56 683.634 1056.41 681.777 z"/>
<path transform="translate(0,0)" fill="rgb(14,34,51)" d="M 482.614 1328.29 C 506.901 1327.2 531.453 1327.97 555.773 1327.97 L 688.115 1327.96 L 838.13 1327.99 C 864.718 1328 891.495 1327.27 918.058 1328.21 C 923.101 1328.38 928.539 1328.55 933.24 1330.54 C 935.906 1331.67 938.37 1333.66 939.065 1336.62 C 939.896 1340.17 939.081 1345.47 936.904 1348.42 C 933.759 1352.69 927.91 1352.93 923.155 1353.17 C 903.771 1353.02 884.461 1354.05 865.09 1354.19 L 618.749 1354.41 L 532.823 1354.49 C 516.705 1354.54 500.404 1355.13 484.303 1354.55 C 480.396 1354.41 474.72 1354.28 471.177 1352.63 C 469.045 1351.63 466.528 1348.16 465.863 1345.89 C 464.953 1342.78 465.242 1340.06 466.971 1337.33 C 470.571 1331.67 476.413 1329.7 482.614 1328.29 z"/>
<path transform="translate(0,0)" fill="rgb(14,34,51)" d="M 648.871 1168.48 L 798.219 1168.07 C 821.849 1168.06 846.776 1166.57 870.259 1168.33 C 874.019 1168.61 878.071 1169.25 881.408 1171.12 C 883.677 1172.39 885.413 1174.33 885.895 1176.96 C 886.609 1180.86 884.346 1185.91 881.756 1188.74 C 880.258 1190.38 878.716 1191.23 876.53 1191.64 C 866.126 1193.6 853.689 1191.96 843.022 1192.35 C 797.22 1194.02 751.533 1192.94 705.75 1194.06 C 690.71 1195.25 675.476 1194.81 660.399 1194.82 L 587.738 1194.64 C 565.749 1194.49 543.759 1194.49 521.77 1194.64 C 509.654 1194.72 497.283 1195.35 485.193 1194.84 C 482.152 1194.71 478.166 1194.56 475.835 1192.41 C 472.538 1189.37 469.994 1181.88 470.484 1177.46 C 470.706 1175.45 470.939 1174.61 472.366 1173.25 C 474.557 1171.14 476.872 1170.58 479.796 1170.24 C 498.868 1168.02 526.302 1169.99 546.171 1169.96 C 580.415 1169.91 614.613 1168.64 648.871 1168.48 z"/>
<path transform="translate(0,0)" fill="rgb(14,34,51)" d="M 815.628 846.445 C 827.489 845.485 849.818 843.925 859.655 850.621 C 862.6 852.626 864.452 855.384 865.09 858.9 C 865.63 861.872 865.228 865.345 863.166 867.683 C 860.424 870.79 856.157 871.793 852.204 872.194 C 841.975 873.229 831.09 871.831 820.775 871.873 L 737.289 871.985 L 519.5 874.026 C 504.213 874.175 488.925 874.121 473.639 873.865 C 471.199 870.136 468.581 865.551 467.835 861.112 C 467.279 857.804 468.141 856.107 469.972 853.425 C 474.211 850.771 481.105 850.399 486.094 850.092 C 518.292 848.114 553.881 850.053 586.498 849.893 C 613.234 849.761 639.978 848.19 666.727 847.989 C 716.417 847.615 765.958 848.478 815.628 846.445 z"/>
<path transform="translate(0,0)" fill="rgb(14,34,51)" d="M 1156.53 687.245 C 1205.17 686.38 1253.92 687.055 1302.57 687.054 L 1505.11 686.829 C 1511.83 686.851 1521.48 686.915 1526.14 692.612 C 1527.94 694.811 1527.89 697.223 1527.27 699.854 C 1526.08 704.89 1523.09 707.637 1518.9 710.365 C 1513.9 711.666 1509.28 712.399 1504.12 712.561 C 1477.85 713.385 1451.35 712.661 1425.05 712.657 L 1270.95 712.638 L 1195.64 712.684 C 1184.15 712.701 1171.17 714.036 1159.88 712.235 C 1156.37 711.675 1154.04 710.556 1151.94 707.515 C 1149.63 704.167 1149.36 698.151 1150.21 694.299 C 1151.03 690.584 1153.53 689.075 1156.53 687.245 z"/>
<path transform="translate(0,0)" fill="rgb(14,34,51)" d="M 484.46 1008.13 C 499.338 1007.68 513.805 1009.61 528.614 1009.94 C 556.518 1010.55 584.565 1009.99 612.482 1009.99 C 647.738 1009.98 683.225 1010.79 718.457 1009.88 C 728.057 1009.64 737.613 1008.52 747.208 1008.14 C 775.286 1007.02 804.436 1007 832.45 1009.08 C 838.798 1009.55 846.236 1009.46 852.396 1011.03 C 855.303 1011.78 858.269 1013.51 859.623 1016.29 C 860.991 1019.1 860.797 1022.2 859.726 1025.05 C 857.93 1029.83 854.763 1031.86 850.297 1033.93 C 819.297 1034.69 788.111 1034.04 757.092 1034.04 L 577.898 1034.05 L 508.146 1034.08 C 499.06 1034.09 486.052 1035.67 477.406 1033.48 C 474.871 1032.84 472.403 1030.53 471.435 1028.13 C 470.621 1026.11 470.811 1023.75 471.499 1021.73 C 473.937 1014.56 477.996 1011.53 484.46 1008.13 z"/>
<path transform="translate(0,0)" fill="rgb(14,34,51)" d="M 1163.4 1189.38 C 1190.51 1188.6 1217.85 1189.32 1244.98 1189.32 L 1406.63 1189.33 L 1483.54 1189.31 C 1494.42 1189.31 1507.8 1187.87 1518.45 1189.74 C 1521.44 1190.26 1522.97 1191.53 1524.77 1193.94 C 1525.65 1197.08 1525.67 1199.22 1524.52 1202.33 C 1522.37 1208.15 1519.47 1210.65 1513.99 1213.25 C 1501.69 1215.43 1487.25 1214.07 1474.68 1214.06 L 1399.53 1213.98 L 1247.01 1214.01 C 1222.07 1214.02 1196.9 1214.82 1171.99 1214.02 C 1168.11 1213.89 1163.71 1213.74 1160.15 1212.15 C 1157.03 1210.76 1154.32 1207.31 1153.54 1204.02 C 1152.8 1200.9 1153.66 1197 1155.23 1194.25 C 1157.12 1190.94 1159.98 1190.17 1163.4 1189.38 z"/>
<path transform="translate(0,0)" fill="rgb(14,34,51)" d="M 1161.61 1119.23 C 1174.52 1118.84 1187.57 1119.78 1200.51 1119.85 C 1223.49 1119.99 1246.58 1119.55 1269.56 1120.23 C 1281.61 1120.59 1293.63 1121.8 1305.69 1121.83 L 1461.65 1121.97 C 1473.43 1121.95 1509.27 1120.19 1517.96 1122.15 C 1520.82 1122.8 1523.44 1124.83 1524.81 1127.42 C 1526.47 1130.55 1526.29 1133.99 1525.28 1137.28 C 1524.08 1141.2 1521.66 1141.98 1518.28 1143.68 C 1508.85 1144.37 1499.12 1143.52 1489.66 1143.39 C 1473.55 1143.17 1457.43 1143.24 1441.32 1143.22 L 1236.06 1143.04 C 1220.15 1142.99 1176.53 1145.91 1163.94 1141.87 C 1159.92 1140.59 1155.88 1138.14 1154.21 1134.06 C 1153.01 1131.13 1153.18 1126.73 1154.7 1123.96 C 1156.19 1121.27 1158.93 1120.31 1161.61 1119.23 z"/>
<path transform="translate(0,0)" fill="rgb(14,34,51)" d="M 481.317 1247.39 C 495.314 1247.42 509.309 1248.24 523.305 1248.19 C 548.886 1248.09 759.464 1244.64 766.615 1248.57 C 770.317 1250.6 772.544 1253.89 773.397 1258.01 C 774.168 1261.73 773.49 1267.03 771.025 1270.06 C 769.165 1272.34 766.942 1272.75 764.251 1273.3 L 595.832 1273.54 C 563.725 1273.56 531.108 1274.76 499.043 1273.45 C 493.797 1273.24 479.811 1272.88 475.867 1270.3 C 474.614 1269.48 473.614 1267.3 473.115 1265.89 C 471.535 1261.43 472.385 1255.8 474.747 1251.76 C 476.384 1248.96 478.385 1248.26 481.317 1247.39 z"/>
<path transform="translate(0,0)" fill="rgb(14,34,51)" d="M 1424.95 473.42 C 1432.86 473.688 1439.98 474.758 1446.64 479.352 C 1456.06 485.851 1460.39 496.422 1462.25 507.349 C 1465.5 526.47 1465.47 556.301 1453.37 572.537 C 1446.63 581.581 1437.6 583.265 1427.12 584.922 C 1418.26 584.358 1409.85 583.252 1402.47 577.794 C 1393.75 571.336 1389.92 560.985 1388.53 550.571 C 1386.18 533.048 1385.75 499.532 1397.08 485.575 C 1404.32 476.669 1414.1 474.345 1424.95 473.42 z"/>
<path transform="translate(0,0)" fill="rgb(252,240,223)" d="M 1419.88 494.091 C 1422.96 493.895 1426.05 493.612 1429.07 494.433 C 1433.82 495.729 1437.24 500.79 1439.09 505.02 C 1444.48 517.348 1443.37 541.499 1438.51 553.951 C 1436.76 558.443 1435.12 560.315 1430.76 562.304 C 1427.95 562.62 1425.04 562.945 1422.21 562.678 C 1418.55 562.334 1415.78 560.444 1413.54 557.608 C 1405.76 547.751 1407.05 527.567 1408.87 515.699 C 1410.28 506.524 1412.19 499.712 1419.88 494.091 z"/>
<path transform="translate(0,0)" fill="rgb(14,34,51)" d="M 713.56 473.283 C 721.9 472.736 730.326 472.965 737.783 477.183 C 746.358 482.032 751.236 490.564 753.538 499.905 C 758.098 518.398 758.661 554.667 747.715 571.349 C 742.49 579.313 735.141 582.027 726.245 583.848 C 717.555 584.289 708.45 584.226 700.583 580.024 C 692.757 575.843 688.126 568.049 685.947 559.667 C 682.021 544.565 681.597 501.959 689.714 488.543 C 695.137 479.58 703.863 475.847 713.56 473.283 z"/>
<path transform="translate(0,0)" fill="rgb(252,240,223)" d="M 715.928 494.022 C 718.59 493.986 721.696 493.645 724.262 494.405 C 727.669 495.416 730.037 498.411 731.562 501.448 C 737.271 512.809 736.801 541.519 732.202 553.533 C 730.28 558.554 728.029 560.683 723.189 562.859 C 720.928 562.867 718.557 562.921 716.324 562.542 C 712.909 561.961 710.307 559.463 708.542 556.629 C 701.707 545.659 702.42 524.08 705.13 511.675 C 706.874 503.694 708.903 498.476 715.928 494.022 z"/>
<path transform="translate(0,0)" fill="rgb(14,34,51)" d="M 1491.12 839.202 C 1492.88 839.081 1494.62 839.031 1496.39 839.019 C 1501.39 838.984 1508.13 839.992 1511.6 844.115 C 1513.84 846.788 1514.61 849.562 1514.41 852.99 C 1513.63 866.81 1491.83 859.489 1484 867.243 C 1475.77 875.399 1479.76 911.221 1479.9 923.16 C 1480.07 938.028 1477.84 946.483 1467.29 957.226 C 1470.79 959.929 1474.11 962.453 1476.31 966.38 C 1487.12 985.764 1474.64 1024.12 1481.36 1046.32 C 1485.7 1060.68 1503.45 1054.63 1512.91 1060.64 C 1515.37 1062.21 1515.87 1063.33 1516.63 1066.06 C 1515.96 1069.66 1514.44 1072.7 1512.07 1075.53 C 1508.67 1079.6 1504.33 1079.73 1499.36 1080.01 C 1492.12 1079.49 1485.71 1079.11 1479.02 1075.92 C 1443.68 1059.05 1467.31 1004.53 1457.22 978.882 C 1451.24 963.696 1439.25 971.304 1429.66 966.574 C 1427.15 965.349 1425.25 963.168 1424.37 960.521 C 1423.26 957.178 1423.85 953.831 1425.58 950.82 C 1429.59 943.862 1439.25 944.334 1446.13 942.76 C 1470.86 937.105 1450.5 876.416 1465.27 854.03 C 1471.34 844.829 1480.78 841.238 1491.12 839.202 z"/>
<path transform="translate(0,0)" fill="rgb(14,34,51)" d="M 1393.52 763.443 C 1398.44 763.117 1402.56 763.618 1406.64 766.533 C 1409.81 768.798 1412.54 772.04 1413.03 776.024 C 1413.38 778.85 1412.25 783.798 1409.97 785.68 C 1405.88 789.042 1394.66 790.163 1389.33 790.554 C 1367.71 792.143 1345.27 790.87 1323.55 790.839 L 1173.86 789.298 C 1168.4 789.188 1160.99 789.49 1155.87 787.565 C 1153.65 786.731 1151.94 784.531 1151.25 782.325 C 1150.13 778.726 1150.72 771.497 1153.12 768.511 C 1155.28 765.822 1162.91 765.461 1166.32 765.223 C 1187.94 763.714 1210.54 765.047 1232.26 765.035 C 1256.18 765.022 1280.07 764.027 1304 763.997 C 1333.76 763.96 1363.8 764.832 1393.52 763.443 z"/>
<path transform="translate(0,0)" fill="rgb(14,34,51)" d="M 961.944 534.532 C 964.398 523.266 972.15 483.898 980.103 477.441 C 985.515 473.048 997.426 474.841 1003.89 475.068 C 1005.11 510.722 1004.01 546.768 1004.01 582.466 C 998.653 583.014 990.14 584.507 985.126 582.559 C 981.645 571.171 984.91 541.649 985.189 528.174 C 985.918 521.729 985.956 515.222 986.147 508.743 C 979.31 524.613 977.147 546.552 969.556 564.744 C 964.831 565.146 959.963 564.928 955.219 564.94 C 947.037 545.984 943.986 525.833 936.596 506.784 C 940.281 531.31 938.1 558.349 937.905 583.138 C 931.524 583.188 925.141 582.881 918.765 582.66 C 918.902 566.894 916.242 482.584 920.985 475.083 C 927.137 474.907 937.77 473.305 943.079 476.64 C 951.47 481.911 960.272 523.676 961.944 534.532 z"/>
<path transform="translate(0,0)" fill="rgb(14,34,51)" d="M 618.001 475.589 C 625.301 474.662 633.366 474.285 640.721 474.773 C 649.735 475.372 657.295 478.101 663.295 485.093 C 674.93 498.648 675.103 519.857 674.064 536.74 C 673.127 551.979 669.67 565.699 657.877 576.191 C 653.197 579.647 649.135 581.108 643.347 581.861 C 635.554 582.876 616.987 585.34 610.676 580.541 C 606.589 570.62 608.919 493.907 608.919 476.436 L 618.001 475.589 z"/>
<path transform="translate(0,0)" fill="rgb(252,240,223)" d="M 628.488 496.01 C 633.927 495.976 641.054 495.206 645.824 498.268 C 649.661 500.731 651.601 505.643 652.593 509.88 C 656.015 524.503 654.993 544.559 647.055 557.43 C 641.15 562.489 635.851 562.12 628.492 562.135 L 628.488 496.01 z"/>
<path transform="translate(0,0)" fill="rgb(14,34,51)" d="M 1130.71 474.137 C 1136.35 474.107 1141.94 474.704 1147.55 475.225 C 1151.49 497.743 1151.2 548.425 1149.88 572.529 C 1149.64 576.817 1149.56 579.335 1146.27 582.24 C 1142.89 583.197 1135.22 583.73 1131.97 582.133 C 1122.9 577.68 1103.55 528.067 1099.27 515.925 C 1101.85 537.283 1102.03 558.294 1101.39 579.754 L 1100.31 581.755 C 1094.15 583.807 1087.13 582.841 1080.74 582.351 C 1080.7 548.481 1079.13 513.491 1082.22 479.783 C 1084.11 478.319 1086.03 476.886 1088.25 475.954 C 1090.94 474.833 1093.97 474.882 1096.62 476.09 C 1108.76 481.497 1124.93 523.539 1130.34 536.836 C 1128.76 519.154 1126.38 490.953 1130.71 474.137 z"/>
<path transform="translate(0,0)" fill="rgb(14,34,51)" d="M 1524.39 538.148 C 1523.19 527.863 1519.66 482.169 1524.75 476.088 C 1526.87 473.546 1539.25 474.604 1542.62 474.651 C 1542.34 488.885 1544.47 577.697 1540.78 582.936 C 1534.84 582.819 1528.9 582.623 1522.96 582.348 C 1511.36 564.77 1500.85 538.239 1492.61 518.399 C 1494.37 533.919 1497.49 562.863 1494.06 577.95 C 1493.39 580.871 1492.83 581.08 1490.49 582.656 C 1485.79 583.208 1479.76 584.032 1475.47 581.748 C 1472.29 575.671 1473.1 484.117 1475.36 475.019 C 1479.78 474.605 1486.11 474.071 1490.33 475.54 C 1501.86 479.548 1519.41 526.386 1524.39 538.148 z"/>
<path transform="translate(0,0)" fill="rgb(14,34,51)" d="M 1164.38 908.219 C 1206.46 906.209 1249.86 907.935 1292.05 907.883 C 1309.59 907.861 1360.44 905.74 1375.13 909.184 C 1378.88 911.915 1380.16 915.201 1380.93 919.688 C 1381.5 923.078 1381.2 926.812 1378.75 929.486 C 1376.57 931.876 1374.25 931.966 1371.25 932.174 L 1229.82 932.08 C 1212.13 932.095 1177.25 934.43 1161.94 930.67 C 1158.48 929.823 1154.21 928.246 1152.55 924.852 C 1151.13 921.951 1150.94 917.459 1152.64 914.693 C 1155.07 910.734 1160.26 909.555 1164.38 908.219 z"/>
<path transform="translate(0,0)" fill="rgb(14,34,51)" d="M 1157.88 838.237 C 1170.24 836.92 1183.06 837.581 1195.48 837.583 L 1256.22 837.627 L 1324.6 837.535 C 1337.65 837.513 1350.97 836.936 1363.97 837.892 C 1366.92 838.11 1369.88 838.447 1371.69 841.151 C 1374.19 844.884 1373.07 850.428 1371.85 854.414 C 1370.64 858.37 1369.06 859.383 1365.63 861.224 C 1355.55 862.825 1344.41 862.04 1334.2 862.04 L 1280.61 862.002 L 1196.98 861.337 C 1185.1 861.221 1172.43 862.31 1160.65 860.885 C 1157.18 860.465 1153.78 858.909 1151.93 855.802 C 1150.2 852.903 1150.31 849.498 1151.06 846.325 C 1152.04 842.132 1154.42 840.509 1157.88 838.237 z"/>
<path transform="translate(0,0)" fill="rgb(14,34,51)" d="M 469.248 475.208 C 483.874 473.282 504.623 472.997 517.168 481.274 C 525.498 486.77 529.745 495.12 531.309 504.799 C 533.156 516.233 531.757 528.613 524.739 538.136 C 517.956 547.341 509.481 550.668 498.608 552.226 L 486.85 552.497 C 486.9 562.626 486.876 572.756 486.777 582.885 C 479.908 583.065 472.989 582.831 466.116 582.764 C 465.326 559.874 463.683 493.74 469.248 475.208 z"/>
<path transform="translate(0,0)" fill="rgb(252,240,223)" d="M 486.891 496.002 C 491.84 495.876 497.827 495.288 502.366 497.655 C 506.307 499.711 509.662 503.047 510.761 507.453 C 512.437 514.171 509.677 520.989 506.172 526.555 C 499.788 532.452 495.252 532.065 486.938 532.046 L 486.891 496.002 z"/>
<path transform="translate(0,0)" fill="rgb(14,34,51)" d="M 1242.99 475.024 C 1250.35 474.669 1258.07 473.669 1265.1 476.269 C 1271.96 483.037 1280.23 522.269 1283.23 534.213 C 1284.98 541.219 1294.96 575.778 1291.95 580.799 C 1288.59 582.949 1279.68 583.967 1275.94 582.592 C 1269.26 580.142 1271.62 571.739 1268.53 566.828 C 1268.3 566.461 1268.05 566.107 1267.8 565.746 C 1258.78 565.497 1249.71 565.628 1240.68 565.591 L 1236.21 583.011 L 1215.54 582.821 C 1216.68 565.313 1223.81 546.142 1228.31 529.18 C 1233.07 511.189 1236.97 492.619 1242.99 475.024 z"/>
<path transform="translate(0,0)" fill="rgb(252,240,223)" d="M 1255.35 501.731 L 1256.52 503.121 C 1257.07 517.283 1262.99 530.678 1263.73 544.724 C 1261.27 546.151 1259.49 545.878 1256.73 545.908 C 1253.15 546.01 1250.05 546.043 1246.55 545.224 C 1246.46 534.105 1252.6 513.435 1255.35 501.731 z"/>
<path transform="translate(0,0)" fill="rgb(14,34,51)" d="M 409.358 475.051 C 414.265 474.81 424.992 473.1 429.207 475.828 C 436.968 480.851 457.147 568.637 458.559 582.514 C 452.922 582.836 445.076 584.313 440.076 581.17 C 435.671 578.402 435.969 573.026 435.144 568.417 C 433.193 566.118 432.929 566.237 429.94 565.597 C 422.194 565.342 414.414 565.532 406.664 565.588 C 405.15 571.224 403.348 576.765 401.571 582.321 C 394.717 582.991 387.637 582.697 380.748 582.712 C 383.68 563.839 389.64 545.06 394.621 526.631 C 399.239 509.54 403.257 491.66 409.358 475.051 z"/>
<path transform="translate(0,0)" fill="rgb(252,240,223)" d="M 420.409 502.726 C 423.674 505.752 428.06 534.657 429.22 541.154 C 429.636 543.485 430.142 543.458 428.695 545.53 L 424.25 545.915 L 411.188 545.802 C 414.613 531.765 419.009 517.107 420.409 502.726 z"/>
<path transform="translate(0,0)" fill="rgb(14,34,51)" d="M 1197.77 977.133 C 1223.48 975.581 1249.89 976.691 1275.68 976.685 C 1301.5 976.678 1327.86 975.625 1353.62 976.9 C 1359.8 977.206 1366.54 977.643 1370.79 982.756 C 1373.39 985.871 1374.63 990.966 1373.86 994.945 C 1373.1 998.913 1370.17 1000.81 1366.98 1002.72 C 1355.02 1005.5 1319.39 1003.18 1305.17 1003.09 C 1273.06 1002.9 1240.71 1003.89 1208.63 1002.88 C 1203.25 1002.71 1196.82 1003.15 1193.03 998.63 C 1190.74 995.902 1190.28 992.354 1190.73 988.93 C 1191.48 983.268 1193.27 980.527 1197.77 977.133 z"/>
<path transform="translate(0,0)" fill="rgb(14,34,51)" d="M 838.061 475.001 C 844.759 474.452 851.28 474.681 857.985 474.989 C 858.058 491.456 855.668 542.665 859.889 555.465 C 861.01 558.864 862.95 562.365 866.481 563.718 C 868.936 564.659 871.106 563.634 873.391 562.79 L 871.807 561.567 L 874.146 562.37 C 877.313 560.431 880.733 557.126 881.928 553.532 C 887.478 536.838 877.858 494.101 885.157 479.699 C 886.554 476.944 888.608 475.134 891.638 474.411 C 894.63 473.697 899.594 474.26 901.94 476.35 C 905.893 479.873 904.123 491.657 904.004 496.677 C 904.105 517.007 907.626 560.052 893.445 575.257 C 887.228 581.923 878.447 584.087 869.602 584.219 C 861.617 584.338 854.042 582.43 848.349 576.546 C 843.456 571.49 840.921 564.891 839.421 558.13 C 835.478 540.366 837.686 495.222 838.061 475.001 z"/>
<path transform="translate(0,0)" fill="rgb(14,34,51)" d="M 1020.43 475.131 C 1031.57 474.026 1058.08 474.98 1068.66 477.137 C 1072.56 481.804 1071.03 490.184 1070.8 495.999 L 1040.04 496.059 L 1040.04 518.365 C 1045.19 518.266 1050.38 517.978 1055.52 518 C 1059.07 518.016 1061.37 518.723 1063.96 521.279 C 1066.72 527.021 1064.8 532.555 1063.47 538.428 C 1055.71 538.934 1047.81 538.7 1040.03 538.745 L 1040.02 560.009 C 1041.61 564.767 1063.54 559.449 1069 563.274 C 1071.53 565.05 1072.41 568.118 1072.63 571.051 C 1072.87 574.288 1072.9 578.259 1070.75 580.72 C 1059.57 585.142 1032.55 582.938 1019.72 582.185 L 1019.77 514.251 C 1019.78 501.313 1019.08 487.995 1020.43 475.131 z"/>
<path transform="translate(0,0)" fill="rgb(14,34,51)" d="M 794.384 473.296 C 798.38 473.015 802.563 473.146 806.517 473.801 C 813.72 474.995 820.101 477.463 824.395 483.645 C 827.962 488.782 828.412 494.59 826.961 500.586 C 826.379 502.99 825.425 504.524 823.337 505.892 C 812.796 508.337 809.038 497.407 801.007 494.377 C 798.952 493.602 796.118 494.003 794.232 495.02 C 790.171 497.21 788.087 502.123 786.922 506.34 C 784.428 515.366 783.653 550.88 788.339 558.198 C 790.033 560.844 793.51 562.777 796.642 563.157 C 803.808 564.027 807.749 554.278 813.07 550.493 C 816.156 549.685 818.4 550.293 821.42 550.973 L 822.689 551.268 C 824.868 552.584 826.351 553.684 827.566 555.994 C 829.414 559.505 829.164 563.559 827.518 567.056 C 824.243 574.017 816.454 579.39 809.37 581.85 C 800.559 584.909 790.685 585.715 782.238 581.239 C 774.275 577.018 769.187 569.367 766.663 560.873 C 761.678 544.099 761.243 505.06 770.072 489.709 C 775.664 479.988 784.025 476.106 794.384 473.296 z"/>
<path transform="translate(0,0)" fill="rgb(14,34,51)" d="M 1164.33 1049.14 C 1188.16 1048.18 1212.32 1049.01 1236.19 1048.96 C 1252.21 1048.92 1269.62 1047.56 1285.48 1049.1 C 1288.11 1049.36 1289.7 1049.95 1291.76 1051.64 C 1294.42 1053.83 1295.66 1056.94 1295.78 1060.32 C 1295.99 1065.95 1294.19 1068.66 1290.52 1072.71 C 1275.11 1076.54 1239.39 1073.79 1222.07 1073.84 C 1207.28 1073.88 1191.94 1075.19 1177.22 1074.27 C 1171.92 1073.93 1165.86 1072.72 1162.32 1068.38 C 1159.51 1064.93 1159 1059.19 1159.76 1054.87 C 1160.31 1051.72 1162.03 1050.97 1164.33 1049.14 z"/>
<path transform="translate(0,0)" fill="rgb(14,34,51)" d="M 1287.5 475.079 L 1289 474.928 C 1297.97 474.096 1343.53 472.99 1348.58 477.248 C 1349.78 483.24 1349.15 489.611 1348.98 495.697 C 1342.03 496.096 1334.99 495.997 1328.03 496.097 L 1328.01 567.25 L 1327.95 582.124 C 1321.32 583.185 1313.69 585.366 1307.84 581.178 C 1304.72 568.296 1306.88 513.313 1306.92 496.065 C 1302.1 496.181 1295.49 497.05 1291.01 495.174 C 1288.21 494.004 1285.53 492.414 1284.51 489.374 C 1283.04 484.976 1285.29 478.869 1287.5 475.079 z"/>
<path transform="translate(0,0)" fill="rgb(14,34,51)" d="M 1162.15 474.223 C 1173.05 474.791 1215.3 472.359 1221.69 477.383 C 1222.43 479.213 1222.8 480.593 1222.91 482.592 C 1223.19 487.415 1223.64 490.992 1220.35 494.695 C 1213.99 497.421 1205.91 496.196 1199.09 496.035 L 1199.04 565.74 C 1199.1 568.863 1199.17 572.004 1199.07 575.126 C 1198.95 578.597 1197.92 579.829 1195.47 582.149 C 1190.11 583.908 1183.75 582.852 1178.18 582.554 C 1176.76 554.087 1177.52 524.46 1178.93 496.035 C 1172.37 496.045 1165.8 495.982 1159.24 495.845 C 1159.13 494.926 1159.04 494.007 1158.94 493.087 C 1158.24 485.87 1157.34 480.121 1162.15 474.223 z"/>
<path transform="translate(0,0)" fill="rgb(14,34,51)" d="M 1362.13 474.424 C 1364.82 474.414 1367.87 474.191 1370.52 474.59 C 1373.39 475.021 1374.35 475.889 1376.18 478.038 C 1377.9 488.816 1378.78 570.757 1375.52 578.395 C 1374.4 581.026 1373.6 581.383 1370.98 582.303 L 1356.04 582.844 C 1355.71 569.545 1353.92 481.406 1357.65 475.946 C 1358.44 474.797 1360.84 474.723 1362.13 474.424 z"/>
<path transform="translate(0,0)" fill="rgb(14,34,51)" d="M 542.665 474.817 L 560.537 475.118 C 562.617 492.598 561.955 510.507 561.996 528.096 C 562.034 543.809 562.541 559.726 561.819 575.412 C 561.658 578.908 561.446 580.72 558.787 583.125 C 555.617 583.474 552.255 583.997 549.065 583.85 C 546.772 583.745 543.088 582.707 541.804 580.66 C 539.156 576.436 540.539 486.291 542.665 474.817 z"/>
<path transform="translate(0,0)" fill="rgb(14,34,51)" d="M 999.318 1287.95 C 1000.82 1287.92 1002.48 1287.85 1003.95 1288.2 C 1006.96 1288.92 1010.65 1292.07 1011.82 1294.87 C 1012.88 1297.42 1012.63 1300.65 1011.75 1303.21 C 1010.16 1307.92 1006.72 1309.66 1002.54 1311.86 C 1001.86 1311.87 1001.19 1311.96 1000.52 1311.89 C 998.072 1311.63 994.462 1308.68 993.07 1306.72 C 990.979 1303.78 990.292 1299.38 991.192 1295.88 C 992.362 1291.34 995.523 1290.05 999.318 1287.95 z"/>
<path transform="translate(0,0)" fill="rgb(69,103,129)" d="M 1140.9 1327.26 C 1151.08 1318.68 1160.91 1312.43 1174.48 1310.52 C 1192.58 1307.98 1219.02 1309.85 1237.81 1309.85 L 1374.08 1309.92 L 1565.95 1309.96 C 1595.76 1309.97 1632.29 1308.02 1661.41 1310.39 C 1683.97 1312.22 1699.74 1329.97 1713.34 1346.22 C 1714.96 1348.15 1715.73 1349.88 1716.49 1352.23 C 1716.67 1352.8 1716.87 1353.37 1717.05 1353.94 C 1718.89 1359.81 1719.72 1365.88 1720.07 1372 C 1721 1388.68 1720.34 1405.63 1720.32 1422.35 L 1720.21 1515.97 L 1720.28 1588.71 C 1720.29 1603 1720.94 1617.69 1719.69 1631.93 C 1718.89 1641.03 1716.77 1651.32 1712.28 1659.36 C 1703.53 1675.02 1688.56 1687.92 1670.96 1692.34 C 1649.31 1697.79 1620.96 1694.31 1598.57 1694.25 L 1482.87 1694.47 L 1286.88 1694.83 C 1253.39 1694.92 1215.86 1696.76 1182.79 1694.71 C 1171.51 1694.02 1160.88 1691.27 1151.17 1685.38 C 1135.3 1675.77 1127.02 1660.74 1122.82 1643.19 C 1120.76 1634.57 1119.74 1625.61 1119.33 1616.77 C 1118.47 1598.42 1119 1579.89 1119.02 1561.52 L 1119.13 1462.96 L 1119.14 1406.61 C 1119.15 1393.3 1117.98 1378.13 1120.79 1365.14 C 1119.11 1357.62 1121.02 1351.33 1124.31 1344.54 C 1127.86 1337.21 1133.07 1330.13 1140.9 1327.26 z"/>
<path transform="translate(0,0)" fill="rgb(46,77,103)" d="M 1140.9 1327.26 C 1131.8 1339.21 1125.91 1351.07 1120.79 1365.14 C 1119.11 1357.62 1121.02 1351.33 1124.31 1344.54 C 1127.86 1337.21 1133.07 1330.13 1140.9 1327.26 z"/>
<path transform="translate(0,0)" fill="rgb(14,34,51)" d="M 1276.98 1387.42 C 1295.05 1386.66 1313.34 1387.18 1331.43 1387.18 L 1427.32 1387.15 L 1537.42 1387.03 C 1557.07 1387.01 1607.07 1384.31 1623.21 1389.71 C 1623.94 1390.38 1624.68 1391.04 1625.38 1391.74 C 1634.24 1400.58 1633.71 1409.63 1633.83 1421.43 L 1634.13 1546.23 C 1634.16 1563.05 1636.08 1590.04 1633.6 1605.63 C 1632.92 1609.93 1630.96 1614.02 1627.79 1617.04 C 1624.23 1620.43 1619.28 1622.05 1614.55 1622.93 C 1598.51 1625.89 1563.83 1623.64 1545.95 1623.49 L 1296.49 1623.61 C 1277.86 1623.55 1220.1 1626.5 1205.58 1621.81 C 1197.27 1619.13 1193.52 1612.7 1189.99 1605.33 C 1192.05 1586.52 1245.92 1403.7 1252.16 1396.44 C 1258.44 1389.12 1268 1388.17 1276.98 1387.42 z"/>
<path transform="translate(0,0)" fill="rgb(252,240,223)" d="M 1401.93 1414.67 C 1430.83 1415.52 1486.43 1409.57 1509.78 1426.26 C 1523.44 1436.02 1531.07 1452.61 1533.7 1468.85 C 1536.56 1486.49 1535.58 1505.79 1524.52 1520.58 C 1513.07 1535.88 1497.16 1540.24 1479.32 1542.65 C 1471.64 1543.75 1456.54 1541.05 1450.91 1546.41 C 1442.53 1554.37 1445.92 1584.29 1445.97 1595.95 C 1433.5 1596.66 1415.86 1599.08 1403.94 1595.61 C 1400.11 1587.55 1401.83 1432.36 1401.93 1414.67 z"/>
<path transform="translate(0,0)" fill="rgb(14,34,51)" d="M 1457.94 1453.17 C 1462.23 1452.97 1466.43 1453 1470.63 1453.99 C 1477.94 1455.71 1484.53 1460.93 1488.13 1467.48 C 1491.66 1473.9 1492.9 1482.2 1490.42 1489.2 C 1487.9 1496.33 1483.34 1500.15 1476.71 1503.32 C 1470.1 1504.86 1457.35 1507.04 1451.01 1504.41 C 1448.62 1503.41 1446.97 1501.09 1446.08 1498.7 C 1442.66 1489.46 1443.27 1469.53 1447.58 1460.8 C 1449.81 1456.27 1453.38 1454.72 1457.94 1453.17 z"/>
<path transform="translate(0,0)" fill="rgb(252,240,223)" d="M 1272.36 1414.21 L 1324.46 1414.01 C 1336.01 1442.52 1342.97 1474.28 1351.71 1503.82 C 1360.78 1534.51 1371.6 1564.62 1381.36 1595.09 C 1366.51 1595.76 1351.57 1596.71 1336.77 1594.91 C 1334.52 1586.84 1332.97 1577.04 1328.62 1569.89 L 1271.75 1570.26 C 1268.14 1577.93 1267.69 1587.48 1261.22 1593.65 C 1255.08 1599.51 1228.33 1596.15 1219.11 1595.94 C 1222.54 1580.93 1227.38 1566.14 1231.7 1551.37 L 1254.03 1475.07 C 1258.63 1459.35 1265.93 1427.28 1272.36 1414.21 z"/>
<path transform="translate(0,0)" fill="rgb(14,34,51)" d="M 1297.07 1465.35 C 1297.55 1465.55 1298.06 1465.68 1298.5 1465.95 C 1302.16 1468.21 1317.02 1529.29 1317.74 1536.79 C 1312.45 1537.54 1306.96 1537.55 1301.62 1537.82 C 1296.2 1537.97 1285.87 1539.58 1281.13 1537.36 C 1280.46 1525.66 1291.55 1475.17 1297.07 1465.35 z"/>
<path transform="translate(0,0)" fill="rgb(252,240,223)" d="M 1566.52 1412.34 C 1574.63 1412.22 1582.66 1411.54 1590.75 1411.28 C 1595.46 1411.12 1601.11 1411.2 1604.49 1415.05 C 1606.5 1417.34 1607.23 1420.74 1607.34 1423.69 C 1607.76 1434.55 1607.06 1445.73 1607.06 1456.63 L 1607.3 1527.08 L 1607.22 1571.34 C 1607.2 1578.43 1608.07 1585.99 1606.89 1592.98 L 1605.1 1594.16 C 1593.81 1594.28 1576.91 1596.6 1566.34 1592.81 C 1566.14 1591.94 1565.93 1591.07 1565.79 1590.19 C 1562.86 1571.66 1564.85 1532.17 1564.81 1511.52 C 1564.75 1481.19 1562.85 1450.27 1564.33 1420.03 C 1564.5 1416.58 1564.49 1415.09 1566.52 1412.34 z"/>
<path transform="translate(0,0)" fill="rgb(108,139,159)" d="M 360.701 226.411 C 364.97 225.947 369.453 226.035 373.753 225.99 C 459.876 225.101 546.125 226.064 632.261 226.059 L 1166.81 226.06 L 1442.24 226.086 L 1528.94 226.09 C 1543.86 226.087 1559.45 225.121 1574.29 226.366 C 1584.03 227.184 1594.04 231.534 1600.89 238.586 C 1605.99 243.946 1609.64 250.52 1611.49 257.687 C 1616.16 275.458 1613.61 326.855 1613.72 348.013 C 1599.23 347.825 1584.73 347.925 1570.25 347.891 L 313.014 348.027 L 313.076 292.522 C 313.09 282.283 312.15 271.119 313.854 261.044 C 315.016 254.178 317.664 247.863 322.24 242.562 C 332.191 231.039 346.271 227.75 360.701 226.411 z"/>
<path transform="translate(0,0)" fill="rgb(14,34,51)" d="M 559.376 260.097 C 568.438 257.919 577.97 260.801 584.308 267.634 C 590.646 274.468 592.803 284.19 589.95 293.062 C 587.096 301.935 579.677 308.577 570.544 310.435 C 556.762 313.24 543.276 304.483 540.23 290.753 C 537.184 277.023 545.702 263.384 559.376 260.097 z"/>
<path transform="translate(0,0)" fill="rgb(14,34,51)" d="M 383.172 260.337 C 396.942 257.174 410.665 265.788 413.802 279.564 C 416.94 293.34 408.301 307.047 394.52 310.159 C 380.773 313.264 367.109 304.652 363.98 290.911 C 360.85 277.171 369.437 263.491 383.172 260.337 z"/>
<path transform="translate(0,0)" fill="rgb(14,34,51)" d="M 470.359 260.459 C 484.067 257.073 497.92 265.454 501.282 279.168 C 504.644 292.882 496.237 306.72 482.517 310.057 C 468.833 313.385 455.037 305.005 451.684 291.326 C 448.331 277.648 456.687 263.837 470.359 260.459 z"/>
<path transform="translate(0,0)" fill="rgb(46,77,103)" d="M 240.058 668.549 C 320.318 660.827 391.61 719.708 399.194 799.981 C 406.778 880.254 347.775 951.444 267.489 958.891 C 187.397 966.319 116.417 907.49 108.851 827.412 C 101.286 747.333 159.993 676.252 240.058 668.549 z"/>
<path transform="translate(0,0)" fill="rgb(14,34,51)" d="M 245.11 692.853 C 311.742 687.614 370.093 737.178 375.703 803.779 C 381.314 870.381 332.078 929.008 265.509 934.991 C 198.412 941.022 139.217 891.309 133.561 824.179 C 127.906 757.048 177.949 698.133 245.11 692.853 z"/>
<path transform="translate(0,0)" fill="rgb(252,240,223)" d="M 256.464 717.074 C 310.123 717.473 353.337 761.226 353.071 814.886 C 352.805 868.545 309.161 911.868 255.5 911.736 C 201.651 911.603 158.142 867.771 158.409 813.922 C 158.675 760.073 202.616 716.673 256.464 717.074 z"/>
<path transform="translate(0,0)" fill="rgb(108,139,159)" d="M 260.333 1100.87 C 269.545 1100.93 278.814 1101.81 288.007 1102.41 C 287.916 1113.69 287.182 1124.52 290.822 1135.38 C 301.332 1143.7 325.995 1154.65 339.262 1156.41 C 352.837 1158.22 362.228 1144.6 372.079 1137.12 C 377.086 1142.77 382.549 1148 387.925 1153.3 C 379.352 1162.41 369.12 1170.19 363.972 1181.82 C 368.232 1192.26 377.347 1227.11 383.3 1233.31 C 388.35 1238.57 408.939 1237.33 416.656 1237.61 C 417.177 1246.14 416.984 1254.78 417.058 1263.33 C 408.134 1263.62 395.183 1261.59 387.029 1265.27 C 378.74 1269.02 369.076 1291.54 366.436 1300.15 C 361.535 1316.13 375.281 1323.77 381.938 1337.11 L 382.614 1338.48 C 377.301 1344.31 371.438 1349.75 365.841 1355.32 C 360.456 1349.13 354.611 1341.81 347.554 1337.47 C 343.623 1335.06 341.228 1334.68 336.712 1335.74 C 327.911 1337.8 319.417 1341.9 311.233 1345.64 C 306.013 1348.03 296.156 1351.65 292.324 1356.09 C 284.161 1365.53 291.546 1385.1 286.921 1392.38 L 284.25 1392.69 C 276.231 1392.8 268.338 1392.76 260.338 1392.16 C 259.707 1385.39 261.659 1361.2 258.252 1356.72 C 253.619 1350.64 218.904 1337.88 210.475 1336.9 C 201.698 1335.88 188.909 1353.04 182.208 1358.71 C 175.62 1353.36 169.04 1347.19 163.555 1340.73 C 168.913 1332.37 182.666 1322.46 183.021 1312.11 C 183.367 1302 170.025 1273.23 162.458 1266.14 C 155.942 1260.04 137.651 1261.97 129.009 1261.98 C 128.187 1253.1 128.909 1243.83 129.109 1234.91 C 138.566 1234.11 157.738 1236.9 164.868 1230.24 C 173.775 1221.92 182.891 1198.4 183.266 1186.05 C 183.572 1175.97 169.192 1163.87 162.653 1156.91 C 169.518 1149.61 176.754 1142.67 183.926 1135.67 C 190.563 1142.4 200.633 1154.89 210.899 1155.07 C 220.72 1155.24 252.78 1141.98 258.753 1134.2 C 263.144 1128.48 260.574 1108.42 260.333 1100.87 z"/>
<path transform="translate(0,0)" fill="rgb(14,34,51)" d="M 261.811 1175.66 C 301.191 1169.09 338.397 1195.82 344.722 1235.25 C 351.046 1274.67 324.073 1311.7 284.612 1317.78 C 245.505 1323.8 208.873 1297.12 202.605 1258.05 C 196.337 1218.98 222.784 1182.18 261.811 1175.66 z"/>
<path transform="translate(0,0)" fill="rgb(252,240,223)" d="M 269.208 1201.19 C 294.242 1198.83 316.489 1217.11 319.04 1242.12 C 321.591 1267.14 303.491 1289.53 278.497 1292.28 C 253.224 1295.06 230.528 1276.71 227.948 1251.41 C 225.369 1226.12 243.894 1203.57 269.208 1201.19 z"/>
<path transform="translate(0,0)" fill="rgb(69,103,129)" d="M 132.596 934.64 C 139.704 936.042 148.227 944.966 153.823 949.546 C 155.203 952.866 156.248 956.393 157.421 959.795 C 138.404 981.866 110.051 1009.88 88.2896 1029.28 C 88.1055 1029.34 87.9284 1029.43 87.7374 1029.45 C 82.8246 1030.11 77.6477 1026.82 74.1174 1023.74 C 69.4061 1019.63 65.2418 1014.9 65.0928 1008.32 C 65.048 1006.35 65.5712 1004.47 66.6432 1002.82 C 72.4359 993.894 81.9726 985.841 89.4564 978.295 C 103.975 963.881 118.355 949.329 132.596 934.64 z"/>
<path transform="translate(0,0)" fill="rgb(69,103,129)" d="M 1414.11 1797.39 C 1421.46 1795.76 1429.16 1797.53 1435.07 1802.21 C 1440.97 1806.88 1444.45 1813.97 1444.55 1821.5 C 1444.7 1833.13 1436.82 1843.33 1425.53 1846.11 C 1416.78 1848.28 1407.55 1845.57 1401.35 1839.02 C 1395.16 1832.48 1392.96 1823.11 1395.6 1814.49 C 1398.24 1805.88 1405.31 1799.34 1414.11 1797.39 z"/>
<path transform="translate(0,0)" fill="rgb(69,103,129)" d="M 1618.05 1796.95 C 1631.82 1795.29 1644.3 1805.18 1645.83 1818.97 C 1647.35 1832.75 1637.34 1845.14 1623.54 1846.53 C 1609.93 1847.9 1597.75 1838.05 1596.25 1824.46 C 1594.74 1810.86 1604.47 1798.59 1618.05 1796.95 z"/>
<path transform="translate(0,0)" fill="rgb(69,103,129)" d="M 1216.48 1797.15 C 1229.69 1796.78 1240.81 1806.94 1241.62 1820.13 C 1242.43 1833.31 1232.65 1844.77 1219.5 1846.02 C 1210.59 1846.87 1201.93 1842.8 1196.9 1835.39 C 1191.87 1827.99 1191.29 1818.43 1195.36 1810.47 C 1199.44 1802.5 1207.54 1797.4 1216.48 1797.15 z"/>
<path transform="translate(0,0)" fill="rgb(14,34,51)" d="M 1816.68 274.027 C 1905.21 265.653 1983.76 330.647 1992.11 419.18 C 2000.45 507.713 1935.44 586.246 1846.9 594.569 C 1758.4 602.889 1679.91 537.904 1671.56 449.407 C 1663.22 360.909 1728.18 282.397 1816.68 274.027 z"/>
<path transform="translate(0,0)" fill="rgb(46,77,103)" d="M 1825.28 297.242 C 1900.8 293.991 1964.62 352.669 1967.71 428.201 C 1970.8 503.734 1911.99 567.429 1836.45 570.359 C 1761.14 573.281 1697.68 514.682 1694.6 439.376 C 1691.51 364.069 1749.98 300.482 1825.28 297.242 z"/>
<path transform="translate(0,0)" fill="rgb(252,240,223)" d="M 1791.55 362.419 C 1798.29 362.14 1807.87 360.683 1814.22 363.292 C 1816.19 364.101 1817.74 365.458 1818.47 367.461 C 1819.47 370.206 1819.3 372.316 1817.84 374.848 C 1814.3 380.98 1799.89 377.699 1793.76 379.017 C 1792.12 380.11 1791.12 380.851 1790.17 382.639 C 1787.16 388.336 1787.18 480.691 1789.58 488.79 C 1792.47 498.506 1810 493.751 1817.45 497.523 C 1819.22 499.732 1819.62 500.478 1819.95 503.299 C 1820.2 505.466 1819.64 507.837 1818.12 509.444 C 1814.71 513.043 1809.85 512.719 1805.25 513.025 C 1796.38 513.41 1786.42 514.518 1778.08 510.767 C 1761.11 503.139 1773.63 469.683 1766.79 454.267 C 1764.04 448.06 1753.53 445.952 1747.6 443.662 C 1744.26 442.37 1742.72 441.342 1741.23 438.031 C 1744.32 429.167 1761.9 431.774 1767.66 418.813 C 1774.15 404.212 1765.06 385.622 1771.92 372.016 C 1772.65 370.536 1773.6 369.17 1774.73 367.96 C 1779.23 363.144 1785.41 362.843 1791.55 362.419 z"/>
<path transform="translate(0,0)" fill="rgb(252,240,223)" d="M 1858.53 360.285 C 1866.83 359.698 1881.3 359.172 1888.14 364.427 C 1897.43 371.558 1893.43 401.418 1895.55 413.157 C 1899.29 433.947 1911.13 428.044 1924.61 437.657 C 1925.31 443.344 1901.11 448.239 1896.95 455.289 C 1889.49 467.947 1898.42 494.184 1888.74 507.743 C 1886.16 511.354 1882.94 512.432 1878.76 513.297 C 1869.29 514.033 1855.78 516.153 1847.75 510.087 C 1846.03 507.326 1845.03 503.904 1846 500.653 C 1848.42 492.567 1864.72 495.455 1871.28 492.396 C 1873.35 491.431 1874.33 490.434 1875.09 488.214 C 1879.94 473.976 1880.61 393.101 1873.85 379.846 C 1868.53 375.913 1855.13 377.74 1848.39 377.874 C 1847.81 373.404 1846.69 368.987 1848.72 364.778 C 1851.47 361.91 1854.79 361.339 1858.53 360.285 z"/>
<path transform="translate(0,0)" fill="rgb(14,34,51)" d="M 1790.36 698.258 C 1806.09 697.327 1822.31 699.114 1838.13 699.075 C 1857.46 699.027 1879.39 695.475 1898.42 698.976 C 1904.65 700.122 1907.42 704.149 1910.87 709.091 C 1911.46 729.967 1911.16 750.924 1911.18 771.81 C 1911.19 784.459 1912.12 797.946 1910.81 810.499 C 1910.27 815.646 1909.1 822.755 1905.42 826.681 C 1900.04 832.43 1861.22 830.067 1852.44 829.982 C 1851.97 851.985 1852.34 874.081 1852.27 896.094 C 1872.23 896.043 1949.85 892.859 1961.93 900.392 C 1968.91 910.521 1965.49 954.52 1965.16 967.831 C 1972.26 967.866 1981.86 966.99 1988.47 969.835 C 1992.04 971.372 1994.41 974.014 1995.78 977.628 C 1999.42 987.173 2000.07 1042.18 1996.05 1050.26 C 1994.56 1053.25 1991.3 1054.78 1988.26 1055.82 C 1978.08 1059.32 1924.82 1059.85 1915.11 1054.41 C 1912.28 1052.83 1911.38 1050.56 1910.59 1047.53 C 1907.94 1037.29 1906.15 978.825 1912.51 971.691 C 1917.47 966.131 1934.9 967.94 1942.01 968.024 L 1941.93 920.818 L 1852.44 920.889 L 1852.39 968.511 C 1857.45 968.261 1862.69 967.797 1867.74 968.257 C 1872.24 968.668 1876.97 969.992 1879.83 973.733 C 1888.98 985.675 1886.69 1033.08 1884.24 1048.18 C 1883.1 1049.69 1881.94 1051.27 1880.54 1052.55 C 1871.68 1060.73 1839.21 1057.87 1826.81 1058 C 1820.01 1058.07 1807.01 1059.29 1802.12 1053.88 C 1793.8 1044.68 1795.18 996.547 1796.89 983.074 C 1797.48 978.371 1798.23 973.556 1802.33 970.613 C 1809.93 965.152 1821.14 965.778 1829.94 967.163 L 1829.97 920.793 L 1737.86 920.906 L 1737.8 967.889 C 1745.37 967.907 1758.18 967.597 1763.95 973.163 C 1771.43 980.374 1769.04 1035.2 1768.94 1047.93 C 1766.26 1051.48 1763.53 1054.06 1760.02 1056.79 C 1749.05 1058.54 1694.75 1060.13 1686.41 1055.26 C 1682.76 1053.12 1681.21 1046.35 1680.5 1042.56 C 1678.36 1031.1 1677.82 978.751 1684.42 971.422 C 1689.88 965.357 1708.31 967.07 1715.74 967.131 C 1715.64 955.839 1713.04 907.648 1718.09 900.241 C 1721.85 897.871 1725.56 896.938 1729.96 896.383 C 1741 894.989 1753.06 895.902 1764.21 895.916 L 1829.98 896.073 L 1829.94 830.068 C 1816.66 829.838 1792.74 833.12 1781.05 827.393 C 1777.85 825.824 1776.53 822.761 1775.44 819.532 C 1771.42 807.716 1771.02 717.395 1776.44 707.569 C 1779.65 701.756 1784.22 699.876 1790.36 698.258 z"/>
<path transform="translate(0,0)" fill="rgb(108,139,159)" d="M 1797.72 727.093 L 1887.02 727.08 C 1886.93 752.542 1888.98 780.897 1886.66 806.003 L 1797.58 805.987 C 1797.32 779.689 1797.37 753.39 1797.72 727.093 z"/>
<path transform="translate(0,0)" fill="rgb(69,103,129)" d="M 1704.07 997.132 C 1717.86 996.877 1732.93 995.645 1746.45 998.433 C 1746.29 1009.98 1746.4 1021.61 1745.39 1033.12 C 1731.61 1033.44 1717.83 1033.58 1704.05 1033.56 C 1703.44 1021.43 1703.45 1009.27 1704.07 997.132 z"/>
<path transform="translate(0,0)" fill="rgb(69,103,129)" d="M 1830.52 997.415 C 1839.52 997.062 1848.34 997.231 1857.33 997.688 C 1858.28 1009.68 1858.54 1021.33 1857.69 1033.35 L 1849.75 1033.49 L 1817.39 1032.96 C 1816.84 1021.47 1816.84 1009.73 1817.63 998.26 L 1830.52 997.415 z"/>
<path transform="translate(0,0)" fill="rgb(69,103,129)" d="M 1943.32 997.412 C 1953.01 996.595 1962.89 996.892 1972.61 996.826 C 1973.06 1008.17 1973.86 1020.28 1972.61 1031.55 C 1970.3 1033.49 1968.18 1032.97 1965.25 1033.12 C 1954.22 1033.28 1943.16 1033.05 1932.13 1032.98 C 1931.88 1022.05 1931.78 1010.22 1933.4 999.422 C 1935.88 997.533 1940.18 997.737 1943.32 997.412 z"/>
<path transform="translate(0,0)" fill="rgb(14,34,51)" d="M 248.936 1686.2 C 295.293 1684.5 342.218 1685.97 388.629 1685.97 L 657.773 1685.98 L 876.307 1685.99 L 948.22 1685.98 C 959.263 1685.98 970.556 1685.33 981.568 1685.92 C 986.367 1686.17 990.362 1686.85 994.216 1689.92 C 997.005 1692.15 999.682 1695.59 999.811 1699.3 C 999.883 1701.37 999.122 1703.11 997.75 1704.61 C 994.399 1708.29 990.951 1708.69 986.248 1708.99 C 953.98 1711.74 920.356 1709.87 887.911 1709.87 L 706.792 1709.84 L 422.35 1709.07 C 368.815 1709.15 314.953 1711.23 261.447 1709.82 C 255.269 1709.66 248.887 1709.29 243.001 1707.25 C 239.733 1706.12 235.771 1704.07 234.535 1700.6 C 233.578 1697.92 234.96 1694.95 236.402 1692.68 C 239.58 1687.7 243.479 1687.32 248.936 1686.2 z"/>
<path transform="translate(0,0)" fill="rgb(46,77,103)" d="M 867.582 1775.6 C 877.301 1774.59 900.383 1772.27 908.5 1777.54 C 910.602 1778.9 911.914 1780.45 912.2 1783.02 C 912.605 1786.66 911.119 1789.21 908.745 1791.75 C 900.125 1796.18 752.211 1793.87 729.75 1793.84 C 719.531 1793.79 703.757 1796.59 694.617 1792.49 C 691.206 1790.96 687.903 1788.15 686.968 1784.37 C 686.505 1782.5 686.952 1780.71 688.279 1779.31 C 690.227 1777.25 693.474 1776.8 696.132 1776.49 C 711.579 1774.7 728.165 1775.87 743.723 1775.89 C 784.432 1775.95 827.025 1777.93 867.582 1775.6 z"/>
<path transform="translate(0,0)" fill="rgb(14,34,51)" d="M 698.488 1610.15 C 702.854 1609.92 706.628 1610.15 710.145 1613.07 C 713.552 1615.89 716.07 1620.39 716.275 1624.85 C 716.451 1628.7 714.93 1632.57 712.273 1635.35 C 710.153 1637.56 707.062 1639.79 703.962 1640.21 C 692.918 1641.74 680.528 1638.3 669.273 1638.1 C 637.717 1637.52 606.065 1638.01 574.5 1638.04 L 569.493 1638.08 C 566.171 1638.13 563.215 1638.29 560.026 1637.15 C 556.584 1635.91 552.921 1633.84 551.761 1630.12 C 550.81 1627.07 551.902 1623 553.462 1620.29 C 555.06 1617.5 557.094 1615.81 560.291 1615.11 C 567.042 1613.65 575.985 1615.4 582.993 1615.31 C 598.144 1615.13 613.244 1614.75 628.407 1614.77 C 652.087 1614.79 675.349 1616.04 698.488 1610.15 z"/>
<path transform="translate(0,0)" fill="rgb(46,77,103)" d="M 168.557 1504.94 C 172.321 1505.12 176.471 1505.62 179.1 1508.63 C 183.721 1513.93 181.704 1526.46 181.439 1533.19 C 187.599 1533.06 200.008 1531.06 204.871 1534.77 C 207.637 1536.88 209.579 1541.56 209.537 1544.97 C 209.507 1547.34 208.582 1549.5 206.678 1550.95 C 201.068 1555.26 190.208 1553.42 183.647 1553.05 C 183.11 1559.67 183.894 1566.44 182.698 1573.01 C 182.035 1576.65 180.689 1580.48 177.273 1582.42 C 173.43 1584.6 170.26 1583.54 166.433 1582.17 C 165.563 1581.38 164.502 1580.51 163.795 1579.55 C 158.828 1572.81 161.478 1560.85 162.093 1552.99 C 153.769 1552.74 137.968 1555.81 131.255 1550.73 C 128.609 1548.73 127.348 1546.06 127.081 1542.81 C 126.828 1539.72 127.116 1536.48 129.447 1534.17 C 135.381 1528.3 153.361 1533.47 161.162 1534.24 C 161.167 1529.05 160.789 1523.6 161.227 1518.44 C 161.749 1512.3 163.838 1508.77 168.557 1504.94 z"/>
<path transform="translate(0,0)" fill="rgb(14,34,51)" d="M 164.121 383.45 C 170.661 381.68 177.653 383.064 183.025 387.194 C 188.397 391.323 191.533 397.723 191.505 404.499 C 191.464 414.264 184.909 422.801 175.484 425.36 C 163.909 428.504 151.977 421.666 148.838 410.089 C 145.699 398.512 152.543 386.584 164.121 383.45 z"/>
<path transform="translate(0,0)" fill="rgb(14,34,51)" d="M 1863.61 1387.73 C 1871.29 1386.08 1879.25 1388.74 1884.41 1394.67 C 1889.56 1400.6 1891.09 1408.86 1888.4 1416.23 C 1885.7 1423.61 1879.22 1428.94 1871.46 1430.16 C 1859.91 1431.96 1849.02 1424.25 1846.9 1412.76 C 1844.77 1401.27 1852.18 1390.17 1863.61 1387.73 z"/>
<path transform="translate(0,0)" fill="rgb(14,34,51)" d="M 454.484 1777.06 C 457.597 1777.52 460.897 1777.88 463.642 1779.53 C 467.42 1781.82 469.761 1786.09 470.688 1790.31 C 471.799 1795.37 470.855 1800.92 467.762 1805.13 C 464.697 1809.3 461.268 1809.45 456.439 1810.1 C 453.349 1809.68 450.074 1809.37 447.33 1807.77 C 443.798 1805.71 441.211 1802.16 440.167 1798.22 C 439.014 1793.87 439.753 1789.39 442.035 1785.53 C 445.063 1780.42 448.94 1778.58 454.484 1777.06 z"/>
<path transform="translate(0,0)" fill="rgb(46,77,103)" d="M 1708.87 684.776 C 1714.25 684.768 1719.22 687.656 1721.87 692.335 C 1724.52 697.013 1724.45 702.758 1721.68 707.368 C 1718.91 711.979 1713.88 714.743 1708.5 714.601 C 1700.35 714.386 1693.88 707.661 1693.98 699.505 C 1694.08 691.35 1700.72 684.788 1708.87 684.776 z"/>
<path transform="translate(0,0)" fill="rgb(46,77,103)" d="M 178.145 545.907 C 180.747 545.602 184.079 545.431 186.597 546.247 C 189.525 547.195 192.279 549.617 193.677 552.353 C 194.998 554.94 195.135 557.776 194.24 560.513 C 192.83 564.821 189.831 566.82 186.034 568.917 C 184.38 568.98 182.66 569.061 181.016 568.844 C 177.472 568.377 173.259 565.906 171.227 562.961 C 169.604 560.608 169.181 557.608 169.779 554.841 C 170.773 550.238 174.497 548.331 178.145 545.907 z"/>
<path transform="translate(0,0)" fill="rgb(14,34,51)" d="M 1748.61 1208.39 C 1754.63 1207.53 1760.24 1211.61 1761.28 1217.6 C 1762.33 1223.59 1758.42 1229.32 1752.47 1230.55 C 1748.45 1231.38 1744.3 1229.95 1741.64 1226.83 C 1738.97 1223.71 1738.22 1219.39 1739.67 1215.55 C 1741.12 1211.71 1744.55 1208.97 1748.61 1208.39 z"/>
<path transform="translate(0,0)" fill="rgb(14,34,51)" d="M 1801.05 1209.11 C 1802.68 1209.39 1804.41 1209.64 1805.98 1210.2 C 1808.67 1211.15 1811.32 1213.89 1812.4 1216.53 C 1813.56 1219.33 1813.4 1222.49 1811.98 1225.16 C 1810.05 1228.85 1806.63 1230.53 1802.95 1232.03 C 1798.05 1230.14 1793.14 1228.16 1790.89 1223.04 C 1789.85 1220.65 1789.73 1218.31 1791.03 1215.95 C 1793.15 1212.08 1797.16 1210.6 1801.05 1209.11 z"/>
<path transform="translate(0,0)" fill="rgb(14,34,51)" d="M 1825.68 1601.54 C 1829.31 1599.97 1833.49 1600.51 1836.61 1602.93 C 1839.72 1605.36 1841.26 1609.29 1840.63 1613.18 C 1840 1617.08 1837.29 1620.32 1833.57 1621.64 C 1828.08 1623.58 1822.04 1620.82 1819.91 1615.4 C 1817.79 1609.98 1820.34 1603.85 1825.68 1601.54 z"/>
<path transform="translate(0,0)" fill="rgb(14,34,51)" d="M 1771.7 1167.96 C 1775.65 1167.77 1779.63 1167.54 1782.87 1170.28 C 1784.85 1171.95 1786.16 1174.18 1786.31 1176.8 C 1786.59 1182.11 1783.75 1185.54 1780.21 1189.09 C 1778.84 1189.1 1777.33 1189.17 1775.96 1189 C 1772.35 1188.54 1769.59 1186.64 1767.52 1183.7 C 1765.64 1181.03 1765.1 1178.14 1765.83 1174.98 C 1766.66 1171.31 1768.77 1169.89 1771.7 1167.96 z"/>
<path transform="translate(0,0)" fill="rgb(14,34,51)" d="M 1868.59 1601.01 C 1874.29 1599.96 1879.77 1603.71 1880.86 1609.4 C 1881.94 1615.1 1878.22 1620.6 1872.53 1621.72 C 1866.8 1622.84 1861.25 1619.08 1860.16 1613.35 C 1859.06 1607.61 1862.85 1602.08 1868.59 1601.01 z"/>
<path transform="translate(0,0)" fill="rgb(69,103,129)" d="M 136.488 548.584 C 141.474 547.077 146.751 549.828 148.37 554.779 C 149.99 559.729 147.359 565.067 142.447 566.798 C 139.168 567.953 135.521 567.243 132.916 564.942 C 130.311 562.641 129.155 559.11 129.897 555.714 C 130.639 552.318 133.161 549.589 136.488 548.584 z"/>
</svg>