<!-- Generated by SVGMaker - https://svgmaker.io -->
<!-- Prompt: Modern tech illustration showing an MCP server connecting multiple AI assistants to SVG generation capabilities. Show interconnected nodes, data flow, and SVG icons. Use a clean, professional design with blue and purple gradients, geometric shapes, and modern typography elements. -->
<svg version="1.1" xmlns="http://www.w3.org/2000/svg" style="display: block;" viewBox="0 0 2048 1365" width="1536" height="1024">
<defs>
	<linearGradient id="Gradient1" gradientUnits="userSpaceOnUse" x1="505.558" y1="294.788" x2="387.681" y2="214.328">
		<stop class="stop0" offset="0" stop-opacity="1" stop-color="rgb(193,226,247)"/>
		<stop class="stop1" offset="1" stop-opacity="1" stop-color="rgb(241,252,255)"/>
	</linearGradient>
	<linearGradient id="Gradient2" gradientUnits="userSpaceOnUse" x1="440.738" y1="286.912" x2="349.202" y2="176.992">
		<stop class="stop0" offset="0" stop-opacity="1" stop-color="rgb(124,193,242)"/>
		<stop class="stop1" offset="1" stop-opacity="1" stop-color="rgb(166,221,252)"/>
	</linearGradient>
	<linearGradient id="Gradient3" gradientUnits="userSpaceOnUse" x1="508.725" y1="374.03" x2="354.082" y2="387.987">
		<stop class="stop0" offset="0" stop-opacity="1" stop-color="rgb(140,194,235)"/>
		<stop class="stop1" offset="1" stop-opacity="1" stop-color="rgb(233,250,255)"/>
	</linearGradient>
	<linearGradient id="Gradient4" gradientUnits="userSpaceOnUse" x1="500.305" y1="1089.34" x2="393.333" y2="990.557">
		<stop class="stop0" offset="0" stop-opacity="1" stop-color="rgb(190,223,246)"/>
		<stop class="stop1" offset="1" stop-opacity="1" stop-color="rgb(236,250,254)"/>
	</linearGradient>
	<linearGradient id="Gradient5" gradientUnits="userSpaceOnUse" x1="545.591" y1="1162.05" x2="350.618" y2="959.29">
		<stop class="stop0" offset="0" stop-opacity="1" stop-color="rgb(74,154,218)"/>
		<stop class="stop1" offset="1" stop-opacity="1" stop-color="rgb(167,223,255)"/>
	</linearGradient>
	<linearGradient id="Gradient6" gradientUnits="userSpaceOnUse" x1="531.908" y1="1175.55" x2="351.73" y2="1145.59">
		<stop class="stop0" offset="0" stop-opacity="1" stop-color="rgb(128,184,226)"/>
		<stop class="stop1" offset="1" stop-opacity="1" stop-color="rgb(228,250,255)"/>
	</linearGradient>
	<linearGradient id="Gradient7" gradientUnits="userSpaceOnUse" x1="415.393" y1="680.458" x2="289.634" y2="616.522">
		<stop class="stop0" offset="0" stop-opacity="1" stop-color="rgb(196,227,248)"/>
		<stop class="stop1" offset="1" stop-opacity="1" stop-color="rgb(237,250,254)"/>
	</linearGradient>
	<linearGradient id="Gradient8" gradientUnits="userSpaceOnUse" x1="346.945" y1="681.43" x2="252.292" y2="571.528">
		<stop class="stop0" offset="0" stop-opacity="1" stop-color="rgb(125,193,242)"/>
		<stop class="stop1" offset="1" stop-opacity="1" stop-color="rgb(167,222,252)"/>
	</linearGradient>
	<linearGradient id="Gradient9" gradientUnits="userSpaceOnUse" x1="438.144" y1="784.832" x2="257.178" y2="762.466">
		<stop class="stop0" offset="0" stop-opacity="1" stop-color="rgb(125,182,226)"/>
		<stop class="stop1" offset="1" stop-opacity="1" stop-color="rgb(243,255,255)"/>
	</linearGradient>
	<linearGradient id="Gradient10" gradientUnits="userSpaceOnUse" x1="1883.05" y1="735.442" x2="1592.81" y2="503.241">
		<stop class="stop0" offset="0" stop-opacity="1" stop-color="rgb(96,169,227)"/>
		<stop class="stop1" offset="1" stop-opacity="1" stop-color="rgb(162,222,255)"/>
	</linearGradient>
	<linearGradient id="Gradient11" gradientUnits="userSpaceOnUse" x1="1757.82" y1="374.036" x2="1473.86" y2="139.706">
		<stop class="stop0" offset="0" stop-opacity="1" stop-color="rgb(103,175,232)"/>
		<stop class="stop1" offset="1" stop-opacity="1" stop-color="rgb(168,224,255)"/>
	</linearGradient>
	<linearGradient id="Gradient12" gradientUnits="userSpaceOnUse" x1="1783.03" y1="1127.92" x2="1557.62" y2="831.869">
		<stop class="stop0" offset="0" stop-opacity="1" stop-color="rgb(104,175,230)"/>
		<stop class="stop1" offset="1" stop-opacity="1" stop-color="rgb(165,223,255)"/>
	</linearGradient>
</defs>
<path transform="translate(0,0)" fill="rgb(21,55,117)" d="M 1473.15 248.114 C 1473.25 247.94 1473.36 247.77 1473.45 247.591 C 1476.25 242.154 1475.07 231.473 1475.06 225.395 C 1475.03 206.26 1472.01 133.784 1477.53 120.082 C 1480.07 113.775 1485.87 108.722 1492.23 106.489 C 1495.27 105.421 1498.15 105.11 1501.34 104.987 C 1542.64 103.398 1584.51 104.97 1625.89 104.95 L 1695.07 104.91 C 1707.48 104.895 1720.1 104.372 1732.47 105.064 C 1735.84 105.253 1738.92 105.695 1741.97 107.215 C 1747.95 110.192 1753.69 116.436 1755.89 122.794 C 1759.37 132.876 1757.06 236.727 1757.08 257.269 L 1757.18 338.334 C 1757.2 353.408 1757.74 368.72 1756.91 383.766 C 1756.64 388.573 1755.96 392.689 1753.61 396.949 C 1750.47 402.621 1745.68 405.499 1739.57 407.187 C 1725.93 410.952 1707.82 408.884 1693.67 408.833 C 1670.83 408.607 1648 408.646 1625.16 408.952 C 1628.06 413.856 1627.99 458.542 1626.43 465.47 C 1626.13 466.813 1625.62 467.937 1624.89 469.093 L 1779.84 468.87 C 1802.89 468.871 1834.25 467.07 1856.09 469.361 C 1862.79 470.064 1869.15 471.01 1874.17 475.869 C 1883.98 485.387 1882.46 497.864 1882.48 510.435 L 1882.5 673.561 L 1882.49 722.596 C 1882.48 731.804 1883.08 741.717 1881.75 750.812 C 1881.09 755.378 1878.13 760.344 1874.89 763.625 C 1871.04 767.532 1864.15 769.014 1858.86 769.743 C 1846.64 771.426 1833.11 770.324 1820.75 770.319 C 1793.37 770.308 1765.92 769.898 1738.55 770.396 C 1741.4 775.523 1741.37 819.368 1739.7 825.977 C 1739.42 827.093 1738.88 827.957 1738.29 828.925 C 1755.61 829.679 1797.62 824.213 1809.4 837.34 C 1812.73 841.108 1814.85 845.794 1815.48 850.786 C 1816.96 862.807 1815.97 875.95 1815.96 888.1 L 1815.93 958.379 L 1815.93 1051.79 C 1815.94 1068.23 1816.79 1085.09 1815.67 1101.46 C 1815.15 1108.99 1814.74 1117.08 1808.73 1122.23 C 1804.59 1125.79 1799.75 1128.16 1794.3 1128.81 C 1781.43 1130.34 1767.3 1129.28 1754.31 1129.28 L 1677.8 1129.3 L 1594.45 1129.37 C 1578.39 1129.43 1561.66 1130.42 1545.69 1128.91 C 1539.87 1128.36 1534.88 1125.22 1531.32 1120.69 C 1517.78 1103.43 1531.8 1061.07 1524.39 1047.81 L 1427.66 1047.93 C 1410.31 1047.94 1390.25 1049.82 1373.28 1046.33 C 1366.8 1045 1362.16 1042.48 1357.42 1037.84 C 1344.08 1024.77 1346.76 1006.67 1346.77 989.55 L 1347 866.163 C 1347.03 847.77 1348.89 825.828 1346.5 807.895 C 1345.65 801.503 1343.46 793.902 1338.83 789.154 C 1325.7 775.679 1283.19 779.864 1265.12 779.982 L 1265.27 856.338 C 1265.28 868.702 1266.67 883.057 1264.48 895.128 C 1263.75 899.104 1261.81 902.573 1259.01 905.456 C 1249.2 915.57 1208.63 925.538 1205.52 932.785 L 1205.17 932.028 C 1203.08 931.184 1201 932.547 1198.92 933.33 C 1168.39 945.396 1138.42 958.959 1108.07 971.482 C 1094.31 977.159 1079.86 984.296 1065.28 987.481 C 1054.21 989.899 1042.12 989.496 1030.94 987.965 C 1030.8 1017.48 1032.33 1047.92 1030.31 1077.28 C 1029.41 1065.17 1031.93 991.308 1029.37 987.514 L 1024.07 986.785 C 988.996 983.59 953.586 975.999 918.853 970.121 C 916.531 970.112 914.17 969.716 911.863 969.454 L 824.86 954.729 C 811.73 952.513 796.58 951.313 783.986 947.175 C 780.076 945.89 776.261 943.405 773.365 940.474 C 770.697 937.774 768.883 934.836 767.938 931.141 C 763.706 914.582 766.74 872.77 767.054 853.237 C 760.79 853.316 754.524 853.246 748.263 853.029 C 751.51 850.328 760.743 851.559 765.152 851.34 L 764.652 851.905 L 766.39 848.962 C 757.442 840.93 725.282 851.806 715.873 843.247 C 732.819 842.584 749.938 843.048 766.905 843.064 L 766.993 767.564 C 753.591 767.665 740.165 767.935 726.775 767.256 C 715.968 767.481 668.211 768.806 661.272 766.321 L 660.531 763.615 C 660.977 762.756 660.815 762.94 661.67 762.08 C 662.804 760.938 664.485 760.272 666.061 760.069 C 674.092 759.034 683.445 760.023 691.584 760.097 L 739.869 760.232 C 748.841 759.799 757.972 760.11 766.961 760.089 L 766.893 664.796 L 749.37 664.797 C 754.634 663.004 759.973 662.928 765.471 662.67 L 765.606 657.324 C 762.629 654.824 753.454 655.159 749.298 653.618 C 749.081 653.538 748.868 653.448 748.652 653.362 C 754.709 653.268 760.801 653.522 766.859 653.633 C 766.402 633.454 766.143 613.271 766.084 593.088 L 766.296 585.998 C 765.032 551.218 766.018 516.017 765.75 481.186 C 765.555 455.813 763.524 428.897 765.528 403.659 C 765.872 399.331 766.686 395.371 769.313 391.78 C 776.563 381.872 817.649 379.433 831.006 377.406 L 839.3 376.224 C 870.511 372.769 901.793 368.464 932.911 364.204 C 963.043 360.079 992.238 355.48 1022.79 356.447 L 1029.12 356.597 C 1050.11 357.582 1071.09 358.682 1092.07 359.899 C 1102.17 360.472 1113.12 360.294 1123.05 362 C 1125.17 361.997 1126.72 361.813 1128.76 361.249 C 1131.03 339.489 1128.04 317.051 1129.47 295.148 C 1130.42 317.323 1129.78 339.724 1129.75 361.926 L 1208.27 366.867 C 1221.03 367.667 1234.85 367.34 1247.37 369.77 C 1252.08 370.685 1256.51 371.88 1259.88 375.563 C 1262.57 378.517 1264.08 382.567 1264.65 386.491 C 1266.86 401.698 1265.27 419.15 1265.26 434.572 C 1265.24 470.279 1264.76 506.042 1265.22 541.743 C 1278.5 541.725 1292.78 543.515 1302.9 533.166 C 1307.51 528.451 1308.5 521.92 1309.21 515.61 C 1311.36 496.66 1309.75 476.057 1309.73 456.877 L 1309.56 340.003 C 1309.54 322.192 1306.28 288.153 1314.31 272.833 C 1324.19 254.003 1342.98 248.502 1362.9 248.009 C 1399.56 247.101 1436.47 248.027 1473.15 248.114 z M 1265.24 706.726 L 1374.62 706.671 C 1392.84 706.663 1413.92 704.579 1431.75 707.985 C 1438.8 709.332 1444.32 712.152 1449.39 717.27 C 1453.94 721.869 1457.45 727.505 1458.89 733.853 C 1461.53 745.426 1460.16 759.368 1460.14 771.251 L 1459.94 862.452 C 1459.9 877.653 1458.51 894.403 1460.5 909.447 C 1461.27 915.267 1463.21 921.916 1466.93 926.571 C 1472.71 933.791 1482.99 934.689 1491.57 934.813 C 1502.42 934.968 1513.29 934.847 1524.13 934.844 C 1524.22 934.683 1524.32 934.526 1524.41 934.362 C 1526.64 930.07 1526 921.873 1525.98 917.033 C 1525.92 900.694 1522.72 857.075 1528.04 844.018 C 1530.53 837.889 1535.28 833.275 1541.57 831.16 C 1560.04 824.949 1614.09 831.406 1637.66 828.961 C 1668.83 830.098 1700.37 829.171 1731.58 829.16 C 1731.81 828.777 1732.05 828.405 1732.26 828.012 C 1734.77 823.276 1733.82 808.746 1731.98 803.743 C 1734.87 798.001 1734.44 777.255 1732.64 770.975 C 1729.24 769.078 1627.38 770.139 1614.8 770.117 C 1608.55 768.006 1600.85 764.753 1597.64 758.639 C 1595.36 754.296 1594.36 749.05 1593.9 744.21 C 1592.62 730.679 1593.47 716.57 1593.48 702.961 L 1593.62 626.45 C 1593.64 619.726 1595.36 605.466 1592.33 599.997 L 1518.3 599.868 C 1505.59 599.853 1491.4 598.57 1478.92 600.643 C 1474.23 601.422 1469.81 603.216 1466.46 606.703 C 1451.7 622.047 1469.56 653.258 1424.87 655.79 C 1406.5 656.831 1387.73 655.997 1369.3 655.979 L 1265.11 655.945 L 1265.24 706.726 z M 1524.2 945.828 C 1505.71 945.83 1475.62 949.942 1461.5 935.559 C 1456.46 930.43 1453.11 923.421 1451.73 916.406 C 1449.22 903.704 1450.63 889.051 1450.68 876.11 L 1450.86 787.246 C 1450.89 773.059 1452.33 757.28 1450.35 743.301 C 1449.55 737.623 1447.93 732.086 1444.55 727.378 C 1438 718.267 1426.47 717.288 1416.1 717.103 C 1365.87 716.211 1315.47 717.104 1265.22 717.118 C 1265.22 734.428 1264.87 751.82 1265.33 769.12 C 1289.47 769.024 1327.96 763.92 1345.9 781.949 C 1350.67 786.745 1353.81 792.204 1355.18 798.84 C 1358.09 812.897 1356.11 829.547 1356.11 843.963 L 1356.13 953.485 C 1356.13 972.755 1355.04 992.769 1356.53 1011.96 C 1356.88 1016.5 1357.44 1020.79 1359.75 1024.8 C 1366.19 1036.01 1376.85 1037.18 1388.77 1037.35 C 1401.47 1037.53 1523.66 1037.42 1524.62 1036.53 C 1526.53 1030.88 1526.63 950.368 1524.76 946.808 C 1524.59 946.474 1524.39 946.155 1524.2 945.828 z M 1618.99 410.151 C 1614.41 407.279 1602.92 408.521 1597.35 408.546 C 1576.41 408.638 1506.87 411.726 1491.6 406.631 C 1484.08 404.122 1477.8 398.718 1475.96 390.774 C 1473.11 378.459 1474.66 363.289 1474.71 350.607 L 1474.92 284.123 C 1474.92 276.349 1476.24 265.792 1473.9 258.456 C 1446.7 259.15 1419.44 258.708 1392.22 258.679 C 1378.52 258.664 1363.64 257.416 1350.18 259.757 C 1342.26 261.135 1333.62 264.268 1328.01 270.263 C 1323.71 274.822 1320.81 280.515 1319.64 286.671 C 1317.04 300.944 1319 317.555 1319 332.1 L 1318.98 454.197 C 1318.99 475.092 1320.46 497.191 1318.53 517.975 C 1317.99 523.751 1316.65 530.341 1314.01 535.551 C 1308.49 546.455 1295.6 551.524 1284.07 552.02 C 1277.83 552.289 1271.5 552.037 1265.25 551.933 L 1265.21 645.208 L 1376.64 645.503 C 1394.32 645.503 1413.9 647.247 1431.28 644.572 C 1435.96 643.852 1440.17 642.048 1443.49 638.563 C 1458.31 623.035 1441.76 591.835 1485.43 589.302 C 1504.21 588.213 1523.38 589.418 1542.22 589.369 C 1558.53 589.326 1576.47 587.511 1592.54 589.547 C 1594.64 583.046 1593.76 574.476 1593.73 567.67 C 1593.66 550.655 1590.69 499.411 1595.06 486.15 C 1597.08 480.011 1601.33 474.58 1607.14 471.614 C 1610.62 469.839 1614.56 469.368 1618.38 468.798 C 1618.53 468.568 1618.69 468.349 1618.82 468.106 C 1621.46 462.951 1621.04 416.629 1618.99 410.151 z"/>
<path transform="translate(0,0)" fill="rgb(59,148,227)" d="M 726.775 767.256 C 715.968 767.481 668.211 768.806 661.272 766.321 L 660.531 763.615 C 660.977 762.756 660.815 762.94 661.67 762.08 C 662.804 760.938 664.485 760.272 666.061 760.069 C 674.092 759.034 683.445 760.023 691.584 760.097 L 739.869 760.232 C 746.816 760.611 761.219 758.373 766.601 762.85 C 767.164 764.584 767.307 764.788 766.799 766.512 C 753.556 767.896 740.026 766.163 726.775 767.256 z"/>
<path transform="translate(0,0)" fill="rgb(59,148,227)" d="M 1732.64 770.975 C 1734.57 770.51 1736.57 770.498 1738.55 770.396 C 1741.4 775.523 1741.37 819.368 1739.7 825.977 C 1739.42 827.093 1738.88 827.957 1738.29 828.925 L 1735.97 829.233 C 1730.63 825.649 1736.65 809.816 1731.98 803.743 C 1734.87 798.001 1734.44 777.255 1732.64 770.975 z"/>
<path transform="translate(0,0)" fill="rgb(45,85,159)" d="M 785.423 392.326 C 786.777 392.183 788.137 392.111 789.498 392.11 C 810.235 391.911 839.485 396.769 861.214 398.443 C 909.678 402.36 958.109 406.669 1006.5 411.371 C 1023.47 413.044 1040.63 414.056 1057.53 416.101 C 1060.73 416.488 1070.21 417.336 1072.31 419.541 C 1074.28 421.616 1075.63 425.036 1075.92 427.849 C 1077.52 443.213 1076.65 459.58 1076.67 475.051 L 1076.44 570.533 C 1076.5 695.362 1075.53 820.19 1073.54 945.003 C 1073.21 958.597 1074.91 970.688 1064.43 980.685 C 1054.08 981.135 1043.71 980.68 1033.44 979.323 C 1000.14 975.255 966.999 968.633 933.806 963.592 L 833.245 947.363 C 821.45 945.445 809.379 944.62 797.671 942.345 C 793.056 941.449 787.774 940.457 783.723 937.937 C 779.656 935.408 777.373 931.493 776.376 926.892 C 774.184 916.781 775.828 903.418 775.927 892.91 L 776.513 821.213 C 776.55 744.332 776.076 667.45 775.091 590.575 L 774.024 466.416 C 773.891 446.619 772.581 426.184 773.841 406.453 C 774.042 403.304 774.25 398.521 776.234 395.948 C 778.526 392.975 781.991 392.74 785.423 392.326 z"/>
<path transform="translate(0,0)" fill="rgb(21,55,117)" d="M 810.527 540.073 C 830.708 540.338 856.55 546.185 877.112 548.757 C 924.409 554.673 972.066 559.412 1019.19 566.447 C 1023.21 567.047 1028.91 567.52 1032.24 569.849 C 1035.54 576.676 1034.37 616.558 1033.92 625.531 C 1033.64 631.187 1033.03 636.269 1028.57 640.193 C 1000.26 635.261 813.723 614.36 806.846 608.014 C 803.508 601.165 804.072 566.827 804.383 557.031 C 804.602 550.116 805.242 544.96 810.527 540.073 z"/>
<path transform="translate(0,0)" fill="rgb(59,148,227)" d="M 816.103 553.104 C 830.364 554.072 844.826 556.478 859.044 558.134 C 913.833 564.515 968.587 573.73 1023.49 578.721 C 1022.9 594.862 1023.21 611.147 1023.12 627.307 C 1005.52 624.03 987.044 622.342 969.262 620.109 L 882.476 609.049 C 860.334 606.389 837.954 604.347 815.951 600.723 C 815.899 584.85 815.95 568.977 816.103 553.104 z"/>
<path transform="translate(0,0)" fill="rgb(21,55,117)" d="M 809.6 454.018 C 820.059 454.587 830.83 456.633 841.252 457.884 L 917.526 467.308 C 942.205 470.002 966.864 472.864 991.504 475.894 C 1004.38 477.453 1017.76 478.395 1030.41 481.278 C 1033.15 483.717 1033.78 486.917 1034.21 490.426 C 1035.58 501.811 1035.81 536.292 1029.14 544.946 C 1011.51 545.6 983.218 540.041 964.905 537.696 C 919.821 531.656 874.68 526.047 829.489 520.87 C 824.85 520.353 810.637 519.942 807.818 516.992 C 802.703 511.641 804.205 479.571 804.451 471.808 C 804.666 465.017 804.316 458.939 809.6 454.018 z"/>
<path transform="translate(0,0)" fill="rgb(59,148,227)" d="M 815.154 465.723 C 865.655 473.644 917.023 478.815 967.815 484.762 C 986.481 486.947 1005.38 488.487 1023.94 491.431 L 1023 532.335 C 999.975 530.898 976.954 526.839 954.044 524.102 L 815.159 507.71 C 814.915 493.731 815.138 479.706 815.154 465.723 z"/>
<path transform="translate(0,0)" fill="rgb(253,253,253)" d="M 831.91 812.801 C 834.047 812.925 836.475 812.959 838.521 813.623 C 848.134 816.742 857.976 842.915 862.261 851.978 C 867.512 846.262 879.972 825.14 885.644 823.174 C 889.054 821.992 893.037 823.036 896.108 824.653 C 899.379 829.636 893.781 888.285 892.646 897.986 C 891.216 899.398 890.742 899.582 888.706 899.807 C 885.497 900.161 882.359 899.401 879.818 897.447 C 876.793 892.36 879.505 877.192 879.929 871.089 C 879.88 863.649 880.651 856.389 881.449 849.007 C 876.965 855.791 871.524 866.349 865.358 871.428 C 863.028 873.347 862.066 873.427 859.261 873.232 C 851.956 868.484 846.838 853.782 842.947 845.848 C 841.385 856.811 842.423 880.396 838.144 889.142 C 836.874 891.737 836.009 892.296 833.406 893.351 C 830.465 892.895 828.41 892.497 825.994 890.696 C 823.61 883.746 828.85 823.058 831.91 812.801 z"/>
<path transform="translate(0,0)" fill="rgb(253,253,253)" d="M 978.422 837.052 C 991.378 838.23 1008.64 838.082 1019.31 846.531 C 1024.34 850.51 1027.39 856.04 1028.08 862.418 C 1028.86 869.617 1026.79 877.216 1022.07 882.764 C 1016.13 889.753 1009.49 891.324 1000.67 892.047 L 988.211 890.679 C 987.691 894.79 987.521 898.77 987.333 902.902 C 987.205 905.712 986.83 908.411 984.488 910.28 C 982.688 911.716 980.092 912.238 977.859 911.735 C 976.26 911.375 974.581 910.216 973.734 908.82 C 970.802 903.993 976.241 844.69 978.422 837.052 z"/>
<path transform="translate(0,0)" fill="rgb(45,85,159)" d="M 990.948 853.926 C 996.214 854.45 1002.33 854.594 1007.11 857.086 C 1009.56 858.359 1011.55 860.183 1012.24 862.936 C 1013.37 867.498 1010.75 872.4 1008.55 876.211 C 1005.16 877.692 999.564 878.927 995.799 878.703 C 993.29 878.553 992.348 877.408 990.771 875.741 C 988.504 869.239 990.311 860.73 990.948 853.926 z"/>
<path transform="translate(0,0)" fill="rgb(253,253,253)" d="M 933.714 833.25 C 944.85 832.812 953.045 835.059 962.856 840.284 C 963.046 844.474 963.843 849.408 962.006 853.291 C 955.418 857.68 943.939 845.05 934.318 847.661 C 930.091 848.808 927.109 852.241 924.963 855.888 C 920.967 862.68 919.045 870.734 921.346 878.444 C 922.901 883.657 926.416 888.141 931.267 890.652 C 938.501 894.396 944.932 893.21 952.245 890.793 C 954.167 889.685 955.559 889.172 957.73 888.71 C 959.017 889.862 959.458 890.094 959.895 891.762 C 960.686 894.784 960.042 897.382 958.402 900.007 C 956.073 903.731 952.476 905.916 948.249 906.902 C 939.325 908.983 927.723 905.966 920.169 901.011 C 912.586 896.037 907.84 887.876 906.035 879.103 C 903.812 868.301 905.397 856.518 911.546 847.232 C 917.059 838.905 924.122 835.111 933.714 833.25 z"/>
<path transform="translate(0,0)" fill="rgb(59,148,227)" d="M 1006.36 723.565 C 1011.8 721.681 1017.84 722.868 1022.17 726.673 C 1026.5 730.478 1028.45 736.314 1027.27 741.957 C 1026.1 747.599 1021.99 752.177 1016.51 753.945 C 1008.15 756.638 999.183 752.102 996.401 743.776 C 993.62 735.449 998.06 726.435 1006.36 723.565 z"/>
<path transform="translate(0,0)" fill="rgb(59,148,227)" d="M 1010.04 665.548 C 1018.36 664.343 1026.09 670.104 1027.31 678.425 C 1028.53 686.746 1022.78 694.483 1014.46 695.717 C 1006.12 696.954 998.36 691.189 997.138 682.848 C 995.915 674.507 1001.69 666.757 1010.04 665.548 z"/>
<path transform="translate(0,0)" fill="rgb(108,180,235)" d="M 1388.7 443.384 C 1393.98 441.217 1400.01 442.101 1404.45 445.689 C 1408.88 449.278 1411 455 1409.98 460.612 C 1408.96 466.224 1404.96 470.831 1399.55 472.629 C 1391.57 475.278 1382.92 471.129 1380 463.245 C 1377.07 455.361 1380.92 446.579 1388.7 443.384 z"/>
<path transform="translate(0,0)" fill="rgb(108,180,235)" d="M 1520.99 483.715 C 1525.66 481.445 1531.29 483.362 1533.6 488.013 C 1535.92 492.663 1534.06 498.311 1529.43 500.672 C 1524.74 503.065 1518.99 501.171 1516.65 496.456 C 1514.3 491.741 1516.25 486.016 1520.99 483.715 z"/>
<path transform="translate(0,0)" fill="url(#Gradient12)" d="M 1552.38 837.5 L 1713.42 837.6 C 1737.51 837.584 1768.41 835.618 1791.6 838.037 C 1795.65 838.46 1798.59 839.433 1801.79 842.064 C 1805.84 845.398 1806.33 848.876 1806.83 853.765 C 1808.18 867.055 1807.34 880.99 1807.32 894.378 L 1807.25 966.128 L 1807.29 1054.63 C 1807.33 1070.49 1808.09 1086.74 1807.15 1102.56 C 1806.9 1106.79 1806.7 1111.76 1803.76 1115.09 C 1799.09 1120.38 1792.67 1120.34 1786.17 1120.62 L 1633.04 1120.52 L 1581.4 1120.82 C 1572.31 1120.87 1562.76 1121.51 1553.71 1120.62 C 1548.64 1120.12 1542.82 1118.81 1538.76 1115.56 C 1535.77 1113.16 1534.7 1109.53 1534.18 1105.88 C 1532.94 1097.16 1534 1087.4 1534.02 1078.55 L 1534.01 1021.36 L 1534.05 913.113 C 1534.06 894.596 1533.14 875.591 1534.26 857.138 C 1534.57 852.03 1535.1 847.083 1538.54 842.994 C 1542.19 838.658 1547.1 837.887 1552.38 837.5 z"/>
<path transform="translate(0,0)" fill="rgb(21,55,117)" d="M 1719.73 865.499 C 1725.41 864.838 1731.69 864.762 1737.28 866.072 C 1740.91 866.924 1745.11 868.466 1746.97 871.959 C 1748.32 874.5 1748.77 876.828 1747.8 879.457 C 1742.94 881.429 1734.4 877.783 1729.11 877.393 C 1724.29 877.038 1719.27 878.066 1715.71 881.521 C 1710.93 886.155 1709.93 894.056 1709.92 900.396 C 1709.91 906.122 1710.77 912.832 1715.2 916.943 C 1718.01 919.548 1721.86 920.478 1725.61 920.073 C 1730.18 919.579 1735.58 917.018 1738.17 913.08 C 1739.7 910.756 1739.53 909.712 1739.08 907.16 C 1735.14 903.807 1726.17 905.166 1720.83 905.153 C 1722.56 901.985 1721.53 896.71 1722.07 893.019 L 1723.9 891.862 L 1747.96 891.698 C 1748.25 892.172 1748.76 892.917 1748.99 893.48 C 1751.35 899.371 1751.12 910.846 1748.71 916.619 C 1746.1 922.876 1741.2 927.521 1734.87 929.917 C 1727.6 932.668 1718.68 932.31 1711.68 928.907 C 1705.55 925.923 1701.37 920.629 1699.24 914.212 C 1696 904.499 1696.53 890.712 1701.15 881.495 C 1705.22 873.384 1711.25 868.39 1719.73 865.499 z"/>
<path transform="translate(0,0)" fill="rgb(21,55,117)" d="M 1608.9 865.499 C 1614.45 865.067 1620.56 864.868 1625.94 866.512 C 1628.72 867.362 1632.01 868.763 1633.25 871.623 C 1634.46 874.411 1633.54 878.361 1632.51 881.081 C 1631.14 880.393 1629.73 879.761 1628.3 879.188 C 1623.69 877.374 1615.17 874.972 1610.53 877.346 C 1608.01 878.632 1606.98 879.421 1606.03 882.021 C 1609.34 888.914 1622.84 891.601 1629.21 895.641 C 1633.91 898.63 1637.77 902.978 1638.76 908.626 C 1639.58 913.321 1638.32 919.832 1635.26 923.668 C 1631.03 928.981 1624.17 930.739 1617.75 931.2 C 1610.78 931.793 1601.35 930.462 1596.08 925.359 C 1594.28 923.615 1593.08 921.347 1593.42 918.781 C 1593.66 916.956 1594.76 915.064 1596.24 914.018 C 1600.66 916.229 1605.17 918.414 1609.98 919.623 C 1614.22 920.691 1619.43 921.09 1623.24 918.566 C 1625.73 916.918 1626.63 915.135 1627.04 912.325 C 1624.07 906.118 1613.77 903.34 1607.82 900.581 C 1602.05 897.906 1595.88 893.842 1593.84 887.464 C 1592.43 883.021 1593.69 878.039 1595.98 874.105 C 1599.03 868.859 1603.4 867.065 1608.9 865.499 z"/>
<path transform="translate(0,0)" fill="rgb(21,55,117)" d="M 1641.06 866.5 C 1644.54 866.287 1648.07 866.361 1651.56 866.332 C 1652.63 867.784 1653.55 869.3 1654.21 870.986 C 1656.86 877.693 1668.53 909.605 1665.84 915.728 C 1665.98 915.581 1666.11 915.437 1666.24 915.287 C 1666.46 915.037 1666.66 914.776 1666.88 914.53 C 1667.43 913.913 1668.04 913.352 1668.5 912.651 C 1672.11 907.065 1682.81 871.936 1681.37 866.313 C 1685.61 866.218 1689.89 866.404 1694.13 866.481 C 1694.63 871.609 1693.5 875.391 1690.37 879.498 C 1691.54 884.739 1679.11 920.175 1675.71 925.663 C 1673.97 928.462 1671.75 930.945 1668.4 931.613 C 1666.72 931.949 1665.03 931.587 1663.63 930.553 C 1658.75 926.956 1642.94 875.141 1641.06 866.5 z"/>
<path transform="translate(0,0)" fill="rgb(21,55,117)" d="M 1631.46 980.495 C 1632.27 980.389 1633.37 980.159 1634.2 980.226 C 1636.64 980.424 1636.78 980.95 1638.29 982.745 C 1638.39 983.631 1638.46 984.292 1638.21 985.162 C 1636.26 992.072 1603.5 1020.84 1596.21 1025.66 C 1603.92 1029.16 1629.26 1056.02 1635.93 1063.74 C 1638.19 1066.36 1638.81 1067.23 1638.56 1070.56 C 1636.36 1072.67 1635.31 1072.82 1632.32 1073.61 C 1617.78 1060.8 1597.89 1035.73 1583.09 1025.97 C 1585.26 1024.6 1628.11 984.337 1631.46 980.495 z"/>
<path transform="translate(0,0)" fill="rgb(21,55,117)" d="M 1702.55 981.494 C 1706.03 980.877 1707.22 980.295 1710.34 982.223 C 1717.58 986.687 1751.28 1018.48 1752.8 1025.36 C 1752.77 1026.07 1752.82 1026.04 1752.56 1026.85 C 1750.97 1031.88 1713.05 1067.23 1707.14 1070.5 L 1705.58 1072.52 C 1702.73 1073.02 1702.87 1072.93 1700.6 1071.46 C 1699.77 1068.83 1699.46 1067.79 1700.76 1065.12 C 1705.61 1055.2 1736.26 1035.46 1740.2 1025.18 C 1738.15 1018.28 1718.29 1003.53 1712.1 997.528 C 1707.38 992.96 1702.64 988.353 1702.55 981.494 z"/>
<path transform="translate(0,0)" fill="rgb(25,66,131)" d="M 1681.81 963.497 C 1685.15 963.016 1686.83 962.578 1689.7 964.447 C 1690.59 966.529 1690.39 968.068 1689.97 970.232 C 1686.57 987.709 1679.46 1005.45 1674.59 1022.64 C 1669.07 1042.07 1665.15 1062.77 1658.24 1081.73 C 1657.48 1083.8 1656.56 1085.23 1654.71 1086.51 L 1653.48 1086.89 C 1650.68 1086.28 1650.62 1086.07 1648.83 1084.04 C 1646.61 1076.27 1678.19 980.624 1681.81 963.497 z"/>
<path transform="translate(0,0)" fill="url(#Gradient11)" d="M 1482.15 388.789 C 1482.21 388.578 1482.28 388.369 1482.33 388.157 C 1485.04 377.878 1483.11 355.654 1483.1 344.397 L 1483 202.282 C 1482.99 181.803 1481.13 153.206 1483.48 133.883 C 1484.14 128.371 1486.37 119.106 1491.26 115.852 C 1494.27 113.858 1499.75 113.829 1503.26 113.701 C 1548.31 112.057 1594 113.754 1639.13 113.676 C 1657.22 113.644 1723.82 111.347 1736.86 114.78 C 1741.38 115.971 1744.66 119.152 1746.85 123.232 C 1748.8 126.879 1748.75 132.919 1748.88 137.03 C 1750.36 180.94 1748.87 225.337 1748.85 269.293 C 1748.82 305.439 1750.51 342.285 1748.93 378.356 C 1748.77 382.068 1748.58 386.318 1747.21 389.813 C 1745.88 393.208 1743.24 397.06 1739.76 398.533 C 1729.21 403.003 1658.21 399.818 1641.4 400.303 C 1615.55 398.886 1588.66 400.295 1562.72 400.351 C 1549.84 400.273 1495.62 403.553 1488.78 396.253 C 1486.61 393.936 1484.81 390.492 1482.15 388.789 z"/>
<path transform="translate(0,0)" fill="rgb(21,55,117)" d="M 1529.26 243.843 C 1531.31 242.178 1533.85 239.785 1536.54 239.38 C 1543.82 238.285 1552.11 238.998 1559.49 238.989 L 1605.08 238.955 L 1665.1 238.957 C 1675.56 238.962 1686.59 238.242 1696.96 239.363 C 1698.53 239.532 1700.68 239.505 1701.73 240.716 C 1704.13 243.467 1704.74 250.41 1705.01 253.952 C 1706.43 272.627 1705.33 292.156 1705.36 310.916 C 1705.39 327.382 1706.98 345.704 1704.73 361.979 C 1704.42 364.189 1704.21 365.788 1702.26 367.114 C 1700.77 368.131 1698.87 368.459 1697.09 368.519 C 1672.52 369.347 1647.46 368.28 1622.84 368.278 C 1592.68 368.275 1562.19 369.218 1532.07 368.138 L 1532.11 368.989 L 1530.06 369.313 L 1529.97 369.207 L 1531.67 369.627 L 1529.53 368.634 C 1527.28 365.292 1526.54 362.042 1526.17 358.092 C 1524.93 344.848 1525.21 256.081 1527.45 246.673 C 1527.81 245.165 1527.93 244.626 1529.26 243.843 z"/>
<path transform="translate(0,0)" fill="rgb(108,180,235)" d="M 1532.07 368.138 L 1532.11 368.989 L 1530.06 369.313 L 1529.97 369.207 L 1531.67 369.627 L 1529.53 368.634 C 1527.28 365.292 1526.54 362.042 1526.17 358.092 C 1524.93 344.848 1525.21 256.081 1527.45 246.673 C 1527.81 245.165 1527.93 244.626 1529.26 243.843 C 1528.74 268.918 1528.96 294.048 1528.9 319.131 C 1528.87 332.778 1527.76 347.323 1529.3 360.84 C 1529.63 363.704 1530.55 365.721 1532.07 368.138 z"/>
<path transform="translate(0,0)" fill="rgb(108,180,235)" d="M 1538.61 249.497 C 1554.68 247.402 1572.92 248.965 1589.21 248.985 L 1692.48 249.152 C 1692.57 249.311 1692.65 249.472 1692.73 249.63 C 1693.11 250.325 1693.5 251.023 1693.73 251.784 C 1695.86 258.683 1695.22 300.137 1692.21 306.184 C 1691.93 304.725 1691.51 303.609 1690.6 302.436 C 1684.77 294.988 1659.87 268.687 1652.94 263.538 C 1651.5 262.47 1649.89 262.137 1648.15 261.964 C 1633.64 270.485 1618.25 297.282 1602.92 306.34 C 1602.86 306.166 1602.82 305.985 1602.74 305.818 C 1601.22 302.551 1592.64 294.104 1589.18 293.125 C 1574.69 289.034 1550.82 327.986 1537.83 335.447 C 1537.55 335.609 1537.26 335.763 1536.98 335.921 C 1537.08 335.711 1537.17 335.497 1537.28 335.29 C 1540.58 329.06 1540.09 259.325 1538.61 249.497 z"/>
<path transform="translate(0,0)" fill="rgb(25,66,131)" d="M 1646.66 275.494 C 1647.99 275.39 1649.21 275.036 1650.43 275.651 C 1653.85 277.384 1691.51 317.647 1692.55 320.718 C 1692.76 321.179 1693.13 321.949 1693.29 322.479 C 1694.89 328.093 1695.45 355.36 1693.05 359.783 C 1680.82 359.916 1668.6 359.853 1656.38 359.596 C 1654.02 355.977 1612.2 317.459 1607.57 314.103 C 1613.71 311.2 1644.22 281.129 1646.66 275.494 z"/>
<path transform="translate(0,0)" fill="rgb(45,85,159)" d="M 1580.95 303.494 L 1584.45 303.547 C 1598.1 315.074 1609.61 329.502 1622.6 341.806 C 1628.11 347.019 1637.35 352.009 1641.31 358.182 C 1637.69 361.044 1603.39 359.806 1596.75 359.84 L 1537.67 360.098 C 1537.76 359.91 1537.86 359.726 1537.94 359.532 C 1539.44 355.673 1539.61 349.525 1538 345.693 C 1549.4 339.598 1576.55 315.054 1580.95 303.494 z"/>
<path transform="translate(0,0)" fill="rgb(21,55,117)" d="M 1660.55 144.498 C 1667.3 143.845 1674.53 143.461 1681.1 145.426 C 1684.12 146.328 1687.44 147.9 1688.82 150.938 C 1690.12 153.822 1689.68 157.167 1688.69 160.053 C 1682.39 156.591 1672.07 154.774 1665.04 156.55 C 1659.85 157.863 1655.58 160.979 1653.03 165.735 C 1649.83 171.72 1650.12 179.044 1651.98 185.399 C 1653.39 190.215 1655.95 194.814 1660.63 197.11 C 1664.23 198.873 1668.54 198.875 1672.27 197.532 C 1675.55 196.353 1679.28 193.61 1680.4 190.158 C 1681.1 188.014 1680.52 186.831 1679.59 184.92 C 1675.25 182.837 1666.44 184.071 1661.51 184.109 C 1664.14 179.791 1661.52 174.181 1664.3 170.262 L 1689.34 170.127 C 1689.63 170.614 1690.12 171.374 1690.34 171.946 C 1692.43 177.397 1692.59 188.612 1690.48 194.304 C 1688.24 200.352 1683.97 205.027 1678.09 207.718 C 1671.1 210.923 1662.41 211.009 1655.29 208.156 C 1648.76 205.544 1643.95 200.301 1641.37 193.825 C 1637.53 184.219 1637.47 169.283 1641.77 159.825 C 1645.66 151.282 1652.11 147.666 1660.55 144.498 z"/>
<path transform="translate(0,0)" fill="rgb(21,55,117)" d="M 1550.32 144.497 C 1557.45 143.514 1565.9 143.454 1572.29 147.138 C 1572.94 148.016 1573.4 148.953 1573.81 149.964 C 1575.31 153.712 1574.98 156.748 1573.44 160.391 C 1572.62 159.695 1571.83 159.294 1570.87 158.8 C 1565.17 155.868 1558.15 154.505 1551.97 156.521 C 1550.12 158.301 1549.55 158.736 1548.76 161.263 C 1550.95 168.343 1567.14 171.584 1573.12 176.518 C 1576.96 179.694 1579.61 183.997 1579.97 189.042 C 1580.3 193.538 1578.8 199.89 1575.69 203.203 C 1570.99 208.21 1563.28 209.708 1556.75 209.97 C 1554.88 209.991 1553.01 209.959 1551.14 209.733 C 1545.71 209.073 1541.35 207.977 1537.95 203.268 C 1536.29 200.959 1535.83 199.048 1536.19 196.261 C 1540.6 191.657 1549.39 200.282 1561.36 198.014 C 1564.55 197.409 1565.7 196.408 1567.38 193.896 C 1567.91 181.906 1542.15 181.619 1536.82 168.645 C 1535.16 164.634 1535.01 158.922 1536.82 154.916 C 1539.5 148.995 1544.56 146.455 1550.32 144.497 z"/>
<path transform="translate(0,0)" fill="rgb(21,55,117)" d="M 1586.84 144.498 C 1588.79 144.425 1590.64 144.653 1592.57 144.891 C 1593.26 145.466 1593.78 145.865 1594.22 146.667 C 1597.72 153 1609.21 189.045 1607.77 194.806 C 1608.36 194.219 1608.37 194.235 1608.99 193.489 C 1612.41 189.314 1624.46 150.711 1623.84 144.819 C 1627.62 144.613 1631.34 144.001 1634.83 145.724 C 1635.72 146.967 1636.45 147.601 1636.59 149.187 C 1636.87 152.569 1632.99 158.958 1630.85 161.501 C 1630.95 162.007 1631.17 162.86 1631.18 163.426 C 1631.32 169.922 1619.28 204.409 1614.61 208.501 C 1612.41 210.432 1611.2 210.313 1608.47 210.226 C 1605.29 208.591 1603.54 206.721 1601.76 203.657 C 1596.18 194.023 1586.56 161.848 1582.8 149.639 C 1582.07 147.265 1581.88 147.201 1583.02 144.974 L 1586.84 144.498 z"/>
<path transform="translate(0,0)" fill="url(#Gradient10)" d="M 1614.23 478.499 C 1627.61 477.597 1641.31 478.137 1654.74 478.126 L 1726.4 478.089 L 1807.65 478.086 C 1822.67 478.09 1837.92 477.57 1852.91 478.352 C 1856.89 478.559 1863.84 478.417 1867.05 481.093 C 1867.3 481.302 1867.53 481.536 1867.77 481.752 C 1871.56 485.097 1873.6 487.594 1874.01 492.849 C 1875.25 508.718 1874.25 525.475 1874.24 541.427 L 1874.21 637.544 L 1874.22 709.982 C 1874.22 721.825 1875.22 734.833 1873.79 746.553 C 1873.31 750.533 1871.23 754.416 1868.5 757.332 C 1865.93 760.064 1861.12 760.999 1857.52 761.495 C 1846.81 762.972 1835.01 762.077 1824.21 762.055 L 1761.86 761.898 C 1762.25 761.265 1762.68 760.55 1762.92 759.842 C 1764.97 753.735 1764.15 725.051 1761.54 719.582 C 1762.91 718.409 1764.25 717.206 1765.57 715.975 C 1770.61 711.23 1774.33 705.253 1774.29 698.094 C 1774.25 692.796 1771.77 687.668 1767.91 684.098 C 1760.92 677.646 1753.59 677.908 1744.69 678.2 C 1747.52 669.862 1747.29 628.157 1744.05 620.029 C 1754.31 625.992 1792.74 671.565 1803.14 683.428 L 1803.43 683.941 C 1802.49 688.441 1802.2 690.527 1804.67 694.626 C 1804.84 694.9 1805.01 695.168 1805.18 695.439 C 1804.43 697.413 1803.8 699.38 1803.21 701.407 C 1803.49 702.942 1803.79 704.515 1804.7 705.816 C 1806.6 708.515 1809.69 709.943 1812.89 710.338 C 1816.11 710.735 1819.49 710.084 1822.04 707.983 C 1824.64 705.847 1825.12 703.251 1825.36 700.064 C 1821.56 694.015 1812.58 699.752 1807.35 696.766 L 1807.44 695.359 C 1812.06 695.464 1821.4 696.711 1825.27 694.146 C 1826.79 693.136 1827.66 691.826 1827.85 689.994 C 1828.09 687.632 1827.2 685.154 1825.77 683.308 C 1823.58 680.48 1821.85 680.295 1818.54 679.782 C 1816.55 679.475 1814.38 679.299 1812.7 678.087 C 1808.42 674.989 1804.32 668.847 1800.72 664.784 C 1790.72 653.474 1760.05 615.969 1749.11 609.721 L 1797.75 609.732 C 1802.72 609.714 1808.07 608.785 1812.54 611.33 C 1814.87 614.526 1813.78 616.246 1814.31 620.008 C 1815.15 620.56 1815.86 621.052 1816.86 621.279 C 1819.67 621.919 1823.27 621.851 1825.68 620.17 C 1828.08 618.492 1829.41 615.749 1829.72 612.881 C 1830.11 609.238 1829.17 605.53 1826.75 602.727 C 1824.44 600.045 1821.07 598.806 1817.61 598.484 C 1808.28 597.614 1793.64 599.285 1783.51 599.282 C 1743.15 599.273 1702.17 601.02 1661.95 598.58 C 1658.22 598.354 1653.54 598.357 1650.7 601.158 C 1648.18 603.636 1647.66 608.177 1647.87 611.514 C 1648.06 614.685 1649.17 618.024 1651.8 619.996 C 1654.05 621.68 1657.58 622.112 1660.27 621.502 C 1666.53 620.081 1664.94 614.749 1667.84 610.438 C 1674.08 607.862 1711.77 609.739 1721.28 609.796 C 1720.46 614.697 1668.63 671.742 1661.67 678.454 C 1661.08 678.95 1659.25 679.427 1658.49 679.71 C 1658.21 679.813 1657.92 679.897 1657.64 680.001 C 1653.5 681.552 1649.86 686.397 1648.06 690.33 C 1648.55 691.84 1648.32 692.195 1649.78 693.055 C 1653.94 695.493 1666.28 696.112 1670.94 694.761 C 1671.35 694.64 1671.83 694.625 1672.17 694.367 C 1674.56 692.594 1671.52 686.181 1672.22 683.661 C 1673.15 680.325 1676.23 677.371 1678.51 674.917 C 1691.89 660.546 1704.87 645.794 1718.14 631.323 C 1722.45 626.624 1729.17 621.522 1732.26 616.206 C 1732.64 616.932 1733 617.507 1733.25 618.278 C 1735.13 624.101 1734.81 673.557 1732.18 678.519 C 1730.08 678.245 1727.97 678.017 1725.86 677.834 C 1714.33 676.906 1711.93 683.474 1704.39 689.774 C 1704.25 689.896 1704.1 690.014 1703.95 690.134 C 1705.99 695.879 1703.35 702.346 1706.32 708.2 C 1708.08 711.677 1711.67 713.873 1713.47 717.204 C 1713.59 717.416 1713.67 717.645 1713.77 717.865 C 1712.8 726.084 1712.79 757.926 1710.24 762.01 C 1691.41 761.842 1627.2 764.768 1613.79 760.249 C 1609.13 758.678 1606.08 755.489 1604.04 751.06 C 1602.54 747.799 1602.31 744.229 1602.16 740.692 C 1600.47 702.251 1601.99 663.037 1601.97 624.522 C 1601.94 582.343 1600.48 539.624 1602.08 497.521 C 1602.2 494.317 1602.45 491.191 1603.62 488.174 C 1605.69 482.837 1609.26 480.647 1614.23 478.499 z"/>
<path transform="translate(0,0)" fill="rgb(21,55,117)" d="M 1791.09 506.5 C 1798.5 506.281 1805.03 506.575 1811.98 509.386 C 1814.81 510.529 1816.21 512.929 1817.18 515.785 C 1817.9 517.859 1818.19 519.341 1817.24 521.272 C 1808.37 522.328 1799.86 517.321 1790.81 518.574 C 1787.38 519.049 1784.52 520.396 1782.54 523.315 C 1778.52 529.231 1778.22 540.21 1779.4 547.054 C 1780.19 551.646 1782.21 555.813 1786.21 558.434 C 1790.19 561.043 1796.89 561.658 1801.47 560.195 C 1803.41 559.578 1804.55 558.717 1805.52 556.912 C 1806.93 554.274 1807.69 551.017 1806.72 548.154 C 1802.73 545.731 1798 547.874 1793.92 545.862 C 1792.53 545.17 1791.57 544.188 1790.98 542.751 C 1789.82 539.92 1790.36 536.022 1791.63 533.304 L 1794.75 532.676 C 1802.26 532.439 1809.83 532.777 1817.34 532.919 C 1817.88 533.799 1818.35 534.562 1818.6 535.582 C 1820.44 543.241 1819.73 556.8 1815.3 563.557 C 1812.31 568.125 1807.4 570.703 1802.19 571.81 C 1794.07 573.534 1785.18 573.03 1778.14 568.283 C 1771.47 563.795 1767.69 556.208 1766.34 548.455 C 1764.54 538.103 1766.02 526.042 1772.26 517.345 C 1777.24 510.393 1782.87 507.924 1791.09 506.5 z"/>
<path transform="translate(0,0)" fill="rgb(21,55,117)" d="M 1682.22 506.5 C 1685.24 506.53 1688.53 506.402 1691.5 506.944 C 1695.21 507.621 1700.73 509.991 1702.61 513.451 C 1703.44 514.987 1703.47 516.499 1702.99 518.152 C 1702.84 518.636 1701.17 521.507 1700.74 521.531 C 1693.46 521.938 1687.29 514.843 1677.86 519.473 C 1676.07 521.528 1675.83 521.481 1675.79 524.36 C 1679.36 532.369 1695.91 534.792 1703 541.109 C 1706.19 543.95 1709.05 547.791 1709.08 552.229 C 1709.12 557.311 1705.13 563.398 1701.5 566.792 C 1695.44 572.469 1687.87 572.862 1680.02 572.81 C 1675.94 572.05 1670.44 571.612 1666.98 569.179 C 1664.86 567.692 1663.76 565.612 1663.44 563.065 C 1663.14 560.782 1663.02 557.153 1664.39 555.296 C 1668.27 557.056 1672.78 559.583 1676.96 560.346 C 1681.9 561.247 1688.3 561.758 1692.59 558.716 C 1694.1 556.174 1694.29 555.586 1694.34 552.636 C 1690.79 545.027 1675.74 542.889 1668.86 538.099 C 1665.33 535.644 1662.34 532.363 1661.77 527.933 C 1661.12 522.906 1663.98 516.491 1667.08 512.557 C 1670.94 507.637 1676.46 507.1 1682.22 506.5 z"/>
<path transform="translate(0,0)" fill="rgb(21,55,117)" d="M 1708.58 507.498 C 1712.55 507.027 1716.21 506.901 1720.2 507.159 C 1724.87 514.852 1736.56 549.987 1734.8 557.957 C 1734.92 557.819 1735.04 557.686 1735.16 557.544 C 1735.34 557.309 1735.52 557.064 1735.7 556.826 C 1743.13 547.173 1746.63 511.615 1754.83 507.38 C 1757.21 506.152 1758.6 506.471 1761.03 507.039 C 1762.15 508.179 1763.1 508.763 1763.44 510.39 C 1764.11 513.524 1761.69 517.458 1759.93 519.903 C 1759.79 520.103 1759.63 520.3 1759.49 520.498 C 1759.68 521.582 1759.82 522.339 1759.67 523.442 C 1758.84 529.527 1746.16 568.371 1741.82 570.933 C 1738.95 572.622 1734.62 572.305 1731.53 571.573 C 1725.7 566.329 1711.93 517.727 1708.58 507.498 z"/>
<path transform="translate(0,0)" fill="rgb(21,55,117)" d="M 1667.41 697.5 L 1671.06 697.577 C 1672.18 698.887 1672.81 698.983 1672.69 700.804 C 1672.51 703.702 1670.34 705.97 1668.14 707.646 C 1663.95 710.855 1660.51 710.118 1655.62 709.502 C 1654 707.849 1652.21 705.512 1651.62 703.26 C 1651.12 701.346 1651.39 701.034 1652.27 699.387 C 1656.51 697.257 1662.68 697.751 1667.41 697.5 z"/>
<path transform="translate(0,0)" fill="rgb(45,85,159)" d="M 1717.83 687.498 C 1726.98 686.454 1751.15 684.441 1758.77 689.036 C 1760.73 690.218 1761.89 692.09 1762.43 694.288 C 1764.89 704.362 1756.89 713.332 1754.5 722.329 C 1753.5 726.073 1754.41 729.279 1752.13 732.744 L 1752.33 735.474 C 1745.46 739.346 1727.69 737.071 1719.34 736.943 C 1727.48 724.087 1713.93 710.297 1713.06 697.773 C 1712.73 693.058 1714.83 690.689 1717.83 687.498 z"/>
<path transform="translate(0,0)" fill="rgb(108,180,235)" d="M 1749.55 744.5 C 1750.98 744.475 1751.49 744.863 1752.63 745.679 C 1754.06 750.848 1754.06 757.095 1751.73 762.006 L 1724.02 761.951 C 1721.15 760.958 1722.28 748.272 1720.18 744.635 C 1729.97 744.848 1739.77 744.803 1749.55 744.5 z"/>
<path transform="translate(0,0)" fill="rgb(59,148,227)" d="M 1618.99 410.151 C 1621.77 409.329 1622.88 408.656 1625.72 409.445 C 1627.44 417.404 1626.61 459.171 1625.78 468.453 C 1623.33 469.293 1620.91 468.96 1618.38 468.798 C 1618.53 468.568 1618.69 468.349 1618.82 468.106 C 1621.46 462.951 1621.04 416.629 1618.99 410.151 z"/>
<path transform="translate(0,0)" fill="rgb(25,66,131)" d="M 289.395 814.447 C 284.683 811.657 280.061 808.718 275.535 805.634 C 240.174 781.184 214.184 742.721 206.686 700.248 C 199.111 657.336 207.731 612.978 232.941 577.17 C 254.587 546.424 289.759 524.002 326.862 517.6 C 367.079 510.66 407.297 518.849 440.64 542.415 C 479.475 569.863 498.39 607.669 506.313 653.648 C 587.026 652.454 667.929 653.052 748.652 653.362 C 748.868 653.448 749.081 653.538 749.298 653.618 C 753.454 655.159 762.629 654.824 765.606 657.324 L 765.471 662.67 C 759.973 662.928 754.634 663.004 749.37 664.797 L 506.559 665.035 C 508.073 708.025 492.837 747.802 463.585 779.299 C 454.961 788.584 430.025 813.766 418.394 815.29 C 417.507 815.406 416.826 815.219 415.978 814.995 C 414.176 812.766 412.952 810.838 411.916 808.161 C 407.127 810.735 402.234 813.808 397.086 815.572 L 397.193 848.187 C 385.545 847.913 373.863 848.011 362.211 847.928 C 359.882 843.145 358.07 838.037 356.099 833.095 C 348.339 833.34 340.542 833.26 332.777 833.318 C 330.567 838.01 328.955 843.109 327.145 847.974 L 306.804 848.066 C 310.584 837.181 314.577 826.371 318.781 815.643 C 311.187 813.73 304.085 810.796 296.847 807.863 C 294.491 810.179 291.894 812.286 289.395 814.447 z"/>
<path transform="translate(0,0)" fill="url(#Gradient9)" d="M 253.527 772.809 C 264.049 761.784 274.978 748.382 287.043 739.21 L 287.745 738.682 C 290.425 736.646 292.692 735.094 296.124 734.734 C 316.867 732.559 338.853 735.923 359.821 735.865 C 374.629 735.825 402.759 732.513 415.472 734.526 C 419.373 735.144 421.827 736.939 424.129 740.058 C 425.461 744.267 430.133 746.597 431.29 749.87 C 432.131 752.251 429.437 754.945 429.392 757.488 C 429.268 764.665 431.735 778.846 433.718 785.821 C 435.41 786.141 436.689 786.182 438.4 785.99 L 440.77 787.138 C 431.691 795.055 422.118 801.774 411.916 808.161 C 407.127 810.735 402.234 813.808 397.086 815.572 L 397.193 848.187 C 385.545 847.913 373.863 848.011 362.211 847.928 C 359.882 843.145 358.07 838.037 356.099 833.095 C 348.339 833.34 340.542 833.26 332.777 833.318 C 330.567 838.01 328.955 843.109 327.145 847.974 L 306.804 848.066 C 310.584 837.181 314.577 826.371 318.781 815.643 C 311.187 813.73 304.085 810.796 296.847 807.863 C 280.579 797.556 266.99 786.59 253.527 772.809 z"/>
<path transform="translate(0,0)" fill="rgb(253,253,253)" d="M 380.945 790.263 C 379.081 786.239 376.902 780.046 378.065 775.708 C 380.075 773.469 381.753 772.383 384.911 772.282 C 388.879 772.155 393.107 772.78 397.063 773.138 C 397.031 787.232 396.582 801.497 397.086 815.572 L 397.193 848.187 C 385.545 847.913 373.863 848.011 362.211 847.928 C 359.882 843.145 358.07 838.037 356.099 833.095 C 348.339 833.34 340.542 833.26 332.777 833.318 C 330.567 838.01 328.955 843.109 327.145 847.974 L 306.804 848.066 C 310.584 837.181 314.577 826.371 318.781 815.643 C 324.604 801.233 330.005 786.604 337.045 772.731 C 341.395 773.48 345.705 774.418 350.021 775.337 C 356.917 791.498 367.47 815.639 376.778 830.036 C 377.329 822.083 377.023 810.716 380.93 803.723 C 381.342 799.175 381.212 794.817 380.945 790.263 z"/>
<path transform="translate(0,0)" fill="rgb(25,66,131)" d="M 380.945 790.263 C 380.831 786.627 379.995 781.181 382.725 778.367 C 384.552 776.484 385.396 776.01 387.96 775.698 C 390.35 777.43 391.43 778.708 391.982 781.734 C 393.302 788.962 392.366 797.843 392.354 805.23 C 392.35 817.997 392.477 830.763 392.736 843.528 C 388.931 843.496 385.1 843.55 381.299 843.409 L 380.93 803.723 C 381.342 799.175 381.212 794.817 380.945 790.263 z"/>
<path transform="translate(0,0)" fill="rgb(25,66,131)" d="M 337.868 778.352 C 340.139 778.319 343.358 777.953 345.484 778.785 C 349.829 780.484 372.801 834.526 376.721 843.157 L 364.699 843.688 C 363.258 839.877 361.723 834.111 359.137 830.994 C 357.44 828.948 356.766 829.196 354.25 828.985 L 329.802 828.969 C 328.515 833.114 327.414 838.579 324.443 841.794 C 321.218 844.226 316.751 843.568 312.909 843.503 C 320.828 821.609 329.594 800.104 337.868 778.352 z"/>
<path transform="translate(0,0)" fill="rgb(234,238,243)" d="M 342.34 794.522 C 342.99 795.035 343.504 795.416 343.956 796.126 C 346.834 800.645 352.804 813.196 351.368 818.43 L 347.25 818.787 L 333.272 818.88 C 336.483 810.832 339.506 802.71 342.34 794.522 z"/>
<path transform="translate(0,0)" fill="rgb(108,180,235)" d="M 424.129 740.058 C 435.5 749.718 445.819 761.4 456.258 772.076 C 451.301 777.187 446.437 782.816 440.77 787.138 L 438.4 785.99 C 436.689 786.182 435.41 786.141 433.718 785.821 C 431.735 778.846 429.268 764.665 429.392 757.488 C 429.437 754.945 432.131 752.251 431.29 749.87 C 430.133 746.597 425.461 744.267 424.129 740.058 z"/>
<path transform="translate(0,0)" fill="url(#Gradient8)" d="M 248.352 766.233 C 228.232 741.456 215.845 712.768 214.008 680.685 C 211.71 640.561 222.893 602.146 249.967 571.896 C 274.575 544.234 309.193 527.521 346.159 525.454 C 378.582 523.729 416.59 533.084 441.201 555.304 C 470.662 576.996 490.549 613.066 496.014 648.994 C 502.263 690.077 490.186 730.195 465.653 763.282 C 464.892 764.308 464.115 765.322 463.323 766.324 C 450.817 753.458 427.197 723.322 409.051 723.419 C 405.756 723.437 402.43 723.721 399.147 723.981 C 410.272 713.668 419.061 704.111 426.149 690.487 C 435.007 690.865 442.864 691.362 449.8 684.801 C 457.006 677.985 458.451 666.831 458.371 657.424 C 458.301 649.226 456.648 638.505 450.566 632.429 C 448.489 630.354 446.051 629.241 443.314 628.311 C 440.776 628.294 437.964 628.458 435.462 628.08 C 434.583 627.947 433.016 627.55 432.28 627.037 C 431.729 626.654 422.611 599.398 418.045 592.999 C 406.239 576.645 388.283 565.802 368.312 562.967 C 346.487 559.664 323.291 563.565 305.403 577.024 C 289.139 589.41 278.435 607.727 275.627 627.976 C 268.808 628.079 262.806 627.791 257.323 632.532 C 251.724 637.374 249.982 644.668 249.571 651.771 C 248.973 662.105 250.521 679.031 258.315 686.847 C 263.603 692.149 274.527 690.682 281.425 690.374 C 287.958 704.631 296.002 713.345 307.582 723.563 L 305.777 723.615 C 302.015 723.735 297.927 723.676 294.311 724.839 C 278.084 730.058 259.943 753.904 248.352 766.233 z"/>
<path transform="translate(0,0)" fill="rgb(108,180,235)" d="M 386.391 531.895 C 407.363 538.451 421.811 542.46 439.633 556.247 L 441.201 555.304 C 470.662 576.996 490.549 613.066 496.014 648.994 C 502.263 690.077 490.186 730.195 465.653 763.282 C 464.892 764.308 464.115 765.322 463.323 766.324 C 450.817 753.458 427.197 723.322 409.051 723.419 C 405.756 723.437 402.43 723.721 399.147 723.981 C 410.272 713.668 419.061 704.111 426.149 690.487 C 435.007 690.865 442.864 691.362 449.8 684.801 C 457.006 677.985 458.451 666.831 458.371 657.424 C 458.301 649.226 456.648 638.505 450.566 632.429 C 448.489 630.354 446.051 629.241 443.314 628.311 L 444.551 627.558 C 442.254 626.567 435.979 627.366 435.343 626.67 C 433.83 625.015 432.054 615.907 431.196 613.281 C 426.635 599.321 416.099 583.648 404.305 574.705 C 399.398 570.984 393.867 568.184 388.948 564.484 C 388.764 563.473 388.544 562.464 388.371 561.452 C 387.445 556.045 383.945 551.939 382.117 546.884 C 380.244 541.707 384.042 536.266 386.391 531.895 z"/>
<path transform="translate(0,0)" fill="url(#Gradient7)" d="M 342.548 572.237 C 359.631 571.398 375.011 571.898 390.175 580.984 C 404.995 589.862 415.524 605.017 419.608 621.697 C 425.392 645.319 423.123 675.655 410.123 696.398 C 399.999 712.553 385.01 721.982 366.712 726.197 C 348.679 728.451 330.482 726.631 315.08 716.24 C 298.435 705.011 290.046 687.751 286.463 668.412 C 282.242 645.626 284.113 618.552 297.753 599.206 C 308.502 583.96 324.364 575.248 342.548 572.237 z"/>
<path transform="translate(0,0)" fill="rgb(25,66,131)" d="M 332.826 622.48 C 350.845 622.464 389.487 618.226 402.153 630.442 C 408.748 636.803 411.125 645.798 411.154 654.728 C 411.186 664.49 408.38 674.755 401.299 681.793 C 393.764 689.283 385.996 690.058 375.82 690.061 C 358.599 690.138 318.489 694.193 306.032 682.428 C 299.122 675.901 296.21 666.032 295.929 656.76 C 295.649 647.521 298.284 638.039 304.823 631.279 C 312.798 623.035 322.096 622.655 332.826 622.48 z"/>
<path transform="translate(0,0)" fill="rgb(108,180,235)" d="M 327.409 646.483 C 332.72 645.914 337.544 649.614 338.37 654.892 C 339.197 660.17 335.735 665.167 330.504 666.249 C 326.886 666.996 323.151 665.692 320.785 662.855 C 318.419 660.018 317.807 656.109 319.192 652.685 C 320.578 649.261 323.736 646.877 327.409 646.483 z"/>
<path transform="translate(0,0)" fill="rgb(108,180,235)" d="M 376.042 647.566 C 380.945 645.321 386.742 647.451 389.025 652.337 C 391.309 657.222 389.225 663.035 384.357 665.357 C 379.435 667.706 373.542 665.593 371.233 660.653 C 368.924 655.712 371.083 649.836 376.042 647.566 z"/>
<path transform="translate(0,0)" fill="rgb(45,85,159)" d="M 266.365 637.039 C 268.407 636.931 270.595 636.71 272.621 637.072 C 273.581 637.244 274.908 637.338 275.407 638.269 C 275.629 638.685 278.502 679.741 277.969 681.136 C 275.808 681.992 275.978 681.904 273.824 680.98 C 270.883 680.269 267.981 679.933 264.981 679.598 C 264.369 679.03 263.86 678.556 263.43 677.829 C 258.462 669.437 257.8 654.351 260.286 645.15 C 261.382 641.089 262.704 639.118 266.365 637.039 z"/>
<path transform="translate(0,0)" fill="rgb(25,66,131)" d="M 600.765 1050.1 L 627.803 1050.14 C 646.16 1050.01 663.17 1043.6 670.523 1025.29 C 674.775 1014.69 673.41 1001.76 673.375 990.514 L 673.127 922.527 C 673.075 908.245 671.411 891.686 674.622 877.808 C 676.539 869.279 680.827 861.464 686.99 855.265 C 694.473 847.832 705.307 843.272 715.873 843.247 C 725.282 851.806 757.442 840.93 766.39 848.962 L 764.652 851.905 L 765.152 851.34 C 760.743 851.559 751.51 850.328 748.263 853.029 C 730.418 853.559 705.208 850.175 691.843 864.55 C 687.087 869.665 684.45 876.025 683.205 882.838 C 680.841 895.773 682.06 910.263 682.107 923.424 L 682.381 989.997 C 682.434 1002.48 683.763 1016.48 679.66 1028.44 C 672.928 1048.07 655.259 1058.75 635.152 1059.85 C 623.909 1060.46 612.469 1059.98 601.207 1059.86 C 600.587 1106.05 582.376 1145.21 549.212 1177.35 C 541.291 1185.02 524.896 1201.03 514.319 1203.1 C 511.247 1201.99 509.449 1199.8 507.847 1196.93 C 503.514 1199.04 493.192 1202.56 491.755 1207.6 C 491.097 1209.91 491.254 1212.85 491.203 1215.25 C 491.381 1222.13 491.278 1229.14 491.976 1235.98 C 484.291 1236.08 465.104 1238.52 458.866 1234.57 L 457.001 1231.14 C 455.795 1227.76 453.644 1224.29 452.024 1221.05 C 446.214 1221.09 432.254 1219.32 427.697 1222.11 L 422.877 1235.97 L 402.534 1235.88 C 406.351 1226.14 410.334 1216.42 413.646 1206.49 C 404.784 1203.46 396.089 1199.83 387.289 1196.61 C 385.615 1199.04 384.539 1200.56 381.869 1201.89 C 376.392 1202.39 370.266 1197.78 366.199 1194.49 C 329.98 1165.24 303.095 1128.08 298.101 1080.56 C 293.489 1038.08 305.869 995.497 332.539 962.11 C 357.543 931.153 393.947 911.554 433.557 907.725 C 474.143 903.693 514.822 917.298 546.106 943.198 C 578.534 970.043 596.889 1008.6 600.765 1050.1 z"/>
<path transform="translate(0,0)" fill="url(#Gradient6)" d="M 385.056 1123.55 C 405.89 1122.09 427.323 1126.7 448.287 1126.94 C 469.086 1127.18 489.371 1123.32 510.349 1124.31 C 517.27 1129.04 523.541 1135.88 529.244 1142 C 530.435 1144.23 531.544 1146.44 533.118 1148.43 C 531.464 1149.16 530.965 1149.03 530.325 1150.72 C 527.731 1157.57 527.817 1169.17 531.356 1175.75 C 531.487 1175.99 531.657 1176.21 531.808 1176.45 L 530.32 1179.95 C 523.016 1185.91 515.543 1191.48 507.847 1196.93 C 503.514 1199.04 493.192 1202.56 491.755 1207.6 C 491.097 1209.91 491.254 1212.85 491.203 1215.25 C 491.381 1222.13 491.278 1229.14 491.976 1235.98 C 484.291 1236.08 465.104 1238.52 458.866 1234.57 L 457.001 1231.14 C 455.795 1227.76 453.644 1224.29 452.024 1221.05 C 446.214 1221.09 432.254 1219.32 427.697 1222.11 L 422.877 1235.97 L 402.534 1235.88 C 406.351 1226.14 410.334 1216.42 413.646 1206.49 C 404.784 1203.46 396.089 1199.83 387.289 1196.61 C 372.42 1186.64 358.468 1176 346.68 1162.43 C 357.847 1149.57 370.757 1132.73 385.056 1123.55 z"/>
<path transform="translate(0,0)" fill="rgb(253,253,253)" d="M 413.646 1206.49 C 418.648 1195.49 426.005 1165 434.771 1158.99 C 437.072 1158.55 438.08 1158.23 440.342 1159.07 C 451.956 1163.4 465.727 1204.35 471.616 1216.59 C 471.98 1209.13 471.18 1197.16 475.992 1191.12 C 476.392 1186.39 476.378 1181.92 476.073 1177.19 C 472.215 1172.32 472.932 1165.85 472.918 1159.94 C 479.11 1159.99 485.359 1159.86 491.542 1160.18 C 491.772 1176.77 489.233 1199.82 491.203 1215.25 C 491.381 1222.13 491.278 1229.14 491.976 1235.98 C 484.291 1236.08 465.104 1238.52 458.866 1234.57 L 457.001 1231.14 C 455.795 1227.76 453.644 1224.29 452.024 1221.05 C 446.214 1221.09 432.254 1219.32 427.697 1222.11 L 422.877 1235.97 L 402.534 1235.88 C 406.351 1226.14 410.334 1216.42 413.646 1206.49 z"/>
<path transform="translate(0,0)" fill="rgb(25,66,131)" d="M 424.293 1219.35 C 423.082 1223.46 422.478 1228.38 418.419 1230.57 C 416.255 1231.73 413.744 1232.81 411.263 1232.13 C 410.99 1232.05 410.731 1231.93 410.465 1231.83 C 408.74 1226.05 429.974 1175.33 433.974 1166.82 C 435.864 1165.4 438.113 1165.55 440.453 1165.83 C 443.257 1166.16 444.347 1167.39 445.837 1169.64 C 449.671 1175.42 471.561 1225.08 471.888 1230.45 C 470.105 1232.02 468.905 1232.18 466.468 1232.04 C 462.958 1231.84 461.827 1231.36 459.429 1229.05 L 457.001 1231.14 C 455.795 1227.76 453.644 1224.29 452.024 1221.05 C 446.214 1221.09 432.254 1219.32 427.697 1222.11 L 424.293 1219.35 z"/>
<path transform="translate(0,0)" fill="rgb(234,238,243)" d="M 424.293 1219.35 C 426.517 1216.91 427.643 1216.87 430.919 1216.73 C 438.797 1216.41 446.794 1216.72 454.69 1216.65 C 456.373 1220.46 458.913 1224.93 459.429 1229.05 L 457.001 1231.14 C 455.795 1227.76 453.644 1224.29 452.024 1221.05 C 446.214 1221.09 432.254 1219.32 427.697 1222.11 L 424.293 1219.35 z"/>
<path transform="translate(0,0)" fill="rgb(205,224,242)" d="M 439.391 1180.75 C 444.407 1186.61 447.891 1198.96 450.486 1206.42 C 448.65 1207.69 442.224 1207.05 439.75 1207.06 L 429.235 1207.12 L 439.391 1180.75 z"/>
<path transform="translate(0,0)" fill="rgb(25,66,131)" d="M 476.073 1177.19 C 475.955 1173.26 475.163 1168.57 477.179 1165.08 C 479.864 1163.89 482.856 1164.49 485.714 1164.71 C 487.659 1167.47 487.79 1222.88 486.759 1229.15 C 486.652 1229.8 486.354 1230.76 486.186 1231.35 C 483.911 1232.31 482.884 1232.2 480.519 1231.59 C 477.59 1229.51 476.814 1227.05 476.204 1223.59 C 474.426 1213.52 476.305 1201.43 475.992 1191.12 C 476.392 1186.39 476.378 1181.92 476.073 1177.19 z"/>
<path transform="translate(0,0)" fill="rgb(108,180,235)" d="M 529.244 1142 C 536.164 1148.2 542.73 1155.09 548.832 1162.09 C 543.061 1168.53 536.931 1174.37 530.32 1179.95 L 531.808 1176.45 C 531.657 1176.21 531.487 1175.99 531.356 1175.75 C 527.817 1169.17 527.731 1157.57 530.325 1150.72 C 530.965 1149.03 531.464 1149.16 533.118 1148.43 C 531.544 1146.44 530.435 1144.23 529.244 1142 z"/>
<path transform="translate(0,0)" fill="url(#Gradient5)" d="M 437.663 917.422 C 473.553 913.501 511.117 927.773 538.775 950.018 C 568.18 974.144 586.983 1008.81 591.169 1046.62 C 595.555 1087.75 581.002 1124.76 555.488 1156.43 C 545.556 1144.75 534.305 1132.66 522.628 1122.72 C 513.066 1114.58 505.148 1112.73 492.864 1113.83 C 505.697 1104.86 514.987 1093.05 521.824 1079.08 C 527.811 1079.36 533.761 1079.2 539.747 1079.04 C 541.357 1077.97 542.874 1076.77 544.283 1075.45 C 551.133 1068.91 552.908 1057.2 552.968 1048.17 C 553.027 1039.36 551.488 1029.46 544.771 1023.12 C 538.938 1017.62 533.388 1017.84 525.897 1017.91 C 524.633 1009.69 521.592 1001.61 517.585 994.346 C 506.099 973.508 488.751 962.791 466.439 956.39 C 443.992 952.809 420.913 955.631 401.539 968.177 C 383.562 979.819 372.789 997.347 368.465 1018.08 C 361.284 1017.76 355.282 1017.01 349.574 1022.32 C 343.975 1027.52 342.627 1035.26 342.386 1042.56 C 342.033 1053.25 343.53 1068.38 351.511 1076.44 C 355.691 1080.67 367.883 1079.23 373.546 1079.17 C 379.459 1093.14 388.409 1103.34 399.879 1112.98 C 395.144 1113.12 390.168 1113.1 385.633 1114.64 C 369.473 1120.11 352.028 1143.11 340.431 1155.4 C 320.945 1133.98 309.492 1103.37 307.259 1074.76 C 303.916 1034.81 316.825 995.206 343.063 964.902 C 367.031 937.13 401.072 920.044 437.663 917.422 z"/>
<path transform="translate(0,0)" fill="url(#Gradient4)" d="M 439.6 965.365 C 457.713 963.456 477.687 968.167 492.006 979.564 C 506.468 991.076 514.821 1008.24 516.795 1026.47 C 519.272 1049.34 514.914 1075.34 499.996 1093.41 C 488.175 1107.73 472.62 1115.79 454.252 1117.47 C 437.805 1119.36 419.368 1114.58 406.15 1104.63 C 389.517 1092.11 380.747 1073.11 378.168 1052.78 C 375.446 1031.32 378.73 1006.84 392.476 989.545 C 404.765 974.086 420.469 967.622 439.6 965.365 z"/>
<path transform="translate(0,0)" fill="rgb(25,66,131)" d="M 412.689 1012.1 C 428.642 1011.42 478.38 1009.37 490.667 1014.98 C 497.101 1017.91 501.869 1023.18 504.316 1029.81 C 507.864 1039.42 507.327 1052.26 502.924 1061.51 C 498.534 1070.73 492.677 1074.78 483.289 1078.14 C 471.91 1079.97 427.863 1080.02 416.099 1078.61 C 411.628 1078.07 407.356 1076.99 403.424 1074.73 C 396.52 1070.77 392.029 1064.23 390.052 1056.59 C 387.487 1046.67 388.336 1034.24 393.688 1025.34 C 398.364 1017.56 404.06 1014.23 412.689 1012.1 z"/>
<path transform="translate(0,0)" fill="rgb(108,180,235)" d="M 416.827 1035.45 C 421.796 1033.16 427.689 1035.28 430.055 1040.21 C 432.42 1045.15 430.379 1051.07 425.475 1053.5 C 422.243 1055.11 418.398 1054.84 415.412 1052.82 C 412.426 1050.79 410.761 1047.32 411.054 1043.72 C 411.347 1040.13 413.553 1036.97 416.827 1035.45 z"/>
<path transform="translate(0,0)" fill="rgb(108,180,235)" d="M 472.084 1035.63 C 477.077 1033.33 482.983 1035.52 485.279 1040.51 C 487.576 1045.5 485.394 1051.41 480.404 1053.71 C 475.41 1056.01 469.494 1053.83 467.196 1048.83 C 464.897 1043.84 467.086 1037.92 472.084 1035.63 z"/>
<path transform="translate(0,0)" fill="rgb(45,85,159)" d="M 355.113 1028.18 L 367.858 1027.66 C 367.456 1036.07 367.436 1044.33 368.103 1052.73 C 368.542 1058.26 369.737 1063.88 369.41 1069.43 L 367.992 1070.52 C 365.243 1070.4 361.919 1070.48 359.601 1068.8 C 354.465 1065.08 352.137 1055.29 351.484 1049.3 C 350.745 1042.54 350.655 1033.66 355.113 1028.18 z"/>
<path transform="translate(0,0)" fill="rgb(45,85,159)" d="M 528.725 1026.43 C 531.039 1026.65 534.005 1026.77 536.088 1027.88 C 539.452 1029.66 541.564 1034.25 542.504 1037.8 C 545.059 1047.48 542.672 1060.09 537.83 1068.68 L 525.01 1069.93 C 526.647 1061.88 527.493 1054.04 527.752 1045.84 C 527.951 1039.55 527.259 1032.56 528.725 1026.43 z"/>
<path transform="translate(0,0)" fill="rgb(25,66,131)" d="M 328.898 368.298 C 315.004 354.511 304.495 325.316 300.528 306.436 C 292.003 265.871 300.323 225.628 323.001 191.107 C 345.417 156.986 380.779 134.67 420.51 126.651 C 460.166 119.047 501.221 127.414 534.738 149.933 C 569.447 173.206 592.511 209.936 600.526 250.703 L 683.985 250.887 L 683.872 261.028 C 656.551 261.046 629.211 260.841 601.893 261.178 C 603.433 305.448 591.44 345.453 560.625 378.352 C 552.18 387.369 526.127 411.885 514.526 412.307 C 513.143 412.358 511.986 412.012 510.97 411.032 C 509.905 410.005 509.018 408.616 508.155 407.414 C 503.844 410.018 499.619 412.49 495.005 414.521 L 493.055 416.069 L 493.226 450.045 C 483.77 449.989 468.98 452.352 460.473 448.617 C 459.29 446.767 458.697 445.302 458.172 443.175 L 455.39 437.144 L 430.081 437.27 C 428.635 441.379 427.123 445.464 425.546 449.525 C 419.509 450.635 412.34 449.918 406.164 449.939 C 409.969 438.977 413.848 428.098 418.195 417.335 C 406.579 414.833 396.547 410.577 385.88 405.489 L 379.085 412.503 C 361.849 401.228 345.884 388.796 332.989 372.563 L 328.898 368.298 z"/>
<path transform="translate(0,0)" fill="url(#Gradient3)" d="M 385.897 338.941 C 406.209 335.134 426.882 340.001 447.337 340.084 C 463.358 340.148 479.314 337.876 495.349 338.077 C 497.66 338.76 501.324 339.297 503.009 340.976 L 503.127 341.832 C 504.113 348.603 506.229 355.163 507.131 361.932 C 508.856 374.874 504.626 392.298 499.396 404.207 C 495.695 407.227 497.075 407.269 495.161 410.651 L 494.81 403.875 L 493.945 403.6 C 493.622 407.041 493.729 411.262 495.005 414.521 L 493.055 416.069 L 493.226 450.045 C 483.77 449.989 468.98 452.352 460.473 448.617 C 459.29 446.767 458.697 445.302 458.172 443.175 L 455.39 437.144 L 430.081 437.27 C 428.635 441.379 427.123 445.464 425.546 449.525 C 419.509 450.635 412.34 449.918 406.164 449.939 C 409.969 438.977 413.848 428.098 418.195 417.335 C 406.579 414.833 396.547 410.577 385.88 405.489 C 372.802 399.134 359.618 386.548 349.927 375.829 C 360.769 363.028 372.977 349.62 385.897 338.941 z"/>
<path transform="translate(0,0)" fill="rgb(25,66,131)" d="M 418.195 417.335 C 423.182 407.799 429.817 380.261 436.367 374.495 C 440.526 373.451 444.819 374.507 448.999 375.123 L 458.637 398.423 C 457.318 399.522 456.818 400.134 455.105 400.46 C 461.632 415.186 467.109 431.472 474.781 445.538 C 471.803 445.628 468.507 445.945 465.572 445.428 C 463.011 444.977 462.918 444.393 461.529 442.361 L 458.172 443.175 L 455.39 437.144 L 430.081 437.27 C 428.635 441.379 427.123 445.464 425.546 449.525 C 419.509 450.635 412.34 449.918 406.164 449.939 C 409.969 438.977 413.848 428.098 418.195 417.335 z"/>
<path transform="translate(0,0)" fill="rgb(253,253,253)" d="M 418.195 417.335 C 423.182 407.799 429.817 380.261 436.367 374.495 C 440.526 373.451 444.819 374.507 448.999 375.123 L 458.637 398.423 C 457.318 399.522 456.818 400.134 455.105 400.46 C 452.513 394.479 449.423 384.04 444.956 379.58 C 442.418 379.347 440.521 379.089 438.124 380.065 C 430.274 391.349 417.666 431.069 411.889 446.075 L 423.531 445.603 L 425.546 449.525 C 419.509 450.635 412.34 449.918 406.164 449.939 C 409.969 438.977 413.848 428.098 418.195 417.335 z"/>
<path transform="translate(0,0)" fill="rgb(234,238,243)" d="M 427.421 432.63 C 437.468 433.052 447.563 432.796 457.617 432.713 C 459.265 435.789 460.347 439.087 461.529 442.361 L 458.172 443.175 L 455.39 437.144 L 430.081 437.27 C 428.635 441.379 427.123 445.464 425.546 449.525 L 423.531 445.603 C 423.979 441.292 426.008 436.737 427.421 432.63 z"/>
<path transform="translate(0,0)" fill="rgb(205,224,242)" d="M 441.844 395.747 C 445.467 399.091 450.397 415.757 452.192 421.27 C 449.755 422.685 445.461 422.088 442.599 422.143 L 431.546 422.487 C 435.347 413.763 438.475 404.65 441.844 395.747 z"/>
<path transform="translate(0,0)" fill="rgb(25,66,131)" d="M 491.086 374.835 C 492.9 376.359 492.689 376.637 492.935 379.001 C 494.194 391.119 492.405 403.849 493.055 416.069 L 493.226 450.045 C 483.77 449.989 468.98 452.352 460.473 448.617 C 459.29 446.767 458.697 445.302 458.172 443.175 L 461.529 442.361 C 462.918 444.393 463.011 444.977 465.572 445.428 C 468.507 445.945 471.803 445.628 474.781 445.538 L 478.314 445.05 L 477.88 434.049 C 478.034 421.39 480.358 390.076 477.104 379.311 L 475.92 380.046 C 474.85 378.315 475.139 377.852 475.34 375.881 C 478.581 373.918 487.13 374.875 491.086 374.835 z"/>
<path transform="translate(0,0)" fill="rgb(253,253,253)" d="M 491.086 374.835 C 492.9 376.359 492.689 376.637 492.935 379.001 C 494.194 391.119 492.405 403.849 493.055 416.069 L 493.226 450.045 C 483.77 449.989 468.98 452.352 460.473 448.617 C 459.29 446.767 458.697 445.302 458.172 443.175 L 461.529 442.361 C 462.918 444.393 463.011 444.977 465.572 445.428 C 468.507 445.945 471.803 445.628 474.781 445.538 L 478.314 445.05 C 481.469 445.725 485.199 446.473 488.177 445.044 C 489.705 440.158 489.339 384.885 487.753 379.736 C 484.242 378.364 480.772 378.987 477.104 379.311 L 475.92 380.046 C 474.85 378.315 475.139 377.852 475.34 375.881 C 478.581 373.918 487.13 374.875 491.086 374.835 z"/>
<path transform="translate(0,0)" fill="rgb(205,224,242)" d="M 472.51 426.169 C 472.46 415.141 470.458 382.072 474.581 374.491 C 479.729 372.876 485.858 373.915 491.086 374.835 C 487.13 374.875 478.581 373.918 475.34 375.881 C 475.139 377.852 474.85 378.315 475.92 380.046 L 477.104 379.311 C 480.358 390.076 478.034 421.39 477.88 434.049 L 478.314 445.05 L 474.781 445.538 C 467.109 431.472 461.632 415.186 455.105 400.46 C 456.818 400.134 457.318 399.522 458.637 398.423 L 462.727 406.647 C 467.745 411.038 470.134 420.003 472.51 426.169 z"/>
<path transform="translate(0,0)" fill="rgb(234,238,243)" d="M 458.637 398.423 L 462.727 406.647 C 465.663 414.924 469.5 422.756 473.281 430.669 C 474.206 425.629 475.016 420.539 476.525 415.635 C 476.829 421.558 476.535 428.296 477.88 434.049 L 478.314 445.05 L 474.781 445.538 C 467.109 431.472 461.632 415.186 455.105 400.46 C 456.818 400.134 457.318 399.522 458.637 398.423 z"/>
<path transform="translate(0,0)" fill="rgb(108,180,235)" d="M 495.349 338.077 C 505.135 337.716 508.955 341.188 515.906 347.667 C 525.941 357.023 535.88 367.091 545.2 377.158 C 535.221 387.492 514.001 400.283 508.155 407.414 C 503.844 410.018 499.619 412.49 495.005 414.521 C 493.729 411.262 493.622 407.041 493.945 403.6 L 494.81 403.875 L 495.161 410.651 C 497.075 407.269 495.695 407.227 499.396 404.207 C 504.626 392.298 508.856 374.874 507.131 361.932 C 506.229 355.163 504.113 348.603 503.127 341.832 L 503.009 340.976 C 501.324 339.297 497.66 338.76 495.349 338.077 z"/>
<path transform="translate(0,0)" fill="url(#Gradient2)" d="M 343.303 369.829 C 325.702 348.735 314.143 327.381 309.125 300.138 C 302.14 263.777 310.261 226.14 331.617 195.895 C 353.367 164.457 386.676 142.907 424.266 135.952 C 461.53 129.224 499.935 137.725 530.877 159.552 C 558.082 175.308 580.411 210.756 588.336 240.71 C 597.724 276.196 591.654 313.396 573.228 344.995 C 567.395 354.998 560.484 363.813 552.864 372.5 C 541.475 361.033 520.015 334.986 506.06 329.922 C 501.692 328.336 496.009 328.325 491.374 327.936 C 505.661 318.084 514.248 308.049 521.238 292.181 C 528.968 292.727 535.501 293.435 541.957 288.16 C 547.645 283.512 549.764 276.195 550.251 269.136 C 551.169 257.053 548.367 244.979 542.222 234.536 C 536.604 232.783 531.649 232.461 525.788 232.346 C 523.927 224.14 521.46 216.413 517.351 209.028 C 507.564 191.613 491.174 178.875 471.881 173.69 C 450.339 167.682 425.387 170.238 405.901 181.325 C 385.297 193.048 374.444 210.578 368.365 232.898 C 367.318 232.806 366.269 232.726 365.22 232.656 C 359.452 232.282 354.761 232.628 350.267 236.718 C 344.264 242.181 342.811 250.235 342.614 257.99 C 342.381 267.214 343.202 282.064 350.443 288.935 C 355.787 294.005 366.35 292.737 373.199 292.624 C 379.817 307.581 389.454 317.757 402.095 327.735 C 399.551 327.739 396.998 327.751 394.458 327.904 C 375.05 329.066 355.824 355.938 343.303 369.829 z"/>
<path transform="translate(0,0)" fill="rgb(108,180,235)" d="M 542.222 234.536 L 542.39 233.794 C 539.078 230.388 532.537 231.718 528.166 229.18 C 524.808 227.23 525.01 215.781 522.151 211.719 C 512.653 198.222 486.664 164.557 483.846 150.161 C 483.202 146.869 483.463 145.44 485.2 142.674 C 487.719 142.556 505.72 147.516 508.189 148.603 C 514.115 151.212 523.565 159.188 529.547 159.525 C 529.99 159.55 530.434 159.543 530.877 159.552 C 558.082 175.308 580.411 210.756 588.336 240.71 C 597.724 276.196 591.654 313.396 573.228 344.995 C 567.395 354.998 560.484 363.813 552.864 372.5 C 541.475 361.033 520.015 334.986 506.06 329.922 C 501.692 328.336 496.009 328.325 491.374 327.936 C 505.661 318.084 514.248 308.049 521.238 292.181 C 528.968 292.727 535.501 293.435 541.957 288.16 C 547.645 283.512 549.764 276.195 550.251 269.136 C 551.169 257.053 548.367 244.979 542.222 234.536 z"/>
<path transform="translate(0,0)" fill="url(#Gradient1)" d="M 439.492 180.287 C 457.48 178.271 477.315 183.206 491.552 194.46 C 505.984 205.868 514.701 223.054 516.679 241.217 C 519.091 263.365 514.825 288.503 500.597 306.172 C 489.085 320.469 473.308 328.571 455.175 330.516 C 437.333 331.673 421.151 329.156 406.48 318.242 C 390.51 306.36 381.28 288.774 378.44 269.255 C 375.44 248.638 377.866 225.052 390.679 207.954 C 402.571 192.085 420.142 183.147 439.492 180.287 z"/>
<path transform="translate(0,0)" fill="rgb(25,66,131)" d="M 416.161 224.247 C 428.403 223.573 440.75 224.048 453.011 223.968 C 461.486 223.913 470.638 222.912 478.985 224.102 C 483.372 224.728 487.827 226.095 491.626 228.407 C 499.12 232.968 503.851 240.611 505.696 249.085 C 507.882 259.118 506.88 271.162 501.175 279.921 C 496.525 287.059 490.379 290.3 482.219 291.948 C 463.174 292.075 414.767 296.104 400.365 286.087 C 394.441 281.965 390.738 275.68 389.546 268.6 C 387.773 258.065 388.656 244.103 395.173 235.176 C 400.547 227.815 407.498 225.563 416.161 224.247 z"/>
<path transform="translate(0,0)" fill="rgb(108,180,235)" d="M 419.856 248.474 C 423.424 247.943 427.002 249.377 429.216 252.225 C 431.43 255.074 431.937 258.895 430.542 262.222 C 429.148 265.549 426.068 267.866 422.484 268.285 C 417.063 268.917 412.137 265.084 411.419 259.673 C 410.701 254.263 414.457 249.277 419.856 248.474 z"/>
<path transform="translate(0,0)" fill="rgb(108,180,235)" d="M 471.89 249.69 C 476.737 247.387 482.535 249.391 484.925 254.197 C 487.314 259.002 485.413 264.835 480.652 267.31 C 477.495 268.951 473.698 268.76 470.722 266.811 C 467.746 264.862 466.053 261.458 466.295 257.909 C 466.537 254.359 468.676 251.217 471.89 249.69 z"/>
<path transform="translate(0,0)" fill="rgb(45,85,159)" d="M 365.848 241.39 C 367.249 243.02 368.966 279.162 368.802 284.294 L 368.105 284.881 C 364.882 285.464 361.576 284.054 358.493 283.149 C 353.155 278.031 351.662 268.843 351.167 261.688 C 350.788 256.225 351.217 248.401 355.198 244.191 C 357.941 241.29 362.128 241.597 365.848 241.39 z"/>
<path transform="translate(0,0)" fill="rgb(45,85,159)" d="M 527.973 242.027 L 533.619 242.047 C 536.665 243.622 537.86 245.446 538.898 248.7 C 542.242 259.175 539.521 274.19 534.67 283.797 L 523.339 283.639 C 524.815 277.123 526.222 270.776 526.711 264.097 C 527.222 257.121 525.935 248.626 527.973 242.027 z"/>
<path transform="translate(0,0)" fill="rgb(59,148,227)" d="M 1198.92 933.33 C 1201 932.547 1203.08 931.184 1205.17 932.028 L 1205.52 932.785 C 1206.39 947.977 1205.88 963.389 1205.88 978.607 C 1205.86 1011.54 1205.4 1044.56 1206.07 1077.49 C 1213.09 1079.9 1218.91 1082.87 1222.48 1089.73 C 1225.75 1096 1224.79 1101.86 1222.57 1108.16 C 1222.22 1109.15 1221.84 1110.09 1221.35 1111.03 C 1245.38 1130.41 1272.83 1160.3 1294.31 1183.08 L 1295.23 1182.38 C 1303.88 1175.96 1315.63 1173.98 1326.14 1175.68 C 1336.99 1177.42 1347.86 1183.07 1354.2 1192.25 C 1359.56 1200.01 1361.86 1209.88 1360.06 1219.16 C 1358.02 1229.66 1351.88 1239.82 1342.95 1245.83 C 1333.53 1252.17 1321.04 1254.14 1310.01 1251.78 C 1299.62 1249.56 1290.15 1243.38 1284.41 1234.38 C 1279.05 1225.99 1277.3 1215.78 1279.56 1206.08 C 1281.28 1198.51 1285.3 1191.46 1290.44 1185.69 C 1267.4 1164.73 1239.07 1137.15 1219.61 1113.18 C 1213.56 1117.3 1207.16 1120.81 1199.56 1119.27 C 1194.12 1118.17 1188.76 1114.16 1185.8 1109.46 C 1183.98 1106.58 1182.72 1103.04 1181.51 1099.86 L 1044.54 1099.78 C 1043.54 1106.39 1041.65 1111.84 1036.2 1116.11 C 1031.4 1119.88 1024.89 1120.67 1019.01 1119.73 C 1016.76 1119.38 1014.68 1118.63 1012.57 1117.78 C 1005.9 1124.69 952.418 1173.81 952.428 1175.93 C 952.45 1180.46 957.757 1183 957.407 1188.34 L 957.332 1189.62 C 956.961 1195.13 954.688 1200.46 950.534 1204.19 C 946.021 1208.24 939.061 1210.76 933.033 1210.09 C 927.316 1209.46 922.199 1206.24 918.85 1201.62 C 915.54 1197.01 914.234 1191.26 915.228 1185.67 C 916.073 1180.65 918.697 1176.04 922.959 1173.17 C 930.581 1168.05 939.258 1169.32 947.655 1171.19 C 958.248 1159.52 970.342 1148.9 981.885 1138.18 C 990.452 1130.23 998.986 1121.57 1008.17 1114.35 C 1004 1108.68 1001.2 1102.46 1002.49 1095.24 C 1003.53 1089.39 1007.58 1084.46 1012.48 1081.3 C 1015.79 1079.15 1020.27 1078.21 1024.06 1077.3 L 1024.07 986.785 L 1029.37 987.514 C 1031.93 991.308 1029.41 1065.17 1030.31 1077.28 C 1030.47 1078.93 1038.03 1083.82 1039.73 1085.6 C 1041.85 1087.83 1043.28 1090.39 1044.7 1093.1 L 1182.22 1093.18 C 1186.8 1085.83 1191.11 1081.89 1199.09 1078.55 L 1198.92 933.33 z"/>
<path transform="translate(0,0)" fill="rgb(59,148,227)" d="M 1199.66 210.569 C 1190.54 201.936 1183.53 191.779 1181.49 179.176 C 1179.38 166.58 1182.44 153.667 1189.96 143.348 C 1198.05 132.19 1210.34 125.337 1223.88 123.284 C 1237.59 121.206 1252.12 123.994 1263.29 132.437 C 1275.6 141.74 1280.7 154.597 1282.8 169.433 C 1307.51 170.546 1332.65 168.116 1357.27 169.703 C 1360.35 169.901 1362.87 170.501 1364.95 172.872 L 1364.69 174.688 C 1362.74 176.135 1361.24 176.664 1358.82 176.987 C 1351.18 178.01 1342.29 177.033 1334.5 177.019 L 1282.44 177.129 C 1281.03 184.269 1279.49 190.625 1275.81 196.963 C 1269.02 208.509 1257.88 216.844 1244.89 220.095 C 1230.98 223.58 1216.72 221.322 1204.47 214.076 C 1180.74 242.001 1154.42 268.268 1129.47 295.148 C 1128.04 317.051 1131.03 339.489 1128.76 361.249 C 1126.72 361.813 1125.17 361.997 1123.05 362 C 1122.09 338.963 1122.78 315.696 1122.82 292.633 C 1148.2 265.06 1173.81 237.704 1199.66 210.569 z"/>
<path transform="translate(0,0)" fill="rgb(59,148,227)" d="M 911.863 969.454 C 914.17 969.716 916.531 970.112 918.853 970.121 C 918.926 988.503 918.901 1006.89 918.778 1025.27 C 908.983 1038.09 834.173 1113.72 822.608 1121.46 C 828.061 1127.25 832.499 1133.51 835.172 1141.06 C 839.072 1152.09 838.62 1164.79 833.502 1175.35 C 828.083 1186.53 817.78 1194.97 806.036 1198.81 C 793.792 1202.81 779.578 1201.82 768.128 1195.85 C 756.833 1189.95 748.708 1179.1 745.161 1166.96 C 742.249 1157 743.232 1144.11 748.352 1134.99 C 754.673 1123.74 765.267 1114.77 777.812 1111.41 C 793.27 1107.28 805.689 1111.5 819.007 1119.17 C 826.985 1106.53 844.277 1092.02 855.262 1080.95 L 911.94 1023.11 C 911.795 1005.22 911.769 987.339 911.863 969.454 z"/>
<path transform="translate(0,0)" fill="rgb(59,148,227)" d="M 683.985 250.887 C 687 237.546 692.842 226.018 704.763 218.53 C 715.35 211.88 728.919 210.056 741 213.074 C 752.362 215.975 762.117 223.249 768.138 233.311 C 773.864 243.202 775.356 254.986 772.277 265.992 C 769.281 276.944 762.653 285.166 753.909 292.094 C 771.467 309.282 788.92 326.576 806.267 343.977 C 817.119 354.838 827.651 366.208 839.3 376.224 L 831.006 377.406 C 819.774 368.363 809.802 357.139 799.595 346.937 C 782.464 330.002 765.51 312.889 748.737 295.6 C 748.538 295.669 748.339 295.741 748.139 295.808 C 745.457 296.705 742.754 297.668 739.984 298.256 C 727.728 300.856 713.577 299.169 703.055 292.12 C 691.906 284.651 686.526 273.833 683.872 261.028 L 683.985 250.887 z"/>
<path transform="translate(0,0)" fill="rgb(59,148,227)" d="M 878.324 140.749 C 872.254 143.81 864.595 145.879 857.857 143.663 C 853.396 142.196 850.093 138.592 848.202 134.394 C 845.623 128.668 845.352 122.276 847.712 116.405 C 849.728 111.388 853.782 106.636 858.868 104.616 C 864 102.579 869.274 103.417 874.146 105.672 C 879.191 108.007 883.995 111.909 885.907 117.281 C 887.762 122.495 886.762 127.989 884.332 132.794 C 883.665 134.113 882.915 135.333 882.091 136.558 C 898.297 151.714 913.367 168.118 928.725 184.126 C 934.653 180.52 940.413 178.887 947.324 180.554 C 952.518 181.807 957.103 184.99 959.772 189.674 C 962.618 194.669 963.122 200.789 961.4 206.236 C 960.729 208.359 959.763 210.396 958.81 212.403 C 974.962 228.993 990.559 246.415 1006.07 263.618 C 1013.64 272.013 1022.4 280.476 1029.01 289.578 L 1029.12 356.597 L 1022.79 356.447 C 1021.37 334.728 1023.4 312.819 1022.16 291.124 C 999.37 266.769 976.598 242.203 954.264 217.431 C 949.532 218.847 944.898 220.144 940.029 220.996 C 936.044 227.821 915.8 256.389 908.995 258.75 L 907.136 258.118 C 906.449 256.624 906.041 256.631 906.649 254.985 C 909.784 246.505 927.443 227.503 933.983 219.936 C 928.541 216.959 922.836 213.513 920.886 207.185 C 918.895 200.726 920.758 193.77 924.006 188.115 C 908.448 173.226 891.857 157.484 878.324 140.749 z"/>
<path transform="translate(0,0)" fill="rgb(59,148,227)" d="M 649.433 396.963 C 655.782 394.945 660.105 395.019 666.584 396.485 L 662.541 398.64 C 661.86 408.302 662.465 418.256 662.496 427.958 C 662.577 453.702 663.355 479.737 662.191 505.45 C 667.941 508.33 672.641 511.668 674.85 518.07 C 676.991 524.278 675.54 530.305 673.002 536.118 C 689.779 552.567 705.858 569.744 722.832 585.979 L 766.296 585.998 L 766.084 593.088 L 720.846 593.095 C 703.069 576.672 685.602 558.665 669.336 540.711 C 665.795 542.744 662.521 544.309 658.451 544.94 C 653.139 545.764 647.498 545.021 643.15 541.642 C 637.446 537.209 636.185 531.855 635.532 525.127 C 615.574 525.773 595.594 524.722 575.679 525.48 L 573.549 512.943 C 574.513 514.678 575.416 516.487 576.828 517.907 C 579.061 520.151 628.604 519.026 636.039 519.112 C 637.364 516.589 638.854 514.173 640.635 511.944 C 644.61 506.969 650.073 505.475 656.073 504.739 L 655.972 399.302 L 649.433 396.963 z"/>
<path transform="translate(0,0)" fill="rgb(59,148,227)" d="M 328.898 368.298 L 332.989 372.563 C 323.88 379.061 312.882 384.032 303.005 389.368 C 285.231 398.97 267.382 409.602 248.662 417.19 C 249.776 419.141 250.77 421.159 251.639 423.231 C 254.483 429.956 255.35 438.848 252.378 445.674 C 249.686 451.856 244.183 456.283 238.009 458.711 C 230.823 461.538 223.057 461.135 216.076 457.887 C 209.703 454.921 204.219 449.686 201.838 442.983 C 199.496 436.392 200.747 429.36 203.752 423.219 C 206.96 416.664 211.842 411.502 218.899 409.208 C 228.349 406.134 236.638 409.253 245.058 413.513 C 255.096 406.124 267.491 400.596 278.475 394.694 C 295.139 385.74 311.712 376.214 328.898 368.298 z"/>
<path transform="translate(0,0)" fill="rgb(59,148,227)" d="M 635.726 753.221 C 639.013 753.548 642.379 754.244 645.388 755.655 C 650.457 757.97 654.307 762.327 655.98 767.643 C 657.779 773.47 657.071 779.783 654.026 785.067 C 649.924 792.205 644.181 794.416 636.555 796.366 C 632.208 795.26 627.897 793.921 623.583 792.685 C 613.348 802.314 555.482 852.765 552.215 858.285 C 550.457 861.255 553.668 866.379 554.281 869.759 C 555.068 874.091 552.895 877.766 550.437 881.087 L 549.795 881.946 C 546.463 884.013 543.533 885.323 539.535 885.293 C 535.512 885.262 531.339 884.478 528.537 881.356 C 525.91 878.429 524.841 874.348 525.06 870.473 C 525.301 866.207 527.124 861.812 530.512 859.092 C 535.713 854.916 543.535 855.592 549.374 850.997 C 557.602 844.523 565.248 836.838 573.019 829.78 C 588.548 815.521 604.329 801.539 620.355 787.84 C 619.063 785.366 617.504 782.659 616.822 779.944 C 615.414 774.33 616.133 767.827 619.377 762.95 C 623.264 757.108 629.105 754.596 635.726 753.221 z"/>
<path transform="translate(0,0)" fill="rgb(59,148,227)" d="M 1029.94 79.1148 C 1032.51 78.9717 1035.26 78.7254 1037.81 79.0866 C 1043.19 79.8505 1049 83.5067 1052.15 87.9205 C 1054.75 91.5625 1055.87 95.9751 1054.93 100.387 C 1050.41 121.733 1034.69 111.687 1027.09 117.358 C 1006.34 132.838 989.213 153.646 969.237 170.279 C 967.058 172.582 964.969 174.877 962.447 176.815 C 959.854 176.978 959.914 176.936 957.821 175.375 L 957.709 173.918 C 971.033 156.831 1005.45 126.858 1022.75 113.476 C 1020.98 111.277 1019.16 108.997 1017.91 106.46 C 1015.67 101.939 1015.1 95.7449 1016.94 91.0299 C 1019.38 84.7335 1024.16 81.7561 1029.94 79.1148 z"/>
<path transform="translate(0,0)" fill="rgb(59,148,227)" d="M 234.274 910.132 C 235.83 910.047 237.447 909.944 239.002 910.101 C 244.926 910.7 250.634 913.162 254.448 917.867 C 257.992 922.288 259.477 928.014 258.528 933.6 C 257.65 938.844 254.702 943.366 250.184 946.173 C 243.984 950.024 237.786 949.435 231.02 947.845 C 213.019 963.094 195.986 980.523 178.944 996.884 C 176.403 999.43 174.038 1001.97 170.826 1003.67 C 169.909 1004.16 170.384 1004.02 169.096 1003.61 C 173.337 995.903 218.389 955.003 228.011 946.366 C 224.702 943.89 221.832 941.246 220.07 937.426 C 217.888 932.697 217.456 927.412 219.45 922.539 C 222.296 915.585 227.713 912.664 234.274 910.132 z"/>
<path transform="translate(0,0)" fill="rgb(59,148,227)" d="M 134.973 811.232 C 141.253 810.48 146.658 810.058 152.374 813.479 C 156.221 815.78 158.757 819.253 159.594 823.67 C 160.912 830.615 158.169 835.134 154.385 840.521 C 168.165 854.726 182.083 868.797 196.137 882.731 C 203.571 890.144 212.03 897.459 218.485 905.734 L 218.025 906.83 L 215.299 906.026 C 193.763 885.537 172.696 864.076 152.043 842.688 C 148.15 844.215 144.119 845.359 139.898 844.904 C 134.81 844.354 129.547 841.521 126.556 837.328 C 123.939 833.712 122.989 829.15 123.945 824.79 C 125.446 818.225 129.613 814.678 134.973 811.232 z"/>
<path transform="translate(0,0)" fill="rgb(59,148,227)" d="M 142.318 329.327 C 143.201 329.422 144.083 329.538 144.961 329.673 C 149.727 330.405 155.897 332.568 158.65 336.774 C 161.483 341.102 159.826 346.064 158.883 350.681 C 158.636 351.888 157.827 354.578 157.969 355.654 C 158.784 361.813 197.633 395.391 204.721 405.952 L 204.457 407.105 C 200.993 405.445 198.474 402.443 195.845 399.72 C 182.162 387.161 167.817 373.449 155.792 359.324 C 154.028 360.231 152.234 360.934 150.33 361.485 C 144.735 363.105 139.354 363.109 134.187 360.062 C 130.251 357.76 127.451 353.924 126.458 349.474 C 125.481 345.108 126.194 340.688 128.728 336.972 C 132.139 331.97 136.723 330.417 142.318 329.327 z"/>
<path transform="translate(0,0)" fill="rgb(108,180,235)" d="M 199.681 189.407 C 208.686 186.463 218.378 191.345 221.372 200.333 C 224.366 209.322 219.538 219.041 210.566 222.085 C 201.524 225.153 191.711 220.279 188.694 211.219 C 185.676 202.16 190.605 192.375 199.681 189.407 z"/>
<path transform="translate(0,0)" fill="rgb(108,180,235)" d="M 208.191 1133.2 C 216.599 1131.13 225.125 1136.14 227.394 1144.5 C 229.662 1152.86 224.842 1161.5 216.539 1163.96 C 210.995 1165.6 204.995 1164.12 200.861 1160.07 C 196.727 1156.03 195.108 1150.06 196.63 1144.48 C 198.152 1138.9 202.576 1134.59 208.191 1133.2 z"/>
<path transform="translate(0,0)" fill="rgb(108,180,235)" d="M 1931.46 913.257 C 1939.82 911.415 1948.1 916.641 1950.04 924.98 C 1951.98 933.318 1946.86 941.666 1938.54 943.703 C 1933.07 945.042 1927.31 943.34 1923.45 939.245 C 1919.59 935.151 1918.23 929.297 1919.88 923.919 C 1921.54 918.541 1925.96 914.468 1931.46 913.257 z"/>
<path transform="translate(0,0)" fill="rgb(59,148,227)" d="M 901.125 263.58 C 909.094 260.323 918.188 264.194 921.367 272.194 C 924.546 280.194 920.588 289.25 912.557 292.351 C 904.636 295.41 895.729 291.518 892.594 283.627 C 889.458 275.736 893.265 266.792 901.125 263.58 z"/>
<path transform="translate(0,0)" fill="rgb(59,148,227)" d="M 1113.33 1221.41 C 1121.2 1218.9 1129.64 1223.08 1132.41 1230.87 C 1135.17 1238.65 1131.26 1247.23 1123.57 1250.25 C 1118.37 1252.29 1112.47 1251.34 1108.17 1247.76 C 1103.88 1244.18 1101.88 1238.54 1102.95 1233.06 C 1104.02 1227.57 1108 1223.11 1113.33 1221.41 z"/>
<path transform="translate(0,0)" fill="rgb(108,180,235)" d="M 1670.33 1195.98 C 1675.4 1194.28 1680.98 1195.48 1684.9 1199.11 C 1688.82 1202.73 1690.45 1208.21 1689.15 1213.39 C 1687.85 1218.57 1683.84 1222.63 1678.67 1223.98 C 1671.05 1225.97 1663.21 1221.56 1660.97 1214.01 C 1658.72 1206.45 1662.86 1198.48 1670.33 1195.98 z"/>
<path transform="translate(0,0)" fill="rgb(59,148,227)" d="M 649.433 396.963 C 645.982 393.794 643.001 390.405 642.661 385.452 C 642.395 381.57 643.927 378.04 646.652 375.319 C 650.22 371.757 655.488 369.704 660.534 370.07 C 663.793 370.306 666.91 371.572 669.085 374.067 C 672.086 377.51 672.723 382.968 672.204 387.388 C 671.749 391.258 669.554 394.134 666.584 396.485 C 660.105 395.019 655.782 394.945 649.433 396.963 z"/>
<path transform="translate(0,0)" fill="rgb(108,180,235)" d="M 1890.69 255.479 C 1897.97 253.061 1905.83 257.032 1908.2 264.327 C 1910.58 271.623 1906.56 279.456 1899.25 281.784 C 1892 284.091 1884.25 280.115 1881.9 272.883 C 1879.55 265.65 1883.48 257.876 1890.69 255.479 z"/>
<path transform="translate(0,0)" fill="rgb(108,180,235)" d="M 139.162 543.592 C 143.382 541.648 148.323 542.132 152.086 544.858 C 155.849 547.583 157.849 552.127 157.317 556.743 C 156.786 561.358 153.806 565.329 149.523 567.128 C 143.053 569.846 135.599 566.876 132.772 560.453 C 129.945 554.031 132.788 546.527 139.162 543.592 z"/>
<path transform="translate(0,0)" fill="rgb(108,180,235)" d="M 156.344 1008.39 C 162.878 1006.11 170.021 1009.57 172.288 1016.11 C 174.556 1022.64 171.086 1029.78 164.543 1032.03 C 158.019 1034.28 150.905 1030.82 148.644 1024.3 C 146.383 1017.78 149.828 1010.66 156.344 1008.39 z"/>
<path transform="translate(0,0)" fill="rgb(59,148,227)" d="M 575.679 525.48 C 575.422 526.211 575.105 526.844 574.716 527.517 C 573.146 530.236 570.754 532.278 567.622 532.912 C 564.083 533.628 559.428 532.975 556.404 530.931 C 553.81 529.176 552.335 526.52 552.031 523.42 C 551.608 519.11 553.457 514.491 556.425 511.396 C 558.484 509.248 561.502 507.733 564.535 507.914 C 568.091 508.126 571.296 510.339 573.549 512.943 L 575.679 525.48 z"/>
<path transform="translate(0,0)" fill="rgb(59,148,227)" d="M 1098.6 175.203 C 1102.65 173.616 1107.24 174.346 1110.59 177.112 C 1113.94 179.877 1115.53 184.243 1114.74 188.516 C 1113.95 192.789 1110.91 196.299 1106.79 197.685 C 1100.64 199.755 1093.95 196.539 1091.73 190.437 C 1089.51 184.335 1092.56 177.575 1098.6 175.203 z"/>
<path transform="translate(0,0)" fill="rgb(59,148,227)" d="M 1432.89 1096.65 C 1439.18 1096.34 1444.57 1101.12 1445 1107.41 C 1445.44 1113.7 1440.76 1119.17 1434.49 1119.73 C 1430.32 1120.11 1426.27 1118.2 1423.91 1114.74 C 1421.54 1111.28 1421.23 1106.81 1423.1 1103.06 C 1424.96 1099.31 1428.71 1096.86 1432.89 1096.65 z"/>
<path transform="translate(0,0)" fill="rgb(59,148,227)" d="M 1876.68 1032.42 C 1878.45 1031.46 1880.61 1031.55 1882.3 1032.66 C 1883.99 1033.76 1884.94 1035.7 1884.78 1037.71 C 1884.61 1039.73 1883.36 1041.49 1881.51 1042.3 C 1878.81 1043.49 1875.65 1042.33 1874.35 1039.68 C 1873.06 1037.03 1874.08 1033.83 1876.68 1032.42 z"/>
<path transform="translate(0,0)" fill="rgb(59,148,227)" d="M 1835.87 355.581 C 1837.66 354.513 1839.9 354.555 1841.66 355.691 C 1843.41 356.826 1844.36 358.857 1844.12 360.93 C 1843.87 363.002 1842.48 364.757 1840.51 365.456 C 1837.85 366.4 1834.91 365.174 1833.71 362.622 C 1832.51 360.07 1833.45 357.024 1835.87 355.581 z"/>
<path transform="translate(0,0)" fill="rgb(59,148,227)" d="M 805.318 1023.64 C 807.729 1022.33 810.742 1023.14 812.183 1025.47 C 813.623 1027.81 812.991 1030.86 810.742 1032.43 C 809.17 1033.53 807.119 1033.66 805.414 1032.79 C 803.709 1031.91 802.63 1030.16 802.61 1028.24 C 802.589 1026.33 803.632 1024.55 805.318 1023.64 z"/>
</svg>