<svg xmlns="http://www.w3.org/2000/svg" viewBox="0 0 1920 1080" preserveAspectRatio="xMidYMid slice">
  <defs>
    <filter id="glow">
      <feGaussianBlur stdDeviation="5" result="coloredBlur"/>
      <feMerge>
        <feMergeNode in="coloredBlur"/>
        <feMergeNode in="coloredBlur"/>
        <feMergeNode in="SourceGraphic"/>
      </feMerge>
    </filter>
    <filter id="softGlow">
      <feGaussianBlur stdDeviation="4" result="coloredBlur"/>
      <feMerge>
        <feMergeNode in="coloredBlur"/>
        <feMergeNode in="SourceGraphic"/>
      </feMerge>
    </filter>
  </defs>

  <!-- ROBOT TYPE 1: Round face bot (various sizes) -->

  <!-- EXTRA LARGE round bot - top left -->
  <g opacity="0.55" transform="translate(120, 200) scale(1.0)">
    <circle cx="0" cy="0" r="32" fill="none" stroke="#FF00FF" stroke-width="2.5" filter="url(#glow)"/>
    <circle cx="-10" cy="-6" r="5" fill="#FF00FF" filter="url(#glow)"/>
    <circle cx="10" cy="-6" r="5" fill="#FF00FF" filter="url(#glow)"/>
    <path d="M -12,10 Q 0,18 12,10" fill="none" stroke="#FF00FF" stroke-width="2" stroke-linecap="round"/>
    <line x1="0" y1="-32" x2="0" y2="-48" stroke="#FF00FF" stroke-width="2"/>
    <circle cx="0" cy="-48" r="4" fill="#FF00FF" filter="url(#glow)"/>
  </g>

  <!-- Large round bot - right side upper -->
  <g opacity="0.58" transform="translate(1780, 180) scale(0.85)">
    <circle cx="0" cy="0" r="30" fill="none" stroke="#00FFFF" stroke-width="2.5" filter="url(#glow)"/>
    <circle cx="-9" cy="-6" r="4.5" fill="#00FFFF" filter="url(#glow)"/>
    <circle cx="9" cy="-6" r="4.5" fill="#00FFFF" filter="url(#glow)"/>
    <path d="M -10,9 Q 0,15 10,9" fill="none" stroke="#00FFFF" stroke-width="2" stroke-linecap="round"/>
    <line x1="0" y1="-30" x2="0" y2="-44" stroke="#00FFFF" stroke-width="2"/>
    <circle cx="0" cy="-44" r="3.5" fill="#00FFFF" filter="url(#glow)"/>
  </g>

  <!-- Medium round bot - top center -->
  <g opacity="0.52" transform="translate(600, 130) scale(0.55)">
    <circle cx="0" cy="0" r="26" fill="none" stroke="#00FFFF" stroke-width="2" filter="url(#softGlow)"/>
    <circle cx="-7" cy="-5" r="3.5" fill="#00FFFF"/>
    <circle cx="7" cy="-5" r="3.5" fill="#00FFFF"/>
    <line x1="0" y1="-26" x2="0" y2="-38" stroke="#00FFFF" stroke-width="1.5"/>
    <circle cx="0" cy="-38" r="3" fill="#00FFFF"/>
  </g>

  <!-- Small round bot - scattered -->
  <g opacity="0.48" transform="translate(380, 320) scale(0.4)">
    <circle cx="0" cy="0" r="22" fill="none" stroke="#FF00FF" stroke-width="2"/>
    <circle cx="-6" cy="-4" r="3" fill="#FF00FF"/>
    <circle cx="6" cy="-4" r="3" fill="#FF00FF"/>
    <line x1="0" y1="-22" x2="0" y2="-32" stroke="#FF00FF" stroke-width="1.5"/>
    <circle cx="0" cy="-32" r="2.5" fill="#FF00FF"/>
  </g>

  <!-- Tiny round bot -->
  <g opacity="0.42" transform="translate(1350, 200) scale(0.3)">
    <circle cx="0" cy="0" r="20" fill="none" stroke="#FF00FF" stroke-width="2"/>
    <circle cx="-5" cy="-4" r="2.5" fill="#FF00FF"/>
    <circle cx="5" cy="-4" r="2.5" fill="#FF00FF"/>
    <line x1="0" y1="-20" x2="0" y2="-28" stroke="#FF00FF" stroke-width="1"/>
  </g>

  <!-- ROBOT TYPE 2: Square/Box bot -->

  <!-- EXTRA LARGE box bot - left side -->
  <g opacity="0.55" transform="translate(80, 600) scale(0.9)">
    <rect x="-28" y="-22" width="56" height="44" rx="5" fill="none" stroke="#FF00FF" stroke-width="2.5" filter="url(#glow)"/>
    <circle cx="-10" cy="-5" r="5" fill="#FF00FF" filter="url(#glow)"/>
    <circle cx="10" cy="-5" r="5" fill="#FF00FF" filter="url(#glow)"/>
    <rect x="-16" y="10" width="32" height="5" rx="2" fill="#FF00FF" opacity="0.5"/>
    <line x1="0" y1="-22" x2="0" y2="-38" stroke="#FF00FF" stroke-width="2"/>
    <circle cx="0" cy="-38" r="4" fill="#FF00FF" filter="url(#glow)"/>
  </g>

  <!-- Large box bot - bottom right -->
  <g opacity="0.55" transform="translate(1720, 880) scale(0.7)">
    <rect x="-24" y="-20" width="48" height="40" rx="4" fill="none" stroke="#00FFFF" stroke-width="2.5" filter="url(#glow)"/>
    <circle cx="-9" cy="-4" r="4" fill="#00FFFF" filter="url(#glow)"/>
    <circle cx="9" cy="-4" r="4" fill="#00FFFF" filter="url(#glow)"/>
    <rect x="-14" y="8" width="28" height="4" rx="1" fill="#00FFFF" opacity="0.5"/>
    <line x1="0" y1="-20" x2="0" y2="-34" stroke="#00FFFF" stroke-width="2"/>
    <circle cx="0" cy="-34" r="3.5" fill="#00FFFF" filter="url(#glow)"/>
  </g>

  <!-- Medium box bot -->
  <g opacity="0.5" transform="translate(1550, 400) scale(0.5)">
    <rect x="-20" y="-16" width="40" height="32" rx="3" fill="none" stroke="#FF00FF" stroke-width="2"/>
    <circle cx="-7" cy="-3" r="3" fill="#FF00FF"/>
    <circle cx="7" cy="-3" r="3" fill="#FF00FF"/>
    <line x1="0" y1="-16" x2="0" y2="-26" stroke="#FF00FF" stroke-width="1.5"/>
    <circle cx="0" cy="-26" r="2.5" fill="#FF00FF"/>
  </g>

  <!-- Small box bot -->
  <g opacity="0.45" transform="translate(1480, 580) scale(0.35)">
    <rect x="-18" y="-14" width="36" height="28" rx="3" fill="none" stroke="#00FFFF" stroke-width="2"/>
    <circle cx="-6" cy="-2" r="2.5" fill="#00FFFF"/>
    <circle cx="6" cy="-2" r="2.5" fill="#00FFFF"/>
    <line x1="0" y1="-14" x2="0" y2="-22" stroke="#00FFFF" stroke-width="1"/>
  </g>

  <!-- ROBOT TYPE 3: Android style -->

  <!-- EXTRA LARGE android - bottom left -->
  <g opacity="0.58" transform="translate(300, 920) scale(0.85)">
    <path d="M -24,0 L -24,26 Q -24,32 -16,32 L 16,32 Q 24,32 24,26 L 24,0" fill="none" stroke="#00FFFF" stroke-width="2.5" filter="url(#glow)"/>
    <path d="M -24,0 Q -24,-14 0,-14 Q 24,-14 24,0" fill="none" stroke="#00FFFF" stroke-width="2.5" filter="url(#glow)"/>
    <circle cx="-10" cy="-5" r="4" fill="#00FFFF" filter="url(#glow)"/>
    <circle cx="10" cy="-5" r="4" fill="#00FFFF" filter="url(#glow)"/>
    <line x1="-16" y1="-20" x2="-22" y2="-30" stroke="#00FFFF" stroke-width="2"/>
    <line x1="16" y1="-20" x2="22" y2="-30" stroke="#00FFFF" stroke-width="2"/>
  </g>

  <!-- Large android - right middle -->
  <g opacity="0.52" transform="translate(1850, 520) scale(0.65)">
    <path d="M -20,0 L -20,22 Q -20,28 -14,28 L 14,28 Q 20,28 20,22 L 20,0" fill="none" stroke="#FF00FF" stroke-width="2" filter="url(#softGlow)"/>
    <path d="M -20,0 Q -20,-12 0,-12 Q 20,-12 20,0" fill="none" stroke="#FF00FF" stroke-width="2"/>
    <circle cx="-8" cy="-4" r="3" fill="#FF00FF"/>
    <circle cx="8" cy="-4" r="3" fill="#FF00FF"/>
    <line x1="-14" y1="-16" x2="-18" y2="-24" stroke="#FF00FF" stroke-width="1.5"/>
    <line x1="14" y1="-16" x2="18" y2="-24" stroke="#FF00FF" stroke-width="1.5"/>
  </g>

  <!-- Medium android -->
  <g opacity="0.48" transform="translate(520, 780) scale(0.45)">
    <path d="M -18,0 L -18,18 Q -18,22 -12,22 L 12,22 Q 18,22 18,18 L 18,0" fill="none" stroke="#00FFFF" stroke-width="2"/>
    <path d="M -18,0 Q -18,-10 0,-10 Q 18,-10 18,0" fill="none" stroke="#00FFFF" stroke-width="2"/>
    <circle cx="-6" cy="-3" r="2.5" fill="#00FFFF"/>
    <circle cx="6" cy="-3" r="2.5" fill="#00FFFF"/>
    <line x1="-12" y1="-14" x2="-15" y2="-20" stroke="#00FFFF" stroke-width="1"/>
    <line x1="12" y1="-14" x2="15" y2="-20" stroke="#00FFFF" stroke-width="1"/>
  </g>

  <!-- Small android -->
  <g opacity="0.42" transform="translate(650, 900) scale(0.35)">
    <path d="M -16,0 L -16,16 Q -16,20 -10,20 L 10,20 Q 16,20 16,16 L 16,0" fill="none" stroke="#FF00FF" stroke-width="2"/>
    <path d="M -16,0 Q -16,-8 0,-8 Q 16,-8 16,0" fill="none" stroke="#FF00FF" stroke-width="2"/>
    <circle cx="-5" cy="-2" r="2" fill="#FF00FF"/>
    <circle cx="5" cy="-2" r="2" fill="#FF00FF"/>
  </g>

  <!-- ROBOT TYPE 4: Chip/Circuit icons -->

  <!-- EXTRA LARGE chip - upper right -->
  <g opacity="0.52" transform="translate(1620, 300) scale(0.8)">
    <rect x="-24" y="-24" width="48" height="48" rx="5" fill="none" stroke="#FF00FF" stroke-width="2.5"/>
    <rect x="-12" y="-12" width="24" height="24" fill="none" stroke="#FF00FF" stroke-width="2"/>
    <line x1="-24" y1="-12" x2="-34" y2="-12" stroke="#FF00FF" stroke-width="2.5"/>
    <line x1="-24" y1="0" x2="-34" y2="0" stroke="#FF00FF" stroke-width="2.5"/>
    <line x1="-24" y1="12" x2="-34" y2="12" stroke="#FF00FF" stroke-width="2.5"/>
    <line x1="24" y1="-12" x2="34" y2="-12" stroke="#FF00FF" stroke-width="2.5"/>
    <line x1="24" y1="0" x2="34" y2="0" stroke="#FF00FF" stroke-width="2.5"/>
    <line x1="24" y1="12" x2="34" y2="12" stroke="#FF00FF" stroke-width="2.5"/>
    <line x1="-12" y1="-24" x2="-12" y2="-34" stroke="#FF00FF" stroke-width="2.5"/>
    <line x1="12" y1="-24" x2="12" y2="-34" stroke="#FF00FF" stroke-width="2.5"/>
  </g>

  <!-- Large chip - left side -->
  <g opacity="0.5" transform="translate(180, 420) scale(0.6)">
    <rect x="-20" y="-20" width="40" height="40" rx="4" fill="none" stroke="#00FFFF" stroke-width="2"/>
    <rect x="-10" y="-10" width="20" height="20" fill="none" stroke="#00FFFF" stroke-width="1.5"/>
    <line x1="-20" y1="0" x2="-30" y2="0" stroke="#00FFFF" stroke-width="2"/>
    <line x1="20" y1="0" x2="30" y2="0" stroke="#00FFFF" stroke-width="2"/>
    <line x1="0" y1="-20" x2="0" y2="-30" stroke="#00FFFF" stroke-width="2"/>
    <line x1="0" y1="20" x2="0" y2="30" stroke="#00FFFF" stroke-width="2"/>
  </g>

  <!-- Medium chip - bottom center -->
  <g opacity="0.48" transform="translate(950, 960) scale(0.5)">
    <rect x="-18" y="-18" width="36" height="36" rx="3" fill="none" stroke="#FF00FF" stroke-width="2"/>
    <rect x="-9" y="-9" width="18" height="18" fill="none" stroke="#FF00FF" stroke-width="1.5"/>
    <line x1="-18" y1="0" x2="-26" y2="0" stroke="#FF00FF" stroke-width="1.5"/>
    <line x1="18" y1="0" x2="26" y2="0" stroke="#FF00FF" stroke-width="1.5"/>
  </g>

  <!-- Small chips scattered -->
  <g opacity="0.42" transform="translate(800, 180) scale(0.35)">
    <rect x="-16" y="-16" width="32" height="32" rx="2" fill="none" stroke="#00FFFF" stroke-width="2"/>
    <rect x="-8" y="-8" width="16" height="16" fill="none" stroke="#00FFFF" stroke-width="1"/>
    <line x1="-16" y1="0" x2="-22" y2="0" stroke="#00FFFF" stroke-width="1"/>
    <line x1="16" y1="0" x2="22" y2="0" stroke="#00FFFF" stroke-width="1"/>
  </g>

  <g opacity="0.42" transform="translate(1250, 780) scale(0.35)">
    <rect x="-16" y="-16" width="32" height="32" rx="2" fill="none" stroke="#FF00FF" stroke-width="2"/>
    <rect x="-8" y="-8" width="16" height="16" fill="none" stroke="#FF00FF" stroke-width="1"/>
    <line x1="0" y1="-16" x2="0" y2="-22" stroke="#FF00FF" stroke-width="1"/>
    <line x1="0" y1="16" x2="0" y2="22" stroke="#FF00FF" stroke-width="1"/>
  </g>

  <!-- ROBOT TYPE 5: Gear/Cog bots -->

  <!-- Large gear - center right -->
  <g opacity="0.5" transform="translate(1750, 680) scale(0.7)">
    <circle cx="0" cy="0" r="26" fill="none" stroke="#00FFFF" stroke-width="2.5"/>
    <circle cx="0" cy="0" r="12" fill="none" stroke="#00FFFF" stroke-width="2"/>
    <rect x="-5" y="-34" width="10" height="10" fill="#00FFFF" opacity="0.6"/>
    <rect x="-5" y="24" width="10" height="10" fill="#00FFFF" opacity="0.6"/>
    <rect x="-34" y="-5" width="10" height="10" fill="#00FFFF" opacity="0.6"/>
    <rect x="24" y="-5" width="10" height="10" fill="#00FFFF" opacity="0.6"/>
  </g>

  <!-- Medium gear - bottom left area -->
  <g opacity="0.45" transform="translate(480, 860) scale(0.5)">
    <circle cx="0" cy="0" r="22" fill="none" stroke="#FF00FF" stroke-width="2"/>
    <circle cx="0" cy="0" r="10" fill="none" stroke="#FF00FF" stroke-width="1.5"/>
    <rect x="-4" y="-28" width="8" height="8" fill="#FF00FF" opacity="0.5"/>
    <rect x="-4" y="20" width="8" height="8" fill="#FF00FF" opacity="0.5"/>
    <rect x="-28" y="-4" width="8" height="8" fill="#FF00FF" opacity="0.5"/>
    <rect x="20" y="-4" width="8" height="8" fill="#FF00FF" opacity="0.5"/>
  </g>

  <!-- Small gear -->
  <g opacity="0.42" transform="translate(1100, 350) scale(0.4)">
    <circle cx="0" cy="0" r="20" fill="none" stroke="#00FFFF" stroke-width="2"/>
    <circle cx="0" cy="0" r="9" fill="none" stroke="#00FFFF" stroke-width="1.5"/>
    <rect x="-3.5" y="-25" width="7" height="7" fill="#00FFFF" opacity="0.5"/>
    <rect x="-3.5" y="18" width="7" height="7" fill="#00FFFF" opacity="0.5"/>
  </g>

  <!-- EXTRA: More bots for density -->

  <g opacity="0.4" transform="translate(350, 550) scale(0.3)">
    <circle cx="0" cy="0" r="20" fill="none" stroke="#FF00FF" stroke-width="2"/>
    <circle cx="-5" cy="-4" r="2.5" fill="#FF00FF"/>
    <circle cx="5" cy="-4" r="2.5" fill="#FF00FF"/>
    <line x1="0" y1="-20" x2="0" y2="-28" stroke="#FF00FF" stroke-width="1"/>
  </g>

  <g opacity="0.4" transform="translate(1420, 620) scale(0.3)">
    <rect x="-16" y="-14" width="32" height="28" rx="2" fill="none" stroke="#00FFFF" stroke-width="2"/>
    <circle cx="-5" cy="-2" r="2.5" fill="#00FFFF"/>
    <circle cx="5" cy="-2" r="2.5" fill="#00FFFF"/>
    <line x1="0" y1="-14" x2="0" y2="-20" stroke="#00FFFF" stroke-width="1"/>
  </g>

  <g opacity="0.4" transform="translate(900, 880) scale(0.3)">
    <circle cx="0" cy="0" r="20" fill="none" stroke="#00FFFF" stroke-width="2"/>
    <circle cx="-5" cy="-4" r="2.5" fill="#00FFFF"/>
    <circle cx="5" cy="-4" r="2.5" fill="#00FFFF"/>
    <path d="M -6,5 Q 0,10 6,5" fill="none" stroke="#00FFFF" stroke-width="1" stroke-linecap="round"/>
  </g>

  <g opacity="0.4" transform="translate(1150, 160) scale(0.3)">
    <rect x="-16" y="-14" width="32" height="28" rx="2" fill="none" stroke="#FF00FF" stroke-width="2"/>
    <circle cx="-5" cy="-2" r="2.5" fill="#FF00FF"/>
    <circle cx="5" cy="-2" r="2.5" fill="#FF00FF"/>
  </g>

  <!-- Code text elements -->
  <g opacity="0.35">
    <text x="100" y="320" font-family="'Courier New', monospace" font-size="16" fill="#FF00FF" filter="url(#softGlow)">&lt;/&gt;</text>
    <text x="1820" y="400" font-family="'Courier New', monospace" font-size="16" fill="#00FFFF" filter="url(#softGlow)">{ }</text>
    <text x="60" y="750" font-family="'Courier New', monospace" font-size="14" fill="#00FFFF">AI</text>
    <text x="1870" y="800" font-family="'Courier New', monospace" font-size="14" fill="#FF00FF">( )</text>
    <text x="380" y="990" font-family="'Courier New', monospace" font-size="14" fill="#FF00FF">=&gt;</text>
    <text x="1580" y="970" font-family="'Courier New', monospace" font-size="14" fill="#00FFFF">[]</text>
  </g>

  <!-- Floating particles -->
  <g opacity="0.38">
    <circle cx="480" cy="200" r="2.5" fill="#FF00FF" filter="url(#softGlow)"/>
    <circle cx="720" cy="140" r="2" fill="#00FFFF"/>
    <circle cx="1300" cy="180" r="2.5" fill="#FF00FF" filter="url(#softGlow)"/>
    <circle cx="1580" cy="220" r="2" fill="#00FFFF"/>
    <circle cx="160" cy="480" r="2.5" fill="#00FFFF"/>
    <circle cx="1800" cy="620" r="2.5" fill="#FF00FF"/>
    <circle cx="110" cy="880" r="2" fill="#FF00FF"/>
    <circle cx="750" cy="940" r="2.5" fill="#00FFFF"/>
    <circle cx="1200" cy="900" r="2" fill="#FF00FF"/>
    <circle cx="1880" cy="920" r="2.5" fill="#00FFFF"/>
    <circle cx="580" cy="420" r="2" fill="#FF00FF"/>
    <circle cx="1380" cy="480" r="2" fill="#00FFFF"/>
  </g>

  <!-- Subtle connection lines -->
  <g opacity="0.15">
    <line x1="120" y1="200" x2="380" y2="320" stroke="#FF00FF" stroke-width="1" stroke-dasharray="4,4"/>
    <line x1="1780" y1="180" x2="1620" y2="300" stroke="#00FFFF" stroke-width="1" stroke-dasharray="4,4"/>
    <line x1="300" y1="920" x2="480" y2="860" stroke="#00FFFF" stroke-width="1" stroke-dasharray="4,4"/>
    <line x1="1720" y1="880" x2="1250" y2="780" stroke="#FF00FF" stroke-width="1" stroke-dasharray="4,4"/>
    <line x1="80" y1="600" x2="180" y2="420" stroke="#FF00FF" stroke-width="1" stroke-dasharray="4,4"/>
    <line x1="1750" y1="680" x2="1850" y2="520" stroke="#00FFFF" stroke-width="1" stroke-dasharray="4,4"/>
  </g>

  <style>
    @media (max-width: 768px) {
      g { opacity: 0.25 !important; }
    }
  </style>
</svg>
