<svg version="1.1" xmlns="http://www.w3.org/2000/svg" style="display: block;" viewBox="0 0 2048 2048" width="1024" height="1024" preserveAspectRatio="none">
<defs>
	<linearGradient id="Gradient1" gradientUnits="userSpaceOnUse" x1="1261.83" y1="1681.08" x2="1245.89" y2="1706.09">
		<stop class="stop0" offset="0" stop-opacity="1" stop-color="rgb(250,254,255)"/>
		<stop class="stop1" offset="1" stop-opacity="1" stop-color="rgb(223,255,255)"/>
	</linearGradient>
	<linearGradient id="Gradient2" gradientUnits="userSpaceOnUse" x1="1033.31" y1="1920.37" x2="1012.31" y2="1536.86">
		<stop class="stop0" offset="0" stop-opacity="1" stop-color="rgb(14,136,141)"/>
		<stop class="stop1" offset="1" stop-opacity="1" stop-color="rgb(44,213,194)"/>
	</linearGradient>
</defs>
<path transform="translate(0,0)" fill="rgb(239,120,40)" d="M 792.295 237.849 C 798.252 207.314 807.516 187.645 835.56 169.879 C 915.227 121.041 1021.53 116.032 1111.34 132.251 C 1154.72 140.085 1215.56 162.508 1241.11 198.943 C 1250.55 212.415 1261.21 264.664 1265.89 282.893 L 1302.68 425.016 C 1313.92 469.165 1330.06 520.518 1339.55 563.724 L 1356.36 627.537 C 1367.63 669.539 1383.61 704.272 1358.69 744.753 C 1323.33 802.203 1247.81 833.539 1185.26 849.756 C 1153.09 858.057 1120.25 863.446 1087.12 865.855 C 1064.65 867.73 1046.42 868.118 1023.82 868.085 C 1001.44 868.122 982.396 866.902 960.08 865.105 C 929.626 861.407 899.454 856.927 869.717 849.266 C 806.038 832.861 723.88 799.853 689.527 740.723 C 681.75 727.337 676.903 712.334 676.601 696.783 C 676.128 672.46 699.731 593.191 706.99 565.973 C 736.342 457.264 762.593 346.508 792.295 237.849 z"/>
<path transform="translate(0,0)" fill="rgb(245,169,78)" d="M 792.295 237.849 C 794.52 239.534 802.24 258.096 805.737 263.064 C 810.745 270.179 824.944 287.049 833.624 288.603 C 874.141 322.687 940.565 336.735 992.642 340.005 C 1008.38 340.994 1022.27 340.534 1037.4 341.165 C 1031.96 341.737 1029.5 341.863 1024.04 341.654 C 1023.22 381.747 1023.93 438.169 1023.39 476.825 C 1023.03 502.509 1024.53 698.322 1022.67 700.73 L 1023.63 700.773 L 1023.46 823.637 C 1023.41 834.957 1024.51 858.671 1023.82 868.085 C 1001.44 868.122 982.396 866.902 960.08 865.105 C 929.626 861.407 899.454 856.927 869.717 849.266 C 806.038 832.861 723.88 799.853 689.527 740.723 C 681.75 727.337 676.903 712.334 676.601 696.783 C 676.128 672.46 699.731 593.191 706.99 565.973 C 736.342 457.264 762.593 346.508 792.295 237.849 z"/>
<path transform="translate(0,0)" fill="rgb(239,120,40)" d="M 706.99 565.973 C 716.021 578.477 719.916 591.751 731.602 603.768 C 801.17 675.308 926.258 701.901 1022.67 700.73 L 1023.63 700.773 L 1023.46 823.637 C 1023.41 834.957 1024.51 858.671 1023.82 868.085 C 1001.44 868.122 982.396 866.902 960.08 865.105 C 929.626 861.407 899.454 856.927 869.717 849.266 C 806.038 832.861 723.88 799.853 689.527 740.723 C 681.75 727.337 676.903 712.334 676.601 696.783 C 676.128 672.46 699.731 593.191 706.99 565.973 z"/>
<path transform="translate(0,0)" fill="rgb(243,251,249)" d="M 805.985 727.144 C 813.183 726.511 821.913 727.422 824.455 734.87 C 833.148 760.338 815.901 783.671 789.288 774.14 L 789.012 770.365 C 792.096 765.608 803.728 771.883 812.928 766.848 C 815.326 763.212 814.651 765.152 815.002 760.787 C 812.748 759.22 813.238 759.525 810.238 759.534 C 789.504 759.594 791.665 736.003 805.985 727.144 z"/>
<path transform="translate(0,0)" fill="rgb(239,120,40)" d="M 809.327 732.761 C 823.266 733.291 823.852 747.997 814.862 755.656 C 798.672 753.534 798.775 742.213 809.327 732.761 z"/>
<path transform="translate(0,0)" fill="rgb(243,251,249)" d="M 715.568 664.403 C 718.904 666.005 717.816 664.812 719.407 667.6 C 718.852 671.313 715.143 675.397 712.744 678.588 L 720.342 685.259 C 722.728 681.468 725.505 674.717 730.201 675.434 C 733.792 681.533 726.402 681.751 725.203 688.3 C 727.91 691.939 729.557 692.756 727.877 697.029 L 726.384 697.605 C 724.506 695.882 723.922 695.02 721.525 694.216 C 718.902 695.593 716.192 699.834 714.281 702.366 C 718.209 705.187 719.923 705.648 719.932 710.64 L 718.007 711.879 C 713.559 711.254 714.47 710.984 710.354 707.813 C 708.351 712.036 706.346 715.417 704.013 719.436 C 703.111 719.224 701.619 718.589 700.698 718.237 L 700.015 716.102 C 701.302 711.968 704.831 708.566 707.748 705.155 C 705.595 702.801 702.273 700.072 699.784 697.904 C 697.515 702.149 695.166 708.284 689.784 707.531 L 689.222 705.386 C 690.077 701.285 693.356 698.518 696.299 695.252 C 693.879 692.633 690.826 689.866 690.883 686.464 C 696.222 686.569 704.993 686.915 704.721 678.988 C 702.145 677.132 701.53 676.952 699.727 674.3 L 700.431 672.413 C 706.152 669.126 700.556 673.236 708.012 673.541 C 711.712 671.669 713.271 668.084 715.568 664.403 z"/>
<path transform="translate(0,0)" fill="rgb(239,120,40)" d="M 709.156 683.609 C 711.484 684.701 714.585 687.804 716.674 689.665 C 714.667 692.782 712.314 695.973 710.162 699.018 C 707.607 697.628 704.702 694.872 702.417 692.884 C 704.427 689.887 706.994 686.562 709.156 683.609 z"/>
<path transform="translate(0,0)" fill="rgb(243,251,249)" d="M 837.785 740.163 C 850.295 739.739 865.322 745.267 862.042 761.39 C 859.758 772.618 844.619 778.911 834.911 783.941 C 841.182 786.7 855.84 788.303 854.618 795.803 L 853.014 796.727 L 848.528 795.512 C 842.479 793.106 827.039 789.447 824.631 785.676 C 827.475 775.15 864.281 769.272 853.38 750.955 C 849.169 743.879 840.478 749.007 836.159 745.964 C 835.945 742.192 835.735 744.099 837.785 740.163 z"/>
<path transform="translate(0,0)" fill="rgb(243,251,249)" d="M 873.069 752.149 C 882.007 751.713 891.006 751.753 896.811 759.643 C 908.387 775.378 882.39 790.211 872.721 796.819 C 879.152 798.335 890.579 798.839 894.076 803.447 L 893.589 805.521 C 889.437 808.082 891.643 807.635 886.704 806.73 C 880.373 804.405 864.285 802.585 862.011 796.361 C 864.998 790.211 887.44 783.686 890.482 773.655 C 895.964 755.576 883.124 759.989 873.52 757.911 C 871.689 755.037 872.32 756.7 873.069 752.149 z"/>
<path transform="translate(0,0)" fill="rgb(243,251,249)" d="M 769.998 706.874 C 777.426 707.836 789.175 711.899 791.155 719.342 C 796.048 737.737 773.647 746.558 761.918 750.405 C 767.228 753.179 776.223 757.186 780.043 761.213 C 780.08 764.304 780.525 762.847 778.017 765.492 L 775.562 764.96 C 767.151 759.991 757.446 755.22 748.704 750.695 C 761.144 742.48 777.227 741.714 784.984 728.268 C 789.799 719.922 775.466 714.641 769.952 712.938 L 768.171 712.402 C 767.687 709.516 768.095 710.106 769.998 706.874 z"/>
<path transform="translate(0,0)" fill="rgb(243,251,249)" d="M 741.177 683.869 C 745.963 687.615 762.201 697.468 764.329 701.192 L 763.449 703.354 L 761.497 704.143 C 756.146 703.099 748.932 697.215 744.079 693.836 C 741.361 699.064 739.704 703.938 737.7 709.438 C 741.106 711.504 744.5 713.591 747.88 715.699 C 751.908 718.258 753.595 719.079 754.522 723.305 C 752.686 725.487 753.833 724.605 750.421 725.211 C 744.369 720.476 741.594 718.45 734.961 714.653 C 732.85 719.401 728.278 733.205 724.869 735.187 C 721.307 734.191 722.668 735.169 720.556 732.278 C 722.471 723.332 736.593 693.87 741.177 683.869 z"/>
<path transform="translate(0,0)" fill="rgb(243,251,249)" d="M 909.447 759.404 C 920.389 762.378 931.594 764.121 942.766 766.084 C 938.14 776.336 919.415 800.835 911.69 811.427 C 908.615 811.584 908.673 811.819 906.044 810.346 C 906.218 805.939 929.09 777.21 933.6 771.267 C 924.587 768.674 918.989 769.831 910.77 766.122 C 908.543 763.189 909.254 764.1 909.447 759.404 z"/>
<path transform="translate(0,0)" fill="rgb(232,57,34)" d="M 1339.55 563.724 L 1356.36 627.537 C 1367.63 669.539 1383.61 704.272 1358.69 744.753 C 1323.33 802.203 1247.81 833.539 1185.26 849.756 C 1153.09 858.057 1120.25 863.446 1087.12 865.855 C 1064.65 867.73 1046.42 868.118 1023.82 868.085 C 1024.51 858.671 1023.41 834.957 1023.46 823.637 L 1023.63 700.773 C 1126.15 699.719 1296.89 672.526 1339.55 563.724 z"/>
<path transform="translate(0,0)" fill="rgb(254,237,207)" d="M 833.624 288.603 C 825.499 274.935 819.845 263.186 823.631 246.427 C 828.473 224.992 849.661 207.701 868.212 197.329 C 943.321 156.754 1041.03 154.176 1122.6 174.496 C 1155.33 182.65 1200.24 202.37 1217.44 232.952 C 1235.69 265.385 1216.35 292.296 1187.12 307.198 C 1140.47 330.983 1089.17 339.345 1037.4 341.165 C 1022.27 340.534 1008.38 340.994 992.642 340.005 C 940.565 336.735 874.141 322.687 833.624 288.603 z"/>
<path transform="translate(0,0)" fill="rgb(245,169,78)" d="M 1017.37 224.402 C 1047.03 223.171 1105.81 231.9 1112.48 269.956 C 1113.8 277.51 1110 287.955 1104.86 293.647 C 1086.91 313.515 1058.14 319.695 1032.62 321.93 C 1003.63 322.526 971.123 318.678 949.148 300.114 C 912.404 269.072 949.503 237.233 982.449 229.9 C 996.304 226.816 1003.55 225.269 1017.37 224.402 z"/>
<path transform="translate(0,0)" fill="url(#Gradient2)" d="M 1087.25 1537.71 C 1136.78 1541.24 1217.88 1569.17 1257.09 1599.6 C 1278.88 1616.51 1301.29 1642.48 1304.28 1670.94 C 1305.98 1687.02 1305.69 1706.22 1305.42 1722.57 C 1304.73 1764.95 1312.51 1795.48 1283.8 1830.85 C 1239.49 1885.44 1157.58 1910.18 1089.5 1918.38 C 992.536 1930.06 870.955 1917.05 790.783 1856.62 C 769.43 1840.38 743.756 1809.37 741.584 1781.79 C 739.75 1758.49 741.809 1735.52 740.962 1712.99 C 739.711 1679.74 741.95 1650.21 764.453 1624.04 C 808.644 1572.63 894.218 1544.43 960.721 1537.81 C 959.963 1585.21 959.968 1634.02 961.374 1681.32 C 962.063 1704.47 1005.86 1714.21 1023.98 1715.04 C 1050.38 1713.85 1071.71 1707.82 1086.85 1684.76 C 1087.94 1671.49 1087.23 1649.66 1087.21 1635.67 C 1087.04 1603.02 1087.05 1570.36 1087.25 1537.71 z"/>
<path transform="translate(0,0)" fill="rgb(243,251,249)" d="M 1114.18 1745.04 C 1145.7 1743.18 1156.63 1782.52 1121.4 1796.46 L 1110.14 1799.96 C 1106.25 1783.88 1100.25 1767.82 1094.73 1752.21 C 1102.2 1748.97 1106.41 1747.33 1114.18 1745.04 z"/>
<path transform="translate(0,0)" fill="rgb(38,188,178)" d="M 1112.5 1751.13 C 1121.07 1750.76 1125.87 1751.84 1131.26 1759.21 C 1134.8 1764.04 1136.2 1770.1 1135.13 1775.99 C 1133.94 1782.45 1130.76 1784.92 1125.7 1788.44 C 1121.67 1790.17 1121 1790.58 1116.75 1791.21 C 1113.92 1788.06 1104.41 1759.77 1104.21 1755.33 C 1106.41 1752.91 1109.34 1752.28 1112.5 1751.13 z"/>
<path transform="translate(0,0)" fill="rgb(243,251,249)" d="M 1087.36 1777.65 C 1095.42 1778.49 1098.91 1781.95 1100.69 1789.93 C 1103.84 1804.06 1076.18 1814.85 1067.7 1807.06 C 1067.64 1803.28 1067.08 1802.15 1065.94 1798.63 C 1059.68 1796.25 1055.62 1791.55 1054.14 1785.01 C 1054.93 1782.25 1055.33 1781.61 1057.89 1779.56 C 1067.22 1772.12 1057.26 1765.73 1058.53 1760.04 C 1061.3 1757.55 1066.31 1755.31 1069.72 1757.3 C 1085.93 1755.85 1097.47 1759.07 1087.36 1777.65 z"/>
<path transform="translate(0,0)" fill="rgb(38,188,178)" d="M 1087.36 1777.65 C 1095.42 1778.49 1098.91 1781.95 1100.69 1789.93 C 1103.84 1804.06 1076.18 1814.85 1067.7 1807.06 C 1067.64 1803.28 1067.08 1802.15 1065.94 1798.63 C 1059.68 1796.25 1055.62 1791.55 1054.14 1785.01 C 1054.93 1782.25 1055.33 1781.61 1057.89 1779.56 C 1067.22 1772.12 1057.26 1765.73 1058.53 1760.04 C 1061.3 1757.55 1066.31 1755.31 1069.72 1757.3 C 1065.95 1758.79 1064.37 1759.25 1060.42 1760.22 C 1063.52 1776.45 1066.87 1792.63 1070.47 1808.75 C 1079.86 1807.12 1090.9 1805.62 1096.9 1797.44 C 1103.53 1788.4 1093.92 1781.48 1087.36 1777.65 z"/>
<path transform="translate(0,0)" fill="rgb(38,188,178)" d="M 1077.72 1783.11 C 1090.79 1782.73 1097.33 1792.8 1084.52 1800.17 L 1079.79 1801.36 C 1073.27 1799.65 1072.27 1791.17 1073.86 1785.37 C 1074.25 1783.94 1076.19 1783.73 1077.72 1783.11 z"/>
<path transform="translate(0,0)" fill="rgb(38,188,178)" d="M 1073.69 1762.12 C 1085.48 1762.6 1088.46 1771.31 1077.85 1777.86 C 1070.64 1778.35 1067.96 1773.93 1068.65 1766.33 C 1068.9 1763.57 1071.33 1763.1 1073.69 1762.12 z"/>
<path transform="translate(0,0)" fill="rgb(38,188,178)" d="M 1276.4 1748.1 L 1276.47 1748.91 C 1274.56 1752.14 1268.81 1757.73 1265.82 1760.21 C 1175.26 1835.14 1037.63 1844.78 926.287 1824.6 C 877.496 1815.76 807.944 1790.19 775.372 1753.59 C 781.662 1758.85 789.498 1765.49 796.063 1770.16 C 821.338 1792.82 878.821 1812.4 911.983 1820.29 C 941.601 1827.24 971.832 1831.25 1002.24 1832.27 C 1005.23 1832.38 1012.66 1833.12 1014.53 1831.96 L 1013.46 1826.86 C 1015.52 1823.18 1022.85 1817.84 1026.43 1815.63 C 1037.19 1815.38 1038.34 1831.05 1041.2 1831.33 C 1053.56 1832.57 1089.87 1830.4 1100.41 1826.09 C 1110.38 1813.02 1112.45 1818.69 1126.13 1822.91 C 1142.58 1818.81 1167.71 1812.56 1183.75 1806.06 C 1184.82 1805.62 1185.39 1800.55 1185.81 1798.59 C 1192.42 1790.98 1200.7 1797.71 1205.77 1796.5 C 1212.65 1794.86 1247.68 1774.69 1250.09 1770.07 L 1249.82 1769.2 C 1248.53 1764.85 1247.66 1763.1 1249.66 1759.4 C 1253.06 1757.17 1252.88 1757.07 1256.82 1756.59 C 1267.38 1760.55 1269.3 1755.56 1276.4 1748.1 z"/>
<path transform="translate(0,0)" fill="rgb(243,251,249)" d="M 1147.55 1764.94 C 1142.44 1752.05 1142.69 1731.95 1158.8 1727.94 C 1161.95 1728.8 1160.74 1727.92 1162.5 1730.77 C 1157.57 1736.46 1147.09 1739.52 1150.67 1750.54 C 1156.83 1751.73 1171.58 1731.14 1181.61 1761.6 C 1183.24 1768.85 1182.18 1769.38 1178.12 1776.08 C 1178.88 1778.71 1180.15 1779.56 1182.11 1781.48 C 1182.51 1784.95 1182.81 1783.32 1180.95 1786.48 C 1175.47 1789.79 1170.15 1788.49 1165.08 1785.11 L 1164.19 1783.25 C 1166.23 1781.89 1167.41 1781.88 1169.83 1781.39 L 1169.64 1780.55 C 1158.94 1778.27 1150.49 1778.24 1147.13 1766.31 L 1147.55 1764.94 z"/>
<path transform="translate(0,0)" fill="rgb(38,188,178)" d="M 1181.61 1761.6 C 1183.24 1768.85 1182.18 1769.38 1178.12 1776.08 C 1178.88 1778.71 1180.15 1779.56 1182.11 1781.48 C 1182.51 1784.95 1182.81 1783.32 1180.95 1786.48 C 1175.47 1789.79 1170.15 1788.49 1165.08 1785.11 L 1164.19 1783.25 C 1166.23 1781.89 1167.41 1781.88 1169.83 1781.39 L 1169.64 1780.55 C 1158.94 1778.27 1150.49 1778.24 1147.13 1766.31 L 1147.55 1764.94 C 1152.68 1768.83 1154.83 1778.01 1166.24 1779.44 C 1176.46 1780.72 1180.15 1769.54 1181.61 1761.6 z"/>
<path transform="translate(0,0)" fill="rgb(38,188,178)" d="M 1160 1751.82 C 1172.97 1752.07 1179.65 1764.34 1169.35 1772.98 C 1156.52 1772.04 1149.73 1762.24 1160 1751.82 z"/>
<path transform="translate(0,0)" fill="url(#Gradient1)" d="M 1242.88 1673.01 C 1259.42 1672.78 1273.74 1685.72 1274.14 1702.72 C 1274.27 1708.68 1269.04 1720.4 1261.75 1719.03 L 1260.81 1716.78 C 1262.15 1712.39 1262.16 1713.45 1266.09 1709.83 C 1267.92 1705.12 1269.4 1695.76 1264.6 1692.67 C 1260.95 1698.07 1256.72 1705.67 1249.5 1704.5 C 1232.91 1701.79 1224.98 1681.77 1242.88 1673.01 z"/>
<path transform="translate(0,0)" fill="rgb(38,188,178)" d="M 1244.49 1678.94 C 1255.41 1680.58 1265.23 1687.68 1253.17 1697.5 C 1241.45 1697.1 1233.28 1686.46 1244.49 1678.94 z"/>
<path transform="translate(0,0)" fill="rgb(243,251,249)" d="M 1217.06 1691.33 C 1222.78 1693.22 1229.3 1704.46 1233.77 1709.13 C 1239.8 1715.43 1239.29 1711.26 1246.48 1712.96 L 1247.15 1714.52 L 1243.47 1718.65 C 1244.51 1723.03 1248.27 1723.02 1251.44 1728.69 L 1250.74 1730.43 C 1246.77 1732.3 1248.67 1732.21 1244.9 1731.39 C 1242.62 1728.49 1239.81 1725.45 1237.34 1722.65 C 1230.65 1727.05 1225.66 1731.21 1218.31 1735.69 C 1216 1726.09 1211.46 1698.82 1217.06 1691.33 z"/>
<path transform="translate(0,0)" fill="rgb(38,188,178)" d="M 1220.26 1702.81 C 1223.4 1705.59 1231.49 1714.6 1232.4 1718.67 L 1230.48 1720.89 C 1228.17 1722.42 1225.12 1723.98 1222.63 1725.34 C 1221.18 1718.49 1220.79 1709.93 1220.26 1702.81 z"/>
<path transform="translate(0,0)" fill="rgb(243,251,249)" d="M 1194.12 1706.65 C 1197.77 1708.28 1196.55 1707.02 1198.32 1710.08 C 1195.73 1715.25 1181.23 1719.27 1180.78 1726.51 C 1180.01 1739.05 1187.66 1750.82 1200.54 1752.19 C 1210.05 1753.2 1214.67 1742.76 1222.27 1744.19 C 1223.55 1746.51 1223.14 1745.21 1222.41 1748.55 C 1200.48 1768.25 1172.56 1757.46 1175.24 1726.12 C 1175.98 1717.44 1186.76 1710.75 1194.12 1706.65 z"/>
<path transform="translate(0,0)" fill="rgb(243,251,249)" d="M 1049.39 1763.3 C 1052.3 1762.7 1052.18 1762.55 1055.03 1763.18 L 1055.7 1764.44 C 1055.25 1772.03 1042.9 1809.76 1038.85 1813.53 C 1035.49 1814.1 1036.62 1814.41 1033.81 1813.38 C 1033.46 1809.68 1036.44 1803.74 1037.96 1799.99 L 1048.82 1769.62 C 1047.23 1769.89 1045.63 1770.15 1044.03 1770.4 C 1038.95 1771.2 1029.73 1773.24 1025.33 1770.05 C 1028.55 1765.28 1043.58 1764.08 1049.39 1763.3 z"/>
<path transform="translate(0,0)" fill="rgb(7,63,31)" d="M 960.08 865.105 C 982.396 866.902 1001.44 868.122 1023.82 868.085 C 1046.42 868.118 1064.65 867.73 1087.12 865.855 L 1087.25 1537.71 C 1087.05 1570.36 1087.04 1603.02 1087.21 1635.67 C 1087.23 1649.66 1087.94 1671.49 1086.85 1684.76 C 1071.71 1707.82 1050.38 1713.85 1023.98 1715.04 C 1005.86 1714.21 962.063 1704.47 961.374 1681.32 C 959.968 1634.02 959.963 1585.21 960.721 1537.81 C 959.212 1486.54 960.728 1427.64 960.684 1375.59 L 960.478 1020.62 L 960.489 922.58 C 960.506 903.971 960.931 883.58 960.08 865.105 z"/>
<path transform="translate(0,0)" fill="rgb(27,127,71)" d="M 960.08 865.105 C 982.396 866.902 1001.44 868.122 1023.82 868.085 C 1022.83 874.531 1023.49 882.409 1023.7 889.027 C 1024.28 907.271 1023.76 925.456 1023.76 943.711 L 1023.89 1136.69 L 1023.6 1496.11 C 1023.42 1566.27 1021.88 1645.45 1023.98 1715.04 C 1005.86 1714.21 962.063 1704.47 961.374 1681.32 C 959.968 1634.02 959.963 1585.21 960.721 1537.81 C 959.212 1486.54 960.728 1427.64 960.684 1375.59 L 960.478 1020.62 L 960.489 922.58 C 960.506 903.971 960.931 883.58 960.08 865.105 z"/>
<path transform="translate(0,0)" fill="rgb(232,57,34)" d="M 1323.27 860.507 C 1318.72 863.068 1307.5 870.189 1302.89 868.353 C 1303.62 861.559 1313.35 829.989 1317.6 824.776 L 1319.89 824.92 C 1326.18 830.131 1323.67 848.031 1328.52 850.877 L 1335.2 849.109 L 1336.85 852.276 C 1334.86 852.893 1330.7 854.702 1328.6 855.548 C 1329.99 860.776 1332.94 868.057 1328.49 872.43 L 1326.52 871.467 C 1323.86 867.967 1323.91 864.92 1323.27 860.507 z"/>
<path transform="translate(0,0)" fill="rgb(232,57,34)" d="M 1335.2 849.109 L 1336.28 848.908 C 1343.54 841.924 1341.36 814.211 1352.49 807.306 C 1356.33 810.269 1359.68 827.688 1361.57 834.045 C 1364.47 833.118 1365.18 832.921 1368.18 832.472 L 1369 833.976 C 1367.13 838.736 1368.04 837.113 1363.29 840.463 C 1365.55 845.608 1367.95 848.345 1364.75 853.578 L 1362.69 853.919 C 1358.43 850.565 1359.07 848.614 1358.24 842.558 C 1352.8 845.425 1342.39 851.665 1336.85 852.276 L 1335.2 849.109 z"/>
<path transform="translate(0,0)" fill="rgb(232,57,34)" d="M 1158.82 875.704 C 1164.93 874.908 1182.52 871.107 1186.64 871.567 L 1187.37 875.09 C 1183.79 879.835 1173.18 880.209 1166.6 881.18 C 1167.02 886.58 1165.9 892.983 1169.54 896.466 L 1173.69 896.294 C 1178.26 895.036 1182.55 893.278 1187.01 894.238 L 1188.72 895.763 C 1186.79 900.83 1180.01 901.017 1175.04 901.271 C 1171.98 901.766 1171.4 901.619 1168.77 903.312 C 1167.38 911.802 1173.03 918.877 1168.01 925.291 L 1165.9 925.521 C 1160.52 921.102 1162.11 917.935 1161.88 911.301 C 1161.46 899.338 1160.29 887.589 1158.82 875.704 z"/>
<path transform="translate(0,0)" fill="rgb(232,57,34)" d="M 1173.69 896.294 C 1178.26 895.036 1182.55 893.278 1187.01 894.238 L 1188.72 895.763 C 1186.79 900.83 1180.01 901.017 1175.04 901.271 C 1173.12 900.244 1173.86 900.922 1172.72 899.353 L 1173.23 898.632 L 1170.99 899.394 L 1170.93 899.076 L 1173.01 898.274 L 1173.69 896.294 z"/>
<path transform="translate(0,0)" fill="rgb(232,57,34)" d="M 1281.87 842.262 C 1286.59 843.098 1289.27 843.56 1291.58 848.204 C 1292.41 854.805 1287.24 858.083 1288.75 863.734 C 1291.31 865.106 1293.11 865.845 1295.75 866.931 C 1308.48 883.494 1278.24 900.686 1271.67 893.197 L 1271.85 890.98 C 1274.73 888.577 1282.14 887.409 1286.14 886.188 C 1288.92 883.995 1290.74 880.336 1291.75 876.998 C 1290.33 869.447 1281.22 869.763 1274.49 868.673 C 1275.8 864.708 1284.31 861.106 1285.28 857.429 C 1289.83 840.269 1269.57 855.196 1263.91 852.747 C 1267.39 846.335 1275.2 843.645 1281.87 842.262 z"/>
<path transform="translate(0,0)" fill="rgb(232,57,34)" d="M 1219.65 863.164 C 1221.23 862.968 1220.32 862.917 1222.33 863.765 L 1223.02 866.096 L 1221.81 867.88 C 1216.24 870.964 1208.82 871.932 1202.49 872.811 C 1202.87 878.827 1203.43 883.038 1204.31 888.96 C 1209.85 887.562 1221.02 883.016 1224.41 887.477 C 1222.71 893.799 1212.28 891.556 1205.26 896.083 L 1205.54 898.229 C 1206.18 902.808 1208.02 912.997 1207.16 916.912 C 1204.62 918.21 1203.76 918.059 1200.91 918.324 C 1199.69 916.211 1195.49 875.544 1194.59 869.11 C 1202.81 867.475 1211.47 865.179 1219.65 863.164 z"/>
<path transform="translate(0,0)" fill="rgb(232,57,34)" d="M 1256.29 851.958 L 1257.2 852.307 L 1257.91 854.461 C 1255.74 867.3 1248 898.84 1241.55 909.59 L 1239.3 908.538 C 1238.9 901.872 1242.05 895.013 1244.18 888.22 C 1246.56 878.811 1248.76 869.355 1250.75 859.857 C 1244.54 861.991 1235.02 865.897 1228.66 864.605 L 1228.53 863.327 C 1234.12 857.419 1248.2 854.075 1256.29 851.958 z"/>
</svg>