<svg version="1.1" xmlns="http://www.w3.org/2000/svg" style="display: block;" viewBox="0 0 2048 2048" width="1024" height="1024" preserveAspectRatio="none">
<defs>
	<linearGradient id="Gradient1" gradientUnits="userSpaceOnUse" x1="1444.44" y1="1554.15" x2="1392.95" y2="1467.41">
		<stop class="stop0" offset="0" stop-opacity="1" stop-color="rgb(175,176,174)"/>
		<stop class="stop1" offset="1" stop-opacity="1" stop-color="rgb(208,207,208)"/>
	</linearGradient>
</defs>
<path transform="translate(0,0)" fill="rgb(206,206,206)" d="M 415.001 575.513 C 390.329 556.477 411.038 550.051 427.853 539.983 C 447.331 528.179 466.947 516.605 486.697 505.262 L 681.134 392.959 L 901.241 265.101 C 931.73 247.675 962.568 230.484 992.998 212.991 C 1025.03 194.576 1044.57 212.161 1072.6 227.71 C 1095.84 240.684 1118.96 253.869 1141.97 267.261 L 1310.93 363.885 C 1357.36 390.028 1403.53 416.618 1449.45 443.651 C 1465.35 452.993 1482.54 461.744 1497.95 471.717 C 1502.69 474.789 1503.14 478.802 1503.83 484.044 C 1503.64 490.022 1503.15 491.971 1508.06 495.969 C 1516.14 502.788 1515.59 505.086 1516.38 516.223 C 1519.76 564.029 1525 613.746 1525.12 661.62 L 1525.21 674.779 L 1525.02 1242.08 L 1525.27 1416.9 C 1525.37 1443.89 1526.38 1471.09 1525.78 1498.05 C 1525.5 1510.53 1513.15 1520.89 1502.97 1526.72 C 1505.86 1528.39 1506.6 1528.81 1507.35 1531.68 C 1502.9 1537.21 1464.44 1557.53 1455.76 1562.57 L 1162.16 1729.3 C 1075.46 1779.2 988.471 1828.63 901.215 1877.57 C 897.164 1879.79 887.445 1885.21 883.055 1885.71 C 870.211 1882.19 816.918 1852.01 801.665 1843.64 L 657.608 1764.98 L 285.379 1561.28 C 204.31 1517.03 123.156 1472.93 42.2046 1428.46 C 36.2776 1425.21 30.92 1422.07 26.6563 1416.7 C 24.7992 1410.13 30.1515 1406.66 35.0233 1403.76 C 102.447 1363.63 171.43 1326.19 239.461 1287.2 L 345.823 1226.17 C 361.589 1217.09 385.655 1201.96 401.223 1194.51 L 409.956 1190.45 C 409.92 1174.31 410.343 1158.55 411.482 1142.46 C 418.922 1037.33 416.086 931.314 415.923 825.753 L 414.951 649.712 L 414.599 602.383 C 414.532 594.89 414.039 582.592 415.001 575.513 z"/>
<path transform="translate(0,0)" fill="rgb(254,254,254)" d="M 888.465 1036.78 C 914.318 1030.44 955.82 1005.01 980.249 990.996 L 1085.78 929.578 L 1315.07 797.366 L 1448.18 720.906 C 1469.52 708.67 1506.66 688.654 1525.21 674.779 L 1525.02 1242.08 L 1525.27 1416.9 C 1525.37 1443.89 1526.38 1471.09 1525.78 1498.05 C 1525.5 1510.53 1513.15 1520.89 1502.97 1526.72 L 1498.01 1528.11 L 1496.2 1529.62 C 1482.9 1536.13 1463.46 1548.05 1450.06 1555.87 C 1417.07 1575.12 1381.42 1593.91 1348.86 1613.37 L 1346.36 1614.96 C 1316.75 1630.01 1282.92 1650.79 1253.48 1667.32 L 1060.58 1776.16 L 963.89 1831.27 C 947.191 1840.89 908.502 1866.12 891.128 1868.45 C 887.245 1858.75 888.851 1810.21 888.867 1796.89 L 888.972 1672.14 L 888.814 1233.78 C 888.667 1169.94 890.374 1099.97 888.465 1036.78 z"/>
<path transform="translate(0,0)" fill="rgb(254,254,254)" d="M 1348.86 1613.37 C 1349.42 1589.93 1348.68 1566.15 1349.02 1542.86 C 1349.18 1531.93 1346.89 1503.21 1355.22 1496.57 C 1363.99 1489.57 1397.44 1468.25 1407.27 1467.61 C 1427.9 1466.28 1429.13 1458.61 1442.79 1445.51 C 1457.06 1436.79 1473.14 1427.59 1488.1 1420.41 C 1498.2 1415.57 1496.72 1450.31 1497.03 1454.93 L 1498.51 1455.7 C 1499.98 1469.75 1497.76 1487.92 1499.17 1502.51 C 1499.34 1508.65 1499.78 1522.32 1498.01 1528.11 L 1496.2 1529.62 C 1482.9 1536.13 1463.46 1548.05 1450.06 1555.87 C 1417.07 1575.12 1381.42 1593.91 1348.86 1613.37 z"/>
<path transform="translate(0,0)" fill="rgb(147,147,146)" d="M 1497.03 1454.93 L 1498.51 1455.7 C 1499.98 1469.75 1497.76 1487.92 1499.17 1502.51 C 1499.34 1508.65 1499.78 1522.32 1498.01 1528.11 L 1496.2 1529.62 C 1495.54 1507.89 1496.89 1477.56 1497.03 1454.93 z"/>
<path transform="translate(0,0)" fill="url(#Gradient1)" d="M 1346.36 1614.96 C 1344.68 1601.26 1344.35 1506.13 1348.82 1497.07 C 1350.89 1492.87 1357.8 1488.3 1361.74 1485.7 C 1386.97 1469.09 1414.86 1455.23 1441.14 1440.26 C 1452.9 1433.56 1474.81 1418.73 1486.46 1415.08 C 1489.79 1414.04 1492.56 1414.16 1495.64 1415.92 C 1500.76 1422.83 1500.37 1433.12 1500.04 1441.43 C 1499.23 1461.67 1500.45 1482.34 1499.17 1502.51 C 1497.76 1487.92 1499.98 1469.75 1498.51 1455.7 L 1497.03 1454.93 C 1496.72 1450.31 1498.2 1415.57 1488.1 1420.41 C 1473.14 1427.59 1457.06 1436.79 1442.79 1445.51 C 1429.13 1458.61 1427.9 1466.28 1407.27 1467.61 C 1397.44 1468.25 1363.99 1489.57 1355.22 1496.57 C 1346.89 1503.21 1349.18 1531.93 1349.02 1542.86 C 1348.68 1566.15 1349.42 1589.93 1348.86 1613.37 L 1346.36 1614.96 z"/>
<path transform="translate(0,0)" fill="rgb(254,254,254)" d="M 986.739 1259.46 L 986.868 1258.13 C 988.806 1239.03 995.591 1213.47 1001.46 1194.78 C 1031.44 1099.35 1083.85 1012.44 1160.72 947.369 C 1225.89 892.205 1329.79 851.326 1395.71 928.933 C 1440.27 981.39 1444.59 1059.86 1436.84 1125.23 C 1420.7 1246.27 1355.57 1369.47 1261.6 1447.88 C 1218.8 1483.59 1159.08 1511.92 1102.88 1505.59 C 997.519 1493.73 973.028 1370.7 983.731 1283 C 984.226 1279.03 984.78 1275.07 985.391 1271.12 L 986.739 1259.46 z"/>
<path transform="translate(0,0)" fill="rgb(206,206,206)" d="M 986.739 1259.46 L 991.57 1260.69 C 995.069 1258.86 996.053 1243.19 997.312 1238.26 C 998.522 1233.51 999.407 1227.96 1000.56 1223.07 C 1014.66 1165.62 1038.28 1110.93 1070.44 1061.28 C 1111.47 996.747 1179.89 923.709 1257.14 906.291 C 1284.7 900.077 1319.55 901.096 1344.04 916.816 C 1332.43 915.438 1321.9 913.607 1310.13 913.593 C 1266.27 913.541 1220.4 937.229 1186.45 964.927 C 1094.25 1040.16 1029.2 1165.96 1013.87 1283.39 C 1006.88 1336.95 1011.43 1403.94 1045.6 1447.95 C 1052.32 1456.6 1061.48 1464.53 1067.05 1471.73 C 1062.63 1470.48 1056.57 1466.84 1052.62 1464.18 C 1006.53 1433.21 988.401 1372.31 988.886 1319.24 C 988.953 1311.92 991.791 1272.62 991.239 1269.79 C 988.879 1268.88 988.608 1269.74 985.391 1271.12 L 986.739 1259.46 z"/>
<path transform="translate(0,0)" fill="rgb(147,147,146)" d="M 986.739 1259.46 L 986.868 1258.13 C 988.806 1239.03 995.591 1213.47 1001.46 1194.78 C 1031.44 1099.35 1083.85 1012.44 1160.72 947.369 C 1225.89 892.205 1329.79 851.326 1395.71 928.933 C 1440.27 981.39 1444.59 1059.86 1436.84 1125.23 C 1420.7 1246.27 1355.57 1369.47 1261.6 1447.88 C 1218.8 1483.59 1159.08 1511.92 1102.88 1505.59 C 997.519 1493.73 973.028 1370.7 983.731 1283 C 984.226 1279.03 984.78 1275.07 985.391 1271.12 C 988.608 1269.74 988.879 1268.88 991.239 1269.79 C 991.791 1272.62 988.953 1311.92 988.886 1319.24 C 988.401 1372.31 1006.53 1433.21 1052.62 1464.18 C 1056.57 1466.84 1062.63 1470.48 1067.05 1471.73 C 1068.72 1472.23 1089.85 1483.74 1095.7 1485.95 C 1128.24 1498.19 1169.67 1492.36 1200.64 1478.62 C 1293.77 1437.31 1365.07 1336.11 1402.08 1244.33 C 1433.03 1167.58 1451.04 1066.55 1417.65 988.49 C 1401.73 951.289 1380.9 931.402 1344.04 916.816 C 1319.55 901.096 1284.7 900.077 1257.14 906.291 C 1179.89 923.709 1111.47 996.747 1070.44 1061.28 C 1038.28 1110.93 1014.66 1165.62 1000.56 1223.07 C 999.407 1227.96 998.522 1233.51 997.312 1238.26 C 996.053 1243.19 995.069 1258.86 991.57 1260.69 L 986.739 1259.46 z"/>
<path transform="translate(0,0)" fill="rgb(81,81,81)" d="M 1269.84 989.297 C 1279.98 988.174 1287.29 987.575 1297.42 988.423 C 1305.57 989.428 1310.39 990.723 1317.92 994.495 C 1333.9 998.583 1349.51 1015.42 1357.76 1029.12 C 1360.62 1033.88 1363.15 1038.83 1365.33 1043.94 C 1348.01 1101.28 1340.38 1163.17 1361.7 1220.73 C 1358.53 1232.31 1351.94 1247.2 1346.71 1258.4 C 1321.17 1313.15 1281.64 1365.73 1229.12 1397.03 C 1201.25 1413.64 1167.64 1422.45 1135.45 1414.43 C 1130.25 1413.14 1126.65 1411.72 1122.59 1408.17 C 1112.42 1405.09 1106.82 1400.21 1099.08 1393.47 C 1093.29 1387.66 1089.05 1381.88 1084.78 1374.95 C 1077.64 1363.64 1071.88 1347.79 1069.15 1334.75 C 1043.43 1211.97 1142.83 1016.94 1269.84 989.297 z"/>
<path transform="translate(0,0)" fill="rgb(100,100,100)" d="M 1269.84 989.297 C 1279.98 988.174 1287.29 987.575 1297.42 988.423 C 1305.57 989.428 1310.39 990.723 1317.92 994.495 C 1333.9 998.583 1349.51 1015.42 1357.76 1029.12 C 1360.62 1033.88 1363.15 1038.83 1365.33 1043.94 C 1348.01 1101.28 1340.38 1163.17 1361.7 1220.73 C 1358.53 1232.31 1351.94 1247.2 1346.71 1258.4 C 1321.17 1313.15 1281.64 1365.73 1229.12 1397.03 C 1201.25 1413.64 1167.64 1422.45 1135.45 1414.43 C 1130.25 1413.14 1126.65 1411.72 1122.59 1408.17 C 1112.42 1405.09 1106.82 1400.21 1099.08 1393.47 C 1093.29 1387.66 1089.05 1381.88 1084.78 1374.95 C 1108.6 1375.13 1129.75 1368.22 1150.29 1356.32 C 1218.74 1316.64 1267.25 1236.92 1287.14 1161.76 C 1299.03 1116.83 1302.51 1064.02 1285.75 1020.11 C 1281.46 1008.87 1275.9 999.585 1269.84 989.297 z"/>
<path transform="translate(0,0)" fill="rgb(206,206,206)" d="M 1317.92 994.495 C 1333.9 998.583 1349.51 1015.42 1357.76 1029.12 C 1360.62 1033.88 1363.15 1038.83 1365.33 1043.94 C 1348.01 1101.28 1340.38 1163.17 1361.7 1220.73 C 1358.53 1232.31 1351.94 1247.2 1346.71 1258.4 C 1321.17 1313.15 1281.64 1365.73 1229.12 1397.03 C 1201.25 1413.64 1167.64 1422.45 1135.45 1414.43 C 1130.25 1413.14 1126.65 1411.72 1122.59 1408.17 C 1209.76 1419.48 1287.12 1326.68 1321.22 1255.66 C 1329.54 1238.33 1336.47 1220.52 1343.01 1202.46 C 1339.12 1190.21 1337.03 1181.51 1334.44 1169.1 C 1330.14 1130.97 1331.56 1111.85 1338.86 1074.11 C 1341.77 1061.77 1344.63 1052.57 1348.65 1040.72 C 1340.03 1020.25 1333.63 1010.13 1317.92 994.495 z"/>
<path transform="translate(0,0)" fill="rgb(81,81,81)" d="M 1334.44 1169.1 C 1337.03 1181.51 1339.12 1190.21 1343.01 1202.46 C 1336.47 1220.52 1329.54 1238.33 1321.22 1255.66 C 1287.12 1326.68 1209.76 1419.48 1122.59 1408.17 C 1112.42 1405.09 1106.82 1400.21 1099.08 1393.47 L 1099.69 1390.99 C 1112.13 1388.31 1132.6 1399.5 1157.66 1392.19 C 1235.35 1370.41 1290.21 1293.22 1318.53 1221.3 C 1321.45 1213.9 1332.76 1171.38 1334.44 1169.1 z"/>
<path transform="translate(0,0)" fill="rgb(81,81,81)" d="M 1297.42 988.423 C 1305.57 989.428 1310.39 990.723 1317.92 994.495 C 1333.63 1010.13 1340.03 1020.25 1348.65 1040.72 C 1344.63 1052.57 1341.77 1061.77 1338.86 1074.11 C 1337.76 1070.93 1335.9 1061.11 1334.95 1057.23 C 1329.9 1036.63 1325.2 1022.5 1310.78 1006.67 C 1304.6 999.896 1298.68 996.565 1293.68 991.34 L 1293.98 989.536 L 1297.42 988.423 z"/>
<path transform="translate(0,0)" fill="rgb(254,254,254)" d="M 415.001 575.513 C 390.329 556.477 411.038 550.051 427.853 539.983 C 447.331 528.179 466.947 516.605 486.697 505.262 L 681.134 392.959 L 901.241 265.101 C 931.73 247.675 962.568 230.484 992.998 212.991 C 1025.03 194.576 1044.57 212.161 1072.6 227.71 C 1095.84 240.684 1118.96 253.869 1141.97 267.261 L 1310.93 363.885 C 1357.36 390.028 1403.53 416.618 1449.45 443.651 C 1465.35 452.993 1482.54 461.744 1497.95 471.717 C 1502.69 474.789 1503.14 478.802 1503.83 484.044 C 1498.03 491.713 1434.4 526.307 1420.99 534.049 L 1192.36 664.838 L 998.249 776.858 C 968.306 794.06 938.384 811.511 908.334 828.502 C 892.085 837.69 877.561 839.847 860.783 830.959 C 843.407 821.754 826.579 811.653 809.478 801.794 L 707.875 743.338 L 487.066 616.621 C 463.451 602.937 438.286 589.556 415.001 575.513 z"/>
<path transform="translate(0,0)" fill="rgb(147,147,146)" d="M 1502.97 1526.72 C 1505.86 1528.39 1506.6 1528.81 1507.35 1531.68 C 1502.9 1537.21 1464.44 1557.53 1455.76 1562.57 L 1162.16 1729.3 C 1075.46 1779.2 988.471 1828.63 901.215 1877.57 C 897.164 1879.79 887.445 1885.21 883.055 1885.71 C 870.211 1882.19 816.918 1852.01 801.665 1843.64 L 657.608 1764.98 L 285.379 1561.28 C 204.31 1517.03 123.156 1472.93 42.2046 1428.46 C 36.2776 1425.21 30.92 1422.07 26.6563 1416.7 C 24.7992 1410.13 30.1515 1406.66 35.0233 1403.76 C 102.447 1363.63 171.43 1326.19 239.461 1287.2 L 345.823 1226.17 C 361.589 1217.09 385.655 1201.96 401.223 1194.51 C 399.929 1275.9 401.076 1360.03 401.102 1441.62 L 401.152 1530.98 C 401.17 1548.41 400.863 1565.64 401.924 1583.1 C 402.708 1596.01 409.133 1596.74 419.099 1602.69 C 425.05 1606.25 431.27 1609.56 437.299 1613.01 L 520.03 1660.08 L 731.476 1779.82 C 780.855 1808 830.361 1836.42 880.049 1864.09 C 883.879 1866.22 886.859 1867.51 891.128 1868.45 C 908.502 1866.12 947.191 1840.89 963.89 1831.27 L 1060.58 1776.16 L 1253.48 1667.32 C 1282.92 1650.79 1316.75 1630.01 1346.36 1614.96 L 1348.86 1613.37 C 1381.42 1593.91 1417.07 1575.12 1450.06 1555.87 C 1463.46 1548.05 1482.9 1536.13 1496.2 1529.62 L 1498.01 1528.11 L 1502.97 1526.72 z"/>
<path transform="translate(0,0)" fill="rgb(254,254,254)" d="M 1508.06 495.969 C 1516.14 502.788 1515.59 505.086 1516.38 516.223 C 1519.76 564.029 1525 613.746 1525.12 661.62 C 1514.55 672.28 1451.92 706.47 1435.89 715.561 L 1305.39 790.529 L 1166.92 870.938 C 1146.86 882.524 1121.92 898.552 1101.69 908.2 C 1102.88 906.353 1104.03 904.48 1105.14 902.583 C 1107.73 898.119 1111.68 888.933 1111.7 884.069 C 1111.8 849.487 1108.17 758.986 1100.4 729.241 C 1107.15 724.489 1121.4 716.828 1128.97 712.472 L 1181.69 681.964 C 1253.89 639.873 1326.48 598.447 1399.44 557.69 C 1428.22 541.479 1456.54 523.93 1485.38 507.752 C 1492.57 503.719 1500.35 498.732 1508.06 495.969 z"/>
<path transform="translate(0,0)" fill="rgb(81,81,81)" d="M 1290.76 655.848 L 1292.46 657.169 C 1295.17 672.258 1298.18 700.323 1299.29 715.77 C 1269.52 733.206 1239.56 750.325 1209.42 767.122 L 1207.81 766.716 C 1205.93 761.872 1202.36 714.035 1201.9 707.088 C 1231.08 691.252 1261.99 672.711 1290.76 655.848 z"/>
<path transform="translate(0,0)" fill="rgb(206,206,206)" d="M 1412.83 690.723 C 1344.57 703.886 1389.32 575.326 1434.03 579.901 C 1442.1 580.727 1459.59 591.132 1456.94 600.667 C 1450.36 601.319 1440.22 603.796 1435.8 609.107 C 1431.64 614.114 1434.93 682.03 1434.81 694.86 C 1427.4 692.494 1420.6 689.692 1412.83 690.723 z"/>
<path transform="translate(0,0)" fill="rgb(254,254,254)" d="M 1414.83 606.114 C 1414.06 624.158 1414 641.982 1413.91 660.028 C 1413.89 666.162 1414.77 684.771 1411.71 688.878 C 1404.12 686.216 1401.2 684.808 1395.55 679.132 C 1387.58 651.841 1397.17 627.272 1414.83 606.114 z"/>
<path transform="translate(0,0)" fill="rgb(147,147,146)" d="M 1412.83 690.723 C 1344.57 703.886 1389.32 575.326 1434.03 579.901 C 1442.1 580.727 1459.59 591.132 1456.94 600.667 C 1444.36 593.872 1438.99 586.343 1423.15 590.211 C 1395.74 596.902 1365.35 663.3 1395.55 679.132 C 1401.2 684.808 1404.12 686.216 1411.71 688.878 L 1412.83 690.723 z"/>
<path transform="translate(0,0)" fill="rgb(81,81,81)" d="M 1248.4 764.689 L 1250.43 764.767 C 1253.61 768.684 1252.72 782.868 1252.75 788.809 C 1244.8 793.57 1236.87 798.371 1228.97 803.214 C 1227.78 803.581 1228.6 803.41 1226.47 803.186 C 1224.27 798.59 1225.04 783.933 1225.11 778.302 C 1232.75 773.697 1240.68 769.191 1248.4 764.689 z"/>
<path transform="translate(0,0)" fill="rgb(81,81,81)" d="M 1288.49 741.919 L 1290.27 742.249 C 1291.34 744.648 1291.59 762.107 1291.88 766.58 C 1285.3 771.123 1273.8 777.335 1266.58 781.529 C 1265.72 781.555 1266.33 781.61 1265.04 780.518 C 1263.89 772.859 1264.07 763.712 1263.99 755.857 L 1288.49 741.919 z"/>
<path transform="translate(0,0)" fill="rgb(81,81,81)" d="M 1209.31 786.734 L 1210.52 786.911 C 1213.29 790.346 1212.54 806.43 1212.58 811.97 L 1188.45 825.857 L 1187.21 825.765 C 1184.29 821.656 1185.07 806.796 1185.06 800.853 C 1193.27 796.402 1201.29 791.515 1209.31 786.734 z"/>
<path transform="translate(0,0)" fill="rgb(81,81,81)" d="M 1170.38 808.725 C 1171.2 809.024 1171.74 809.632 1172.48 810.248 C 1173.55 816.301 1173.29 827.345 1173.32 833.916 C 1165.17 838.688 1156.94 843.332 1148.64 847.844 L 1147.7 847.531 C 1146.15 843.589 1145.84 828.355 1145.58 823.255 C 1152.24 818.63 1163.08 812.88 1170.38 808.725 z"/>
<path transform="translate(0,0)" fill="rgb(81,81,81)" d="M 1155.58 737.889 C 1157.76 739.744 1157.81 746.94 1158.1 750.135 C 1151.28 754.847 1144.59 758.5 1137.4 762.549 C 1135.34 760.042 1135.1 753.312 1134.72 749.851 L 1155.58 737.889 z"/>
<path transform="translate(0,0)" fill="rgb(81,81,81)" d="M 1187.3 719.893 L 1188.66 720.292 C 1190.02 723.94 1189.93 728.538 1190.13 732.513 C 1182.98 736.336 1176.99 739.978 1170.09 744.259 L 1168.95 743.701 C 1167.37 740.479 1167.51 734.911 1167.33 731.104 C 1174.17 727.537 1180.63 723.761 1187.3 719.893 z"/>
<path transform="translate(0,0)" fill="rgb(81,81,81)" d="M 1157.15 758.92 C 1159.53 760.931 1159.66 767.029 1160.12 770.633 C 1154.19 775.01 1146.31 779.353 1139.82 783.106 L 1138.8 782.782 C 1137.22 779.519 1137.04 774.694 1136.63 770.961 C 1143.46 766.708 1150.15 762.893 1157.15 758.92 z"/>
<path transform="translate(0,0)" fill="rgb(81,81,81)" d="M 1159.69 778.816 C 1160.34 782.126 1160.8 789.087 1161.15 792.706 C 1154.14 796.354 1147.32 800.381 1140.48 804.343 C 1138.61 800.906 1138.73 795.336 1138.47 791.225 L 1159.69 778.816 z"/>
<path transform="translate(0,0)" fill="rgb(81,81,81)" d="M 1189.78 739.94 C 1191.48 742.522 1191.37 749.209 1191.57 752.67 C 1185 757.173 1177.42 761.59 1170.57 765.77 L 1168.92 752.691 C 1175.9 748.481 1182.86 744.231 1189.78 739.94 z"/>
<path transform="translate(0,0)" fill="rgb(81,81,81)" d="M 1191.65 760.87 C 1192.83 765.236 1192.63 769.635 1192.73 774.194 L 1172.31 786.189 C 1170.87 781.475 1171.09 778.465 1170.99 773.571 L 1191.65 760.87 z"/>
<path transform="translate(0,0)" fill="rgb(32,31,30)" d="M 1486.29 540.916 L 1487.59 541.871 C 1485.65 546.332 1455.8 562.409 1449.39 566.026 C 1447.96 569.507 1446.57 573.001 1445.21 576.507 L 1443.67 576.104 C 1443.04 573.206 1446.47 566.212 1447.77 562.999 C 1460.19 556.562 1474.06 548.056 1486.29 540.916 z"/>
<path transform="translate(0,0)" fill="rgb(32,31,30)" d="M 1383.58 600.87 L 1385.05 600.923 C 1388.06 602.737 1388.04 602.49 1389.74 605.505 L 1389.1 607.23 L 1387.31 607.666 L 1382.94 604.499 C 1378.48 606.097 1360.48 617.101 1354.34 620.501 C 1351.26 622.347 1349.9 623.745 1346.51 622.517 C 1350.19 618.287 1377.41 604.192 1383.58 600.87 z"/>
<path transform="translate(0,0)" fill="rgb(32,31,30)" d="M 1487.75 563.884 L 1488.84 565.446 C 1487.49 568.926 1463.47 582.219 1458.48 585.404 L 1457.42 583.617 C 1460.65 578.49 1481.42 567.519 1487.75 563.884 z"/>
<path transform="translate(0,0)" fill="rgb(32,31,30)" d="M 1375.32 628.97 C 1377.15 629.754 1376.35 629.092 1377.39 631.295 C 1375.37 634.229 1355.29 644.78 1350.38 647.477 L 1348.85 647.944 L 1347.94 646.757 C 1349.87 642.987 1370.39 631.862 1375.32 628.97 z"/>
<path transform="translate(0,0)" fill="rgb(32,31,30)" d="M 1385.79 694.994 L 1386.64 696.249 C 1384.5 699.225 1355.96 716.181 1351.14 719.162 C 1350.19 718.296 1350.63 718.889 1350.18 717.164 C 1353.26 712.967 1380.05 698.288 1385.79 694.994 z"/>
<path transform="translate(0,0)" fill="rgb(147,147,146)" d="M 1445.75 609.31 L 1449.48 610.206 C 1453.42 614.523 1449.98 623.906 1447.56 628.319 L 1445.41 627.546 C 1441.34 623.162 1443.09 614.099 1445.75 609.31 z"/>
<path transform="translate(0,0)" fill="rgb(32,31,30)" d="M 1374.95 677.119 L 1375.52 677.94 C 1374.36 682.526 1355.79 692.172 1350.47 695.345 L 1349.2 693.552 C 1351.44 689.433 1369.77 679.984 1374.95 677.119 z"/>
<path transform="translate(0,0)" fill="rgb(32,31,30)" d="M 1489.71 587.009 C 1490.05 591.597 1467.4 603.291 1462.75 605.437 L 1462.52 603.892 C 1464.27 599.654 1484.52 589.688 1489.71 587.009 z"/>
<path transform="translate(0,0)" fill="rgb(32,31,30)" d="M 1372.71 654.967 L 1373.69 656.508 C 1371.32 660.756 1354.55 669.11 1349.32 672.015 L 1348.34 670.529 C 1350.55 666.437 1367.64 657.806 1372.71 654.967 z"/>
<path transform="translate(0,0)" fill="rgb(32,31,30)" d="M 1490 610.146 L 1490.68 611.101 C 1489.22 615.294 1474.08 623.313 1469.35 626.161 C 1468.4 624.773 1468.76 625.644 1468.76 623.402 C 1472.61 619.348 1484.62 613.198 1490 610.146 z"/>
<path transform="translate(0,0)" fill="rgb(32,31,30)" d="M 1489.98 634.076 L 1490.57 635.853 C 1487.39 639.261 1473.3 647.459 1468.57 650.379 L 1467.69 649.477 C 1470.04 644.944 1484.67 637.187 1489.98 634.076 z"/>
<path transform="translate(0,0)" fill="rgb(32,31,30)" d="M 1415.2 566.502 L 1417 567.597 C 1418.88 571.567 1417.51 577.285 1416.7 581.464 L 1414.61 580.087 C 1413 575.074 1413.76 571.505 1415.2 566.502 z"/>
<path transform="translate(0,0)" fill="rgb(32,31,30)" d="M 1416.53 692.321 L 1418.46 693.828 C 1419.96 698.864 1419.34 702.296 1417.86 707.287 L 1416.47 705.674 C 1415.49 700.307 1415.98 697.642 1416.53 692.321 z"/>
<path transform="translate(0,0)" fill="rgb(254,254,254)" d="M 1091.75 733.975 C 1097.52 739.696 1103.24 863.704 1103.27 880.6 C 1103.3 905.54 1075.31 924.123 1055.49 935.275 C 1006.44 962.879 958.048 993.21 907.9 1018.75 C 902.877 1021.32 897.716 1022.71 892.237 1023.79 C 891.583 1023.79 890.343 1023.49 889.642 1023.36 C 886.619 1017 889.404 1001.77 889.075 989.902 C 887.972 948.025 881.425 903.424 881.535 861.991 C 881.56 852.558 954.565 813.295 965.096 807.18 C 1007.09 782.389 1049.31 757.986 1091.75 733.975 z"/>
<path transform="translate(0,0)" fill="rgb(206,206,206)" d="M 1071.75 855.869 C 1075.51 859.154 1074.14 896.989 1073.91 904.18 C 1065.14 916.208 1007.1 945.733 990.942 956.239 C 982.35 961.824 929.237 992.556 922.196 993.984 C 918.302 986.731 919.107 953.268 918.961 942.743 C 923.103 939.659 928.556 936.615 933.123 934.053 C 979.294 908.145 1025.05 880.773 1071.75 855.869 z"/>
</svg>