<svg version="1.1" xmlns="http://www.w3.org/2000/svg" style="display: block;" viewBox="0 0 2048 2048" width="1024" height="1024" preserveAspectRatio="none">
<path transform="translate(0,0)" fill="rgb(212,72,70)" d="M 442.553 856.893 C 452.103 852.354 465.656 844.048 475.059 838.633 L 543.631 798.542 L 762.956 670.052 L 1506.82 237.551 C 1532.77 250.843 1576.67 276.691 1601.11 292.36 L 1601.71 1108.89 C 1512.7 1158.73 1422 1212.05 1333.28 1263 L 1220.61 1328.06 C 1196.56 1341.82 1172.42 1355.43 1148.49 1369.4 C 1145.43 1371.18 1143.12 1372.2 1142.37 1375.8 L 1141.28 1373.85 C 1136.14 1375.81 1132.01 1379.24 1127 1382.03 C 1110.35 1391.33 1093.8 1400.82 1077.37 1410.5 L 1031.63 1436.94 C 1027.94 1439.12 1016.77 1445.39 1014.08 1447.7 C 1004.56 1452.84 920.288 1500.22 918.229 1503.21 L 917.011 1502.83 C 891.303 1516.94 866.042 1532.26 840.501 1546.81 L 656.542 1652.33 L 576.639 1698.58 C 565.045 1705.23 546.419 1716.59 534.997 1721.92 C 531.468 1721.64 452.851 1674.16 442.953 1668.43 C 442.093 1642.61 442.73 1612.61 442.697 1586.43 L 442.605 1427.18 L 442.553 856.893 z"/>
<path transform="translate(0,0)" fill="rgb(139,29,30)" d="M 442.553 856.893 C 452.103 852.354 465.656 844.048 475.059 838.633 L 543.631 798.542 L 762.956 670.052 L 1506.82 237.551 C 1532.77 250.843 1576.67 276.691 1601.11 292.36 C 1570.68 308.704 1537.39 328.705 1507.28 346.151 L 1350.9 436.639 L 802.714 755.299 L 615.291 864.638 C 591.974 878.193 556.826 900.793 533.973 912.33 L 533.976 1537.59 L 533.986 1666.93 C 533.986 1675.04 533.411 1716.44 534.997 1721.92 C 531.468 1721.64 452.851 1674.16 442.953 1668.43 C 442.093 1642.61 442.73 1612.61 442.697 1586.43 L 442.605 1427.18 L 442.553 856.893 z"/>
<path transform="translate(0,0)" fill="rgb(55,73,82)" d="M 1545.04 386.95 C 1547.67 389.726 1546.83 458.574 1546.84 467.077 L 1546.93 614.864 L 1547.03 1076.47 L 874.744 1462.8 L 686.573 1571.55 C 654.927 1589.79 622.227 1609.28 590.336 1626.76 L 589.066 1626.95 C 587.147 1623.61 587.915 1602.58 587.911 1596.83 L 587.6 1552.09 L 587.603 1405.61 L 587.879 943.628 C 598.653 936.646 614.048 928.354 625.401 921.767 L 695.03 881.184 L 903.176 760.175 L 1545.04 386.95 z"/>
<path transform="translate(0,0)" fill="rgb(40,175,166)" d="M 1518.14 432.918 L 1518.7 433.227 C 1519.05 433.799 1519.41 434.371 1519.76 434.943 C 1520.12 473.161 1519.99 527.437 1519.99 563.835 L 1519.98 1060.98 C 1477.3 1084.25 1433.1 1110.81 1390.8 1135.19 L 1161.61 1267.2 L 615.285 1582.16 C 614.057 1576.89 614.504 1544.32 614.511 1537.25 L 614.43 1440.45 C 613.927 1280.37 616.059 1118.02 614.009 958.174 C 644.264 942.38 682.93 918.555 712.933 901.014 L 890.04 797.83 L 1518.14 432.918 z"/>
<path transform="translate(0,0)" fill="rgb(254,254,254)" d="M 1066.97 968.144 C 1106.72 966.336 1090.6 1038.47 1078.18 1058.4 C 1065.77 1078.3 1055.41 1083.72 1035.83 1095.06 C 1031.81 1097.79 1024.42 1101.83 1020.01 1104.44 C 1020.55 1071.58 1020.99 1025.25 1019.4 992.732 C 1035.38 984.197 1049.77 972.861 1066.97 968.144 z"/>
<path transform="translate(0,0)" fill="rgb(40,175,166)" d="M 1056.43 990.984 C 1077.95 988.476 1076.86 1014.47 1074.33 1028.97 C 1071.07 1047.64 1064.17 1058.33 1048.68 1069.04 L 1036.41 1075.99 C 1036.85 1052.28 1036.61 1025.74 1036.1 1002.01 C 1043.51 997.575 1048.62 994.521 1056.43 990.984 z"/>
<path transform="translate(0,0)" fill="rgb(254,254,254)" d="M 986.565 1013.01 C 1016.02 1012.8 996.834 1048.47 991.654 1061.05 C 995.563 1062.18 1000.15 1063.13 1002.35 1066.74 C 1006.67 1073.79 1005.41 1087.75 1003.22 1095.54 C 996.591 1119.07 979.384 1127.84 960.209 1138.91 L 940.072 1150.59 C 940.001 1114.55 941.354 1074.98 940.174 1039.61 C 953.108 1032.02 973.753 1018.73 986.565 1013.01 z"/>
<path transform="translate(0,0)" fill="rgb(40,175,166)" d="M 980.67 1077.79 C 983.078 1077.96 986.779 1078.89 987.693 1081.11 C 995.957 1101.2 973.469 1113.7 962.59 1120.13 C 960.002 1121.59 959.852 1121.62 956.989 1122.46 C 955.496 1119.17 955.953 1097.43 955.926 1091.85 C 963.961 1086.68 971.958 1081.73 980.67 1077.79 z"/>
<path transform="translate(0,0)" fill="rgb(40,175,166)" d="M 977.592 1034.88 C 982.037 1034.62 982.449 1035.28 985.97 1037.81 C 992.443 1051.37 972.378 1066.24 962.422 1071.95 C 960.076 1073.39 960.213 1073.42 957.543 1073.95 C 954.66 1070.38 956.165 1054.03 956.124 1047.8 C 963.608 1042.96 969.658 1039.07 977.592 1034.88 z"/>
<path transform="translate(0,0)" fill="rgb(254,254,254)" d="M 1144.29 921.06 C 1153.29 920.522 1165.63 926.649 1164.32 936.374 C 1161.81 940.532 1153.21 944.692 1148.49 947.446 C 1145.22 941.662 1139.72 936.735 1133.51 942.902 C 1122.77 953.562 1120.26 970.027 1119.79 984.561 C 1144.28 942.61 1174.21 955.714 1161.41 1003.98 C 1154.86 1021.28 1136.81 1049.02 1118.06 1042.07 C 1095.31 1033.63 1104.98 973.545 1111.95 957.481 C 1120.18 938.514 1126.83 928.861 1144.29 921.06 z"/>
<path transform="translate(0,0)" fill="rgb(40,175,166)" d="M 1136.15 979.913 C 1160.26 976.809 1148.66 1012.81 1133.75 1023.36 C 1113.5 1028.41 1118.43 991.893 1136.15 979.913 z"/>
<path transform="translate(0,0)" fill="rgb(254,254,254)" d="M 1228.76 872.164 C 1245.03 870.812 1248.33 877.785 1253.91 891.39 C 1249.63 894.941 1242.07 899.882 1237.28 903.202 C 1233.7 895.425 1226.38 889.991 1217.79 894.89 C 1196.36 907.109 1187.3 949.078 1196.98 970.697 C 1203.17 984.536 1224.72 972.478 1229.75 961.769 C 1233.47 953.856 1234.85 952.429 1237.11 942.867 C 1240.78 941.034 1249.13 935.84 1252.43 935.591 L 1252.78 937.955 C 1247.65 962.82 1235.75 985.103 1211.9 996.292 C 1196.88 1003.33 1183.89 997.966 1179.05 982.013 C 1172.11 959.133 1177.55 930.091 1187.93 909.123 C 1196.95 890.887 1209.43 878.505 1228.76 872.164 z"/>
<path transform="translate(0,0)" fill="rgb(254,254,254)" d="M 1312.95 824.984 L 1313.55 825.557 C 1315.5 833.205 1313.28 883.421 1313.03 894.645 L 1323.6 888.719 L 1323.82 905.465 L 1313.01 910.648 C 1312.97 918.761 1313.25 926.873 1313.83 934.966 C 1309.35 936.748 1302.43 940.972 1297.98 943.511 C 1298.09 935.831 1298.34 928.153 1298.73 920.482 L 1289.55 925.527 C 1280.21 931.109 1270.96 936.852 1261.22 941.702 C 1261.66 926.996 1263.24 920.219 1268.9 906.558 C 1278.66 882.998 1286.65 858.593 1296.03 834.899 L 1312.95 824.984 z"/>
<path transform="translate(0,0)" fill="rgb(40,175,166)" d="M 1297.64 858.795 C 1299.64 860.858 1298.39 898.416 1298.34 903.877 C 1291.33 908.332 1285.15 911.735 1277.81 915.696 L 1276.97 914.516 C 1282.92 896.692 1290.82 876.261 1297.64 858.795 z"/>
<path transform="translate(0,0)" fill="rgb(254,254,254)" d="M 850.708 1093.82 C 852.027 1094.1 851.35 1093.79 852.583 1095.02 C 852.652 1103.73 851.52 1112.39 850.591 1121.05 C 853.382 1120.13 857.253 1118.18 860.04 1116.88 L 860.051 1131.93 L 849.067 1136.25 C 848.96 1142.82 847.486 1155.53 848.73 1161.08 L 850.297 1161.89 L 853.961 1159.47 L 855.565 1160.09 C 857.399 1164.18 856.788 1168.47 856.691 1173.09 L 846.062 1178.18 C 845.335 1188.43 845.07 1197.55 844.874 1207.79 L 833.759 1213.87 L 836.21 1185.63 C 831.892 1187.39 828.144 1189.68 824.088 1191.98 C 822.981 1201.29 822.483 1212.43 821.82 1221.91 L 810.867 1228.67 C 811.878 1218.46 812.678 1208.23 813.265 1197.98 C 810.044 1199.68 807.036 1201.78 803.997 1203.79 L 803.935 1187.58 L 814.112 1183.3 C 814.685 1174.58 815.388 1165.87 816.221 1157.17 L 806.017 1162.46 L 806.552 1146.52 L 816.968 1142.12 C 818.262 1132.71 818.705 1122.23 819.24 1112.69 C 822.454 1110.65 826.352 1108.59 829.715 1106.7 C 828.897 1115.79 828.443 1125.62 827.843 1134.78 L 839.768 1128.13 C 841.133 1118.85 840.169 1109.9 842.67 1101.13 C 843.876 1096.9 846.879 1095.82 850.708 1093.82 z"/>
<path transform="translate(0,0)" fill="rgb(40,175,166)" d="M 836.3 1144.68 L 837.518 1144.74 C 839.406 1146.96 837.916 1164.31 837.74 1168.6 L 827.357 1174.64 L 826.369 1175.05 L 825.195 1174.04 C 824.775 1167.59 826.014 1157.21 826.619 1150.43 L 836.3 1144.68 z"/>
<path transform="translate(0,0)" fill="rgb(254,254,254)" d="M 924.743 1048.97 L 925.632 1050.1 C 926.111 1054.34 926.256 1059.93 925.095 1064.02 C 914.325 1101.91 901.402 1138.77 894.462 1177.72 C 889.063 1180.42 882.067 1184.72 876.696 1187.81 C 881.482 1171.94 885.915 1153.49 890.593 1137.12 C 897.075 1116.31 902.745 1097.33 909.764 1076.56 C 898.147 1081.93 877.991 1095.29 867.057 1102.25 C 867.456 1096 867.253 1089.64 867.172 1083.37 C 883.76 1074.53 907.535 1059.01 924.743 1048.97 z"/>
<path transform="translate(0,0)" fill="rgb(238,147,40)" d="M 1237.19 1350.93 C 1271.17 1368.75 1306.44 1391.72 1340.17 1410.46 C 1354.14 1418.22 1368.07 1427.43 1382.42 1434.52 C 1383.84 1441.78 1383.47 1457.14 1383.49 1465.03 L 1383.63 1519.88 C 1351.15 1539.2 1315.97 1558.18 1282.99 1577.13 L 1047.41 1712.48 L 931.547 1779.24 C 919.79 1785.94 890.241 1803.77 878.822 1808.79 C 875.375 1809.49 847.027 1791.69 841.975 1788.74 C 805.832 1767.3 769.522 1746.13 733.048 1725.26 C 733.342 1697.27 732.499 1669.07 732.988 1641.12 C 756.184 1628.81 777.893 1615.51 800.57 1602.36 L 865.144 1565.58 C 881.478 1556.12 902.459 1542.69 918.902 1534.66 C 918.373 1523.85 918.256 1514.01 918.229 1503.21 C 920.288 1500.22 1004.56 1452.84 1014.08 1447.7 C 1016.77 1445.39 1027.94 1439.12 1031.63 1436.94 L 1077.37 1410.5 C 1093.8 1400.82 1110.35 1391.33 1127 1382.03 C 1132.01 1379.24 1136.14 1375.81 1141.28 1373.85 L 1142.37 1375.8 C 1142.99 1385.36 1142.72 1395.02 1142.6 1404.6 C 1161.91 1393.72 1181.12 1382.69 1200.25 1371.51 C 1211.15 1365.18 1225.87 1356.25 1237.19 1350.93 z"/>
<path transform="translate(0,0)" fill="rgb(246,182,85)" d="M 1382.42 1434.52 C 1383.84 1441.78 1383.47 1457.14 1383.49 1465.03 L 1383.63 1519.88 C 1351.15 1539.2 1315.97 1558.18 1282.99 1577.13 L 1047.41 1712.48 L 931.547 1779.24 C 919.79 1785.94 890.241 1803.77 878.822 1808.79 C 876.507 1802.08 877.23 1747.51 877.165 1737.03 L 877.998 1725.29 C 889.426 1718.19 903.59 1710.67 915.515 1703.77 L 1003.71 1652.94 L 1267.52 1501.4 C 1302.66 1481.04 1349.02 1456.2 1382.42 1434.52 z"/>
<path transform="translate(0,0)" fill="rgb(246,182,85)" d="M 1014.08 1447.7 C 1016.77 1445.39 1027.94 1439.12 1031.63 1436.94 L 1077.37 1410.5 C 1093.8 1400.82 1110.35 1391.33 1127 1382.03 C 1132.01 1379.24 1136.14 1375.81 1141.28 1373.85 L 1142.37 1375.8 C 1142.99 1385.36 1142.72 1395.02 1142.6 1404.6 C 1141.47 1411.27 1142.02 1432.53 1142.01 1440.56 L 1142.03 1517.7 C 1100.63 1541.13 1054.47 1566.71 1014.01 1591.14 C 982.837 1572.39 949.445 1554.01 918.902 1534.66 C 918.373 1523.85 918.256 1514.01 918.229 1503.21 C 920.288 1500.22 1004.56 1452.84 1014.08 1447.7 z"/>
<path transform="translate(0,0)" fill="rgb(229,101,26)" d="M 918.229 1503.21 C 920.288 1500.22 1004.56 1452.84 1014.08 1447.7 L 1014.01 1591.14 C 982.837 1572.39 949.445 1554.01 918.902 1534.66 C 918.373 1523.85 918.256 1514.01 918.229 1503.21 z"/>
<path transform="translate(0,0)" fill="rgb(229,101,26)" d="M 733.048 1725.26 C 733.342 1697.27 732.499 1669.07 732.988 1641.12 C 746.51 1649.77 763.398 1658.68 777.526 1666.82 C 810.896 1685.85 844.029 1705.3 876.919 1725.15 C 876.969 1728.9 876.903 1733.35 877.165 1737.03 C 877.23 1747.51 876.507 1802.08 878.822 1808.79 C 875.375 1809.49 847.027 1791.69 841.975 1788.74 C 805.832 1767.3 769.522 1746.13 733.048 1725.26 z"/>
</svg>