<svg version="1.1" xmlns="http://www.w3.org/2000/svg" style="display: block;" viewBox="0 0 2048 2048" width="1024" height="1024" preserveAspectRatio="none">
<defs>
	<linearGradient id="Gradient1" gradientUnits="userSpaceOnUse" x1="1099.55" y1="1889.48" x2="1094.45" y2="1882.52">
		<stop class="stop0" offset="0" stop-opacity="0.956863" stop-color="rgb(2,3,3)"/>
		<stop class="stop1" offset="1" stop-opacity="1" stop-color="rgb(6,9,11)"/>
	</linearGradient>
	<linearGradient id="Gradient2" gradientUnits="userSpaceOnUse" x1="1604.42" y1="1607.79" x2="1599.23" y2="1596.46">
		<stop class="stop0" offset="0" stop-opacity="0.964706" stop-color="rgb(9,14,17)"/>
		<stop class="stop1" offset="1" stop-opacity="1" stop-color="rgb(30,31,35)"/>
	</linearGradient>
	<linearGradient id="Gradient3" gradientUnits="userSpaceOnUse" x1="1194.67" y1="1839.64" x2="1186.33" y2="1827.36">
		<stop class="stop0" offset="0" stop-opacity="0.945098" stop-color="rgb(2,5,6)"/>
		<stop class="stop1" offset="1" stop-opacity="1" stop-color="rgb(24,30,34)"/>
	</linearGradient>
	<linearGradient id="Gradient4" gradientUnits="userSpaceOnUse" x1="1547.1" y1="1473.01" x2="1576.5" y2="1437.36">
		<stop class="stop0" offset="0" stop-opacity="1" stop-color="rgb(221,255,255)"/>
		<stop class="stop1" offset="1" stop-opacity="1" stop-color="rgb(254,255,255)"/>
	</linearGradient>
	<linearGradient id="Gradient5" gradientUnits="userSpaceOnUse" x1="535.364" y1="1493.86" x2="571.812" y2="1517.49">
		<stop class="stop0" offset="0" stop-opacity="1" stop-color="rgb(235,255,255)"/>
		<stop class="stop1" offset="1" stop-opacity="1" stop-color="rgb(255,255,255)"/>
	</linearGradient>
	<linearGradient id="Gradient6" gradientUnits="userSpaceOnUse" x1="1708.71" y1="1558.78" x2="342.152" y2="1571.08">
		<stop class="stop0" offset="0" stop-opacity="1" stop-color="rgb(24,137,122)"/>
		<stop class="stop1" offset="1" stop-opacity="1" stop-color="rgb(39,174,161)"/>
	</linearGradient>
	<linearGradient id="Gradient7" gradientUnits="userSpaceOnUse" x1="707.234" y1="1717.86" x2="690.969" y2="1746.55">
		<stop class="stop0" offset="0" stop-opacity="1" stop-color="rgb(0,0,0)"/>
		<stop class="stop1" offset="1" stop-opacity="1" stop-color="rgb(32,40,43)"/>
	</linearGradient>
	<linearGradient id="Gradient8" gradientUnits="userSpaceOnUse" x1="1711.48" y1="1648.8" x2="345.04" y2="1684.34">
		<stop class="stop0" offset="0" stop-opacity="1" stop-color="rgb(17,96,94)"/>
		<stop class="stop1" offset="1" stop-opacity="1" stop-color="rgb(35,133,136)"/>
	</linearGradient>
</defs>
<path transform="translate(0,0)" fill="rgb(24,22,18)" d="M 1361.47 130.532 C 1362.3 130.858 1363.13 131.198 1363.95 131.552 C 1368.27 133.428 1372.79 136.742 1375.08 140.827 C 1382.37 153.821 1389.94 166.82 1397.42 179.679 C 1415.67 210.884 1433.77 242.183 1451.7 273.574 L 1605.43 538.499 L 1687.65 678.87 C 1694.67 691.014 1713.18 720.079 1717.7 731.74 C 1733.3 767.838 1720.41 778.047 1688.15 793.948 C 1682.2 796.886 1668.77 806.524 1663.04 807.591 C 1660.44 809.295 1657.69 811.173 1655.03 812.749 L 1654.62 1118.39 L 1654.49 1208.1 C 1654.47 1220.93 1653.68 1245.78 1655.22 1257.33 C 1724.22 1295.2 1713.24 1286.74 1713.46 1364.44 C 1713.77 1396.23 1713.88 1428.03 1713.81 1459.82 C 1713.81 1468.17 1714.34 1522.44 1713.17 1528.25 C 1708.99 1550.52 1679.6 1562.76 1661.23 1572.54 C 1660.81 1571.66 1660.26 1568.77 1660.01 1567.66 C 1620.43 1589.42 1581.13 1611.69 1542.12 1634.47 C 1539.76 1643.11 1530.13 1641.39 1526.46 1647.11 L 1526.27 1648.59 C 1512.03 1657.99 1490.79 1668.25 1475.63 1677.23 C 1470.19 1680.45 1448.7 1692.89 1444.36 1694.73 L 1440.83 1691.14 C 1429.92 1697.28 1418.67 1703.8 1407.67 1709.69 L 1408.32 1712.47 C 1404.74 1716.45 1402.28 1714.46 1399.67 1718.03 L 1399.94 1719.37 C 1389.57 1726.58 1370.98 1736.32 1359.17 1742.98 C 1328.74 1759.77 1298.43 1776.8 1268.25 1794.05 L 1263.03 1791.21 C 1262.28 1791.65 1258.44 1793.86 1257.99 1794.24 C 1232.97 1806.84 1204.15 1824.38 1179.15 1838.16 C 1164.97 1845.98 1131.16 1863.92 1118.76 1872.38 C 1105.17 1880.07 1082.81 1891.31 1070.89 1899.46 C 1076.4 1901.85 1073.57 1899.38 1080.02 1899.53 C 1065.89 1908.26 1058.63 1912.22 1042.54 1915.99 C 1005.39 1926.75 974.69 1909.48 943.952 1892.08 L 883.27 1857.37 L 688.318 1747.03 L 466.096 1621.19 L 397.018 1582.24 C 382.836 1574.24 365.436 1564.97 352.269 1555.9 C 343.81 1548.75 335.361 1540.24 335.032 1528.35 C 334.509 1509.49 334.799 1490.58 334.613 1471.71 C 334.205 1436.6 334.055 1401.5 334.164 1366.39 C 334.175 1346.85 332.881 1318.46 336.669 1299.95 C 339.039 1288.37 368.11 1274.54 378.522 1268.93 C 377.825 1251.9 378.46 1230.43 378.487 1212.95 L 378.468 1110.42 L 378.049 757.018 C 344.457 769.49 314.814 712.692 322.012 685.147 C 324.825 674.385 352.149 661.334 362.655 655.276 L 420.461 621.916 C 462.205 597.552 509.072 567.875 551.161 545.333 C 550.649 507.865 551.146 469.412 551.14 431.829 L 551.223 284.5 C 570.702 274.01 590.914 261.546 610.087 250.282 L 686.592 206.044 C 702.795 214.052 720.776 225.136 736.635 234.387 L 818.841 282.183 C 819.432 316.823 818.952 352.931 818.934 387.673 L 965.584 301.574 C 991.131 286.454 1018.44 269.447 1044.36 255.378 C 1054.08 250.102 1082.47 239.973 1094.02 235.5 L 1186.69 199.398 L 1290.63 158.01 C 1311.55 149.528 1340.33 136.952 1361.47 130.532 z M 381.186 653.271 L 379.5 651.324 C 374.1 654.109 370.598 656.065 365.467 659.344 C 370.592 657.433 376.226 655.482 381.186 653.271 z"/>
<path transform="translate(0,0)" fill="rgb(238,114,43)" d="M 1034.13 331.424 C 1035 332.161 1035.82 332.939 1036.61 333.755 C 1043.75 341.021 1052.59 358.256 1058.26 367.704 C 1072.85 391.677 1087.19 415.803 1101.27 440.078 L 1250.1 691.709 L 1291.43 760.95 C 1295.65 768.027 1312.38 793.81 1312.35 799.9 L 1313 799.872 L 1313.27 796.685 C 1316.44 799.149 1314.7 798.442 1318.66 798.92 C 1322.9 802.629 1325.06 808.178 1329.62 811.036 L 1331.3 810.542 L 1332.21 808.478 C 1330.28 804.099 1326.68 797.819 1327.54 793.524 C 1329.75 790.337 1328.35 791.324 1331.49 789.97 C 1338.02 792.873 1337.65 808.998 1343.88 809.446 L 1347.97 807.056 C 1352 808.213 1352.09 811.449 1352.73 815.29 C 1345.06 820.862 1350.21 828.043 1353.29 835.436 C 1355.93 833.885 1358.9 831.443 1361.37 831.782 C 1363.28 834.501 1364.22 835.302 1364.43 838.63 C 1363.14 841.545 1362.15 841.944 1359.6 843.818 C 1357.53 850.866 1369.81 862.85 1366.83 866.431 L 1361.57 869.01 L 1360.34 870.701 C 1370.37 888.051 1412.03 939.122 1386.01 961.107 C 1379.97 966.209 1357.26 977.851 1349.53 982.278 L 1275.07 1025.05 L 1048.15 1154.88 C 1050.85 1135.95 1047.86 1122.47 1038.12 1106.03 C 1025.32 1084.42 1011.52 1063.4 998.189 1042.1 L 924.595 923.623 L 755.108 650.401 L 719.23 592.456 C 709.838 577.222 695.722 551.056 683.203 540.071 C 800.601 471.234 917.581 401.683 1034.13 331.424 z"/>
<path transform="translate(0,0)" fill="rgb(252,254,254)" d="M 1332.21 808.478 C 1330.28 804.099 1326.68 797.819 1327.54 793.524 C 1329.75 790.337 1328.35 791.324 1331.49 789.97 C 1338.02 792.873 1337.65 808.998 1343.88 809.446 L 1347.97 807.056 C 1352 808.213 1352.09 811.449 1352.73 815.29 C 1345.06 820.862 1350.21 828.043 1353.29 835.436 C 1355.93 833.885 1358.9 831.443 1361.37 831.782 C 1363.28 834.501 1364.22 835.302 1364.43 838.63 C 1363.14 841.545 1362.15 841.944 1359.6 843.818 C 1357.53 850.866 1369.81 862.85 1366.83 866.431 L 1361.57 869.01 L 1360.34 870.701 C 1354.92 862.577 1352.66 856.184 1343.91 852.954 C 1344.25 861.484 1351.03 866.176 1350.99 873.278 C 1348.77 876.79 1350.24 875.371 1346.05 877.248 C 1343.03 875.22 1339.85 864.523 1335.93 858.911 C 1329.14 857.159 1335.19 860.463 1328.25 860.066 C 1325.35 857.341 1325.48 857.015 1323.98 853.429 C 1325.38 850.821 1328.45 850.262 1331.75 848.841 C 1329.14 843.2 1327.41 837.278 1321.97 834.559 C 1318.53 834.812 1318.59 835.02 1315.42 833.85 C 1312.99 831.401 1310.1 829.281 1311.9 825.816 C 1314.66 824.655 1315.31 824.532 1317.72 822.697 C 1318.74 815.756 1307.01 807.138 1312.35 799.9 L 1313 799.872 L 1313.27 796.685 C 1316.44 799.149 1314.7 798.442 1318.66 798.92 C 1322.9 802.629 1325.06 808.178 1329.62 811.036 L 1331.3 810.542 L 1332.21 808.478 z"/>
<path transform="translate(0,0)" fill="rgb(95,23,12)" d="M 1313 799.872 L 1313.27 796.685 C 1316.44 799.149 1314.7 798.442 1318.66 798.92 C 1322.9 802.629 1325.06 808.178 1329.62 811.036 L 1331.3 810.542 L 1332.21 808.478 C 1332.75 810.076 1333.09 811.447 1333.52 813.073 C 1331.63 816.548 1330.64 816.155 1326.45 818.471 C 1323.9 813.461 1321.09 807.437 1318.22 802.683 C 1316.4 799.655 1316.18 800.332 1313 799.872 z"/>
<path transform="translate(0,0)" fill="rgb(43,21,13)" d="M 1343.91 852.954 C 1348.42 850.565 1347.85 849.853 1351.59 850.717 C 1356.26 854.848 1358.75 862.793 1361.57 869.01 L 1360.34 870.701 C 1354.92 862.577 1352.66 856.184 1343.91 852.954 z"/>
<path transform="translate(0,0)" fill="rgb(95,23,12)" d="M 1337.13 823.603 L 1339.25 824.354 C 1341.59 828.56 1346.27 835.846 1344.81 840.499 C 1344.35 841.964 1341.44 843.398 1339.86 844.443 L 1338.65 843.954 C 1336.08 839.64 1331.06 832.418 1332.27 827.513 C 1332.63 826.031 1335.51 824.67 1337.13 823.603 z"/>
<path transform="translate(0,0)" fill="rgb(226,36,33)" d="M 1039.57 328.659 C 1058.96 315.354 1088.75 298.967 1109.48 286.669 L 1232.26 213.644 L 1326.56 157.161 C 1338.42 150.194 1350.45 141.867 1362.69 135.963 C 1370.08 138.216 1416.97 222.737 1425.79 237.815 L 1562.69 474.257 L 1659.32 640.575 C 1677.15 670.94 1700.62 706.404 1715.57 737.563 C 1719.27 748.668 1721.04 758.486 1716.79 769.891 C 1708.73 778.165 1647.97 810.971 1635.11 818.399 L 1397.51 955.018 C 1406.09 907.536 1365.11 882.161 1366.83 866.431 C 1369.81 862.85 1357.53 850.866 1359.6 843.818 C 1362.15 841.944 1363.14 841.545 1364.43 838.63 C 1364.22 835.302 1363.28 834.501 1361.37 831.782 C 1358.9 831.443 1355.93 833.885 1353.29 835.436 C 1350.21 828.043 1345.06 820.862 1352.73 815.29 C 1352.09 811.449 1352 808.213 1347.97 807.056 L 1343.88 809.446 C 1337.65 808.998 1338.02 792.873 1331.49 789.97 C 1328.35 791.324 1329.75 790.337 1327.54 793.524 C 1326.68 797.819 1330.28 804.099 1332.21 808.478 L 1331.3 810.542 L 1329.62 811.036 C 1325.06 808.178 1322.9 802.629 1318.66 798.92 C 1313.69 787.71 1304.79 773.573 1298.35 762.725 L 1263.7 704.956 C 1244.27 672.63 1097.48 428.098 1096.74 418.748 L 1094.84 415.806 C 1075.04 396.34 1060.63 351.977 1041.13 330.396 C 1040.61 329.817 1040.09 329.238 1039.57 328.659 z"/>
<path transform="translate(0,0)" fill="rgb(252,254,254)" d="M 1095.55 350.071 C 1099.58 347.608 1098.88 347.17 1102.86 347.197 C 1109.25 351.894 1106.47 362.704 1113.22 365.389 C 1117.58 363.593 1116.79 363.068 1120.31 364.113 C 1122.3 367.192 1122.28 366.936 1122.69 370.558 C 1116.14 377.883 1116.97 384.056 1123.69 391.555 C 1125.99 391.154 1126.89 390.895 1129.12 390.192 C 1132.46 392.059 1133.95 394.529 1134.28 398.489 C 1132.64 400.448 1131.14 400.675 1128.69 401.602 C 1126.65 410.518 1142.97 418.633 1132.21 426.647 C 1128.64 425.633 1122.55 411.014 1120.62 406.949 C 1118.07 408.575 1115.54 410.055 1113.19 411.938 C 1114.94 415.768 1121.78 429.24 1121.58 432.526 C 1118.23 435.495 1120 434.955 1116.41 435.46 C 1109.68 431.664 1111.03 417.891 1104.04 415.865 C 1101.62 416.849 1099.2 417.868 1096.74 418.748 L 1094.84 415.806 C 1095.33 408.778 1094.59 411.228 1100.44 405.459 C 1098.35 395.612 1097.6 392.775 1087.54 390.298 L 1085.63 389.838 C 1083.07 387.69 1081.13 386.117 1082.85 382.871 C 1085.57 381.793 1087.96 381.302 1089.47 378.955 C 1088.52 371.681 1079.46 365.071 1081.46 358.452 C 1083.97 356.179 1084.23 356.406 1087.51 355.853 C 1092.07 354.566 1092.21 353.854 1095.55 350.071 z"/>
<path transform="translate(0,0)" fill="rgb(226,36,33)" d="M 1087.51 355.853 C 1092.07 354.566 1092.21 353.854 1095.55 350.071 C 1098.42 356.598 1101.94 364.048 1104.56 370.581 L 1096.96 375.436 C 1093.96 369.18 1090.69 361.929 1087.51 355.853 z"/>
<path transform="translate(0,0)" fill="rgb(226,36,33)" d="M 1107.82 380.829 C 1108.35 380.963 1109.39 381.697 1109.92 382.029 C 1112.85 386.781 1115.55 390.148 1115.77 395.764 C 1114.27 399.399 1114.28 398.411 1109.76 400.809 C 1105.92 398.055 1102.34 390.49 1102.09 385.765 C 1103.46 382.391 1103.75 383.155 1107.82 380.829 z"/>
<path transform="translate(0,0)" fill="rgb(252,254,254)" d="M 1597.64 636.341 C 1624 638.139 1643.43 668.19 1639.69 693.454 C 1637.29 709.682 1621.96 717.208 1609.24 725.133 C 1597.09 708.303 1576.63 671.667 1564.51 652.079 C 1575.68 643.731 1583.58 638.174 1597.64 636.341 z"/>
<path transform="translate(0,0)" fill="rgb(226,36,33)" d="M 1590.17 649.179 C 1601.21 647.934 1610.19 651.032 1617.05 659.884 C 1630.19 676.841 1633.8 694.167 1616.54 708.262 L 1613.74 709.195 C 1609.68 705.833 1584.58 662.715 1579.87 654.883 C 1583.17 652.833 1586.74 651.013 1590.17 649.179 z"/>
<path transform="translate(0,0)" fill="rgb(252,254,254)" d="M 1373.95 768.239 C 1378.52 768.688 1380.99 769.611 1384.87 772.07 C 1396.63 779.522 1390.28 791.849 1391.85 799.439 C 1402.45 800.002 1408.54 802.522 1413.92 812.206 C 1425.36 832.776 1401.89 846.347 1388.65 854.116 C 1384.71 852.862 1349.3 791.738 1344 782.741 C 1354.51 774.927 1360.62 770.306 1373.95 768.239 z"/>
<path transform="translate(0,0)" fill="rgb(226,36,33)" d="M 1387.45 810.036 C 1392.46 809.936 1398.95 811.36 1401.6 815.701 C 1408.43 826.919 1400.18 833.938 1392.83 839.165 C 1391.03 838.405 1378.68 818.861 1376.58 815.67 C 1380.18 813.355 1383.6 811.862 1387.45 810.036 z"/>
<path transform="translate(0,0)" fill="rgb(226,36,33)" d="M 1368.53 780.026 C 1386.03 779.729 1387.91 796.234 1372.87 806.283 C 1370.11 804.901 1361.19 789.812 1358.67 785.967 C 1361.56 783.704 1365.29 781.826 1368.53 780.026 z"/>
<path transform="translate(0,0)" fill="rgb(252,254,254)" d="M 1217.18 277.072 C 1242.73 277.126 1265.75 319.973 1258.76 343.141 C 1255.66 353.394 1249.42 357.963 1240.44 362.521 C 1237.82 358.746 1233.9 355.155 1235.87 350.868 L 1240.42 349.271 C 1246.53 344.704 1250.46 339.413 1249.65 331.043 C 1249.25 326.892 1249.03 319.693 1245.42 317.406 C 1243.87 321.214 1241.29 328.007 1237.44 329.677 C 1216 338.974 1196.31 306.871 1203.98 288.652 C 1206.88 281.746 1210.81 279.777 1217.18 277.072 z"/>
<path transform="translate(0,0)" fill="rgb(226,36,33)" d="M 1217.72 287.683 C 1231.99 289.774 1246.27 307.268 1233.62 320.068 C 1219.21 320.497 1206.48 300.385 1217.72 287.683 z"/>
<path transform="translate(0,0)" fill="rgb(252,254,254)" d="M 1509.19 684.065 C 1510.5 685.27 1514.9 692.092 1516.18 693.991 C 1508.91 698.247 1501.7 702.59 1494.54 707.019 C 1498.2 713.587 1502.38 720.376 1506.23 726.876 C 1512.41 723.869 1520.87 718.587 1526.98 715.012 C 1528.98 718.238 1530.89 721.754 1532.76 725.074 C 1526.3 728.528 1518.95 733.288 1512.61 737.182 L 1525.79 760.121 C 1532.8 755.6 1541.66 750.747 1548.98 746.491 C 1550.87 749.776 1552.75 753.606 1554.53 757.003 C 1543.42 762.906 1532.56 769.271 1521.98 776.081 L 1477.92 702.574 C 1488.4 697.546 1499.47 690.45 1509.19 684.065 z"/>
<path transform="translate(0,0)" fill="rgb(252,254,254)" d="M 1422 735.167 C 1423.75 737.068 1427.22 743.027 1428.76 745.516 C 1421.9 748.939 1413.32 754.263 1406.55 758.199 C 1411.06 765.016 1414.48 770.622 1418.52 777.738 C 1425.22 774.34 1432.57 770.023 1439.2 766.33 L 1445.27 775.605 L 1424.9 787.737 C 1429.95 795.169 1434.45 802.966 1438.36 811.064 C 1446.03 806.149 1452.94 801.658 1461 797.344 L 1467.36 807.114 C 1456.42 813.245 1445.78 819.943 1435.11 826.531 C 1420.52 802.003 1405.23 778.366 1390.71 753.598 C 1402.14 747.25 1411.17 742.6 1422 735.167 z"/>
<path transform="translate(0,0)" fill="rgb(252,254,254)" d="M 1305.68 226.084 C 1339.75 226.791 1332.14 273.016 1329.51 294.711 C 1337.48 290.739 1346.08 285.75 1353.95 281.409 L 1360.59 291.768 C 1351.17 296.488 1341.74 302.157 1332.59 307.454 C 1329.61 309.377 1327.5 311.247 1324.05 311.485 C 1320.82 310.211 1319.68 307.263 1317.77 304.122 C 1319.79 290.136 1328.48 249.309 1311.8 240.403 C 1300.63 234.439 1296.23 245.9 1293.16 254.586 L 1283.86 246.152 C 1284.62 244.47 1285.46 242.819 1286.35 241.201 C 1291.48 232.12 1295.97 228.863 1305.68 226.084 z"/>
<path transform="translate(0,0)" fill="rgb(252,254,254)" d="M 1539 666.089 C 1542.05 665.673 1544.08 665.385 1547.18 665.857 C 1553.49 666.866 1559.14 670.364 1562.86 675.567 C 1574.77 692.106 1569.97 716.171 1567.17 734.91 C 1576.03 730.22 1583.05 725.791 1591.47 720.452 L 1598.32 731.132 C 1590.37 735.571 1582.45 740.061 1574.56 744.603 C 1570.89 747.014 1566.29 750.692 1562.16 751.084 C 1558.28 749.257 1559.02 748.917 1556.19 744.71 C 1558.04 728.221 1562.74 702.72 1556.12 687.608 C 1544.8 661.715 1530.24 690.675 1528.78 691.39 C 1514.83 682.496 1529.63 670.577 1539 666.089 z"/>
<path transform="translate(0,0)" fill="rgb(252,254,254)" d="M 1171.14 303.135 C 1210.49 300.071 1202.89 348.679 1199.48 372.675 C 1207.88 368.342 1214.88 363.689 1222.78 358.576 C 1225.14 361.854 1227.55 365.639 1229.83 369.024 L 1203.84 384.095 L 1193.51 390.705 L 1187.48 381.855 C 1190.36 366.316 1193.2 348.848 1190.97 333.054 C 1189.55 323.025 1183.6 312.492 1171.91 315.71 C 1166.64 317.16 1163.77 324.839 1161.83 329.394 L 1153.91 321.466 C 1158.67 311.236 1161.13 308.183 1171.14 303.135 z"/>
<path transform="translate(0,0)" fill="rgb(252,254,254)" d="M 1260.46 252.108 C 1296.1 252.769 1289.19 297.911 1286.05 321.041 C 1293.67 317.06 1302.94 310.982 1310.4 306.374 L 1316.26 317.286 L 1290.39 331.869 C 1286.43 334.259 1283.07 337.273 1279.12 337.219 C 1269.74 327.285 1287.99 279.098 1269.74 267.592 C 1257.55 259.908 1252.67 270.09 1247.98 279.539 C 1245.31 276.922 1243.14 273.823 1240.87 270.826 C 1245.81 260.481 1249.44 255.694 1260.46 252.108 z"/>
<path transform="translate(0,0)" fill="rgb(252,254,254)" d="M 1142.82 319.948 C 1143.9 320.973 1148.75 328.004 1149.93 329.649 C 1142.98 333.601 1135.55 338.359 1128.67 342.557 C 1132.79 349.756 1136.82 357 1140.77 364.289 C 1147.98 360.322 1155.13 356.269 1162.24 352.131 L 1167.85 361.709 C 1160.92 365.322 1153.64 370.121 1146.95 374.32 C 1150.81 380.498 1154.6 387.079 1158.33 393.364 L 1165.65 406.357 L 1155.91 412.086 L 1112.24 337.867 C 1123.01 331.885 1132.41 326.515 1142.82 319.948 z"/>
<path transform="translate(0,0)" fill="rgb(252,254,254)" d="M 1360.59 191.835 C 1362.68 193.441 1364.58 196.982 1365.2 199.468 C 1371.67 225.386 1375.64 252.005 1382.76 277.801 L 1372.47 283.906 C 1369.89 273.889 1367.41 259.718 1365.28 249.301 C 1363.08 236.243 1359.96 222.039 1357.46 208.867 C 1349.89 212.854 1339.61 219.707 1332.13 224.377 L 1324.94 214.162 C 1337.39 207.106 1348.61 199.671 1360.59 191.835 z"/>
<path transform="translate(0,0)" fill="rgb(252,254,254)" d="M 1454.51 715.562 C 1457.68 717.461 1494.71 779.868 1499.8 787.999 L 1490.57 793.839 L 1485.55 785.203 C 1474.56 767.843 1463.9 750.281 1453.57 732.525 C 1451.89 736.631 1449.57 740.992 1447.56 744.991 C 1445.19 742.72 1442.65 739.989 1440.32 737.613 C 1444.55 730.035 1448.5 721.623 1454.51 715.562 z"/>
<path transform="translate(0,0)" fill="url(#Gradient8)" d="M 339.492 1434.85 C 340.863 1436.69 342.286 1438.48 343.863 1440.15 C 357.24 1454.32 433.155 1494.04 455.074 1506.61 L 782.206 1692.54 L 909.355 1765.24 C 932.455 1778.49 956.073 1792.58 979.649 1804.75 C 999.357 1814.93 1031.14 1815.45 1051.47 1806.91 C 1074.28 1797.33 1095.68 1783.68 1117.26 1771.57 C 1154.56 1750.92 1191.65 1729.9 1228.54 1708.54 L 1476.78 1567.74 L 1637.42 1477.35 C 1659.91 1464.47 1690.87 1450.1 1708.76 1433.3 C 1709.95 1459.99 1708.55 1490.75 1708.85 1517.73 C 1709.02 1533.64 1704.6 1538.68 1693.72 1548.66 C 1683.08 1554.08 1670.62 1561.68 1660.01 1567.66 C 1620.43 1589.42 1581.13 1611.69 1542.12 1634.47 C 1539.76 1643.11 1530.13 1641.39 1526.46 1647.11 L 1526.27 1648.59 C 1512.03 1657.99 1490.79 1668.25 1475.63 1677.23 C 1470.19 1680.45 1448.7 1692.89 1444.36 1694.73 L 1440.83 1691.14 C 1429.92 1697.28 1418.67 1703.8 1407.67 1709.69 L 1408.32 1712.47 C 1404.74 1716.45 1402.28 1714.46 1399.67 1718.03 L 1399.94 1719.37 C 1389.57 1726.58 1370.98 1736.32 1359.17 1742.98 C 1328.74 1759.77 1298.43 1776.8 1268.25 1794.05 L 1263.03 1791.21 C 1262.28 1791.65 1258.44 1793.86 1257.99 1794.24 C 1232.97 1806.84 1204.15 1824.38 1179.15 1838.16 C 1164.97 1845.98 1131.16 1863.92 1118.76 1872.38 C 1105.17 1880.07 1082.81 1891.31 1070.89 1899.46 C 1076.4 1901.85 1073.57 1899.38 1080.02 1899.53 C 1065.89 1908.26 1058.63 1912.22 1042.54 1915.99 C 1005.39 1926.75 974.69 1909.48 943.952 1892.08 L 883.27 1857.37 L 688.318 1747.03 L 466.096 1621.19 L 397.018 1582.24 C 382.836 1574.24 365.436 1564.97 352.269 1555.9 C 352.025 1554.83 351.225 1552.95 350.805 1551.85 L 353.405 1550.77 C 352.36 1549.8 351.337 1548.81 350.338 1547.79 C 340.897 1538.09 339.2 1530.22 339.296 1517.09 C 339.498 1489.68 339.428 1462.26 339.492 1434.85 z"/>
<path transform="translate(0,0)" fill="url(#Gradient7)" d="M 353.405 1550.77 C 388.897 1572.68 428.451 1593.4 465.117 1614.3 L 739.236 1769.56 L 907.498 1865.19 C 931.981 1878.98 957.495 1895.09 982.729 1907.04 C 997.321 1913.95 1017.56 1914.04 1033.45 1912.97 C 1038.63 1912.84 1041.56 1912.88 1046.73 1911.81 L 1047.51 1912.56 L 1048.09 1912.44 C 1045.75 1913.77 1044.62 1914.25 1042.54 1915.99 C 1005.39 1926.75 974.69 1909.48 943.952 1892.08 L 883.27 1857.37 L 688.318 1747.03 L 466.096 1621.19 L 397.018 1582.24 C 382.836 1574.24 365.436 1564.97 352.269 1555.9 C 352.025 1554.83 351.225 1552.95 350.805 1551.85 L 353.405 1550.77 z"/>
<path transform="translate(0,0)" fill="rgb(24,22,18)" d="M 1263.03 1791.21 C 1270.96 1785.41 1299.32 1770.23 1308.73 1764.93 L 1407.67 1709.69 L 1408.32 1712.47 C 1404.74 1716.45 1402.28 1714.46 1399.67 1718.03 L 1399.94 1719.37 C 1389.57 1726.58 1370.98 1736.32 1359.17 1742.98 C 1328.74 1759.77 1298.43 1776.8 1268.25 1794.05 L 1263.03 1791.21 z"/>
<path transform="translate(0,0)" fill="rgb(24,22,18)" d="M 1440.83 1691.14 C 1468.07 1674.68 1513.74 1648.89 1542.12 1634.47 C 1539.76 1643.11 1530.13 1641.39 1526.46 1647.11 L 1526.27 1648.59 C 1512.03 1657.99 1490.79 1668.25 1475.63 1677.23 C 1470.19 1680.45 1448.7 1692.89 1444.36 1694.73 L 1440.83 1691.14 z"/>
<path transform="translate(0,0)" fill="rgb(24,22,18)" d="M 1070.89 1899.46 C 1076.4 1901.85 1073.57 1899.38 1080.02 1899.53 C 1065.89 1908.26 1058.63 1912.22 1042.54 1915.99 C 1044.62 1914.25 1045.75 1913.77 1048.09 1912.44 L 1047.51 1912.56 L 1046.73 1911.81 C 1041.56 1912.88 1038.63 1912.84 1033.45 1912.97 C 1053.91 1908.98 1052.83 1907.21 1070.89 1899.46 z"/>
<path transform="translate(0,0)" fill="rgb(4,4,6)" d="M 1717.7 731.74 C 1733.3 767.838 1720.41 778.047 1688.15 793.948 C 1682.2 796.886 1668.77 806.524 1663.04 807.591 C 1666.06 800.098 1720.5 780.377 1720.08 767.487 C 1718.83 768.336 1717.98 768.977 1716.79 769.891 C 1721.04 758.486 1719.27 748.668 1715.57 737.563 L 1717.7 731.74 z"/>
<path transform="translate(0,0)" fill="rgb(4,4,6)" d="M 1693.72 1548.66 L 1695.72 1549.56 C 1708.74 1546.49 1710.45 1528.78 1712.56 1518.12 L 1713.17 1528.25 C 1708.99 1550.52 1679.6 1562.76 1661.23 1572.54 C 1660.81 1571.66 1660.26 1568.77 1660.01 1567.66 C 1670.62 1561.68 1683.08 1554.08 1693.72 1548.66 z"/>
<path transform="translate(0,0)" fill="rgb(250,215,94)" d="M 382.605 756.706 C 384.384 753.289 399.738 748.26 403.83 746.639 L 459.982 724.43 L 675.187 639.304 C 696.22 673.913 717.539 708.347 739.144 742.601 L 904.351 1007.84 L 962.111 1099.47 C 970.68 1113.05 982.399 1130.47 990.03 1144.11 C 988.394 1267.61 990.472 1392.09 989.486 1515.7 C 989.142 1558.9 990.353 1602.66 989.553 1645.79 C 945.037 1619.78 900.347 1594.07 855.487 1568.65 C 828.406 1553.18 797.493 1534.52 770.053 1520.11 C 770.093 1443.04 769.026 1363.18 770.22 1286.35 C 740.933 1267.34 702.821 1247.33 672.146 1229.39 C 655.457 1219.63 618.826 1197.83 602.54 1190.53 C 601.518 1191.08 600.446 1191.49 600.405 1193.48 C 600.026 1211.87 600.227 1234.35 600.209 1252.38 L 600.013 1423.22 L 460.702 1343.12 C 439.037 1330.72 404.463 1309.9 383.024 1299.62 L 383.121 919.512 L 383.159 810.419 C 383.164 799.833 383.849 765.797 382.605 756.706 z"/>
<path transform="translate(0,0)" fill="rgb(24,22,18)" d="M 466.128 867.568 C 472.496 869.819 505.858 889.584 514.268 894.415 C 552.979 916.611 591.554 939.043 629.99 961.711 C 630.414 1006.17 629.798 1051.33 629.8 1095.81 C 629.801 1110 630.926 1150.39 629.02 1161.76 C 616.269 1156.44 588.303 1139.36 574.652 1131.51 L 465.006 1068.52 L 465.033 926.735 C 465.041 916.933 464.397 874.287 466.128 867.568 z"/>
<path transform="translate(0,0)" fill="rgb(132,209,187)" d="M 470.767 875.527 L 624.947 965.087 L 624.878 1153.99 L 527.864 1098.28 C 509.387 1087.62 489.31 1075.45 470.457 1065.77 L 470.291 952.566 C 470.292 927.621 469.749 900.302 470.767 875.527 z"/>
<path transform="translate(0,0)" fill="rgb(24,22,18)" d="M 492.577 913.548 C 498.364 915.426 521.783 929.27 528.456 933.099 C 553.607 947.34 578.555 961.935 603.295 976.879 C 602.439 1022.08 604.811 1071.03 602.908 1115.73 C 595.06 1112.89 572.451 1099.28 563.983 1094.38 L 492.009 1052.82 L 491.829 960.499 C 491.815 949.145 491.084 923.572 492.577 913.548 z"/>
<path transform="translate(0,0)" fill="rgb(252,254,254)" d="M 497.318 922.266 C 503.198 924.576 523.28 936.58 529.857 940.365 L 598.117 979.903 L 598.069 1107.52 C 564.599 1089.3 530.363 1068.72 497.054 1049.81 C 496.916 1007.3 497.004 964.78 497.318 922.266 z"/>
<path transform="translate(0,0)" fill="rgb(24,22,18)" d="M 742.554 1026.33 C 749.229 1028.44 784.351 1049.74 793.478 1055.01 L 907.008 1120.46 L 906.767 1252.46 C 906.748 1274.55 907.293 1297.83 906.643 1319.78 C 896.212 1317.39 758.585 1238.07 741.81 1227.2 L 742.014 1093.98 C 742.023 1077.42 740.782 1040.57 742.554 1026.33 z"/>
<path transform="translate(0,0)" fill="rgb(132,209,187)" d="M 747.08 1034.53 C 755.575 1039.14 764.347 1044.17 772.654 1049.1 C 815.247 1074.42 859.743 1097.79 901.808 1123.86 L 901.402 1310.64 L 900.826 1311.19 C 896.733 1310.31 864.823 1291.22 859.213 1288.03 L 747.104 1224.28 L 747.08 1034.53 z"/>
<path transform="translate(0,0)" fill="rgb(24,22,18)" d="M 769.182 1072.33 C 778.658 1076.49 797.37 1087.8 806.831 1093.21 C 831.446 1107.23 855.953 1121.44 880.349 1135.84 C 880.499 1141.88 880.4 1148.66 880.279 1154.7 C 879.48 1194.38 881.633 1235.06 879.836 1274.64 C 873.273 1272.09 851.277 1258.76 843.738 1254.45 L 768.957 1212.02 C 767.814 1178.67 769.378 1144.55 768.642 1111.11 C 768.364 1098.51 768.496 1084.92 769.182 1072.33 z"/>
<path transform="translate(0,0)" fill="rgb(252,254,254)" d="M 774.106 1080.65 C 806.305 1100.03 842.258 1120.43 875.121 1138.63 L 874.901 1266.62 C 863.937 1258.99 848.031 1250.56 836.013 1243.82 C 815.229 1232.28 794.54 1220.56 773.946 1208.68 C 773.926 1166.17 773.585 1123.11 774.106 1080.65 z"/>
<path transform="translate(0,0)" fill="rgb(242,169,41)" d="M 1649.73 816.027 C 1650.97 820.672 1650.41 846.179 1650.4 852.435 L 1650.36 933.058 L 1650.48 1159.47 C 1650.51 1197.32 1649.84 1236.35 1650.39 1274.01 C 1610.2 1295.91 1568.7 1320.18 1528.84 1342.97 L 1358.94 1439.51 L 1095.17 1589.12 C 1061.91 1608.1 1028.02 1626.63 995.08 1645.99 L 994.93 1627.77 L 994.933 1319.5 L 995.03 1214 C 995.043 1194.98 995.715 1169.19 994.376 1150.61 C 1022.68 1182.48 1035.81 1168.31 1066.26 1150.57 L 1112.39 1124 L 1265.86 1036.47 L 1493 905.943 C 1544.23 876.702 1599.55 846.48 1649.73 816.027 z"/>
<path transform="translate(0,0)" fill="url(#Gradient6)" d="M 339.172 1327.46 C 351.638 1341.77 362.965 1346.14 379.005 1355.41 L 448.454 1395.02 L 666.888 1519.98 L 866.713 1634.15 C 897.013 1651.58 927.205 1669.2 957.563 1686.52 C 969.635 1693.4 981.7 1700.43 995.273 1703.83 C 1014.82 1708.98 1036.63 1707.48 1055.26 1699.5 C 1083.89 1684.7 1112.21 1667.7 1140.21 1651.54 L 1295.33 1562.84 L 1593.53 1394.39 C 1616.63 1381.45 1639.66 1368.38 1662.61 1355.18 C 1677.72 1346.6 1697.64 1337.34 1708.87 1324.32 C 1709.06 1355.64 1710.1 1391.92 1709.01 1422.9 C 1705.16 1429.07 1699.43 1436.58 1693.09 1440.18 C 1678.85 1448.24 1664.47 1456.08 1650.26 1464.23 C 1604.11 1490.65 1557.77 1516.73 1511.25 1542.5 L 1259.41 1684.83 C 1211.84 1712.19 1164.12 1739.26 1116.23 1766.06 C 1094.93 1777.95 1060.18 1800.48 1038.63 1805.35 C 1019.9 1809.39 1000.38 1807.62 982.685 1800.29 C 966.12 1793.48 925.832 1768.73 908.632 1758.86 L 766.632 1677.81 L 486.188 1517.93 L 403.9 1470.85 C 389.746 1462.81 345.058 1441.8 342.27 1426.17 C 339.701 1419.23 338.33 1416.36 339.381 1409.03 C 339.848 1405.84 340.339 1402.65 340.854 1399.47 C 334.676 1388.03 342.459 1390.87 342.157 1378.87 C 339.498 1374.5 338.887 1374.05 338.723 1369.16 C 339.567 1356.21 339.196 1340.65 339.172 1327.46 z"/>
<path transform="translate(0,0)" fill="rgb(252,254,254)" d="M 351.911 1361.16 C 354.354 1362.73 354.759 1363.41 358.435 1362.82 C 366.42 1367.81 363.421 1371.59 361.325 1380.09 C 363.753 1382.58 366.335 1384.39 367.054 1387.35 L 365.76 1388 C 357.06 1392.46 356.953 1397.17 364.32 1403.38 C 365.219 1406.68 365.444 1405.21 363.956 1407.99 C 358.374 1409.71 359.522 1408.42 357.199 1412.36 C 357.16 1415.69 357.185 1417.01 356.565 1420.37 C 353.494 1422.6 355.27 1421.82 350.671 1421.75 C 347.897 1420.08 345.625 1418.63 342.64 1417.32 C 341.608 1420.91 342.469 1422.13 342.27 1426.17 C 339.701 1419.23 338.33 1416.36 339.381 1409.03 C 339.848 1405.84 340.339 1402.65 340.854 1399.47 C 334.676 1388.03 342.459 1390.87 342.157 1378.87 C 339.498 1374.5 338.887 1374.05 338.723 1369.16 C 341.509 1369.4 342.503 1369.77 345.161 1369.16 C 347.707 1369.8 347.943 1369.62 349.903 1371.26 C 350.47 1369.39 351.345 1363.69 351.911 1361.16 z"/>
<path transform="translate(0,0)" fill="rgb(44,191,178)" d="M 340.854 1399.47 C 343.923 1402.3 342.062 1401.43 346.989 1401.33 C 355.852 1406.87 351.12 1412.15 350.671 1421.75 C 347.897 1420.08 345.625 1418.63 342.64 1417.32 C 341.608 1420.91 342.469 1422.13 342.27 1426.17 C 339.701 1419.23 338.33 1416.36 339.381 1409.03 C 339.848 1405.84 340.339 1402.65 340.854 1399.47 z"/>
<path transform="translate(0,0)" fill="rgb(252,254,254)" d="M 340.854 1399.47 C 343.923 1402.3 342.062 1401.43 346.989 1401.33 C 346.308 1405.98 345.966 1410.38 343.16 1414.21 L 341.659 1414.46 C 339.619 1412.23 339.898 1412.1 339.381 1409.03 C 339.848 1405.84 340.339 1402.65 340.854 1399.47 z"/>
<path transform="translate(0,0)" fill="rgb(44,191,178)" d="M 351.911 1361.16 C 354.354 1362.73 354.759 1363.41 358.435 1362.82 C 356.595 1368.19 357.409 1371.14 354.82 1376.62 L 353.29 1377.27 C 351.407 1375.36 350.59 1373.94 349.903 1371.26 C 350.47 1369.39 351.345 1363.69 351.911 1361.16 z"/>
<path transform="translate(0,0)" fill="rgb(44,191,178)" d="M 350.162 1381.65 C 356.823 1385.08 355.036 1389.95 353.658 1395.96 C 350.559 1394.94 350.364 1395.18 348.249 1392.82 C 347.103 1389.07 348.876 1385.51 350.162 1381.65 z"/>
<path transform="translate(0,0)" fill="rgb(233,254,254)" d="M 345.161 1369.16 C 345.162 1364.57 344.867 1360.21 348.156 1356.66 L 349.947 1356.83 C 351.553 1358.98 351.066 1358.43 351.911 1361.16 C 351.345 1363.69 350.47 1369.39 349.903 1371.26 C 347.943 1369.62 347.707 1369.8 345.161 1369.16 z"/>
<path transform="translate(0,0)" fill="rgb(252,254,254)" d="M 437.293 1408.27 C 462.835 1419.64 483.455 1449.5 466.851 1475.88 C 455.16 1483.2 446.803 1476.32 436.162 1470.22 C 437.727 1451.23 436.609 1427.99 437.293 1408.27 z"/>
<path transform="translate(0,0)" fill="rgb(44,191,178)" d="M 445.068 1420.69 C 462.907 1429.34 467.61 1449.99 460.274 1467.45 C 437.674 1482.59 444.721 1431.78 445.068 1420.69 z"/>
<path transform="translate(0,0)" fill="rgb(252,254,254)" d="M 1129.53 1678.01 C 1145.07 1680.99 1143.57 1698.77 1141.13 1710.65 C 1138.19 1725 1132.61 1733.9 1120.78 1741.86 C 1117.65 1743.86 1114.28 1745.65 1111.02 1747.46 C 1111.25 1727.58 1111.24 1707.69 1111 1687.8 C 1117.13 1683.94 1122.7 1680.48 1129.53 1678.01 z"/>
<path transform="translate(0,0)" fill="rgb(28,135,121)" d="M 1122.84 1687.02 C 1144.2 1685.76 1134.07 1719.38 1126.29 1729.66 C 1123.94 1731.83 1123.06 1732.24 1120.36 1733.88 L 1118.71 1733.42 C 1117.04 1723.48 1117.9 1704.08 1118.26 1693.52 C 1118.39 1689.67 1120.27 1688.99 1122.84 1687.02 z"/>
<path transform="translate(0,0)" fill="rgb(252,254,254)" d="M 514.813 1455.7 C 529.055 1455.95 540.338 1471.42 535.367 1484.17 C 520.705 1495.88 551.439 1506.43 531.43 1521.38 C 512.907 1519.35 497.161 1494.85 515.31 1481.69 C 510.153 1470.88 505.801 1465.21 514.813 1455.7 z"/>
<path transform="translate(0,0)" fill="rgb(44,191,178)" d="M 518.787 1488.35 C 529.29 1491.83 532.653 1504.99 526.066 1513.61 C 524.309 1512.82 522.663 1511.81 521.171 1510.6 C 514.305 1504.95 512.463 1495.22 518.787 1488.35 z"/>
<path transform="translate(0,0)" fill="rgb(44,191,178)" d="M 518.484 1462.4 C 529.262 1465.17 531.001 1473.11 527.406 1482.67 C 517.895 1481.33 515.416 1470.3 518.484 1462.4 z"/>
<path transform="translate(0,0)" fill="rgb(252,254,254)" d="M 1631.86 1393.82 C 1635.95 1393.84 1638.04 1394.86 1640.52 1397.97 C 1643.1 1406.36 1637.98 1408.92 1636.55 1416.59 C 1636.25 1418.42 1640.32 1420.74 1641.35 1422.43 C 1649.35 1435.64 1636.43 1449.41 1627.08 1455.82 L 1615.49 1462.31 C 1614.78 1442.55 1616.54 1422.56 1615.34 1402.3 C 1620.81 1399.4 1626.32 1396.58 1631.86 1393.82 z"/>
<path transform="translate(0,0)" fill="rgb(28,135,121)" d="M 1630.33 1425.91 C 1632 1426.5 1632.65 1426.96 1634.21 1427.81 C 1639.39 1435.83 1633.23 1443.06 1627.1 1448.19 C 1624.87 1448.92 1626 1448.85 1623.74 1448.45 C 1621.76 1442.76 1621.72 1436.77 1623.67 1430.85 C 1624.66 1427.86 1627.4 1427.28 1630.33 1425.91 z"/>
<path transform="translate(0,0)" fill="rgb(28,135,121)" d="M 1626.82 1402.52 C 1632.16 1402.65 1632.37 1402.69 1634.04 1407.32 C 1633.53 1413.23 1631.49 1415.93 1627.14 1419.77 L 1623.55 1420.88 C 1619.28 1415.86 1622.28 1406.73 1626.82 1402.52 z"/>
<path transform="translate(0,0)" fill="rgb(252,254,254)" d="M 1093.87 1698.01 C 1098.11 1697.67 1099.76 1697.98 1102.91 1700.89 C 1106.63 1709.56 1098.19 1719.6 1099.73 1721.87 C 1107.58 1733.45 1109.89 1743.42 1092.92 1757.29 C 1088.49 1760.13 1083.82 1762.62 1079.21 1765.17 C 1079.83 1746.73 1079.25 1724.78 1079.2 1706.13 C 1083.92 1702.92 1088.8 1700.58 1093.87 1698.01 z"/>
<path transform="translate(0,0)" fill="rgb(28,135,121)" d="M 1089.54 1730.75 C 1091.37 1730.79 1093.2 1730.97 1095.03 1731.11 C 1102.64 1736.88 1097.36 1744.8 1092.36 1750.49 C 1090.17 1752.03 1090.32 1752.18 1087.71 1752.35 C 1086.1 1750.69 1085.22 1747.85 1085.42 1745.69 C 1086.19 1737.39 1084.51 1736.33 1089.54 1730.75 z"/>
<path transform="translate(0,0)" fill="rgb(28,135,121)" d="M 1091.03 1705.53 C 1102.7 1707.74 1095.21 1719.1 1090.84 1724.5 C 1089.49 1724.71 1088.55 1724.66 1087.18 1724.68 C 1082.97 1718.59 1085.03 1709.87 1091.03 1705.53 z"/>
<path transform="translate(0,0)" fill="rgb(252,254,254)" d="M 1394.12 1526.86 C 1406.93 1529.1 1406.93 1542.88 1406.35 1553.36 C 1405.58 1567.42 1403.41 1582.36 1390.71 1590.33 C 1375.33 1588.45 1378.36 1563.86 1380.07 1552.65 C 1381.7 1541.99 1385.01 1533.19 1394.12 1526.86 z"/>
<path transform="translate(0,0)" fill="rgb(28,135,121)" d="M 1393.33 1534.5 C 1403.89 1541.28 1399.88 1573.26 1391.97 1582.23 C 1381.15 1575.38 1385.28 1543.54 1393.33 1534.5 z"/>
<path transform="translate(0,0)" fill="rgb(252,254,254)" d="M 1455.56 1492.66 C 1471.94 1496.79 1466.61 1531.1 1462.17 1543.08 C 1459.34 1550.72 1456.97 1553.5 1449.69 1556.83 C 1434.48 1548.81 1438.48 1522.8 1442.89 1508.99 C 1445.36 1501.23 1448.81 1497 1455.56 1492.66 z"/>
<path transform="translate(0,0)" fill="rgb(28,135,121)" d="M 1454.51 1500.54 C 1458.32 1503.23 1459.35 1509.03 1459.48 1513.4 C 1459.84 1525.19 1460.54 1539.76 1452.12 1548.8 C 1442.35 1538.94 1444.73 1510.48 1454.51 1500.54 z"/>
<path transform="translate(0,0)" fill="rgb(252,254,254)" d="M 1426.19 1509.96 C 1440.61 1514.34 1433.68 1527.25 1429.3 1536.69 C 1445.13 1547.72 1433.2 1565.89 1420.35 1573.77 C 1408.56 1573.83 1407.15 1566.08 1410.35 1556.47 C 1410.78 1555.16 1414.44 1544.29 1414.32 1544.01 C 1411.74 1537.54 1409.15 1530.99 1411.68 1524.02 C 1414.09 1517.75 1419.96 1512.97 1426.19 1509.96 z"/>
<path transform="translate(0,0)" fill="rgb(28,135,121)" d="M 1422.14 1543.51 C 1424.58 1544.11 1424.56 1544.23 1426.88 1545.29 C 1432.81 1552.12 1428.48 1560.04 1422.98 1565.47 L 1419.02 1565.17 C 1412.6 1559.7 1418.25 1549.08 1422.14 1543.51 z"/>
<path transform="translate(0,0)" fill="rgb(28,135,121)" d="M 1422.41 1517.33 C 1424.73 1517.87 1424.29 1517.83 1426.47 1518.96 C 1430.56 1525.22 1427.02 1531.16 1423.01 1536.44 C 1410.77 1536.32 1418.57 1522.32 1422.41 1517.33 z"/>
<path transform="translate(0,0)" fill="url(#Gradient5)" d="M 549.117 1473.68 C 579.788 1477.66 577.372 1558.23 543.807 1530.49 C 543.457 1527.25 542.848 1527.08 544.186 1524.88 C 551.311 1525.03 555.432 1528.46 560.879 1523.62 C 562.384 1519.67 562.384 1519.88 562.25 1515.67 C 555.892 1515.22 551.059 1515.66 547.079 1509.66 C 539.841 1498.75 537.217 1481.95 549.117 1473.68 z"/>
<path transform="translate(0,0)" fill="rgb(44,191,178)" d="M 552.046 1482.31 C 562.135 1485.46 565.058 1501.35 560.108 1509.23 C 547.314 1506.44 546.377 1491.98 552.046 1482.31 z"/>
<path transform="translate(0,0)" fill="rgb(252,254,254)" d="M 1692.46 1357.8 C 1719.87 1357.83 1697.26 1433.42 1681.37 1423.94 L 1680.91 1421.22 C 1682.61 1417.06 1682.15 1418.33 1686.52 1415.33 C 1694.31 1410.24 1696.5 1400.93 1699.09 1392.54 C 1675.14 1420.01 1670.02 1374.62 1692.46 1357.8 z"/>
<path transform="translate(0,0)" fill="rgb(28,135,121)" d="M 1691.35 1365.37 C 1703.13 1368.71 1698.09 1386.19 1691.25 1393.47 L 1688.51 1393.08 C 1680.85 1387.2 1686.29 1371.53 1691.35 1365.37 z"/>
<path transform="translate(0,0)" fill="rgb(252,254,254)" d="M 1365.54 1543.75 C 1385.83 1550.32 1374.94 1604.68 1353.77 1609.95 L 1352.18 1608.95 C 1352.3 1603.05 1354.15 1602.59 1358.89 1599.83 C 1366.31 1593.92 1367.58 1586.45 1369.37 1577.78 C 1364.96 1582.45 1363.39 1586.29 1356.32 1586.28 C 1346.85 1582.77 1348.69 1569.53 1351.11 1561.72 C 1353.96 1552.49 1357.03 1548.19 1365.54 1543.75 z"/>
<path transform="translate(0,0)" fill="rgb(28,135,121)" d="M 1362.37 1551.27 C 1374.51 1556.2 1369.37 1571.03 1362.25 1578.36 C 1349.91 1577.02 1358.16 1557.12 1362.37 1551.27 z"/>
<path transform="translate(0,0)" fill="rgb(252,254,254)" d="M 1166.99 1656.55 L 1168.39 1657.29 C 1172.4 1665.25 1160.15 1668.65 1156.62 1673.88 C 1154.18 1677.5 1152.81 1686.95 1152.05 1691.62 C 1152.83 1690.39 1153.64 1689.18 1154.48 1687.99 C 1157.59 1683.53 1158.99 1681.29 1164.5 1680.28 C 1176.39 1683.95 1171.88 1701.47 1169.27 1710.15 C 1149.12 1751.41 1129.24 1681.26 1166.99 1656.55 z"/>
<path transform="translate(0,0)" fill="rgb(28,135,121)" d="M 1160.48 1687.24 C 1171.98 1690.6 1164.86 1709.28 1158.81 1715.65 C 1147.07 1709.23 1153.29 1694.77 1160.48 1687.24 z"/>
<path transform="translate(0,0)" fill="rgb(233,254,254)" d="M 1340.74 1557.65 C 1341.57 1558.25 1342.29 1559.18 1343.02 1559.99 C 1343.13 1567.56 1332.59 1570.39 1329.13 1578.12 C 1326.92 1583.08 1326.4 1587.77 1325.48 1593.04 C 1329.14 1587.74 1332.34 1582.03 1339.28 1581.77 C 1349.84 1586.52 1345.27 1603.6 1342.37 1612.23 C 1320.7 1650.1 1304.55 1584.79 1340.74 1557.65 z"/>
<path transform="translate(0,0)" fill="rgb(28,135,121)" d="M 1334.65 1588.38 C 1344.76 1593.58 1338.32 1610.78 1331.23 1617.21 C 1322.72 1607.51 1325.06 1596.23 1334.65 1588.38 z"/>
<path transform="translate(0,0)" fill="rgb(252,254,254)" d="M 1666.4 1372.49 C 1676.24 1374.35 1665.61 1399.94 1671.31 1407.58 C 1673.76 1408.06 1673.72 1407.95 1675.84 1409.2 L 1676.23 1411.54 C 1675 1414.76 1672.49 1416.24 1669.75 1418.48 C 1670.57 1424.2 1672.24 1429.31 1667.15 1433.3 L 1665.14 1432.35 C 1663.09 1428.87 1663.85 1424.73 1664.04 1420.55 C 1659.19 1422.85 1651.12 1428.88 1646.71 1428.69 C 1644.58 1421.51 1660.85 1378.4 1666.4 1372.49 z"/>
<path transform="translate(0,0)" fill="rgb(28,135,121)" d="M 1662.64 1389.72 C 1663.82 1395.58 1664.23 1406.98 1662.24 1412.59 C 1661.15 1415.67 1657.04 1416.87 1654.19 1418.05 C 1654.57 1412.73 1660.63 1395.62 1662.64 1389.72 z"/>
<path transform="translate(0,0)" fill="rgb(252,254,254)" d="M 405.387 1390.43 C 410.641 1393.73 432.491 1402.77 425.606 1410.27 C 419.829 1410.55 415.322 1400.77 409.434 1408.18 C 408.499 1413.93 415.413 1418.41 419.318 1422.37 C 428.282 1431.47 436.95 1452.81 419.744 1458.85 C 409.53 1457.02 400.636 1451.9 399.483 1440.75 L 400.532 1439.54 C 405.856 1440.48 408.727 1448.17 416.18 1449.42 C 418.388 1448.27 419.412 1447.92 420.066 1445.13 C 423.352 1431.13 413.226 1424.23 402.509 1420.52 C 403.589 1410.22 403.863 1400.93 405.387 1390.43 z"/>
<path transform="translate(0,0)" fill="rgb(252,254,254)" d="M 1226.44 1623.46 C 1232.96 1626.48 1225.9 1652.18 1230.04 1658.71 L 1234.46 1658.67 L 1235.02 1659.99 C 1233.99 1663.15 1231.52 1665.07 1229.12 1667.5 C 1229.14 1672.96 1230.22 1680.95 1224.2 1683.6 L 1222.39 1682.26 C 1221.05 1678.71 1222.28 1674.76 1222.97 1670.89 C 1216.44 1674.26 1211.28 1676.3 1204.41 1679.01 C 1207.47 1666.6 1217.17 1630.4 1226.44 1623.46 z"/>
<path transform="translate(0,0)" fill="rgb(28,135,121)" d="M 1222.26 1640.66 C 1223.35 1644.63 1223.79 1656.86 1221.81 1660.92 C 1219.6 1665.48 1218.32 1665.46 1213.75 1667.46 C 1213.22 1663.1 1220.33 1645.56 1222.26 1640.66 z"/>
<path transform="translate(0,0)" fill="rgb(252,254,254)" d="M 1501.12 1481.5 C 1513.8 1477.66 1505.78 1467.62 1510.9 1460.34 L 1512.87 1460 C 1515.84 1464.51 1509.06 1474.04 1517.58 1477.08 C 1519.05 1477.61 1518.47 1477.92 1518.21 1479.51 C 1509.42 1487.86 1509.86 1490.27 1517.78 1499.04 C 1516.96 1502.02 1513.56 1504.12 1510.98 1506.19 C 1510.61 1512.34 1511.1 1520 1507.3 1524.57 C 1503.79 1522.2 1506.19 1512.32 1503.01 1509.02 C 1500.44 1510.19 1500.16 1511.32 1498.64 1513.78 L 1495.29 1515.39 C 1491.24 1515.9 1493 1516.29 1489.71 1514.88 C 1488.85 1508.91 1498.43 1504.33 1494.47 1495.59 C 1492.39 1493.94 1491.89 1493.62 1490.2 1491.61 C 1490.92 1488.29 1495.12 1486.01 1497.43 1481.88 L 1501.12 1481.5 z"/>
<path transform="translate(0,0)" fill="rgb(28,135,121)" d="M 1505.74 1486.87 L 1506.7 1488.14 C 1507.72 1496.04 1508.06 1499.97 1501.06 1504.7 L 1500.01 1503.52 C 1499.34 1495.08 1498.65 1491.73 1505.74 1486.87 z"/>
<path transform="translate(0,0)" fill="rgb(252,254,254)" d="M 479.109 1433.28 C 488.722 1438.17 499.537 1442.54 505.601 1451.67 L 504.22 1453.65 C 498.534 1453.66 491.881 1449.33 486.836 1446.51 C 486.297 1453.28 486.592 1457.09 487.011 1463.85 C 494.648 1467.59 499.53 1469.08 504.182 1476.24 C 502.539 1479.02 503.632 1478.03 500.947 1479.49 C 496.318 1478.66 491.298 1474.61 486.819 1471.88 C 486.667 1478.51 488.019 1492.6 484.483 1497.5 C 475.035 1495.83 478.991 1442.76 479.109 1433.28 z"/>
<path transform="translate(0,0)" fill="rgb(252,254,254)" d="M 371.92 1371.02 C 379.855 1374.74 395.339 1382.44 397.458 1391.14 C 392.474 1393.7 383.878 1387.57 379.378 1384.98 C 379.043 1390.25 379.135 1395.97 379.103 1401.27 C 389.081 1407.92 394.838 1404.56 395.043 1418.43 C 390.676 1416.76 384.051 1412.64 379.804 1410.2 C 379.683 1414.81 380.695 1432.41 378.9 1434.96 C 375.48 1435.53 377.212 1435.63 373.611 1434.02 C 373.088 1433.32 372.566 1432.61 372.043 1431.9 C 371.457 1417.3 371.93 1383.32 371.92 1371.02 z"/>
<path transform="translate(0,0)" fill="rgb(252,254,254)" d="M 1534.46 1446.87 C 1559.99 1445.9 1535.5 1491.28 1530.92 1501.58 C 1535.07 1499.01 1542.15 1493.85 1546.57 1494.21 C 1547.56 1497.34 1547.81 1497.27 1547.19 1500.41 C 1543.81 1503.41 1529.89 1510.54 1525.2 1513.17 L 1521.96 1513.81 C 1515.37 1505.55 1549.58 1465.39 1535.96 1456.32 C 1531.59 1456.46 1526.23 1461.5 1522.63 1464.39 L 1521.23 1464.17 C 1522.05 1454.5 1527.14 1452.04 1534.46 1446.87 z"/>
<path transform="translate(0,0)" fill="rgb(252,254,254)" d="M 1605.8 1408.33 C 1611.32 1427.94 1589.5 1411.54 1591.36 1435.93 L 1592.76 1436.95 L 1593.84 1436.56 C 1612.04 1430.28 1610.17 1453.1 1604.41 1463.09 C 1599.21 1472.1 1594.79 1475.63 1585.02 1478.69 C 1583.67 1474.49 1582.84 1474.46 1583.95 1471.15 C 1593.31 1467.27 1608.77 1454.72 1598.61 1444.48 C 1593.59 1443.35 1588.94 1446.99 1584.69 1449.65 C 1584.94 1439.66 1585.54 1429.38 1586 1419.37 C 1593.29 1415.7 1598.81 1412.56 1605.8 1408.33 z"/>
<path transform="translate(0,0)" fill="rgb(252,254,254)" d="M 1266.99 1615.81 C 1267.01 1609.86 1266.32 1602.17 1269.95 1597.52 C 1271.57 1599.82 1272.12 1607.79 1272.77 1611.39 L 1274.19 1612.17 C 1276.83 1609.89 1276.87 1609.32 1278.46 1606.27 L 1282.32 1605.14 L 1286.02 1607.74 C 1286.89 1613.42 1275.39 1620.83 1283.26 1628.01 L 1286.12 1628.6 C 1285.42 1633.43 1281.27 1633.84 1279.15 1640.06 L 1274.92 1639.06 C 1273.2 1640.16 1270.48 1641.72 1269.06 1643.02 L 1264.48 1645.75 C 1261.2 1646.23 1262.64 1646.54 1259.95 1645.22 C 1259.29 1638.66 1269.39 1633.28 1265.24 1624.68 L 1262.53 1624.91 C 1260.33 1623.58 1261.15 1624.46 1260.28 1622.01 C 1261.84 1618.96 1263.98 1618.04 1266.99 1615.81 z"/>
<path transform="translate(0,0)" fill="rgb(28,135,121)" d="M 1275.73 1617.86 L 1276.59 1618.86 C 1278.13 1626.06 1277.71 1629.8 1271.33 1634.09 L 1270.62 1633.31 C 1268.84 1626.51 1270.38 1621.86 1275.73 1617.86 z"/>
<path transform="translate(0,0)" fill="rgb(252,254,254)" d="M 1201.12 1636.61 L 1203.14 1637.76 C 1204.91 1641.13 1204.76 1639.46 1204 1642.88 C 1200.9 1647.19 1194.84 1647.67 1191.75 1650.37 C 1183.4 1657.67 1178.32 1681.69 1185.37 1690.89 C 1190.58 1697.7 1198.37 1688.68 1204.79 1688.68 L 1205.67 1690.27 C 1205.19 1692.62 1204.47 1693.68 1203.37 1695.81 C 1187.42 1708.03 1176.1 1703.85 1175.47 1682.61 C 1174.88 1662.99 1182.74 1645.49 1201.12 1636.61 z"/>
<path transform="translate(0,0)" fill="rgb(252,254,254)" d="M 1033.88 1753.05 C 1035.95 1752.82 1036.42 1752.46 1038.42 1751.73 C 1038.45 1758.3 1038.6 1759.5 1041.64 1765.46 C 1040.72 1769.15 1039.9 1768.76 1036.3 1771.86 C 1035.93 1777.62 1036.09 1785.04 1033.6 1789.92 L 1032.06 1790.77 C 1027.28 1786.22 1033.16 1780.9 1030.43 1775.48 C 1027.34 1777 1027.47 1776.93 1024.98 1779.31 L 1020.29 1781.08 L 1017.47 1780.56 C 1013.37 1776.72 1020.16 1772.73 1021.92 1768.18 C 1022.73 1766.07 1022.41 1761.89 1022.34 1759.56 L 1027.14 1758.03 C 1029.06 1755.68 1031.21 1754.74 1033.88 1753.05 z"/>
<path transform="translate(0,0)" fill="rgb(28,135,121)" d="M 1033.88 1753.05 C 1034.02 1760.29 1034.76 1762.36 1030.21 1768.01 L 1028.4 1768.12 C 1026.21 1764.51 1026.95 1762.9 1027.14 1758.03 C 1029.06 1755.68 1031.21 1754.74 1033.88 1753.05 z"/>
<path transform="translate(0,0)" fill="url(#Gradient4)" d="M 1556.41 1480.92 C 1560.05 1473.65 1576.32 1444.11 1565.98 1439.01 C 1559.46 1441.02 1557.94 1446.54 1552.83 1447.87 C 1549.18 1438.46 1566.21 1426.65 1571.94 1431.06 C 1584.94 1441.07 1565.19 1473.62 1561.86 1483.66 L 1560.71 1481.71 L 1558.7 1482.4 L 1556.41 1480.92 z"/>
<path transform="translate(0,0)" fill="rgb(252,254,254)" d="M 1297.96 1603.69 L 1299.06 1603.2 C 1328.62 1590.39 1311.08 1648 1292.89 1643.06 C 1290.3 1640.42 1291.16 1641.98 1290.54 1638.07 C 1293.21 1633 1294.54 1633.81 1300.19 1633.48 C 1307.86 1629.17 1312.4 1611.35 1302.83 1609.08 C 1298.74 1610.47 1297.71 1611.88 1294.39 1614.86 L 1292.95 1614.9 C 1291.51 1611.78 1292.4 1607.25 1292.93 1603.61 L 1297.96 1603.69 z"/>
<path transform="translate(0,0)" fill="rgb(233,254,254)" d="M 1071.39 1723.85 C 1068.25 1735.06 1059.99 1772.07 1054.86 1779.32 L 1053.31 1780.09 L 1052.08 1778.78 C 1052.35 1771.35 1063.23 1732.04 1065.51 1723.67 C 1067.02 1723.84 1069.77 1723.81 1071.39 1723.85 z"/>
<path transform="translate(0,0)" fill="rgb(252,254,254)" d="M 1029.06 1747.57 C 1040.21 1744.7 1032.72 1734.49 1037.96 1727.72 L 1040.26 1727.3 C 1040.65 1727.9 1041.43 1738.86 1044.13 1744.6 C 1043.39 1748.57 1042.24 1748.64 1038.42 1751.73 C 1036.42 1752.46 1035.95 1752.82 1033.88 1753.05 C 1031.21 1754.74 1029.06 1755.68 1027.14 1758.03 L 1022.34 1759.56 C 1018.16 1759.78 1019.64 1760.52 1017.08 1758.54 L 1017.21 1756.85 C 1020.16 1752.18 1020.97 1753.01 1024.42 1749.52 L 1025.53 1748.38 C 1026.91 1747.68 1027.42 1747.81 1029.06 1747.57 z"/>
<path transform="translate(0,0)" fill="rgb(252,254,254)" d="M 1561.86 1483.66 C 1566.74 1482.27 1575 1474.81 1578.29 1479.01 C 1576.46 1485.95 1559.4 1497.16 1552.44 1495.4 C 1551.01 1490.4 1554.1 1485.62 1556.41 1480.92 L 1558.7 1482.4 L 1560.71 1481.71 L 1561.86 1483.66 z"/>
<path transform="translate(0,0)" fill="rgb(233,254,254)" d="M 1292.93 1585.31 C 1298.46 1582.5 1307.49 1575.84 1312.74 1576.95 C 1315.03 1584.68 1304.41 1587.31 1298.79 1590.15 C 1298.26 1594.33 1298.16 1599.42 1297.96 1603.69 L 1292.93 1603.61 L 1292.93 1585.31 z"/>
<path transform="translate(0,0)" fill="rgb(252,254,254)" d="M 1065.51 1723.67 C 1061.63 1725.02 1054.93 1729.23 1049.8 1731.37 L 1047.87 1730.33 L 1047.54 1728.27 C 1050.26 1722.81 1067.17 1711.65 1072.73 1712.05 C 1073.37 1715.64 1072.11 1720.14 1071.39 1723.85 C 1069.77 1723.81 1067.02 1723.84 1065.51 1723.67 z"/>
<path transform="translate(0,0)" fill="rgb(252,254,254)" d="M 1241.76 1661.53 C 1246.81 1664.63 1239.64 1684.55 1237.27 1689.15 L 1235.46 1688.31 C 1233.24 1681.24 1236.65 1667.15 1241.76 1661.53 z"/>
<path transform="translate(0,0)" fill="rgb(233,254,254)" d="M 1497.43 1481.88 C 1496.88 1477.32 1495.77 1469.53 1499.89 1466.49 L 1501.32 1467.65 C 1502.96 1472.43 1501.84 1476.37 1501.12 1481.5 L 1497.43 1481.88 z"/>
<path transform="translate(0,0)" fill="rgb(233,254,254)" d="M 1020.29 1781.08 L 1024.98 1779.31 C 1024.8 1784.35 1025.22 1788.71 1022.79 1792.96 L 1021.18 1793.91 C 1018.4 1790 1019.7 1786.18 1020.29 1781.08 z"/>
<path transform="translate(0,0)" fill="rgb(233,254,254)" d="M 1495.29 1515.39 L 1498.64 1513.78 C 1499.02 1519.49 1500.21 1525.06 1496.09 1529.64 C 1492.41 1526.86 1494.61 1519.62 1495.29 1515.39 z"/>
<path transform="translate(0,0)" fill="rgb(233,254,254)" d="M 1264.48 1645.75 L 1269.06 1643.02 C 1268.83 1647.37 1268.81 1654.23 1267.47 1658.12 L 1265.38 1659.7 C 1262.74 1656.33 1265.39 1650.07 1264.48 1645.75 z"/>
<path transform="translate(0,0)" fill="rgb(233,254,254)" d="M 1274.92 1639.06 L 1279.15 1640.06 C 1279.25 1646.59 1279.3 1647.6 1277.32 1653.89 L 1276.03 1654.39 C 1274.78 1651.11 1274.6 1650.83 1274.7 1647.37 L 1274.92 1639.06 z"/>
<path transform="translate(0,0)" fill="rgb(233,254,254)" d="M 1025.53 1748.38 C 1024.85 1743.33 1023.81 1739.77 1026.33 1735.34 L 1027.83 1735.49 C 1030 1739.09 1029.22 1743.14 1029.06 1747.57 C 1027.42 1747.81 1026.91 1747.68 1025.53 1748.38 z"/>
<path transform="translate(0,0)" fill="rgb(233,254,254)" d="M 1278.46 1606.27 C 1278.31 1600.57 1277.79 1597.67 1280.66 1592.91 L 1282.08 1592.96 C 1283.72 1596.57 1282.73 1601.03 1282.32 1605.14 L 1278.46 1606.27 z"/>
<path transform="translate(0,0)" fill="rgb(44,191,178)" d="M 1655.62 1263.56 C 1671.22 1272.14 1702.85 1286.09 1707.72 1302.61 C 1709.3 1307.87 1708.68 1313.54 1706.02 1318.33 C 1702.71 1324.33 1697.72 1328.94 1691.88 1332.4 C 1658.93 1351.87 1625.19 1370.28 1591.99 1389.3 L 1282.31 1564.54 L 1136.36 1647.57 C 1115.62 1659.49 1092.13 1672.47 1071.96 1684.95 C 1012.04 1722.01 973.061 1689.75 919.809 1658.84 C 882.474 1637.12 845.026 1615.6 807.467 1594.27 L 372.554 1345.81 C 361.502 1339.64 348.691 1333.05 342.485 1321.48 C 329.642 1297.53 361.628 1283.28 378.128 1274.62 L 378.064 1302.37 L 992.15 1653.31 L 1655.18 1277.22 C 1655.18 1272.75 1655.45 1268.05 1655.62 1263.56 z"/>
<path transform="translate(0,0)" fill="rgb(238,114,43)" d="M 379.055 751.09 C 374.484 752.897 369.061 754.642 364.051 753.369 C 340.517 747.391 322.283 710.746 326.724 687.851 C 327.471 684.002 329.755 679.964 333.217 678.175 C 345.721 671.713 359.303 667.591 372.387 662.347 C 402.622 650.221 432.945 638.313 463.352 626.625 C 532.507 599.625 608.145 567.652 678.086 543.024 C 689.124 551.833 694.699 562.878 702.008 574.696 L 726.035 613.537 L 810.966 750.14 L 958.723 988.257 L 1008.95 1069.03 C 1017.45 1082.66 1025.48 1095.15 1034.45 1109.93 C 1045.45 1126.13 1053.06 1167.22 1022.22 1164.05 C 1002.73 1162.05 981.657 1121.13 971.834 1105.72 L 914.357 1014.34 L 767.546 778.986 L 711.071 688.023 C 700.771 671.46 689.297 652.023 678.424 636.052 L 675.187 639.304 L 459.982 724.43 L 403.83 746.639 C 399.738 748.26 384.384 753.289 382.605 756.706 C 381.789 755.08 380.101 752.69 379.055 751.09 z"/>
<path transform="translate(0,0)" fill="rgb(43,21,13)" d="M 379.055 751.09 C 390.062 746.039 404.712 740.676 416.327 736.043 L 493.985 705.232 C 537.603 687.637 581.338 670.331 625.186 653.317 C 632.488 650.466 672.17 633.391 676.999 634.001 L 678.424 636.052 L 675.187 639.304 L 459.982 724.43 L 403.83 746.639 C 399.738 748.26 384.384 753.289 382.605 756.706 C 381.789 755.08 380.101 752.69 379.055 751.09 z"/>
<path transform="translate(0,0)" fill="rgb(238,114,43)" d="M 556.213 291.469 C 570.421 298.152 591.391 311.307 605.719 319.648 C 630.253 333.929 655.794 348.3 679.946 363.049 C 679.69 408.43 679.747 453.811 680.116 499.191 L 643.351 514.027 L 555.96 549.319 L 556.213 291.469 z"/>
<path transform="translate(0,0)" fill="rgb(252,254,254)" d="M 631.835 1243.46 C 637.942 1246.68 644.102 1250.3 650.051 1253.83 C 679.2 1271.12 709.473 1287.15 738.266 1304.98 C 738.666 1369.98 738.67 1434.98 738.279 1499.97 L 736.573 1500.98 C 702.105 1480.71 666.5 1460.83 631.704 1440.98 C 632.736 1376.17 631.85 1308.49 631.835 1243.46 z"/>
<path transform="translate(0,0)" fill="rgb(238,114,43)" d="M 686.725 210.972 C 724.932 235.27 771.352 259.711 810.91 283.588 C 769.736 309.268 724.698 332.336 683.37 358.172 C 677.364 357.092 572.4 294.187 559.335 286.548 C 600.044 260.725 645.24 236.515 686.725 210.972 z"/>
<path transform="translate(0,0)" fill="rgb(43,21,13)" d="M 685.534 246.863 C 692.108 247.009 743.386 278.39 752.007 284.019 C 732.75 297.276 706.234 311.045 685.423 323.925 C 679.533 324.306 625.818 291.679 618.456 286.206 C 631.471 276.48 669.58 255.967 685.534 246.863 z"/>
<path transform="translate(0,0)" fill="rgb(226,36,33)" d="M 682.223 254.882 C 683.347 255.026 682.703 254.822 683.96 255.926 C 684.204 277.037 684.182 298.15 683.895 319.26 C 672.478 312.467 661.001 305.778 649.463 299.194 C 641.557 294.901 635.519 291.435 627.984 286.562 L 682.223 254.882 z"/>
<path transform="translate(0,0)" fill="rgb(226,36,33)" d="M 688.977 253.499 C 706.749 263.858 725.718 273.823 743.121 284.425 C 736.072 287.978 728.77 292.228 721.84 296.098 C 710.884 302.582 699.934 309.206 688.731 315.242 C 688.996 294.563 688.224 274.276 688.977 253.499 z"/>
<path transform="translate(0,0)" fill="rgb(226,36,33)" d="M 812.88 288.961 C 815.371 292.645 813.952 403.771 814.255 419.792 C 771.367 444.834 728.682 470.223 686.205 495.956 C 683.956 492.984 684.929 373.38 684.949 362.987 C 696.853 356.606 710.877 347.874 722.809 340.982 L 812.88 288.961 z"/>
<path transform="translate(0,0)" fill="rgb(226,36,33)" d="M 1327.47 147.828 L 1329.13 148.278 C 1326.72 152.304 1276.48 181.126 1268.37 185.993 L 1130.68 268.057 C 1110.96 279.618 1091.3 291.292 1071.71 303.079 C 1058.74 310.877 1043.74 320.359 1030.29 326.806 C 1022.98 330.306 1010.92 334.199 1003.06 337.187 L 959.096 354.363 L 821.441 407.678 L 819.783 407.182 C 818.69 403.874 819.058 397.208 819.072 393.443 C 870.738 364.366 921.266 332.704 972.721 303.212 C 1001.6 286.661 1029.21 266.515 1060.33 254.451 C 1067.06 251.844 1073.76 249.166 1080.48 246.549 L 1140.74 223.107 C 1203.33 198.895 1265.58 173.8 1327.47 147.828 z"/>
<path transform="translate(0,0)" fill="rgb(238,114,43)" d="M 379.5 651.324 C 397.587 641.483 415.532 630.292 433.345 619.893 C 470.756 598.055 507.943 575.78 545.614 554.396 C 549.029 552.457 550.727 553.086 553.955 554.858 C 559.78 553.863 595.917 538.891 603.792 535.724 L 652.989 515.692 C 711.331 492.14 763.989 453.97 818.482 422.839 C 819.562 422.222 818.279 415.419 819.669 414.125 C 867.566 394.871 949.148 362.595 993.957 345.915 C 999.204 343.985 1004.48 342.129 1009.78 340.348 C 938.283 385.148 857.966 430.958 785.053 473.87 L 717.577 513.944 C 706.815 520.368 685.117 534.065 674.322 538.45 C 647.485 549.351 619.517 559.585 592.447 570.081 L 457.238 623.411 L 405.968 643.386 C 400.072 645.68 386.406 650.572 381.186 653.271 L 379.5 651.324 z"/>
<path transform="translate(0,0)" fill="rgb(132,209,187)" d="M 605.369 1197.81 C 658.765 1227.9 711.947 1258.38 764.912 1289.22 L 764.745 1517.14 C 757.847 1512.64 750.481 1508.73 743.261 1504.75 C 744.628 1493.68 743.871 1460.54 743.884 1447.58 L 743.966 1331.5 L 744.012 1301.88 C 720.135 1287.7 696.148 1273.7 672.052 1259.9 C 659.163 1252.48 639.73 1240.56 626.626 1234.46 C 625.661 1252.14 626.777 1278.82 626.767 1297.49 L 626.275 1438.36 C 619.34 1434.07 612.437 1429.57 605.036 1426.17 C 605.997 1400.62 605.432 1372.92 605.511 1347.1 C 605.803 1297.33 605.755 1247.57 605.369 1197.81 z"/>
<path transform="translate(0,0)" fill="rgb(144,91,67)" fill-opacity="0.988235" d="M 365.467 659.344 C 370.598 656.065 374.1 654.109 379.5 651.324 L 381.186 653.271 C 376.226 655.482 370.592 657.433 365.467 659.344 z"/>
<path transform="translate(0,0)" fill="url(#Gradient3)" d="M 1257.99 1794.24 L 1259.36 1796.63 L 1257.32 1799.92 C 1245.31 1807.63 1226.5 1817.19 1213.66 1824.39 L 1124.83 1874.49 C 1121.95 1872.66 1122.16 1872.78 1118.76 1872.38 C 1131.16 1863.92 1164.97 1845.98 1179.15 1838.16 C 1204.15 1824.38 1232.97 1806.84 1257.99 1794.24 z"/>
<path transform="translate(0,0)" fill="url(#Gradient2)" d="M 1542.12 1634.47 C 1581.13 1611.69 1620.43 1589.42 1660.01 1567.66 C 1660.26 1568.77 1660.81 1571.66 1661.23 1572.54 C 1634.43 1588.5 1605.91 1604.17 1578.62 1619.48 C 1563.69 1627.85 1541.36 1641.18 1526.27 1648.59 L 1526.46 1647.11 C 1530.13 1641.39 1539.76 1643.11 1542.12 1634.47 z"/>
<path transform="translate(0,0)" fill="url(#Gradient1)" d="M 1118.76 1872.38 C 1122.16 1872.78 1121.95 1872.66 1124.83 1874.49 C 1118.62 1878.03 1084.26 1898.06 1080.02 1899.53 C 1073.57 1899.38 1076.4 1901.85 1070.89 1899.46 C 1082.81 1891.31 1105.17 1880.07 1118.76 1872.38 z"/>
<path transform="translate(0,0)" fill="rgb(4,4,6)" fill-opacity="0.984314" d="M 1407.67 1709.69 C 1418.67 1703.8 1429.92 1697.28 1440.83 1691.14 L 1444.36 1694.73 C 1437.88 1698.44 1405.45 1717.44 1399.94 1719.37 L 1399.67 1718.03 C 1402.28 1714.46 1404.74 1716.45 1408.32 1712.47 L 1407.67 1709.69 z"/>
<path transform="translate(0,0)" fill="rgb(24,22,18)" fill-opacity="0.988235" d="M 1263.03 1791.21 L 1268.25 1794.05 C 1264.94 1795.84 1260.62 1798.35 1257.32 1799.92 L 1259.36 1796.63 L 1257.99 1794.24 C 1258.44 1793.86 1262.28 1791.65 1263.03 1791.21 z"/>
<path transform="translate(0,0)" fill="rgb(4,4,6)" fill-opacity="0.0117647" d="M 1661.8 1585.02 C 1665.08 1585.36 1668.55 1585.28 1671.11 1586.92 L 1670.07 1588.4 C 1666.25 1588.22 1664.94 1588.15 1661.23 1587.37 L 1661.8 1585.02 z"/>
</svg>