<svg version="1.1" xmlns="http://www.w3.org/2000/svg" style="display: block;" viewBox="0 0 2048 2048" width="1024" height="1024" preserveAspectRatio="none">
<path transform="translate(0,0)" fill="rgb(218,38,36)" d="M 624.869 315.702 C 661.856 295.068 698.797 271.688 735.366 250.467 C 751.255 241.246 781.391 265.024 796.602 273.992 C 876.037 320.829 954.211 370.218 1033.31 417.725 C 1077.32 443.759 1121.02 470.312 1164.4 497.377 C 1179.77 506.891 1205.78 520.811 1217.72 532.167 C 1225.43 542.86 1228.38 549.812 1231.81 562.71 C 1248.84 552.556 1255.3 553.307 1272.75 563.685 C 1289.69 573.752 1306.41 584.353 1323.22 594.613 C 1361.54 617.489 1399.72 640.616 1437.74 663.991 L 1649 792.363 C 1664.37 801.782 1711.81 827.636 1722.38 839.123 C 1743.1 862.792 1740.4 878.396 1740.18 908.222 C 1739.87 950.935 1741 994.028 1740 1036.71 C 1757.64 1039.67 1765.37 1045.61 1780.38 1054.77 C 1794.19 1062.57 1817.87 1076.63 1830.61 1085.71 C 1852.27 1102.72 1847.08 1128.93 1847.02 1154 L 1846.87 1234.65 L 1846.89 1390.51 C 1846.87 1414.74 1847.6 1444.36 1846.69 1468.04 C 1838.48 1473.13 1815.16 1486.44 1809.02 1491.13 C 1807.68 1509.62 1804.24 1532.69 1801.88 1551.41 C 1817.64 1561.05 1875.01 1592.49 1883.88 1603.68 C 1884.9 1604.97 1886.49 1607.58 1886.01 1609.26 C 1885.02 1612.77 1880.55 1615.63 1877.66 1617.52 C 1870.83 1622 1863.4 1625.56 1856.44 1629.82 C 1829.88 1646.14 1803.17 1662.22 1776.32 1678.05 L 1621.24 1770.18 C 1594.86 1785.48 1568.56 1800.93 1542.36 1816.53 C 1527.78 1825.15 1512.77 1835.4 1497.29 1842.24 C 1490.9 1845.06 1484.3 1846.2 1477.39 1844.67 C 1463.34 1841.55 1382.76 1789.15 1363.77 1777.61 L 1183.55 1668.61 L 416.412 1205.54 L 283.201 1125.02 C 259.034 1110.51 234.389 1095.89 210.409 1081.02 C 208.018 1079.54 203.346 1075.3 202.122 1072.75 C 200.473 1069.32 200.706 1069.54 201.415 1066.39 C 207.806 1059.1 243.07 1040.59 253.397 1035.38 C 251.353 1018.11 248.904 1000.66 246.629 983.405 C 237.426 976.881 213.01 966.878 211.449 955.812 C 208.653 935.991 209.706 902.521 209.664 882.072 L 209.719 733.309 C 209.769 696.436 209.432 659.259 209.839 622.393 C 209.905 616.409 210.225 611.648 212.943 606.265 C 216.993 600.967 217.893 599.987 223.305 596.045 C 313.288 543.657 402.857 490.559 492.003 436.758 L 562.334 394.006 C 574.458 386.515 602.296 368.295 614.744 363.913 C 617.267 347.747 607.437 325.784 624.869 315.702 z"/>
<path transform="translate(0,0)" fill="rgb(244,84,42)" d="M 1231.81 562.71 C 1248.84 552.556 1255.3 553.307 1272.75 563.685 C 1289.69 573.752 1306.41 584.353 1323.22 594.613 C 1361.54 617.489 1399.72 640.616 1437.74 663.991 L 1649 792.363 C 1664.37 801.782 1711.81 827.636 1722.38 839.123 C 1743.1 862.792 1740.4 878.396 1740.18 908.222 C 1739.87 950.935 1741 994.028 1740 1036.71 C 1757.64 1039.67 1765.37 1045.61 1780.38 1054.77 C 1794.19 1062.57 1817.87 1076.63 1830.61 1085.71 C 1852.27 1102.72 1847.08 1128.93 1847.02 1154 L 1846.87 1234.65 L 1846.89 1390.51 C 1846.87 1414.74 1847.6 1444.36 1846.69 1468.04 C 1838.48 1473.13 1815.16 1486.44 1809.02 1491.13 C 1804.43 1492.62 1754.24 1522.56 1747.98 1526.28 C 1730.29 1537.18 1711.17 1547.07 1694.19 1557.66 L 1491.72 1676.26 C 1474.32 1686.37 1461.54 1695.12 1442.99 1703.76 C 1438.61 1703.43 1434.94 1701.13 1430.9 1699.15 C 1409.82 1686.75 1389.24 1673.69 1368.3 1661.41 C 1356.52 1654.72 1344.84 1647.86 1333.25 1640.83 L 1333.98 1506.45 L 1319.22 1510.56 C 1325.48 1493.55 1322.89 1468.67 1323.17 1450.34 C 1323.62 1420.52 1325.92 1407.01 1306.2 1383.35 C 1303.53 1380.99 1284.37 1370.39 1279.83 1367.58 C 1250.16 1348.92 1220.25 1330.65 1190.11 1312.76 L 965.907 1176.52 C 930.256 1154.94 885.193 1130 851.324 1107.69 L 850.16 1105.32 C 844.992 1094.64 851.145 1088.43 859.918 1082.77 C 875.339 1072.82 891.378 1063.82 907.138 1054.4 L 997.221 1000.3 L 1068.12 957.59 C 1093.33 942.696 1111.12 927.428 1141.44 939.427 C 1141.39 936.956 1141.4 935.568 1141.6 933.11 L 1143.82 931.405 C 1142.2 930.129 1140.6 928.81 1139.05 927.449 C 1128.78 918.379 1122.72 908.281 1121.95 894.392 C 1120.81 881.106 1121.15 864.27 1121.14 850.694 L 1121.06 786.17 L 1121.04 695.224 C 1120.98 676.839 1119.4 652.082 1122.31 633.587 C 1123.03 628.989 1127.77 625.665 1131.88 623.66 C 1153.35 612.146 1178.36 595.128 1199.6 582.609 C 1205.72 578.996 1226.61 564.732 1231.81 562.71 z"/>
<path transform="translate(0,0)" fill="rgb(249,153,42)" d="M 1231.81 562.71 C 1248.84 552.556 1255.3 553.307 1272.75 563.685 C 1289.69 573.752 1306.41 584.353 1323.22 594.613 C 1361.54 617.489 1399.72 640.616 1437.74 663.991 L 1649 792.363 C 1664.37 801.782 1711.81 827.636 1722.38 839.123 C 1743.1 862.792 1740.4 878.396 1740.18 908.222 C 1739.87 950.935 1741 994.028 1740 1036.71 C 1725.81 1040.36 1717.74 1046.38 1705.22 1053.69 C 1677.43 1069.92 1650.02 1087.9 1621.85 1103.34 L 1621.22 1103.23 C 1618.89 1105.03 1616.42 1107.05 1613.95 1108.61 C 1613.67 1107.66 1613.38 1106.72 1613.07 1105.78 C 1601.7 1070.28 1567.81 1009.68 1542.88 981.249 C 1538.96 976.777 1532.74 973.627 1527.41 970.919 C 1521.14 959.765 1519.73 956.24 1510.38 947.379 C 1466.05 928.399 1396.82 1042.82 1378 1074.31 L 1373.97 1080.61 C 1349.46 1067.41 1322.94 1050.13 1298.99 1035.42 L 1191.45 970.213 C 1174.7 960.045 1158.34 949.261 1141.44 939.427 C 1141.39 936.956 1141.4 935.568 1141.6 933.11 L 1143.82 931.405 C 1142.2 930.129 1140.6 928.81 1139.05 927.449 C 1128.78 918.379 1122.72 908.281 1121.95 894.392 C 1120.81 881.106 1121.15 864.27 1121.14 850.694 L 1121.06 786.17 L 1121.04 695.224 C 1120.98 676.839 1119.4 652.082 1122.31 633.587 C 1123.03 628.989 1127.77 625.665 1131.88 623.66 C 1153.35 612.146 1178.36 595.128 1199.6 582.609 C 1205.72 578.996 1226.61 564.732 1231.81 562.71 z"/>
<path transform="translate(0,0)" fill="rgb(251,200,110)" d="M 1231.81 562.71 C 1248.84 552.556 1255.3 553.307 1272.75 563.685 C 1289.69 573.752 1306.41 584.353 1323.22 594.613 C 1361.54 617.489 1399.72 640.616 1437.74 663.991 L 1649 792.363 C 1664.37 801.782 1711.81 827.636 1722.38 839.123 C 1722.77 843.393 1723.92 848.388 1722.25 851.969 C 1711.57 862.6 1624.36 912.051 1609.63 916.235 C 1597.12 901.817 1522.83 859.549 1502.62 847.236 L 1313.48 732.114 L 1196.02 660.24 C 1180.08 650.584 1147.67 629.897 1131.88 623.66 C 1153.35 612.146 1178.36 595.128 1199.6 582.609 C 1205.72 578.996 1226.61 564.732 1231.81 562.71 z"/>
<path transform="translate(0,0)" fill="rgb(224,110,33)" d="M 1722.38 839.123 C 1743.1 862.792 1740.4 878.396 1740.18 908.222 C 1739.87 950.935 1741 994.028 1740 1036.71 C 1725.81 1040.36 1717.74 1046.38 1705.22 1053.69 C 1677.43 1069.92 1650.02 1087.9 1621.85 1103.34 L 1621.22 1103.23 C 1619.09 1048.28 1623.36 992.175 1619.64 937.316 C 1619.27 931.784 1612.52 921.108 1609.63 916.235 C 1624.36 912.051 1711.57 862.6 1722.25 851.969 C 1723.92 848.388 1722.77 843.393 1722.38 839.123 z"/>
<path transform="translate(0,0)" fill="rgb(218,38,36)" d="M 1143.82 931.405 C 1162.69 944.027 1185.63 957.204 1205.33 969.097 L 1318.64 1037.85 C 1338.1 1049.68 1359.02 1061.82 1378 1074.31 L 1373.97 1080.61 C 1349.46 1067.41 1322.94 1050.13 1298.99 1035.42 L 1191.45 970.213 C 1174.7 960.045 1158.34 949.261 1141.44 939.427 C 1141.39 936.956 1141.4 935.568 1141.6 933.11 L 1143.82 931.405 z"/>
<path transform="translate(0,0)" fill="rgb(173,25,23)" d="M 1830.61 1085.71 C 1852.27 1102.72 1847.08 1128.93 1847.02 1154 L 1846.87 1234.65 L 1846.89 1390.51 C 1846.87 1414.74 1847.6 1444.36 1846.69 1468.04 C 1838.48 1473.13 1815.16 1486.44 1809.02 1491.13 C 1804.43 1492.62 1754.24 1522.56 1747.98 1526.28 C 1730.29 1537.18 1711.17 1547.07 1694.19 1557.66 L 1491.72 1676.26 C 1474.32 1686.37 1461.54 1695.12 1442.99 1703.76 C 1443.97 1681.76 1443.06 1652.69 1443.04 1630.04 L 1442.94 1483.96 L 1442.92 1395.99 C 1442.9 1380.05 1443.41 1362.28 1441.65 1346.54 C 1441.03 1341 1435.3 1333.7 1431.94 1329.09 C 1455.9 1328.95 1495.21 1301.26 1516.56 1288.6 L 1615.03 1230.31 L 1731.65 1160.71 C 1760.5 1143.68 1789.59 1127.03 1818.02 1109.3 C 1829.63 1102.06 1832.42 1099.18 1830.61 1085.71 z"/>
<path transform="translate(0,0)" fill="rgb(35,176,163)" d="M 1378 1074.31 C 1396.82 1042.82 1466.05 928.399 1510.38 947.379 C 1519.73 956.24 1521.14 959.765 1527.41 970.919 C 1532.74 973.627 1538.96 976.777 1542.88 981.249 C 1567.81 1009.68 1601.7 1070.28 1613.07 1105.78 C 1613.38 1106.72 1613.67 1107.66 1613.95 1108.61 C 1602.35 1115.01 1577.89 1127.35 1568.52 1135.43 C 1554.94 1143.01 1541.73 1151.98 1527.89 1158.64 C 1521.81 1164.37 1510.98 1169.1 1503.87 1173.87 C 1483.82 1187.34 1455.78 1200.98 1436.34 1214.08 C 1428.1 1219.01 1404.09 1234.5 1397.28 1237.57 C 1391.5 1242.2 1358.43 1261.33 1350.9 1265.6 C 1342.62 1229.47 1345.92 1168.56 1351.73 1131.8 C 1354.06 1117.09 1365.94 1093.33 1373.97 1080.61 L 1378 1074.31 z"/>
<path transform="translate(0,0)" fill="rgb(12,106,101)" d="M 1510.38 947.379 C 1519.73 956.24 1521.14 959.765 1527.41 970.919 C 1532.74 973.627 1538.96 976.777 1542.88 981.249 C 1567.81 1009.68 1601.7 1070.28 1613.07 1105.78 C 1613.38 1106.72 1613.67 1107.66 1613.95 1108.61 C 1602.35 1115.01 1577.89 1127.35 1568.52 1135.43 C 1554.94 1143.01 1541.73 1151.98 1527.89 1158.64 C 1521.81 1164.37 1510.98 1169.1 1503.87 1173.87 C 1483.82 1187.34 1455.78 1200.98 1436.34 1214.08 C 1428.1 1219.01 1404.09 1234.5 1397.28 1237.57 C 1415.06 1203.38 1452.8 1150.57 1480.94 1123 C 1484.38 1119.64 1497.26 1112.32 1502.48 1108.82 C 1508.95 1089.22 1503.06 1049.5 1504.71 1026.92 C 1506.63 1000.66 1510.54 973.454 1510.38 947.379 z"/>
<path transform="translate(0,0)" fill="rgb(224,110,33)" d="M 1527.41 970.919 C 1532.74 973.627 1538.96 976.777 1542.88 981.249 C 1567.81 1009.68 1601.7 1070.28 1613.07 1105.78 C 1613.38 1106.72 1613.67 1107.66 1613.95 1108.61 C 1602.35 1115.01 1577.89 1127.35 1568.52 1135.43 C 1554.94 1143.01 1541.73 1151.98 1527.89 1158.64 C 1537.83 1122.21 1541.79 1051.66 1537.9 1013.25 C 1536.51 999.49 1531.95 984.056 1527.41 970.919 z"/>
<path transform="translate(0,0)" fill="rgb(218,38,36)" d="M 1740 1036.71 C 1757.64 1039.67 1765.37 1045.61 1780.38 1054.77 C 1759.11 1073.82 1714.26 1095.15 1689.04 1111.23 C 1682.39 1115.47 1625.88 1107.23 1621.85 1103.34 C 1650.02 1087.9 1677.43 1069.92 1705.22 1053.69 C 1717.74 1046.38 1725.81 1040.36 1740 1036.71 z"/>
<path transform="translate(0,0)" fill="rgb(218,38,36)" d="M 1568.52 1135.43 C 1567.12 1151.64 1561.53 1165.14 1557.47 1180.02 C 1547.99 1214.73 1536.04 1230.62 1497.38 1223.98 C 1480.36 1221.06 1452.08 1220.46 1436.34 1214.08 C 1455.78 1200.98 1483.82 1187.34 1503.87 1173.87 C 1510.98 1169.1 1521.81 1164.37 1527.89 1158.64 C 1541.73 1151.98 1554.94 1143.01 1568.52 1135.43 z"/>
<path transform="translate(0,0)" fill="rgb(173,25,23)" d="M 1306.2 1383.35 C 1317.76 1386.95 1321.62 1386.4 1333.97 1384.46 L 1333.98 1506.45 L 1319.22 1510.56 C 1325.48 1493.55 1322.89 1468.67 1323.17 1450.34 C 1323.62 1420.52 1325.92 1407.01 1306.2 1383.35 z"/>
<path transform="translate(0,0)" fill="rgb(173,25,23)" d="M 246.629 983.405 C 267.566 995.189 289.739 1008.92 310.284 1021.59 L 318.252 1025.85 C 321.231 1027.73 324.576 1029.95 327.648 1031.54 L 364.376 1053.82 L 998.641 1437.4 L 1203.34 1561.31 C 1241.16 1584.21 1285.13 1609.86 1321.8 1633.82 C 1325.75 1636.46 1329.17 1638.47 1333.25 1640.83 C 1344.84 1647.86 1356.52 1654.72 1368.3 1661.41 C 1389.24 1673.69 1409.82 1686.75 1430.9 1699.15 C 1434.94 1701.13 1438.61 1703.43 1442.99 1703.76 C 1461.54 1695.12 1474.32 1686.37 1491.72 1676.26 L 1694.19 1557.66 C 1711.17 1547.07 1730.29 1537.18 1747.98 1526.28 C 1754.24 1522.56 1804.43 1492.62 1809.02 1491.13 C 1807.68 1509.62 1804.24 1532.69 1801.88 1551.41 C 1817.64 1561.05 1875.01 1592.49 1883.88 1603.68 C 1884.9 1604.97 1886.49 1607.58 1886.01 1609.26 C 1885.02 1612.77 1880.55 1615.63 1877.66 1617.52 C 1870.83 1622 1863.4 1625.56 1856.44 1629.82 C 1829.88 1646.14 1803.17 1662.22 1776.32 1678.05 L 1621.24 1770.18 C 1594.86 1785.48 1568.56 1800.93 1542.36 1816.53 C 1527.78 1825.15 1512.77 1835.4 1497.29 1842.24 C 1490.9 1845.06 1484.3 1846.2 1477.39 1844.67 C 1463.34 1841.55 1382.76 1789.15 1363.77 1777.61 L 1183.55 1668.61 L 416.412 1205.54 L 283.201 1125.02 C 259.034 1110.51 234.389 1095.89 210.409 1081.02 C 208.018 1079.54 203.346 1075.3 202.122 1072.75 C 200.473 1069.32 200.706 1069.54 201.415 1066.39 C 207.806 1059.1 243.07 1040.59 253.397 1035.38 C 251.353 1018.11 248.904 1000.66 246.629 983.405 z"/>
<path transform="translate(0,0)" fill="rgb(35,176,163)" d="M 246.629 983.405 C 267.566 995.189 289.739 1008.92 310.284 1021.59 L 318.252 1025.85 C 321.231 1027.73 324.576 1029.95 327.648 1031.54 L 364.376 1053.82 C 363.147 1062.14 361.976 1070.98 360.545 1079.22 C 345.304 1089.48 325.878 1100.05 309.86 1109.8 C 300.645 1106.44 268.955 1085.81 259.859 1080.05 C 257.164 1066.82 255.184 1048.91 253.397 1035.38 C 251.353 1018.11 248.904 1000.66 246.629 983.405 z"/>
<path transform="translate(0,0)" fill="rgb(12,106,101)" d="M 310.284 1021.59 L 318.252 1025.85 C 321.231 1027.73 324.576 1029.95 327.648 1031.54 L 364.376 1053.82 C 363.147 1062.14 361.976 1070.98 360.545 1079.22 C 345.304 1089.48 325.878 1100.05 309.86 1109.8 C 310.489 1105.5 310.699 1101.21 310.684 1096.87 C 310.597 1071.79 311.351 1046.65 310.284 1021.59 z"/>
<path transform="translate(0,0)" fill="rgb(12,106,101)" d="M 1747.98 1526.28 C 1754.24 1522.56 1804.43 1492.62 1809.02 1491.13 C 1807.68 1509.62 1804.24 1532.69 1801.88 1551.41 L 1799.35 1572.84 C 1784.74 1583.24 1763.53 1593.32 1747.83 1602.95 C 1738.62 1598.31 1705.85 1578.14 1698.09 1572.32 C 1696.17 1567.21 1695.36 1562.95 1694.19 1557.66 C 1711.17 1547.07 1730.29 1537.18 1747.98 1526.28 z"/>
<path transform="translate(0,0)" fill="rgb(35,176,163)" d="M 1694.19 1557.66 C 1711.17 1547.07 1730.29 1537.18 1747.98 1526.28 C 1748.27 1544.6 1749.23 1586.11 1747.83 1602.95 C 1738.62 1598.31 1705.85 1578.14 1698.09 1572.32 C 1696.17 1567.21 1695.36 1562.95 1694.19 1557.66 z"/>
<path transform="translate(0,0)" fill="rgb(35,176,163)" d="M 1368.3 1661.41 C 1389.24 1673.69 1409.82 1686.75 1430.9 1699.15 L 1431.01 1753.79 C 1431 1762.61 1431.35 1777.24 1430.4 1785.59 C 1423.01 1783.87 1388.87 1761.35 1380.38 1755.99 C 1375.91 1730.13 1371.13 1688.13 1368.3 1661.41 z"/>
<path transform="translate(0,0)" fill="rgb(12,106,101)" d="M 1491.72 1676.26 C 1491.82 1683.48 1489.96 1692.26 1489.09 1699.56 C 1487.04 1716.63 1483.34 1735.45 1482.74 1752.59 C 1475.11 1760.08 1441.74 1778.44 1430.4 1785.59 C 1431.35 1777.24 1431 1762.61 1431.01 1753.79 L 1430.9 1699.15 C 1434.94 1701.13 1438.61 1703.43 1442.99 1703.76 C 1461.54 1695.12 1474.32 1686.37 1491.72 1676.26 z"/>
<path transform="translate(0,0)" fill="rgb(249,153,42)" d="M 624.869 315.702 C 661.856 295.068 698.797 271.688 735.366 250.467 C 751.255 241.246 781.391 265.024 796.602 273.992 C 876.037 320.829 954.211 370.218 1033.31 417.725 C 1077.32 443.759 1121.02 470.312 1164.4 497.377 C 1179.77 506.891 1205.78 520.811 1217.72 532.167 C 1225.43 542.86 1228.38 549.812 1231.81 562.71 C 1226.61 564.732 1205.72 578.996 1199.6 582.609 C 1178.36 595.128 1153.35 612.146 1131.88 623.66 C 1127.77 625.665 1123.03 628.989 1122.31 633.587 C 1119.4 652.082 1120.98 676.839 1121.04 695.224 L 1121.06 786.17 L 1121.14 850.694 C 1121.15 864.27 1120.81 881.106 1121.95 894.392 L 1120.41 891.674 C 1116.57 891.57 1110.15 895.275 1106.35 897.043 C 1101.95 898.094 1095.61 899.905 1091.6 897.911 C 1069.05 886.72 1042.75 869.398 1021.22 856.077 C 981.567 831.761 941.758 807.695 901.799 783.879 C 883.991 773.224 864.966 760.468 846.765 750.876 C 822.408 735.965 783.842 711.373 759.804 698.873 C 758.657 661.444 755.731 628.718 755.771 590.786 C 755.811 573.109 756.079 555.434 756.575 537.764 C 756.986 521.821 757.73 504.942 755.744 489.086 C 754.746 481.119 750.515 475.567 745.919 469.297 L 745.057 468.749 L 743.606 467.857 C 726.279 457.062 698.63 460.524 678.603 461.491 C 657.394 462.723 636.166 463.612 614.927 464.155 C 614.262 431.476 614.755 396.748 614.744 363.913 C 617.267 347.747 607.437 325.784 624.869 315.702 z"/>
<path transform="translate(0,0)" fill="rgb(251,200,110)" d="M 624.869 315.702 C 661.856 295.068 698.797 271.688 735.366 250.467 C 751.255 241.246 781.391 265.024 796.602 273.992 C 876.037 320.829 954.211 370.218 1033.31 417.725 C 1077.32 443.759 1121.02 470.312 1164.4 497.377 C 1179.77 506.891 1205.78 520.811 1217.72 532.167 C 1218.36 535.984 1219.29 539.066 1218.07 542.686 C 1210.57 552.433 1121.43 604.458 1106.91 608.954 C 1101.99 608.129 1093.41 599.225 1087.91 595.442 C 1077.24 588.107 1066.6 581.567 1055.62 574.787 L 778.532 406.715 L 684.513 349.563 C 666.076 338.49 644.078 324.56 624.869 315.702 z"/>
<path transform="translate(0,0)" fill="rgb(224,110,33)" d="M 745.919 469.297 C 760.836 471.78 770.575 475.917 779.531 488.609 C 812.765 535.708 848.768 693.062 846.765 750.876 C 822.408 735.965 783.842 711.373 759.804 698.873 C 758.657 661.444 755.731 628.718 755.771 590.786 C 755.811 573.109 756.079 555.434 756.575 537.764 C 756.986 521.821 757.73 504.942 755.744 489.086 C 754.746 481.119 750.515 475.567 745.919 469.297 z"/>
<path transform="translate(0,0)" fill="rgb(224,110,33)" d="M 1217.72 532.167 C 1225.43 542.86 1228.38 549.812 1231.81 562.71 C 1226.61 564.732 1205.72 578.996 1199.6 582.609 C 1178.36 595.128 1153.35 612.146 1131.88 623.66 C 1127.77 625.665 1123.03 628.989 1122.31 633.587 C 1119.4 652.082 1120.98 676.839 1121.04 695.224 L 1121.06 786.17 L 1121.14 850.694 C 1121.15 864.27 1120.81 881.106 1121.95 894.392 L 1120.41 891.674 C 1116.57 891.57 1110.15 895.275 1106.35 897.043 C 1113.36 881.79 1111.06 858.82 1111.05 841.825 L 1111.06 762.316 L 1111.08 675.159 C 1111.09 660.624 1111.19 645.529 1110.91 630.993 C 1110.81 625.821 1104.22 614.855 1103.94 609.433 L 1106.91 608.954 C 1121.43 604.458 1210.57 552.433 1218.07 542.686 C 1219.29 539.066 1218.36 535.984 1217.72 532.167 z"/>
<path transform="translate(0,0)" fill="rgb(244,84,42)" d="M 223.305 596.045 C 313.288 543.657 402.857 490.559 492.003 436.758 L 562.334 394.006 C 574.458 386.515 602.296 368.295 614.744 363.913 C 614.755 396.748 614.262 431.476 614.927 464.155 C 636.166 463.612 657.394 462.723 678.603 461.491 C 698.63 460.524 726.279 457.062 743.606 467.857 L 745.057 468.749 L 745.919 469.297 C 750.515 475.567 754.746 481.119 755.744 489.086 C 757.73 504.942 756.986 521.821 756.575 537.764 C 756.079 555.434 755.811 573.109 755.771 590.786 C 755.731 628.718 758.657 661.444 759.804 698.873 C 759.045 748.711 724.309 744.082 685.792 744.92 L 629.25 746.176 L 545.98 748.032 C 527.492 748.317 494.794 750.381 478.663 743.713 C 465.382 733.296 463.374 728.348 461.237 712.582 C 447.844 716.733 370.864 768.358 353.892 777.876 C 351.493 779.222 346.541 783.49 345.283 786.382 C 343.808 789.771 342.933 792.895 344.389 796.697 C 344.7 797.511 345.474 798.347 346.013 798.991 C 342.647 802.706 331.028 803.55 329.926 808.968 C 324.501 835.644 329.91 869.816 327.411 897.279 C 327.3 898.495 319.676 899.148 317.665 899.324 C 318.324 941.678 317.213 983.356 318.252 1025.85 L 310.284 1021.59 C 289.739 1008.92 267.566 995.189 246.629 983.405 C 237.426 976.881 213.01 966.878 211.449 955.812 C 208.653 935.991 209.706 902.521 209.664 882.072 L 209.719 733.309 C 209.769 696.436 209.432 659.259 209.839 622.393 C 209.905 616.409 210.225 611.648 212.943 606.265 C 216.993 600.967 217.893 599.987 223.305 596.045 z"/>
<path transform="translate(0,0)" fill="rgb(35,176,163)" d="M 614.927 464.155 C 636.166 463.612 657.394 462.723 678.603 461.491 C 698.63 460.524 726.279 457.062 743.606 467.857 L 745.057 468.749 L 745.919 469.297 C 750.515 475.567 754.746 481.119 755.744 489.086 C 757.73 504.942 756.986 521.821 756.575 537.764 C 756.079 555.434 755.811 573.109 755.771 590.786 C 755.731 628.718 758.657 661.444 759.804 698.873 C 759.045 748.711 724.309 744.082 685.792 744.92 L 629.25 746.176 L 545.98 748.032 C 527.492 748.317 494.794 750.381 478.663 743.713 C 465.382 733.296 463.374 728.348 461.237 712.582 C 459.43 667.321 464.445 623.142 462.121 576.237 C 461.248 565.182 460.527 554.116 459.956 543.042 C 456.935 484.933 454.215 461.045 522.666 463.924 C 528.947 464.188 536.993 463.987 543.409 464.04 C 567.247 464.392 591.089 464.431 614.927 464.155 z"/>
<path transform="translate(0,0)" fill="rgb(173,25,23)" d="M 308.876 660.162 C 314.648 660.138 318.063 660.204 323.354 657.849 C 341.452 649.795 359.98 637.625 377.021 627.346 L 462.121 576.237 C 464.445 623.142 459.43 667.321 461.237 712.582 C 447.844 716.733 370.864 768.358 353.892 777.876 C 351.493 779.222 346.541 783.49 345.283 786.382 C 343.808 789.771 342.933 792.895 344.389 796.697 C 344.7 797.511 345.474 798.347 346.013 798.991 C 342.647 802.706 331.028 803.55 329.926 808.968 C 324.501 835.644 329.91 869.816 327.411 897.279 C 327.3 898.495 319.676 899.148 317.665 899.324 C 318.098 850.768 318.2 802.211 317.971 753.654 C 318.004 729.074 318.946 701.53 316.825 677.076 C 316.401 672.182 311.527 664.693 308.876 660.162 z"/>
<path transform="translate(0,0)" fill="rgb(173,25,23)" d="M 212.943 606.265 C 216.993 600.967 217.893 599.987 223.305 596.045 C 223.85 600.431 224.82 602.458 223.301 606.143 C 220.385 607.858 216.514 606.762 212.943 606.265 z"/>
<path transform="translate(0,0)" fill="rgb(244,84,42)" d="M 759.804 698.873 C 783.842 711.373 822.408 735.965 846.765 750.876 C 864.966 760.468 883.991 773.224 901.799 783.879 C 941.758 807.695 981.567 831.761 1021.22 856.077 C 1042.75 869.398 1069.05 886.72 1091.6 897.911 C 1095.61 899.905 1101.95 898.094 1106.35 897.043 C 1110.15 895.275 1116.57 891.57 1120.41 891.674 L 1121.95 894.392 C 1122.72 908.281 1128.78 918.379 1139.05 927.449 C 1140.6 928.81 1142.2 930.129 1143.82 931.405 L 1141.6 933.11 C 1141.4 935.568 1141.39 936.956 1141.44 939.427 C 1111.12 927.428 1093.33 942.696 1068.12 957.59 L 997.221 1000.3 L 907.138 1054.4 C 891.378 1063.82 875.339 1072.82 859.918 1082.77 C 851.145 1088.43 844.992 1094.64 850.16 1105.32 L 851.324 1107.69 C 849.803 1107.52 848.278 1107.39 846.751 1107.29 C 842.121 1107.02 837.402 1107.44 833.906 1110.83 C 827.378 1117.16 830.092 1183.85 830.164 1197.6 C 825.065 1199.8 819.391 1201.21 814.016 1202.74 C 816.621 1196.23 818.583 1188.69 818.435 1181.34 C 817.891 1154.34 821.851 1124.66 816.007 1098.23 C 814.765 1092.62 804.993 1081.37 801.15 1076.28 C 802.242 1077.24 780.137 1064.15 779.02 1063.46 C 754.945 1048.5 730.741 1033.75 706.411 1019.21 L 440.11 857.576 C 422.957 846.975 405.723 836.508 388.408 826.174 C 374.436 817.894 358.141 809.36 346.013 798.991 C 345.474 798.347 344.7 797.511 344.389 796.697 C 342.933 792.895 343.808 789.771 345.283 786.382 C 346.541 783.49 351.493 779.222 353.892 777.876 C 370.864 768.358 447.844 716.733 461.237 712.582 C 463.374 728.348 465.382 733.296 478.663 743.713 C 494.794 750.381 527.492 748.317 545.98 748.032 L 629.25 746.176 L 685.792 744.92 C 724.309 744.082 759.045 748.711 759.804 698.873 z"/>
<path transform="translate(0,0)" fill="rgb(173,25,23)" d="M 759.804 698.873 C 783.842 711.373 822.408 735.965 846.765 750.876 C 864.966 760.468 883.991 773.224 901.799 783.879 C 941.758 807.695 981.567 831.761 1021.22 856.077 C 1042.75 869.398 1069.05 886.72 1091.6 897.911 C 1095.61 899.905 1101.95 898.094 1106.35 897.043 C 1110.15 895.275 1116.57 891.57 1120.41 891.674 L 1121.95 894.392 C 1122.72 908.281 1128.78 918.379 1139.05 927.449 C 1140.6 928.81 1142.2 930.129 1143.82 931.405 L 1141.6 933.11 C 1141.4 935.568 1141.39 936.956 1141.44 939.427 C 1111.12 927.428 1093.33 942.696 1068.12 957.59 L 997.221 1000.3 L 907.138 1054.4 C 891.378 1063.82 875.339 1072.82 859.918 1082.77 C 851.145 1088.43 844.992 1094.64 850.16 1105.32 L 851.324 1107.69 C 849.803 1107.52 848.278 1107.39 846.751 1107.29 C 842.121 1107.02 837.402 1107.44 833.906 1110.83 C 827.378 1117.16 830.092 1183.85 830.164 1197.6 C 825.065 1199.8 819.391 1201.21 814.016 1202.74 C 816.621 1196.23 818.583 1188.69 818.435 1181.34 C 817.891 1154.34 821.851 1124.66 816.007 1098.23 C 814.765 1092.62 804.993 1081.37 801.15 1076.28 C 823.907 1082.56 833.445 1080.41 853.829 1068.58 C 900.175 1041.71 945.94 1013.71 991.649 985.757 L 1047.97 951.677 C 1060.01 944.44 1091.77 930.591 1087.67 915.036 C 1086.5 910.599 1083.77 905.418 1079.96 902.652 C 1057.51 886.352 1032.93 872.853 1009.26 858.341 L 840.632 756.465 C 815.894 760.312 789.083 760.358 764.039 760.797 L 684.631 762.284 L 582.9 763.956 C 557.587 764.224 531.024 764.99 505.854 761.998 C 495.623 760.782 489.956 755.543 483.507 748.181 C 480.318 746.87 481.094 746.905 478.663 743.713 C 494.794 750.381 527.492 748.317 545.98 748.032 L 629.25 746.176 L 685.792 744.92 C 724.309 744.082 759.045 748.711 759.804 698.873 z"/>
<path transform="translate(0,0)" fill="rgb(218,38,36)" d="M 346.013 798.991 C 345.474 798.347 344.7 797.511 344.389 796.697 C 342.933 792.895 343.808 789.771 345.283 786.382 C 346.541 783.49 351.493 779.222 353.892 777.876 C 370.864 768.358 447.844 716.733 461.237 712.582 C 463.374 728.348 465.382 733.296 478.663 743.713 C 481.094 746.905 480.318 746.87 483.507 748.181 C 472.757 754.595 462.128 761.208 451.625 768.019 C 434.411 779.339 411.746 797.258 392.18 803.542 C 382.728 806.577 351.256 796.712 346.013 798.991 z"/>
<path transform="translate(0,0)" fill="rgb(244,84,42)" d="M 327.682 921.481 C 337.529 925.941 356.594 938.257 366.941 944.446 L 452.956 996.446 L 748.783 1176.62 L 1116.86 1399.2 C 1161.72 1426.26 1206.44 1453.55 1251.01 1481.08 C 1270.7 1493.08 1305.49 1512.59 1322.51 1524.77 C 1322.9 1536.04 1323.4 1629.35 1321.8 1633.82 C 1285.13 1609.86 1241.16 1584.21 1203.34 1561.31 L 998.641 1437.4 L 364.376 1053.82 L 327.648 1031.54 C 328.256 994.857 328.268 958.166 327.682 921.481 z"/>
</svg>