<svg version="1.1" xmlns="http://www.w3.org/2000/svg" style="display: block;" viewBox="0 0 2048 2048" width="1024" height="1024" preserveAspectRatio="none">
<defs>
	<linearGradient id="Gradient1" gradientUnits="userSpaceOnUse" x1="1065.05" y1="805.793" x2="984.695" y2="665.253">
		<stop class="stop0" offset="0" stop-opacity="1" stop-color="rgb(242,118,54)"/>
		<stop class="stop1" offset="1" stop-opacity="1" stop-color="rgb(255,182,78)"/>
	</linearGradient>
</defs>
<path transform="translate(0,0)" fill="rgb(67,27,16)" d="M 916.605 249.78 C 924.31 250.586 947.168 265.121 954.914 269.775 C 956.608 341.29 955.208 417.532 955.552 489.556 C 974.251 478.455 998.297 466.55 1017.87 455.767 L 1187.91 361.893 C 1199.89 366.892 1231.22 385.514 1243.94 392.606 L 1348.07 449.949 C 1460.32 511.593 1572.26 573.806 1683.88 636.585 L 1683.87 701.461 C 1677.34 706.04 1670.15 709.76 1663.14 713.591 C 1663.33 728.021 1663.45 742.452 1663.49 756.883 C 1684.62 745.133 1717.64 725.498 1739.06 716.007 C 1747.77 719.978 1767.81 731.309 1775.91 736.542 L 1776.02 1353.29 C 1767.04 1359.66 1750.26 1368.47 1740.38 1373.83 C 1729.19 1368.21 1715.88 1360.22 1704.81 1353.93 C 1703.81 1291.59 1706.54 1225.04 1704.4 1163.33 C 1691.01 1170.04 1676.13 1178.86 1662.94 1186.3 C 1663.17 1194.5 1663 1203.34 1663 1211.59 C 1643.35 1222.03 1623.8 1232.67 1604.36 1243.51 C 1597.84 1240.14 1589.44 1234.67 1583.02 1230.74 L 1556.03 1245.21 L 1556.12 1391.49 C 1556.13 1414.55 1555.17 1449.12 1556.92 1471.46 C 1546.37 1478.46 1533.43 1485.17 1522.23 1491.23 C 1513.52 1488.93 1493.89 1477.35 1485.35 1472.59 C 1486.85 1408.53 1485.91 1335.83 1485.09 1271.68 C 1479.49 1268.68 1473.86 1265.73 1468.21 1262.84 C 1467.23 1253.76 1467.3 1247.28 1467.4 1238.08 C 1445.59 1226.28 1423.78 1213.74 1401.84 1202.31 C 1402.79 1230.25 1402.28 1260.72 1402.31 1288.84 L 1402.12 1461.83 C 1402.12 1491.27 1401.06 1529.22 1402.81 1557.82 C 1393.61 1563.88 1376.79 1573.43 1366.94 1578.21 C 1356.11 1573.22 1341.12 1564.74 1331.06 1558.3 C 1330.13 1537.88 1330.78 1512.16 1330.76 1491.24 L 1330.76 1367.49 C 1283.14 1391.7 1229.83 1422.59 1182.74 1448.88 L 1183.08 1678.73 C 1171.78 1684.93 1158.45 1694.17 1146.77 1698.92 C 1135.08 1692.63 1123.46 1686.2 1111.93 1679.62 C 1110.69 1652.2 1111.1 1623.94 1111.1 1596.42 L 1111.08 1469.14 C 1109.88 1467.91 1103.52 1464.63 1101.61 1463.58 C 1101.9 1456.39 1103.82 1447.51 1096.88 1443.57 C 1085.59 1437.17 1074.14 1431.08 1062.76 1424.85 L 997.369 1389 C 984.757 1382.17 968.134 1373.79 956.191 1366.34 L 955.12 1365.66 C 956.366 1428.74 955.151 1496.5 955.029 1559.86 C 943.864 1566.16 927.538 1576.31 915.576 1579.52 L 915.589 1632.64 C 900.35 1642.71 874.013 1656.46 857.34 1665.58 C 839.492 1656.52 818.281 1644.05 800.156 1634.24 L 800.141 1169.51 C 791.224 1164.76 782.387 1159.87 773.634 1154.82 C 774.008 1175.53 774.141 1196.25 774.033 1216.96 C 761.953 1224.1 751.063 1230.35 738.644 1236.85 C 726.509 1230.9 714.637 1224.44 703.059 1217.47 C 703.325 1183.65 702.521 1149.74 702.83 1115.95 C 679.248 1102.96 654.768 1090.16 631.525 1076.75 C 606.963 1089.6 583.211 1103.18 558.928 1116.51 C 560.229 1188.67 559.21 1265.57 558.964 1337.97 C 549.344 1343.74 532.631 1352.66 522.492 1356.91 C 510.233 1350.58 499.618 1344.94 487.776 1337.89 L 487.908 1384.56 C 468.321 1395.15 448.85 1405.94 429.499 1416.95 C 410.583 1407.86 390.73 1396.13 372.231 1385.83 C 369.937 1321.66 371.215 1249.58 371.17 1184.93 L 371.119 1099.08 C 371.119 1082.47 370.656 1062.23 371.724 1045.9 C 366.051 1042.86 360.063 1039.3 354.426 1036.1 C 356.179 1095.94 354.725 1162.71 354.848 1223.24 C 344.265 1229.96 330.181 1237.22 318.955 1243.36 C 306.895 1236.85 295.699 1230.24 283.916 1223.23 C 283.228 1213.81 283.152 1204.54 283.108 1195.11 C 282.831 1135.26 283.818 1075.23 283.797 1015.4 L 283.085 622.628 C 291.656 616.513 308.781 607.731 318.696 602.284 L 380.78 568.027 L 471.748 517.237 C 491.371 506.207 514.303 492.743 534.35 482.962 C 546.036 488.149 560.292 496.615 571.261 503.327 L 571.854 701.228 C 603.657 683.697 635.555 666.339 667.547 649.155 C 667.947 637.293 668.01 625.308 667.941 613.433 C 667.511 538.805 667.496 464.057 667.457 389.441 C 673.73 384.529 689.988 376.085 697.487 371.985 L 749.641 343.472 C 805.493 312.594 861.149 281.363 916.605 249.78 z M 739.503 608.664 C 771.981 590.557 804.602 572.708 837.362 555.118 C 852.14 547.037 869.725 536.158 884.291 528.851 C 884.207 519.272 885.013 473.791 883.894 468.113 C 851.495 485.61 819.233 503.36 787.113 521.363 C 772.534 529.453 752.816 539.439 739.191 547.796 C 739.185 567.34 738.687 589.309 739.503 608.664 z M 1111.77 1102.11 C 1111.36 1089.36 1111.64 1073.82 1110.89 1061.64 C 1113.67 1059.79 1123.67 1055.52 1123.96 1052.35 C 1118.22 1054.3 1113.91 1057.12 1108.7 1060.19 C 1044.18 1093.8 980.153 1133.3 915.985 1166.6 C 916.016 1180.68 916.289 1195.49 916.034 1209.51 C 937.83 1198.81 962.881 1184.19 984.384 1172.34 L 1111.77 1102.11 z M 355.169 780.662 C 355.155 786.295 354.313 817.859 356.511 820.356 C 378.767 807.567 401.681 795.819 424.083 783.32 C 449.65 769.055 474.446 754.946 500.436 741.466 C 500.45 736.182 501.143 702.985 499.53 700.974 L 405.613 753.087 C 390.613 761.426 370.352 773.373 355.169 780.662 z M 1703.94 934.003 C 1690.5 941.314 1676.58 949.801 1663.16 956.647 C 1663.29 963.575 1663.19 973.106 1663.78 979.802 C 1668.71 982.404 1673.61 985.056 1678.48 987.759 C 1686.87 992.553 1696.07 998.08 1704.72 1002.18 C 1704.76 989.859 1705.74 944.367 1704.52 934.565 L 1703.94 934.003 z M 1359.11 920.913 C 1334.45 934.068 1310.01 947.628 1285.8 961.588 C 1274.66 967.983 1256.63 977.757 1247.03 985.069 L 1247.29 985.669 C 1258.26 981.202 1280.31 967.683 1291.75 961.169 L 1359.25 923.402 C 1361.71 921.938 1361.64 922.051 1364.48 921.478 C 1373.52 923.545 1394 935.428 1401.81 941.218 C 1428.19 928.427 1459.26 910.474 1485.31 896.209 C 1485.88 882.347 1485.39 870.324 1484.91 856.427 L 1532.53 829.74 C 1538.28 826.535 1550.78 822.008 1552.14 816.347 L 1551.06 815.621 C 1542.53 818.164 1505.5 840.726 1495.61 846.171 L 1417 889.32 C 1398.24 899.421 1377.21 910.024 1359.11 920.913 z"/>
<path transform="translate(0,0)" fill="url(#Gradient1)" d="M 555.638 926.704 C 608.588 922.599 672.748 909.096 706.863 866.589 C 789.576 763.529 927.293 766.775 1031.76 696.417 C 1078.51 664.928 1107.03 632.144 1145.66 591.056 C 1203.58 529.467 1282.79 488.567 1364.9 469.589 C 1389.44 482.157 1418.1 498.345 1441.91 512.353 C 1405.5 532.938 1376.11 526.841 1336.83 528.208 C 1287.1 529.938 1240.21 564.153 1216.13 606.435 C 1203.28 629.005 1202.56 645.516 1179.75 662.653 C 1149.81 685.144 1114.45 701.93 1081.08 718.626 C 1051.39 733.243 1022.13 748.716 993.329 765.026 C 981.337 771.841 959.989 783.101 951.289 792.798 C 983.151 773.956 1015.67 756.243 1048.78 739.691 C 1097.33 715.464 1149.57 693.446 1191.2 658.843 C 1206.58 643.027 1208.52 630.583 1218.55 611.833 C 1225.14 599.492 1235.07 587.218 1244.64 577.483 C 1280.95 540.545 1317.98 529.863 1368.56 532.352 C 1388.98 533.356 1408.65 531.71 1428.14 524.18 C 1434.58 521.065 1441.39 517.896 1447.68 514.576 C 1462.67 524.203 1478.16 531.355 1493.25 540.457 C 1436.52 618.822 1340.72 642.288 1254.87 672.393 C 1123.36 718.508 1010.63 804.526 894.845 879.442 C 824.469 925.286 756.723 967.069 675.863 992.347 C 668.307 988.355 650.359 979.316 643.945 974.899 L 639.395 971.297 C 631.851 970.06 567.179 933.129 555.638 926.704 z"/>
<path transform="translate(0,0)" fill="rgb(252,166,75)" d="M 1428.14 524.18 L 1430.96 525.953 C 1424.65 533.915 1345.13 575.173 1329.65 583.391 C 1328.88 583.222 1328.1 583.053 1327.33 582.884 C 1314.17 593.035 1305.46 597.022 1290.02 603.216 L 1290.35 606.167 L 1288.68 606.981 C 1280.84 610.879 1270.92 618.747 1263.6 621.864 C 1242.7 630.773 1213.46 653.79 1193.19 659.53 L 1191.2 658.843 C 1206.58 643.027 1208.52 630.583 1218.55 611.833 C 1225.14 599.492 1235.07 587.218 1244.64 577.483 C 1280.95 540.545 1317.98 529.863 1368.56 532.352 C 1388.98 533.356 1408.65 531.71 1428.14 524.18 z"/>
<path transform="translate(0,0)" fill="rgb(67,27,16)" d="M 1290.02 603.216 C 1281.29 606.456 1260.29 613.816 1253.29 606.138 C 1250.02 588.259 1308.23 559.966 1330.26 568.343 C 1335.46 573.952 1331.34 577.854 1327.33 582.884 C 1314.17 593.035 1305.46 597.022 1290.02 603.216 z"/>
<path transform="translate(0,0)" fill="rgb(252,166,75)" d="M 1311.55 571.171 C 1316.97 570.708 1322.11 569.525 1326.56 572.536 C 1329.49 585.655 1281.96 601.378 1272.1 603.788 C 1267.98 604.646 1263.15 605.808 1259.43 603.922 C 1259.12 602.435 1258.57 601.51 1260.13 599.876 C 1273.43 585.907 1293.32 574.662 1311.55 571.171 z"/>
<path transform="translate(0,0)" fill="rgb(67,27,16)" d="M 639.395 971.297 C 668.042 955.708 696.236 932.354 723.283 920.935 C 702.782 938.708 668.161 963.809 643.945 974.899 L 639.395 971.297 z"/>
<path transform="translate(0,0)" fill="rgb(67,27,16)" d="M 872.081 807.313 C 876.923 806.936 878.458 806.478 882.947 807.89 C 885.541 810.408 884.844 808.914 885.097 812.528 C 878.093 830.045 833.202 853.495 815.801 863.74 C 800.133 872.964 780.545 879.654 762.208 880.132 C 757.287 879.265 750.468 878.131 748.855 872.634 C 747.809 869.069 750.05 862.809 752.437 860.304 C 776.417 835.134 838.472 812.488 872.081 807.313 z"/>
<path transform="translate(0,0)" fill="rgb(252,166,75)" d="M 871.536 811.26 C 874.696 810.832 875.805 810.468 878.941 811.271 L 879.772 813.04 C 879.354 814.261 878.572 816.132 877.579 816.958 C 848.67 841.017 801.687 874.199 763.848 876.515 C 758.456 876.009 754.344 875.399 752.888 869.817 C 758.89 843.854 845.495 816.269 871.536 811.26 z"/>
<path transform="translate(0,0)" fill="rgb(67,27,16)" d="M 1396.14 557.467 C 1396.68 557.703 1397.85 558.561 1398.39 558.931 C 1397.78 572.045 1347.91 605.171 1334.74 612.886 C 1307.55 628.823 1286.01 636.281 1254.82 636.718 C 1251.59 635.459 1252.4 636.518 1251.37 634.161 C 1253.82 632.652 1263.8 632.429 1267.45 631.963 C 1313.34 626.1 1365.37 591.124 1396.14 557.467 z"/>
<path transform="translate(0,0)" fill="rgb(67,27,16)" d="M 863.766 853.949 L 864.545 855.559 C 847.632 874.325 818.575 893.36 793.376 897.933 L 792.526 897.081 C 793.521 895.33 808.692 889.852 812.848 887.714 C 831.243 878.25 847.024 865.902 863.766 853.949 z"/>
<path transform="translate(0,0)" fill="rgb(244,133,61)" d="M 1498.22 542.678 C 1519.03 554.932 1541.59 567.138 1562.84 578.755 C 1564.52 579.815 1566.58 581.017 1568.15 582.178 C 1578.95 586.731 1611.8 606.076 1624.08 612.913 C 1606.58 628.976 1594.63 642.213 1575.36 657.694 C 1507.97 711.838 1424.3 748.034 1339.94 765.6 C 1294.39 775.086 1255.75 778.332 1212.37 798.014 C 1165.64 819.213 1141.09 853.405 1105.53 888.005 C 1087.04 905.992 1064.67 924.256 1043.12 938.449 C 1008.4 961.311 970.852 978.142 933.155 995.125 C 891.951 1013.69 837.784 1031.91 804.081 1062.13 C 793.252 1056.41 782.501 1050.53 771.833 1044.51 C 842.561 983.796 927.416 959.422 1012.01 924.837 C 1025.84 919.179 1080.88 893.204 1071.66 872.747 L 1069.98 872.134 C 1067.5 877.168 1062.73 887.626 1058.68 890.997 C 1033.52 911.912 996.346 925.428 966.112 936.815 C 901.841 961.023 816.322 993.293 766.826 1042.31 C 739.191 1026.5 709.663 1011.08 681.604 995.626 C 708.859 987.953 735.457 977.38 760.855 964.892 C 898.944 896.996 1016.7 794.375 1153.14 723.594 C 1188.27 705.245 1224.56 689.21 1261.77 675.593 C 1315.48 656.353 1366.31 644.247 1416.26 614.371 C 1448.6 595.031 1476.63 574.381 1498.22 542.678 z"/>
<path transform="translate(0,0)" fill="rgb(67,27,16)" d="M 1562.84 578.755 C 1564.52 579.815 1566.58 581.017 1568.15 582.178 C 1525.35 600.285 1470.83 641.336 1430.41 665.92 C 1415.01 675.291 1396.31 689.577 1379.78 696.045 C 1390.68 684.785 1420.45 665.331 1434.81 655.954 C 1476.31 628.856 1518.1 600.081 1562.84 578.755 z"/>
<path transform="translate(0,0)" fill="rgb(67,27,16)" d="M 1562.88 622.998 L 1563.6 624.19 C 1530.85 679.611 1333.56 748.338 1268.12 762.468 C 1224.04 771.987 1181.96 768.116 1133.49 788.003 C 1074.39 812.248 1035.45 845.987 987.56 887.186 L 986.69 886.408 C 987.785 882.998 1001.1 871.285 1004.74 867.974 C 1049.11 827.538 1091.26 796.709 1148.82 777.671 C 1184.99 765.159 1224.18 767.053 1261.05 759.162 C 1301.47 750.509 1341.52 737.105 1380.31 722.571 C 1445.86 698.006 1511.95 672.526 1562.88 622.998 z"/>
<path transform="translate(0,0)" fill="rgb(252,166,75)" d="M 1266.47 415.183 C 1270.21 416.129 1308.23 438.677 1317.53 442.806 C 1252.28 457.092 1205.5 474.015 1148.79 510.238 C 1135.67 518.617 1120.52 526.642 1111.37 539.394 C 1115.74 537.201 1119.55 534.672 1123.7 532.153 C 1155.08 513.112 1187.18 493.112 1220.87 478.337 C 1235.75 471.812 1251.04 466.266 1266.64 461.735 C 1284.54 456.725 1305.15 452.376 1322.4 446.396 C 1334.36 451.973 1345.86 458.74 1357.37 465.239 C 1278.81 480.986 1191.85 531.001 1137.8 589.525 C 1107.03 622.84 1073.18 660.422 1035.37 685.782 C 1008.43 704.175 979.486 719.432 949.089 731.259 C 863.679 765.348 768.951 781.182 707.782 856.004 C 676.121 894.733 630.387 911.698 582.333 918.215 C 570.774 919.783 558.912 920.47 547.221 921.979 C 533.178 915.181 515.08 904.762 500.857 897.174 C 523.16 876.094 564.917 858.568 593.01 845.104 C 620.434 831.96 647.412 819.929 674.555 805.699 C 694.762 795.342 714.254 783.645 732.9 770.686 C 749.026 759.486 764.136 747.46 780.626 736.613 C 802.045 722.523 822.402 712.008 845.746 701.664 C 891.737 682.751 935.539 671.191 981.922 654.441 C 1015.38 642.358 1054.03 621.922 1069.31 587.903 C 1056.82 600.686 1048.95 611.837 1033.4 622.543 C 992.172 650.94 937.213 663.54 889.592 679.15 C 868.152 686.351 847.112 694.689 826.559 704.127 C 772.121 728.965 731.414 768.665 678.792 796.168 C 636.031 818.517 592.243 837.983 548.936 859.17 C 529.253 868.799 511.238 878.643 495.367 894.022 C 472.116 880.656 448.154 868.63 425.007 855.165 C 473.975 790.906 583.827 749.776 658.492 722.081 C 701.784 706.03 745.392 690.847 789.292 676.541 C 837.894 660.646 895.62 643.636 941.002 621.162 C 976.207 603.85 1008.42 581.028 1036.43 553.557 C 1057.48 532.662 1072.61 513.6 1097.66 496.518 C 1149.93 460.873 1210 444.305 1266.47 415.183 z"/>
<path transform="translate(0,0)" fill="rgb(67,27,16)" d="M 717.774 727.958 C 718.47 728.609 718.034 728.123 718.72 729.674 C 709.337 739.077 691.783 748.605 679.846 755.069 C 637.547 777.977 592.224 794.896 548.999 815.945 C 529.406 825.486 512.814 833.872 495.975 847.959 L 495.447 846.342 C 514.386 820.995 618.645 780.439 653.249 763.772 C 675.464 753.155 697.012 741.194 717.774 727.958 z"/>
<path transform="translate(0,0)" fill="rgb(252,166,75)" d="M 1188.8 371.603 C 1200.08 378.429 1211.88 384.637 1223.48 390.921 C 1224.32 391.503 1227.7 393.958 1228.37 394.283 C 1238.44 399.203 1250.14 406.278 1260.39 411.705 C 1206.34 440.703 1144.93 454.972 1093.35 491.392 C 1066 510.706 1054.91 525.591 1032.29 548.002 C 1007.34 572.757 978.864 593.674 947.779 610.07 C 895.595 637.385 839.343 653.291 783.489 671.583 C 735.813 687.068 688.508 703.669 641.611 721.372 C 569.306 748.859 466.736 788 419.573 852.302 C 404.062 844.905 383.656 832.813 368.346 824.353 C 420.509 794.066 478.563 763.058 531.736 733.714 L 837.651 564.881 L 1063.14 440.773 C 1101.81 419.4 1150.09 390.677 1188.8 371.603 z"/>
<path transform="translate(0,0)" fill="rgb(67,27,16)" d="M 1223.48 390.921 C 1224.32 391.503 1227.7 393.958 1228.37 394.283 C 1159.72 438.805 1084.56 463.948 1013.87 505.164 C 978.758 525.634 950.89 544.978 918.121 568.292 C 893.063 586.121 846.794 618.369 818.64 628.85 L 816.865 628.4 L 817.174 629.277 L 816.112 629.323 C 820.164 625.64 829.419 621.244 834.614 618.332 C 878.156 593.921 916.704 562.41 957.808 534.167 C 984.169 516.119 1011.49 499.515 1039.65 484.428 C 1101.1 451.549 1164.6 429.604 1223.48 390.921 z"/>
<path transform="translate(0,0)" fill="rgb(214,76,31)" d="M 1675.07 647.387 C 1676.2 648.782 1675.39 691.227 1675.94 697.742 C 1646.49 711.359 1610.74 732.827 1581.7 748.711 L 1386.37 856.805 L 861.456 1146.27 L 860.053 1145.72 C 858.624 1141.83 859.205 1104.48 859.15 1097.46 L 1343.85 829.773 L 1551 714.808 C 1591.88 692.205 1633.54 668.642 1675.07 647.387 z"/>
<path transform="translate(0,0)" fill="rgb(244,133,61)" d="M 1628.82 615.629 C 1639.99 622.724 1658.83 632.395 1670.78 639.053 C 1565.21 695.289 1457.14 756.546 1352.53 814.699 L 1036.35 988.98 C 1016.46 999.978 858.12 1088.68 853.619 1089.11 C 839.417 1080.64 823.314 1072.62 808.597 1064.66 C 845.755 1035.34 887.463 1021.29 930.261 1002.54 C 967.45 986.25 1007.06 968.048 1041.12 945.884 C 1064.02 931.145 1085.46 914.244 1105.14 895.414 C 1139.03 862.683 1166.28 825.037 1209.84 804.142 C 1263.44 778.434 1323.03 777.074 1379.59 761.267 C 1473.19 735.108 1563.18 688.6 1628.82 615.629 z"/>
<path transform="translate(0,0)" fill="rgb(46,173,155)" d="M 1361.46 969.077 L 1362.39 969.337 C 1363.35 972.848 1362.53 1007.16 1362.51 1014.12 L 1362.91 1111.38 C 1303.78 1142.28 1244.25 1177.37 1184.63 1209.01 L 1183.24 1208.07 C 1183.07 1161.07 1183.16 1114.06 1183.52 1067.06 C 1202.88 1055.33 1227.98 1042.26 1248.27 1030.97 C 1285.78 1009.94 1323.51 989.311 1361.46 969.077 z"/>
<path transform="translate(0,0)" fill="rgb(46,173,155)" d="M 1734.98 764.114 C 1736.89 767.197 1735.99 890.404 1736.22 906.779 C 1678.07 938.795 1616.91 973.615 1558.03 1003.99 C 1555.7 1001.01 1556.95 876.494 1556.99 862.237 C 1614.53 829.264 1676.63 795.632 1734.98 764.114 z"/>
<path transform="translate(0,0)" fill="rgb(65,212,191)" d="M 1110.7 1113.02 C 1112.17 1115.88 1111.39 1331.65 1111.16 1351.36 C 1099.59 1346.17 1076.89 1332.77 1065.29 1326.21 C 1039.12 1311.29 1012.87 1296.52 986.527 1281.91 C 963.308 1269.78 939.192 1254.51 915.786 1243.16 L 915.79 1220.25 C 961.012 1196.95 1005.4 1169.75 1050.5 1145.99 C 1070.65 1135.38 1090.26 1123.1 1110.7 1113.02 z"/>
<path transform="translate(0,0)" fill="rgb(46,173,155)" d="M 530.161 530.959 C 533.031 535.05 531.482 655.37 531.951 673.243 C 474.827 704.037 413.439 738.082 357.016 770.163 L 355.603 769.751 C 354.583 766.401 355.003 736.63 355.001 730.113 L 355.032 627.845 C 412.265 596.366 472.595 560.852 530.161 530.959 z"/>
<path transform="translate(0,0)" fill="rgb(46,173,155)" d="M 914.633 296.916 C 915.928 302.114 915.152 333.364 915.187 341.105 C 915.336 374.219 914.668 407.567 915.354 440.688 C 856.795 471.76 798.409 506.058 739.579 537.602 C 738.521 527.238 739.311 505.781 739.178 494.505 C 738.791 461.607 740.142 427.969 739.046 395.09 C 756.601 384.533 776.974 373.671 795.03 363.526 L 914.633 296.916 z"/>
<path transform="translate(0,0)" fill="rgb(244,133,61)" d="M 361.803 831.191 C 378.585 839.188 403.252 853.756 420.483 863.118 L 549.48 933.455 L 715.134 1024.07 C 759.747 1048.19 806.257 1072.48 850.312 1097.38 C 849.996 1112.36 851.6 1133.68 850.46 1147.63 L 361.129 880.888 C 362.1 864.925 361.229 847.609 361.803 831.191 z"/>
<path transform="translate(0,0)" fill="rgb(214,76,31)" d="M 905.928 1132.11 C 909.291 1137.71 906.412 1575.85 907.411 1628.03 C 892.395 1635.55 877.552 1644.35 863.071 1652.84 C 860.619 1645.81 862.009 1542.12 862.009 1527.87 L 861.913 1155.99 C 875.335 1148.09 891.953 1139.73 905.928 1132.11 z"/>
<path transform="translate(0,0)" fill="rgb(244,133,61)" d="M 809.131 1135.21 C 820.283 1140.13 841.749 1152.66 853.278 1158.9 C 852.589 1216 853.196 1273.93 853.184 1331.1 L 853.04 1653.42 C 839.917 1647.14 823.061 1636.43 808.717 1629.08 L 809.131 1135.21 z"/>
<path transform="translate(0,0)" fill="rgb(244,133,61)" d="M 380.703 901.237 C 394.019 909.267 411.117 917.959 425.01 925.639 C 423.362 1038.12 425.905 1152.27 424.645 1264.89 C 424.132 1310.8 425.529 1357.88 424.026 1403.59 C 421.847 1403.72 385.579 1383.24 380.244 1380.71 L 380.102 1063.96 C 380.068 1012.23 378.774 952.231 380.703 901.237 z"/>
<path transform="translate(0,0)" fill="rgb(244,133,61)" d="M 1599.01 748.822 C 1600.24 749.008 1599.58 748.753 1600.78 750.004 C 1601.49 758.169 1600.88 769.603 1600.68 778.03 C 1566.33 796.588 1532.17 816.175 1497.97 835.064 L 1185.91 1007.83 L 1000.08 1110.12 C 973.706 1124.7 943.243 1140.35 917.728 1155.58 L 916.648 1155.24 C 915.477 1151.55 916.053 1131.8 916.091 1126.66 C 930.626 1117.88 949.996 1107.92 965.271 1099.46 L 1085.1 1033.51 L 1415.47 850.858 C 1476.07 817.368 1539.19 783.319 1599.01 748.822 z"/>
<path transform="translate(0,0)" fill="rgb(214,76,31)" d="M 433.797 968.774 C 446.388 974.922 466.057 986.773 478.991 993.982 C 477.632 1041.42 478.956 1095.52 478.98 1143.45 L 479.201 1380.13 L 464.627 1387.53 C 454.432 1393.37 444.151 1399.07 433.789 1404.62 L 433.797 968.774 z"/>
<path transform="translate(0,0)" fill="rgb(65,212,191)" d="M 1633.11 973.15 C 1641.23 976.586 1701.33 1009.11 1704.45 1013.14 C 1704.56 1014.48 1705.04 1020.22 1705.57 1020.7 C 1715.27 1029.39 1727.63 1032.22 1737.94 1041.61 C 1703.4 1062.48 1661.39 1084.18 1625.47 1103.96 C 1604.16 1115.96 1578.4 1130.48 1556.63 1141.19 L 1556.75 1014.46 C 1579.01 1003.3 1612.02 985.639 1633.11 973.15 z"/>
<path transform="translate(0,0)" fill="rgb(65,212,191)" d="M 1259.17 1177.96 C 1268.88 1183.57 1326.88 1214.44 1330.71 1219.17 C 1332.3 1230.71 1352.94 1237.67 1363.45 1244.62 C 1351.92 1252.3 1333.88 1261.8 1321.4 1268.76 L 1249.46 1308.85 C 1229.4 1320.82 1204 1333.98 1183.12 1345.36 L 1183.04 1219.07 C 1204.43 1209.2 1238.34 1190.07 1259.17 1177.96 z"/>
<path transform="translate(0,0)" fill="rgb(65,212,191)" d="M 1483.6 906.921 L 1484.33 907.532 C 1486.16 913.806 1485.02 962.111 1485.02 970.823 L 1485.19 1147.76 C 1468.69 1139.48 1449.89 1128.51 1433.6 1119.44 C 1423.57 1113.72 1413.17 1107.47 1402.71 1102.67 C 1403.35 1052.38 1402.05 1001.57 1402.55 951.077 C 1428 938.426 1458.8 920.993 1483.6 906.921 z"/>
<path transform="translate(0,0)" fill="rgb(244,133,61)" d="M 1119.91 1071.68 C 1127.68 1075.46 1135.45 1080.25 1142.92 1084.66 C 1141.7 1133.72 1142.84 1187.45 1142.84 1236.87 L 1142.9 1522.01 C 1142.94 1576.29 1143.58 1632.2 1142.79 1686.32 C 1135.61 1682.98 1127.01 1677.94 1119.95 1674.04 L 1119.91 1071.68 z"/>
<path transform="translate(0,0)" fill="rgb(214,76,31)" d="M 1392.67 951.909 L 1393.37 952.533 C 1394.46 956.569 1394.06 989.633 1394.06 995.686 L 1394.05 1097.73 L 1393.98 1553.25 C 1389.31 1555.8 1375.82 1563.68 1371.72 1564.26 C 1370.16 1539.76 1371.63 1499.4 1371.61 1473.53 L 1372.87 1261.13 C 1373.02 1246.84 1371.06 1231.69 1371.23 1216.54 C 1372.22 1132.51 1369.83 1047.6 1371.36 963.646 L 1392.67 951.909 z"/>
<path transform="translate(0,0)" fill="rgb(214,76,31)" d="M 1547.12 868.254 C 1549.02 870.135 1547.24 1402.65 1548.05 1467 C 1540.42 1470.95 1533.79 1474.93 1526.46 1479.34 C 1524.61 1476.32 1525.38 1399.58 1525.36 1390.72 L 1525.23 1195.38 L 1525.29 997.094 C 1525.3 958.649 1524.49 917.615 1525.66 879.38 C 1532.46 875.587 1540.14 871.837 1547.12 868.254 z"/>
<path transform="translate(0,0)" fill="rgb(214,76,31)" d="M 1172.98 1072.89 C 1175.17 1074.97 1174.47 1115.57 1174.49 1121.88 L 1174.29 1228.12 L 1174.5 1564.54 L 1174.36 1632.17 C 1174.31 1645.34 1173.76 1661.34 1174.84 1674.16 C 1169.2 1677.09 1163.07 1680.72 1157.48 1683.86 C 1154.19 1685.48 1155.62 1685.56 1152.81 1685.02 C 1150.49 1680.28 1151.86 1635.09 1151.86 1625.84 L 1151.9 1490.21 L 1151.93 1084.14 C 1159.03 1080.54 1166.05 1076.79 1172.98 1072.89 z"/>
<path transform="translate(0,0)" fill="rgb(244,133,61)" d="M 1493.67 866.672 C 1501.47 870.676 1509.14 874.907 1516.69 879.36 C 1515.62 909.778 1516.29 942.384 1516.28 973 L 1516.13 1133.77 L 1516.13 1335.94 C 1515.81 1383.49 1515.99 1431.03 1516.66 1478.57 C 1513.42 1478.82 1498.08 1469.55 1493.9 1467.22 C 1494.47 1414.64 1493.63 1361.03 1493.72 1308.33 L 1493.67 866.672 z"/>
<path transform="translate(0,0)" fill="rgb(214,76,31)" d="M 1766.8 747.073 C 1770.28 752.443 1764.59 1294.02 1767.84 1348.58 C 1761.94 1351.23 1754.33 1355.72 1748.51 1358.95 L 1746.19 1359.68 C 1744.7 1357.45 1744.9 1354.84 1744.84 1352.25 C 1744.09 1318.23 1745.13 1283.89 1745.14 1249.84 C 1745.16 1203.9 1744.36 1157.87 1745.03 1111.95 C 1745.32 1092.2 1744.46 1071.85 1745.52 1052.21 C 1745.7 1048.92 1747.94 1046.35 1748.11 1043.32 C 1748.25 1040.86 1746.78 1037.59 1746 1035.28 C 1742.96 1026.27 1745.08 964.74 1745.09 951.278 C 1745.11 887.061 1744.54 822.784 1745.28 758.576 L 1766.8 747.073 z"/>
<path transform="translate(0,0)" fill="rgb(244,133,61)" d="M 292.103 632.748 C 300.343 637.183 307 640.99 314.912 645.971 C 314.086 673.474 314.731 702.884 314.751 730.594 L 314.977 886.056 C 315.03 908.05 311.719 926.878 311.834 948.797 L 314.906 1228.14 L 314.633 1229.45 C 311.241 1229.61 296.053 1220.09 292.061 1217.79 L 292.103 632.748 z"/>
<path transform="translate(0,0)" fill="rgb(252,166,75)" d="M 433.86 930.437 C 462.88 945.655 491.62 962.162 520.47 977.744 L 800.41 1130.54 L 800.33 1160.19 C 776.142 1145.38 742.99 1128.28 717.577 1114.39 L 581.047 1039.84 L 492.571 991.44 C 473.46 980.949 453.417 969.416 433.654 960.338 C 434.054 950.968 433.82 939.934 433.86 930.437 z"/>
<path transform="translate(0,0)" fill="rgb(24,130,128)" d="M 915.525 1253.44 C 935.069 1262.4 965.677 1280.63 985.345 1291.6 L 1111.44 1362.45 C 1110.99 1377.04 1111.28 1392.6 1111.33 1407.27 C 1091.46 1397.29 1067.24 1382.73 1047.33 1371.68 L 916.016 1299.22 C 915.927 1283.94 915.34 1268.73 915.525 1253.44 z"/>
<path transform="translate(0,0)" fill="rgb(24,130,128)" d="M 1362.15 1256.02 L 1362.62 1256.44 C 1363.9 1259.45 1363.13 1295.3 1363.24 1302.61 C 1355.82 1307.31 1347.49 1311.74 1339.72 1315.97 C 1287.91 1344.17 1236.58 1375.01 1184.13 1401.92 C 1182.35 1398.49 1182.99 1361.94 1182.99 1355.45 C 1201.33 1345.95 1221.05 1334.45 1239.32 1324.36 C 1280.4 1301.83 1321.34 1279.05 1362.15 1256.02 z"/>
<path transform="translate(0,0)" fill="rgb(24,130,128)" d="M 1734.7 1053.9 L 1735.77 1054.86 C 1736.83 1060.71 1736.41 1090.07 1736.76 1099.18 C 1720.36 1109 1700.96 1119.12 1684.1 1128.6 C 1642.29 1152.17 1600.22 1175.28 1557.9 1197.92 C 1556.15 1195.89 1556.48 1158.4 1556.32 1151.87 L 1734.7 1053.9 z"/>
<path transform="translate(0,0)" fill="rgb(214,76,31)" d="M 346.026 633.248 C 347.115 635.24 345.199 859.999 347.228 890.836 C 340.358 894.229 332.503 899.208 325.818 903.205 L 324.665 902.987 C 322.338 898.844 323.836 670.873 323.762 645.128 C 331.152 641.109 338.573 637.149 346.026 633.248 z"/>
<path transform="translate(0,0)" fill="rgb(244,133,61)" d="M 495.892 1085.06 C 503.488 1087.74 512.165 1093.71 519.107 1098.17 C 517.986 1165.33 519.455 1232.89 518.932 1300.09 C 518.823 1314.09 520.122 1332.09 518.586 1345.73 C 511.559 1341.18 503.717 1336.97 496.38 1332.85 C 496.858 1250.25 496.695 1167.65 495.892 1085.06 z"/>
<path transform="translate(0,0)" fill="rgb(214,76,31)" d="M 549.175 1086.07 C 551.779 1088.65 549.379 1307.88 550.634 1332.78 C 543.387 1336.24 536.536 1340.51 529.64 1344.64 L 528.713 1344.49 C 526.805 1338.54 527.996 1288.39 527.998 1278.12 L 527.919 1098.99 C 535.027 1094.72 542.113 1090.42 549.175 1086.07 z"/>
<path transform="translate(0,0)" fill="rgb(244,133,61)" d="M 676.257 400.342 C 682.954 403.106 692.552 409.09 699.063 412.884 L 699.009 543.165 C 699.017 570.213 698.165 604.676 699.764 631.263 L 692.574 634.72 L 676.231 644.111 C 676.679 564.13 677.908 480.182 676.257 400.342 z"/>
<path transform="translate(0,0)" fill="rgb(214,76,31)" d="M 945.843 279.893 C 947.215 287.342 946.28 326.42 946.524 336.758 C 947.744 388.606 945.34 443.017 947.019 494.637 L 925.459 506.529 C 923.377 503.639 924.05 308.574 924.35 291.774 L 945.843 279.893 z"/>
<path transform="translate(0,0)" fill="rgb(214,76,31)" d="M 728.948 401.009 C 731.446 404.596 730.696 588.43 730.926 613.892 C 722.94 617.468 717.942 620.451 710.603 625.115 L 708.761 625.393 C 707.092 621.565 708.04 427.413 708.041 412.151 C 715.106 408.621 722.078 404.905 728.948 401.009 z"/>
<path transform="translate(0,0)" fill="rgb(214,76,31)" d="M 923.153 1348.46 C 931.19 1352.48 939.1 1356.74 946.871 1361.24 C 944.679 1424.46 948.317 1489.61 946.416 1552.96 C 946.343 1555.37 943.477 1556.33 941.68 1557.38 L 923.984 1566.64 L 923.153 1348.46 z"/>
<path transform="translate(0,0)" fill="rgb(214,76,31)" d="M 1360.83 1350.89 L 1361.57 1351.52 C 1363.94 1358.52 1362.4 1548.43 1362.44 1565.77 C 1357.78 1563.28 1353.13 1560.76 1348.51 1558.2 L 1339.72 1553.31 C 1339.92 1489.72 1338.76 1425.92 1339.64 1362.29 C 1346.53 1358.41 1353.83 1354.63 1360.83 1350.89 z"/>
<path transform="translate(0,0)" fill="rgb(214,76,31)" d="M 1734.85 1147.06 C 1736.73 1149.47 1736.05 1342.5 1736.03 1361.42 L 1721.66 1353.67 L 1713.06 1348.95 L 1713.18 1159.11 L 1734.85 1147.06 z"/>
<path transform="translate(0,0)" fill="rgb(244,133,61)" d="M 924.049 1313.62 L 1111.11 1417.15 L 1111 1441.44 C 1090.53 1431.17 1068.44 1417.97 1048.06 1406.7 C 1006.77 1383.68 965.323 1360.96 923.709 1338.55 L 924.049 1313.62 z"/>
<path transform="translate(0,0)" fill="rgb(214,76,31)" d="M 1361.72 1313.89 C 1362.32 1316.55 1362.31 1335.47 1362.41 1339.78 C 1303.1 1371.4 1243.52 1405.33 1184.36 1437.72 C 1183.51 1433.78 1183.62 1417.89 1183.56 1413.01 C 1241 1379.55 1303.31 1346.4 1361.72 1313.89 z"/>
<path transform="translate(0,0)" fill="rgb(214,76,31)" d="M 1734.51 1110.97 C 1736.44 1114.36 1735.93 1130.7 1736 1135.83 C 1715.51 1145.98 1693.54 1159.19 1673.35 1170.37 L 1558.06 1234.03 L 1557.31 1233.29 C 1556.27 1228.99 1556.72 1214.31 1556.75 1209.11 L 1734.51 1110.97 z"/>
<path transform="translate(0,0)" fill="rgb(46,173,155)" d="M 1333.91 947.729 C 1341.64 951.282 1350.4 956.143 1358.03 960.136 C 1301.18 991.362 1235.08 1026.17 1179.98 1059.08 C 1175.76 1058.13 1160.42 1049.09 1155.84 1046.48 C 1215.38 1013.9 1274.74 980.983 1333.91 947.729 z"/>
<path transform="translate(0,0)" fill="rgb(46,173,155)" d="M 1707.81 742.866 C 1712.29 744.457 1725.9 752.516 1731.05 755.171 C 1715.13 765.02 1697.57 773.708 1681.19 783.002 C 1639.22 806.82 1595.36 829.183 1553.99 853.907 C 1545.98 849.849 1538.1 845.546 1530.35 841.004 C 1545.15 832.094 1563.09 823.085 1578.45 814.46 L 1707.81 742.866 z"/>
<path transform="translate(0,0)" fill="rgb(214,76,31)" d="M 323.817 1019.48 C 331.146 1023.78 338.521 1028.01 345.938 1032.16 L 346.101 1167.53 C 346.144 1181.57 346.391 1202.64 345.967 1217.44 C 345.909 1219.47 342.724 1220.41 340.425 1221.57 C 334.883 1224.11 329.385 1227.3 324.039 1230.27 C 323.148 1205.71 323.605 1177.52 323.564 1152.77 L 323.817 1019.48 z"/>
<path transform="translate(0,0)" fill="rgb(46,173,155)" d="M 503.645 509.854 C 507.439 510.952 523.052 519.829 527.35 522.219 C 499.752 535.541 464.242 556.969 436.669 572.231 C 410.458 586.739 375.933 604.662 351.441 620.135 C 343.534 616.017 335.657 611.84 327.811 607.605 L 503.645 509.854 z"/>
<path transform="translate(0,0)" fill="rgb(46,173,155)" d="M 887.575 276.857 C 890.664 277.178 907.889 286.756 911.198 288.91 C 902.209 293.182 891.995 298.924 883.343 303.908 C 835.015 331.746 783.897 357.569 736.402 386.524 C 733.493 386.877 716.349 376.819 712.076 374.517 L 887.575 276.857 z"/>
<path transform="translate(0,0)" fill="rgb(214,76,31)" d="M 562.059 513.076 C 563.248 519.271 562.768 564.601 562.764 572.626 L 562.987 706.866 C 555.073 710.641 549.058 713.862 541.45 718.237 C 540.307 714.685 540.382 690.77 540.307 685.862 C 539.902 631.976 539.97 578.088 540.508 524.204 C 547.895 520.662 554.847 516.932 562.059 513.076 z"/>
<path transform="translate(0,0)" fill="rgb(24,130,128)" d="M 1402.02 1112.61 C 1410.58 1116.28 1424.76 1124.62 1433.18 1129.36 C 1450.39 1139.18 1467.68 1148.85 1485.06 1158.38 C 1485.09 1168.55 1485.91 1195.69 1484.83 1204.18 C 1462.16 1190.82 1425.81 1169.71 1402.52 1158.64 C 1402.17 1143.48 1402.35 1127.96 1402.02 1112.61 z"/>
<path transform="translate(0,0)" fill="rgb(24,130,128)" d="M 321.813 927.992 C 335.941 934.311 357.815 947.386 371.849 955.143 L 371.673 1001.39 C 356.656 993.77 336.624 982.558 322.179 973.883 C 321.361 957.681 320.465 944.257 321.813 927.992 z"/>
<path transform="translate(0,0)" fill="rgb(214,76,31)" d="M 1361.75 1121.99 C 1362.75 1124.35 1362.58 1225.18 1362.65 1234.27 L 1350.34 1227.34 L 1338.84 1221.04 C 1339.76 1194.23 1339.83 1160.66 1339.07 1133.85 L 1361.75 1121.99 z"/>
<path transform="translate(0,0)" fill="rgb(214,76,31)" d="M 1734.97 918.133 C 1736.73 921.155 1735.97 1017.06 1735.97 1028.82 C 1731.9 1026.38 1727.81 1023.97 1723.69 1021.62 L 1713.14 1015.79 L 1713.04 928.942 L 1734.97 918.133 z"/>
<path transform="translate(0,0)" fill="rgb(244,133,61)" d="M 711.649 1120.96 C 718.884 1125.23 726.673 1129.34 734.069 1133.39 C 733.983 1163.1 734.513 1192.85 734.012 1222.54 C 733.586 1223.07 733.159 1223.59 732.733 1224.11 C 726.345 1220.19 717.905 1215.99 711.165 1212.4 C 712.771 1184.5 711.221 1149.76 711.649 1120.96 z"/>
<path transform="translate(0,0)" fill="rgb(244,133,61)" d="M 1402.54 1167.39 C 1429.49 1182.69 1458.89 1198.72 1485.09 1214.48 L 1485.13 1237.95 C 1477.72 1234.98 1460.35 1224.75 1452.82 1220.47 C 1436.39 1210.93 1419.75 1201.76 1402.92 1192.95 L 1402.54 1167.39 z"/>
<path transform="translate(0,0)" fill="rgb(214,76,31)" d="M 1653.52 718.921 L 1654.32 719.684 C 1655.27 723.539 1654.9 755.513 1654.95 762.172 C 1643.33 769.712 1623.23 779.988 1610.55 787.102 C 1608.48 782.108 1609.27 751.914 1609.15 743.863 C 1624.02 735.698 1638.82 727.383 1653.52 718.921 z"/>
<path transform="translate(0,0)" fill="rgb(24,130,128)" d="M 546.077 1031.11 C 557.68 1036.16 577.565 1048.06 590.065 1054.59 C 580.067 1059.22 567.072 1066.6 557.109 1071.89 C 547.016 1076.97 537.561 1082.63 527.818 1088.33 C 527.164 1072.74 528.04 1057.83 527.048 1041.68 C 534.112 1038.19 539.306 1035.19 546.077 1031.11 z"/>
<path transform="translate(0,0)" fill="rgb(214,76,31)" d="M 743.083 1138.39 C 750.358 1142.14 758.12 1146.59 765.359 1150.54 C 765 1171.18 765.045 1191.83 765.493 1212.47 L 759.443 1215.96 C 754.111 1218.77 748.432 1222.12 743.14 1225.11 L 743.083 1138.39 z"/>
<path transform="translate(0,0)" fill="rgb(65,212,191)" d="M 356.415 888.781 C 362.474 891.196 366.221 893.247 371.946 896.34 C 371.55 912.579 371.425 928.823 371.571 945.067 C 365.709 942.458 355.405 936.18 349.497 932.811 C 339.733 927.794 330.115 922.497 320.655 916.926 C 330.844 909.392 342 905.28 352.136 898.006 C 356.265 895.043 355.793 893.295 356.415 888.781 z"/>
<path transform="translate(0,0)" fill="rgb(24,130,128)" d="M 487.191 1024.48 C 497.436 1029.23 509.074 1036.32 519.012 1042.03 C 518.921 1056.98 518.913 1071.94 518.986 1086.89 C 513.084 1084.59 494.283 1073.96 486.937 1070.34 C 487.375 1055.48 487.137 1039.43 487.191 1024.48 z"/>
<path transform="translate(0,0)" fill="rgb(244,133,61)" d="M 914.123 451.253 C 915.49 453.11 915.167 505.758 915.285 512.321 C 907.966 515.962 901.116 519.793 893.985 523.764 C 892.607 521.918 893.04 469.656 892.975 462.801 L 914.123 451.253 z"/>
<path transform="translate(0,0)" fill="rgb(214,76,31)" d="M 598.467 1058.95 C 602.057 1059.95 618.031 1069.71 622.234 1072.18 C 609.243 1079.89 589.031 1089.86 575.108 1097.33 L 559.111 1106.43 L 559.133 1080.43 C 572.419 1073.59 585.534 1066.43 598.467 1058.95 z"/>
<path transform="translate(0,0)" fill="rgb(244,133,61)" d="M 324.03 985.184 C 338.919 992.309 356.927 1003.12 371.812 1011.3 C 371.591 1019.31 371.71 1027.83 371.681 1035.89 C 356.385 1028.72 339.663 1017.92 323.393 1009.97 C 324.074 1003.97 323.919 991.648 324.03 985.184 z"/>
<path transform="translate(0,0)" fill="rgb(214,76,31)" d="M 1308.97 1150.78 C 1313.56 1149.88 1316.76 1153.79 1319.86 1156.67 C 1319.41 1170.58 1320.73 1188.37 1319.58 1201.21 C 1316.72 1201.05 1315.56 1199.74 1312.86 1198.03 L 1296.95 1189.62 L 1296.94 1157.42 L 1308.97 1150.78 z"/>
<path transform="translate(0,0)" fill="rgb(244,133,61)" d="M 529.872 683.988 C 531.875 685.967 531.172 719.006 531.196 724.432 L 509.944 735.78 C 508.23 732.799 508.979 701.709 509.014 695.901 L 529.872 683.988 z"/>
<path transform="translate(0,0)" fill="rgb(65,212,191)" d="M 486.989 998.408 C 493.307 1001.78 535.168 1023.24 536.642 1026.51 L 533.627 1028.5 L 523.04 1034.25 C 510.952 1028.13 499.6 1021.08 486.97 1014.92 L 486.989 998.408 z"/>
<path transform="translate(0,0)" fill="rgb(214,76,31)" d="M 1652.85 1192.05 C 1654.25 1194.57 1654.13 1202.28 1654.27 1205.6 C 1640.12 1212.76 1624.4 1221.85 1610.34 1229.54 C 1609.08 1225.36 1609.18 1219.62 1609 1215.12 C 1622.84 1209 1638.83 1199.27 1652.85 1192.05 z"/>
<path transform="translate(0,0)" fill="rgb(244,133,61)" d="M 1520.86 845.78 C 1528.55 850.346 1536.27 854.417 1544.16 858.624 C 1536.41 862.562 1528.9 867.148 1521.4 871.577 C 1513.76 867.849 1507.85 863.03 1497.95 858.496 C 1505.84 854.856 1513.37 850.2 1520.86 845.78 z"/>
<path transform="translate(0,0)" fill="rgb(244,133,61)" d="M 702.48 379.849 C 705.366 380.733 722.045 389.743 725.769 391.686 C 718.861 395.597 711.972 400.014 705.215 404.222 C 700.683 403.838 685.537 394.229 680.701 391.392 C 687.156 388.524 696.08 383.327 702.48 379.849 z"/>
<path transform="translate(0,0)" fill="rgb(244,133,61)" d="M 1737.79 725.858 C 1739.68 726.223 1757.35 736.6 1761.25 738.668 C 1754.21 742.453 1747.21 746.29 1740.22 750.177 C 1732.59 745.68 1724.82 741.414 1716.93 737.385 C 1723.99 733.738 1730.95 729.894 1737.79 725.858 z"/>
<path transform="translate(0,0)" fill="rgb(244,133,61)" d="M 317.963 612.147 C 325.448 616.669 333.427 620.665 341.198 624.705 L 319.946 636.83 L 297.349 624.399 C 304.671 620.439 310.899 616.578 317.963 612.147 z"/>
<path transform="translate(0,0)" fill="rgb(244,133,61)" d="M 917.64 259.965 C 920.401 260.089 936.971 270.1 940.525 272.14 C 933.874 275.999 927.245 279.895 920.638 283.829 C 919.189 283.519 899.957 272.391 897.175 270.83 C 903.976 267.43 910.916 263.576 917.64 259.965 z"/>
<path transform="translate(0,0)" fill="rgb(244,133,61)" d="M 1364.92 930.73 C 1368.66 932.283 1382.63 940.484 1387.57 943.079 C 1380.99 946.904 1374.35 951.062 1367.84 955.034 C 1360.54 951.416 1351.6 946.075 1344.34 942.021 L 1364.92 930.73 z"/>
<path transform="translate(0,0)" fill="rgb(244,133,61)" d="M 534.519 492.231 C 536.903 493.28 552.637 502.84 556.574 504.995 L 536.167 516.946 C 528.62 512.016 521.076 508.211 513.115 504.039 C 521.307 500.062 526.733 496.989 534.519 492.231 z"/>
<path transform="translate(0,0)" fill="rgb(244,133,61)" d="M 1145.91 1051.73 C 1149.27 1052.99 1164.46 1061.72 1168.48 1063.93 C 1162 1067.66 1155.55 1071.42 1149.11 1075.22 C 1144.45 1075.09 1130.76 1066.23 1126.11 1063.46 C 1131.61 1060.79 1140.43 1055.07 1145.91 1051.73 z"/>
<path transform="translate(0,0)" fill="rgb(246,243,245)" fill-opacity="0.0235294" d="M 1359.25 923.402 L 1291.75 961.169 C 1280.31 967.683 1258.26 981.202 1247.29 985.669 L 1247.03 985.069 C 1256.63 977.757 1274.66 967.983 1285.8 961.588 C 1310.01 947.628 1334.45 934.068 1359.11 920.913 L 1359.25 923.402 z"/>
<path transform="translate(0,0)" fill="rgb(244,133,61)" d="M 1286.98 1163.07 C 1288.74 1165.33 1288 1180.37 1287.95 1184.26 L 1276.44 1177.71 C 1274.41 1176.68 1270.88 1174.44 1268.8 1173.22 C 1274.85 1169.48 1280.71 1166.41 1286.98 1163.07 z"/>
<path transform="translate(0,0)" fill="rgb(214,76,31)" d="M 1195.58 1011 L 1196.62 1012.89 C 1193.27 1018.41 1159.36 1035.23 1152.06 1038.96 L 1151.07 1037.61 C 1153.18 1033.35 1188.93 1014.47 1195.58 1011 z"/>
<path transform="translate(0,0)" fill="rgb(214,76,31)" d="M 1599.21 788.859 L 1600.49 789.881 C 1598.05 795.158 1568.85 810.075 1561.83 813.987 C 1560.98 813.386 1561.56 813.868 1560.57 812.109 C 1563.01 807.548 1592.96 792.007 1599.21 788.859 z"/>
<path transform="translate(0,0)" fill="rgb(214,76,31)" d="M 1476.17 1242.46 C 1486.79 1248.73 1486.96 1248.97 1485.04 1261.06 C 1473.2 1257.39 1475.53 1253.61 1476.17 1242.46 z"/>
<path transform="translate(0,0)" fill="rgb(214,76,31)" d="M 1235.11 988.69 L 1238.14 989.358 L 1237.81 990.805 C 1233.33 994.285 1215.15 1004.39 1208.4 1008.57 L 1206.64 1009.42 L 1205.93 1008.12 C 1207.94 1003.46 1229.29 992.139 1235.11 988.69 z"/>
<path transform="translate(0,0)" fill="rgb(246,243,245)" d="M 1328.22 1160.34 L 1329.6 1160.96 C 1331.67 1164.48 1330.38 1199.37 1330.61 1207.32 C 1330 1207.2 1329.39 1207.09 1328.78 1206.97 C 1327.16 1202.69 1328.12 1167.16 1328.22 1160.34 z"/>
<path transform="translate(0,0)" fill="rgb(214,76,31)" d="M 1653.19 961.952 C 1655.66 964.383 1655.28 970.854 1652.96 973.693 L 1650.42 972.981 C 1646.82 970.676 1646.41 971.225 1644.8 967.99 C 1646.11 965.294 1650.32 963.534 1653.19 961.952 z"/>
<path transform="translate(0,0)" fill="rgb(244,133,61)" d="M 1329.03 1138.97 C 1331.4 1141.24 1331.33 1146.16 1329.44 1148.97 L 1326.47 1148.75 C 1323.99 1147.29 1323.29 1147.18 1321.76 1144.75 C 1323.13 1141.76 1325.76 1140.97 1329.03 1138.97 z"/>
<path transform="translate(0,0)" fill="rgb(246,243,245)" fill-opacity="0.0431373" d="M 1108.7 1060.19 C 1113.91 1057.12 1118.22 1054.3 1123.96 1052.35 C 1123.67 1055.52 1113.67 1059.79 1110.89 1061.64 L 1108.7 1060.19 z"/>
</svg>