<svg version="1.1" xmlns="http://www.w3.org/2000/svg" style="display: block;" viewBox="0 0 2048 2048" width="1024" height="1024" preserveAspectRatio="none">
<path transform="translate(0,0)" fill="rgb(204,42,82)" d="M 1110.95 331.712 C 1114.05 329.884 1122.86 316.791 1126.03 312.652 C 1140.45 293.971 1167.57 274.879 1190.23 269.071 C 1211.02 263.743 1242.14 286.103 1260.49 296.3 C 1279.34 306.767 1303.73 317.899 1321.17 329.609 C 1326.46 332.16 1333.63 335.27 1337.76 339.347 C 1370.95 372.08 1353.18 429.98 1339.17 466.197 C 1331 487.057 1320.24 503.882 1308.52 522.73 C 1297.25 536.336 1292.66 544.256 1279.22 558.568 C 1292.12 561.676 1303.45 564.871 1315.22 571.293 L 1325.92 577.231 L 1332.69 582.325 C 1346.45 592.618 1353.41 600.05 1363.68 613.741 C 1377.53 633.093 1383.74 652.029 1390.34 674.431 C 1393.31 697.704 1394.41 726.028 1379.69 746.014 C 1372.34 756.002 1362.82 760.227 1352.09 765.456 C 1346.04 768.691 1340.01 771.969 1334 775.291 C 1348.41 784.909 1375 798.466 1386.41 806.797 L 1387.36 806.644 L 1441.22 837.931 L 1441.97 837.81 C 1443.64 845.229 1443.02 880.563 1443.01 890.241 L 1442.69 1008.39 C 1442.8 1014.96 1442.82 1021.86 1443.1 1028.4 C 1434.62 1033.41 1426.06 1038.29 1417.43 1043.05 L 1417.79 1059.76 L 1417.75 1241.16 C 1417.75 1269.6 1418.57 1302.4 1417.7 1330.55 L 1417.62 1502.49 C 1417.58 1525.43 1418.94 1559.57 1417.77 1581.02 L 1418.46 1603.52 C 1377.6 1626.19 1336.81 1649.88 1296.21 1673.06 C 1291.83 1673.06 1281.74 1665.64 1277.65 1662.96 C 1208.11 1699.03 1138.88 1742.6 1069.49 1779.35 C 1060.12 1784.31 1028.1 1804.06 1021.53 1805.87 L 867.056 1718.68 L 800.234 1680.82 C 794.495 1677.58 769.839 1662.86 766.056 1662.72 C 756.759 1666.03 754.655 1667.33 746.056 1671.85 C 742.701 1669.6 738.397 1667.72 734.843 1665.61 C 698.266 1643.94 660.477 1624.2 624.022 1602.35 C 623.91 1595.01 623.793 1589.5 624.474 1582.21 C 597.089 1565.5 565.991 1548.86 537.811 1532.77 L 382.254 1444.45 C 380.906 1342.55 381.675 1236.53 382.205 1134.44 C 386.697 1131.5 388.973 1130.67 393.848 1128.62 C 393.757 1119.16 393.482 1109.71 393.025 1100.26 C 389.905 1097.86 386.405 1095.51 383.161 1093.23 C 382.156 1086.51 380.96 1062.37 383.197 1056.48 C 386.839 1054.5 389.861 1054.97 394.086 1054.97 C 393.158 1044.63 393.263 1033.04 393.121 1022.57 C 389.506 1019.48 385.938 1016.33 382.416 1013.14 C 381.613 985.96 382.482 954.225 382.648 926.74 C 381.988 922.957 382.496 894.175 382.577 888.995 C 375.469 884.126 348.176 869.718 340.006 865.662 C 340.155 846.64 339.201 690.965 340.75 688.529 L 618.972 530.864 L 618.97 530.278 C 617.527 525.162 616.704 518.773 619.904 514.324 C 637.389 507.798 668.11 483.789 689.524 475.015 C 687.815 470.778 686.142 466.526 684.506 462.261 C 673.549 433.568 666.113 393.897 679.252 364.366 C 684.952 351.555 696.73 343.823 709.675 339.322 C 732.515 326.256 755.283 313.063 777.976 299.743 C 787.735 293.911 809.17 278.688 818.566 275.946 C 862.659 263.076 900.609 310.085 924.048 336.407 C 953.551 320.58 993.262 298.751 1021.42 281.235 C 1046.54 293.016 1085.61 317.187 1110.95 331.712 z"/>
<path transform="translate(0,0)" fill="rgb(245,185,50)" d="M 1110.95 331.712 C 1114.05 329.884 1122.86 316.791 1126.03 312.652 C 1140.45 293.971 1167.57 274.879 1190.23 269.071 C 1211.02 263.743 1242.14 286.103 1260.49 296.3 C 1279.34 306.767 1303.73 317.899 1321.17 329.609 C 1326.46 332.16 1333.63 335.27 1337.76 339.347 C 1370.95 372.08 1353.18 429.98 1339.17 466.197 C 1331 487.057 1320.24 503.882 1308.52 522.73 C 1297.25 536.336 1292.66 544.256 1279.22 558.568 C 1292.12 561.676 1303.45 564.871 1315.22 571.293 L 1325.92 577.231 L 1332.69 582.325 C 1346.45 592.618 1353.41 600.05 1363.68 613.741 C 1377.53 633.093 1383.74 652.029 1390.34 674.431 C 1393.31 697.704 1394.41 726.028 1379.69 746.014 C 1372.34 756.002 1362.82 760.227 1352.09 765.456 C 1346.04 768.691 1340.01 771.969 1334 775.291 C 1348.41 784.909 1375 798.466 1386.41 806.797 C 1360.38 821.864 1334.67 837.015 1309.03 852.742 C 1294.49 861.657 1275.79 870.474 1261.87 879.518 C 1256.32 877.809 1233.2 862.315 1226.38 858.727 C 1184.84 836.87 1144.7 812.747 1104.18 789.229 C 1074.67 772.105 1047.72 758.933 1018.3 740.6 L 871.423 826.059 C 844.661 841.563 819.297 855.185 792.048 871.356 C 775.396 863.58 752.983 850.529 736.743 841.243 L 666.172 801.111 L 664.742 801.281 C 647.586 814.083 620.511 827.005 601.707 839.156 L 601.403 839.006 C 599.562 853.237 600.405 885.581 600.434 901.064 L 600.746 1013.21 C 599.903 1012.01 400.79 898.639 382.577 888.995 C 375.469 884.126 348.176 869.718 340.006 865.662 C 340.155 846.64 339.201 690.965 340.75 688.529 L 618.972 530.864 L 618.97 530.278 C 617.527 525.162 616.704 518.773 619.904 514.324 C 637.389 507.798 668.11 483.789 689.524 475.015 C 687.815 470.778 686.142 466.526 684.506 462.261 C 673.549 433.568 666.113 393.897 679.252 364.366 C 684.952 351.555 696.73 343.823 709.675 339.322 C 732.515 326.256 755.283 313.063 777.976 299.743 C 787.735 293.911 809.17 278.688 818.566 275.946 C 862.659 263.076 900.609 310.085 924.048 336.407 C 953.551 320.58 993.262 298.751 1021.42 281.235 C 1046.54 293.016 1085.61 317.187 1110.95 331.712 z"/>
<path transform="translate(0,0)" fill="rgb(254,223,133)" d="M 1110.95 331.712 C 1114.05 329.884 1122.86 316.791 1126.03 312.652 C 1140.45 293.971 1167.57 274.879 1190.23 269.071 C 1211.02 263.743 1242.14 286.103 1260.49 296.3 C 1279.34 306.767 1303.73 317.899 1321.17 329.609 C 1326.46 332.16 1333.63 335.27 1337.76 339.347 C 1370.95 372.08 1353.18 429.98 1339.17 466.197 C 1331 487.057 1320.24 503.882 1308.52 522.73 C 1297.25 536.336 1292.66 544.256 1279.22 558.568 C 1257.44 553.727 1241.99 554.817 1219.8 556.199 C 1183.34 563.364 1168.79 568.479 1134.31 580.639 L 1130.04 583.064 C 1128.22 580.811 1125.77 574.437 1123.68 571.08 C 1120.46 573.486 1116.35 575.426 1112.87 577.554 C 1080.36 597.483 1046.74 615.598 1014.07 635.209 C 1004.14 631.036 988.368 621.107 978.073 615.256 C 955.625 602.499 929.911 589.542 908.356 575.636 C 911.271 570.68 916.242 563.803 919.585 558.883 C 911.582 547.66 901.99 530.073 894.62 517.759 C 884.212 500.475 873.294 483.504 861.879 466.868 C 834.295 426.087 789.446 369.649 744.192 348.671 C 732.949 343.459 721.675 341.634 709.675 339.322 C 732.515 326.256 755.283 313.063 777.976 299.743 C 787.735 293.911 809.17 278.688 818.566 275.946 C 862.659 263.076 900.609 310.085 924.048 336.407 C 953.551 320.58 993.262 298.751 1021.42 281.235 C 1046.54 293.016 1085.61 317.187 1110.95 331.712 z"/>
<path transform="translate(0,0)" fill="rgb(238,159,43)" d="M 1321.17 329.609 C 1326.46 332.16 1333.63 335.27 1337.76 339.347 C 1370.95 372.08 1353.18 429.98 1339.17 466.197 C 1331 487.057 1320.24 503.882 1308.52 522.73 C 1297.25 536.336 1292.66 544.256 1279.22 558.568 C 1257.44 553.727 1241.99 554.817 1219.8 556.199 C 1183.34 563.364 1168.79 568.479 1134.31 580.639 L 1130.04 583.064 C 1128.22 580.811 1125.77 574.437 1123.68 571.08 C 1119.32 561.763 1116.2 558.317 1109.45 550.905 C 1116.56 540.494 1122.68 527.629 1129.61 516.761 C 1172.27 449.869 1234.16 338.387 1321.17 329.609 z"/>
<path transform="translate(0,0)" fill="rgb(228,130,35)" d="M 1134.31 580.639 C 1134.58 575.654 1149.65 552.363 1152.78 546.899 C 1179.89 498.664 1207.92 457.679 1245.48 416.716 C 1270.76 389.15 1323.16 358.132 1315.21 425.044 C 1310.86 461.682 1280.79 503.866 1255.26 528.918 C 1245.32 538.682 1231.58 547.771 1219.8 556.199 C 1183.34 563.364 1168.79 568.479 1134.31 580.639 z"/>
<path transform="translate(0,0)" fill="rgb(243,130,163)" d="M 1021.42 281.235 C 1046.54 293.016 1085.61 317.187 1110.95 331.712 C 1074.4 378.606 1044.16 442.457 1021.85 496.987 C 1020.21 500.996 1018.21 504.962 1013.93 505.779 C 1010.33 503.167 964.874 391.786 951.372 378.177 C 950.881 377.682 925.481 339.004 924.048 336.407 C 953.551 320.58 993.262 298.751 1021.42 281.235 z"/>
<path transform="translate(0,0)" fill="rgb(254,254,254)" d="M 1215.45 305.133 C 1223.39 304.744 1234.25 305.71 1236.76 314.778 C 1235.3 324.215 1217.21 332.595 1209.2 338.683 C 1170.79 367.858 1141.92 408.808 1118.79 450.688 C 1113.7 459.91 1107.94 475.086 1099.76 481.691 C 1095.54 483.316 1091.77 484.472 1087.5 482.424 C 1084.54 480.986 1082.28 478.415 1081.24 475.292 C 1078.89 468.169 1082.47 458.628 1085.78 452.196 C 1109.88 405.345 1139.28 361.694 1180.25 327.944 C 1192.32 318.003 1200.83 310.307 1215.45 305.133 z"/>
<path transform="translate(0,0)" fill="rgb(254,254,254)" d="M 1026 520.148 C 1035.01 519.559 1052.35 521.497 1054.92 532.102 C 1052.37 542.366 1029.91 545.627 1018.6 554.093 C 1006.9 562.848 1000.7 569.796 990.043 579.204 C 989.394 579.521 988.737 579.823 988.075 580.111 C 973.638 586.314 957.898 573.393 966.87 559.923 C 978.363 542.669 1006.03 525.214 1026 520.148 z"/>
<path transform="translate(0,0)" fill="rgb(243,130,163)" d="M 618.972 530.864 C 648.711 548.783 678.89 564.307 708.325 583.048 C 696.874 592.391 686.602 601.82 677.912 613.908 C 663.441 633.445 657.775 648.482 650.655 671.35 C 644.133 711.68 645.808 739.725 683.21 762.098 C 691.259 766.855 699.43 771.404 707.715 775.738 C 697.708 781.636 675.167 794.247 666.172 801.111 L 664.742 801.281 C 647.586 814.083 620.511 827.005 601.707 839.156 L 601.403 839.006 C 599.562 853.237 600.405 885.581 600.434 901.064 L 600.746 1013.21 C 599.903 1012.01 400.79 898.639 382.577 888.995 C 375.469 884.126 348.176 869.718 340.006 865.662 C 340.155 846.64 339.201 690.965 340.75 688.529 L 618.972 530.864 z"/>
<path transform="translate(0,0)" fill="rgb(236,75,109)" d="M 340.75 688.529 C 347.669 693.436 358.664 699.187 366.426 703.576 L 410.835 728.735 L 546.398 806.306 C 555.407 811.42 596.399 833.796 601.403 839.006 C 599.562 853.237 600.405 885.581 600.434 901.064 L 600.746 1013.21 C 599.903 1012.01 400.79 898.639 382.577 888.995 C 375.469 884.126 348.176 869.718 340.006 865.662 C 340.155 846.64 339.201 690.965 340.75 688.529 z"/>
<path transform="translate(0,0)" fill="rgb(236,75,109)" d="M 683.21 762.098 C 691.259 766.855 699.43 771.404 707.715 775.738 C 697.708 781.636 675.167 794.247 666.172 801.111 L 664.742 801.281 C 657.783 797.976 647 791.381 640.005 787.402 C 653.405 778.798 669.35 770.038 683.21 762.098 z"/>
<path transform="translate(0,0)" fill="rgb(238,159,43)" d="M 798.223 682.179 C 849.24 615.428 918.021 611.063 993.66 634.533 L 995.102 635.316 C 1003.54 639.82 1011.29 640.059 1017.85 647.722 C 1019.53 655.438 1018.57 675.183 1018.42 684.147 C 1018.02 700.727 1017.91 717.312 1018.09 733.896 C 986.293 751.786 956.182 771.179 924.038 789.224 C 885.376 810.928 810.013 861.379 777.518 804.742 C 766.327 785.236 768.336 761.703 771.886 740.35 C 778.015 715.601 783.71 703.183 798.223 682.179 z"/>
<path transform="translate(0,0)" fill="rgb(228,130,35)" d="M 897.039 672.415 C 926.078 668.852 976.657 681.196 1002.99 695.147 C 967.294 714.902 932.276 736.331 896.978 756.887 C 881.871 765.682 860.702 775.864 843.451 777.441 C 796.756 781.537 805.901 727.317 826.508 703.835 C 845.46 682.238 869.238 674.932 897.039 672.415 z"/>
<path transform="translate(0,0)" fill="rgb(254,223,133)" d="M 1219.8 556.199 C 1241.99 554.817 1257.44 553.727 1279.22 558.568 C 1292.12 561.676 1303.45 564.871 1315.22 571.293 L 1325.92 577.231 L 1332.69 582.325 C 1346.45 592.618 1353.41 600.05 1363.68 613.741 C 1356.1 616.796 1333.71 630.754 1325.28 635.649 C 1298.14 651.462 1270.9 667.112 1243.57 682.597 C 1210.93 636.827 1162.56 618.268 1107 622.71 C 1079.79 624.885 1054.89 632.205 1028.67 639.073 C 1055.92 625.452 1081.76 610.042 1108.08 594.752 C 1115 590.728 1122.64 585.985 1130.04 583.064 L 1134.31 580.639 C 1168.79 568.479 1183.34 563.364 1219.8 556.199 z"/>
<path transform="translate(0,0)" fill="rgb(254,223,133)" d="M 798.847 555.989 C 827.359 558.764 860.855 565.246 887.732 575.57 C 917.026 587.028 950.112 608.42 977.956 623.927 C 981.388 625.839 992.021 631.368 994.184 633.477 L 993.66 634.533 C 918.021 611.063 849.24 615.428 798.223 682.179 C 779.301 669.702 752.82 656.079 732.796 644.445 C 718.126 635.921 692.692 620.637 677.912 613.908 C 686.602 601.82 696.874 592.391 708.325 583.048 L 714.219 579.27 C 717.011 577.359 721.529 575.084 724.62 573.398 C 730.956 569.997 739.35 566.736 746.136 563.69 C 767.066 558.001 776.779 556.043 798.847 555.989 z"/>
<path transform="translate(0,0)" fill="rgb(254,254,254)" d="M 822.725 578.428 C 840.522 576.81 869.568 577.295 883.689 590.959 C 885.654 592.861 885.327 592.906 885.159 595.191 C 880.974 597.771 869.627 597.131 864.373 596.931 C 836.821 595.883 813.642 600.043 788.969 613.279 C 780.447 618.103 773.75 624.513 764.375 628.377 C 751.861 633.146 730.276 622.121 743.753 607.614 C 750.274 600.595 758.086 596.529 766.825 592.507 C 784.706 584.279 803.128 579.891 822.725 578.428 z"/>
<path transform="translate(0,0)" fill="rgb(228,130,35)" d="M 798.847 555.989 C 759.744 527.101 724.11 484.366 714.674 434.719 C 712.246 421.944 713.02 395.968 730.107 394.732 C 751.408 393.192 774.502 415.122 787.814 429.293 C 828.03 472.104 860.49 523.777 887.732 575.57 C 860.855 565.246 827.359 558.764 798.847 555.989 z"/>
<path transform="translate(0,0)" fill="rgb(253,208,63)" d="M 677.912 613.908 C 692.692 620.637 718.126 635.921 732.796 644.445 C 752.82 656.079 779.301 669.702 798.223 682.179 C 783.71 703.183 778.015 715.601 771.886 740.35 C 731.115 717.989 690.699 694.987 650.655 671.35 C 657.775 648.482 663.441 633.445 677.912 613.908 z"/>
<path transform="translate(0,0)" fill="rgb(238,159,43)" d="M 1268.32 741.649 C 1297.73 725.358 1327.26 709.322 1356.39 692.54 C 1367.41 686.19 1378.8 679.763 1390.34 674.431 C 1393.31 697.704 1394.41 726.028 1379.69 746.014 C 1372.34 756.002 1362.82 760.227 1352.09 765.456 C 1346.04 768.691 1340.01 771.969 1334 775.291 C 1320.15 784.061 1302.18 793.348 1287.74 801.58 C 1276.99 807.706 1260.1 817.741 1249.56 822.303 C 1272.37 799.318 1272.51 771.595 1268.32 741.649 z"/>
<path transform="translate(0,0)" fill="rgb(254,223,133)" d="M 689.524 475.015 C 698.286 493.822 708.653 511.838 720.51 528.864 C 724.604 535.177 745.327 561.116 746.136 563.69 C 739.35 566.736 730.956 569.997 724.62 573.398 C 721.529 575.084 717.011 577.359 714.219 579.27 L 708.325 583.048 C 678.89 564.307 648.711 548.783 618.972 530.864 L 618.97 530.278 C 617.527 525.162 616.704 518.773 619.904 514.324 C 637.389 507.798 668.11 483.789 689.524 475.015 z"/>
<path transform="translate(0,0)" fill="rgb(238,159,43)" d="M 618.97 530.278 C 617.527 525.162 616.704 518.773 619.904 514.324 C 634.218 520.681 668.557 541.761 683.351 550.355 C 694.825 543.01 708.515 535.639 720.51 528.864 C 724.604 535.177 745.327 561.116 746.136 563.69 C 739.35 566.736 730.956 569.997 724.62 573.398 C 721.529 575.084 717.011 577.359 714.219 579.27 L 708.325 583.048 C 678.89 564.307 648.711 548.783 618.972 530.864 L 618.97 530.278 z"/>
<path transform="translate(0,0)" fill="rgb(253,208,63)" d="M 720.51 528.864 C 724.604 535.177 745.327 561.116 746.136 563.69 C 739.35 566.736 730.956 569.997 724.62 573.398 C 714.082 568.536 693.744 556.522 683.351 550.355 C 694.825 543.01 708.515 535.639 720.51 528.864 z"/>
<path transform="translate(0,0)" fill="rgb(236,75,109)" d="M 618.97 530.278 C 621.991 528.309 623.133 527.061 626.673 527.384 C 637.151 532.205 654.095 542.785 664.527 548.855 C 679.319 557.462 700.699 569.143 714.219 579.27 L 708.325 583.048 C 678.89 564.307 648.711 548.783 618.972 530.864 L 618.97 530.278 z"/>
<path transform="translate(0,0)" fill="rgb(228,130,35)" d="M 1123 671.413 C 1162.63 669.796 1208.58 682.89 1225.45 722.303 C 1233.21 740.45 1235.79 767.921 1213.69 776.632 C 1196.05 783.581 1172.85 773.59 1156.98 766.26 C 1133.81 753.44 1110.32 739.748 1087.24 726.711 C 1075.77 720.232 1041.9 702.582 1032.67 695.029 C 1063.85 681.138 1088.98 673.556 1123 671.413 z"/>
<path transform="translate(0,0)" fill="rgb(243,130,163)" d="M 1018.3 740.6 C 1047.72 758.933 1074.67 772.105 1104.18 789.229 C 1144.7 812.747 1184.84 836.87 1226.38 858.727 C 1233.2 862.315 1256.32 877.809 1261.87 879.518 C 1275.79 870.474 1294.49 861.657 1309.03 852.742 C 1334.67 837.015 1360.38 821.864 1386.41 806.797 L 1387.36 806.644 L 1441.22 837.931 L 1441.97 837.81 C 1443.64 845.229 1443.02 880.563 1443.01 890.241 L 1442.69 1008.39 C 1442.8 1014.96 1442.82 1021.86 1443.1 1028.4 C 1434.62 1033.41 1426.06 1038.29 1417.43 1043.05 L 1417.79 1059.76 L 1417.75 1241.16 C 1417.75 1269.6 1418.57 1302.4 1417.7 1330.55 C 1416.18 1323.99 1416.9 1264.36 1416.92 1252.55 L 1417.01 1061.83 C 1376.98 1085.24 1336.59 1108.04 1295.86 1130.22 C 1291.79 1132.07 1291.43 1132.04 1286.91 1132.54 C 1286.93 1124.5 1287.32 1110.99 1286.25 1103.44 L 1286.49 1102.08 C 1283.2 1103.3 1281.71 1103.76 1278.65 1105.61 C 1258.46 1116.01 1237.28 1129.31 1217.4 1140.71 L 1084.6 1216.38 C 1069.51 1224.93 1036.26 1245.64 1022.8 1251.6 C 1023.47 1247.64 1024.46 1237.73 1022.29 1234.29 C 1021.97 1238.51 1022.24 1247.1 1022.25 1251.65 C 1008.92 1244.69 993.938 1235.47 980.483 1228 L 828.406 1142.12 C 810.986 1132.39 778.877 1112.22 762.245 1105.1 C 759.651 1103.17 757.041 1101.84 754.219 1100.28 C 754.207 1110.95 754.458 1123.29 754.031 1133.81 C 750.057 1132.95 749.785 1132.74 746.051 1133.94 C 746.076 1142.59 746.301 1152.99 745.846 1161.52 C 744.712 1152.29 745.042 1139.82 745.119 1130.3 C 734.33 1125.1 722.203 1116.92 711.415 1111.14 C 682.654 1095.73 654.01 1078.5 624.981 1063.78 L 624.772 1060.35 C 625.251 1056.02 625.125 1047.27 625.175 1042.56 C 620.853 1039.43 605.86 1031.19 600.373 1028 C 600.534 1023.07 600.659 1018.14 600.746 1013.21 L 600.434 901.064 C 600.405 885.581 599.562 853.237 601.403 839.006 L 601.707 839.156 C 620.511 827.005 647.586 814.083 664.742 801.281 L 666.172 801.111 L 736.743 841.243 C 752.983 850.529 775.396 863.58 792.048 871.356 C 819.297 855.185 844.661 841.563 871.423 826.059 L 1018.3 740.6 z"/>
<path transform="translate(0,0)" fill="rgb(236,75,109)" d="M 744.086 919.657 C 813.233 956.454 883.718 998.018 952.147 1036.94 L 1001.6 1065 C 1007.54 1068.4 1016.35 1074.2 1021.95 1077.09 C 1021.96 1129.01 1021.36 1182.49 1022.29 1234.29 C 1021.97 1238.51 1022.24 1247.1 1022.25 1251.65 C 1008.92 1244.69 993.938 1235.47 980.483 1228 L 828.406 1142.12 C 810.986 1132.39 778.877 1112.22 762.245 1105.1 C 759.651 1103.17 757.041 1101.84 754.219 1100.28 C 752.659 1099.64 747.619 1096.25 745.909 1095.15 L 744.03 1093.17 C 742.588 1050.29 744.22 1006.67 743.573 963.721 C 743.355 949.229 743.461 934.116 744.086 919.657 z"/>
<path transform="translate(0,0)" fill="rgb(204,42,82)" d="M 1021.95 1077.09 C 1040.8 1067.23 1059.75 1055.21 1078.45 1044.79 C 1151.66 1003.56 1224.65 961.921 1297.41 919.884 C 1297.89 941.617 1296.69 1087.33 1299.77 1093.9 C 1298.61 1094.6 1296.56 1095.69 1295.7 1096.58 C 1292.88 1098.2 1289.04 1100.27 1286.49 1102.08 C 1283.2 1103.3 1281.71 1103.76 1278.65 1105.61 C 1258.46 1116.01 1237.28 1129.31 1217.4 1140.71 L 1084.6 1216.38 C 1069.51 1224.93 1036.26 1245.64 1022.8 1251.6 C 1023.47 1247.64 1024.46 1237.73 1022.29 1234.29 C 1021.36 1182.49 1021.96 1129.01 1021.95 1077.09 z"/>
<path transform="translate(0,0)" fill="rgb(253,208,63)" d="M 666.172 801.111 L 736.743 841.243 C 752.983 850.529 775.396 863.58 792.048 871.356 C 779.153 879.535 766.027 887.345 752.686 894.775 C 746.675 898.163 732.152 905.918 727.043 909.815 C 726.968 924.828 726.159 1095.6 728.037 1098.64 C 732.208 1097.58 734.629 1095.44 738.035 1092.79 L 740.941 1092.82 L 744.03 1093.17 L 745.909 1095.15 C 747.619 1096.25 752.659 1099.64 754.219 1100.28 C 754.207 1110.95 754.458 1123.29 754.031 1133.81 C 750.057 1132.95 749.785 1132.74 746.051 1133.94 C 746.076 1142.59 746.301 1152.99 745.846 1161.52 C 744.712 1152.29 745.042 1139.82 745.119 1130.3 C 734.33 1125.1 722.203 1116.92 711.415 1111.14 C 682.654 1095.73 654.01 1078.5 624.981 1063.78 L 624.772 1060.35 C 625.251 1056.02 625.125 1047.27 625.175 1042.56 C 620.853 1039.43 605.86 1031.19 600.373 1028 C 600.534 1023.07 600.659 1018.14 600.746 1013.21 L 600.434 901.064 C 600.405 885.581 599.562 853.237 601.403 839.006 L 601.707 839.156 C 620.511 827.005 647.586 814.083 664.742 801.281 L 666.172 801.111 z"/>
<path transform="translate(0,0)" fill="rgb(254,223,133)" d="M 666.172 801.111 L 736.743 841.243 C 752.983 850.529 775.396 863.58 792.048 871.356 C 779.153 879.535 766.027 887.345 752.686 894.775 C 746.675 898.163 732.152 905.918 727.043 909.815 L 725.995 910.212 C 719.483 907.496 693.029 891.335 685.467 887.011 C 657.844 871.216 628.908 855.483 601.707 839.156 C 620.511 827.005 647.586 814.083 664.742 801.281 L 666.172 801.111 z"/>
<path transform="translate(0,0)" fill="rgb(245,185,50)" d="M 725.995 910.212 L 727.043 909.815 C 726.968 924.828 726.159 1095.6 728.037 1098.64 C 732.208 1097.58 734.629 1095.44 738.035 1092.79 L 740.941 1092.82 L 744.03 1093.17 L 745.909 1095.15 C 747.619 1096.25 752.659 1099.64 754.219 1100.28 C 754.207 1110.95 754.458 1123.29 754.031 1133.81 C 750.057 1132.95 749.785 1132.74 746.051 1133.94 C 746.076 1142.59 746.301 1152.99 745.846 1161.52 C 744.712 1152.29 745.042 1139.82 745.119 1130.3 C 734.33 1125.1 722.203 1116.92 711.415 1111.14 C 682.654 1095.73 654.01 1078.5 624.981 1063.78 L 624.772 1060.35 C 625.251 1056.02 625.125 1047.27 625.175 1042.56 C 636.803 1047.95 650.784 1057.17 662.363 1063.5 C 684.206 1075.43 705.176 1087.48 726.397 1100.47 C 725.064 1078.66 726.052 1049.8 726.131 1027.27 L 725.995 910.212 z"/>
<path transform="translate(0,0)" fill="rgb(222,105,27)" d="M 745.909 1095.15 C 747.619 1096.25 752.659 1099.64 754.219 1100.28 C 754.207 1110.95 754.458 1123.29 754.031 1133.81 C 750.057 1132.95 749.785 1132.74 746.051 1133.94 C 745.512 1122.32 745.934 1107.05 745.909 1095.15 z"/>
<path transform="translate(0,0)" fill="rgb(245,185,50)" d="M 1387.36 806.644 L 1441.22 837.931 L 1441.97 837.81 C 1443.64 845.229 1443.02 880.563 1443.01 890.241 L 1442.69 1008.39 C 1442.8 1014.96 1442.82 1021.86 1443.1 1028.4 C 1434.62 1033.41 1426.06 1038.29 1417.43 1043.05 C 1384.48 1061.36 1347.21 1081.59 1315.1 1100.86 L 1315.17 972.49 C 1315.26 956.176 1316.98 925.112 1315.32 910.385 C 1297.05 900.446 1279.97 889.328 1261.87 879.518 C 1275.79 870.474 1294.49 861.657 1309.03 852.742 C 1334.67 837.015 1360.38 821.864 1386.41 806.797 L 1387.36 806.644 z"/>
<path transform="translate(0,0)" fill="rgb(254,223,133)" d="M 1387.36 806.644 L 1441.22 837.931 C 1412 855.313 1382.57 872.341 1352.93 889.011 C 1343.69 894.267 1323.78 906.54 1315.32 910.385 C 1297.05 900.446 1279.97 889.328 1261.87 879.518 C 1275.79 870.474 1294.49 861.657 1309.03 852.742 C 1334.67 837.015 1360.38 821.864 1386.41 806.797 L 1387.36 806.644 z"/>
<path transform="translate(0,0)" fill="rgb(228,130,35)" d="M 1018.3 740.6 C 1047.72 758.933 1074.67 772.105 1104.18 789.229 C 1144.7 812.747 1184.84 836.87 1226.38 858.727 C 1233.2 862.315 1256.32 877.809 1261.87 879.518 C 1279.97 889.328 1297.05 900.446 1315.32 910.385 C 1316.98 925.112 1315.26 956.176 1315.17 972.49 L 1315.1 1100.86 C 1347.21 1081.59 1384.48 1061.36 1417.43 1043.05 L 1417.79 1059.76 L 1417.75 1241.16 C 1417.75 1269.6 1418.57 1302.4 1417.7 1330.55 C 1416.18 1323.99 1416.9 1264.36 1416.92 1252.55 L 1417.01 1061.83 C 1376.98 1085.24 1336.59 1108.04 1295.86 1130.22 C 1291.79 1132.07 1291.43 1132.04 1286.91 1132.54 C 1286.93 1124.5 1287.32 1110.99 1286.25 1103.44 L 1286.49 1102.08 C 1289.04 1100.27 1292.88 1098.2 1295.7 1096.58 C 1296.56 1095.69 1298.61 1094.6 1299.77 1093.9 C 1296.69 1087.33 1297.89 941.617 1297.41 919.884 L 1298.55 919.186 C 1294.61 916.202 1289.31 913.67 1285.05 911.025 C 1228.45 875.93 1167.36 849.845 1111.16 814.265 C 1089.65 800.649 1066.65 786.584 1044.6 773.886 C 1019.58 796.266 994.407 820.033 966.317 838.377 C 930.847 861.539 849.181 912.91 810.67 880.979 C 806.262 881.163 745.69 915.371 743.627 918.868 L 744.086 919.657 C 743.461 934.116 743.355 949.229 743.573 963.721 C 744.22 1006.67 742.588 1050.29 744.03 1093.17 L 740.941 1092.82 L 738.035 1092.79 C 734.629 1095.44 732.208 1097.58 728.037 1098.64 C 726.159 1095.6 726.968 924.828 727.043 909.815 C 732.152 905.918 746.675 898.163 752.686 894.775 C 766.027 887.345 779.153 879.535 792.048 871.356 C 819.297 855.185 844.661 841.563 871.423 826.059 L 1018.3 740.6 z"/>
<path transform="translate(0,0)" fill="rgb(236,75,109)" d="M 1019.04 760.304 C 1028.02 765.435 1035.2 769.386 1044.6 773.886 C 1019.58 796.266 994.407 820.033 966.317 838.377 C 930.847 861.539 849.181 912.91 810.67 880.979 C 806.262 881.163 745.69 915.371 743.627 918.868 C 740.428 916.147 739.88 916.175 735.739 914.907 C 740.579 911.115 744.294 908.825 749.792 906.05 C 767.363 897.179 784.148 887.118 801.068 877.084 C 805.571 879.457 806.034 879.968 810.945 880.282 C 815.42 876.732 825.057 871.344 830.182 868.155 C 850.744 855.357 872.348 844.227 893.469 832.344 C 935.131 808.904 976.9 782.462 1019.04 760.304 z"/>
<path transform="translate(0,0)" fill="rgb(204,42,82)" d="M 1018.58 752.126 C 1082.57 786.835 1143.51 822.92 1206.67 858.629 L 1264.78 891.878 C 1274.65 897.43 1296.7 909.167 1305.26 915.815 C 1303.45 916.736 1300.3 918.461 1298.55 919.186 C 1294.61 916.202 1289.31 913.67 1285.05 911.025 C 1228.45 875.93 1167.36 849.845 1111.16 814.265 C 1089.65 800.649 1066.65 786.584 1044.6 773.886 C 1035.2 769.386 1028.02 765.435 1019.04 760.304 C 976.9 782.462 935.131 808.904 893.469 832.344 C 872.348 844.227 850.744 855.357 830.182 868.155 C 825.057 871.344 815.42 876.732 810.945 880.282 C 806.034 879.968 805.571 879.457 801.068 877.084 C 821.464 864.378 841.244 853.924 862.128 842.115 L 926.948 804.661 L 987.012 770.164 C 996.984 764.42 1008.5 757.216 1018.58 752.126 z"/>
<path transform="translate(0,0)" fill="rgb(204,42,82)" d="M 740.941 1092.82 L 737.037 1091.61 C 736.554 1090.88 735.883 1090.25 735.588 1089.43 C 733.914 1084.78 734.73 920.454 735.739 914.907 C 739.88 916.175 740.428 916.147 743.627 918.868 L 744.086 919.657 C 743.461 934.116 743.355 949.229 743.573 963.721 C 744.22 1006.67 742.588 1050.29 744.03 1093.17 L 740.941 1092.82 z"/>
<path transform="translate(0,0)" fill="rgb(180,24,63)" d="M 1305.26 915.815 C 1306.51 921.452 1305.86 981.598 1305.84 990.425 L 1305.71 1055.53 C 1305.7 1066 1306.27 1080.6 1305.43 1090.55 C 1302.89 1092.6 1302.8 1092.56 1299.77 1093.9 C 1296.69 1087.33 1297.89 941.617 1297.41 919.884 L 1298.55 919.186 C 1300.3 918.461 1303.45 916.736 1305.26 915.815 z"/>
<path transform="translate(0,0)" fill="rgb(222,105,27)" d="M 1295.7 1096.58 C 1296.08 1107.68 1295.9 1119.09 1295.86 1130.22 C 1291.79 1132.07 1291.43 1132.04 1286.91 1132.54 C 1286.93 1124.5 1287.32 1110.99 1286.25 1103.44 L 1286.49 1102.08 C 1289.04 1100.27 1292.88 1098.2 1295.7 1096.58 z"/>
<path transform="translate(0,0)" fill="rgb(236,75,109)" d="M 382.577 888.995 C 400.79 898.639 599.903 1012.01 600.746 1013.21 C 600.659 1018.14 600.534 1023.07 600.373 1028 C 605.86 1031.19 620.853 1039.43 625.175 1042.56 C 625.125 1047.27 625.251 1056.02 624.772 1060.35 L 624.981 1063.78 C 654.01 1078.5 682.654 1095.73 711.415 1111.14 C 722.203 1116.92 734.33 1125.1 745.119 1130.3 C 745.042 1139.82 744.712 1152.29 745.846 1161.52 L 745.869 1508.17 L 745.736 1615.67 C 745.699 1631.1 744.681 1657.41 746.056 1671.85 C 742.701 1669.6 738.397 1667.72 734.843 1665.61 C 698.266 1643.94 660.477 1624.2 624.022 1602.35 C 623.91 1595.01 623.793 1589.5 624.474 1582.21 C 597.089 1565.5 565.991 1548.86 537.811 1532.77 L 382.254 1444.45 C 380.906 1342.55 381.675 1236.53 382.205 1134.44 C 386.697 1131.5 388.973 1130.67 393.848 1128.62 C 393.757 1119.16 393.482 1109.71 393.025 1100.26 C 389.905 1097.86 386.405 1095.51 383.161 1093.23 C 382.156 1086.51 380.96 1062.37 383.197 1056.48 C 386.839 1054.5 389.861 1054.97 394.086 1054.97 C 393.158 1044.63 393.263 1033.04 393.121 1022.57 C 389.506 1019.48 385.938 1016.33 382.416 1013.14 C 381.613 985.96 382.482 954.225 382.648 926.74 C 381.988 922.957 382.496 894.175 382.577 888.995 z"/>
<path transform="translate(0,0)" fill="rgb(253,208,63)" d="M 624.981 1063.78 C 654.01 1078.5 682.654 1095.73 711.415 1111.14 C 722.203 1116.92 734.33 1125.1 745.119 1130.3 C 745.042 1139.82 744.712 1152.29 745.846 1161.52 L 745.869 1508.17 L 745.736 1615.67 C 745.699 1631.1 744.681 1657.41 746.056 1671.85 C 742.701 1669.6 738.397 1667.72 734.843 1665.61 C 698.266 1643.94 660.477 1624.2 624.022 1602.35 C 623.91 1595.01 623.793 1589.5 624.474 1582.21 C 625.848 1570.98 625.055 1542.39 625.063 1529.36 L 625.082 1421.76 L 624.981 1063.78 z"/>
<path transform="translate(0,0)" fill="rgb(254,254,254)" d="M 652.794 1141.95 C 665.134 1141.9 676.678 1152.79 677.333 1164.85 C 678.644 1189 678.035 1213.7 678.022 1237.93 L 677.862 1379.91 L 677.869 1472.79 C 677.872 1487.13 678.17 1502.89 677.367 1517.22 C 677.111 1521.8 674.265 1524.24 670.878 1526.89 C 663.27 1527.14 658.406 1525.3 653.239 1519.39 C 649.457 1515.11 647.132 1509.74 646.6 1504.05 C 645.143 1489.29 646.019 1459.12 646.027 1443.33 L 646.076 1329.7 L 646.069 1213.08 C 646.043 1193.12 645.768 1172.58 646.412 1152.63 C 646.591 1147.1 648.84 1145.12 652.794 1141.95 z"/>
<path transform="translate(0,0)" fill="rgb(204,42,82)" d="M 382.577 888.995 C 400.79 898.639 599.903 1012.01 600.746 1013.21 C 600.659 1018.14 600.534 1023.07 600.373 1028 C 605.86 1031.19 620.853 1039.43 625.175 1042.56 C 625.125 1047.27 625.251 1056.02 624.772 1060.35 C 620.055 1056.22 565.834 1026.16 556.944 1021.11 C 515.584 997.437 474.075 974.024 432.42 950.874 C 423.196 945.715 390.68 925.105 383.664 925.194 L 382.648 926.74 C 381.988 922.957 382.496 894.175 382.577 888.995 z"/>
<path transform="translate(0,0)" fill="rgb(236,75,109)" d="M 754.219 1100.28 C 757.041 1101.84 759.651 1103.17 762.245 1105.1 C 778.877 1112.22 810.986 1132.39 828.406 1142.12 L 980.483 1228 C 993.938 1235.47 1008.92 1244.69 1022.25 1251.65 C 1022.24 1247.1 1021.97 1238.51 1022.29 1234.29 C 1024.46 1237.73 1023.47 1247.64 1022.8 1251.6 C 1021.36 1256.69 1022 1278.32 1022.12 1284.2 L 1021.85 1284.82 L 1021.71 1640.29 L 1021.8 1748.21 C 1021.83 1763.67 1022.68 1791.23 1021.53 1805.87 L 867.056 1718.68 L 800.234 1680.82 C 794.495 1677.58 769.839 1662.86 766.056 1662.72 C 756.759 1666.03 754.655 1667.33 746.056 1671.85 C 744.681 1657.41 745.699 1631.1 745.736 1615.67 L 745.869 1508.17 L 745.846 1161.52 C 746.301 1152.99 746.076 1142.59 746.051 1133.94 C 749.785 1132.74 750.057 1132.95 754.031 1133.81 C 754.458 1123.29 754.207 1110.95 754.219 1100.28 z"/>
<path transform="translate(0,0)" fill="rgb(204,42,82)" d="M 754.219 1100.28 C 757.041 1101.84 759.651 1103.17 762.245 1105.1 C 778.877 1112.22 810.986 1132.39 828.406 1142.12 L 980.483 1228 C 993.938 1235.47 1008.92 1244.69 1022.25 1251.65 C 1022.24 1247.1 1021.97 1238.51 1022.29 1234.29 C 1024.46 1237.73 1023.47 1247.64 1022.8 1251.6 C 1021.36 1256.69 1022 1278.32 1022.12 1284.2 L 1021.85 1284.82 C 1015.83 1282.61 1005.43 1276.12 999.556 1272.72 C 986.879 1265.32 974.155 1257.99 961.388 1250.74 C 923.514 1229.65 885.77 1208.33 848.158 1186.77 C 822.549 1172.04 788.083 1151.31 762.284 1138.54 C 761.293 1183.97 761.891 1231.33 761.887 1276.88 L 761.913 1510.49 C 761.931 1534.38 759.412 1647.1 763.755 1660.92 L 766.056 1662.72 C 756.759 1666.03 754.655 1667.33 746.056 1671.85 C 744.681 1657.41 745.699 1631.1 745.736 1615.67 L 745.869 1508.17 L 745.846 1161.52 C 746.301 1152.99 746.076 1142.59 746.051 1133.94 C 749.785 1132.74 750.057 1132.95 754.031 1133.81 C 754.458 1123.29 754.207 1110.95 754.219 1100.28 z"/>
<path transform="translate(0,0)" fill="rgb(228,130,35)" d="M 746.051 1133.94 C 749.785 1132.74 750.057 1132.95 754.031 1133.81 L 754.055 1475.73 C 754.043 1534.5 753.117 1596.67 754.372 1655.15 C 757.44 1657.19 760.445 1659.32 763.755 1660.92 L 766.056 1662.72 C 756.759 1666.03 754.655 1667.33 746.056 1671.85 C 744.681 1657.41 745.699 1631.1 745.736 1615.67 L 745.869 1508.17 L 745.846 1161.52 C 746.301 1152.99 746.076 1142.59 746.051 1133.94 z"/>
<path transform="translate(0,0)" fill="rgb(180,24,63)" d="M 754.219 1100.28 C 757.041 1101.84 759.651 1103.17 762.245 1105.1 C 762.296 1110.08 763.302 1134.95 761.176 1137.35 C 758.243 1136.11 756.777 1135.55 754.031 1133.81 C 754.458 1123.29 754.207 1110.95 754.219 1100.28 z"/>
<path transform="translate(0,0)" fill="rgb(238,159,43)" d="M 1295.86 1130.22 C 1336.59 1108.04 1376.98 1085.24 1417.01 1061.83 L 1416.92 1252.55 C 1416.9 1264.36 1416.18 1323.99 1417.7 1330.55 L 1417.62 1502.49 C 1417.58 1525.43 1418.94 1559.57 1417.77 1581.02 L 1418.46 1603.52 C 1377.6 1626.19 1336.81 1649.88 1296.21 1673.06 C 1295.13 1610.5 1295.86 1545.82 1295.92 1483.07 L 1295.86 1130.22 z"/>
<path transform="translate(0,0)" fill="rgb(228,130,35)" d="M 1278.65 1105.61 C 1281.71 1103.76 1283.2 1103.3 1286.49 1102.08 L 1286.25 1103.44 C 1287.32 1110.99 1286.93 1124.5 1286.91 1132.54 C 1291.43 1132.04 1291.79 1132.07 1295.86 1130.22 L 1295.92 1483.07 C 1295.86 1545.82 1295.13 1610.5 1296.21 1673.06 C 1291.83 1673.06 1281.74 1665.64 1277.65 1662.96 L 1279.04 1661.8 C 1277.99 1653.8 1279.07 1609.57 1279.1 1599.56 L 1278.95 1464.37 L 1279.13 1249.36 L 1278.94 1181.09 C 1278.88 1168.91 1278.3 1153.65 1279.22 1141.81 C 1279.73 1141.03 1279.9 1139.92 1280.16 1138.92 C 1278.02 1135.63 1278.66 1111.7 1278.65 1105.61 z"/>
<path transform="translate(0,0)" fill="rgb(180,24,63)" d="M 1278.65 1105.61 C 1281.71 1103.76 1283.2 1103.3 1286.49 1102.08 L 1286.25 1103.44 C 1287.32 1110.99 1286.93 1124.5 1286.91 1132.54 L 1286.94 1485.21 L 1286.97 1595.67 C 1287.01 1614.48 1287.12 1633.3 1286.99 1652.11 C 1286.95 1658.93 1284.74 1659.03 1279.04 1661.8 C 1277.99 1653.8 1279.07 1609.57 1279.1 1599.56 L 1278.95 1464.37 L 1279.13 1249.36 L 1278.94 1181.09 C 1278.88 1168.91 1278.3 1153.65 1279.22 1141.81 C 1279.73 1141.03 1279.9 1139.92 1280.16 1138.92 C 1278.02 1135.63 1278.66 1111.7 1278.65 1105.61 z"/>
<path transform="translate(0,0)" fill="rgb(167,14,49)" d="M 1278.65 1105.61 C 1281.71 1103.76 1283.2 1103.3 1286.49 1102.08 L 1286.25 1103.44 L 1286.13 1104.63 C 1285.39 1113.44 1287.99 1131.58 1284.28 1136.87 L 1280.16 1138.92 C 1278.02 1135.63 1278.66 1111.7 1278.65 1105.61 z"/>
<path transform="translate(0,0)" fill="rgb(180,24,63)" d="M 1022.8 1251.6 C 1036.26 1245.64 1069.51 1224.93 1084.6 1216.38 L 1217.4 1140.71 C 1237.28 1129.31 1258.46 1116.01 1278.65 1105.61 C 1278.66 1111.7 1278.02 1135.63 1280.16 1138.92 C 1279.9 1139.92 1279.73 1141.03 1279.22 1141.81 L 1278.02 1140.6 C 1268.71 1144.65 1258.19 1151.44 1249.08 1156.29 C 1230.3 1166.26 1211.82 1177.08 1193.42 1187.75 L 1080.96 1251.76 C 1071.37 1257.3 1030.4 1282.17 1022.12 1284.2 C 1022 1278.32 1021.36 1256.69 1022.8 1251.6 z"/>
<path transform="translate(0,0)" fill="rgb(204,42,82)" d="M 1442.69 1008.39 C 1445.65 1008.78 1448.09 1008.93 1450.87 1007.51 C 1472.19 996.636 1494.28 983.583 1515.07 971.758 C 1563.42 943.71 1612.06 916.14 1660.96 889.054 C 1661.35 900.299 1661.48 911.551 1661.35 922.802 L 1661.43 1443.94 C 1605.76 1476.08 1549.84 1507.78 1493.66 1539.03 C 1475.91 1549.19 1458.08 1559.21 1440.18 1569.1 C 1435.54 1571.65 1421.8 1579.49 1417.77 1581.02 C 1418.94 1559.57 1417.58 1525.43 1417.62 1502.49 L 1417.7 1330.55 C 1418.57 1302.4 1417.75 1269.6 1417.75 1241.16 L 1417.79 1059.76 L 1417.43 1043.05 C 1426.06 1038.29 1434.62 1033.41 1443.1 1028.4 C 1442.82 1021.86 1442.8 1014.96 1442.69 1008.39 z"/>
<path transform="translate(0,0)" fill="rgb(180,24,63)" d="M 1442.69 1008.39 C 1445.65 1008.78 1448.09 1008.93 1450.87 1007.51 C 1472.19 996.636 1494.28 983.583 1515.07 971.758 C 1563.42 943.71 1612.06 916.14 1660.96 889.054 C 1661.35 900.299 1661.48 911.551 1661.35 922.802 C 1637.26 935.092 1611.92 950.073 1588.19 963.512 L 1481.72 1023.72 C 1461.5 1035.19 1438.22 1049.79 1417.79 1059.76 L 1417.43 1043.05 C 1426.06 1038.29 1434.62 1033.41 1443.1 1028.4 C 1442.82 1021.86 1442.8 1014.96 1442.69 1008.39 z"/>
<path transform="translate(0,0)" fill="rgb(243,130,163)" d="M 1339.17 466.197 C 1352.28 472.487 1369.79 483.086 1382.65 490.557 C 1394.31 497.327 1410.34 505.708 1421.27 512.724 C 1422.58 516.905 1421.82 523.994 1421.63 528.651 L 1422.06 529.611 C 1440.63 539.34 1459.08 550.491 1477.46 560.72 L 1629.58 646.198 C 1650.2 657.794 1682.06 677.601 1702.07 687.139 C 1705.38 691.88 1703.51 844.689 1703.38 865.479 C 1691.78 871.968 1672.3 883.719 1660.96 889.054 C 1612.06 916.14 1563.42 943.71 1515.07 971.758 C 1494.28 983.583 1472.19 996.636 1450.87 1007.51 C 1448.09 1008.93 1445.65 1008.78 1442.69 1008.39 L 1443.01 890.241 C 1443.02 880.563 1443.64 845.229 1441.97 837.81 L 1441.22 837.931 L 1387.36 806.644 L 1386.41 806.797 C 1375 798.466 1348.41 784.909 1334 775.291 C 1340.01 771.969 1346.04 768.691 1352.09 765.456 C 1362.82 760.227 1372.34 756.002 1379.69 746.014 C 1394.41 726.028 1393.31 697.704 1390.34 674.431 C 1383.74 652.029 1377.53 633.093 1363.68 613.741 C 1353.41 600.05 1346.45 592.618 1332.69 582.325 L 1325.92 577.231 L 1315.22 571.293 C 1303.45 564.871 1292.12 561.676 1279.22 558.568 C 1292.66 544.256 1297.25 536.336 1308.52 522.73 C 1320.24 503.882 1331 487.057 1339.17 466.197 z"/>
<path transform="translate(0,0)" fill="rgb(204,42,82)" d="M 1702.07 687.139 C 1705.38 691.88 1703.51 844.689 1703.38 865.479 C 1691.78 871.968 1672.3 883.719 1660.96 889.054 C 1612.06 916.14 1563.42 943.71 1515.07 971.758 C 1494.28 983.583 1472.19 996.636 1450.87 1007.51 C 1448.09 1008.93 1445.65 1008.78 1442.69 1008.39 L 1443.01 890.241 C 1443.02 880.563 1443.64 845.229 1441.97 837.81 C 1444.93 834.404 1487.41 810.586 1494.1 806.68 C 1562.96 766.443 1633.75 728.228 1702.07 687.139 z"/>
<path transform="translate(0,0)" fill="rgb(254,223,133)" d="M 1339.17 466.197 C 1352.28 472.487 1369.79 483.086 1382.65 490.557 C 1394.31 497.327 1410.34 505.708 1421.27 512.724 C 1399.27 525.236 1376.79 538.439 1354.69 550.636 C 1342.23 556.801 1326.84 566.211 1315.22 571.293 C 1303.45 564.871 1292.12 561.676 1279.22 558.568 C 1292.66 544.256 1297.25 536.336 1308.52 522.73 C 1320.24 503.882 1331 487.057 1339.17 466.197 z"/>
<path transform="translate(0,0)" fill="rgb(245,185,50)" d="M 1279.22 558.568 C 1292.66 544.256 1297.25 536.336 1308.52 522.73 C 1320.98 529.961 1343.86 542.544 1354.69 550.636 C 1342.23 556.801 1326.84 566.211 1315.22 571.293 C 1303.45 564.871 1292.12 561.676 1279.22 558.568 z"/>
<path transform="translate(0,0)" fill="rgb(228,130,35)" d="M 1421.27 512.724 C 1422.58 516.905 1421.82 523.994 1421.63 528.651 L 1422.06 529.611 C 1401.52 542.845 1378.07 554.262 1357.06 566.949 C 1350.37 570.993 1337.84 577.535 1332.69 582.325 L 1325.92 577.231 L 1315.22 571.293 C 1326.84 566.211 1342.23 556.801 1354.69 550.636 C 1376.79 538.439 1399.27 525.236 1421.27 512.724 z"/>
<path transform="translate(0,0)" fill="rgb(236,75,109)" d="M 1325.92 577.231 C 1329.35 574.489 1348.94 564.127 1353.93 561.267 C 1372.7 550.496 1391.44 539.188 1410.49 528.945 C 1415.54 526.229 1415.97 526.836 1421.63 528.651 L 1422.06 529.611 C 1401.52 542.845 1378.07 554.262 1357.06 566.949 C 1350.37 570.993 1337.84 577.535 1332.69 582.325 L 1325.92 577.231 z"/>
<path transform="translate(0,0)" fill="rgb(236,75,109)" d="M 1352.09 765.456 C 1368.59 776.401 1386.61 785.182 1402.53 796.417 C 1398.24 800.156 1392.75 804.698 1387.36 806.644 L 1386.41 806.797 C 1375 798.466 1348.41 784.909 1334 775.291 C 1340.01 771.969 1346.04 768.691 1352.09 765.456 z"/>
</svg>