<svg version="1.1" xmlns="http://www.w3.org/2000/svg" style="display: block;" viewBox="0 0 2048 2048" width="1024" height="1024" preserveAspectRatio="none">
<path transform="translate(0,0)" fill="rgb(32,29,25)" d="M 1343.19 197.727 C 1346.59 197.557 1348.55 198.83 1350.29 201.857 C 1357.96 215.195 1365.57 228.568 1373.27 241.892 C 1385.93 263.618 1398.78 285.228 1411.83 306.72 L 1596.33 621.27 L 1652.95 717.034 C 1659.26 727.901 1673.65 751.408 1677.56 761.47 C 1663.18 771.936 1630.1 788.524 1613.55 797.041 C 1614.05 814.034 1613.57 833.924 1613.59 851.127 L 1613.91 980.028 C 1708.95 1028 1811.2 1104.35 1857.05 1203.08 C 1866.67 1223.56 1873.51 1245.23 1877.41 1267.51 C 1882 1294.58 1881.09 1324.17 1881.57 1351.6 C 1882.44 1401.97 1884.58 1452.32 1866.06 1500.16 C 1819.63 1620.16 1691.46 1708.21 1578.8 1758.92 C 1333.75 1869.22 1029.51 1891.92 766.255 1846.44 C 686.279 1832.88 607.754 1811.84 531.718 1783.59 C 407.889 1737.72 254.736 1649.7 193.41 1526.68 C 181.692 1503.58 173.531 1478.84 169.203 1453.31 C 164.132 1423.58 166.038 1385.24 165.947 1354.42 C 165.884 1333.1 165.223 1301.63 167.505 1281.51 C 169.565 1264.41 173.431 1247.57 179.039 1231.29 C 219.168 1112.28 337.042 1028.48 444.693 975.158 C 443.145 958.747 443.991 926.887 443.986 909.353 L 443.903 788.307 C 440.207 785.991 436.956 783.697 433.402 781.196 C 428.68 784.211 417.713 794.338 413.317 787.449 C 408.212 779.447 384.809 744.78 384.623 737.592 C 392.56 730.019 411.047 720.196 421.258 714.32 L 466.11 688.305 L 653.428 578.701 C 652.4 566.803 653.644 533.711 653.681 519.806 L 653.101 409.998 C 653.002 395.865 653.544 383.095 653.007 368.817 L 635.057 358.583 C 634.863 342.74 635.07 326.472 635.083 310.593 C 678.831 287.67 721.534 262.762 765.847 240.013 C 805.974 260.82 853.455 287.604 892.646 310.742 C 892.5 326.701 892.599 342.661 892.943 358.617 C 886.474 362.499 880.148 365.821 873.479 369.35 C 874.277 396.748 874.113 426.892 873.803 454.338 L 1343.19 197.727 z"/>
<path transform="translate(0,0)" fill="rgb(127,194,121)" d="M 1759.2 1532.4 C 1715.59 1572.07 1661.57 1606.85 1609.06 1633.85 C 1414.58 1733.85 1167.61 1770.13 949.904 1758.82 C 716.46 1746.69 422.133 1677.47 256.642 1500.63 C 205.701 1446.19 169.63 1373.75 173.993 1298.25 C 178.833 1214.51 228.956 1141.77 289.506 1087.13 C 336.084 1045.09 388.376 1012.13 444.122 984.18 L 444.035 1285.48 L 752.519 1455.92 L 907.685 1541.41 C 942.198 1560.44 977.142 1580.43 1012.06 1598.55 L 1021.03 1593.91 C 1040.23 1582.84 1062.67 1571.49 1082.42 1560.78 L 1205.09 1494 L 1613.65 1271.84 C 1614.33 1240.74 1613.74 1208.21 1613.72 1177 L 1613.71 1010.52 C 1613.73 1003.55 1613.48 996.246 1613.36 989.243 C 1624.34 995.215 1635.27 1001.29 1646.15 1007.46 C 1660.33 1013.79 1678.9 1026.88 1691.87 1035.6 C 1762.86 1083.3 1825.12 1143.15 1856.7 1223.94 C 1899.06 1332.34 1855.97 1438.95 1776.68 1515.88 C 1771.51 1520.9 1764.89 1528.19 1759.2 1532.4 z"/>
<path transform="translate(0,0)" fill="rgb(93,148,84)" d="M 1613.36 989.243 C 1624.34 995.215 1635.27 1001.29 1646.15 1007.46 C 1660.33 1013.79 1678.9 1026.88 1691.87 1035.6 C 1762.86 1083.3 1825.12 1143.15 1856.7 1223.94 C 1899.06 1332.34 1855.97 1438.95 1776.68 1515.88 C 1771.51 1520.9 1764.89 1528.19 1759.2 1532.4 C 1746.86 1531.69 1711.88 1535.4 1698.53 1536.53 L 1581.6 1546.56 L 1177.58 1581.8 C 1143.59 1584.85 1109.58 1587.73 1075.56 1590.42 C 1064.08 1591.39 1030.36 1594.93 1021.03 1593.91 C 1040.23 1582.84 1062.67 1571.49 1082.42 1560.78 L 1205.09 1494 L 1613.65 1271.84 C 1614.33 1240.74 1613.74 1208.21 1613.72 1177 L 1613.71 1010.52 C 1613.73 1003.55 1613.48 996.246 1613.36 989.243 z"/>
<path transform="translate(0,0)" fill="rgb(127,194,121)" d="M 1613.36 989.243 C 1624.34 995.215 1635.27 1001.29 1646.15 1007.46 C 1637.89 1008.97 1622.45 1009.96 1613.71 1010.52 C 1613.73 1003.55 1613.48 996.246 1613.36 989.243 z"/>
<path transform="translate(0,0)" fill="rgb(32,29,25)" d="M 1683.42 1318.37 C 1696.48 1322.18 1700.41 1360.28 1701.22 1371.93 C 1707.05 1367.22 1714.71 1360.63 1722.61 1361.99 C 1724.99 1363.74 1726.3 1364.92 1726.59 1368.16 C 1727.12 1374.24 1723.53 1398.47 1715.8 1398.24 C 1713.19 1395.82 1714.08 1397.27 1713.25 1393.61 C 1716.7 1384.64 1718.33 1377.94 1719.82 1368.57 C 1706.97 1374.18 1710.22 1376.13 1700.58 1384.76 C 1698.97 1386.2 1697.3 1385.37 1695.7 1384.77 C 1693.5 1380.45 1693.18 1362.05 1692.06 1355.5 C 1690.04 1343.65 1688.83 1338.63 1684.42 1327.39 C 1678.31 1336.57 1676.15 1344.16 1674.22 1354.77 C 1672.74 1366.1 1676.22 1375.29 1675.22 1382.92 L 1673.12 1383.97 C 1665.57 1383.03 1665.28 1374.8 1659.24 1369.73 C 1654.29 1365.58 1650.24 1363.97 1644.5 1361.64 C 1647.38 1367.17 1650.1 1372.79 1652.66 1378.48 C 1656.51 1387.03 1664.55 1401.01 1661.33 1409.5 L 1659.7 1410.17 C 1659.05 1409.77 1657.38 1408.83 1657.18 1408.39 C 1654.13 1401.58 1636.18 1362.11 1636.59 1358 C 1645.67 1349.42 1659.55 1360.91 1666.74 1366.99 C 1667.12 1348.98 1668.89 1331.07 1683.42 1318.37 z"/>
<path transform="translate(0,0)" fill="rgb(32,29,25)" d="M 303.101 1374.37 C 318.959 1375.64 330.872 1393.61 338.206 1406.12 C 343.563 1397.61 354.257 1383.84 365.194 1384.09 C 371.549 1388 369.794 1396.06 368.285 1402.5 C 366.492 1410.15 364.191 1427.59 356.818 1430.91 L 354.865 1430.14 C 353.842 1427.37 362.667 1395.84 363.983 1390.35 C 350.104 1400.22 346.571 1405.6 338.997 1420.56 C 336.404 1419.3 325.759 1400.19 322.376 1395.38 C 319.542 1392.02 315.593 1388.02 312.533 1384.74 C 316.402 1394.99 321.283 1411.72 322.753 1422.45 C 321.875 1425.51 322.106 1425.45 319.67 1427.41 C 313.291 1426.83 312.602 1414.82 307.424 1410.04 C 303.409 1406.34 299.933 1404.35 295.409 1401.48 C 298.943 1417.44 307.842 1430.92 311.15 1443.98 C 310.266 1447.51 311.137 1446.03 308.314 1448.51 C 307.04 1448.38 305.62 1448.65 305.137 1447.42 C 300.7 1436.1 286.673 1409.34 288.429 1398.08 C 294.074 1390.11 305.145 1399.69 310.941 1403.94 C 308.716 1394.25 302.159 1382.33 303.101 1374.37 z"/>
<path transform="translate(0,0)" fill="rgb(32,29,25)" d="M 334.973 1144.73 C 344.696 1148.92 349.093 1161.04 352.728 1170.23 C 358.118 1162.21 369.499 1145.86 380.834 1151.52 C 389.001 1160.59 381.443 1194.92 373.278 1202.7 L 373.829 1202.04 L 370.854 1202.1 C 369.111 1196.79 372.279 1191.19 373.78 1185.84 C 376.618 1175.71 377.114 1166.75 377.031 1156.31 C 356.527 1168.37 364.756 1169.63 352.624 1185.55 C 352.019 1186.34 350.796 1185.75 349.545 1185.46 C 347.631 1183.28 345.892 1172.74 343.865 1167.5 L 343.375 1166.26 L 337.314 1154.81 C 336.925 1161.04 337.447 1175.78 332.396 1179.39 C 327.188 1178.37 321.56 1171.62 316.525 1169.04 C 313.128 1167.3 309.507 1166.43 305.84 1165.46 C 312.109 1177.79 320.508 1191.69 325.301 1204.73 C 326.115 1206.95 325.459 1207.3 324.515 1208.99 C 320.809 1210.75 322.501 1210.79 319.301 1209.84 C 315.871 1204.98 314.652 1199.13 312.056 1193.48 C 307.98 1184.62 298.017 1172.61 298.846 1162.7 C 305.172 1152.66 321.703 1163.09 328.684 1167.94 C 329.895 1159.47 330.157 1151.77 334.973 1144.73 z"/>
<path transform="translate(0,0)" fill="rgb(209,59,59)" d="M 1342.25 206.827 C 1345.3 207.673 1374 258.627 1378.05 265.433 L 1452.87 391.78 L 1668.31 758.777 C 1640.42 772.379 1607.38 791.362 1579.56 806.393 L 1415.1 895.281 L 1136.44 1045.89 C 1106.76 1062.07 1076.26 1078.07 1046.86 1094.55 C 1041.63 1090.96 744.391 588.469 720.584 548.242 L 1342.25 206.827 z"/>
<path transform="translate(0,0)" fill="rgb(244,194,70)" d="M 1604.21 802.037 L 1604.97 802.64 C 1607.52 812.192 1605.88 878.352 1605.9 891.388 L 1605.77 1073.39 C 1605.54 1116.06 1604.58 1161.46 1605.97 1203.98 L 1018.33 1523.64 L 1017 1523.98 C 1014.59 1520.8 1015.91 1493.02 1015.91 1486.77 L 1015.84 1403.99 L 1015.83 1121.32 C 1035.51 1108.73 1060.23 1096.25 1081.09 1084.96 L 1188.42 1026.66 L 1604.21 802.037 z"/>
<path transform="translate(0,0)" fill="rgb(33,29,11)" d="M 1545.67 876.842 L 1548.2 878.494 C 1550.9 882.664 1549.49 965.394 1549.48 976.838 L 1549.64 1172.67 C 1537.6 1180.32 1518.9 1189.19 1505.9 1196.47 C 1471.16 1215.91 1434.69 1234.15 1400.33 1254.18 C 1397.03 1255.22 1396.89 1255.14 1394.47 1253.64 C 1391.34 1248.03 1393.18 1233.49 1393.13 1226.58 L 1393.01 1128.49 C 1393 1073.13 1392.08 1015.06 1393.29 959.921 C 1399.41 955.644 1412.91 948.717 1420.01 944.876 L 1467.33 919.317 C 1488.49 907.88 1525.18 886.052 1545.67 876.842 z"/>
<path transform="translate(0,0)" fill="rgb(244,194,70)" d="M 1541.1 888.144 C 1542.33 890 1541.86 1145.56 1542.24 1167.96 C 1495.75 1193.58 1449.13 1218.95 1402.36 1244.07 C 1400.67 1242.85 1400.74 1241.11 1400.73 1239.18 C 1400.53 1207.69 1400.82 1176.13 1400.88 1144.64 L 1400.84 963.998 C 1410.09 960.31 1429.4 948.425 1439.21 943.42 C 1472.44 926.473 1507.71 904.106 1541.1 888.144 z"/>
<path transform="translate(0,0)" fill="rgb(32,29,25)" d="M 1528.81 1037.85 L 1530.29 1039.04 C 1532.55 1045.43 1531.03 1147.18 1531.02 1161.04 C 1520.47 1167.8 1487.66 1185.69 1476.32 1190.67 C 1472.57 1185.52 1473.86 1154.73 1473.85 1147 L 1473.99 1068 C 1482.62 1062.55 1520.39 1040.93 1528.81 1037.85 z"/>
<path transform="translate(0,0)" fill="rgb(157,213,237)" d="M 1522.88 1049.03 C 1524.59 1053.04 1523.19 1142.73 1523.89 1156.8 C 1510.43 1164.31 1496.89 1171.68 1483.28 1178.91 C 1482.26 1179.25 1482.89 1179.18 1481.42 1178.48 C 1480.43 1170.56 1481.11 1152.43 1481.1 1143.68 L 1480.95 1072.24 C 1494.84 1064.36 1508.82 1056.62 1522.88 1049.03 z"/>
<path transform="translate(0,0)" fill="rgb(32,29,25)" d="M 1466.63 1071.94 C 1466.92 1072.2 1467.26 1072.4 1467.5 1072.7 C 1470.78 1076.85 1468.59 1181.62 1468.45 1194.94 C 1461.24 1199.89 1421.64 1221.25 1413.37 1224.37 C 1409.61 1219.32 1411.36 1117.6 1411.34 1102.32 C 1417.53 1098.01 1460 1074.5 1466.63 1071.94 z"/>
<path transform="translate(0,0)" fill="rgb(157,213,237)" d="M 1459.4 1083.86 L 1459.98 1084.01 C 1462.94 1087.74 1461.34 1178.27 1461.6 1191.03 C 1448.65 1196.91 1433.04 1206 1420.5 1213.01 L 1419.29 1212.69 C 1417.77 1208.2 1418.79 1119 1418.44 1106.31 C 1432.04 1098.72 1445.69 1091.24 1459.4 1083.86 z"/>
<path transform="translate(0,0)" fill="rgb(32,29,25)" d="M 1525.87 908.819 C 1528.23 908.698 1528.11 908.732 1530.38 909.43 C 1532.37 914.686 1531.09 1016.64 1531.14 1030.19 C 1519.62 1037.32 1489.35 1053.89 1477.33 1059.51 C 1476.57 1059.58 1477.16 1059.61 1475.07 1058.99 C 1473.23 1054.94 1473.53 949.761 1473.85 937.791 C 1486.71 929.243 1511.57 916.637 1525.87 908.819 z"/>
<path transform="translate(0,0)" fill="rgb(157,213,237)" d="M 1522.61 918.916 C 1524.07 922.098 1523.71 1014.3 1523.99 1025.41 C 1511.5 1032.91 1496.08 1040.95 1483.2 1048.12 C 1481.66 1047.9 1482.38 1048.22 1481.11 1047.03 L 1480.98 941.149 C 1494.81 934.456 1509.06 926.344 1522.61 918.916 z"/>
<path transform="translate(0,0)" fill="rgb(32,29,25)" d="M 1462.83 942.779 C 1465.24 942.564 1465.07 942.591 1467.33 943.49 C 1470.28 948.724 1468.72 1049.01 1468.76 1063.98 C 1451.42 1074.06 1433.88 1083.8 1416.15 1093.18 C 1413.27 1093.13 1414.54 1093.53 1412.17 1092.05 C 1410.85 1087.29 1411.48 1060.44 1411.49 1053.47 L 1411.48 971.751 C 1426.52 962.376 1447.03 951.651 1462.83 942.779 z"/>
<path transform="translate(0,0)" fill="rgb(157,213,237)" d="M 1459.88 952.954 C 1461.98 955.27 1461.36 1047.12 1461.85 1059.95 L 1420.55 1082.62 L 1419.57 1082.54 C 1418.35 1080.48 1418.89 983.575 1418.88 975.657 L 1459.88 952.954 z"/>
<path transform="translate(0,0)" fill="rgb(33,29,11)" d="M 1259.95 1031.77 L 1262.43 1033.18 C 1265.05 1036.64 1264.05 1061.05 1264.05 1066.61 L 1264.01 1129.36 L 1263.93 1327.43 C 1252.28 1335.61 1217.38 1353.13 1203.39 1360.66 C 1172.86 1377.1 1141.3 1395.76 1110.71 1411.55 C 1106.01 1405.27 1107.51 1373.15 1107.5 1363.24 L 1107.55 1286.02 C 1107.59 1231.89 1105.87 1168.8 1108.09 1115.23 C 1121.99 1106.59 1143.32 1096.08 1158.32 1087.79 C 1192.01 1069.17 1226.04 1049.88 1259.95 1031.77 z"/>
<path transform="translate(0,0)" fill="rgb(244,194,70)" d="M 1255.2 1042.98 L 1255.83 1043.54 C 1257.58 1048.61 1256.38 1118.53 1256.37 1128.5 L 1256.87 1323.02 C 1213.21 1345.11 1161.71 1375.06 1118.47 1399.07 C 1116.89 1399.84 1117.8 1399.64 1115.71 1399.4 C 1114.07 1393.97 1115.14 1336.39 1115.15 1326.77 L 1114.94 1120 C 1161.89 1094.9 1208.17 1068.13 1255.2 1042.98 z"/>
<path transform="translate(0,0)" fill="rgb(32,29,25)" d="M 1240.97 1063.75 C 1244.12 1063.82 1242.75 1063.37 1245.28 1064.85 C 1247.92 1074.47 1245.94 1169.19 1246.06 1185.36 C 1228.38 1194.79 1209.98 1205.59 1192.31 1214.39 C 1190.09 1214.56 1191.11 1214.85 1189.28 1213.42 C 1187.84 1198.52 1188.22 1180.36 1188.23 1165.26 L 1188.14 1093.58 C 1201.66 1084.56 1225.7 1072.47 1240.97 1063.75 z"/>
<path transform="translate(0,0)" fill="rgb(157,213,237)" d="M 1237.83 1073.88 C 1238.68 1078.47 1238.55 1100.04 1238.6 1105.78 L 1238.95 1180.98 C 1224.25 1188.57 1210.52 1195.59 1196.33 1204.18 C 1195.02 1200.6 1195.33 1108.75 1195.24 1097.1 L 1237.83 1073.88 z"/>
<path transform="translate(0,0)" fill="rgb(32,29,25)" d="M 1178.91 1097.83 L 1181.8 1098.31 C 1184.71 1102.48 1183.54 1205.14 1183.46 1218.97 C 1170.21 1228.02 1145.37 1240.77 1130.46 1248.74 C 1127.46 1248.87 1128.76 1249.34 1126.36 1247.81 C 1125.29 1243.31 1125.78 1218.58 1125.8 1211.64 L 1126.1 1127.31 C 1140.35 1118.73 1164.24 1105.33 1178.91 1097.83 z"/>
<path transform="translate(0,0)" fill="rgb(157,213,237)" d="M 1174.09 1108.81 L 1175.03 1109.03 C 1176.56 1111.28 1175.73 1200.88 1176.85 1214.93 C 1162.52 1222.18 1148.42 1229.87 1134.57 1238 L 1133.87 1237.82 C 1133.17 1236.24 1133.36 1141.61 1133.2 1131.11 C 1146.77 1124.01 1160.62 1116.19 1174.09 1108.81 z"/>
<path transform="translate(0,0)" fill="rgb(32,29,25)" d="M 1181.9 1227.06 C 1184.49 1230.74 1183.17 1336.86 1183.08 1350.05 C 1170.93 1357.43 1140.05 1374.83 1127.68 1380.13 C 1124.59 1374.24 1125.99 1271.38 1126.01 1257.33 C 1142 1248.7 1166.17 1233.49 1181.9 1227.06 z"/>
<path transform="translate(0,0)" fill="rgb(157,213,237)" d="M 1174.81 1239 C 1176.52 1241.3 1176.07 1334.91 1176.25 1346.02 C 1162.02 1352.75 1148.01 1360.82 1134.37 1368.65 C 1131.45 1364.83 1133.19 1275.4 1133.03 1261.9 L 1174.81 1239 z"/>
<path transform="translate(0,0)" fill="rgb(32,29,25)" d="M 1241.08 1193.77 C 1243.58 1193.73 1243.42 1193.65 1245.53 1194.98 C 1246.68 1199.09 1245.88 1234.26 1245.82 1241.36 L 1245.58 1315.69 C 1234.67 1323.11 1205.08 1338.27 1192.3 1345.14 L 1189.72 1344.25 C 1187.62 1340.47 1188.33 1233.66 1188.88 1223.02 C 1206.34 1213.38 1223.75 1203.63 1241.08 1193.77 z"/>
<path transform="translate(0,0)" fill="rgb(157,213,237)" d="M 1236.8 1205.02 C 1239.01 1207.93 1238.76 1302.48 1238.82 1311.6 C 1225.05 1318.06 1209.21 1327.3 1195.97 1334.79 C 1195.32 1333.24 1195.31 1238.96 1195.23 1227.62 C 1208.87 1220.71 1223.05 1212.32 1236.8 1205.02 z"/>
<path transform="translate(0,0)" fill="rgb(244,194,70)" d="M 452.043 792.655 C 461.365 797.186 473.884 804.699 483.338 809.903 L 552.1 847.972 L 763.305 965.44 C 815.677 994.187 867.89 1023.22 919.941 1052.55 L 961.961 1075.68 C 994.529 1093.56 989.125 1089.94 1007.72 1121.18 C 1008.97 1152.51 1007.89 1192.89 1007.88 1224.68 L 1007.83 1405.95 C 1007.77 1445.75 1007.09 1486.5 1008.17 1526.2 C 953.626 1494.27 890.739 1460.86 834.996 1430.11 C 825.069 1424.55 815.054 1419.15 804.955 1413.9 L 805.09 1140.87 C 779.83 1124.62 744.179 1107.59 717.7 1091.68 C 707.916 1085.8 659.872 1058.81 651.86 1056.2 L 650.107 1057.12 C 646.867 1062.35 648.209 1139.36 648.189 1151.09 L 647.953 1326.68 L 525.101 1258.36 C 501.958 1245.55 475.698 1230.33 452.133 1218.95 L 452.043 792.655 z"/>
<path transform="translate(0,0)" fill="rgb(33,29,11)" d="M 832.634 1070.3 C 842.493 1072.14 956.39 1137.76 972.141 1147.78 C 973.282 1174.32 972.133 1210.56 972.148 1237.65 L 972.118 1363.5 C 972.107 1373.15 972.922 1419.85 970.625 1426.58 C 962.383 1425.41 845.056 1358.99 831.103 1350.43 L 831.203 1162.18 C 831.197 1149.91 830.181 1077.85 832.634 1070.3 z"/>
<path transform="translate(0,0)" fill="rgb(244,194,70)" d="M 839.055 1081.28 C 849.237 1086.04 869.267 1098.08 879.618 1103.88 C 908.104 1119.81 936.48 1135.94 964.745 1152.27 C 963.092 1173.35 964.22 1210.9 964.263 1233.62 C 964.888 1293.66 964.986 1353.7 964.556 1413.73 C 964.148 1414.54 964.492 1414.01 963.045 1414.89 C 954.433 1411.52 924.22 1393.87 914.928 1388.52 C 890.218 1374.3 863.157 1360.39 838.938 1345.77 L 839.055 1081.28 z"/>
<path transform="translate(0,0)" fill="rgb(32,29,25)" d="M 903.765 1254.35 C 915.982 1257.36 941.737 1273.56 954.987 1280.53 L 954.939 1356.44 C 954.926 1367.64 955.5 1386.42 954.124 1396.73 C 944.05 1394.79 913.245 1375.9 903.507 1369.64 C 902.499 1350.91 903.364 1327.13 903.039 1307.83 C 902.816 1294.63 902.41 1266.72 903.765 1254.35 z"/>
<path transform="translate(0,0)" fill="rgb(157,213,237)" d="M 910.874 1264.91 C 918.721 1268.31 939.045 1280.77 947.353 1285.58 C 946.661 1318.68 947.22 1353.3 947.285 1386.51 C 935.312 1380.32 923.716 1372.46 910.947 1365.95 L 910.874 1264.91 z"/>
<path transform="translate(0,0)" fill="rgb(32,29,25)" d="M 903.776 1131.25 C 912.624 1132.8 945.878 1152.87 954.905 1158.72 C 955.717 1186.48 954.483 1214.88 955.026 1242.71 C 955.223 1252.84 955.385 1264.57 954.389 1274.57 C 946.075 1272.51 911.559 1252.09 904 1246.1 C 903.331 1221.14 903 1196.18 903.007 1171.21 C 902.981 1159.3 902.493 1142.53 903.776 1131.25 z"/>
<path transform="translate(0,0)" fill="rgb(157,213,237)" d="M 910.71 1141.88 C 920.567 1146.48 937.537 1157.12 947.49 1163 C 946.846 1195.56 947.388 1229.89 947.536 1262.59 C 944.014 1262.06 916.312 1245.7 910.829 1242.87 C 911.607 1210.82 911.106 1173.95 910.71 1141.88 z"/>
<path transform="translate(0,0)" fill="rgb(32,29,25)" d="M 848.987 1100.51 C 858.355 1102.38 891.207 1121.95 900.016 1128.01 C 898.26 1166.01 900.991 1205.39 899.027 1242.82 C 893.54 1243.99 856.384 1221.2 848.398 1216.63 C 847.61 1196.02 848.304 1173.04 847.991 1152.15 C 847.794 1139.05 847.262 1112.53 848.987 1100.51 z"/>
<path transform="translate(0,0)" fill="rgb(157,213,237)" d="M 855.627 1111.26 C 867.669 1117.55 880.281 1124.99 892.166 1131.73 C 891.831 1165.14 892.147 1199.02 892.176 1232.47 C 880.652 1225.26 867.491 1218.29 855.504 1211.66 L 855.627 1111.26 z"/>
<path transform="translate(0,0)" fill="rgb(32,29,25)" d="M 848.745 1223.24 C 857.501 1224.83 891.087 1244.69 899.38 1250.52 C 899.802 1272.94 899.053 1296.43 899.407 1319.05 C 899.581 1330.12 900.04 1355.59 898.902 1365.37 C 889.838 1364.2 858.347 1344.95 848.353 1339.24 C 847.403 1317.93 848.336 1293.47 847.964 1271.88 C 847.763 1260.19 847.315 1233.38 848.745 1223.24 z"/>
<path transform="translate(0,0)" fill="rgb(157,213,237)" d="M 855.203 1234.36 C 867.469 1240.97 879.685 1247.67 891.85 1254.46 C 891.453 1282.03 892.45 1309.81 892.214 1337.39 C 892.164 1343.31 892.55 1349.34 891.545 1355.18 C 880.713 1348.33 866.913 1341.03 855.546 1334.69 C 854.184 1302.41 856.523 1267.74 855.203 1234.36 z"/>
<path transform="translate(0,0)" fill="rgb(33,29,11)" d="M 482.603 876.539 C 489.022 878.234 525.832 899.061 534.777 904.27 C 562.461 920.389 594.399 936.31 621.218 953.045 L 621.188 1140.08 C 621.202 1168.53 621.349 1197.32 621.053 1225.77 C 621.019 1229 620.421 1230.34 618.821 1233.02 C 595.193 1222.09 563.005 1201.55 538.973 1189 C 527.165 1182.83 487.797 1161.27 480.056 1155.39 L 480.374 967.154 L 480.615 913.419 C 480.629 905.503 479.716 882.607 482.603 876.539 z"/>
<path transform="translate(0,0)" fill="rgb(244,194,70)" d="M 488.266 887.502 C 496.217 890.939 517.578 903.447 526.083 908.117 L 613.865 957.181 C 611.994 1043.38 613.798 1133.13 613.679 1219.66 L 612.998 1220.36 C 609.301 1220.16 499.889 1158.4 487.888 1151.81 L 488.266 887.502 z"/>
<path transform="translate(0,0)" fill="rgb(32,29,25)" d="M 553.34 1059.58 C 563.755 1062.52 593.287 1080.28 604.041 1086.5 C 603.927 1102.32 605.708 1193.25 602.737 1202.52 C 593.949 1200.51 561.994 1181.04 552.857 1175.26 C 551.737 1162.37 551.027 1069.31 553.34 1059.58 z"/>
<path transform="translate(0,0)" fill="rgb(157,213,237)" d="M 559.935 1070.33 C 568.338 1074.17 587.822 1086.01 596.856 1091.16 C 594.859 1117.7 596.557 1162.83 596.844 1190.67 C 593.88 1191.23 565.71 1174.48 559.985 1171.63 L 559.935 1070.33 z"/>
<path transform="translate(0,0)" fill="rgb(32,29,25)" d="M 553.24 936.47 C 563.322 939.898 595.517 958.333 604.049 964.604 C 603.778 983.658 606.263 1069.73 602.797 1080.42 C 594.637 1077.68 560.147 1057.43 553.041 1052.09 C 552.467 1037.17 550.383 946.45 553.24 936.47 z"/>
<path transform="translate(0,0)" fill="rgb(157,213,237)" d="M 559.788 946.987 C 570.791 954.131 584.932 961.753 596.521 968.424 C 594.969 998.684 596.357 1038.12 596.801 1068.74 C 589.482 1065.7 569.314 1053.15 560.005 1048.31 L 559.788 946.987 z"/>
<path transform="translate(0,0)" fill="rgb(32,29,25)" d="M 498.609 1028.93 C 508.304 1031.61 539.788 1050.3 548.73 1056.27 C 548.238 1079.42 548.095 1102.57 548.301 1125.73 C 548.434 1138.62 549.333 1158.98 548.213 1171.35 C 539.734 1170.64 506.458 1150.25 497.309 1144.81 C 496.746 1128.71 495.367 1035.48 498.609 1028.93 z"/>
<path transform="translate(0,0)" fill="rgb(157,213,237)" d="M 504.175 1040.26 C 508.212 1041.62 535.911 1057.32 541.002 1060.14 L 541.026 1161 C 529.335 1153.72 516.941 1147.35 504.782 1140.85 L 504.175 1040.26 z"/>
<path transform="translate(0,0)" fill="rgb(32,29,25)" d="M 498.525 906.233 C 507.197 908.26 540.643 928.119 548.879 933.944 C 547.572 959.454 548.341 985.286 548.35 1010.82 C 548.354 1022.7 549.359 1038.08 547.986 1049.51 C 539.754 1047.39 506.054 1027.58 497.37 1022.31 C 496.981 1006.86 495.503 915.926 498.525 906.233 z"/>
<path transform="translate(0,0)" fill="rgb(157,213,237)" d="M 504.453 916.89 C 514.711 921.884 530.489 931.421 541.091 937.234 C 540.422 970.079 540.975 1004.56 541.005 1037.53 L 504.701 1017.7 C 505.336 984.986 504.761 949.671 504.453 916.89 z"/>
<path transform="translate(0,0)" fill="rgb(93,148,84)" d="M 1875.01 1367.49 C 1874.05 1390.15 1875.1 1421.35 1872.47 1442.41 C 1863.48 1514.33 1817.54 1580.83 1764.79 1628.88 C 1560.48 1814.99 1220.38 1870.5 953.121 1858.62 C 892.725 1855.54 832.548 1849.1 772.869 1839.32 C 765.863 1838.16 736.162 1833.54 730.265 1831.64 L 731.386 1830.65 C 732.506 1825.37 731.569 1809.02 731.602 1802.69 C 731.711 1782.1 730.726 1760.87 731.728 1740.31 C 802.689 1753.98 874.5 1762.79 946.66 1766.69 C 1196.73 1779.6 1486.58 1733.18 1697.58 1591.04 C 1758.67 1549.89 1822.59 1490.54 1854.38 1423.18 C 1864.76 1401.18 1867.38 1388.92 1875.01 1367.49 z"/>
<path transform="translate(0,0)" fill="rgb(254,239,209)" d="M 708.982 620.782 C 713.205 623.268 952.008 1029.52 981.918 1077.77 C 963.737 1068.68 940.691 1054.95 922.703 1044.91 L 809.42 981.602 L 440.807 777.426 C 471.399 760.564 504.725 740.022 535.287 722.189 L 708.982 620.782 z"/>
<path transform="translate(0,0)" fill="rgb(33,29,11)" d="M 684.913 716.309 C 761.707 712.306 827.345 869.391 749.648 890.013 C 671.785 897.136 605.701 731.447 684.913 716.309 z"/>
<path transform="translate(0,0)" fill="rgb(244,194,70)" d="M 685.996 724.122 C 754.109 720.596 814.711 863.574 749.05 882.004 C 680.78 888.768 617.772 740.347 685.996 724.122 z"/>
<path transform="translate(0,0)" fill="rgb(32,29,25)" d="M 674.834 777.875 C 671.853 776.167 667.072 773.626 666.004 770.409 C 659.002 749.321 690.11 728.949 708.545 737.749 C 712.429 739.603 714.274 740.796 715.763 744.754 L 718.767 745.322 C 740.278 748.159 777.706 813.156 767.346 827.567 L 764.898 828.629 L 764.056 830.91 C 780.255 846.43 751.057 872.511 733.73 870.082 C 725.427 868.918 718.378 867.908 717.832 857.892 L 715.175 858.01 L 713.345 859.765 C 693.575 860.298 657.922 793.01 666.444 778.497 C 669.745 777.235 668.622 777.594 672.89 779.112 L 674.834 777.875 z"/>
<path transform="translate(0,0)" fill="rgb(32,29,25)" d="M 715.175 858.01 L 713.345 859.765 C 693.575 860.298 657.922 793.01 666.444 778.497 C 669.745 777.235 668.622 777.594 672.89 779.112 C 684.704 786.086 703.947 796.689 714.97 804.319 C 715.108 821.897 715.555 840.51 715.175 858.01 z"/>
<path transform="translate(0,0)" fill="rgb(157,213,237)" d="M 673.542 788.702 C 681.446 792.491 699.479 803.591 707.839 808.349 C 707.693 821.798 707.447 835.215 707.856 848.66 C 690.786 840.035 678.022 806.03 673.542 788.702 z"/>
<path transform="translate(0,0)" fill="rgb(32,29,25)" d="M 674.834 777.875 C 671.853 776.167 667.072 773.626 666.004 770.409 C 659.002 749.321 690.11 728.949 708.545 737.749 C 712.429 739.603 714.274 740.796 715.763 744.754 C 715.545 761.019 716.324 783.556 714.845 798.883 C 698.817 793.418 688.834 785.012 674.834 777.875 z"/>
<path transform="translate(0,0)" fill="rgb(157,213,237)" d="M 693.517 744.162 C 698.203 743.89 703.288 743.229 707.145 746.015 C 708.284 752.211 708.035 779.722 708.182 787.893 C 703.896 785.562 699.546 782.953 695.31 780.498 L 671.905 767.094 C 676.854 754.111 679.505 748.205 693.517 744.162 z"/>
<path transform="translate(0,0)" fill="rgb(32,29,25)" d="M 717.832 857.892 C 718.499 848.14 715.882 813.811 720.784 808.807 C 725.744 807.646 756.43 827.014 764.056 830.91 C 780.255 846.43 751.057 872.511 733.73 870.082 C 725.427 868.918 718.378 867.908 717.832 857.892 z"/>
<path transform="translate(0,0)" fill="rgb(157,213,237)" d="M 724.986 818.133 C 734.783 822.504 751.271 832.81 761.587 838.475 C 759.379 845.381 758.131 848.664 753.71 854.403 C 749.411 858.285 745.395 859.692 740.22 861.976 C 719.968 870.917 725.175 830.454 724.986 818.133 z"/>
<path transform="translate(0,0)" fill="rgb(244,194,70)" d="M 715.763 744.754 L 718.767 745.322 C 716.778 755.774 718.539 789.715 718.977 802.357 C 733.554 810.721 750.239 820.878 764.898 828.629 L 764.056 830.91 C 756.43 827.014 725.744 807.646 720.784 808.807 C 715.882 813.811 718.499 848.14 717.832 857.892 L 715.175 858.01 C 715.555 840.51 715.108 821.897 714.97 804.319 C 703.947 796.689 684.704 786.086 672.89 779.112 L 674.834 777.875 C 688.834 785.012 698.817 793.418 714.845 798.883 C 716.324 783.556 715.545 761.019 715.763 744.754 z"/>
<path transform="translate(0,0)" fill="rgb(157,213,237)" d="M 725.739 756.856 C 739.237 767.42 761.295 800.059 760.413 817.328 C 748.697 810.531 737.258 803.796 725.214 797.58 C 725.766 784.421 725.521 770.172 725.739 756.856 z"/>
<path transform="translate(0,0)" fill="rgb(127,194,121)" d="M 173.427 1372.69 C 185.102 1406.01 193.885 1430.79 214.752 1461.05 C 324.367 1620.02 550.915 1704.96 731.728 1740.31 C 730.726 1760.87 731.711 1782.1 731.602 1802.69 C 731.569 1809.02 732.506 1825.37 731.386 1830.65 L 730.265 1831.64 C 569.456 1798.46 396.532 1737.15 275.82 1621.76 C 225.109 1573.28 183.694 1511.44 175.636 1440.65 C 173.119 1418.54 173.817 1395.18 173.427 1372.69 z"/>
<path transform="translate(0,0)" fill="rgb(244,104,101)" d="M 712.976 552.858 C 715.6 554.542 743.022 601.933 746.327 607.426 L 933.178 921.156 L 993.597 1022.41 C 1007.02 1045.02 1024.99 1076.38 1039.52 1097.83 C 1030.38 1102.97 1021.37 1108.34 1012.5 1113.94 L 839.53 823.413 L 752.26 677.021 C 741.12 658.384 723.826 626.566 711.737 609.846 C 702.087 614.649 688.161 623.416 678.531 629.07 L 616.081 665.708 L 417.507 781.772 C 409.711 767.989 401.846 754.246 393.911 740.543 C 404.711 733.058 421.093 724.014 432.787 717.208 L 499.544 678.402 L 712.976 552.858 z"/>
<path transform="translate(0,0)" fill="rgb(144,94,78)" d="M 1604.81 1214.08 C 1606.19 1215.73 1605.92 1259.75 1606.1 1266.87 L 1109.87 1536.93 C 1079.01 1553.84 1048.21 1569.91 1017.42 1587.1 L 1016.36 1586.48 C 1015.05 1582.95 1015.59 1540.9 1015.52 1533.97 C 1041.61 1518.05 1079.04 1499.29 1106.78 1484.28 L 1265.65 1397.8 L 1483.98 1279.05 C 1524 1256.91 1564.28 1235.25 1604.81 1214.08 z"/>
<path transform="translate(0,0)" fill="rgb(185,136,112)" d="M 451.957 1227.35 L 849.216 1447.03 C 901.611 1475.82 955.123 1506.82 1008.13 1534.31 L 1007.8 1587.56 L 701.1 1418.44 C 649.462 1389.4 597.633 1360.71 545.616 1332.35 C 514.432 1315.14 483.609 1297.39 451.996 1280.94 L 451.957 1227.35 z"/>
<path transform="translate(0,0)" fill="rgb(185,136,112)" d="M 676.395 1100.29 C 703.39 1116.27 731.23 1131.09 758.411 1146.78 C 764.539 1150.31 770.667 1153.68 777.113 1156.61 L 776.809 1325.53 C 776.737 1346.77 777.898 1378.01 776.439 1398.09 C 760.369 1388.32 739.724 1378.07 723.009 1368.44 C 710.494 1361.23 688.711 1348.41 676.238 1342.93 L 676.395 1100.29 z"/>
<path transform="translate(0,0)" fill="rgb(32,29,25)" d="M 749.941 1250.96 C 767.498 1250.68 779.675 1272.85 762.988 1284.67 C 745.357 1285.79 733.119 1263.32 749.941 1250.96 z"/>
<path transform="translate(0,0)" fill="rgb(244,194,70)" d="M 752.733 1258.74 C 761.824 1262.3 763.618 1268.27 759.711 1276.96 C 751.028 1274.31 746.519 1266.65 752.733 1258.74 z"/>
<path transform="translate(0,0)" fill="rgb(244,104,101)" d="M 766.006 247.987 C 776.093 254.677 796.642 265.592 807.685 271.769 L 880.776 313 C 844.894 331 797.814 357.876 762.335 377.865 C 753.433 373.777 736.241 363.274 726.641 357.934 C 700.006 343.345 673.589 328.362 647.397 312.992 C 675.055 298.918 702.024 282.421 729.584 268.061 C 741.801 261.696 754.169 255.002 766.006 247.987 z"/>
<path transform="translate(0,0)" fill="rgb(41,26,26)" d="M 764.983 266.693 C 771.343 268.155 839.894 307.221 843.191 312.585 C 839.505 317.845 773.267 352.885 763.171 358.16 C 755.64 357.627 731.833 341.461 723.595 337.091 C 717.102 333.647 687.179 318.407 685.038 313.098 C 690.695 305.78 753.655 272.857 764.983 266.693 z"/>
<path transform="translate(0,0)" fill="rgb(209,59,59)" d="M 760.925 278.063 C 763.119 281.414 761.533 341.916 761.126 349.588 C 747.695 341.682 734.12 334.021 720.41 326.609 C 711.943 322.165 704.889 318.089 696.701 313.196 C 718.127 301.647 739.409 289.283 760.925 278.063 z"/>
<path transform="translate(0,0)" fill="rgb(209,59,59)" d="M 769.796 277.484 C 788.524 287.347 812.526 301.595 830.549 312.579 L 808.449 324.797 C 795.947 331.716 782.677 339.128 769.979 345.522 C 769.752 322.843 769.691 300.164 769.796 277.484 z"/>
<path transform="translate(0,0)" fill="rgb(244,104,101)" d="M 661.193 373.622 C 692.485 389.971 727.221 410.567 758.236 428.081 C 757.529 457.261 758.244 489.339 758.364 518.717 C 747.532 523.979 733.247 532.418 722.399 538.383 C 703.049 548.329 680.225 562.734 661.002 573.869 C 661.062 507.888 659.988 439.407 661.193 373.622 z"/>
<path transform="translate(0,0)" fill="rgb(209,59,59)" d="M 864.834 373.999 C 867.432 377.218 866.022 447.735 866.221 458.821 L 766.975 513.78 C 765.299 509.383 766.07 438.82 765.971 428.235 C 794.82 410.538 834.286 391.032 864.834 373.999 z"/>
<path transform="translate(0,0)" fill="rgb(185,136,112)" d="M 655.955 1066.2 C 665.52 1070.3 689.967 1084.93 700.381 1090.75 L 797.644 1145.42 C 796.616 1182.55 797.248 1221.64 797.261 1258.92 C 797.03 1309.23 797.165 1359.55 797.664 1409.86 C 793.26 1407.81 788.501 1405.11 784.181 1402.78 C 786.222 1329.02 784.765 1249.02 784.739 1174.75 L 784.638 1153.32 C 775.946 1146.85 676.242 1090.73 670.32 1090.45 C 667.135 1097.59 668.847 1317.92 668.734 1338.26 L 655.043 1330.76 C 656.227 1297.91 655.835 1261.57 655.903 1228.59 L 655.955 1066.2 z"/>
<path transform="translate(0,0)" fill="rgb(209,59,59)" d="M 882.849 320.891 L 884.118 321.111 C 885.28 323.776 884.915 349.959 884.989 354.283 C 848.39 372.808 804.339 397.938 768.169 418.119 C 765.084 416.024 766.392 389.431 766.435 384.42 L 882.849 320.891 z"/>
<path transform="translate(0,0)" fill="rgb(244,104,101)" d="M 643.031 320.421 C 654.779 326.212 672.138 336.76 684.254 343.53 C 708.947 357.187 733.558 370.991 758.087 384.941 L 757.997 418.295 C 744.112 411.75 727.992 401.952 714.391 394.247 C 690.714 380.813 666.931 367.567 643.045 354.51 L 643.031 320.421 z"/>
<path transform="translate(0,0)" fill="rgb(32,29,25)" fill-opacity="0.0196078" d="M 373.354 1712.53 L 375.765 1715.49 C 375.966 1718.32 375.863 1718.5 374.171 1720.7 L 374.165 1718.54 C 372.309 1716.91 372.058 1717.2 369.649 1716.49 C 369.981 1714.33 370.949 1714.35 373.354 1712.53 z"/>
<path transform="translate(0,0)" fill="rgb(32,29,25)" fill-opacity="0.0156863" d="M 310.855 1678.56 C 312.771 1680.28 314.448 1684.35 314.824 1686.91 L 311.89 1686.1 C 310.184 1683.32 310.855 1682.42 310.855 1678.56 z"/>
</svg>