<svg version="1.1" xmlns="http://www.w3.org/2000/svg" style="display: block;" viewBox="0 0 2048 2048" width="1024" height="1024" preserveAspectRatio="none">
<path transform="translate(0,0)" fill="rgb(22,136,127)" d="M 814.999 317.756 C 834.371 331.349 850.901 339.182 869.078 351.132 C 869.399 353.001 869.645 352.285 868.949 353.401 C 874.647 365.805 867.875 475.602 870.241 497.017 C 871.122 504.997 869.191 518.804 871.06 528.524 L 876.868 527.121 C 896.501 521.632 922.202 535.92 940.729 544.501 C 975.434 558.694 1024 605.485 1043.11 637.094 C 1047.25 646.864 1044.64 655.99 1046.26 663.97 C 1072.92 678.965 1099.93 695.669 1126.03 711.812 C 1146.32 724.363 1172.99 738.824 1192.21 752.384 C 1198.9 751.932 1210.47 746.637 1217.59 747.09 C 1251.69 749.26 1290.24 777.474 1318.85 795.691 C 1400.13 843.099 1481.36 894.372 1562.23 942.808 L 1657.8 1000.79 C 1674.5 1010.81 1705.03 1027.92 1719.98 1039.22 C 1731.62 1047.66 1737.8 1055.64 1747.64 1065.17 C 1751.6 1060.37 1775.08 1048.35 1781.73 1045.6 L 1790.66 1051.55 C 1798.93 1055.66 1835.13 1078.43 1843.79 1084.5 L 1843.87 1292.23 C 1843.56 1337.36 1843.77 1382.48 1844.49 1427.6 C 1828.42 1437.11 1800.11 1454.17 1782.41 1463.05 C 1781.57 1462.92 1780.73 1462.79 1779.88 1462.67 C 1760.75 1450.91 1739.31 1437.29 1719.47 1427.28 C 1719.41 1419.46 1719.78 1411.26 1720.02 1403.41 L 1719.72 1395.25 C 1714.88 1395.49 1278.44 1650.58 1228.69 1678.8 C 1229.13 1714.3 1228.89 1750.13 1228.89 1785.67 C 1220.17 1790.86 1169.86 1821.6 1163.59 1821.6 L 1160.3 1820.03 C 1145.46 1809.79 1118.87 1794.71 1103.07 1786.17 C 1101.61 1751.99 1103.07 1705.6 1103.2 1670.73 C 966.167 1586.16 826.089 1503.03 687.799 1420.42 L 354.287 1220.38 C 345.152 1215.26 336.164 1210.36 327.378 1204.64 C 327.93 1217.93 327.347 1230.83 327.714 1243.87 C 306.879 1255.49 286.156 1267.32 265.549 1279.34 C 261.656 1277.12 257.682 1274.99 254.051 1272.37 C 252.172 1271.69 239.46 1263.92 237.014 1262.46 C 225.719 1255.7 214.384 1249.01 203.01 1242.38 C 201.849 1223.12 202.737 1195.4 202.741 1175.52 L 202.714 1050.2 L 202.583 611.224 C 211.757 607.175 226.023 598.511 235.213 593.324 C 238 590.955 252.351 582.742 256.049 580.607 C 259.722 577.897 260.847 576.835 264.99 575.155 C 282.002 584.791 299.832 596.055 316.361 606.604 C 326.332 600.307 340.232 592.852 350.802 587.228 C 357.981 581.749 390.383 563.493 399.507 558.135 L 501.101 498.43 L 706.366 378.52 C 735.622 361.593 766.426 342.039 796.172 326.436 L 797.601 327.301 C 804.272 324.594 808.888 321.523 814.999 317.756 z"/>
<path transform="translate(0,0)" fill="rgb(252,200,165)" d="M 814.999 317.756 C 834.371 331.349 850.901 339.182 869.078 351.132 C 869.399 353.001 869.645 352.285 868.949 353.401 C 874.647 365.805 867.875 475.602 870.241 497.017 C 871.122 504.997 869.191 518.804 871.06 528.524 L 876.868 527.121 C 896.501 521.632 922.202 535.92 940.729 544.501 C 975.434 558.694 1024 605.485 1043.11 637.094 C 1047.25 646.864 1044.64 655.99 1046.26 663.97 C 1072.92 678.965 1099.93 695.669 1126.03 711.812 C 1146.32 724.363 1172.99 738.824 1192.21 752.384 C 1184.38 757.648 1169.17 765.507 1159.97 771.045 C 1124.17 792.458 1088.2 813.581 1052.06 834.412 L 731.794 1022.79 L 646.754 1072.73 C 637.513 1078.18 617.608 1089.12 609.769 1095.05 C 596.663 1103.74 589.495 1110.29 579.761 1122.49 C 560.283 1151.02 558.754 1164.97 558.992 1199.02 C 549.984 1191.14 537.816 1184.59 527.47 1178.27 L 482.642 1150.73 C 420.595 1112.45 358.31 1074.55 295.79 1037.04 C 289.371 1041.27 283.482 1044.85 276.847 1048.75 C 275.691 1061.5 276.208 1080.82 276.105 1094.27 C 275.912 1119.49 275.284 1146.2 275.988 1171.34 C 287.142 1177.11 349.374 1211.53 354.287 1220.38 C 345.152 1215.26 336.164 1210.36 327.378 1204.64 C 327.93 1217.93 327.347 1230.83 327.714 1243.87 C 306.879 1255.49 286.156 1267.32 265.549 1279.34 C 261.656 1277.12 257.682 1274.99 254.051 1272.37 C 252.172 1271.69 239.46 1263.92 237.014 1262.46 C 225.719 1255.7 214.384 1249.01 203.01 1242.38 C 201.849 1223.12 202.737 1195.4 202.741 1175.52 L 202.714 1050.2 L 202.583 611.224 C 211.757 607.175 226.023 598.511 235.213 593.324 C 238 590.955 252.351 582.742 256.049 580.607 C 259.722 577.897 260.847 576.835 264.99 575.155 C 282.002 584.791 299.832 596.055 316.361 606.604 C 326.332 600.307 340.232 592.852 350.802 587.228 C 357.981 581.749 390.383 563.493 399.507 558.135 L 501.101 498.43 L 706.366 378.52 C 735.622 361.593 766.426 342.039 796.172 326.436 L 797.601 327.301 C 804.272 324.594 808.888 321.523 814.999 317.756 z"/>
<path transform="translate(0,0)" fill="rgb(202,70,12)" d="M 814.999 317.756 C 834.371 331.349 850.901 339.182 869.078 351.132 C 869.399 353.001 869.645 352.285 868.949 353.401 C 874.647 365.805 867.875 475.602 870.241 497.017 C 871.122 504.997 869.191 518.804 871.06 528.524 C 797.074 552.945 727.142 590.662 668.249 641.951 C 658.006 650.871 644.65 663.375 638.863 675.61 C 636.979 687.107 634.785 697.664 633.745 709.315 C 594.735 691.94 588.883 692.78 549.013 708.173 C 487.936 731.753 427.628 767.204 378.219 810.35 C 367.935 819.33 354.877 830.883 349.059 843.059 C 346.109 861.713 344.326 879.934 345.248 898.872 C 345.443 902.862 346.401 908.292 343.768 911.132 C 327.668 920.758 305.039 935.185 289.043 943.6 C 286.488 949.107 288.603 1018.13 287.069 1031.69 L 295.79 1037.04 C 289.371 1041.27 283.482 1044.85 276.847 1048.75 C 275.691 1061.5 276.208 1080.82 276.105 1094.27 C 275.912 1119.49 275.284 1146.2 275.988 1171.34 C 287.142 1177.11 349.374 1211.53 354.287 1220.38 C 345.152 1215.26 336.164 1210.36 327.378 1204.64 C 327.93 1217.93 327.347 1230.83 327.714 1243.87 C 306.879 1255.49 286.156 1267.32 265.549 1279.34 C 261.656 1277.12 257.682 1274.99 254.051 1272.37 C 252.172 1271.69 239.46 1263.92 237.014 1262.46 C 225.719 1255.7 214.384 1249.01 203.01 1242.38 C 201.849 1223.12 202.737 1195.4 202.741 1175.52 L 202.714 1050.2 L 202.583 611.224 C 211.757 607.175 226.023 598.511 235.213 593.324 C 238 590.955 252.351 582.742 256.049 580.607 C 259.722 577.897 260.847 576.835 264.99 575.155 C 282.002 584.791 299.832 596.055 316.361 606.604 C 326.332 600.307 340.232 592.852 350.802 587.228 C 357.981 581.749 390.383 563.493 399.507 558.135 L 501.101 498.43 L 706.366 378.52 C 735.622 361.593 766.426 342.039 796.172 326.436 L 797.601 327.301 C 804.272 324.594 808.888 321.523 814.999 317.756 z"/>
<path transform="translate(0,0)" fill="rgb(254,114,40)" d="M 256.049 580.607 C 259.722 577.897 260.847 576.835 264.99 575.155 C 282.002 584.791 299.832 596.055 316.361 606.604 C 326.332 600.307 340.232 592.852 350.802 587.228 C 346.735 593.855 326.922 604.025 319.172 608.653 C 322.054 610.287 325.979 612.166 328.011 614.576 L 325.565 614.662 C 307.077 624.383 282.094 639.282 264.163 650.458 L 264.384 1068.86 C 264.816 1122.84 264.796 1176.83 264.323 1230.81 C 264.3 1237.3 265.062 1271.07 263.115 1274.34 C 259.601 1274.12 257.45 1272.92 254.051 1272.37 C 252.172 1271.69 239.46 1263.92 237.014 1262.46 C 225.719 1255.7 214.384 1249.01 203.01 1242.38 C 201.849 1223.12 202.737 1195.4 202.741 1175.52 L 202.714 1050.2 L 202.583 611.224 C 211.757 607.175 226.023 598.511 235.213 593.324 C 238 590.955 252.351 582.742 256.049 580.607 z"/>
<path transform="translate(0,0)" fill="rgb(252,163,106)" d="M 256.049 580.607 C 259.722 577.897 260.847 576.835 264.99 575.155 C 282.002 584.791 299.832 596.055 316.361 606.604 C 326.332 600.307 340.232 592.852 350.802 587.228 C 346.735 593.855 326.922 604.025 319.172 608.653 C 322.054 610.287 325.979 612.166 328.011 614.576 L 325.565 614.662 C 307.077 624.383 282.094 639.282 264.163 650.458 C 255.851 643.095 216.68 620.435 205.005 613.333 C 213.076 608.601 231.584 601.041 235.213 593.324 C 238 590.955 252.351 582.742 256.049 580.607 z"/>
<path transform="translate(0,0)" fill="rgb(202,70,12)" d="M 256.049 580.607 C 259.722 577.897 260.847 576.835 264.99 575.155 C 282.002 584.791 299.832 596.055 316.361 606.604 C 326.332 600.307 340.232 592.852 350.802 587.228 C 346.735 593.855 326.922 604.025 319.172 608.653 C 322.054 610.287 325.979 612.166 328.011 614.576 L 325.565 614.662 C 311.722 608.14 273.392 580.369 264.747 578.924 C 261.961 579.783 260.851 580.211 257.938 580.461 L 256.049 580.607 z"/>
<path transform="translate(0,0)" fill="rgb(252,163,106)" d="M 814.999 317.756 C 834.371 331.349 850.901 339.182 869.078 351.132 C 869.399 353.001 869.645 352.285 868.949 353.401 L 327.33 671.032 C 327.307 660.058 326.619 623.729 328.011 614.576 C 325.979 612.166 322.054 610.287 319.172 608.653 C 326.922 604.025 346.735 593.855 350.802 587.228 C 357.981 581.749 390.383 563.493 399.507 558.135 L 501.101 498.43 L 706.366 378.52 C 735.622 361.593 766.426 342.039 796.172 326.436 L 797.601 327.301 C 804.272 324.594 808.888 321.523 814.999 317.756 z"/>
<path transform="translate(0,0)" fill="rgb(254,242,223)" d="M 1046.26 663.97 C 1072.92 678.965 1099.93 695.669 1126.03 711.812 C 1146.32 724.363 1172.99 738.824 1192.21 752.384 C 1184.38 757.648 1169.17 765.507 1159.97 771.045 C 1124.17 792.458 1088.2 813.581 1052.06 834.412 L 731.794 1022.79 L 646.754 1072.73 C 637.513 1078.18 617.608 1089.12 609.769 1095.05 C 596.663 1103.74 589.495 1110.29 579.761 1122.49 C 560.283 1151.02 558.754 1164.97 558.992 1199.02 C 549.984 1191.14 537.816 1184.59 527.47 1178.27 L 482.642 1150.73 C 420.595 1112.45 358.31 1074.55 295.79 1037.04 L 287.069 1031.69 C 288.603 1018.13 286.488 949.107 289.043 943.6 C 305.039 935.185 327.668 920.758 343.768 911.132 C 350.928 924.817 355.722 930.962 366.617 942.349 C 399.069 976.223 437.905 1003.34 480.887 1022.13 C 513.454 1036.22 522.706 1032.73 555.429 1021.34 C 622.382 998.03 686.831 962.599 736.889 911.801 C 741.542 907.079 747.927 899.816 750.411 893.361 C 753.598 879.326 752.056 859.595 751.797 845.138 C 774.518 855.246 792.233 866.668 816.888 860.393 C 887.261 842.48 958.085 805.403 1013.13 758.009 C 1024.2 748.471 1037.27 735.541 1044.83 723.458 C 1045.69 703.64 1046.17 683.806 1046.26 663.97 z"/>
<path transform="translate(0,0)" fill="rgb(252,200,165)" d="M 289.043 943.6 C 296.853 950.096 316.49 961.361 325.956 967.041 C 346.997 979.585 367.972 992.238 388.881 1005 L 510.611 1079.69 C 532.145 1093.02 558.168 1110.25 579.761 1122.49 C 560.283 1151.02 558.754 1164.97 558.992 1199.02 C 549.984 1191.14 537.816 1184.59 527.47 1178.27 L 482.642 1150.73 C 420.595 1112.45 358.31 1074.55 295.79 1037.04 L 287.069 1031.69 C 288.603 1018.13 286.488 949.107 289.043 943.6 z"/>
<path transform="translate(0,0)" fill="rgb(254,242,223)" d="M 876.868 527.121 C 896.501 521.632 922.202 535.92 940.729 544.501 C 975.434 558.694 1024 605.485 1043.11 637.094 C 1043.55 645.424 1041.53 647.959 1036.25 654.053 C 1021.1 671.523 1001.95 686.456 983.251 699.737 C 927.517 739.788 864.983 769.405 798.683 787.15 C 765.351 754.816 732.882 728.669 693.008 704.691 C 679.47 696.55 647.975 683.071 638.863 675.61 C 644.65 663.375 658.006 650.871 668.249 641.951 C 727.142 590.662 797.074 552.945 871.06 528.524 L 876.868 527.121 z"/>
<path transform="translate(0,0)" fill="rgb(254,242,223)" d="M 349.059 843.059 C 354.877 830.883 367.935 819.33 378.219 810.35 C 427.628 767.204 487.936 731.753 549.013 708.173 C 588.883 692.78 594.735 691.94 633.745 709.315 L 635.159 710.278 C 643.658 715.977 655.838 721.451 665.293 727.578 C 693.213 745.67 736.956 784.637 750.561 814.215 C 710.616 874.761 580.557 938.9 510.23 955.603 C 476.048 923.904 443.861 895.814 402.965 872.667 C 395.798 868.61 351.558 846.043 349.059 843.059 z"/>
<path transform="translate(0,0)" fill="rgb(67,178,172)" d="M 1192.21 752.384 C 1198.9 751.932 1210.47 746.637 1217.59 747.09 C 1251.69 749.26 1290.24 777.474 1318.85 795.691 C 1400.13 843.099 1481.36 894.372 1562.23 942.808 L 1657.8 1000.79 C 1674.5 1010.81 1705.03 1027.92 1719.98 1039.22 C 1723.78 1047.39 1729.43 1056.26 1726.18 1065.1 C 1723.84 1071.49 1714.5 1078.34 1708.8 1081.94 C 1687.97 1095.11 1666.42 1107.37 1645.08 1119.68 L 1564.84 1166.31 L 1336.31 1299.24 L 1208.86 1373.55 C 1187.42 1386.14 1163.8 1400.8 1141.92 1411.78 C 1127.22 1419.16 1102.52 1417.83 1087.74 1411.72 C 1079.22 1408.19 1061.55 1396.84 1052.82 1391.51 L 996.793 1357.8 L 783.191 1228.92 C 775.118 1224.07 733.474 1197.97 727.05 1196.8 L 727.062 1196.25 C 695.798 1169.12 639.364 1150.07 609.252 1119.58 C 603.305 1113.56 608.621 1101.54 609.769 1095.05 C 617.608 1089.12 637.513 1078.18 646.754 1072.73 L 731.794 1022.79 L 1052.06 834.412 C 1088.2 813.581 1124.17 792.458 1159.97 771.045 C 1169.17 765.507 1184.38 757.648 1192.21 752.384 z"/>
<path transform="translate(0,0)" fill="rgb(117,222,205)" d="M 1192.21 752.384 C 1198.9 751.932 1210.47 746.637 1217.59 747.09 C 1251.69 749.26 1290.24 777.474 1318.85 795.691 C 1325.79 806.729 1352.66 814.176 1360.87 825.175 C 1356.72 830.149 1233.64 899.77 1217.37 909.231 L 929.082 1077.28 C 862.494 1116.08 792.723 1156.04 727.062 1196.25 C 695.798 1169.12 639.364 1150.07 609.252 1119.58 C 603.305 1113.56 608.621 1101.54 609.769 1095.05 C 617.608 1089.12 637.513 1078.18 646.754 1072.73 L 731.794 1022.79 L 1052.06 834.412 C 1088.2 813.581 1124.17 792.458 1159.97 771.045 C 1169.17 765.507 1184.38 757.648 1192.21 752.384 z"/>
<path transform="translate(0,0)" fill="rgb(202,70,12)" d="M 1747.64 1065.17 C 1751.6 1060.37 1775.08 1048.35 1781.73 1045.6 L 1790.66 1051.55 C 1798.93 1055.66 1835.13 1078.43 1843.79 1084.5 L 1843.87 1292.23 C 1843.56 1337.36 1843.77 1382.48 1844.49 1427.6 C 1828.42 1437.11 1800.11 1454.17 1782.41 1463.05 C 1781.57 1462.92 1780.73 1462.79 1779.88 1462.67 C 1760.75 1450.91 1739.31 1437.29 1719.47 1427.28 C 1719.41 1419.46 1719.78 1411.26 1720.02 1403.41 L 1719.72 1395.25 C 1714.88 1395.49 1278.44 1650.58 1228.69 1678.8 C 1229.13 1714.3 1228.89 1750.13 1228.89 1785.67 C 1220.17 1790.86 1169.86 1821.6 1163.59 1821.6 L 1160.3 1820.03 C 1162.38 1819.68 1162.9 1819.53 1164.91 1818.96 C 1166.54 1815.63 1164.57 1512.46 1165.2 1480.5 C 1160.47 1476.69 1154.07 1473.15 1148.85 1469.96 C 1135.54 1461.82 1122.26 1453.54 1108.35 1446.48 C 1107.98 1445.8 1107.62 1445.13 1107.26 1444.45 L 1104.33 1443.9 C 1109.15 1439.25 1122.47 1432.52 1128.87 1428.82 L 1165.67 1407.08 C 1179.02 1413.19 1188.63 1422.17 1199.82 1427.31 C 1233.54 1406.79 1269.69 1386.58 1303.93 1366.62 L 1551.49 1222.77 L 1667.28 1155.42 C 1677.81 1149.25 1688.31 1143.04 1698.77 1136.76 C 1703.5 1133.94 1708.69 1130.79 1713.51 1128.05 C 1716.28 1126.47 1717.52 1127.7 1720.17 1128.85 C 1721.26 1122.63 1720.52 1090.04 1720.59 1081.62 L 1722.04 1080.63 C 1727.96 1077.75 1745.01 1070.24 1747.64 1065.17 z"/>
<path transform="translate(0,0)" fill="rgb(252,163,106)" d="M 1199.82 1427.31 C 1233.54 1406.79 1269.69 1386.58 1303.93 1366.62 L 1551.49 1222.77 L 1667.28 1155.42 C 1677.81 1149.25 1688.31 1143.04 1698.77 1136.76 C 1703.5 1133.94 1708.69 1130.79 1713.51 1128.05 C 1716.28 1126.47 1717.52 1127.7 1720.17 1128.85 C 1722.81 1133.62 1764.56 1158 1772.1 1162.61 C 1687.62 1213.9 1596.95 1264.6 1511.14 1314.31 C 1417.15 1369.35 1322.84 1423.85 1228.22 1477.79 C 1228.58 1466.65 1228.5 1455.89 1228.43 1444.75 C 1219 1438.77 1209.46 1432.95 1199.82 1427.31 z"/>
<path transform="translate(0,0)" fill="rgb(202,70,12)" d="M 1747.64 1065.17 C 1751.6 1060.37 1775.08 1048.35 1781.73 1045.6 L 1790.66 1051.55 C 1798.93 1055.66 1835.13 1078.43 1843.79 1084.5 L 1843.87 1292.23 C 1843.56 1337.36 1843.77 1382.48 1844.49 1427.6 C 1828.42 1437.11 1800.11 1454.17 1782.41 1463.05 C 1781.57 1462.92 1780.73 1462.79 1779.88 1462.67 C 1760.75 1450.91 1739.31 1437.29 1719.47 1427.28 C 1719.41 1419.46 1719.78 1411.26 1720.02 1403.41 C 1720.68 1399.97 1720.98 1395.8 1721.35 1392.26 C 1736.29 1382.69 1757.42 1371.96 1773.21 1363.68 C 1773.04 1340.9 1774.91 1170.52 1772.1 1162.61 C 1764.56 1158 1722.81 1133.62 1720.17 1128.85 C 1721.26 1122.63 1720.52 1090.04 1720.59 1081.62 L 1722.04 1080.63 C 1727.96 1077.75 1745.01 1070.24 1747.64 1065.17 z"/>
<path transform="translate(0,0)" fill="rgb(254,114,40)" d="M 1720.17 1128.85 C 1721.26 1122.63 1720.52 1090.04 1720.59 1081.62 L 1722.04 1080.63 C 1724.69 1088.22 1771.12 1110.85 1781.21 1119.5 L 1781.64 1380.26 C 1781.58 1395.13 1783.22 1453.38 1779.88 1462.67 C 1760.75 1450.91 1739.31 1437.29 1719.47 1427.28 C 1719.41 1419.46 1719.78 1411.26 1720.02 1403.41 C 1720.68 1399.97 1720.98 1395.8 1721.35 1392.26 C 1736.29 1382.69 1757.42 1371.96 1773.21 1363.68 C 1773.04 1340.9 1774.91 1170.52 1772.1 1162.61 C 1764.56 1158 1722.81 1133.62 1720.17 1128.85 z"/>
<path transform="translate(0,0)" fill="rgb(252,163,106)" d="M 1747.64 1065.17 C 1751.6 1060.37 1775.08 1048.35 1781.73 1045.6 L 1790.66 1051.55 C 1794.45 1057.5 1832.46 1080.3 1840.84 1085.48 C 1824.54 1094.84 1797.13 1111.85 1781.21 1119.5 C 1771.12 1110.85 1724.69 1088.22 1722.04 1080.63 C 1727.96 1077.75 1745.01 1070.24 1747.64 1065.17 z"/>
<path transform="translate(0,0)" fill="rgb(252,163,106)" d="M 1165.77 1409.85 C 1185.41 1421.6 1206.4 1434.97 1226.2 1446.04 C 1208.26 1455.82 1181.82 1472.47 1165.2 1480.5 C 1160.47 1476.69 1154.07 1473.15 1148.85 1469.96 C 1135.54 1461.82 1122.26 1453.54 1108.35 1446.48 C 1107.98 1445.8 1107.62 1445.13 1107.26 1444.45 C 1122.98 1435.95 1137.75 1425.78 1153.42 1417.17 C 1157.61 1414.86 1161.83 1412.57 1165.77 1409.85 z"/>
<path transform="translate(0,0)" fill="rgb(254,114,40)" d="M 295.79 1037.04 C 358.31 1074.55 420.595 1112.45 482.642 1150.73 L 527.47 1178.27 C 537.816 1184.59 549.984 1191.14 558.992 1199.02 C 558.754 1164.97 560.283 1151.02 579.761 1122.49 C 589.495 1110.29 596.663 1103.74 609.769 1095.05 C 608.621 1101.54 603.305 1113.56 609.252 1119.58 C 639.364 1150.07 695.798 1169.12 727.062 1196.25 L 727.05 1196.8 C 689.811 1231.23 696.878 1271.47 697.026 1317.83 L 697.371 1402.49 C 694.23 1400.95 689.266 1398.25 686.042 1397.52 C 700.83 1408.27 734.807 1427.29 751.811 1437.47 L 874.69 1511.24 C 921.905 1539.45 968.723 1568.36 1016.17 1596.17 C 1030.18 1604.38 1043.6 1614.08 1058.01 1621.53 C 1063.91 1624.58 1070.55 1627.63 1077.35 1626.41 C 1082.38 1625.51 1086.3 1623.26 1089.14 1618.98 C 1097.99 1605.63 1093.77 1554.14 1094 1536.39 C 1093.91 1529.68 1093.31 1520.42 1095.37 1514.3 C 1094.42 1500.97 1092.59 1487.41 1097.01 1474.71 C 1098.89 1469.32 1102.23 1462.88 1103.24 1457.82 L 1104.43 1451.57 C 1103.98 1447.91 1104.07 1447.44 1104.33 1443.9 L 1107.26 1444.45 C 1107.62 1445.13 1107.98 1445.8 1108.35 1446.48 C 1122.26 1453.54 1135.54 1461.82 1148.85 1469.96 C 1154.07 1473.15 1160.47 1476.69 1165.2 1480.5 C 1164.57 1512.46 1166.54 1815.63 1164.91 1818.96 C 1162.9 1819.53 1162.38 1819.68 1160.3 1820.03 C 1145.46 1809.79 1118.87 1794.71 1103.07 1786.17 C 1101.61 1751.99 1103.07 1705.6 1103.2 1670.73 C 966.167 1586.16 826.089 1503.03 687.799 1420.42 L 354.287 1220.38 C 349.374 1211.53 287.142 1177.11 275.988 1171.34 C 275.284 1146.2 275.912 1119.49 276.105 1094.27 C 276.208 1080.82 275.691 1061.5 276.847 1048.75 C 283.482 1044.85 289.371 1041.27 295.79 1037.04 z"/>
<path transform="translate(0,0)" fill="rgb(67,178,172)" d="M 609.769 1095.05 C 608.621 1101.54 603.305 1113.56 609.252 1119.58 C 639.364 1150.07 695.798 1169.12 727.062 1196.25 L 727.05 1196.8 C 689.811 1231.23 696.878 1271.47 697.026 1317.83 L 697.371 1402.49 C 694.23 1400.95 689.266 1398.25 686.042 1397.52 C 678.742 1394.6 652.332 1377.32 643.91 1372.1 C 628.244 1362.37 608.8 1352.01 593.954 1341.92 C 589.139 1338.72 584.65 1335.05 580.551 1330.97 C 559.222 1309.37 559.108 1287.56 559.134 1259.78 L 559.113 1220.36 L 558.992 1199.02 C 558.754 1164.97 560.283 1151.02 579.761 1122.49 C 589.495 1110.29 596.663 1103.74 609.769 1095.05 z"/>
<path transform="translate(0,0)" fill="rgb(252,163,106)" d="M 295.79 1037.04 C 358.31 1074.55 420.595 1112.45 482.642 1150.73 L 527.47 1178.27 C 537.816 1184.59 549.984 1191.14 558.992 1199.02 L 559.113 1220.36 C 544.675 1212.77 519.32 1196.07 504.711 1187.02 L 421.979 1136.52 C 374.361 1107.07 323.509 1078.47 276.847 1048.75 C 283.482 1044.85 289.371 1041.27 295.79 1037.04 z"/>
<path transform="translate(0,0)" fill="rgb(14,126,122)" d="M 1104.43 1451.57 C 1104.62 1459.16 1105.4 1506.94 1103.57 1511.52 L 1095.37 1514.3 C 1094.42 1500.97 1092.59 1487.41 1097.01 1474.71 C 1098.89 1469.32 1102.23 1462.88 1103.24 1457.82 L 1104.43 1451.57 z"/>
<path transform="translate(0,0)" fill="rgb(252,200,165)" d="M 1095.37 1514.3 L 1103.57 1511.52 L 1103.42 1512.54 C 1102.29 1521.02 1104.7 1533.39 1099.63 1537.44 L 1094 1536.39 C 1093.91 1529.68 1093.31 1520.42 1095.37 1514.3 z"/>
<path transform="translate(0,0)" fill="rgb(202,70,12)" d="M 870.207 227.6 L 874.522 224.791 C 878.106 224.783 876.364 224.369 879.709 226.765 C 898.432 236.077 920.637 251.452 939.961 261.981 C 941.001 298.594 940.343 338.093 940.377 375.008 L 940.729 544.501 C 922.202 535.92 896.501 521.632 876.868 527.121 L 871.06 528.524 C 869.191 518.804 871.122 504.997 870.241 497.017 C 867.875 475.602 874.647 365.805 868.949 353.401 C 869.645 352.285 869.399 353.001 869.078 351.132 C 850.901 339.182 834.371 331.349 814.999 317.756 C 808.888 321.523 804.272 324.594 797.601 327.301 L 796.172 326.436 C 801.089 322.802 809.179 318.626 814.758 315.537 C 813.809 299.038 814.497 277.337 814.556 260.463 C 833.334 249.9 851.889 238.943 870.207 227.6 z"/>
<path transform="translate(0,0)" fill="rgb(254,114,40)" d="M 870.207 227.6 C 869.68 228.692 869.154 229.785 868.627 230.877 C 854.882 240.574 831.373 254.187 817.107 261.466 C 836.7 273.336 858.044 285.825 876.821 298.761 C 877.035 373.85 877.972 452.123 876.868 527.121 L 871.06 528.524 C 869.191 518.804 871.122 504.997 870.241 497.017 C 867.875 475.602 874.647 365.805 868.949 353.401 C 869.645 352.285 869.399 353.001 869.078 351.132 C 850.901 339.182 834.371 331.349 814.999 317.756 C 808.888 321.523 804.272 324.594 797.601 327.301 L 796.172 326.436 C 801.089 322.802 809.179 318.626 814.758 315.537 C 813.809 299.038 814.497 277.337 814.556 260.463 C 833.334 249.9 851.889 238.943 870.207 227.6 z"/>
<path transform="translate(0,0)" fill="rgb(252,163,106)" d="M 870.207 227.6 L 874.522 224.791 C 878.106 224.783 876.364 224.369 879.709 226.765 C 883.163 232.233 927.992 258.01 936.811 263.51 C 919.027 273.941 894.425 289.478 876.821 298.761 C 858.044 285.825 836.7 273.336 817.107 261.466 C 831.373 254.187 854.882 240.574 868.627 230.877 C 869.154 229.785 869.68 228.692 870.207 227.6 z"/>
</svg>