<svg version="1.1" xmlns="http://www.w3.org/2000/svg" style="display: block;" viewBox="0 0 2048 2048" width="1024" height="1024" preserveAspectRatio="none">
<path transform="translate(0,0)" fill="rgb(61,70,75)" d="M 270.039 760.798 C 278.106 753.809 309.628 735.118 319.925 729.052 L 420.108 671.206 L 763.477 470.282 L 960.591 354.684 L 1018.77 319.923 C 1055.49 297.997 1052.52 293.45 1091.54 312.495 C 1108.97 318.312 1109.93 330.304 1113.34 346.238 C 1116.32 360.199 1119.61 374.375 1122.81 388.311 L 1159.75 549.59 L 1225.33 832.134 C 1235.23 874.749 1245.83 917.202 1255.25 959.925 C 1258.91 976.543 1256.2 983.138 1249.7 998.124 C 1252.75 998.803 1256.38 996.999 1259.47 996.12 C 1285.03 988.861 1306.61 1005.23 1328.25 1017.74 L 1380.62 1048.08 L 1569.77 1158.29 C 1628.08 1191.37 1686.12 1224.91 1743.89 1258.91 C 1764.65 1270.92 1789.3 1282.12 1808.24 1296.92 C 1812.79 1300.49 1814.2 1307.36 1814.02 1312.98 C 1814.08 1325.51 1818.4 1353.53 1808.84 1360.41 C 1787.94 1375.45 1758.95 1390.26 1736.44 1403.28 C 1659.25 1447.9 1581.73 1491.95 1503.89 1535.43 L 1211.05 1703.2 C 1167.84 1728.17 1124.45 1752.82 1080.87 1777.16 C 1062.17 1787.63 1043.47 1798.52 1024.76 1808.93 C 1014.16 1814.82 1001.55 1816.45 989.601 1815.91 C 980.6 1815.5 972.568 1812.28 964.716 1807.83 C 939.255 1793.42 913.934 1778.24 888.63 1763.51 C 837.728 1734.36 787.029 1704.85 736.534 1674.99 L 543.826 1562.76 C 524.089 1551.23 502.583 1538.29 482.632 1527.49 C 452.506 1511.17 455.656 1500.97 455.903 1468.79 C 455.798 1467.78 455.943 1464.97 455.97 1463.81 L 453.011 1462.4 C 438.792 1460.43 415.339 1458.38 410.336 1442.42 C 398.386 1404.3 390.964 1363.77 381.46 1325.05 C 358.434 1231.67 335.921 1138.16 313.921 1044.53 C 298.869 984.233 284.372 923.804 270.429 863.245 C 266.019 844.578 261.168 825.861 256.916 807.181 C 253.343 791.489 258.633 772.361 270.039 760.798 z"/>
<path transform="translate(0,0)" fill="rgb(222,223,224)" d="M 1249.7 998.124 C 1252.75 998.803 1256.38 996.999 1259.47 996.12 C 1285.03 988.861 1306.61 1005.23 1328.25 1017.74 L 1380.62 1048.08 L 1569.77 1158.29 C 1628.08 1191.37 1686.12 1224.91 1743.89 1258.91 C 1764.65 1270.92 1789.3 1282.12 1808.24 1296.92 C 1812.79 1300.49 1814.2 1307.36 1814.02 1312.98 C 1814.08 1325.51 1818.4 1353.53 1808.84 1360.41 C 1787.94 1375.45 1758.95 1390.26 1736.44 1403.28 C 1659.25 1447.9 1581.73 1491.95 1503.89 1535.43 L 1211.05 1703.2 C 1167.84 1728.17 1124.45 1752.82 1080.87 1777.16 C 1062.17 1787.63 1043.47 1798.52 1024.76 1808.93 C 1014.16 1814.82 1001.55 1816.45 989.601 1815.91 C 980.6 1815.5 972.568 1812.28 964.716 1807.83 C 939.255 1793.42 913.934 1778.24 888.63 1763.51 C 837.728 1734.36 787.029 1704.85 736.534 1674.99 L 543.826 1562.76 C 524.089 1551.23 502.583 1538.29 482.632 1527.49 C 452.506 1511.17 455.656 1500.97 455.903 1468.79 C 455.798 1467.78 455.943 1464.97 455.97 1463.81 C 458.252 1460.74 460.476 1454.85 464.057 1452.21 C 484.622 1437.02 518.245 1417.18 540.742 1404.96 C 545.357 1407.07 551.043 1410.14 555.66 1412.47 C 557.449 1414.15 574.495 1423.99 578.053 1426.16 L 1191.07 1071.87 C 1187.3 1066.6 1184.82 1058.86 1182.54 1052.71 C 1181.36 1049.45 1177.13 1042.82 1175.18 1039.57 C 1185.39 1033.06 1241.56 997.666 1249.7 998.124 z"/>
<path transform="translate(0,0)" fill="rgb(185,188,190)" d="M 1814.02 1312.98 C 1814.08 1325.51 1818.4 1353.53 1808.84 1360.41 C 1787.94 1375.45 1758.95 1390.26 1736.44 1403.28 C 1659.25 1447.9 1581.73 1491.95 1503.89 1535.43 L 1211.05 1703.2 C 1167.84 1728.17 1124.45 1752.82 1080.87 1777.16 C 1062.17 1787.63 1043.47 1798.52 1024.76 1808.93 C 1014.16 1814.82 1001.55 1816.45 989.601 1815.91 C 980.6 1815.5 972.568 1812.28 964.716 1807.83 C 939.255 1793.42 913.934 1778.24 888.63 1763.51 C 837.728 1734.36 787.029 1704.85 736.534 1674.99 L 543.826 1562.76 C 524.089 1551.23 502.583 1538.29 482.632 1527.49 C 452.506 1511.17 455.656 1500.97 455.903 1468.79 C 460.089 1471.99 462.673 1477.45 467.371 1480.2 C 476.067 1485.29 484.858 1490.22 493.587 1495.27 L 559.959 1533.34 L 754.538 1647.7 C 813.402 1682.08 871.749 1718.08 931.641 1750.6 C 943.457 1757.02 954.133 1765.97 966.346 1771.5 C 979.824 1777.6 992.752 1779.93 1007.4 1776.92 C 1023.83 1773.54 1068.64 1745.13 1085.58 1735.57 L 1270.71 1629.75 L 1636.69 1420.55 C 1690.61 1389.65 1744.96 1359.05 1798.78 1327.95 C 1806.43 1323.53 1809.4 1320.08 1814.02 1312.98 z"/>
<path transform="translate(0,0)" fill="rgb(61,70,75)" d="M 581.043 1556.52 C 591.378 1561.9 611.085 1574.12 620.894 1580.45 C 621.209 1586.41 621.118 1590.24 620.862 1596.15 C 614.522 1593.3 587.904 1576.8 581.255 1572.66 C 580.945 1567.61 581.068 1561.65 581.043 1556.52 z"/>
<path transform="translate(0,0)" fill="rgb(61,70,75)" d="M 490.184 1501.58 C 498.252 1505.73 508.948 1512.66 516.918 1517.5 C 517.162 1524.65 517.159 1531.3 517.09 1538.45 C 508.1 1532.61 498.991 1527.75 490.086 1521.48 C 490.007 1514.85 490.04 1508.21 490.184 1501.58 z"/>
<path transform="translate(0,0)" fill="rgb(61,70,75)" d="M 535.952 1529.14 C 541.391 1531.19 556.605 1540.48 562.176 1543.84 L 562.122 1562.11 C 556.028 1559.45 541.043 1550.79 535.589 1547.2 C 535.633 1541.23 535.829 1535.12 535.952 1529.14 z"/>
<path transform="translate(0,0)" fill="rgb(185,188,190)" d="M 1182.54 1052.71 C 1188.7 1056.1 1197.77 1061.68 1203.44 1065.82 C 1200.53 1067.27 1193.8 1070.86 1191.07 1071.87 C 1187.3 1066.6 1184.82 1058.86 1182.54 1052.71 z"/>
<path transform="translate(0,0)" fill="rgb(185,188,190)" d="M 1298.61 1053.28 C 1310.6 1052.28 1316.92 1056.39 1326.93 1062.14 C 1339.23 1069.21 1351.48 1076.42 1363.77 1083.53 C 1403.94 1106.46 1443.9 1129.73 1483.68 1153.34 L 1538.75 1185.15 C 1550.31 1191.72 1575.78 1203.72 1582.23 1213.93 C 1582.58 1217.83 1580.85 1221.25 1577.36 1223.28 C 1564.87 1230.54 1552.26 1237.6 1539.73 1244.8 C 1513.32 1260.23 1486.75 1275.38 1460.02 1290.26 C 1301.94 1379.16 1144.41 1469.04 987.431 1559.88 L 888.961 1616.72 C 879.749 1622.03 849.976 1640.02 841.258 1642.62 C 819.551 1646.72 807.37 1632.42 788.96 1622.25 C 751.834 1601.73 715.448 1579.65 678.735 1558.37 L 605.058 1515.85 C 594.803 1509.99 564.683 1494.41 557.961 1487.3 C 556.377 1483.74 556.726 1483.15 557.417 1479.38 C 563.236 1472.23 631.757 1434.9 645.894 1426.75 L 785.998 1345.82 L 1091.12 1170 L 1216.64 1097.99 C 1231.45 1089.48 1285.8 1055.81 1298.61 1053.28 z"/>
<path transform="translate(0,0)" fill="rgb(61,70,75)" d="M 1278.7 1320.93 C 1287.56 1320.77 1322.07 1339.23 1324.83 1346.67 C 1317.32 1352.18 1303 1359.93 1294.55 1364.8 L 1240.23 1396.08 C 1183.43 1429.07 1122.77 1465.08 1065.52 1496.65 C 1056.39 1498.65 1019.07 1476.36 1020.36 1469.97 C 1028.3 1464.15 1040.57 1457.78 1049.31 1452.64 C 1071.79 1439.4 1094.39 1426.37 1117.1 1413.54 C 1170.18 1383.24 1225.51 1350.21 1278.7 1320.93 z"/>
<path transform="translate(0,0)" fill="rgb(61,70,75)" d="M 1341.68 1097.86 C 1353.11 1097.9 1418.13 1141.61 1432.95 1148.51 C 1435.56 1149.72 1437.86 1151.72 1438.49 1154.67 C 1434.74 1161.22 1394.32 1181.88 1385.71 1185.85 C 1378.28 1182.57 1368.3 1176.59 1361.02 1172.5 C 1351.31 1167.1 1342.69 1161.34 1332.6 1156.22 C 1322.87 1160.78 1314.61 1166.31 1304.45 1170.53 C 1294.51 1166.83 1268.23 1151.62 1260.92 1143.9 C 1269.73 1137.32 1290.47 1126.15 1300.79 1120.25 C 1311.03 1114.39 1331.64 1101.94 1341.68 1097.86 z"/>
<path transform="translate(0,0)" fill="rgb(61,70,75)" d="M 840.25 1509.99 C 842.164 1510.36 844.034 1510.92 845.831 1511.67 C 852.213 1514.39 880.197 1529.51 882.476 1535.6 C 876.45 1542.4 792.38 1591.31 781.403 1595.27 C 774.902 1594.31 740.852 1575.83 739.158 1569.89 C 743.548 1565.06 831.78 1513.54 840.25 1509.99 z"/>
<path transform="translate(0,0)" fill="rgb(61,70,75)" d="M 1450.64 1160.82 C 1459.86 1161.43 1468.95 1168.87 1476.91 1173.5 C 1481.38 1176.11 1492.48 1181.22 1493.43 1185.79 C 1486.76 1192.92 1419.84 1230.61 1408.23 1235.4 C 1401.71 1235.83 1368.57 1216.2 1366.29 1210.04 C 1369.32 1204.32 1439.08 1166.83 1450.64 1160.82 z"/>
<path transform="translate(0,0)" fill="rgb(61,70,75)" d="M 755.948 1494.96 C 763.191 1495.1 799.367 1515.03 800.911 1520.86 C 796.801 1526.87 741.44 1557.52 731.415 1562.97 C 717.54 1564.35 708.961 1552.93 696.865 1547.57 C 692.574 1545.67 687.312 1542.92 686.052 1538.28 C 690.59 1531.88 745.968 1500.85 755.948 1494.96 z"/>
<path transform="translate(0,0)" fill="rgb(61,70,75)" d="M 1449.99 1222.86 C 1456.45 1221.75 1492.54 1243.53 1495.96 1248.19 C 1492.95 1254.1 1461.33 1270.52 1453.12 1275.12 C 1446.74 1274.13 1410.17 1253.02 1407.45 1248.2 C 1410.16 1242.86 1442.64 1226.46 1449.99 1222.86 z"/>
<path transform="translate(0,0)" fill="rgb(61,70,75)" d="M 673.941 1480.82 C 681.267 1482.26 715.1 1500.11 718.087 1506.15 C 714.671 1511.72 683.766 1528.2 676.358 1531.85 C 667.351 1532.49 634.004 1514.46 632.456 1506.54 C 636.997 1499.99 665.301 1485.45 673.941 1480.82 z"/>
<path transform="translate(0,0)" fill="rgb(61,70,75)" d="M 1156.71 1265.77 C 1164.65 1267.15 1196.11 1285.89 1202.17 1291.64 C 1195.84 1296.92 1167.42 1312.99 1159.37 1317.14 C 1151.54 1316.79 1117.28 1298.06 1115.39 1290.61 C 1119.71 1284.73 1148.82 1269.55 1156.71 1265.77 z"/>
<path transform="translate(0,0)" fill="rgb(61,70,75)" d="M 1245.83 1151.76 C 1251.99 1152.22 1289.94 1172.52 1289.79 1178.26 C 1284.4 1184.53 1257.92 1198.21 1249.02 1203.13 C 1241.69 1203.58 1208.61 1184.45 1205.48 1177.44 C 1207.48 1172.01 1238.95 1155.64 1245.83 1151.76 z"/>
<path transform="translate(0,0)" fill="rgb(61,70,75)" d="M 832.815 1576.94 C 843.194 1576.74 868.515 1593.18 876.712 1600.55 C 881.545 1604.89 842.283 1624.76 838.398 1626.96 C 834.376 1627.21 831.068 1626.99 827.653 1624.68 C 820.177 1619.63 796.05 1609.65 793.45 1601.5 C 797.227 1595.56 825.248 1580.61 832.815 1576.94 z"/>
<path transform="translate(0,0)" fill="rgb(61,70,75)" d="M 1099.05 1298.84 C 1105.18 1299.4 1141.14 1318.7 1142.83 1324.44 C 1138.25 1330.54 1110.2 1345.31 1101.86 1349.91 C 1094.45 1350.29 1062.42 1330.36 1056.35 1324.74 C 1065.14 1316.17 1087.55 1304.91 1099.05 1298.84 z"/>
<path transform="translate(0,0)" fill="rgb(61,70,75)" d="M 1064.99 1380.85 C 1072.18 1379.71 1106.08 1399.21 1110.03 1405.51 C 1106.79 1411.02 1077.89 1426.18 1070.41 1430.48 C 1062.42 1432.17 1026.96 1411.98 1025.27 1405.01 C 1029.14 1398.72 1057.05 1384.96 1064.99 1380.85 z"/>
<path transform="translate(0,0)" fill="rgb(61,70,75)" d="M 788.689 1415.07 C 795.585 1416.85 830.616 1435.36 831.806 1440.91 C 827.148 1447.04 798.359 1463 790.677 1466.44 C 784.277 1465.28 747.727 1446.07 747.44 1440.12 C 752.236 1433.62 780.2 1419.48 788.689 1415.07 z"/>
<path transform="translate(0,0)" fill="rgb(61,70,75)" d="M 870.757 1429.81 C 877.149 1430.27 913.983 1450.71 915.574 1455.38 C 910.93 1461.34 882.753 1476.31 874.526 1480.69 C 868.313 1480.91 832.477 1460.65 830.665 1454.19 C 835.582 1447.58 862.221 1434.1 870.757 1429.81 z"/>
<path transform="translate(0,0)" fill="rgb(61,70,75)" d="M 1003.95 1478.9 C 1011.87 1479.91 1042.14 1498.44 1048.73 1504.69 C 1042.11 1510.45 1014.04 1526.11 1005.44 1530.21 C 999.613 1529.44 962.808 1509.62 962.461 1504.18 C 968.423 1497.19 994.938 1483.12 1003.95 1478.9 z"/>
<path transform="translate(0,0)" fill="rgb(61,70,75)" d="M 1212.99 1232.89 C 1219.5 1233.32 1256.27 1252.78 1256.7 1258.36 C 1251.18 1265.48 1225 1279.22 1215.89 1283.9 C 1210.66 1283.92 1173.57 1263.44 1172.5 1258.46 C 1177.36 1251.51 1204.14 1237.75 1212.99 1232.89 z"/>
<path transform="translate(0,0)" fill="rgb(61,70,75)" d="M 1041.63 1331.84 C 1050.2 1331.99 1080.24 1350.85 1086.55 1357.04 C 1078.72 1364.19 1054.17 1377.29 1043.86 1383.07 C 1038.33 1382.75 1002.11 1362.38 1001.11 1357.07 C 1005.72 1349.79 1032.7 1336.6 1041.63 1331.84 z"/>
<path transform="translate(0,0)" fill="rgb(61,70,75)" d="M 928.601 1396.9 C 934.82 1398.51 971.115 1418.09 971.366 1422.8 C 966.296 1429.8 939.094 1444.22 930.394 1448.27 C 923.662 1446.99 889.569 1427.4 887.057 1423.75 L 887.487 1421.77 C 893.597 1414.53 919.132 1401.33 928.601 1396.9 z"/>
<path transform="translate(0,0)" fill="rgb(61,70,75)" d="M 1122.09 1347.92 C 1129.92 1348.21 1165.47 1366.64 1166.71 1374 C 1163.99 1378.3 1133.52 1394.27 1126.96 1397.9 C 1118.62 1398.14 1084.31 1379.45 1082.67 1371.98 C 1085.47 1367.03 1115.05 1351.72 1122.09 1347.92 z"/>
<path transform="translate(0,0)" fill="rgb(61,70,75)" d="M 1016.83 1283.93 C 1023.5 1285.01 1058.15 1303.77 1060.73 1309.07 C 1056.89 1315.34 1028.05 1330.4 1019.85 1335.03 C 1013.57 1334.97 976.448 1315.3 976.645 1309.03 C 982.016 1302.27 1008.07 1288.26 1016.83 1283.93 z"/>
<path transform="translate(0,0)" fill="rgb(61,70,75)" d="M 813.152 1463 C 820.911 1461.86 856.997 1482.16 857.293 1488.94 C 851.965 1494.98 826.547 1508.19 817.855 1513.02 C 810.459 1513.13 775.541 1493.74 773.57 1486.63 C 778.244 1481.03 804.933 1467.47 813.152 1463 z"/>
<path transform="translate(0,0)" fill="rgb(61,70,75)" d="M 1270.85 1199.85 C 1279.25 1200.7 1308.7 1219.36 1315.72 1225.28 C 1308.27 1232.12 1282.52 1245.76 1272.71 1250.81 C 1266.18 1250.81 1232.23 1231.5 1229.42 1225.02 C 1232.84 1219.54 1263.07 1204.14 1270.85 1199.85 z"/>
<path transform="translate(0,0)" fill="rgb(61,70,75)" d="M 1327.89 1167.86 C 1335.9 1168.27 1367.32 1186.79 1373.58 1193 C 1365.22 1199.31 1340.02 1213.56 1330.39 1218.28 C 1324.3 1218.44 1288.21 1197.94 1286.92 1191.98 C 1291.9 1185.55 1319.26 1172.21 1327.89 1167.86 z"/>
<path transform="translate(0,0)" fill="rgb(61,70,75)" d="M 1130.56 1218.92 C 1137.78 1217.98 1172.04 1237.1 1174.8 1243.6 C 1171.88 1249.02 1141.72 1264.87 1134.46 1268.92 C 1127.09 1269.53 1093.55 1250.15 1091.04 1243.46 C 1093.72 1237.62 1123.79 1222.59 1130.56 1218.92 z"/>
<path transform="translate(0,0)" fill="rgb(61,70,75)" d="M 902.446 1349.96 C 908.759 1351.38 943.387 1369.68 945.968 1375.26 C 942.897 1380.67 911.848 1397.41 904.796 1400.93 C 897.681 1399.26 865.65 1381.75 861.441 1376.63 L 861.714 1374.52 C 867.987 1367.02 892.96 1354.34 902.446 1349.96 z"/>
<path transform="translate(0,0)" fill="rgb(61,70,75)" d="M 983.876 1364.78 C 991.317 1364.85 1026.02 1384.17 1027.54 1390.53 C 1023.97 1396.46 995.992 1410.88 988.307 1415.15 C 980.531 1415.06 945.194 1396.16 944.429 1388.67 C 948.735 1383.32 976.037 1369.11 983.876 1364.78 z"/>
<path transform="translate(0,0)" fill="rgb(61,70,75)" d="M 960.089 1316.91 C 966.328 1318.48 1002.47 1337.31 1002.73 1342.84 C 997.654 1349.21 970.371 1363.46 961.796 1367.71 C 955.471 1368.13 921.502 1348.74 919.184 1341.61 C 921.431 1336.56 953.125 1320.33 960.089 1316.91 z"/>
<path transform="translate(0,0)" fill="rgb(61,70,75)" d="M 1189.56 1185.06 C 1194.6 1186.16 1231.56 1206.23 1232.52 1210.86 C 1227.66 1217.05 1199.76 1231.39 1191.16 1236.14 C 1182.91 1235.47 1171.98 1227.19 1164.73 1223.16 C 1159.94 1220.51 1148.45 1215.98 1148.04 1210.62 C 1152.87 1203.84 1180.67 1189.85 1189.56 1185.06 z"/>
<path transform="translate(0,0)" fill="rgb(61,70,75)" d="M 729.109 1448.9 C 737.554 1447.25 769.381 1466.98 775.823 1473.31 C 768.651 1480.15 745.483 1492.39 735.462 1498.03 C 727.628 1499.68 694.439 1480.55 690.492 1473.81 L 691.048 1471.82 C 697.614 1465.53 720.404 1453.72 729.109 1448.9 z"/>
<path transform="translate(0,0)" fill="rgb(61,70,75)" d="M 895.834 1477.8 C 903.506 1478.4 937.41 1496.56 938.878 1504 C 934.747 1509.59 905.917 1524.69 898.26 1528.17 C 892.482 1528.05 857.304 1508.2 855.247 1502.95 C 859.26 1496.8 888.013 1481.68 895.834 1477.8 z"/>
<path transform="translate(0,0)" fill="rgb(61,70,75)" d="M 1336.63 1287.99 C 1344.34 1288.17 1377.19 1306.98 1380.48 1313.2 C 1377.72 1318.46 1347.61 1334.31 1340.43 1337.94 C 1333.14 1337.55 1298.18 1318.97 1296.36 1311.96 C 1300.02 1306.26 1329.24 1291.34 1336.63 1287.99 z"/>
<path transform="translate(0,0)" fill="rgb(61,70,75)" d="M 1235.03 1282.87 C 1242.71 1282.18 1277.28 1301.19 1279.6 1308.07 C 1276.9 1313.15 1247.23 1328.86 1240.4 1332.56 C 1233.06 1333.85 1198.39 1313.9 1196.34 1306.62 C 1200.27 1301.43 1227.48 1287.1 1235.03 1282.87 z"/>
<path transform="translate(0,0)" fill="rgb(61,70,75)" d="M 946.68 1511.85 C 954.469 1512.66 986.579 1530.6 989.62 1537.61 C 987.9 1542.2 955.973 1558.91 949.558 1562.23 C 942.439 1561.6 906.604 1542.51 906.42 1536.21 C 911.711 1529.51 938.083 1515.79 946.68 1511.85 z"/>
<path transform="translate(0,0)" fill="rgb(61,70,75)" d="M 1181 1314.81 C 1187.86 1316.87 1221.7 1334.36 1223.38 1340.47 C 1218.98 1346.57 1191.35 1360.94 1183.34 1365.15 C 1175.6 1365.57 1141.94 1347.31 1140.46 1339.09 C 1144.89 1333.06 1172.92 1319 1181 1314.81 z"/>
<path transform="translate(0,0)" fill="rgb(61,70,75)" d="M 1009.11 1412.78 C 1016 1413.9 1050.37 1433.21 1052.68 1438.07 C 1049.55 1443.97 1020.65 1458.84 1013.19 1462.99 L 1012.88 1463.01 C 1004.48 1463.57 972.284 1444.84 969.279 1437.41 C 971.361 1432.04 1002.06 1416.66 1009.11 1412.78 z"/>
<path transform="translate(0,0)" fill="rgb(61,70,75)" d="M 887.902 1544.89 C 896.25 1543.92 931.719 1562.98 933.671 1570.13 C 930.627 1575.17 901.607 1590.11 894.648 1593.71 C 893.3 1593.81 890.133 1594.09 888.969 1593.48 C 880.746 1589.23 852.933 1575.98 849.542 1568.85 C 851.814 1564.1 881.456 1548.47 887.902 1544.89 z"/>
<path transform="translate(0,0)" fill="rgb(61,70,75)" d="M 844.913 1382.87 C 850.978 1382.75 886.76 1403.17 888.412 1408.28 C 883.701 1414.11 856.529 1428.51 848.219 1433.21 C 840.35 1432.8 828.826 1424.58 822.014 1420.56 C 816.678 1417.4 805.32 1413.56 804.484 1407.4 C 809.44 1400.34 835.864 1387.62 844.913 1382.87 z"/>
<path transform="translate(0,0)" fill="rgb(61,70,75)" d="M 1348.88 1217.83 C 1355.55 1218.06 1391.23 1237.04 1392.63 1243.5 C 1388.84 1248.76 1359.76 1264.27 1352.68 1267.59 C 1345.15 1267.41 1310.59 1248.36 1308.36 1242.91 C 1311.25 1237.01 1341.66 1221.76 1348.88 1217.83 z"/>
<path transform="translate(0,0)" fill="rgb(61,70,75)" d="M 953.613 1445.14 C 959.861 1446.7 991.732 1464.52 995.754 1469.41 L 995.572 1471.23 C 990.265 1477.94 963.792 1492.17 955.409 1495.86 C 949.242 1495.45 916.713 1476.68 912.804 1471.73 L 913.078 1469.74 C 918.887 1462.88 944.682 1449.51 953.613 1445.14 z"/>
<path transform="translate(0,0)" fill="rgb(61,70,75)" d="M 1292.16 1249.9 C 1299.28 1250.05 1333.14 1268.67 1336.49 1275.57 C 1334.94 1279.59 1303.32 1296.05 1297.42 1299.32 C 1290.04 1301.16 1257.75 1281.82 1253.19 1275.75 L 1253.48 1273.9 C 1258.87 1267.09 1283.27 1254.73 1292.16 1249.9 z"/>
<path transform="translate(0,0)" fill="rgb(61,70,75)" d="M 1073.13 1251.84 C 1082.17 1251.52 1111.24 1270.06 1118.63 1276.44 C 1111.72 1282.79 1086.04 1296.7 1076.64 1301.97 C 1071.46 1302.04 1033.76 1281.45 1033.45 1276.23 C 1038.95 1269.56 1064 1256.86 1073.13 1251.84 z"/>
<path transform="translate(0,0)" fill="rgb(61,70,75)" d="M 877.48 1320.88 C 883.306 1321.38 902.098 1330.37 903.359 1336.43 C 899.168 1342.56 868.116 1358.57 859.802 1363.06 C 853.846 1362.74 836.277 1353.9 834.132 1347.9 C 835.875 1342.36 870.015 1324.89 877.48 1320.88 z"/>
<path transform="translate(0,0)" fill="rgb(61,70,75)" d="M 1118.38 1181.81 C 1124.49 1181.13 1145.7 1190.99 1145.37 1197.13 C 1139.61 1203.49 1113.35 1217.87 1104.27 1223.16 C 1097.36 1222.97 1077.97 1214.72 1076.48 1207.76 C 1078.42 1203.8 1111.87 1185.7 1118.38 1181.81 z"/>
<path transform="translate(0,0)" fill="rgb(61,70,75)" d="M 1179.72 1146.75 C 1186.19 1147.48 1204.41 1155.86 1206.5 1162.21 C 1204 1167.03 1170.25 1185.31 1163.62 1188.77 C 1157.71 1188.36 1137.79 1179.43 1137.89 1172.01 C 1143.59 1166.93 1171.72 1151.37 1179.72 1146.75 z"/>
<path transform="translate(0,0)" fill="rgb(61,70,75)" d="M 1240.67 1111.88 C 1247.18 1111.97 1266.15 1120.81 1267.53 1127.56 C 1263.9 1132.34 1232.51 1149.02 1225.19 1153.13 C 1217.99 1153.35 1200.84 1144.97 1198.28 1138.74 C 1199.54 1134.25 1234.21 1115.6 1240.67 1111.88 z"/>
<path transform="translate(0,0)" fill="rgb(61,70,75)" d="M 938.575 1285.89 C 943.451 1286.87 958.427 1292.73 961.239 1296.77 C 966.814 1304.8 949.696 1312.34 944.261 1315.42 C 936.977 1319.55 928.819 1324.22 920.842 1327.5 C 915.192 1327.05 894.815 1318.08 895.775 1311.02 C 901.389 1306.22 931.083 1289.9 938.575 1285.89 z"/>
<path transform="translate(0,0)" fill="rgb(61,70,75)" d="M 996.979 1251.84 C 1003.17 1251.36 1023.64 1260.29 1024.03 1266.92 C 1019.14 1273.24 990.839 1288.54 982.487 1292.68 C 976.533 1293.82 964.917 1285.38 959.268 1282.44 C 957.169 1281.34 957.404 1279.01 957.457 1277.12 C 961.389 1270.1 988.248 1256.79 996.979 1251.84 z"/>
<path transform="translate(0,0)" fill="rgb(61,70,75)" d="M 1057.99 1216.86 C 1064.72 1216.48 1083.08 1224.9 1084.75 1231.58 C 1080.66 1237.63 1051.46 1253.54 1043.32 1258.15 C 1036.67 1258.05 1018.93 1249.33 1016.48 1243.29 C 1017.86 1238.78 1051.76 1220.52 1057.99 1216.86 z"/>
<path transform="translate(0,0)" fill="rgb(61,70,75)" d="M 696.623 1424.76 C 702.395 1425.69 722.607 1434.52 721.768 1440.81 C 716.363 1447.32 687.815 1462.52 679.4 1466.13 C 673.593 1465.8 655.947 1456.75 653.701 1451.23 C 657.301 1445.21 688.511 1429.02 696.623 1424.76 z"/>
<path transform="translate(0,0)" fill="rgb(61,70,75)" d="M 1301.81 1076.79 C 1308.98 1076.73 1326.88 1085.12 1327.5 1092 C 1322.82 1098.31 1293.66 1113.64 1285.14 1118.1 C 1278.85 1117.67 1260.89 1108.68 1259.63 1102.39 C 1262.94 1097.69 1294.64 1080.81 1301.81 1076.79 z"/>
<path transform="translate(0,0)" fill="rgb(61,70,75)" d="M 636.781 1458.77 C 643.468 1460.73 657.979 1467.73 662.304 1473.39 L 661.984 1475.28 C 655.825 1481.72 628.976 1496.98 620.497 1500.34 C 614.596 1499.97 596.248 1491.21 594.454 1485.78 C 596.566 1480.77 630.315 1462.53 636.781 1458.77 z"/>
<path transform="translate(0,0)" fill="rgb(61,70,75)" d="M 816.848 1355.87 C 823.481 1357.47 840.094 1365.05 841.594 1372.07 C 837.967 1377.46 806.675 1393.94 799.366 1397.25 C 793.06 1396.62 776.232 1388.77 774.309 1382.35 C 775.846 1377.21 810.451 1359.41 816.848 1355.87 z"/>
<path transform="translate(0,0)" fill="rgb(61,70,75)" d="M 756.001 1390.91 C 762.266 1391.5 781.126 1400 781.702 1406.47 C 777.182 1412.33 748.297 1427.6 740.361 1431.38 C 733.79 1431.34 722.612 1424.88 716.984 1421.04 C 715.113 1419.77 715.67 1417.36 715.951 1415.64 C 720.765 1408.56 746.927 1395.84 756.001 1390.91 z"/>
<path transform="translate(0,0)" fill="rgb(61,70,75)" d="M 1532.38 1203 C 1538.2 1204.53 1550.17 1210.25 1553.41 1215.47 C 1552.05 1220.77 1517.21 1239.57 1510.81 1242.31 C 1503.74 1241.07 1489.73 1237.85 1491.01 1228.98 C 1496.14 1221.41 1522.67 1208.35 1532.38 1203 z"/>
<path transform="translate(0,0)" fill="rgb(61,70,75)" d="M 1416.88 1268.81 C 1422.73 1269.12 1438.06 1275.86 1438.76 1282.23 C 1434.64 1286.77 1404.15 1303.48 1397.32 1307.15 C 1391.18 1306.7 1377.99 1300.59 1375.46 1294.75 C 1377.48 1290.24 1409.7 1273.08 1416.88 1268.81 z"/>
<path transform="translate(0,0)" fill="rgb(185,188,190)" d="M 1362.28 1375.07 C 1363.43 1375.01 1368.93 1374.79 1369.66 1375.13 C 1416.17 1396.68 1459.94 1425.59 1505.38 1449.67 C 1509.53 1451.88 1512.92 1454.51 1511.66 1459.24 C 1508.98 1462.27 1506.16 1464.23 1502.66 1466.23 C 1451.99 1495.05 1401.29 1524.05 1350.77 1553.1 L 1301.77 1581.4 C 1293.88 1585.97 1278.4 1595.65 1270.52 1597.97 C 1266.86 1598.52 1261.46 1598.56 1258.05 1597.03 C 1234.36 1586.35 1211.02 1571 1188.12 1558.43 C 1168.05 1547.42 1148.53 1536.34 1128.88 1524.75 C 1125.47 1522.73 1120.62 1518.96 1119.76 1514.89 C 1128.14 1506.8 1151.89 1494.3 1163.05 1487.96 L 1226.13 1451.98 L 1314.31 1401.53 C 1327.83 1393.85 1348.61 1381.24 1362.28 1375.07 z"/>
<path transform="translate(0,0)" fill="rgb(100,111,116)" d="M 1163.2 1024.43 C 1166.18 1027.56 1172.09 1035.69 1175.18 1039.57 C 1177.13 1042.82 1181.36 1049.45 1182.54 1052.71 C 1184.82 1058.86 1187.3 1066.6 1191.07 1071.87 L 578.053 1426.16 C 574.495 1423.99 557.449 1414.15 555.66 1412.47 C 554.613 1407.46 540.732 1392.28 537.032 1388.27 C 672.962 1307.3 812.69 1226.89 949.993 1148.05 L 1087 1068.95 C 1110.31 1055.49 1141.44 1038.84 1163.2 1024.43 z"/>
<path transform="translate(0,0)" fill="rgb(222,223,224)" d="M 270.039 760.798 C 278.106 753.809 309.628 735.118 319.925 729.052 L 420.108 671.206 L 763.477 470.282 L 960.591 354.684 L 1018.77 319.923 C 1055.49 297.997 1052.52 293.45 1091.54 312.495 C 1083.55 313.748 1077.38 317.03 1070.43 321.083 C 1018.04 351.64 965.559 382.484 913.243 413.133 L 620.937 583.866 L 407.966 708.357 L 336.814 749.934 C 325.787 756.385 310.606 764.667 300.169 771.553 C 291.818 770.048 278.73 764.057 270.039 760.798 z"/>
<path transform="translate(0,0)" fill="rgb(185,188,190)" d="M 270.039 760.798 C 278.73 764.057 291.818 770.048 300.169 771.553 C 291.345 780.464 284.091 792.951 285.634 805.709 C 288.504 829.438 295.467 854.331 300.97 877.552 L 335.982 1024.07 L 405.187 1311.12 C 415.672 1354.27 425.75 1397.56 436.494 1440.65 C 439.19 1451.46 444.747 1455.82 453.011 1462.4 C 438.792 1460.43 415.339 1458.38 410.336 1442.42 C 398.386 1404.3 390.964 1363.77 381.46 1325.05 C 358.434 1231.67 335.921 1138.16 313.921 1044.53 C 298.869 984.233 284.372 923.804 270.429 863.245 C 266.019 844.578 261.168 825.861 256.916 807.181 C 253.343 791.489 258.633 772.361 270.039 760.798 z"/>
<path transform="translate(0,0)" fill="rgb(57,147,207)" d="M 1074.69 371.969 C 1079.4 377.427 1194.63 894.032 1212.21 958.891 C 1193.84 968.722 1173.56 981.363 1155.11 991.922 L 690.327 1260.36 L 538.122 1349.31 C 532.053 1352.86 470.371 1389.65 467.296 1389.64 C 459.708 1355.77 450.231 1319.79 441.982 1285.85 L 390.099 1070.47 L 350.439 904.717 C 343.195 874.387 335.639 838.55 327.063 809.007 C 405.329 761.069 489.012 714.115 568.329 667.71 L 1074.69 371.969 z"/>
</svg>