<svg version="1.1" xmlns="http://www.w3.org/2000/svg" style="display: block;" viewBox="0 0 2048 2048" width="1024" height="1024" preserveAspectRatio="none">
<path transform="translate(0,0)" fill="rgb(48,132,198)" d="M 608.866 305.787 C 611.972 276.815 639.075 264.109 661.984 251.484 C 712.892 223.429 754.578 185.725 816.995 193.639 C 853.599 198.279 871.332 211.899 902.626 229.811 L 985.566 277.609 L 1249.01 428.774 L 1434.42 535.589 L 1489.89 567.623 C 1497.74 572.171 1514.31 581.386 1521.24 586.604 C 1551.39 609.634 1549.23 641.759 1549.21 675.281 L 1549.16 741.312 L 1549.24 970.584 L 1549.26 1446.25 C 1549.29 1526.29 1549.27 1606.32 1549.44 1686.36 C 1549.47 1704.21 1539.87 1706.96 1525.8 1714.27 C 1523.29 1715.72 1519.25 1718.11 1516.49 1718.64 C 1505 1720.87 1484.95 1706.36 1474.76 1700.05 C 1462.15 1708.14 1446.46 1716.44 1433.16 1724.04 C 1406.02 1739.76 1378.65 1755.07 1351.06 1769.98 C 1345.07 1790.16 1359.33 1822.63 1340.25 1834.54 C 1335.43 1837.55 1330.03 1840.01 1325.31 1843.39 C 1317.11 1848.06 1312.94 1850.24 1304.09 1845.46 C 1283.38 1834.25 1262.99 1822.07 1242.51 1810.45 C 1199.26 1786.18 1156.18 1761.61 1113.28 1736.74 L 834.017 1576.11 L 724.091 1512.98 C 702.825 1500.78 680.114 1487.21 658.576 1475.76 L 636.534 1463.05 C 621.514 1451.91 608.589 1438.13 608.231 1417.99 C 607.776 1392.43 608.005 1366.77 608.015 1341.18 L 608.035 1190.42 L 608.03 726.864 L 608.111 438.285 L 608.127 351.551 C 608.13 340.04 607.531 316.134 608.866 305.787 z"/>
<path transform="translate(0,0)" fill="rgb(254,254,254)" d="M 608.866 305.787 C 611.972 276.815 639.075 264.109 661.984 251.484 C 712.892 223.429 754.578 185.725 816.995 193.639 C 853.599 198.279 871.332 211.899 902.626 229.811 L 985.566 277.609 L 1249.01 428.774 L 1434.42 535.589 L 1489.89 567.623 C 1497.74 572.171 1514.31 581.386 1521.24 586.604 C 1551.39 609.634 1549.23 641.759 1549.21 675.281 L 1549.16 741.312 L 1549.24 970.584 L 1549.26 1446.25 C 1549.29 1526.29 1549.27 1606.32 1549.44 1686.36 C 1549.47 1704.21 1539.87 1706.96 1525.8 1714.27 C 1523.29 1715.72 1519.25 1718.11 1516.49 1718.64 C 1505 1720.87 1484.95 1706.36 1474.76 1700.05 C 1462.15 1708.14 1446.46 1716.44 1433.16 1724.04 C 1406.02 1739.76 1378.65 1755.07 1351.06 1769.98 C 1349.66 1763.87 1350.37 1722.17 1350.42 1712.25 L 1350.54 1589.74 L 1350.74 1021.23 L 1350.58 840.854 C 1350.49 814.883 1351.34 787.658 1350.16 761.781 C 1349.56 748.706 1341.5 736.193 1334.08 725.644 L 1326.27 717.614 C 1318.21 722.976 1312.93 726.314 1304.27 730.612 C 1301.39 729.678 1285.32 718.865 1280.95 716.429 C 1241.31 694.078 1201.87 671.386 1162.61 648.357 L 831.543 457.313 L 716.774 391.005 C 698.012 380.221 677.849 367.798 658.807 357.922 C 653.788 355.607 643.655 349.477 638.083 346.461 C 625.599 334.692 609.125 326.393 608.866 305.787 z"/>
<path transform="translate(0,0)" fill="rgb(218,217,217)" d="M 1494.44 630.393 C 1496.41 631.631 1498.81 632.624 1498.85 635.428 C 1500.06 724.035 1499.8 813.603 1499.61 902.206 L 1500.01 1685.2 C 1496.16 1687.42 1476.97 1697.84 1474.76 1700.05 C 1462.15 1708.14 1446.46 1716.44 1433.16 1724.04 C 1406.02 1739.76 1378.65 1755.07 1351.06 1769.98 C 1349.66 1763.87 1350.37 1722.17 1350.42 1712.25 L 1350.54 1589.74 L 1350.74 1021.23 L 1350.58 840.854 C 1350.49 814.883 1351.34 787.658 1350.16 761.781 C 1349.56 748.706 1341.5 736.193 1334.08 725.644 C 1339.16 722.09 1345.58 718.341 1351.05 715.402 C 1399.97 689.104 1446.25 657.714 1494.44 630.393 z"/>
<path transform="translate(0,0)" fill="rgb(182,182,181)" d="M 1476.59 694.921 L 1478.1 695.084 C 1478.98 696.819 1479.07 696.422 1479.08 697.964 L 1479.11 1653.8 L 1470.24 1659.13 C 1469.6 1653.78 1469.89 1638.87 1469.89 1633.18 L 1469.94 1585.69 L 1469.95 1427.81 L 1469.4 907.92 C 1469.36 888.08 1468.33 703.587 1469.53 700.63 C 1470.86 697.338 1473.68 696.514 1476.59 694.921 z"/>
<path transform="translate(0,0)" fill="rgb(182,182,181)" d="M 1372.82 753.858 L 1373.87 755.488 C 1374.69 809.152 1373.77 865.104 1373.63 918.9 L 1373.31 1215.61 L 1373.31 1526.22 L 1373.42 1656.37 C 1373.45 1672.77 1373.78 1689.12 1374 1705.51 C 1374.06 1710.09 1374.37 1711.3 1372.08 1714.51 C 1369.07 1716.12 1368.24 1716.87 1364.8 1716.84 C 1363.88 1689.48 1364.43 1659.8 1364.4 1632.25 L 1364.47 1469.35 L 1364.3 1066.09 C 1364.58 965.724 1366.25 859.506 1364.16 759.388 L 1372.82 753.858 z"/>
<path transform="translate(0,0)" fill="rgb(182,182,181)" d="M 1441.9 714.741 C 1442.48 715.32 1443.06 715.899 1443.64 716.478 C 1444.07 772.473 1443.47 828.486 1443.56 884.477 L 1443.79 1425.77 C 1443.76 1507.14 1445.01 1591.88 1443.97 1672.99 C 1442.62 1675.94 1439.49 1677.13 1436.5 1678.86 L 1435.67 1678.79 C 1435.29 1678.35 1434.9 1677.9 1434.51 1677.46 C 1434.64 1638.79 1434.93 1573.03 1434.96 1537.51 L 1434.78 990.625 L 1434.76 820.375 C 1434.68 788.957 1433.34 751.475 1434.89 720.579 C 1436.13 717.524 1438.9 716.511 1441.9 714.741 z"/>
<path transform="translate(0,0)" fill="rgb(182,182,181)" d="M 1408.69 733.811 C 1409.46 739.159 1408.95 764.307 1408.94 771.353 L 1408.76 853.26 L 1408.22 1141 L 1408.59 1534.54 L 1408.92 1646.45 C 1408.96 1661.01 1409.17 1677.32 1408.74 1691.97 C 1408.65 1695.05 1405.22 1696.23 1402.05 1698.32 L 1400.02 1697.41 C 1399.25 1690.27 1399.62 1673.96 1399.6 1666.33 L 1399.63 1603.63 L 1399.76 1413.73 L 1399.89 739.125 L 1408.69 733.811 z"/>
<path transform="translate(0,0)" fill="rgb(42,112,174)" d="M 839.83 219.861 C 876.005 239.49 909.982 260.126 945.497 280.291 L 1269.77 466.524 L 1416.47 551.486 C 1435.34 562.058 1454.1 572.816 1472.75 583.759 C 1478.22 586.939 1494.7 596.086 1499.21 599.409 C 1507.64 595.337 1513.4 591.602 1521.24 586.604 C 1551.39 609.634 1549.23 641.759 1549.21 675.281 L 1549.16 741.312 L 1549.24 970.584 L 1549.26 1446.25 C 1549.29 1526.29 1549.27 1606.32 1549.44 1686.36 C 1549.47 1704.21 1539.87 1706.96 1525.8 1714.27 C 1523.29 1715.72 1519.25 1718.11 1516.49 1718.64 C 1505 1720.87 1484.95 1706.36 1474.76 1700.05 C 1476.97 1697.84 1496.16 1687.42 1500.01 1685.2 L 1499.61 902.206 C 1499.8 813.603 1500.06 724.035 1498.85 635.428 C 1498.81 632.624 1496.41 631.631 1494.44 630.393 C 1441.2 598.246 1384.94 566.933 1330.91 535.763 L 1015.6 354.425 L 886.94 280.567 C 875.392 274.013 850.402 258.034 839.6 254.398 C 839.275 243.184 839.666 231.138 839.83 219.861 z"/>
<path transform="translate(0,0)" fill="rgb(25,91,152)" d="M 1521.24 586.604 C 1551.39 609.634 1549.23 641.759 1549.21 675.281 L 1549.16 741.312 L 1549.24 970.584 L 1549.26 1446.25 C 1549.29 1526.29 1549.27 1606.32 1549.44 1686.36 C 1549.47 1704.21 1539.87 1706.96 1525.8 1714.27 C 1524.64 1705.83 1524.92 1689.41 1524.87 1680.33 L 1524.76 1622.4 L 1524.75 1438.37 L 1524.82 857.01 C 1525.06 807.716 1525.03 758.421 1524.73 709.128 C 1524.64 674.696 1531.6 637.109 1507.68 610.125 C 1505.18 607.298 1500.59 602.673 1499.21 599.409 C 1507.64 595.337 1513.4 591.602 1521.24 586.604 z"/>
<path transform="translate(0,0)" fill="rgb(83,162,220)" d="M 608.866 305.787 C 611.972 276.815 639.075 264.109 661.984 251.484 C 712.892 223.429 754.578 185.725 816.995 193.639 C 853.599 198.279 871.332 211.899 902.626 229.811 L 985.566 277.609 L 1249.01 428.774 L 1434.42 535.589 L 1489.89 567.623 C 1497.74 572.171 1514.31 581.386 1521.24 586.604 C 1513.4 591.602 1507.64 595.337 1499.21 599.409 C 1494.7 596.086 1478.22 586.939 1472.75 583.759 C 1454.1 572.816 1435.34 562.058 1416.47 551.486 L 1269.77 466.524 L 945.497 280.291 C 909.982 260.126 876.005 239.49 839.83 219.861 C 839.666 231.138 839.275 243.184 839.6 254.398 C 804.511 244.471 774.735 247.182 743.626 266.423 C 721.181 280.305 670.594 304.795 655.23 322.864 C 667.658 338.61 699.045 354.328 717.151 364.84 L 800.322 412.916 L 1158.09 619.301 L 1267.97 682.559 C 1282.12 690.711 1314.64 708.662 1326.27 717.614 C 1318.21 722.976 1312.93 726.314 1304.27 730.612 C 1301.39 729.678 1285.32 718.865 1280.95 716.429 C 1241.31 694.078 1201.87 671.386 1162.61 648.357 L 831.543 457.313 L 716.774 391.005 C 698.012 380.221 677.849 367.798 658.807 357.922 C 653.788 355.607 643.655 349.477 638.083 346.461 C 625.599 334.692 609.125 326.393 608.866 305.787 z"/>
<path transform="translate(0,0)" fill="rgb(25,91,152)" d="M 655.23 322.864 C 644.476 309.561 647.923 292.329 660.721 281.536 C 669.126 274.754 678.864 268.998 688.268 263.617 C 735.933 236.343 781.449 196.272 839.83 219.861 C 839.666 231.138 839.275 243.184 839.6 254.398 C 804.511 244.471 774.735 247.182 743.626 266.423 C 721.181 280.305 670.594 304.795 655.23 322.864 z"/>
<path transform="translate(0,0)" fill="rgb(218,217,217)" d="M 843.236 279.95 C 844.983 279.909 846.263 280.663 847.713 281.485 L 1321.37 553.995 L 1406.19 603.267 C 1415.89 608.801 1426.67 615.935 1436.36 620.81 L 1437.42 621.33 C 1436.48 623.431 1432.78 625.367 1430.51 626.912 C 1424.25 626.065 1369.25 592.408 1360.18 587.187 L 1182.32 484.586 L 835.756 285.247 C 836.591 284.485 842.02 280.802 843.236 279.95 z"/>
<path transform="translate(0,0)" fill="rgb(218,217,217)" d="M 734.604 342.985 C 735.964 343.059 1284.09 657.317 1327.05 683.855 C 1324.23 685.464 1321.31 687.318 1318.53 689.02 C 1303.14 681.21 1284.16 669.603 1268.97 660.756 L 1181.38 609.955 L 853.505 421.491 L 767.809 372.272 C 754.447 364.585 739.209 354.898 725.589 348.291 L 734.604 342.985 z"/>
<path transform="translate(0,0)" fill="rgb(218,217,217)" d="M 806.334 300.891 C 827.693 311.426 847.303 324.574 867.939 336.113 C 931.677 371.881 995.095 408.217 1058.19 445.117 L 1303.9 586.64 C 1334.26 604.337 1369.86 623.657 1399.29 642.005 L 1399.2 643.003 L 1393.23 647.236 L 1391.65 647.425 C 1379.18 641.608 1358.37 628.706 1345.89 621.438 L 1269.06 576.875 L 1047.11 448.938 L 873.867 349.522 L 829.614 324.263 C 822.252 320.085 806.842 311.734 800.578 306.73 C 801.585 303.891 803.538 303.152 806.334 300.891 z"/>
<path transform="translate(0,0)" fill="rgb(218,217,217)" d="M 771.749 321.776 C 775.333 324.426 786.642 330.603 790.952 333.09 L 830.655 355.976 L 967.084 434.102 L 1363.61 663.225 L 1355.43 668.483 C 1340.71 661.533 1315.66 645.777 1300.37 637.224 C 1252.78 610.596 1205.85 581.869 1158.26 555.157 C 1147.56 549.148 1136.65 541.748 1125.78 535.56 L 884.414 397.136 C 846.455 375.252 799.116 350.235 763.534 327.073 L 771.749 321.776 z"/>
<path transform="translate(0,0)" fill="rgb(48,132,198)" d="M 608.866 305.787 C 609.125 326.393 625.599 334.692 638.083 346.461 L 638.281 1103.67 L 638.782 1334.96 C 638.808 1349.95 640.352 1456 636.534 1463.05 C 621.514 1451.91 608.589 1438.13 608.231 1417.99 C 607.776 1392.43 608.005 1366.77 608.015 1341.18 L 608.035 1190.42 L 608.03 726.864 L 608.111 438.285 L 608.127 351.551 C 608.13 340.04 607.531 316.134 608.866 305.787 z"/>
<path transform="translate(0,0)" fill="rgb(25,91,152)" d="M 1326.27 717.614 L 1334.08 725.644 C 1341.5 736.193 1349.56 748.706 1350.16 761.781 C 1351.34 787.658 1350.49 814.883 1350.58 840.854 L 1350.74 1021.23 L 1350.54 1589.74 L 1350.42 1712.25 C 1350.37 1722.17 1349.66 1763.87 1351.06 1769.98 C 1345.07 1790.16 1359.33 1822.63 1340.25 1834.54 C 1335.43 1837.55 1330.03 1840.01 1325.31 1843.39 C 1326.92 1830.98 1326.19 1802.6 1326.13 1789.01 L 1326.09 1698.35 L 1326.07 1369.48 L 1326.25 967.099 L 1326.44 844.654 C 1326.49 821.327 1327.04 797.498 1325.7 774.233 C 1325 762.171 1318.21 749.824 1311.47 740.109 C 1309.2 736.847 1305.75 734.208 1304.27 730.612 C 1312.93 726.314 1318.21 722.976 1326.27 717.614 z"/>
<path transform="translate(0,0)" fill="rgb(42,112,174)" d="M 638.083 346.461 C 643.655 349.477 653.788 355.607 658.807 357.922 L 658.302 932.937 C 658.942 1030.95 659.037 1128.98 658.587 1226.99 C 658.869 1309 659.894 1393.92 658.576 1475.76 L 636.534 1463.05 C 640.352 1456 638.808 1349.95 638.782 1334.96 L 638.281 1103.67 L 638.083 346.461 z"/>
</svg>