<svg version="1.1" xmlns="http://www.w3.org/2000/svg" style="display: block;" viewBox="0 0 2048 2048" width="1024" height="1024" preserveAspectRatio="none">
<path transform="translate(0,0)" fill="rgb(151,162,173)" d="M 595.939 599.655 C 611.746 593.381 638.405 577.226 654.13 568.314 C 687.973 549.363 721.655 530.126 755.173 510.606 C 837.86 463.053 921.528 417.71 1004.03 369.789 C 1072.55 409.291 1141.41 448.212 1210.59 486.549 L 1450.81 622.443 L 1450.92 1467.46 C 1355.21 1522.48 1259.19 1576.96 1162.87 1630.92 L 1080.75 1676.86 C 1072.6 1681.44 1041.66 1698.91 1034.77 1704.46 C 1030 1702.64 1002.8 1685.9 996.78 1682.37 L 915.522 1635.64 L 596.948 1454.53 C 596.195 1385.92 596.818 1316.04 596.824 1247.33 L 596.828 861.09 L 596.701 694.87 C 596.637 664.107 597.201 630.223 595.939 599.655 z M 794.369 1200.69 C 819.477 1214.1 851.839 1235.71 875.706 1247.02 C 876.512 1239.14 876.368 1231.86 876.341 1223.98 C 871.089 1219.06 803.838 1181.09 795.02 1176.7 L 794.369 1200.69 z"/>
<path transform="translate(0,0)" fill="rgb(91,99,108)" d="M 1450.81 622.443 L 1450.92 1467.46 C 1355.21 1522.48 1259.19 1576.96 1162.87 1630.92 L 1080.75 1676.86 C 1072.6 1681.44 1041.66 1698.91 1034.77 1704.46 C 1036.07 1684.08 1035 1651.19 1034.99 1629.87 L 1034.93 1485.29 L 1034.85 1046.04 L 1034.9 917.976 C 1034.84 900.522 1033.32 874.733 1034.58 858.254 L 1040 854.179 C 1042.69 853.329 1066.19 839.764 1070.31 837.449 L 1146.86 794.586 L 1450.81 622.443 z"/>
<path transform="translate(0,0)" fill="rgb(207,214,219)" d="M 1034.58 858.254 C 1022.63 849.573 1002.55 838.994 989.103 831.264 L 908.351 785.05 L 692.618 662.003 L 623.373 622.464 C 615.629 618.109 605.024 614.039 598.372 608.743 C 596.861 606.239 597.271 605.332 597.439 602.351 C 600.665 602.732 602.486 603.689 605.36 605.313 L 860.605 751.312 L 967.81 812.634 C 990.258 825.373 1018.67 840.453 1040 854.179 L 1034.58 858.254 z"/>
<path transform="translate(0,0)" fill="rgb(52,57,59)" d="M 625.28 661.018 C 632.966 664.835 646.169 672.342 653.283 677.037 C 663.744 682.641 678.678 691.991 688.215 696.598 C 750.164 731.52 810.794 765.004 872.472 801.072 L 954.006 848.666 C 970.752 858.258 988.679 868.925 1006.23 876.664 L 1006.11 887.997 C 1005.9 901.974 1007.61 979.654 1005.18 987.095 C 1003.75 991.117 1005.53 993.726 1005.42 998.008 C 1006.6 1006.33 1006.13 1024.76 1006.08 1033.77 C 1005.8 1055.59 1005.74 1077.41 1005.91 1099.23 C 1005.61 1104.67 1004.84 1110.77 1006.1 1115.95 L 1005.72 1120.36 L 1005.79 1182.55 C 1005.84 1190.33 1005.54 1206.83 1006.3 1214 L 1004.99 1215.04 C 1006.26 1219.08 1006.22 1249.3 1004.91 1252.53 C 1006.86 1256.77 1005.92 1270.4 1006.33 1276.05 L 1005.92 1281.42 C 1005.34 1311.88 1006.38 1342.75 1005.78 1372.24 L 1005.7 1375.5 C 1005.82 1382.83 1006.37 1395.15 1005.72 1402.07 C 1005.59 1408.04 1004.8 1422.24 1006.53 1427.12 L 1005.06 1431.22 C 1006.02 1443.96 1005.59 1461.43 1005.48 1474.5 C 1005.34 1492.25 1005.67 1511.04 1005.15 1528.72 L 1004.74 1530.18 C 1006 1535.78 1005.14 1584.83 1005.07 1594.2 C 1005.19 1606.66 1006.19 1634.51 1005.05 1645.79 L 1004.77 1647.93 L 1003.52 1648.55 C 996.466 1646.2 978.399 1635.26 970.946 1631 L 908.591 1595.26 L 737.102 1497.07 C 708.287 1480.6 679.356 1464.18 650.653 1447.52 C 644.841 1444.15 628.215 1437.6 626.473 1432.06 L 627.888 1430.18 C 626.427 1429.99 627.309 1430.23 625.454 1428.91 C 623.722 1410.97 624.911 1367.3 624.903 1347.07 L 624.884 1180.93 L 625.28 661.018 z M 794.369 1200.69 C 819.477 1214.1 851.839 1235.71 875.706 1247.02 C 876.512 1239.14 876.368 1231.86 876.341 1223.98 C 871.089 1219.06 803.838 1181.09 795.02 1176.7 L 794.369 1200.69 z"/>
<path transform="translate(0,0)" fill="rgb(91,99,108)" d="M 688.215 696.598 C 750.164 731.52 810.794 765.004 872.472 801.072 L 954.006 848.666 C 970.752 858.258 988.679 868.925 1006.23 876.664 L 1006.11 887.997 C 1005.9 901.974 1007.61 979.654 1005.18 987.095 C 1003.75 991.117 1005.53 993.726 1005.42 998.008 C 1006.6 1006.33 1006.13 1024.76 1006.08 1033.77 C 1005.8 1055.59 1005.74 1077.41 1005.91 1099.23 C 1005.61 1104.67 1004.84 1110.77 1006.1 1115.95 L 1005.72 1120.36 L 1005.79 1182.55 C 1005.84 1190.33 1005.54 1206.83 1006.3 1214 L 1004.99 1215.04 C 999.154 1213.03 983.881 1203.86 977.803 1200.38 C 976.116 1199.8 963.576 1192.43 960.832 1190.86 L 920.495 1167.85 L 830.809 1116.79 C 816.53 1108.66 794.091 1096.6 780.971 1087.71 C 770.845 1082.31 760.771 1076.8 750.75 1071.21 C 750.088 1070.93 741.442 1065.44 740.074 1064.61 C 722.788 1056.36 698.459 1041.18 679.981 1031.64 C 679.628 997.917 679.535 964.193 679.702 930.47 C 684.577 928.069 688.476 925.193 692.911 922.109 C 688.402 918.657 684.27 917.162 679.116 915.066 C 679.089 900.557 677.41 822.953 679.935 814.443 C 682.709 813.228 686.588 810.69 689.305 809.028 L 679.244 803.999 C 679.36 770.508 678.591 736.739 679.183 703.32 C 683.113 700.82 684.708 699.656 688.215 696.598 z"/>
<path transform="translate(0,0)" fill="rgb(176,184,189)" d="M 692.911 922.109 C 704.362 929.886 726.976 941.736 739.643 948.868 C 770.397 966.074 801.063 983.436 831.64 1000.95 L 940.873 1062.42 C 960.098 1073.37 982.266 1089.1 1002.26 1098.05 L 1005.91 1099.23 C 1005.61 1104.67 1004.84 1110.77 1006.1 1115.95 L 1005.72 1120.36 L 1005.79 1182.55 C 1005.84 1190.33 1005.54 1206.83 1006.3 1214 L 1004.99 1215.04 C 999.154 1213.03 983.881 1203.86 977.803 1200.38 C 976.116 1199.8 963.576 1192.43 960.832 1190.86 L 920.495 1167.85 L 830.809 1116.79 C 816.53 1108.66 794.091 1096.6 780.971 1087.71 C 770.845 1082.31 760.771 1076.8 750.75 1071.21 C 750.088 1070.93 741.442 1065.44 740.074 1064.61 C 722.788 1056.36 698.459 1041.18 679.981 1031.64 C 679.628 997.917 679.535 964.193 679.702 930.47 C 684.577 928.069 688.476 925.193 692.911 922.109 z"/>
<path transform="translate(0,0)" fill="rgb(176,184,189)" d="M 692.911 922.109 C 704.362 929.886 726.976 941.736 739.643 948.868 C 770.397 966.074 801.063 983.436 831.64 1000.95 L 940.873 1062.42 C 960.098 1073.37 982.266 1089.1 1002.26 1098.05 L 1005.91 1099.23 C 1005.61 1104.67 1004.84 1110.77 1006.1 1115.95 C 998.691 1112.83 989.97 1106.87 982.936 1102.79 C 882.481 1044.45 781.229 986.944 679.702 930.47 C 684.577 928.069 688.476 925.193 692.911 922.109 z"/>
<path transform="translate(0,0)" fill="rgb(207,214,219)" d="M 679.702 930.47 C 781.229 986.944 882.481 1044.45 982.936 1102.79 C 989.97 1106.87 998.691 1112.83 1006.1 1115.95 L 1005.72 1120.36 C 992.051 1116.13 961.391 1097.22 948.099 1089.49 L 840.935 1026.81 L 730.95 964.876 C 714.545 955.552 699.574 948.512 683.468 938.151 C 683.87 968.256 683.142 998.648 684.092 1028.7 C 692.739 1034.63 701.97 1038.66 711.201 1043.64 C 728.133 1052.72 744.856 1062.19 761.357 1072.03 C 767.182 1075.55 776.684 1080.89 781.434 1085.13 L 780.971 1087.71 C 770.845 1082.31 760.771 1076.8 750.75 1071.21 C 750.088 1070.93 741.442 1065.44 740.074 1064.61 C 722.788 1056.36 698.459 1041.18 679.981 1031.64 C 679.628 997.917 679.535 964.193 679.702 930.47 z"/>
<path transform="translate(0,0)" fill="rgb(207,214,219)" d="M 977.803 1200.38 C 984.484 1198.6 985.646 1200.51 992.076 1203.84 C 995.506 1205.61 1003.85 1211.29 1006.3 1214 L 1004.99 1215.04 C 999.154 1213.03 983.881 1203.86 977.803 1200.38 z"/>
<path transform="translate(0,0)" fill="rgb(56,62,54)" d="M 787.935 1006.2 C 793.753 1008.7 809.654 1017.95 815.914 1021.4 C 838.07 1033.73 860.128 1046.23 882.087 1058.91 C 881.948 1071.82 882.036 1084.73 882.35 1097.63 C 851.591 1080.12 819.342 1061.27 788.209 1044.7 L 787.935 1006.2 z"/>
<path transform="translate(0,0)" fill="rgb(253,223,20)" d="M 793.791 1016.04 C 799.651 1017.94 818.064 1028.79 824.26 1032.32 L 876.193 1061.85 C 876.486 1070.61 876.26 1078.73 876.031 1087.47 C 851.641 1073.63 817.839 1052.69 793.702 1041.13 C 793.582 1032.92 793.758 1024.28 793.791 1016.04 z"/>
<path transform="translate(0,0)" fill="rgb(52,57,59)" d="M 788.214 1053.31 C 794.831 1055.88 812.425 1066.47 819.697 1070.62 C 840.494 1082.66 861.416 1094.48 882.462 1106.07 L 882.011 1130.82 C 877.878 1129.18 872.982 1126.39 868.984 1124.33 C 841.654 1110.28 815.464 1094.05 788.379 1079.55 C 788.182 1070.8 788.127 1062.06 788.214 1053.31 z"/>
<path transform="translate(0,0)" fill="rgb(253,223,20)" d="M 969.177 1118.64 C 982.187 1119.26 991.216 1134.41 981.88 1145.38 C 967.829 1145.52 960.854 1130.89 969.177 1118.64 z"/>
<path transform="translate(0,0)" fill="rgb(253,223,20)" d="M 970.199 1157.61 C 982.497 1158.49 990.221 1174.05 981.252 1184.72 C 967.467 1181.17 960.095 1169.8 970.199 1157.61 z"/>
<path transform="translate(0,0)" fill="rgb(52,57,59)" d="M 897.063 1071.33 L 910.005 1078.53 L 910.041 1095.36 C 906.038 1092.82 901.196 1090.29 896.997 1087.97 C 896.751 1082.62 896.98 1076.73 897.063 1071.33 z"/>
<path transform="translate(0,0)" fill="rgb(52,57,59)" d="M 897.595 1097.95 C 901.757 1100.21 906.477 1103.34 910.549 1105.89 L 910.268 1121.7 L 897.087 1114.57 C 896.974 1108.14 897.002 1104.35 897.595 1097.95 z"/>
<path transform="translate(0,0)" fill="rgb(52,57,59)" d="M 939.047 1095.5 L 952.031 1102.43 L 951.798 1118.87 C 947.588 1116.77 943.218 1114.83 938.933 1112.87 L 939.047 1095.5 z"/>
<path transform="translate(0,0)" fill="rgb(52,57,59)" d="M 701.59 960.308 L 714.885 967.777 L 714.675 983.699 L 701.737 977.236 C 701.536 971.619 701.595 965.934 701.59 960.308 z"/>
<path transform="translate(0,0)" fill="rgb(52,57,59)" d="M 742.085 1035.4 L 755.161 1043.13 L 754.925 1058.88 C 751.19 1057.28 746.607 1054.68 742.923 1052.74 C 742.188 1046.92 742.199 1041.26 742.085 1035.4 z"/>
<path transform="translate(0,0)" fill="rgb(52,57,59)" d="M 701.549 1012.73 C 705.463 1014.09 710.958 1017.62 714.698 1019.82 C 714.679 1024.88 714.324 1030.35 714.099 1035.45 L 701.461 1028.77 C 701.37 1023.61 701.516 1017.93 701.549 1012.73 z"/>
<path transform="translate(0,0)" fill="rgb(52,57,59)" d="M 918.241 1084.26 C 922.561 1086.15 926.868 1088.68 931.016 1090.98 L 930.68 1107.51 L 918.018 1100.12 C 917.976 1094.9 918.148 1089.49 918.241 1084.26 z"/>
<path transform="translate(0,0)" fill="rgb(52,57,59)" d="M 701.655 986.892 C 705.681 988.557 710.953 991.703 714.882 993.886 L 714.184 1009.64 L 701.413 1002.44 L 701.655 986.892 z"/>
<path transform="translate(0,0)" fill="rgb(52,57,59)" d="M 897.227 1123.65 C 901.433 1125.83 905.917 1128.4 910.108 1130.69 L 910.203 1147.1 C 905.943 1144.63 901.624 1142.83 897.135 1140.83 L 897.227 1123.65 z"/>
<path transform="translate(0,0)" fill="rgb(52,57,59)" d="M 918.091 1110.48 C 922.901 1112.59 926.323 1114.68 930.801 1117.32 L 930.866 1133.42 C 926.692 1130.97 921.904 1128.6 917.578 1126.33 L 918.091 1110.48 z"/>
<path transform="translate(0,0)" fill="rgb(52,57,59)" d="M 722.484 1024.5 L 735.153 1031.02 L 734.921 1048.11 C 730.933 1045.48 726.46 1043.1 722.278 1040.74 L 722.484 1024.5 z"/>
<path transform="translate(0,0)" fill="rgb(52,57,59)" d="M 742.348 983.27 C 746.315 984.89 751.158 987.922 754.965 990.133 L 755.256 1007.05 C 751.154 1004.21 747.182 1002.39 742.735 1000.16 C 742.389 994.819 742.436 988.683 742.348 983.27 z"/>
<path transform="translate(0,0)" fill="rgb(52,57,59)" d="M 917.954 1136.2 C 921.385 1137.64 927.516 1141.33 930.973 1143.27 L 930.573 1158.52 L 918.103 1152.68 L 917.954 1136.2 z"/>
<path transform="translate(0,0)" fill="rgb(52,57,59)" d="M 939.019 1122.18 C 942.844 1123.75 947.571 1126.32 951.353 1128.23 C 951.168 1133.33 951.438 1139.47 951.529 1144.66 L 938.916 1138.37 L 939.019 1122.18 z"/>
<path transform="translate(0,0)" fill="rgb(52,57,59)" d="M 762.813 1047.24 C 765.987 1049.25 771.656 1051.74 775.208 1053.44 L 775.116 1069.52 L 762.679 1063.71 L 762.813 1047.24 z"/>
<path transform="translate(0,0)" fill="rgb(52,57,59)" d="M 722.713 972.114 C 726.667 973.991 730.948 976.452 734.831 978.566 L 734.991 995.269 C 731.125 993.114 726.814 991.066 722.829 989.07 C 722.629 983.151 722.433 978.041 722.713 972.114 z"/>
<path transform="translate(0,0)" fill="rgb(52,57,59)" d="M 722.211 998.469 L 734.858 1004.72 L 735.064 1021.06 C 730.421 1018.9 726.657 1016.4 722.334 1013.69 L 722.211 998.469 z"/>
<path transform="translate(0,0)" fill="rgb(52,57,59)" d="M 938.734 1148.08 L 951.103 1154.24 L 950.976 1170.58 L 938.839 1163.96 L 938.734 1148.08 z"/>
<path transform="translate(0,0)" fill="rgb(52,57,59)" d="M 763 995.297 L 774.925 1001.35 L 775.019 1017.7 L 763.016 1011.55 L 763 995.297 z"/>
<path transform="translate(0,0)" fill="rgb(52,57,59)" d="M 742.386 1009.95 C 746.651 1011.57 750.99 1014.38 754.972 1016.73 L 755.029 1032.28 C 750.897 1030.39 746.771 1028.06 742.757 1025.91 C 742.528 1020.75 742.503 1015.15 742.386 1009.95 z"/>
<path transform="translate(0,0)" fill="rgb(52,57,59)" d="M 762.247 1021.81 C 765.944 1023.2 771.404 1026.21 775.072 1028.09 L 774.977 1043.59 C 769.619 1041.09 767.698 1040.09 762.72 1036.81 C 762.704 1031.79 762.458 1026.83 762.247 1021.81 z"/>
<path transform="translate(0,0)" fill="rgb(91,99,108)" d="M 689.305 809.028 C 723.716 827.271 762.418 850.503 796.549 870.202 C 842.818 896.86 889.292 923.162 935.967 949.103 C 949.948 956.979 963.842 965.007 977.647 973.187 C 982.713 976.167 997.762 985.261 1002.74 986.925 L 1005.18 987.095 C 1003.75 991.117 1005.53 993.726 1005.42 998.008 C 1006.6 1006.33 1006.13 1024.76 1006.08 1033.77 C 1005.8 1055.59 1005.74 1077.41 1005.91 1099.23 L 1002.26 1098.05 C 982.266 1089.1 960.098 1073.37 940.873 1062.42 L 831.64 1000.95 C 801.063 983.436 770.397 966.074 739.643 948.868 C 726.976 941.736 704.362 929.886 692.911 922.109 C 688.402 918.657 684.27 917.162 679.116 915.066 C 679.089 900.557 677.41 822.953 679.935 814.443 C 682.709 813.228 686.588 810.69 689.305 809.028 z"/>
<path transform="translate(0,0)" fill="rgb(132,139,146)" d="M 689.305 809.028 C 723.716 827.271 762.418 850.503 796.549 870.202 C 842.818 896.86 889.292 923.162 935.967 949.103 C 949.948 956.979 963.842 965.007 977.647 973.187 C 982.713 976.167 997.762 985.261 1002.74 986.925 L 1005.18 987.095 C 1003.75 991.117 1005.53 993.726 1005.42 998.008 L 1003.9 998.289 C 997.976 996.938 948.207 967.451 939.607 962.474 L 826.557 897.869 C 792.359 878.781 758.311 859.424 724.416 839.803 C 710.713 831.964 692.813 822.719 679.935 814.443 C 682.709 813.228 686.588 810.69 689.305 809.028 z"/>
<path transform="translate(0,0)" fill="rgb(52,57,59)" d="M 1005.42 998.008 C 1006.6 1006.33 1006.13 1024.76 1006.08 1033.77 C 1005.8 1055.59 1005.74 1077.41 1005.91 1099.23 L 1002.26 1098.05 C 1003.42 1082.28 1001.44 1005.84 1003.9 998.289 L 1005.42 998.008 z"/>
<path transform="translate(0,0)" fill="rgb(80,87,94)" d="M 950.704 990.889 C 951.615 991.186 954.153 992.113 955.149 992.202 C 960.481 992.04 970.69 998.932 974.081 1002.96 L 973.488 1003.28 C 978.491 1007.25 981.448 1009.53 982.247 1015.99 C 981.003 1019.81 980.927 1020.3 976.899 1022.01 C 976.878 1025.42 974.011 1026.96 972.178 1030.44 C 980.53 1035.58 983.144 1037.88 981.156 1048.1 C 981.2 1054.66 972.604 1058.17 966.962 1057.16 C 958.037 1055.57 964.16 1046.76 961.418 1041.39 C 960.029 1038.66 958.709 1041.87 955.836 1038.23 L 950.218 1034.19 L 946.844 1027.14 C 948.446 1022.46 948.874 1022.31 952.574 1018.78 C 949.555 1008.8 935.204 1009.34 938.653 997.282 L 940.076 996.496 C 942.646 997.734 944.185 998.848 947.126 997.93 C 948.088 995.678 949.547 993.099 950.704 990.889 z"/>
<path transform="translate(0,0)" fill="rgb(65,247,14)" d="M 952.574 1018.78 C 960.255 1022.81 966.317 1033.64 955.836 1038.23 L 950.218 1034.19 L 946.844 1027.14 C 948.446 1022.46 948.874 1022.31 952.574 1018.78 z"/>
<path transform="translate(0,0)" fill="rgb(253,223,20)" d="M 973.488 1003.28 C 978.491 1007.25 981.448 1009.53 982.247 1015.99 C 981.003 1019.81 980.927 1020.3 976.899 1022.01 C 968.266 1017.34 962.675 1010.24 973.488 1003.28 z"/>
<path transform="translate(0,0)" fill="rgb(65,247,14)" d="M 972.178 1030.44 C 980.53 1035.58 983.144 1037.88 981.156 1048.1 C 971.569 1052.06 964.136 1040.99 972.178 1030.44 z"/>
<path transform="translate(0,0)" fill="rgb(253,223,20)" d="M 950.704 990.889 C 951.615 991.186 954.153 992.113 955.149 992.202 C 959.662 996.892 963.326 1000.68 959.512 1007.36 C 956.185 1009.31 957.942 1008.92 954.032 1008.47 C 949.425 1005.58 948.623 1003.23 947.126 997.93 C 948.088 995.678 949.547 993.099 950.704 990.889 z"/>
<path transform="translate(0,0)" fill="rgb(52,57,59)" d="M 701.95 848.97 C 713.275 853.867 729.12 863.509 740.136 869.91 C 757.238 879.983 774.496 889.789 791.904 899.324 L 791.593 914.892 C 786.254 913.453 766.667 901.829 760.909 898.571 L 701.732 865.068 L 701.95 848.97 z"/>
<path transform="translate(0,0)" fill="rgb(52,57,59)" d="M 701.68 890.035 C 710.714 894.011 727.117 904.03 735.914 909.137 L 791.182 940.89 L 791.66 956.954 C 787.051 955.262 772.07 946.58 767.183 943.865 C 745.202 931.481 723.314 918.93 701.523 906.213 L 701.68 890.035 z"/>
<path transform="translate(0,0)" fill="rgb(253,223,20)" d="M 932.738 979.49 C 934.122 980.462 938.716 983.812 939.943 984.432 C 945.002 986.375 945.508 986.464 949.5 989.874 L 950.704 990.889 C 949.547 993.099 948.088 995.678 947.126 997.93 C 944.185 998.848 942.646 997.734 940.076 996.496 L 938.653 997.282 C 932.29 996.87 930.974 995.277 926.489 990.805 C 926.908 983.922 926.564 982.823 932.738 979.49 z"/>
<path transform="translate(0,0)" fill="rgb(56,62,54)" d="M 939.943 984.432 C 945.002 986.375 945.508 986.464 949.5 989.874 L 950.704 990.889 C 949.547 993.099 948.088 995.678 947.126 997.93 C 944.185 998.848 942.646 997.734 940.076 996.496 C 941.49 991.506 940.983 989.48 939.943 984.432 z"/>
<path transform="translate(0,0)" fill="rgb(52,57,59)" d="M 930.163 1024.15 C 932.815 1025.09 935.164 1025.89 937.879 1026.7 C 942.228 1027.8 942.625 1028.1 946.844 1027.14 L 950.218 1034.19 C 946.974 1037.94 948.831 1039.89 945.269 1044.31 C 940.922 1045.06 938.701 1042.41 935.716 1039.46 L 930.933 1036.78 C 930.949 1033.22 930.411 1027.84 930.163 1024.15 z"/>
<path transform="translate(0,0)" fill="rgb(80,87,94)" d="M 930.163 1024.15 C 932.815 1025.09 935.164 1025.89 937.879 1026.7 C 936.818 1031.45 935.977 1034.56 935.716 1039.46 L 930.933 1036.78 C 930.949 1033.22 930.411 1027.84 930.163 1024.15 z"/>
<path transform="translate(0,0)" fill="rgb(65,247,14)" d="M 807.98 938.426 C 817.186 938.213 821.64 949.123 817.133 957.409 C 807.14 955.588 800.987 947.639 807.98 938.426 z"/>
<path transform="translate(0,0)" fill="rgb(65,247,14)" d="M 876.967 976.771 C 886.066 980.007 890.498 988.422 884.901 997.099 C 875.05 992.898 869.23 986.886 876.967 976.771 z"/>
<path transform="translate(0,0)" fill="rgb(52,57,59)" d="M 916.974 968.625 C 922.694 971.684 928.309 974.716 932.738 979.49 C 926.564 982.823 926.908 983.922 926.489 990.805 C 923.851 989.38 919.764 985.795 917.267 983.773 C 917.046 978.871 917.06 973.566 916.974 968.625 z"/>
<path transform="translate(0,0)" fill="rgb(65,247,14)" d="M 852.701 964.461 C 863.75 965.316 866.528 974.302 862.398 983.464 C 851.854 982.242 848.523 973.656 852.701 964.461 z"/>
<path transform="translate(0,0)" fill="rgb(65,247,14)" d="M 830.558 951.377 C 840.656 952.751 844.834 961.298 839.995 970.421 C 829.974 968.477 826.761 960.531 830.558 951.377 z"/>
<path transform="translate(0,0)" fill="rgb(52,57,59)" d="M 917.02 1015.47 C 922.281 1018.42 925.626 1020.04 930.163 1024.15 C 930.411 1027.84 930.949 1033.22 930.933 1036.78 C 926.473 1034.45 921.923 1031.81 917.51 1029.35 L 917.02 1015.47 z"/>
<path transform="translate(0,0)" fill="rgb(52,57,59)" d="M 898.287 1003.89 C 903.591 1006.06 905.859 1007.73 910.532 1010.84 L 910.701 1024.73 L 898.927 1019.05 C 898.577 1014.12 898.475 1008.86 898.287 1003.89 z"/>
<path transform="translate(0,0)" fill="rgb(52,57,59)" d="M 898.469 959.473 C 902.456 961.258 906.524 963.925 910.293 966.216 C 910.631 970.73 910.705 975.788 910.877 980.356 C 906.208 977.101 903.949 976.087 898.921 973.738 C 898.922 969.002 898.663 964.209 898.469 959.473 z"/>
<path transform="translate(0,0)" fill="rgb(52,57,59)" d="M 917.592 993.026 C 930.061 997.876 929.963 1000.27 929.492 1012.69 C 925.995 1012.65 921.194 1008.38 918.144 1006.14 C 917.865 1001.9 917.768 997.301 917.592 993.026 z"/>
<path transform="translate(0,0)" fill="rgb(52,57,59)" d="M 898.36 982.201 C 902.405 983.723 906.089 986.068 909.852 988.237 L 910.851 1001.73 C 906.019 999.751 902.749 997.526 898.339 994.801 C 898.19 990.906 898.343 986.171 898.36 982.201 z"/>
<path transform="translate(0,0)" fill="rgb(132,139,146)" d="M 688.215 696.598 C 750.164 731.52 810.794 765.004 872.472 801.072 L 954.006 848.666 C 970.752 858.258 988.679 868.925 1006.23 876.664 L 1006.11 887.997 L 1003.43 887.605 C 999.757 884.958 986.333 878.478 981.201 875.562 L 918.942 839.865 C 839.604 793.335 759.678 747.817 679.183 703.32 C 683.113 700.82 684.708 699.656 688.215 696.598 z"/>
<path transform="translate(0,0)" fill="rgb(52,57,59)" d="M 1003.43 887.605 L 1006.11 887.997 C 1005.9 901.974 1007.61 979.654 1005.18 987.095 L 1002.74 986.925 C 1002.33 975.231 1001.61 894.473 1003.43 887.605 z"/>
<path transform="translate(0,0)" fill="rgb(52,57,59)" d="M 701.285 736.799 C 710.305 740.753 726.016 750.362 734.883 755.493 L 792.071 788.568 L 791.942 804.395 C 763.077 790.544 728.284 766.107 701.071 753.812 L 701.285 736.799 z"/>
<path transform="translate(0,0)" fill="rgb(52,57,59)" d="M 701.712 778.435 C 731.732 794.312 761.499 813.288 791.814 829.281 L 791.373 844.753 C 786.72 845.162 712.322 800.356 701.728 795.086 L 701.712 778.435 z"/>
<path transform="translate(0,0)" fill="rgb(52,57,59)" d="M 946.998 918.027 C 947.64 914.27 947.492 912.586 950.263 910.035 C 953.931 908.729 952.105 908.837 955.942 909.773 C 962.359 915.126 962.964 921.627 958.276 928.445 C 956.557 928.322 954.458 928.173 951.977 927.997 C 944.605 932.435 944.958 935.383 936.986 928.8 C 934.183 927.281 933.256 926.803 930.171 925.629 L 929.905 912.969 C 932.555 913.862 935.084 914.747 937.776 915.52 C 941.278 916.411 943.048 916.795 946.62 917.264 L 946.998 918.027 z"/>
<path transform="translate(0,0)" fill="rgb(65,247,14)" d="M 946.998 918.027 C 947.64 914.27 947.492 912.586 950.263 910.035 C 953.931 908.729 952.105 908.837 955.942 909.773 C 962.359 915.126 962.964 921.627 958.276 928.445 C 957.358 928.113 956.445 927.766 955.539 927.404 C 949.794 925.075 949.545 923.96 946.998 918.027 z"/>
<path transform="translate(0,0)" fill="rgb(80,87,94)" d="M 929.905 912.969 C 932.555 913.862 935.084 914.747 937.776 915.52 C 936.545 919.734 936.944 924.333 936.986 928.8 C 934.183 927.281 933.256 926.803 930.171 925.629 L 929.905 912.969 z"/>
<path transform="translate(0,0)" fill="rgb(253,223,20)" d="M 931.209 869.677 L 937.951 872.658 C 945.081 875.601 945.569 876.412 951.212 881.156 C 958.161 884.649 961.056 887.27 961.13 895.405 C 959.24 898.574 960.569 897.398 956.697 898.672 C 952.03 897.648 953.032 897.467 948.912 893.849 C 942.943 891.769 949.558 889.636 938.235 888.599 C 934.166 887.025 930.798 884.308 927.361 881.646 C 927.368 875.744 927.582 874.288 931.209 869.677 z"/>
<path transform="translate(0,0)" fill="rgb(253,223,20)" d="M 951.212 881.156 C 958.161 884.649 961.056 887.27 961.13 895.405 C 959.24 898.574 960.569 897.398 956.697 898.672 C 952.03 897.648 953.032 897.467 948.912 893.849 C 947.582 887.31 947.631 886.756 951.212 881.156 z"/>
<path transform="translate(0,0)" fill="rgb(56,62,54)" d="M 937.951 872.658 C 945.081 875.601 945.569 876.412 951.212 881.156 C 947.631 886.756 947.582 887.31 948.912 893.849 C 942.943 891.769 949.558 889.636 938.235 888.599 C 940.019 887.524 939.528 887.732 940.91 885.979 C 941.997 880.049 940.957 877.959 937.951 872.658 z"/>
<path transform="translate(0,0)" fill="rgb(65,247,14)" d="M 853.919 852.336 L 857.96 852.956 C 864.754 857.637 867.327 864.691 862.998 872.07 C 852.232 870.271 847.931 861.753 853.919 852.336 z"/>
<path transform="translate(0,0)" fill="rgb(52,57,59)" d="M 916.718 858.562 C 922.647 862.232 926.749 864.721 932.195 869.091 L 931.209 869.677 C 927.582 874.288 927.368 875.744 927.361 881.646 C 924.864 881.326 919.064 874.978 917.005 872.935 C 916.381 867.635 916.591 863.854 916.718 858.562 z"/>
<path transform="translate(0,0)" fill="rgb(65,247,14)" d="M 875.784 865.269 C 885.895 866.445 889.405 875.646 886.657 884.637 C 875.033 883.655 871.784 875.555 875.784 865.269 z"/>
<path transform="translate(0,0)" fill="rgb(65,247,14)" d="M 807.952 826.499 C 817.453 827.668 823.163 836.661 817.26 845.28 C 807.255 843.239 802.04 836.246 807.952 826.499 z"/>
<path transform="translate(0,0)" fill="rgb(65,247,14)" d="M 971.995 921.447 C 982.529 924.52 985.175 931.734 979.441 940.991 C 969.58 937.482 964.568 930.813 971.995 921.447 z"/>
<path transform="translate(0,0)" fill="rgb(253,223,20)" d="M 969.783 894.38 C 979.503 894.914 985.273 902.204 980.541 911.519 C 969.79 913.074 966.659 903.134 969.783 894.38 z"/>
<path transform="translate(0,0)" fill="rgb(65,247,14)" d="M 830.899 839.234 C 840.755 840.874 844.322 849.721 840.644 858.504 C 829.42 857.407 826.856 848.675 830.899 839.234 z"/>
<path transform="translate(0,0)" fill="rgb(52,57,59)" d="M 916.784 904.188 C 922.609 907.475 924.778 908.61 929.905 912.969 L 930.171 925.629 L 917.442 919.131 L 916.784 904.188 z"/>
<path transform="translate(0,0)" fill="rgb(52,57,59)" d="M 898.044 893.295 C 902.27 895.51 905.727 897.093 910.11 898.991 L 910.379 913.792 C 906.953 911.813 901.843 909.668 898.129 907.963 L 898.044 893.295 z"/>
<path transform="translate(0,0)" fill="rgb(52,57,59)" d="M 898.233 870.649 C 902.535 873.05 906.282 875.537 910.397 878.215 C 910.812 882.352 910.869 887.288 911.034 891.508 C 906.884 889.462 902.167 886.728 898.045 884.481 L 898.233 870.649 z"/>
<path transform="translate(0,0)" fill="rgb(52,57,59)" d="M 917.713 883.124 C 930.053 887.397 930.457 890.163 928.714 902.642 C 925.544 901.519 920.404 897.393 917.468 895.249 C 917.251 891.691 917.579 886.789 917.713 883.124 z"/>
<path transform="translate(0,0)" fill="rgb(52,57,59)" d="M 898.601 849.014 C 903.115 851.21 906.799 853.85 910.963 856.63 L 910.312 869.721 C 906.986 866.815 902.735 864.576 898.886 862.312 L 898.601 849.014 z"/>
<path transform="translate(0,0)" fill="rgb(176,184,189)" d="M 719.469 1090.79 C 730.231 1084.31 740.342 1078.25 750.75 1071.21 C 760.771 1076.8 770.845 1082.31 780.971 1087.71 C 794.091 1096.6 816.53 1108.66 830.809 1116.79 L 920.495 1167.85 L 960.832 1190.86 C 963.576 1192.43 976.116 1199.8 977.803 1200.38 C 983.881 1203.86 999.154 1213.03 1004.99 1215.04 C 1006.26 1219.08 1006.22 1249.3 1004.91 1252.53 C 1006.86 1256.77 1005.92 1270.4 1006.33 1276.05 L 1005.92 1281.42 C 1005.34 1311.88 1006.38 1342.75 1005.78 1372.24 L 1005.7 1375.5 C 983.971 1364.81 958.097 1348.13 936.279 1336.3 C 872.688 1301.81 809.928 1262.62 746.264 1228.55 C 742.512 1225.7 741.326 1224.91 737.111 1222.83 C 718.951 1213.52 698.506 1200.94 680.027 1190.9 C 679.589 1157.78 679.877 1124.02 679.83 1090.83 C 687.355 1087.22 693.371 1083.76 700.611 1079.55 L 708.228 1084.51 C 711.416 1086.27 716.562 1088.9 719.469 1090.79 z M 794.369 1200.69 C 819.477 1214.1 851.839 1235.71 875.706 1247.02 C 876.512 1239.14 876.368 1231.86 876.341 1223.98 C 871.089 1219.06 803.838 1181.09 795.02 1176.7 L 794.369 1200.69 z"/>
<path transform="translate(0,0)" fill="rgb(80,87,94)" d="M 719.469 1090.79 C 730.231 1084.31 740.342 1078.25 750.75 1071.21 C 760.771 1076.8 770.845 1082.31 780.971 1087.71 C 794.091 1096.6 816.53 1108.66 830.809 1116.79 L 920.495 1167.85 L 960.832 1190.86 C 963.576 1192.43 976.116 1199.8 977.803 1200.38 C 983.881 1203.86 999.154 1213.03 1004.99 1215.04 C 1006.26 1219.08 1006.22 1249.3 1004.91 1252.53 C 995.157 1247.92 980.699 1239.11 970.917 1233.5 L 908.406 1197.56 C 845.663 1161.55 782.683 1125.96 719.469 1090.79 z"/>
<path transform="translate(0,0)" fill="rgb(176,184,189)" d="M 700.611 1079.55 L 708.228 1084.51 C 711.416 1086.27 716.562 1088.9 719.469 1090.79 C 782.683 1125.96 845.663 1161.55 908.406 1197.56 L 970.917 1233.5 C 980.699 1239.11 995.157 1247.92 1004.91 1252.53 C 1006.86 1256.77 1005.92 1270.4 1006.33 1276.05 C 1000.04 1271.34 984.128 1262.88 976.69 1258.57 L 904.551 1217.62 C 830.138 1174.49 755.226 1132.22 679.83 1090.83 C 687.355 1087.22 693.371 1083.76 700.611 1079.55 z"/>
<path transform="translate(0,0)" fill="rgb(207,214,219)" d="M 679.83 1090.83 C 755.226 1132.22 830.138 1174.49 904.551 1217.62 L 976.69 1258.57 C 984.128 1262.88 1000.04 1271.34 1006.33 1276.05 L 1005.92 1281.42 C 994.173 1276.31 974.221 1264.1 962.39 1257.41 C 937.752 1243.17 913.045 1229.05 888.128 1215.31 C 881.758 1211.79 875.274 1205.88 868.72 1202.54 C 806.117 1170.62 746.169 1131.45 683.961 1099.08 C 684.025 1120.95 682.985 1169.96 685.145 1189.21 C 708.83 1201.41 732.416 1212.69 754.351 1227.88 C 769.385 1238.28 785.92 1246.6 801.708 1255.75 C 852.257 1285.08 904.022 1312.57 953.984 1342.84 C 968.619 1351.71 993.325 1361.42 1005.78 1372.24 L 1005.7 1375.5 C 983.971 1364.81 958.097 1348.13 936.279 1336.3 C 872.688 1301.81 809.928 1262.62 746.264 1228.55 C 742.512 1225.7 741.326 1224.91 737.111 1222.83 C 718.951 1213.52 698.506 1200.94 680.027 1190.9 C 679.589 1157.78 679.877 1124.02 679.83 1090.83 z"/>
<path transform="translate(0,0)" fill="rgb(56,62,54)" d="M 787.987 1166.38 C 795.268 1169.69 804.546 1175.63 811.888 1179.66 L 882.798 1219.4 C 882.143 1232.01 882.4 1243.93 882.57 1256.55 C 879.751 1257.27 854.884 1241.72 850.741 1239.31 C 830.073 1227.42 809.252 1215.79 788.285 1204.43 C 787.907 1192.02 788.044 1178.86 787.987 1166.38 z M 794.369 1200.69 C 819.477 1214.1 851.839 1235.71 875.706 1247.02 C 876.512 1239.14 876.368 1231.86 876.341 1223.98 C 871.089 1219.06 803.838 1181.09 795.02 1176.7 L 794.369 1200.69 z"/>
<path transform="translate(0,0)" fill="rgb(65,247,14)" fill-opacity="0.988235" d="M 795.02 1176.7 C 803.838 1181.09 871.089 1219.06 876.341 1223.98 C 876.368 1231.86 876.512 1239.14 875.706 1247.02 C 851.839 1235.71 819.477 1214.1 794.369 1200.69 L 795.02 1176.7 z"/>
<path transform="translate(0,0)" fill="rgb(52,57,59)" d="M 788.445 1213.25 C 795.387 1216.27 810.683 1225.11 817.774 1229.16 C 839.57 1241.59 861.016 1253.98 883 1266.15 L 882.473 1291.75 C 851.314 1274.02 819.997 1256.57 788.524 1239.41 C 788.318 1230.69 788.291 1221.97 788.445 1213.25 z"/>
<path transform="translate(0,0)" fill="rgb(253,223,20)" d="M 969.917 1277.47 C 982.626 1279.45 992.309 1295.06 981.138 1305.47 C 966.799 1303.62 961.297 1289.55 969.917 1277.47 z"/>
<path transform="translate(0,0)" fill="rgb(253,223,20)" d="M 971.993 1315.64 C 983.032 1320.95 991.818 1333.93 980.666 1344.13 C 967.287 1340.25 959.94 1326.09 971.993 1315.64 z"/>
<path transform="translate(0,0)" fill="rgb(52,57,59)" d="M 742.029 1142.52 C 746.614 1144.69 750.778 1147.07 755.196 1149.54 L 755.152 1166.04 C 750.757 1163.58 746.597 1161.79 742.021 1159.74 L 742.029 1142.52 z"/>
<path transform="translate(0,0)" fill="rgb(52,57,59)" d="M 701.385 1119.75 L 714.76 1127.22 L 714.234 1143.26 L 701.541 1136.89 C 701.327 1131.31 701.407 1125.37 701.385 1119.75 z"/>
<path transform="translate(0,0)" fill="rgb(52,57,59)" d="M 897.113 1231.25 C 900.358 1232.61 906.868 1236.48 910.207 1238.32 L 910.22 1255.41 C 905.776 1252.47 901.673 1250.23 897.036 1247.65 L 897.113 1231.25 z"/>
<path transform="translate(0,0)" fill="rgb(52,57,59)" d="M 742.074 1194.6 L 755.131 1202.86 L 754.908 1218.84 C 750.375 1216.9 746.688 1214.55 742.454 1212.05 C 742.059 1206.45 742.136 1200.25 742.074 1194.6 z"/>
<path transform="translate(0,0)" fill="rgb(52,57,59)" d="M 701.458 1146.41 C 705.236 1148.03 711.187 1151.6 714.951 1153.7 L 714.39 1169.58 L 701.391 1162.58 L 701.458 1146.41 z"/>
<path transform="translate(0,0)" fill="rgb(52,57,59)" d="M 897.821 1257.42 C 902.151 1259.9 906.586 1262.68 910.876 1265.26 C 910.481 1270.35 910.421 1276.11 910.249 1281.26 L 897.462 1274.06 C 897.147 1268.17 897.49 1263.3 897.821 1257.42 z"/>
<path transform="translate(0,0)" fill="rgb(52,57,59)" d="M 701.466 1172.34 C 704.927 1173.87 710.999 1177.4 714.541 1179.31 C 714.637 1184.09 714.308 1189.7 714.15 1194.54 C 711.379 1194.47 704.3 1190.26 701.31 1188.71 L 701.466 1172.34 z"/>
<path transform="translate(0,0)" fill="rgb(52,57,59)" d="M 939.003 1254.89 L 951.679 1261.55 L 951.718 1277.84 L 939.073 1272.11 L 939.003 1254.89 z"/>
<path transform="translate(0,0)" fill="rgb(52,57,59)" d="M 897.645 1283.37 L 910.221 1290.27 L 910.479 1307.33 C 906.919 1304.72 901.832 1302.48 897.787 1300.49 L 897.645 1283.37 z"/>
<path transform="translate(0,0)" fill="rgb(52,57,59)" d="M 722.623 1183.96 L 734.987 1191.06 L 734.763 1207.67 L 722.244 1200.74 L 722.623 1183.96 z"/>
<path transform="translate(0,0)" fill="rgb(52,57,59)" d="M 722.17 1158.16 L 734.772 1164.15 L 734.98 1180.87 C 730.511 1179 726.252 1176.29 722.052 1173.83 L 722.17 1158.16 z"/>
<path transform="translate(0,0)" fill="rgb(52,57,59)" d="M 918.085 1243.75 L 930.992 1250.38 L 930.889 1266.62 C 927.13 1264.8 921.776 1261.56 917.998 1259.43 L 918.085 1243.75 z"/>
<path transform="translate(0,0)" fill="rgb(52,57,59)" d="M 918.118 1269.67 C 922.128 1271.53 927.009 1274.48 930.938 1276.71 L 931.01 1292.59 C 926.965 1290.3 921.939 1287.89 917.736 1285.74 L 918.118 1269.67 z"/>
<path transform="translate(0,0)" fill="rgb(52,57,59)" d="M 741.965 1169.26 C 745.934 1171.04 751.08 1174.06 755.012 1176.21 L 755.032 1191.98 C 750.706 1190.41 746.367 1187.83 742.285 1185.61 L 741.965 1169.26 z"/>
<path transform="translate(0,0)" fill="rgb(52,57,59)" d="M 938.335 1307.19 C 942.553 1308.58 947.154 1311.39 951.117 1313.57 L 950.909 1329.81 C 946.839 1327.94 942.735 1325.76 938.734 1323.71 L 938.335 1307.19 z"/>
<path transform="translate(0,0)" fill="rgb(52,57,59)" d="M 918.225 1295.6 L 931.098 1302.52 L 930.588 1318.13 C 926.872 1316.54 922.06 1314.04 918.318 1312.23 L 918.225 1295.6 z"/>
<path transform="translate(0,0)" fill="rgb(52,57,59)" d="M 722.052 1131.56 C 726.143 1133.64 730.263 1135.84 734.338 1137.97 L 734.892 1154.5 L 722.447 1148.41 L 722.052 1131.56 z"/>
<path transform="translate(0,0)" fill="rgb(52,57,59)" d="M 939.139 1281.58 L 951.413 1287.27 C 951.096 1292.31 951.273 1298.77 951.267 1303.92 C 947.397 1302.2 942.71 1299.54 938.892 1297.52 L 939.139 1281.58 z"/>
<path transform="translate(0,0)" fill="rgb(52,57,59)" d="M 762.484 1207.33 L 775.132 1213.23 L 775.062 1229.21 C 770.796 1227.32 766.343 1225.03 762.126 1222.97 C 762.524 1217.94 762.438 1212.4 762.484 1207.33 z"/>
<path transform="translate(0,0)" fill="rgb(52,57,59)" d="M 762.236 1181.53 L 775.035 1187.14 L 774.934 1202.85 L 762.439 1196.96 L 762.236 1181.53 z"/>
<path transform="translate(0,0)" fill="rgb(52,57,59)" d="M 763.112 1154.68 C 767.266 1156.61 770.97 1158.54 775 1160.67 L 775.067 1176.89 L 763.092 1170.91 L 763.112 1154.68 z"/>
<path transform="translate(0,0)" fill="rgb(176,184,189)" d="M 746.264 1228.55 C 809.928 1262.62 872.688 1301.81 936.279 1336.3 C 958.097 1348.13 983.971 1364.81 1005.7 1375.5 C 1005.82 1382.83 1006.37 1395.15 1005.72 1402.07 C 1005.59 1408.04 1004.8 1422.24 1006.53 1427.12 L 1005.06 1431.22 C 1006.02 1443.96 1005.59 1461.43 1005.48 1474.5 C 1005.34 1492.25 1005.67 1511.04 1005.15 1528.72 L 1004.74 1530.18 C 999.061 1527.9 984.961 1519.31 979.105 1515.91 L 931.863 1488.7 L 768.151 1396.26 C 742.017 1381.78 709.842 1364.99 684.755 1349.49 C 682.023 1348.34 682.048 1348.54 680.227 1346.27 C 678.978 1328.48 680.366 1304.15 680.019 1285.86 C 679.847 1276.79 679.726 1249.1 680.854 1241.08 C 685.276 1239.92 696.653 1232.85 701.274 1230.13 C 705.316 1232.93 708.355 1235.47 713.023 1236.95 C 717.434 1238.01 718.57 1241.22 723.773 1243.36 L 746.264 1228.55 z"/>
<path transform="translate(0,0)" fill="rgb(80,87,94)" d="M 746.264 1228.55 C 809.928 1262.62 872.688 1301.81 936.279 1336.3 C 958.097 1348.13 983.971 1364.81 1005.7 1375.5 C 1005.82 1382.83 1006.37 1395.15 1005.72 1402.07 C 912.361 1350.08 817.552 1293.34 723.773 1243.36 L 746.264 1228.55 z"/>
<path transform="translate(0,0)" fill="rgb(176,184,189)" d="M 701.274 1230.13 C 705.316 1232.93 708.355 1235.47 713.023 1236.95 C 717.434 1238.01 718.57 1241.22 723.773 1243.36 C 817.552 1293.34 912.361 1350.08 1005.72 1402.07 C 1005.59 1408.04 1004.8 1422.24 1006.53 1427.12 C 1004.33 1422.09 951.942 1393.77 943.924 1389.2 L 828.828 1323.71 C 796.202 1305 763.443 1286.53 730.551 1268.29 C 714.546 1259.37 697.257 1248.83 680.854 1241.08 C 685.276 1239.92 696.653 1232.85 701.274 1230.13 z"/>
<path transform="translate(0,0)" fill="rgb(207,214,219)" d="M 680.854 1241.08 C 697.257 1248.83 714.546 1259.37 730.551 1268.29 C 763.443 1286.53 796.202 1305 828.828 1323.71 L 943.924 1389.2 C 951.942 1393.77 1004.33 1422.09 1006.53 1427.12 L 1005.06 1431.22 C 995.148 1427.21 977.851 1416.6 968.13 1410.93 C 949.828 1400.19 931.458 1389.57 913.021 1379.06 C 855.626 1345.88 797.904 1313.27 739.861 1281.24 C 721.378 1271.06 703.927 1260.78 685.099 1250.94 L 684.801 1344.78 C 682.503 1327.37 685.788 1297.11 683.058 1284 C 680.862 1288.79 680.488 1337.17 681.49 1344.28 C 683.211 1346.16 684.255 1346.9 684.755 1349.49 C 682.023 1348.34 682.048 1348.54 680.227 1346.27 C 678.978 1328.48 680.366 1304.15 680.019 1285.86 C 679.847 1276.79 679.726 1249.1 680.854 1241.08 z"/>
<path transform="translate(0,0)" fill="rgb(207,214,219)" d="M 768.151 1396.26 C 773.113 1395.21 773.888 1396.01 778.524 1398.24 C 808.659 1412.74 837.022 1431.67 866.258 1447.62 C 910.528 1471.77 954.676 1495.85 997.695 1522.28 C 1000.44 1523.96 1003.07 1526.25 1005.15 1528.72 L 1004.74 1530.18 C 999.061 1527.9 984.961 1519.31 979.105 1515.91 L 931.863 1488.7 L 768.151 1396.26 z"/>
<path transform="translate(0,0)" fill="rgb(56,62,54)" d="M 788.808 1322.27 C 820.334 1338.04 851.705 1358.3 883.019 1374.64 C 882.27 1387.36 883.202 1400.32 882.392 1413.08 C 851.313 1396.71 819.191 1375.77 788.263 1359.97 L 788.808 1322.27 z"/>
<path transform="translate(0,0)" fill="rgb(253,223,20)" d="M 794.184 1331.51 C 821.827 1345.6 849.073 1363.58 876.595 1377.52 C 876.793 1386.37 876.661 1393.68 876.266 1402.53 C 873.843 1402.55 804.056 1361.84 794.947 1357.17 C 794.23 1348.76 794.284 1339.97 794.184 1331.51 z"/>
<path transform="translate(0,0)" fill="rgb(52,57,59)" d="M 788.462 1369.25 C 795.03 1371.8 811.327 1381.35 818.185 1385.15 C 839.883 1397.19 861.101 1409.46 883.02 1421.23 C 883.055 1429.79 882.947 1437.33 882.528 1445.87 C 873.566 1444.43 803.511 1403.11 788.769 1394.96 L 788.462 1369.25 z"/>
<path transform="translate(0,0)" fill="rgb(253,223,20)" d="M 971.805 1431.67 C 983.398 1436.3 991.701 1450.08 980.355 1459.84 C 967.599 1456.12 958.574 1440.68 971.805 1431.67 z"/>
<path transform="translate(0,0)" fill="rgb(253,223,20)" d="M 968.626 1471.78 C 982.371 1471.96 991.292 1486.69 982.389 1497.99 C 968.431 1498.6 963.067 1483.33 968.626 1471.78 z"/>
<path transform="translate(0,0)" fill="rgb(52,57,59)" d="M 701.712 1302.94 C 705.305 1304.35 711.29 1307.89 714.87 1309.86 L 714.627 1326.12 L 701.326 1318.83 C 701.289 1313.61 701.547 1308.18 701.712 1302.94 z"/>
<path transform="translate(0,0)" fill="rgb(52,57,59)" d="M 722.169 1339.54 C 726.853 1342.24 730.753 1344.88 735.206 1347.89 L 734.961 1364.15 L 722.155 1356.96 L 722.169 1339.54 z"/>
<path transform="translate(0,0)" fill="rgb(52,57,59)" d="M 917.902 1449.46 L 931.133 1457.02 L 930.916 1472.86 C 927.177 1471.29 921.79 1468.42 918.003 1466.56 L 917.902 1449.46 z"/>
<path transform="translate(0,0)" fill="rgb(52,57,59)" d="M 701.348 1328.47 L 714.75 1335.51 C 714.768 1340.4 714.469 1345.7 714.289 1350.63 C 711.04 1350.49 704.531 1346.74 701.272 1345.1 L 701.348 1328.47 z"/>
<path transform="translate(0,0)" fill="rgb(52,57,59)" d="M 897.532 1412.25 C 901.702 1414.01 906.215 1416.74 910.21 1418.99 L 910.538 1435.63 C 907.012 1434.3 900.984 1430.57 897.502 1428.56 L 897.532 1412.25 z"/>
<path transform="translate(0,0)" fill="rgb(52,57,59)" d="M 917.899 1397.66 C 922.314 1400.5 926.735 1402.85 931.329 1405.38 L 930.939 1421.63 C 926.748 1419.21 922.162 1416.89 917.864 1414.62 L 917.899 1397.66 z"/>
<path transform="translate(0,0)" fill="rgb(52,57,59)" d="M 897.351 1386.71 L 910.213 1393.01 L 910.804 1410.26 C 905.896 1407.26 902.308 1405.43 897.184 1402.89 L 897.351 1386.71 z"/>
<path transform="translate(0,0)" fill="rgb(52,57,59)" d="M 722.162 1314.2 C 727.593 1316.43 730.098 1317.87 735.04 1320.76 L 735.044 1337.11 L 721.948 1330.22 L 722.162 1314.2 z"/>
<path transform="translate(0,0)" fill="rgb(52,57,59)" d="M 741.991 1325.37 C 746.335 1327.74 750.706 1330.07 755.104 1332.34 L 754.88 1348.75 C 750.186 1346.63 746.587 1344.33 742.205 1341.68 C 741.91 1336.95 742.031 1330.21 741.991 1325.37 z"/>
<path transform="translate(0,0)" fill="rgb(52,57,59)" d="M 742.049 1299.6 C 746.654 1301.54 750.885 1304.04 755.254 1306.47 L 754.924 1322.39 L 742.083 1315.99 L 742.049 1299.6 z"/>
<path transform="translate(0,0)" fill="rgb(52,57,59)" d="M 742.1 1352.2 C 746.17 1353.73 751.136 1356.38 755.124 1358.35 L 755.089 1374.92 L 742.43 1368.5 C 742.057 1363.63 742.164 1357.2 742.1 1352.2 z"/>
<path transform="translate(0,0)" fill="rgb(52,57,59)" d="M 722.279 1287.83 L 735.075 1294.8 L 734.997 1311.62 C 731.464 1309.32 726.085 1306.67 722.242 1304.64 C 722.161 1299.03 722.173 1293.43 722.279 1287.83 z"/>
<path transform="translate(0,0)" fill="rgb(52,57,59)" d="M 897.892 1438.56 C 902.08 1440.84 906.775 1443.72 910.94 1446.16 L 910.606 1462.05 C 906.172 1459.1 902.635 1457.43 897.913 1455.1 C 897.608 1449.49 897.786 1444.16 897.892 1438.56 z"/>
<path transform="translate(0,0)" fill="rgb(52,57,59)" d="M 938.595 1461.56 C 942.743 1463.55 946.897 1465.23 951.139 1467 L 950.999 1484.37 L 937.911 1477.13 C 938.39 1471.91 938.456 1466.8 938.595 1461.56 z"/>
<path transform="translate(0,0)" fill="rgb(52,57,59)" d="M 701.649 1277.11 C 705.415 1278.66 711.113 1282.06 714.84 1284.13 L 714.584 1299.77 C 710.334 1297.45 705.77 1295.22 701.435 1293.02 C 701.376 1287.46 701.34 1282.68 701.649 1277.11 z"/>
<path transform="translate(0,0)" fill="rgb(52,57,59)" d="M 762.224 1311.27 C 766.35 1312.95 771 1315.18 775.116 1317.04 L 775.215 1334 C 771.736 1332.43 766.462 1329.42 762.928 1327.56 C 762.868 1322.25 762.488 1316.61 762.224 1311.27 z"/>
<path transform="translate(0,0)" fill="rgb(52,57,59)" d="M 918.117 1424.29 C 921.681 1425.7 927.39 1429.27 930.893 1431.31 L 930.78 1447.3 L 918.221 1439.95 L 918.117 1424.29 z"/>
<path transform="translate(0,0)" fill="rgb(52,57,59)" d="M 762.786 1337.39 L 775.574 1343.94 L 775.422 1357.88 L 774.547 1358.7 C 769.663 1356.94 767.162 1355.49 762.65 1353.06 L 762.786 1337.39 z"/>
<path transform="translate(0,0)" fill="rgb(52,57,59)" d="M 762.827 1363.05 L 775.061 1368.24 C 775.102 1373.84 774.966 1379.68 774.908 1385.31 L 762.919 1379.4 L 762.827 1363.05 z"/>
<path transform="translate(0,0)" fill="rgb(52,57,59)" d="M 938.474 1410.16 C 942.681 1411.95 946.849 1413.98 950.988 1415.93 L 951.057 1432.72 L 938.797 1426.15 C 938.867 1421.02 938.602 1415.34 938.474 1410.16 z"/>
<path transform="translate(0,0)" fill="rgb(52,57,59)" d="M 938.662 1436.06 C 942.833 1437.49 947.29 1440.18 951.22 1442.33 L 951.071 1457.88 L 938.72 1451.76 C 938.805 1446.67 938.685 1441.19 938.662 1436.06 z"/>
<path transform="translate(0,0)" fill="rgb(91,99,108)" d="M 625.28 661.018 C 632.966 664.835 646.169 672.342 653.283 677.037 C 651.03 689.771 652.414 733.589 652.503 748.237 L 652.462 871.406 L 652.057 1175.72 L 652.071 1308.28 C 652.16 1335.91 653.222 1365.43 651.983 1392.82 C 744.945 1443.13 836.38 1498.15 928.356 1550.28 C 947.522 1561.15 966.423 1572.76 985.65 1583.53 C 989.144 1585.48 1002.2 1593.27 1005.07 1594.2 C 1005.19 1606.66 1006.19 1634.51 1005.05 1645.79 L 1004.77 1647.93 L 1003.52 1648.55 C 996.466 1646.2 978.399 1635.26 970.946 1631 L 908.591 1595.26 L 737.102 1497.07 C 708.287 1480.6 679.356 1464.18 650.653 1447.52 C 644.841 1444.15 628.215 1437.6 626.473 1432.06 L 627.888 1430.18 C 626.427 1429.99 627.309 1430.23 625.454 1428.91 C 623.722 1410.97 624.911 1367.3 624.903 1347.07 L 624.884 1180.93 L 625.28 661.018 z"/>
<path transform="translate(0,0)" fill="rgb(207,214,219)" d="M 627.888 1430.18 C 702.992 1470.12 784.379 1518.61 858.365 1561.36 L 952.088 1615.16 C 969.128 1624.9 988.578 1635.41 1005.05 1645.79 L 1004.77 1647.93 L 1003.52 1648.55 C 996.466 1646.2 978.399 1635.26 970.946 1631 L 908.591 1595.26 L 737.102 1497.07 C 708.287 1480.6 679.356 1464.18 650.653 1447.52 C 644.841 1444.15 628.215 1437.6 626.473 1432.06 L 627.888 1430.18 z"/>
<path transform="translate(0,0)" fill="rgb(132,139,146)" d="M 740.074 1064.61 C 741.442 1065.44 750.088 1070.93 750.75 1071.21 C 740.342 1078.25 730.231 1084.31 719.469 1090.79 C 716.562 1088.9 711.416 1086.27 708.228 1084.51 C 718.802 1077.62 729.448 1071.99 740.074 1064.61 z"/>
<path transform="translate(0,0)" fill="rgb(132,139,146)" d="M 737.111 1222.83 C 741.326 1224.91 742.512 1225.7 746.264 1228.55 L 723.773 1243.36 C 718.57 1241.22 717.434 1238.01 713.023 1236.95 C 717.075 1232.98 731.123 1226.19 737.111 1222.83 z"/>
</svg>