<svg version="1.1" xmlns="http://www.w3.org/2000/svg" style="display: block;" viewBox="0 0 2048 2048" width="1024" height="1024" preserveAspectRatio="none">
<defs>
	<linearGradient id="Gradient1" gradientUnits="userSpaceOnUse" x1="1621.28" y1="899.928" x2="1730.36" y2="876.723">
		<stop class="stop0" offset="0" stop-opacity="1" stop-color="rgb(105,107,108)"/>
		<stop class="stop1" offset="1" stop-opacity="1" stop-color="rgb(135,137,137)"/>
	</linearGradient>
</defs>
<path transform="translate(0,0)" fill="rgb(171,173,173)" d="M 1269.03 349.735 C 1273.7 347.925 1275.73 347.682 1280.48 349.902 C 1292.24 355.401 1304.57 362.427 1315.82 368.948 C 1329.05 376.613 1344.09 384.254 1356.58 392.691 C 1363.62 406.384 1363.35 421.36 1364.47 436.788 C 1383.62 446.865 1402.78 458.07 1421.85 468.513 L 1595.7 565.026 L 1713 631.432 C 1733.28 642.886 1754 653.657 1773.95 665.668 C 1790.13 675.403 1791.37 676.934 1791.31 695.548 C 1791 804.969 1791.22 914.395 1791.66 1023.82 C 1791.71 1037.41 1788.63 1042.36 1776.27 1048.42 C 1771.28 1050.92 1766.25 1054.04 1761.04 1056.28 L 1750.79 1062.16 C 1750.64 1073.75 1750.72 1085.34 1751.03 1096.93 C 1737.83 1104.67 1717.54 1114.9 1705.68 1123.19 C 1696.51 1118.4 1681.2 1110.52 1673.49 1104.43 C 1615.65 1138.16 1554.73 1171.38 1496.25 1204.61 L 1059.68 1451.43 C 999.473 1485.01 939.441 1518.92 879.589 1553.13 C 848.756 1570.62 817.842 1587.49 787.295 1605.57 C 783.244 1607.66 779.55 1609.7 775.289 1611.35 C 771.436 1610.38 767.097 1609.41 763.362 1608.17 C 761.653 1614.38 761.194 1616.44 755.833 1620.08 C 746.939 1626.1 736.554 1631.35 726.996 1636.23 L 717.874 1641.48 L 717.883 1675.38 C 703.063 1683.6 688.399 1692.1 673.899 1700.86 C 671.619 1701.09 632.495 1679.18 626.83 1676.45 C 626.587 1663.99 626.574 1651.53 626.792 1639.07 L 626.299 1637.8 C 615.368 1633.19 588.879 1617.98 577.766 1611.85 L 480.633 1557.84 L 408.206 1517.82 C 400.256 1513.44 377.388 1501.47 371.004 1496.6 C 360.477 1501.27 349.371 1507.46 339.117 1512.88 L 337.865 1513.57 C 333.838 1514.17 297.97 1493.38 292.404 1489.98 L 292.396 1452.98 C 281.728 1447.79 265.804 1441.28 258.55 1432.41 C 254.953 1428.02 254.806 1420.33 254.69 1414.54 C 254.196 1389.94 254.49 1365 254.561 1340.39 L 254.44 1221.46 L 254.398 1134.93 C 254.398 1118.94 253.734 1096.36 255.592 1080.98 C 258.754 1075.55 322.907 1039.59 333.188 1033.53 C 337.797 1030.95 340.024 1029.96 344.962 1028.05 C 341.952 982.724 343.194 932.971 342.662 887.261 C 342.62 883.599 346.066 880.602 348.791 878.562 C 359.739 871.033 375.625 862.544 387.359 855.679 C 414.817 839.442 442.463 823.525 470.292 807.933 L 690.347 681.583 C 723.909 662.207 762.015 641.866 794.348 621.434 C 796.88 620.384 801.085 620.844 804.745 620.321 C 807.777 618.668 808.526 615.515 809.997 612.151 C 819.466 605.865 834.02 598.955 844.132 592.883 C 867.209 579.025 892.105 566.086 915.157 552.602 L 1269.03 349.735 z"/>
<path transform="translate(0,0)" fill="rgb(206,207,208)" d="M 1371.17 698.575 C 1374.09 702.295 1374.69 703.624 1378.74 705.708 C 1385.19 702.576 1389.71 701.566 1396.53 700.165 C 1399.94 701.99 1416.05 710.819 1419 711.531 C 1425.69 716.253 1438.73 722.985 1446.36 727.201 L 1496.02 754.808 L 1568.16 795.822 C 1576.66 800.588 1594.66 811.204 1602.87 814.576 C 1606.45 818.098 1614.68 821.791 1618.71 824.422 C 1631.52 832.78 1678.27 854.561 1685.87 864.916 C 1694.7 883.709 1687.28 919.56 1690.13 939.436 C 1692.66 951.261 1694.03 951.551 1686.74 961.4 L 1686.03 962.365 C 1689.36 964.717 1693.84 967.678 1696.73 970.38 C 1697.35 988.714 1696.58 1008.36 1696.86 1026.44 C 1696.97 1033.02 1695.49 1079.07 1696.81 1081.01 L 1698.21 1081.67 L 1696.79 1085.16 L 1694.73 1085.79 C 1692.68 1101.01 1673.55 1101.65 1673.49 1104.43 C 1615.65 1138.16 1554.73 1171.38 1496.25 1204.61 L 1059.68 1451.43 C 999.473 1485.01 939.441 1518.92 879.589 1553.13 C 848.756 1570.62 817.842 1587.49 787.295 1605.57 C 783.244 1607.66 779.55 1609.7 775.289 1611.35 C 771.436 1610.38 767.097 1609.41 763.362 1608.17 C 764.402 1598.26 763.82 1575.16 763.825 1564.44 L 763.845 1479.1 C 770.703 1479.18 784.028 1477.75 786.89 1470.45 C 779.294 1473.21 775.471 1477.25 767.806 1475.61 C 767.269 1475.17 766.733 1474.74 766.196 1474.31 C 763.659 1455.98 766.391 1398.46 764.077 1383.91 C 764.584 1366.87 765.74 1274.23 762.549 1262.46 C 761.213 1257.54 755.127 1253.37 751.121 1250.64 C 735.074 1239.68 716.151 1230.85 699.097 1221.32 C 661.185 1200.09 623.151 1179.07 584.996 1158.27 C 582.477 1156.94 580.446 1156.21 578.753 1153.96 L 579.095 1151.91 C 580.956 1149.91 890.29 972.694 898.86 969.895 C 907.278 963.84 907.369 962.126 911.295 952.644 C 918.91 953.119 920.527 952.625 927.877 951.641 C 952.791 936.97 980.226 922.335 1005.7 907.71 L 1238.71 774.647 L 1332.43 721.25 C 1340.72 716.465 1364.97 703.349 1371.17 698.575 z"/>
<path transform="translate(0,0)" fill="rgb(206,207,208)" d="M 911.295 952.644 C 918.91 953.119 920.527 952.625 927.877 951.641 L 926.988 953.155 C 919.256 955.905 909.372 952.338 908.943 962.543 C 912.333 966.767 916.017 966.596 921.611 967.387 C 925.701 963.661 924.501 962.214 928.389 960.605 L 929.348 961.387 C 931.297 965.022 991.686 997.385 999.827 1001.96 L 1147.22 1085.1 C 1165.3 1095.27 1202.26 1114.74 1218.37 1126.29 C 1220.14 1128.64 1223.37 1132.95 1223.89 1135.77 C 1228.55 1161.09 1224.6 1191.49 1226.06 1217.88 C 1232.21 1217.07 1235.07 1215.7 1240.73 1213.45 C 1234.04 1221.3 1226.67 1220.36 1217.39 1218.05 C 1215.6 1223.85 1211.48 1232.34 1205.07 1234.02 L 1204.48 1233.36 C 1111.76 1284.45 1018.04 1339.16 925.615 1391.32 L 831.501 1444.53 C 822.215 1449.79 794.398 1464.79 786.89 1470.45 C 779.294 1473.21 775.471 1477.25 767.806 1475.61 C 767.269 1475.17 766.733 1474.74 766.196 1474.31 C 763.659 1455.98 766.391 1398.46 764.077 1383.91 C 764.584 1366.87 765.74 1274.23 762.549 1262.46 C 761.213 1257.54 755.127 1253.37 751.121 1250.64 C 735.074 1239.68 716.151 1230.85 699.097 1221.32 C 661.185 1200.09 623.151 1179.07 584.996 1158.27 C 582.477 1156.94 580.446 1156.21 578.753 1153.96 L 579.095 1151.91 C 580.956 1149.91 890.29 972.694 898.86 969.895 C 907.278 963.84 907.369 962.126 911.295 952.644 z"/>
<path transform="translate(0,0)" fill="rgb(171,173,173)" d="M 1210.92 1134.27 C 1219.18 1154.62 1214.03 1187.34 1214.97 1209.6 C 1215.43 1220.38 1213.07 1226.69 1204.48 1233.36 C 1111.76 1284.45 1018.04 1339.16 925.615 1391.32 L 831.501 1444.53 C 822.215 1449.79 794.398 1464.79 786.89 1470.45 C 779.294 1473.21 775.471 1477.25 767.806 1475.61 C 767.269 1475.17 766.733 1474.74 766.196 1474.31 C 763.659 1455.98 766.391 1398.46 764.077 1383.91 C 765.244 1386.73 764.255 1385.79 766.58 1387.23 C 782.345 1385.33 836.609 1352.04 853.645 1342.36 L 969.932 1276.5 C 1019.62 1248.74 1069.12 1220.66 1118.44 1192.27 C 1141.42 1179.13 1194.67 1152.57 1210.92 1134.27 z"/>
<path transform="translate(0,0)" fill="rgb(127,129,130)" d="M 911.295 952.644 C 918.91 953.119 920.527 952.625 927.877 951.641 L 926.988 953.155 C 919.256 955.905 909.372 952.338 908.943 962.543 C 912.333 966.767 916.017 966.596 921.611 967.387 C 925.701 963.661 924.501 962.214 928.389 960.605 L 929.348 961.387 C 931.297 965.022 991.686 997.385 999.827 1001.96 L 1147.22 1085.1 C 1165.3 1095.27 1202.26 1114.74 1218.37 1126.29 C 1220.14 1128.64 1223.37 1132.95 1223.89 1135.77 C 1228.55 1161.09 1224.6 1191.49 1226.06 1217.88 C 1232.21 1217.07 1235.07 1215.7 1240.73 1213.45 C 1234.04 1221.3 1226.67 1220.36 1217.39 1218.05 C 1215.6 1223.85 1211.48 1232.34 1205.07 1234.02 L 1204.48 1233.36 C 1213.07 1226.69 1215.43 1220.38 1214.97 1209.6 C 1214.03 1187.34 1219.18 1154.62 1210.92 1134.27 C 1204.23 1125.23 1148.79 1096.34 1134.59 1088.35 L 1010.14 1018.38 C 990.213 1007.23 967.403 995.406 948.05 983.824 C 945.368 983.047 941.17 980.121 938.656 978.54 C 930.977 975.948 926.249 971.317 916.752 971.209 C 914.485 970.065 913.402 969.466 911.283 968.076 C 907.015 968.485 902.944 968.648 898.86 969.895 C 907.278 963.84 907.369 962.126 911.295 952.644 z"/>
<path transform="translate(0,0)" fill="rgb(82,84,85)" d="M 948.05 983.824 C 961.994 983.455 1173.28 1111.21 1198.52 1121.61 C 1201.07 1122.66 1208.92 1127.8 1211.05 1129.93 C 1221.13 1142.1 1217.14 1160.87 1217.65 1175.65 C 1218.08 1188.46 1215.59 1203.54 1218.72 1216.01 C 1218.98 1217.03 1224.95 1217.77 1226.06 1217.88 C 1232.21 1217.07 1235.07 1215.7 1240.73 1213.45 C 1234.04 1221.3 1226.67 1220.36 1217.39 1218.05 C 1215.6 1223.85 1211.48 1232.34 1205.07 1234.02 L 1204.48 1233.36 C 1213.07 1226.69 1215.43 1220.38 1214.97 1209.6 C 1214.03 1187.34 1219.18 1154.62 1210.92 1134.27 C 1204.23 1125.23 1148.79 1096.34 1134.59 1088.35 L 1010.14 1018.38 C 990.213 1007.23 967.403 995.406 948.05 983.824 z"/>
<path transform="translate(0,0)" fill="rgb(82,84,85)" d="M 911.283 968.076 C 917.443 965.122 932.934 973.877 938.338 977.158 L 938.656 978.54 C 930.977 975.948 926.249 971.317 916.752 971.209 C 914.485 970.065 913.402 969.466 911.283 968.076 z"/>
<path transform="translate(0,0)" fill="rgb(171,173,173)" d="M 911.283 968.076 C 913.402 969.466 914.485 970.065 916.752 971.209 C 895.832 979.755 882.251 988.354 862.755 999.52 L 791.621 1040.4 L 644.757 1123.83 C 625.446 1134.94 603.729 1146.77 584.996 1158.27 C 582.477 1156.94 580.446 1156.21 578.753 1153.96 L 579.095 1151.91 C 580.956 1149.91 890.29 972.694 898.86 969.895 C 902.944 968.648 907.015 968.485 911.283 968.076 z"/>
<path transform="translate(0,0)" fill="rgb(171,173,173)" d="M 1690.13 939.436 C 1692.66 951.261 1694.03 951.551 1686.74 961.4 L 1686.03 962.365 C 1689.36 964.717 1693.84 967.678 1696.73 970.38 C 1697.35 988.714 1696.58 1008.36 1696.86 1026.44 C 1696.97 1033.02 1695.49 1079.07 1696.81 1081.01 L 1698.21 1081.67 L 1696.79 1085.16 L 1694.73 1085.79 C 1692.68 1101.01 1673.55 1101.65 1673.49 1104.43 C 1615.65 1138.16 1554.73 1171.38 1496.25 1204.61 L 1059.68 1451.43 C 999.473 1485.01 939.441 1518.92 879.589 1553.13 C 848.756 1570.62 817.842 1587.49 787.295 1605.57 C 783.244 1607.66 779.55 1609.7 775.289 1611.35 C 771.436 1610.38 767.097 1609.41 763.362 1608.17 C 764.402 1598.26 763.82 1575.16 763.825 1564.44 L 763.845 1479.1 C 770.703 1479.18 784.028 1477.75 786.89 1470.45 C 794.398 1464.79 822.215 1449.79 831.501 1444.53 L 925.615 1391.32 C 1018.04 1339.16 1111.76 1284.45 1204.48 1233.36 L 1205.07 1234.02 C 1211.48 1232.34 1215.6 1223.85 1217.39 1218.05 C 1226.67 1220.36 1234.04 1221.3 1240.73 1213.45 C 1243.07 1211.11 1266.44 1198.42 1270.8 1195.98 L 1332.93 1160.77 L 1680.43 963.588 C 1690.69 955.8 1689.99 951.563 1690.13 939.436 z"/>
<path transform="translate(0,0)" fill="rgb(127,129,130)" d="M 1240.73 1213.45 C 1243.07 1211.11 1266.44 1198.42 1270.8 1195.98 L 1332.93 1160.77 L 1680.43 963.588 C 1687.04 963.995 1688.33 966.101 1693.71 970.597 C 1684.78 974.119 1673.6 980.755 1665.21 985.636 C 1636.76 1002.18 1607.96 1018 1579.34 1034.25 L 1330.31 1175.54 L 910.858 1412.48 L 825.251 1461.26 C 812.894 1468.26 782.328 1484.05 773.106 1492.92 C 772.72 1504.26 770.719 1602.58 773.556 1607.56 C 777.019 1608.42 781.613 1605.89 784.853 1604.32 L 787.295 1605.57 C 783.244 1607.66 779.55 1609.7 775.289 1611.35 C 771.436 1610.38 767.097 1609.41 763.362 1608.17 C 764.402 1598.26 763.82 1575.16 763.825 1564.44 L 763.845 1479.1 C 770.703 1479.18 784.028 1477.75 786.89 1470.45 C 794.398 1464.79 822.215 1449.79 831.501 1444.53 L 925.615 1391.32 C 1018.04 1339.16 1111.76 1284.45 1204.48 1233.36 L 1205.07 1234.02 C 1211.48 1232.34 1215.6 1223.85 1217.39 1218.05 C 1226.67 1220.36 1234.04 1221.3 1240.73 1213.45 z"/>
<path transform="translate(0,0)" fill="rgb(82,84,85)" d="M 1690.13 939.436 C 1692.66 951.261 1694.03 951.551 1686.74 961.4 L 1686.03 962.365 C 1689.36 964.717 1693.84 967.678 1696.73 970.38 C 1697.35 988.714 1696.58 1008.36 1696.86 1026.44 C 1696.97 1033.02 1695.49 1079.07 1696.81 1081.01 L 1698.21 1081.67 L 1696.79 1085.16 L 1694.73 1085.79 C 1692.68 1101.01 1673.55 1101.65 1673.49 1104.43 C 1615.65 1138.16 1554.73 1171.38 1496.25 1204.61 L 1059.68 1451.43 C 999.473 1485.01 939.441 1518.92 879.589 1553.13 C 848.756 1570.62 817.842 1587.49 787.295 1605.57 L 784.853 1604.32 C 803.097 1592.51 834.721 1575.9 854.484 1564.72 L 1001.27 1481.83 L 1508.68 1194.47 L 1639.9 1120.21 C 1651.87 1113.34 1684.62 1095.86 1693.14 1088.18 C 1694.64 1071.35 1693.72 1043.82 1694.16 1026.22 C 1694.47 1013.82 1695.09 981.196 1693.71 970.597 C 1688.33 966.101 1687.04 963.995 1680.43 963.588 C 1690.69 955.8 1689.99 951.563 1690.13 939.436 z"/>
<path transform="translate(0,0)" fill="rgb(171,173,173)" d="M 1685.87 864.916 C 1694.7 883.709 1687.28 919.56 1690.13 939.436 C 1689.99 951.563 1690.69 955.8 1680.43 963.588 L 1332.93 1160.77 L 1270.8 1195.98 C 1266.44 1198.42 1243.07 1211.11 1240.73 1213.45 C 1235.07 1215.7 1232.21 1217.07 1226.06 1217.88 C 1224.6 1191.49 1228.55 1161.09 1223.89 1135.77 C 1223.37 1132.95 1220.14 1128.64 1218.37 1126.29 C 1243.46 1124.9 1297.05 1090.64 1320.64 1077.21 L 1443.05 1007.55 L 1586.58 925.972 C 1614.68 910.056 1643.19 894.201 1670.96 877.705 C 1677.47 873.837 1681.27 870.996 1685.87 864.916 z"/>
<path transform="translate(0,0)" fill="rgb(171,173,173)" d="M 1371.17 698.575 C 1374.09 702.295 1374.69 703.624 1378.74 705.708 C 1331.88 731.539 1285.52 758.692 1238.98 785.183 L 1058.74 887.24 C 1029.62 903.864 1000.41 920.341 971.123 936.672 C 962.197 941.707 936.65 955.388 929.348 961.387 L 928.389 960.605 C 924.501 962.214 925.701 963.661 921.611 967.387 C 916.017 966.596 912.333 966.767 908.943 962.543 C 909.372 952.338 919.256 955.905 926.988 953.155 L 927.877 951.641 C 952.791 936.97 980.226 922.335 1005.7 907.71 L 1238.71 774.647 L 1332.43 721.25 C 1340.72 716.465 1364.97 703.349 1371.17 698.575 z"/>
<path transform="translate(0,0)" fill="rgb(127,129,130)" d="M 344.962 1028.05 C 353.779 1029.83 358.317 1032.02 365.854 1036.98 C 366.174 1037.74 366.73 1038.89 366.894 1039.63 C 369.498 1041.59 376.989 1046 380.005 1047.25 L 613.564 1176.92 L 708.033 1229.46 C 721.34 1236.89 742.044 1247.39 754.219 1255.36 C 757.461 1258.65 760.22 1261.69 760.549 1266.5 C 761.415 1279.13 761.198 1292.46 761.206 1305.09 L 761.214 1373.4 L 761.025 1601.01 C 761.025 1604.56 760.971 1608.11 760.861 1611.66 C 751.653 1621.69 737.953 1627.19 726.117 1634.33 L 726.996 1636.23 L 717.874 1641.48 L 717.883 1675.38 C 703.063 1683.6 688.399 1692.1 673.899 1700.86 C 671.619 1701.09 632.495 1679.18 626.83 1676.45 C 626.587 1663.99 626.574 1651.53 626.792 1639.07 L 626.299 1637.8 C 615.368 1633.19 588.879 1617.98 577.766 1611.85 L 480.633 1557.84 L 408.206 1517.82 C 400.256 1513.44 377.388 1501.47 371.004 1496.6 C 360.477 1501.27 349.371 1507.46 339.117 1512.88 L 337.865 1513.57 C 333.838 1514.17 297.97 1493.38 292.404 1489.98 L 292.396 1452.98 C 281.728 1447.79 265.804 1441.28 258.55 1432.41 C 254.953 1428.02 254.806 1420.33 254.69 1414.54 C 254.196 1389.94 254.49 1365 254.561 1340.39 L 254.44 1221.46 L 254.398 1134.93 C 254.398 1118.94 253.734 1096.36 255.592 1080.98 C 258.754 1075.55 322.907 1039.59 333.188 1033.53 C 337.797 1030.95 340.024 1029.96 344.962 1028.05 z"/>
<path transform="translate(0,0)" fill="rgb(206,207,208)" d="M 344.962 1028.05 C 353.779 1029.83 358.317 1032.02 365.854 1036.98 C 366.174 1037.74 366.73 1038.89 366.894 1039.63 C 369.498 1041.59 376.989 1046 380.005 1047.25 L 613.564 1176.92 L 708.033 1229.46 C 721.34 1236.89 742.044 1247.39 754.219 1255.36 C 726.075 1272.52 696.842 1288.07 668.798 1304.94 C 655.844 1296.55 639.32 1287.72 625.609 1279.97 L 544.552 1234.44 L 262.625 1078.14 C 284.232 1063.01 314.366 1049.39 336.04 1034.49 L 333.188 1033.53 C 337.797 1030.95 340.024 1029.96 344.962 1028.05 z"/>
<path transform="translate(0,0)" fill="rgb(55,55,56)" d="M 344.962 1028.05 C 353.779 1029.83 358.317 1032.02 365.854 1036.98 C 366.174 1037.74 366.73 1038.89 366.894 1039.63 C 353.634 1032.47 350.473 1028.01 336.04 1034.49 L 333.188 1033.53 C 337.797 1030.95 340.024 1029.96 344.962 1028.05 z"/>
<path transform="translate(0,0)" fill="rgb(171,173,173)" d="M 754.219 1255.36 C 757.461 1258.65 760.22 1261.69 760.549 1266.5 C 761.415 1279.13 761.198 1292.46 761.206 1305.09 L 761.214 1373.4 L 761.025 1601.01 C 761.025 1604.56 760.971 1608.11 760.861 1611.66 C 751.653 1621.69 737.953 1627.19 726.117 1634.33 L 726.996 1636.23 L 717.874 1641.48 L 717.883 1675.38 C 703.063 1683.6 688.399 1692.1 673.899 1700.86 C 671.619 1701.09 632.495 1679.18 626.83 1676.45 C 626.587 1663.99 626.574 1651.53 626.792 1639.07 L 626.299 1637.8 C 634.553 1638.22 657.964 1650.36 664.824 1655.25 C 668.083 1656.83 672.117 1658.64 675.218 1660.37 C 673.096 1649.01 673.949 1601.42 673.959 1587.65 L 674.053 1399.37 L 674.195 1347.67 C 674.232 1333.7 676.526 1316.74 668.798 1304.94 C 696.842 1288.07 726.075 1272.52 754.219 1255.36 z"/>
<path transform="translate(0,0)" fill="rgb(55,55,56)" d="M 626.299 1637.8 C 634.553 1638.22 657.964 1650.36 664.824 1655.25 L 666.698 1660.39 C 669.528 1661.59 672.319 1662.02 672.781 1665.11 C 674.381 1675.82 673.71 1690.12 673.899 1700.86 C 671.619 1701.09 632.495 1679.18 626.83 1676.45 C 626.587 1663.99 626.574 1651.53 626.792 1639.07 L 626.299 1637.8 z"/>
<path transform="translate(0,0)" fill="rgb(82,84,85)" d="M 626.299 1637.8 C 634.553 1638.22 657.964 1650.36 664.824 1655.25 L 666.698 1660.39 C 654.1 1654.16 638.317 1646.65 626.792 1639.07 L 626.299 1637.8 z"/>
<path transform="translate(0,0)" fill="rgb(106,107,108)" d="M 675.218 1660.37 C 683.931 1658.81 713.181 1640.21 726.117 1634.33 L 726.996 1636.23 L 717.874 1641.48 L 717.883 1675.38 C 703.063 1683.6 688.399 1692.1 673.899 1700.86 C 673.71 1690.12 674.381 1675.82 672.781 1665.11 C 672.319 1662.02 669.528 1661.59 666.698 1660.39 L 664.824 1655.25 C 668.083 1656.83 672.117 1658.64 675.218 1660.37 z"/>
<path transform="translate(0,0)" fill="rgb(55,55,56)" d="M 292.396 1452.98 L 294.336 1452.77 C 302.873 1462.51 326.08 1470.93 337.175 1479.02 C 337.523 1485.28 337.951 1508.45 339.117 1512.88 L 337.865 1513.57 C 333.838 1514.17 297.97 1493.38 292.404 1489.98 L 292.396 1452.98 z"/>
<path transform="translate(0,0)" fill="rgb(82,84,85)" d="M 337.175 1479.02 L 338.776 1479.77 C 348.323 1484.33 357.259 1493.05 368.913 1493.46 C 369.642 1494.47 370.518 1495.51 371.004 1496.6 C 360.477 1501.27 349.371 1507.46 339.117 1512.88 C 337.951 1508.45 337.523 1485.28 337.175 1479.02 z"/>
<path transform="translate(0,0)" fill="rgb(106,107,108)" d="M 294.336 1452.77 C 303.102 1453.63 362.084 1487.53 368.913 1493.46 C 357.259 1493.05 348.323 1484.33 338.776 1479.77 L 337.175 1479.02 C 326.08 1470.93 302.873 1462.51 294.336 1452.77 z"/>
<path transform="translate(0,0)" fill="rgb(171,173,173)" d="M 794.348 621.434 C 802.067 624.022 816.527 631.663 819.893 632.621 C 833.866 640.596 873.463 660.942 882.962 670.239 L 883.685 670.936 C 885.179 674.326 886.199 677.303 886.545 681.021 C 889.974 717.819 892.465 754.78 895.535 791.64 C 899.664 841.218 904.175 890.894 907.299 940.531 C 907.636 945.89 907.26 956.205 905.542 961.363 C 905.074 962.767 897.291 967.528 895.628 968.475 C 822.03 1010.36 748.625 1052.75 674.875 1094.38 L 607.283 1133.12 C 597.965 1138.49 582.993 1147.73 573.826 1152.22 C 532.422 1128.76 486.604 1104.83 446.164 1080.88 C 439.351 1078.45 434.593 1074.56 428.565 1071.55 C 414.38 1064.47 396.317 1052.32 382.158 1046.36 L 380.005 1047.25 C 376.989 1046 369.498 1041.59 366.894 1039.63 C 366.73 1038.89 366.174 1037.74 365.854 1036.98 C 358.317 1032.02 353.779 1029.83 344.962 1028.05 C 341.952 982.724 343.194 932.971 342.662 887.261 C 342.62 883.599 346.066 880.602 348.791 878.562 C 359.739 871.033 375.625 862.544 387.359 855.679 C 414.817 839.442 442.463 823.525 470.292 807.933 L 690.347 681.583 C 723.909 662.207 762.015 641.866 794.348 621.434 z"/>
<path transform="translate(0,0)" fill="rgb(206,207,208)" d="M 794.348 621.434 C 802.067 624.022 816.527 631.663 819.893 632.621 C 833.866 640.596 873.463 660.942 882.962 670.239 L 883.685 670.936 C 862.851 677.693 829.966 698.013 809.775 709.46 L 688.4 778.78 L 527.739 870.232 C 500.158 885.899 472.244 901.868 444.69 917.647 C 440.767 919.893 435.816 926.021 433.651 930.015 C 426.442 918.886 409.268 911.537 397.528 905.13 L 348.791 878.562 C 359.739 871.033 375.625 862.544 387.359 855.679 C 414.817 839.442 442.463 823.525 470.292 807.933 L 690.347 681.583 C 723.909 662.207 762.015 641.866 794.348 621.434 z"/>
<path transform="translate(0,0)" fill="rgb(127,129,130)" d="M 344.962 1028.05 C 341.952 982.724 343.194 932.971 342.662 887.261 C 342.62 883.599 346.066 880.602 348.791 878.562 L 397.528 905.13 C 409.268 911.537 426.442 918.886 433.651 930.015 C 436.354 956.739 437.659 985.801 440.044 1013 C 441.84 1033.49 445.286 1061.12 446.164 1080.88 C 439.351 1078.45 434.593 1074.56 428.565 1071.55 C 414.38 1064.47 396.317 1052.32 382.158 1046.36 L 380.005 1047.25 C 376.989 1046 369.498 1041.59 366.894 1039.63 C 366.73 1038.89 366.174 1037.74 365.854 1036.98 C 358.317 1032.02 353.779 1029.83 344.962 1028.05 z"/>
<path transform="translate(0,0)" fill="rgb(206,207,208)" d="M 1269.03 349.735 C 1272.32 350.376 1279.18 351.755 1281.77 353.241 C 1297.24 362.113 1347.2 387.076 1357.03 398.038 C 1334.46 406.261 1294.35 430.883 1271.78 443.867 L 1134.68 522.561 L 975.782 612.737 C 953.633 625.435 931.057 638.022 909.08 651.06 C 902.762 654.808 900.028 658.684 896.163 664.606 C 894.571 661.855 892.108 657.905 889.485 656.234 C 874.824 646.892 823.644 616.002 809.997 612.151 C 819.466 605.865 834.02 598.955 844.132 592.883 C 867.209 579.025 892.105 566.086 915.157 552.602 L 1269.03 349.735 z"/>
<path transform="translate(0,0)" fill="rgb(171,173,173)" d="M 1781.81 672.908 C 1785.17 675.674 1788.33 679.006 1788.59 683.598 C 1789.37 697.446 1789.11 712.253 1789.11 726.104 L 1789.06 809.905 L 1789.16 949.981 C 1789.18 974.376 1789.32 998.963 1788.98 1023.35 C 1788.92 1027.86 1788.77 1035.25 1785.75 1038.45 C 1780.01 1044.49 1768.18 1049.83 1760.67 1053.81 L 1761.04 1056.28 L 1750.79 1062.16 C 1750.64 1073.75 1750.72 1085.34 1751.03 1096.93 C 1737.83 1104.67 1717.54 1114.9 1705.68 1123.19 C 1696.51 1118.4 1681.2 1110.52 1673.49 1104.43 C 1673.55 1101.65 1692.68 1101.01 1694.73 1085.79 L 1696.79 1085.16 L 1698.21 1081.67 L 1696.81 1081.01 C 1695.49 1079.07 1696.97 1033.02 1696.86 1026.44 C 1696.58 1008.36 1697.35 988.714 1696.73 970.38 C 1693.84 967.678 1689.36 964.717 1686.03 962.365 L 1686.74 961.4 C 1694.03 951.551 1692.66 951.261 1690.13 939.436 C 1687.28 919.56 1694.7 883.709 1685.87 864.916 C 1678.27 854.561 1631.52 832.78 1618.71 824.422 C 1614.68 821.791 1606.45 818.098 1602.87 814.576 L 1604.05 813.743 C 1620.07 821.446 1637.95 832.823 1653.01 839.781 C 1652.06 835.261 1654.06 806.78 1654.35 800.15 C 1655.07 785.269 1655.27 770.368 1654.96 755.473 C 1654.71 743.76 1654.19 732.272 1653.5 720.579 C 1653.1 713.818 1650.11 702.268 1651.2 696.207 C 1660.74 700.973 1688.72 716.719 1696.41 723.082 C 1707.28 716.158 1777.58 677.984 1781.81 672.908 z"/>
<path transform="translate(0,0)" fill="url(#Gradient1)" d="M 1651.2 696.207 C 1660.74 700.973 1688.72 716.719 1696.41 723.082 C 1698.27 725.849 1701.87 730.684 1701.92 733.602 C 1702.22 752.839 1702.03 773.135 1701.99 792.266 L 1701.85 919.706 L 1701.34 1027.43 C 1701.37 1037.05 1702.88 1073.13 1701.01 1080.65 L 1698.21 1081.67 L 1696.81 1081.01 C 1695.49 1079.07 1696.97 1033.02 1696.86 1026.44 C 1696.58 1008.36 1697.35 988.714 1696.73 970.38 C 1693.84 967.678 1689.36 964.717 1686.03 962.365 L 1686.74 961.4 C 1694.03 951.551 1692.66 951.261 1690.13 939.436 C 1687.28 919.56 1694.7 883.709 1685.87 864.916 C 1678.27 854.561 1631.52 832.78 1618.71 824.422 C 1614.68 821.791 1606.45 818.098 1602.87 814.576 L 1604.05 813.743 C 1620.07 821.446 1637.95 832.823 1653.01 839.781 C 1652.06 835.261 1654.06 806.78 1654.35 800.15 C 1655.07 785.269 1655.27 770.368 1654.96 755.473 C 1654.71 743.76 1654.19 732.272 1653.5 720.579 C 1653.1 713.818 1650.11 702.268 1651.2 696.207 z"/>
<path transform="translate(0,0)" fill="rgb(106,107,108)" d="M 1701.01 1080.65 C 1701.9 1081.24 1702.78 1081.89 1703.77 1082.31 C 1708.31 1084.23 1752.76 1057.6 1760.67 1053.81 L 1761.04 1056.28 L 1750.79 1062.16 C 1750.64 1073.75 1750.72 1085.34 1751.03 1096.93 C 1737.83 1104.67 1717.54 1114.9 1705.68 1123.19 C 1696.51 1118.4 1681.2 1110.52 1673.49 1104.43 C 1673.55 1101.65 1692.68 1101.01 1694.73 1085.79 L 1696.79 1085.16 L 1698.21 1081.67 L 1701.01 1080.65 z"/>
<path transform="translate(0,0)" fill="rgb(55,55,56)" d="M 1696.79 1085.16 C 1700.1 1085.68 1703.22 1085.67 1705.55 1087.82 C 1706.67 1095.23 1705.93 1114.95 1705.68 1123.19 C 1696.51 1118.4 1681.2 1110.52 1673.49 1104.43 C 1673.55 1101.65 1692.68 1101.01 1694.73 1085.79 L 1696.79 1085.16 z"/>
<path transform="translate(0,0)" fill="rgb(127,129,130)" d="M 1374.28 540.918 C 1398.51 553.091 1424.65 568.567 1448.56 582.018 L 1571.85 651.458 L 1629.93 683.959 C 1633.04 685.713 1649.58 694.859 1651.2 696.207 C 1650.11 702.268 1653.1 713.818 1653.5 720.579 C 1654.19 732.272 1654.71 743.76 1654.96 755.473 C 1655.27 770.368 1655.07 785.269 1654.35 800.15 C 1654.06 806.78 1652.06 835.261 1653.01 839.781 C 1637.95 832.823 1620.07 821.446 1604.05 813.743 L 1602.87 814.576 C 1594.66 811.204 1576.66 800.588 1568.16 795.822 L 1496.02 754.808 L 1446.36 727.201 C 1438.73 722.985 1425.69 716.253 1419 711.531 C 1416.05 710.819 1399.94 701.99 1396.53 700.165 C 1389.71 701.566 1385.19 702.576 1378.74 705.708 C 1374.69 703.624 1374.09 702.295 1371.17 698.575 C 1378.77 696.151 1385.69 689.215 1385.33 680.991 C 1383.29 634.531 1377.06 587.271 1374.28 540.918 z"/>
<path transform="translate(0,0)" fill="rgb(55,55,56)" d="M 1419 711.531 C 1424.02 711.255 1457.35 730.914 1463.6 734.406 L 1546.25 781.04 C 1553.89 785.344 1599.31 809.75 1602.87 814.576 C 1594.66 811.204 1576.66 800.588 1568.16 795.822 L 1496.02 754.808 L 1446.36 727.201 C 1438.73 722.985 1425.69 716.253 1419 711.531 z"/>
<path transform="translate(0,0)" fill="rgb(55,55,56)" d="M 1396.53 700.165 L 1397.97 699.309 C 1404.48 701.219 1412.73 706.171 1418.52 709.795 L 1419 711.531 C 1416.05 710.819 1399.94 701.99 1396.53 700.165 z"/>
<path transform="translate(0,0)" fill="rgb(206,207,208)" d="M 1365.71 440.198 C 1381.55 447.367 1412.72 465.983 1428.88 474.975 L 1545.39 539.655 L 1701.44 627.492 C 1726.79 641.77 1757.46 657.986 1781.81 672.908 C 1777.58 677.984 1707.28 716.158 1696.41 723.082 C 1688.72 716.719 1660.74 700.973 1651.2 696.207 C 1649.58 694.859 1633.04 685.713 1629.93 683.959 L 1571.85 651.458 L 1448.56 582.018 C 1424.65 568.567 1398.51 553.091 1374.28 540.918 C 1371.74 508.835 1367.49 471.751 1365.71 440.198 z"/>
<path transform="translate(0,0)" fill="rgb(82,84,85)" d="M 1269.03 349.735 C 1273.7 347.925 1275.73 347.682 1280.48 349.902 C 1292.24 355.401 1304.57 362.427 1315.82 368.948 C 1329.05 376.613 1344.09 384.254 1356.58 392.691 C 1363.62 406.384 1363.35 421.36 1364.47 436.788 C 1383.62 446.865 1402.78 458.07 1421.85 468.513 L 1595.7 565.026 L 1713 631.432 C 1733.28 642.886 1754 653.657 1773.95 665.668 C 1790.13 675.403 1791.37 676.934 1791.31 695.548 C 1791 804.969 1791.22 914.395 1791.66 1023.82 C 1791.71 1037.41 1788.63 1042.36 1776.27 1048.42 C 1771.28 1050.92 1766.25 1054.04 1761.04 1056.28 L 1760.67 1053.81 C 1768.18 1049.83 1780.01 1044.49 1785.75 1038.45 C 1788.77 1035.25 1788.92 1027.86 1788.98 1023.35 C 1789.32 998.963 1789.18 974.376 1789.16 949.981 L 1789.06 809.905 L 1789.11 726.104 C 1789.11 712.253 1789.37 697.446 1788.59 683.598 C 1788.33 679.006 1785.17 675.674 1781.81 672.908 C 1757.46 657.986 1726.79 641.77 1701.44 627.492 L 1545.39 539.655 L 1428.88 474.975 C 1412.72 465.983 1381.55 447.367 1365.71 440.198 C 1367.49 471.751 1371.74 508.835 1374.28 540.918 C 1377.06 587.271 1383.29 634.531 1385.33 680.991 C 1385.69 689.215 1378.77 696.151 1371.17 698.575 C 1364.97 703.349 1340.72 716.465 1332.43 721.25 L 1238.71 774.647 L 1005.7 907.71 C 980.226 922.335 952.791 936.97 927.877 951.641 C 920.527 952.625 918.91 953.119 911.295 952.644 C 907.369 962.126 907.278 963.84 898.86 969.895 C 890.29 972.694 580.956 1149.91 579.095 1151.91 L 578.753 1153.96 C 580.446 1156.21 582.477 1156.94 584.996 1158.27 C 623.151 1179.07 661.185 1200.09 699.097 1221.32 C 716.151 1230.85 735.074 1239.68 751.121 1250.64 C 755.127 1253.37 761.213 1257.54 762.549 1262.46 C 765.74 1274.23 764.584 1366.87 764.077 1383.91 C 766.391 1398.46 763.659 1455.98 766.196 1474.31 C 766.733 1474.74 767.269 1475.17 767.806 1475.61 C 775.471 1477.25 779.294 1473.21 786.89 1470.45 C 784.028 1477.75 770.703 1479.18 763.845 1479.1 L 763.825 1564.44 C 763.82 1575.16 764.402 1598.26 763.362 1608.17 C 761.653 1614.38 761.194 1616.44 755.833 1620.08 C 746.939 1626.1 736.554 1631.35 726.996 1636.23 L 726.117 1634.33 C 737.953 1627.19 751.653 1621.69 760.861 1611.66 C 760.971 1608.11 761.025 1604.56 761.025 1601.01 L 761.214 1373.4 L 761.206 1305.09 C 761.198 1292.46 761.415 1279.13 760.549 1266.5 C 760.22 1261.69 757.461 1258.65 754.219 1255.36 C 742.044 1247.39 721.34 1236.89 708.033 1229.46 L 613.564 1176.92 L 380.005 1047.25 L 382.158 1046.36 C 396.317 1052.32 414.38 1064.47 428.565 1071.55 C 434.593 1074.56 439.351 1078.45 446.164 1080.88 C 486.604 1104.83 532.422 1128.76 573.826 1152.22 C 582.993 1147.73 597.965 1138.49 607.283 1133.12 L 674.875 1094.38 C 748.625 1052.75 822.03 1010.36 895.628 968.475 C 897.291 967.528 905.074 962.767 905.542 961.363 C 907.26 956.205 907.636 945.89 907.299 940.531 C 904.175 890.894 899.664 841.218 895.535 791.64 C 892.465 754.78 889.974 717.819 886.545 681.021 C 886.199 677.303 885.179 674.326 883.685 670.936 L 882.962 670.239 C 873.463 660.942 833.866 640.596 819.893 632.621 C 816.527 631.663 802.067 624.022 794.348 621.434 C 796.88 620.384 801.085 620.844 804.745 620.321 C 807.777 618.668 808.526 615.515 809.997 612.151 C 823.644 616.002 874.824 646.892 889.485 656.234 C 892.108 657.905 894.571 661.855 896.163 664.606 L 909.943 841.985 C 910.951 855.013 916.759 945.813 919.847 949.836 L 922.026 951.021 C 935.62 946.323 966.92 927.596 980.375 919.905 L 1080.21 862.709 L 1284.77 746.165 C 1314.62 729.106 1344.72 712.156 1374.57 695.077 C 1378.37 692.9 1380.46 689.489 1382.91 685.88 C 1383.3 672.264 1381.47 655.633 1380.28 641.779 L 1373.9 569.302 L 1364.94 460.578 C 1363.72 446.55 1361.82 409.304 1357.03 398.038 C 1347.2 387.076 1297.24 362.113 1281.77 353.241 C 1279.18 351.755 1272.32 350.376 1269.03 349.735 z"/>
<path transform="translate(0,0)" fill="rgb(127,129,130)" d="M 794.348 621.434 C 796.88 620.384 801.085 620.844 804.745 620.321 C 807.777 618.668 808.526 615.515 809.997 612.151 C 823.644 616.002 874.824 646.892 889.485 656.234 C 892.108 657.905 894.571 661.855 896.163 664.606 L 909.943 841.985 C 910.951 855.013 916.759 945.813 919.847 949.836 L 922.026 951.021 C 918.643 950.932 914.389 950.17 910.973 949.67 C 910.397 930.175 907.426 907.041 905.847 887.303 L 895.765 763.112 C 893.264 734.861 892.144 705.584 888.511 677.576 C 887.831 672.337 886.413 670.181 882.383 666.782 C 875.08 660.624 826.268 632.238 819.893 632.621 C 816.527 631.663 802.067 624.022 794.348 621.434 z"/>
</svg>