<svg width="260" height="110" viewBox="0 0 260 110" xmlns="http://www.w3.org/2000/svg">
  <defs>
    <linearGradient id="borderGradient" x1="0%" y1="0%" x2="100%" y2="100%">
      <stop offset="0%" style="stop-color:#60a5fa;stop-opacity:1" />
      <stop offset="100%" style="stop-color:#a78bfa;stop-opacity:1" />
    </linearGradient>
  </defs>

  <!-- L - Left border (vertical stroke) - THICKER LEFT -->
  <polygon points="10,10 40,10 40,78 10,82" fill="url(#borderGradient)"/>

  <!-- L - Bottom border (horizontal stroke) -->
  <polygon points="10,82 10,100 165,100 165,82" fill="url(#borderGradient)"/>

  <!-- I - bold angular -->
  <polygon points="50,15 70,10 70,85 50,90" fill="white"/>

  <!-- N - bold angular -->
  <polygon points="85,15 105,10 105,50 125,10 145,15 145,90 125,95 125,55 105,95 85,90" fill="white"/>

  <!-- C - bold angular -->
  <path d="M 210,10 L 170,15 L 160,20 L 160,85 L 170,90 L 210,95 L 215,90 L 215,75 L 195,77 L 185,75 L 185,35 L 195,33 L 215,35 L 215,20 Z" fill="white"/>
</svg>
