<svg width="111px" height="48" viewBox="0 0 111 48" fill="none" xmlns="http://www.w3.org/2000/svg"><path d="M.214 9.25 16.316 0l10.593 6.068-16.102 9.297L.214 9.25Z" fill="#79C692"></path><path d="M16.526 18.971v-6.377l10.593-6.118v12.438l-5.377 3.067-5.216-3.01Z" fill="#4CB36E"></path><path d="m11.034 22.248 5.277-2.915 5.003 2.886s-2.475 1.408-2.479 1.412a.163.163 0 0 0-.04.034.182.182 0 0 0-.034.045v.004a.147.147 0 0 0-.016.045c0 .008-.009.029-.009.054l-.074 6.183-7.595 4.192-.03-11.94h-.004.001Z" fill="#398652"></path><path d="M0 41.923V9.658l10.593 6.114L10.671 48 0 41.923Z" fill="#4CB36E"></path><path d="m29.395 30.025 10-5.735-.032 11.487-9.968 5.751V30.025Z" fill="#2E8EC3"></path><path d="m19.366 23.82 9.885-5.631 9.93 5.73-9.996 5.736-9.819-5.835Z" fill="#56A9D7"></path><path d="m19.016 35.773.066-5.616v-.128l.07-5.842 9.82 5.834v11.507l-9.956-5.755Z" fill="#236A92"></path><path d="M58.39 26.489c0 2.544-1.942 4.47-4.527 4.47h-4.73v4.912H47.65V22.042h6.213c2.585 0 4.528 1.923 4.528 4.45v-.003Zm-1.522 0c0-1.445-1.264-2.446-3.047-2.446h-4.69v4.912h4.69c1.783 0 3.047-1.021 3.047-2.466Zm13.372 4.99h-9.378c.378 1.564 1.943 2.667 4.03 2.667 1.482 0 2.808-.481 3.508-1.222h1.663c-.844 1.922-2.808 3.186-5.192 3.186-3.124 0-5.471-2.305-5.471-5.352 0-3.046 2.347-5.352 5.45-5.352 3.105 0 5.43 2.285 5.43 5.393 0 .223-.02.461-.04.684v-.004Zm-9.378-1.462h7.978c-.362-1.564-1.984-2.647-3.99-2.647-2.004 0-3.606 1.082-3.988 2.647Zm21.223-.461v6.315h-1.363V30.1c0-1.663-1.322-2.746-3.347-2.746-2.026 0-3.487 1.104-3.487 2.787v5.731h-1.363V25.65h1.363v2.346c.72-1.642 2.165-2.585 4.047-2.585 2.486 0 4.15 1.643 4.15 4.15v-.005Zm2.227-.601c0-4.068 3.125-7.155 7.237-7.155 3.426 0 6.172 2.165 6.975 5.232h-1.602c-.803-1.885-2.824-3.186-5.373-3.186-3.248 0-5.693 2.206-5.693 5.109 0 2.902 2.445 5.109 5.694 5.109 2.544 0 4.57-1.301 5.372-3.187h1.602c-.803 3.068-3.55 5.233-6.975 5.233-4.108 0-7.237-3.088-7.237-7.155Zm15.751 2.964h1.544c0 1.284 1.684 2.264 3.949 2.264 2.025 0 3.688-.802 3.688-2.046 0-1.564-2.626-2.083-4.248-2.367-2.808-.54-4.632-1.865-4.632-4.03 0-2.384 2.207-3.949 5.01-3.949 2.948 0 5.11 1.746 5.11 4.01h-1.544c0-1.181-1.524-2.083-3.627-2.083-1.907 0-3.426.762-3.426 1.923 0 1.523 2.788 2.062 3.949 2.264 2.984.54 4.932 1.803 4.932 4.068 0 2.507-2.384 4.129-5.291 4.129-3.087 0-5.409-1.803-5.409-4.187l-.005.004Z" fill="#174761"></path></svg>
