<svg xmlns="http://www.w3.org/2000/svg" fill="none" viewBox="0 0 64 64">
  <rect width="64" height="64" rx="12" fill="#ffffff"/>
  <g transform="translate(13, 16) scale(1.05)">
    <path d="M4.35 25c0-7.954 6.446-14.4 14.4-14.4 7.954 0 14.4 6.446 14.4 14.4h3.6c0-9.941-8.059-18-18-18s-18 8.059-18 18h3.6z" fill="url(#plasmic-a)"/>
    <path d="M4.35 25c0-7.954 6.446-14.4 14.4-14.4 7.954 0 14.4 6.446 14.4 14.4h3.6c0-9.941-8.059-18-18-18s-18 8.059-18 18h3.6z" fill="url(#plasmic-b)" fill-opacity=".6"/>
    <path d="M27.75 25a9 9 0 10-18 0h-3.6c0-6.958 5.642-12.6 12.6-12.6 6.958 0 12.6 5.642 12.6 12.6h-3.6z" fill="url(#plasmic-c)"/>
    <path d="M27.75 25a9 9 0 10-18 0h-3.6c0-6.958 5.642-12.6 12.6-12.6 6.958 0 12.6 5.642 12.6 12.6h-3.6z" fill="url(#plasmic-d)" fill-opacity=".6"/>
    <path d="M15.15 25a3.6 3.6 0 017.2 0h3.6a7.2 7.2 0 00-7.2-7.2 7.2 7.2 0 00-7.2 7.2h3.6z" fill="url(#plasmic-e)"/>
    <path d="M15.15 25a3.6 3.6 0 017.2 0h3.6a7.2 7.2 0 00-7.2-7.2 7.2 7.2 0 00-7.2 7.2h3.6z" fill="url(#plasmic-f)" fill-opacity=".6"/>
  </g>
  <defs>
    <linearGradient id="plasmic-a" x1=".75" y1="25" x2="36.75" y2="25" gradientUnits="userSpaceOnUse">
      <stop offset=".219" stop-color="#FF2991"/>
      <stop offset=".792" stop-color="#9429FF"/>
    </linearGradient>
    <linearGradient id="plasmic-b" x1="18.75" y1="34.009" x2="18.75" y2="10.75" gradientUnits="userSpaceOnUse">
      <stop stop-color="#fff"/>
      <stop offset=".22" stop-color="#fff" stop-opacity=".76"/>
      <stop offset=".6" stop-color="#fff" stop-opacity=".36"/>
      <stop offset=".87" stop-color="#fff" stop-opacity=".1"/>
      <stop offset="1" stop-color="#fff" stop-opacity="0"/>
    </linearGradient>
    <linearGradient id="plasmic-c" x1=".75" y1="25" x2="36.75" y2="25" gradientUnits="userSpaceOnUse">
      <stop offset=".219" stop-color="#FF2991"/>
      <stop offset=".792" stop-color="#9429FF"/>
    </linearGradient>
    <linearGradient id="plasmic-d" x1="18.75" y1="34.009" x2="18.75" y2="10.75" gradientUnits="userSpaceOnUse">
      <stop stop-color="#fff"/>
      <stop offset=".22" stop-color="#fff" stop-opacity=".76"/>
      <stop offset=".6" stop-color="#fff" stop-opacity=".36"/>
      <stop offset=".87" stop-color="#fff" stop-opacity=".1"/>
      <stop offset="1" stop-color="#fff" stop-opacity="0"/>
    </linearGradient>
    <linearGradient id="plasmic-e" x1=".75" y1="25" x2="36.75" y2="25" gradientUnits="userSpaceOnUse">
      <stop offset=".219" stop-color="#FF2991"/>
      <stop offset=".792" stop-color="#9429FF"/>
    </linearGradient>
    <linearGradient id="plasmic-f" x1="18.75" y1="34.009" x2="18.75" y2="10.75" gradientUnits="userSpaceOnUse">
      <stop stop-color="#fff"/>
      <stop offset=".22" stop-color="#fff" stop-opacity=".76"/>
      <stop offset=".6" stop-color="#fff" stop-opacity=".36"/>
      <stop offset=".87" stop-color="#fff" stop-opacity=".1"/>
      <stop offset="1" stop-color="#fff" stop-opacity="0"/>
    </linearGradient>
  </defs>
</svg>
