<svg width="72" height="72" viewBox="0 0 72 72" fill="none" xmlns="http://www.w3.org/2000/svg">
<circle cx="36" cy="36" r="36" fill="black"/>
<path d="M54.6201 30.7283H51.8402C51.7895 30.3687 51.6858 30.0492 51.5293 29.7699C51.3727 29.4865 51.1717 29.2453 50.9263 29.0464C50.6809 28.8476 50.3974 28.6952 50.0759 28.5895C49.7585 28.4837 49.4137 28.4308 49.0413 28.4308C48.3686 28.4308 47.7826 28.5979 47.2833 28.9322C46.784 29.2622 46.3969 29.7446 46.1219 30.3792C45.8468 31.0097 45.7093 31.7755 45.7093 32.6767C45.7093 33.6034 45.8468 34.3819 46.1219 35.0123C46.4011 35.6428 46.7904 36.1188 47.2896 36.4403C47.7889 36.7619 48.3665 36.9227 49.0223 36.9227C49.3904 36.9227 49.731 36.874 50.0441 36.7767C50.3615 36.6794 50.6428 36.5377 50.8882 36.3515C51.1336 36.1611 51.3367 35.9305 51.4975 35.6597C51.6625 35.3889 51.7768 35.08 51.8402 34.7331L54.6201 34.7458C54.5482 35.3424 54.3683 35.9178 54.0806 36.4721C53.7971 37.0221 53.4142 37.515 52.9319 37.9509C52.4538 38.3824 51.8826 38.7252 51.2183 38.979C50.5582 39.2287 49.8114 39.3535 48.9779 39.3535C47.8185 39.3535 46.7819 39.0911 45.868 38.5665C44.9583 38.0418 44.239 37.2823 43.7101 36.288C43.1854 35.2937 42.9231 34.0899 42.9231 32.6767C42.9231 31.2593 43.1897 30.0534 43.7228 29.0591C44.2559 28.0648 44.9794 27.3074 45.8934 26.787C46.8073 26.2623 47.8355 26 48.9779 26C49.731 26 50.4292 26.1058 51.0723 26.3173C51.7197 26.5289 52.293 26.8378 52.7922 27.244C53.2915 27.6459 53.6977 28.1388 54.0108 28.7227C54.3282 29.3066 54.5312 29.9752 54.6201 30.7283Z" fill="white"/>
<path d="M40.8811 26.1777V39.1758H38.5074L32.8525 30.9949H32.7573V39.1758H30.0091V26.1777H32.4209L38.0314 34.3523H38.1456V26.1777H40.8811Z" fill="white"/>
<path d="M27.7481 26.1777V39.1758H25V26.1777H27.7481Z" fill="white"/>
<path d="M20 26V47H17V26H20Z" fill="#60A5FA"/>
<path d="M49 47L17 47L17 44L49 44L49 47Z" fill="#60A5FA"/>
</svg>
