<svg version="1.1" xmlns="http://www.w3.org/2000/svg" style="display: block;" viewBox="0 0 2048 2048" width="1024" height="1024" preserveAspectRatio="none">
<defs>
	<linearGradient id="Gradient1" gradientUnits="userSpaceOnUse" x1="304.042" y1="863.601" x2="274.958" y2="866.399">
		<stop class="stop0" offset="0" stop-opacity="1" stop-color="rgb(171,116,62)"/>
		<stop class="stop1" offset="1" stop-opacity="1" stop-color="rgb(211,146,82)"/>
	</linearGradient>
	<linearGradient id="Gradient2" gradientUnits="userSpaceOnUse" x1="1096.74" y1="1560.43" x2="1110.43" y2="1541.7">
		<stop class="stop0" offset="0" stop-opacity="1" stop-color="rgb(255,226,182)"/>
		<stop class="stop1" offset="1" stop-opacity="1" stop-color="rgb(252,239,221)"/>
	</linearGradient>
	<linearGradient id="Gradient3" gradientUnits="userSpaceOnUse" x1="962.275" y1="1527.04" x2="1062.88" y2="672.097">
		<stop class="stop0" offset="0" stop-opacity="1" stop-color="rgb(49,114,170)"/>
		<stop class="stop1" offset="1" stop-opacity="1" stop-color="rgb(90,158,209)"/>
	</linearGradient>
</defs>
<path transform="translate(0,0)" fill="url(#Gradient3)" d="M 182.372 680.694 C 192.757 673.478 212.307 663.171 224.023 655.924 C 260.653 633.266 299.488 612.382 336.192 590.055 L 825.505 299.024 C 837.973 291.538 927.968 237.365 933.787 236.628 C 940.501 238.641 975.652 258.581 980.954 263.411 L 980.918 410.199 C 1007.99 432.857 1028.8 467.082 1050.6 495.078 C 1078.21 530.543 1138.73 585.713 1136.98 633.212 C 1137.01 635.992 1136.2 639.638 1138.92 641.145 C 1176.57 662.895 1214.4 686.18 1252.18 707.607 C 1271.74 699.016 1292.14 693.431 1312.72 702.446 C 1342.03 715.276 1371.33 733.638 1398.92 749.911 C 1417.62 760.942 1464.73 783.878 1473.75 801.826 C 1480.25 810.657 1483.61 822.602 1484.64 833.449 C 1495.26 841.966 1540.9 867.486 1554.43 875.473 L 1708.82 967.074 L 1762.23 998.869 C 1771.29 1004.32 1785.66 1012.64 1793.83 1018.78 C 1808.07 1009.73 1822.87 1000.01 1837.51 991.775 C 1846.77 995.823 1879.1 1013.7 1885.22 1020.83 C 1884.27 1096.41 1885.08 1173.79 1885.08 1249.52 L 1885.11 1334.1 C 1885.14 1351.16 1884.78 1371.57 1885.98 1388.4 C 1875.68 1394.53 1843.7 1414.19 1834.02 1418.07 C 1818.26 1409.04 1802.38 1400.23 1786.38 1391.65 C 1785.71 1382.14 1787.06 1351.86 1785.11 1345.29 L 1414.58 1560.85 L 1310.76 1621.48 C 1285.21 1635.93 1259.91 1650.84 1234.89 1666.2 C 1225.41 1671.92 1211.73 1679.46 1203.01 1685.34 C 1203.7 1718.27 1202.74 1751.69 1203.71 1784.14 C 1187.49 1794.36 1170.6 1805.35 1154.08 1814.93 L 1152.37 1813.85 C 1138.7 1806.14 1118.68 1795.35 1106.22 1786.58 C 1104.21 1757.74 1106.52 1723.6 1105.62 1694.43 C 1105.37 1686.25 1105.42 1684.63 1099.58 1679.22 C 1099.04 1682.52 1098 1685.61 1096.54 1688.62 C 1093.32 1695.29 1085.07 1698.27 1078.37 1694.78 C 1064.54 1687.57 1051.34 1679.13 1038.05 1670.93 L 971.668 1630.09 L 746.748 1493.96 C 740.718 1490.48 736.467 1487.95 730.803 1483.93 C 726.145 1496.04 715.166 1503.83 702.285 1497.68 C 684.942 1489.4 668.575 1475.43 652.444 1464.74 C 632.717 1451.67 612.933 1438.28 593.581 1424.65 C 566.754 1405.26 561.95 1396.64 557.219 1364.95 C 547.965 1361.74 529.679 1349.85 520.619 1344.25 C 503.057 1333.31 485.423 1322.48 467.716 1311.77 C 405.517 1274.58 341.541 1239.37 280.268 1200.66 C 280.226 1215.17 279.998 1230.03 280.652 1244.48 C 268.491 1252.36 245.719 1266.09 232.906 1272.83 L 229.362 1274.28 C 213.629 1266.68 198.049 1254.84 183.193 1247.86 C 181.867 1204.01 182.968 1154.88 182.958 1110.55 L 182.924 840.969 C 182.926 788.202 183.678 733.246 182.372 680.694 z"/>
<path transform="translate(0,0)" fill="rgb(79,146,198)" d="M 795.553 1232.72 C 804.025 1226.08 822.943 1215.43 832.778 1209.59 L 897.883 1170.95 L 1082.84 1061.43 C 1114.89 1042.65 1147.21 1024.08 1179.24 1005.22 C 1199.65 993.202 1200.42 974.72 1215.71 963.667 C 1227.57 955.094 1246.85 944.163 1259.85 936.502 L 1328.61 895.875 L 1399.13 854.327 C 1413.4 846.013 1428.67 836.714 1443.69 829.882 C 1464.01 820.634 1467.7 827.001 1484.64 833.449 C 1495.26 841.966 1540.9 867.486 1554.43 875.473 L 1708.82 967.074 L 1762.23 998.869 C 1771.29 1004.32 1785.66 1012.64 1793.83 1018.78 C 1808.07 1009.73 1822.87 1000.01 1837.51 991.775 C 1846.77 995.823 1879.1 1013.7 1885.22 1020.83 C 1884.27 1096.41 1885.08 1173.79 1885.08 1249.52 L 1885.11 1334.1 C 1885.14 1351.16 1884.78 1371.57 1885.98 1388.4 C 1875.68 1394.53 1843.7 1414.19 1834.02 1418.07 C 1818.26 1409.04 1802.38 1400.23 1786.38 1391.65 C 1785.71 1382.14 1787.06 1351.86 1785.11 1345.29 L 1414.58 1560.85 L 1310.76 1621.48 C 1285.21 1635.93 1259.91 1650.84 1234.89 1666.2 C 1225.41 1671.92 1211.73 1679.46 1203.01 1685.34 C 1203.7 1718.27 1202.74 1751.69 1203.71 1784.14 C 1187.49 1794.36 1170.6 1805.35 1154.08 1814.93 L 1152.37 1813.85 C 1138.7 1806.14 1118.68 1795.35 1106.22 1786.58 C 1104.21 1757.74 1106.52 1723.6 1105.62 1694.43 C 1105.37 1686.25 1105.42 1684.63 1099.58 1679.22 C 1099.04 1682.52 1098 1685.61 1096.54 1688.62 C 1093.32 1695.29 1085.07 1698.27 1078.37 1694.78 C 1064.54 1687.57 1051.34 1679.13 1038.05 1670.93 L 971.668 1630.09 L 746.748 1493.96 C 748.239 1455.96 746.669 1417.49 746.796 1379.55 C 746.879 1354.55 743.793 1294.44 757.277 1273.91 C 765.523 1257.58 779.07 1241.16 795.553 1232.72 z"/>
<path transform="translate(0,0)" fill="rgb(235,175,112)" d="M 1837.51 991.775 C 1846.77 995.823 1879.1 1013.7 1885.22 1020.83 C 1884.27 1096.41 1885.08 1173.79 1885.08 1249.52 L 1885.11 1334.1 C 1885.14 1351.16 1884.78 1371.57 1885.98 1388.4 C 1875.68 1394.53 1843.7 1414.19 1834.02 1418.07 C 1818.26 1409.04 1802.38 1400.23 1786.38 1391.65 C 1785.71 1382.14 1787.06 1351.86 1785.11 1345.29 L 1414.58 1560.85 L 1310.76 1621.48 C 1285.21 1635.93 1259.91 1650.84 1234.89 1666.2 C 1225.41 1671.92 1211.73 1679.46 1203.01 1685.34 C 1203.7 1718.27 1202.74 1751.69 1203.71 1784.14 C 1187.49 1794.36 1170.6 1805.35 1154.08 1814.93 L 1152.37 1813.85 C 1138.7 1806.14 1118.68 1795.35 1106.22 1786.58 C 1104.21 1757.74 1106.52 1723.6 1105.62 1694.43 C 1105.37 1686.25 1105.42 1684.63 1099.58 1679.22 C 1098.56 1646.98 1098.09 1595.63 1099.78 1563.58 C 1100.64 1550.09 1102.05 1540.6 1105.7 1527.72 C 1107.8 1516.49 1106.53 1496.26 1106.26 1483.76 L 1106.32 1446.82 C 1106.29 1438.28 1106.33 1429.73 1106.44 1421.19 C 1123.36 1410.17 1149.54 1396.04 1167.59 1385.36 L 1314.99 1298.98 L 1668.97 1091.69 C 1710.21 1067.36 1753.02 1043.59 1793.83 1018.78 C 1808.07 1009.73 1822.87 1000.01 1837.51 991.775 z"/>
<path transform="translate(0,0)" fill="rgb(253,215,168)" d="M 1837.51 991.775 C 1846.77 995.823 1879.1 1013.7 1885.22 1020.83 C 1828.94 1052.75 1773.05 1085.37 1717.57 1118.68 L 1425.94 1289.23 L 1300.68 1362.13 C 1287.83 1369.66 1275.12 1377.9 1262.22 1385.29 L 1195.94 1423.68 C 1183.14 1431.1 1167.55 1439.44 1155.55 1447.53 C 1154.55 1534.53 1155.83 1622.63 1155.55 1709.81 L 1155.71 1775.88 C 1155.73 1784.25 1156.7 1809.11 1154.08 1814.93 L 1152.37 1813.85 C 1138.7 1806.14 1118.68 1795.35 1106.22 1786.58 C 1104.21 1757.74 1106.52 1723.6 1105.62 1694.43 C 1105.37 1686.25 1105.42 1684.63 1099.58 1679.22 C 1098.56 1646.98 1098.09 1595.63 1099.78 1563.58 C 1100.64 1550.09 1102.05 1540.6 1105.7 1527.72 C 1107.8 1516.49 1106.53 1496.26 1106.26 1483.76 L 1106.32 1446.82 C 1106.29 1438.28 1106.33 1429.73 1106.44 1421.19 C 1123.36 1410.17 1149.54 1396.04 1167.59 1385.36 L 1314.99 1298.98 L 1668.97 1091.69 C 1710.21 1067.36 1753.02 1043.59 1793.83 1018.78 C 1808.07 1009.73 1822.87 1000.01 1837.51 991.775 z"/>
<path transform="translate(0,0)" fill="rgb(209,148,87)" d="M 1106.44 1421.19 C 1122.35 1429.17 1137.01 1438.62 1151.98 1448.22 C 1152.15 1569.27 1153.57 1692.97 1152.37 1813.85 C 1138.7 1806.14 1118.68 1795.35 1106.22 1786.58 C 1104.21 1757.74 1106.52 1723.6 1105.62 1694.43 C 1105.37 1686.25 1105.42 1684.63 1099.58 1679.22 C 1098.56 1646.98 1098.09 1595.63 1099.78 1563.58 C 1100.64 1550.09 1102.05 1540.6 1105.7 1527.72 C 1107.8 1516.49 1106.53 1496.26 1106.26 1483.76 L 1106.32 1446.82 C 1106.29 1438.28 1106.33 1429.73 1106.44 1421.19 z"/>
<path transform="translate(0,0)" fill="url(#Gradient2)" d="M 1105.7 1527.72 C 1106.66 1535.01 1106.65 1559.6 1105.83 1567.01 L 1104.87 1567.21 L 1099.78 1563.58 C 1100.64 1550.09 1102.05 1540.6 1105.7 1527.72 z"/>
<path transform="translate(0,0)" fill="rgb(186,124,65)" d="M 1785.11 1345.29 C 1801.07 1336.48 1818.23 1325.77 1833.99 1317.5 L 1834.02 1418.07 C 1818.26 1409.04 1802.38 1400.23 1786.38 1391.65 C 1785.71 1382.14 1787.06 1351.86 1785.11 1345.29 z"/>
<path transform="translate(0,0)" fill="rgb(209,148,87)" d="M 1829.25 1098.01 L 1832.11 1096.77 L 1833.67 1097.58 C 1834.34 1100.65 1834.1 1132.97 1834.16 1139.37 L 1834.65 1221.43 C 1834.75 1236.6 1835.57 1259.43 1833.98 1273.82 C 1764.02 1312.79 1691.92 1356.27 1622.72 1396.87 L 1368.38 1544.52 C 1322.54 1571.06 1276.43 1599.48 1229.75 1624.7 C 1223.61 1628.01 1213.87 1636.9 1207.07 1636.88 C 1205.37 1634.77 1205.6 1632.86 1206.13 1630.08 C 1204.89 1613.89 1205.54 1586.65 1205.51 1569.93 L 1205.14 1462.75 C 1261.85 1431.43 1320.7 1395.45 1376.85 1362.5 L 1678.64 1185.94 C 1728.59 1156.19 1778.79 1126.88 1829.25 1098.01 z"/>
<path transform="translate(0,0)" fill="rgb(253,215,168)" d="M 1829.25 1098.01 L 1832.11 1096.77 L 1833.67 1097.58 C 1834.34 1100.65 1834.1 1132.97 1834.16 1139.37 L 1834.65 1221.43 C 1834.75 1236.6 1835.57 1259.43 1833.98 1273.82 C 1764.02 1312.79 1691.92 1356.27 1622.72 1396.87 L 1368.38 1544.52 C 1322.54 1571.06 1276.43 1599.48 1229.75 1624.7 C 1223.61 1628.01 1213.87 1636.9 1207.07 1636.88 C 1205.37 1634.77 1205.6 1632.86 1206.13 1630.08 L 1645.76 1374.53 L 1746.7 1315.7 C 1773.86 1299.72 1801.39 1282.97 1829.08 1267.99 L 1829.25 1098.01 z"/>
<path transform="translate(0,0)" fill="rgb(235,175,112)" d="M 1221.93 1471.16 L 1611.95 1242.36 L 1739.96 1167.38 C 1748.53 1162.35 1803.86 1129.06 1807.41 1129.08 C 1810.73 1130.39 1811.04 1131.05 1813.37 1133.65 C 1812.77 1155.8 1813.33 1179.66 1813.3 1201.95 C 1813.27 1218.85 1812.57 1242.25 1814.05 1258.66 L 1227.48 1600.5 C 1225.11 1601.01 1226.04 1600.89 1223.44 1600.18 C 1220.82 1595.89 1221.8 1571.81 1221.81 1565.15 L 1221.93 1471.16 z"/>
<path transform="translate(0,0)" fill="rgb(253,215,168)" d="M 1221.93 1471.16 L 1611.95 1242.36 L 1739.96 1167.38 C 1748.53 1162.35 1803.86 1129.06 1807.41 1129.08 C 1810.73 1130.39 1811.04 1131.05 1813.37 1133.65 C 1787.88 1147.25 1761.76 1163.1 1736.73 1177.78 L 1601.09 1257.34 L 1352.03 1403.02 C 1311.67 1426.68 1267.5 1451.51 1227.72 1475.72 L 1227.73 1550.05 C 1227.82 1565.47 1228.48 1585.34 1227.48 1600.5 C 1225.11 1601.01 1226.04 1600.89 1223.44 1600.18 C 1220.82 1595.89 1221.8 1571.81 1221.81 1565.15 L 1221.93 1471.16 z"/>
<path transform="translate(0,0)" fill="rgb(79,146,198)" d="M 757.277 1273.91 C 765.523 1257.58 779.07 1241.16 795.553 1232.72 C 788.087 1251.33 790.441 1256.29 807.435 1267.87 C 820.03 1276.45 833.385 1284.14 846.435 1292.02 L 915.722 1333.65 C 979.025 1371.77 1042.56 1409.49 1106.32 1446.82 L 1106.26 1483.76 C 1106.53 1496.26 1107.8 1516.49 1105.7 1527.72 C 1102.05 1540.6 1100.64 1550.09 1099.78 1563.58 C 1098.09 1595.63 1098.56 1646.98 1099.58 1679.22 C 1099.04 1682.52 1098 1685.61 1096.54 1688.62 C 1093.32 1695.29 1085.07 1698.27 1078.37 1694.78 C 1064.54 1687.57 1051.34 1679.13 1038.05 1670.93 L 971.668 1630.09 L 746.748 1493.96 C 748.239 1455.96 746.669 1417.49 746.796 1379.55 C 746.879 1354.55 743.793 1294.44 757.277 1273.91 z"/>
<path transform="translate(0,0)" fill="rgb(71,139,193)" d="M 757.277 1273.91 C 765.523 1257.58 779.07 1241.16 795.553 1232.72 C 788.087 1251.33 790.441 1256.29 807.435 1267.87 C 820.03 1276.45 833.385 1284.14 846.435 1292.02 L 915.722 1333.65 C 979.025 1371.77 1042.56 1409.49 1106.32 1446.82 L 1106.26 1483.76 C 1097.87 1479.64 1087.51 1472.67 1079.33 1467.66 C 1063.1 1457.73 1046.98 1447.48 1030.67 1437.66 L 856.116 1331.88 C 827.138 1314.37 786.558 1288.47 757.277 1273.91 z"/>
<path transform="translate(0,0)" fill="rgb(253,215,168)" d="M 182.372 680.694 C 192.757 673.478 212.307 663.171 224.023 655.924 C 260.653 633.266 299.488 612.382 336.192 590.055 L 825.505 299.024 C 837.973 291.538 927.968 237.365 933.787 236.628 C 940.501 238.641 975.652 258.581 980.954 263.411 L 980.918 410.199 C 974.086 405.957 969.534 403.167 962.314 399.757 C 950.314 394.365 944.316 394.317 931.706 395.425 L 925.052 397.127 C 920.217 398.818 914.605 400.579 910.052 402.783 C 868.696 426.703 835.403 459.574 794.859 483.771 C 750.397 510.306 675.268 522.748 643.201 566.812 C 633.043 571.189 628.876 602.4 628.291 612.556 C 623.799 609.998 618.946 607.893 614.24 605.721 C 596.003 599.153 580.476 599.29 563.018 608.361 C 522.792 629.261 490.834 661.818 452.871 686.929 C 415.755 711.479 323.054 734.359 302.461 773.658 L 300.105 776.032 L 299.44 777.219 C 292.246 779.499 285.098 806.94 283.19 814.585 C 281.552 845.4 282 876.58 281.778 907.487 C 281.687 920.095 280.246 942.964 281.515 954.079 C 271.438 959.977 261.277 965.731 251.037 971.339 C 250.624 996.201 251.608 1021.57 250.799 1046.31 C 254.437 1052.68 274.209 1063.11 281.507 1067.43 L 327.753 1094.77 L 490.176 1190.97 C 507.702 1201.41 543.459 1221.62 558.246 1233.31 C 558.082 1238.41 557.713 1244.04 558.169 1249.07 L 558.02 1250.98 L 557.219 1364.95 C 547.965 1361.74 529.679 1349.85 520.619 1344.25 C 503.057 1333.31 485.423 1322.48 467.716 1311.77 C 405.517 1274.58 341.541 1239.37 280.268 1200.66 C 280.226 1215.17 279.998 1230.03 280.652 1244.48 C 268.491 1252.36 245.719 1266.09 232.906 1272.83 L 229.362 1274.28 C 213.629 1266.68 198.049 1254.84 183.193 1247.86 C 181.867 1204.01 182.968 1154.88 182.958 1110.55 L 182.924 840.969 C 182.926 788.202 183.678 733.246 182.372 680.694 z"/>
<path transform="translate(0,0)" fill="rgb(235,175,112)" d="M 980.954 263.411 L 980.918 410.199 C 974.086 405.957 969.534 403.167 962.314 399.757 C 950.314 394.365 944.316 394.317 931.706 395.425 L 925.052 397.127 C 920.217 398.818 914.605 400.579 910.052 402.783 C 868.696 426.703 835.403 459.574 794.859 483.771 C 750.397 510.306 675.268 522.748 643.201 566.812 C 633.043 571.189 628.876 602.4 628.291 612.556 C 623.799 609.998 618.946 607.893 614.24 605.721 C 596.003 599.153 580.476 599.29 563.018 608.361 C 522.792 629.261 490.834 661.818 452.871 686.929 C 415.755 711.479 323.054 734.359 302.461 773.658 L 300.105 776.032 L 299.44 777.219 C 292.246 779.499 285.098 806.94 283.19 814.585 C 281.552 845.4 282 876.58 281.778 907.487 C 281.687 920.095 280.246 942.964 281.515 954.079 C 271.438 959.977 261.277 965.731 251.037 971.339 C 250.624 996.201 251.608 1021.57 250.799 1046.31 C 244.638 1049.98 238.869 1053.95 232.841 1057.62 C 232.062 1053.39 232.332 1033.74 232.316 1027.82 L 232.26 959.46 C 232.326 876.377 233.031 791.641 231.895 708.755 C 236.227 704.119 286.081 675.421 295.298 669.975 L 434.774 587.344 L 806.138 366.782 C 862.877 333.176 923.682 295.198 980.954 263.411 z"/>
<path transform="translate(0,0)" fill="rgb(235,175,112)" d="M 303.861 736.326 C 313.291 730.153 326.304 723.09 336.307 717.109 L 400.783 678.473 L 566.291 580.664 L 909.423 377.216 C 909.138 382.69 908.405 398.209 910.052 402.783 C 868.696 426.703 835.403 459.574 794.859 483.771 C 750.397 510.306 675.268 522.748 643.201 566.812 C 633.043 571.189 628.876 602.4 628.291 612.556 C 623.799 609.998 618.946 607.893 614.24 605.721 C 596.003 599.153 580.476 599.29 563.018 608.361 C 522.792 629.261 490.834 661.818 452.871 686.929 C 415.755 711.479 323.054 734.359 302.461 773.658 L 300.105 776.032 L 298.542 774.598 C 301.398 772.231 302.363 769.932 304.191 766.715 L 303.861 736.326 z"/>
<path transform="translate(0,0)" fill="rgb(209,148,87)" d="M 281.862 723.006 C 371.246 668.471 463.999 615.978 553.915 561.924 L 751.055 444.524 C 807.938 410.449 867.184 373.815 924.898 341.665 L 925.052 397.127 C 920.217 398.818 914.605 400.579 910.052 402.783 C 908.405 398.209 909.138 382.69 909.423 377.216 L 566.291 580.664 L 400.783 678.473 L 336.307 717.109 C 326.304 723.09 313.291 730.153 303.861 736.326 L 304.191 766.715 C 302.363 769.932 301.398 772.231 298.542 774.598 L 300.105 776.032 L 299.44 777.219 C 292.246 779.499 285.098 806.94 283.19 814.585 C 283.122 805.563 282.033 795.907 281.973 786.653 C 281.838 765.44 281.844 744.217 281.862 723.006 z"/>
<path transform="translate(0,0)" fill="rgb(253,215,168)" d="M 297.925 731.373 L 778.955 445.384 L 874.316 388.626 C 878.509 386.134 900.403 372.507 903.036 371.842 C 906.836 373.924 906.648 373.838 909.423 377.216 L 566.291 580.664 L 400.783 678.473 L 336.307 717.109 C 326.304 723.09 313.291 730.153 303.861 736.326 L 304.191 766.715 C 302.363 769.932 301.398 772.231 298.542 774.598 C 296.723 767.016 297.758 740.169 297.925 731.373 z"/>
<path transform="translate(0,0)" fill="rgb(253,215,168)" d="M 924.898 341.665 C 928.112 339.277 926.434 339.689 929.84 339.597 C 934.271 345.582 929.032 388.416 931.706 395.425 L 925.052 397.127 L 924.898 341.665 z"/>
<path transform="translate(0,0)" fill="rgb(209,148,87)" d="M 232.765 1058.56 C 263.242 1074.51 297.852 1096.67 327.961 1114.54 L 478.578 1203.48 L 532.543 1235.72 C 539.016 1239.59 551.764 1247.84 558.02 1250.98 L 557.219 1364.95 C 547.965 1361.74 529.679 1349.85 520.619 1344.25 C 503.057 1333.31 485.423 1322.48 467.716 1311.77 C 405.517 1274.58 341.541 1239.37 280.268 1200.66 C 273.512 1196.48 238.377 1175.73 232.123 1174.19 C 231.511 1150.3 232.348 1125.1 231.975 1101.06 C 231.839 1092.34 231.513 1065.51 232.765 1058.56 z"/>
<path transform="translate(0,0)" fill="rgb(209,148,87)" d="M 182.372 680.694 C 190.573 685.209 225.18 703.483 229.531 709.493 C 227.789 723.213 229.075 763.164 229.062 779.552 L 228.983 931.66 L 228.907 1156.71 L 228.903 1231.43 C 228.927 1244.51 228.521 1261.42 229.362 1274.28 C 213.629 1266.68 198.049 1254.84 183.193 1247.86 C 181.867 1204.01 182.968 1154.88 182.958 1110.55 L 182.924 840.969 C 182.926 788.202 183.678 733.246 182.372 680.694 z"/>
<path transform="translate(0,0)" fill="rgb(186,124,65)" d="M 232.123 1174.19 C 238.377 1175.73 273.512 1196.48 280.268 1200.66 C 280.226 1215.17 279.998 1230.03 280.652 1244.48 C 268.491 1252.36 245.719 1266.09 232.906 1272.83 C 231.495 1240.64 232.299 1206.63 232.123 1174.19 z"/>
<path transform="translate(0,0)" fill="rgb(252,252,252)" d="M 302.461 773.658 C 323.054 734.359 415.755 711.479 452.871 686.929 C 490.834 661.818 522.792 629.261 563.018 608.361 C 580.476 599.29 596.003 599.153 614.24 605.721 C 618.946 607.893 623.799 609.998 628.291 612.556 C 633.152 616.146 638.29 619.763 642.842 623.702 C 663.329 642.028 684.005 675.434 701.47 697.57 C 726.918 729.826 783.558 783.828 785.767 825.666 C 785.857 827.457 785.906 829.25 785.914 831.043 C 785.955 834.749 785.599 839.898 787.025 843.123 C 784.641 846.593 783.371 849.923 783.027 854.169 C 787.463 860.211 790.417 863.76 789.326 871.867 C 787.26 887.234 765.468 904.069 753.231 912.31 C 709.254 941.929 660.495 964.724 614.665 990.891 C 595.98 1001.65 577.458 1012.68 559.104 1023.99 C 536.505 1037.77 504.993 1060.6 477.391 1056.34 C 469.363 1055.1 460.285 1050.62 453.093 1047.02 C 425.098 1031.44 315.91 963.448 298.628 944.12 L 297.899 944.156 L 281.515 954.079 C 280.246 942.964 281.687 920.095 281.778 907.487 C 282 876.58 281.552 845.4 283.19 814.585 C 285.098 806.94 292.246 779.499 299.44 777.219 L 300.105 776.032 L 302.461 773.658 z"/>
<path transform="translate(0,0)" fill="rgb(205,205,204)" d="M 302.461 773.658 C 310.077 833.978 385.254 895.664 420.236 943.907 C 440.407 971.724 457.487 1003.48 481.436 1027.57 C 485.271 1031.22 495.461 1034.7 500.332 1033.4 C 540.35 1022.76 581.555 982.82 615.885 962.371 C 658.878 936.762 747.419 903.728 776.88 864.441 C 779.283 861.242 781.343 857.799 783.027 854.169 C 787.463 860.211 790.417 863.76 789.326 871.867 C 787.26 887.234 765.468 904.069 753.231 912.31 C 709.254 941.929 660.495 964.724 614.665 990.891 C 595.98 1001.65 577.458 1012.68 559.104 1023.99 C 536.505 1037.77 504.993 1060.6 477.391 1056.34 C 469.363 1055.1 460.285 1050.62 453.093 1047.02 C 425.098 1031.44 315.91 963.448 298.628 944.12 L 297.899 944.156 L 281.515 954.079 C 280.246 942.964 281.687 920.095 281.778 907.487 C 282 876.58 281.552 845.4 283.19 814.585 C 285.098 806.94 292.246 779.499 299.44 777.219 L 300.105 776.032 L 302.461 773.658 z"/>
<path transform="translate(0,0)" fill="url(#Gradient1)" d="M 283.19 814.585 C 285.098 806.94 292.246 779.499 299.44 777.219 C 297.424 790.017 297.241 795.94 299.125 808.766 L 298.259 816.052 C 305.204 830.034 300.981 897.261 303.32 916.362 C 303.981 921.762 303.065 934.007 304.833 939.762 L 298.628 944.12 L 297.899 944.156 L 281.515 954.079 C 280.246 942.964 281.687 920.095 281.778 907.487 C 282 876.58 281.552 845.4 283.19 814.585 z"/>
<path transform="translate(0,0)" fill="rgb(235,175,112)" d="M 298.259 816.052 C 305.204 830.034 300.981 897.261 303.32 916.362 C 303.981 921.762 303.065 934.007 304.833 939.762 L 298.628 944.12 L 297.899 944.156 L 298.259 816.052 z"/>
<path transform="translate(0,0)" fill="rgb(209,148,87)" d="M 299.125 808.766 C 308.38 841.569 332.444 883.384 352.065 911.644 C 335.846 919.888 320.194 930.005 304.833 939.762 C 303.065 934.007 303.981 921.762 303.32 916.362 C 300.981 897.261 305.204 830.034 298.259 816.052 L 299.125 808.766 z"/>
<path transform="translate(0,0)" fill="rgb(228,227,227)" d="M 302.461 773.658 C 323.054 734.359 415.755 711.479 452.871 686.929 C 490.834 661.818 522.792 629.261 563.018 608.361 C 580.476 599.29 596.003 599.153 614.24 605.721 C 575.287 614.521 547.508 666.61 514.723 692.517 C 502.521 702.086 488.931 709.738 474.422 715.209 C 441.959 727.623 337.275 746.469 320.641 774.92 C 318.793 778.081 318.693 781.2 319.651 784.679 C 324.678 802.935 370.841 830.399 387.127 843.881 C 406.36 859.804 422.069 877.431 435.001 898.831 C 441.8 910.084 447.44 921.762 452.78 933.753 C 461.247 952.763 474.18 994.783 492.408 1004.37 C 499.707 1008.21 509.242 1006.46 516.701 1003.83 C 548.845 992.472 580.87 947.214 610.267 926.23 C 624.803 915.854 640.442 908.213 657.023 901.7 C 690.67 888.484 767.521 870.864 783.818 836.977 C 784.725 835.092 785.339 833.05 785.914 831.043 C 785.955 834.749 785.599 839.898 787.025 843.123 C 784.641 846.593 783.371 849.923 783.027 854.169 C 781.343 857.799 779.283 861.242 776.88 864.441 C 747.419 903.728 658.878 936.762 615.885 962.371 C 581.555 982.82 540.35 1022.76 500.332 1033.4 C 495.461 1034.7 485.271 1031.22 481.436 1027.57 C 457.487 1003.48 440.407 971.724 420.236 943.907 C 385.254 895.664 310.077 833.978 302.461 773.658 z"/>
<path transform="translate(0,0)" fill="rgb(252,252,252)" d="M 931.706 395.425 C 944.316 394.317 950.314 394.365 962.314 399.757 C 969.534 403.167 974.086 405.957 980.918 410.199 C 1007.99 432.857 1028.8 467.082 1050.6 495.078 C 1078.21 530.543 1138.73 585.713 1136.98 633.212 C 1137.01 635.992 1136.2 639.638 1138.92 641.145 C 1135.7 644.836 1136.72 648.55 1134.8 653.86 C 1148.86 669.61 1135.73 685.031 1122.52 695.922 C 1075.96 734.068 1018.3 757.406 966.401 787.433 C 929.756 808.633 893.907 831.168 856.341 850.656 C 830.719 863.948 810.232 856.531 787.025 843.123 C 785.599 839.898 785.955 834.749 785.914 831.043 C 785.906 829.25 785.857 827.457 785.767 825.666 C 783.558 783.828 726.918 729.826 701.47 697.57 C 684.005 675.434 663.329 642.028 642.842 623.702 C 638.29 619.763 633.152 616.146 628.291 612.556 C 628.876 602.4 633.043 571.189 643.201 566.812 C 675.268 522.748 750.397 510.306 794.859 483.771 C 835.403 459.574 868.696 426.703 910.052 402.783 C 914.605 400.579 920.217 398.818 925.052 397.127 L 931.706 395.425 z"/>
<path transform="translate(0,0)" fill="rgb(228,227,227)" d="M 931.706 395.425 C 944.316 394.317 950.314 394.365 962.314 399.757 C 953.659 401.374 946.838 403.892 939.51 408.856 C 928.219 416.506 919.361 427.497 910.311 437.561 C 895.165 454.404 880.418 471.782 862.644 485.963 C 846.515 498.832 827.779 507.81 808.362 514.599 C 774.935 526.287 680.879 541.848 661.196 568.808 C 659.12 571.653 657.839 574.589 658.459 578.176 C 661.642 596.602 705.447 622.12 720.509 633.544 C 735.981 645.279 751.785 657.922 763.407 673.622 C 772.679 686.275 780.742 699.772 787.489 713.935 C 797.886 735.307 817.091 792.059 834.942 803.616 C 841.589 807.92 849.419 807.809 856.88 805.877 C 884.674 798.678 917.649 759.257 939.834 739.665 C 950.92 729.873 962.905 720.797 976.009 713.862 C 989.939 706.49 1004.76 700.699 1019.65 695.59 C 1055.88 683.163 1116.74 669.605 1136.4 634.278 L 1136.98 633.212 C 1137.01 635.992 1136.2 639.638 1138.92 641.145 C 1135.7 644.836 1136.72 648.55 1134.8 653.86 C 1148.86 669.61 1135.73 685.031 1122.52 695.922 C 1075.96 734.068 1018.3 757.406 966.401 787.433 C 929.756 808.633 893.907 831.168 856.341 850.656 C 830.719 863.948 810.232 856.531 787.025 843.123 C 785.599 839.898 785.955 834.749 785.914 831.043 C 785.906 829.25 785.857 827.457 785.767 825.666 C 783.558 783.828 726.918 729.826 701.47 697.57 C 684.005 675.434 663.329 642.028 642.842 623.702 C 638.29 619.763 633.152 616.146 628.291 612.556 C 628.876 602.4 633.043 571.189 643.201 566.812 C 675.268 522.748 750.397 510.306 794.859 483.771 C 835.403 459.574 868.696 426.703 910.052 402.783 C 914.605 400.579 920.217 398.818 925.052 397.127 L 931.706 395.425 z"/>
<path transform="translate(0,0)" fill="rgb(205,205,204)" d="M 628.291 612.556 C 628.876 602.4 633.043 571.189 643.201 566.812 L 643.087 567.767 L 643.498 569.535 C 644.378 573.484 644.649 578.341 645.314 582.502 C 647.543 596.447 652.855 606.545 660.233 618.422 C 686.725 661.068 725.88 693.651 756.261 732.472 C 764.566 743.166 772.529 754.123 780.137 765.326 C 792.601 783.964 822.747 843.757 850.327 833.374 C 892.21 817.606 927.877 782.859 966.446 760.356 C 1019.03 729.115 1099.08 706.066 1134.8 653.86 C 1148.86 669.61 1135.73 685.031 1122.52 695.922 C 1075.96 734.068 1018.3 757.406 966.401 787.433 C 929.756 808.633 893.907 831.168 856.341 850.656 C 830.719 863.948 810.232 856.531 787.025 843.123 C 785.599 839.898 785.955 834.749 785.914 831.043 C 785.906 829.25 785.857 827.457 785.767 825.666 C 783.558 783.828 726.918 729.826 701.47 697.57 C 684.005 675.434 663.329 642.028 642.842 623.702 C 638.29 619.763 633.152 616.146 628.291 612.556 z"/>
<path transform="translate(0,0)" fill="rgb(209,148,87)" d="M 628.291 612.556 C 628.876 602.4 633.043 571.189 643.201 566.812 L 643.087 567.767 C 635.648 578.716 635.371 588.017 637.563 600.592 C 638.474 605.817 642.718 619.58 642.842 623.702 C 638.29 619.763 633.152 616.146 628.291 612.556 z"/>
<path transform="translate(0,0)" fill="rgb(252,252,252)" d="M 1138.92 641.145 C 1176.57 662.895 1214.4 686.18 1252.18 707.607 C 1238.52 715.295 1224.58 721.896 1210.92 729.911 C 1180.77 747.592 1150.66 765.882 1121.02 784.398 C 1093.88 801.357 1064.09 817.156 1040.89 839.238 C 1026.07 853.529 1024.59 875.183 1012.81 887.825 C 991.154 904.534 964.988 918.494 941.471 932.404 C 837.778 993.736 733.113 1053.47 629.382 1114.74 C 617.149 1121.97 599.448 1133.27 590.563 1144.41 C 584.323 1151.1 581.085 1155.81 575.775 1163.39 C 564.761 1184.74 561.274 1199.75 559.572 1224.05 C 559.052 1231.49 559.075 1242.11 558.169 1249.07 C 557.713 1244.04 558.082 1238.41 558.246 1233.31 C 543.459 1221.62 507.702 1201.41 490.176 1190.97 L 327.753 1094.77 L 281.507 1067.43 C 274.209 1063.11 254.437 1052.68 250.799 1046.31 C 251.608 1021.57 250.624 996.201 251.037 971.339 C 261.277 965.731 271.438 959.977 281.515 954.079 L 297.899 944.156 L 298.628 944.12 C 315.91 963.448 425.098 1031.44 453.093 1047.02 C 460.285 1050.62 469.363 1055.1 477.391 1056.34 C 504.993 1060.6 536.505 1037.77 559.104 1023.99 C 577.458 1012.68 595.98 1001.65 614.665 990.891 C 660.495 964.724 709.254 941.929 753.231 912.31 C 765.468 904.069 787.26 887.234 789.326 871.867 C 790.417 863.76 787.463 860.211 783.027 854.169 C 783.371 849.923 784.641 846.593 787.025 843.123 C 810.232 856.531 830.719 863.948 856.341 850.656 C 893.907 831.168 929.756 808.633 966.401 787.433 C 1018.3 757.406 1075.96 734.068 1122.52 695.922 C 1135.73 685.031 1148.86 669.61 1134.8 653.86 C 1136.72 648.55 1135.7 644.836 1138.92 641.145 z"/>
<path transform="translate(0,0)" fill="rgb(205,205,204)" d="M 251.037 971.339 C 271.768 981.676 300.803 1000.25 321.71 1012.55 L 492.746 1113.99 C 516.631 1128.21 552.305 1151.21 575.775 1163.39 C 564.761 1184.74 561.274 1199.75 559.572 1224.05 C 559.052 1231.49 559.075 1242.11 558.169 1249.07 C 557.713 1244.04 558.082 1238.41 558.246 1233.31 C 543.459 1221.62 507.702 1201.41 490.176 1190.97 L 327.753 1094.77 L 281.507 1067.43 C 274.209 1063.11 254.437 1052.68 250.799 1046.31 C 251.608 1021.57 250.624 996.201 251.037 971.339 z"/>
<path transform="translate(0,0)" fill="rgb(79,146,198)" d="M 590.563 1144.41 C 599.448 1133.27 617.149 1121.97 629.382 1114.74 C 733.113 1053.47 837.778 993.736 941.471 932.404 C 964.988 918.494 991.154 904.534 1012.81 887.825 C 1013.19 888.069 1013.57 888.327 1013.97 888.557 C 1019.71 891.881 1033.91 888.729 1041.3 891.52 C 1066.41 900.996 1158 952.624 1166.39 975.965 C 1167.75 979.765 1166.86 983.234 1164.99 986.652 C 1161.81 992.468 1156.33 997.206 1150.94 1000.94 C 1134.3 1012.44 1116.03 1021.71 1098.59 1031.95 C 1064.02 1052.25 1029.69 1072.56 994.714 1092.16 C 965.221 1108.68 936.416 1126.63 907.244 1143.72 C 871.592 1164.62 835.528 1184.88 800.413 1206.68 C 787.693 1214.58 773.437 1221.75 761.522 1230.71 C 749.994 1239.37 740.69 1256.25 726.375 1260.11 C 724.714 1260.55 723.456 1260.66 721.755 1260.27 C 710.681 1253.07 701.818 1242.96 690.714 1235.79 C 674.562 1225.29 658.287 1214.72 641.91 1204.6 C 636.353 1201.16 630.024 1197.96 624.758 1194.54 C 611.905 1186.2 594.458 1179.91 591.559 1162.99 C 590.44 1156.46 590.546 1152.88 591.411 1146.38 L 590.563 1144.41 z"/>
<path transform="translate(0,0)" fill="rgb(48,106,155)" d="M 1472.68 804.01 C 1456.58 797.299 1448.47 795.59 1431.43 800.192 C 1442.58 790.014 1463.01 801.701 1473.75 801.826 C 1480.25 810.657 1483.61 822.602 1484.64 833.449 C 1467.7 827.001 1464.01 820.634 1443.69 829.882 C 1428.67 836.714 1413.4 846.013 1399.13 854.327 L 1328.61 895.875 L 1259.85 936.502 C 1246.85 944.163 1227.57 955.094 1215.71 963.667 C 1200.42 974.72 1199.65 993.202 1179.24 1005.22 C 1147.21 1024.08 1114.89 1042.65 1082.84 1061.43 L 897.883 1170.95 L 832.778 1209.59 C 822.943 1215.43 804.025 1226.08 795.553 1232.72 C 779.07 1241.16 765.523 1257.58 757.277 1273.91 C 743.793 1294.44 746.879 1354.55 746.796 1379.55 C 746.669 1417.49 748.239 1455.96 746.748 1493.96 C 740.718 1490.48 736.467 1487.95 730.803 1483.93 C 733.102 1475.28 732.072 1453.23 732.026 1443.41 C 732.109 1424.49 732.001 1405.57 731.703 1386.65 C 731.219 1355.29 728.374 1306.13 739.411 1277.55 C 744.853 1263.45 753.852 1251 765.534 1241.41 C 776.857 1232.06 797.498 1220.46 810.512 1212.77 L 870.139 1177.25 C 942.128 1134.36 1015.65 1090.01 1088.15 1048.21 C 1107.37 1037.25 1126.51 1026.15 1145.58 1014.92 C 1152.14 1011.01 1164.9 1003.74 1170.39 999.161 C 1183.55 989.078 1186.1 966.017 1196.14 955.005 C 1207.9 942.113 1232.66 929.64 1247.74 920.628 C 1271.88 906.134 1296.12 891.801 1320.46 877.631 C 1343.35 864.239 1365.36 850.361 1389.43 837.424 C 1406.21 828.407 1448.7 796.777 1467.03 819.325 C 1470.36 823.427 1476.28 831.645 1482.51 830.639 C 1483.64 825.021 1476.05 809.221 1472.68 804.01 z"/>
</svg>