<svg version="1.1" xmlns="http://www.w3.org/2000/svg" style="display: block;" viewBox="0 0 2048 2048" width="1024" height="1024" preserveAspectRatio="none">
<defs>
	<linearGradient id="Gradient1" gradientUnits="userSpaceOnUse" x1="923.38" y1="1275.03" x2="883.14" y2="1253.78">
		<stop class="stop0" offset="0" stop-opacity="1" stop-color="rgb(5,95,97)"/>
		<stop class="stop1" offset="1" stop-opacity="1" stop-color="rgb(15,117,112)"/>
	</linearGradient>
</defs>
<path transform="translate(0,0)" fill="rgb(9,150,137)" d="M 536.085 762.946 L 536.052 441.571 L 535.915 342.099 C 535.893 320.154 532.023 263.229 552.116 249.122 C 583.613 227.01 625.101 210.106 659.204 191.186 C 663.099 189.038 675.78 187.217 686.382 181.947 L 799.046 125.096 C 818.051 115.572 848.747 97.7253 868.404 94.8359 C 900.851 90.0662 944.62 121.127 972.567 135.956 C 1031.64 167.464 1090.54 199.289 1149.27 231.431 C 1214.73 266.278 1279.94 301.595 1344.89 337.378 C 1375.3 353.991 1406.47 370.502 1436.39 387.545 C 1475.13 409.61 1503.72 459.229 1509.75 502.626 C 1511.95 518.388 1510.97 541.967 1510.98 558.287 L 1510.98 652.282 L 1510.9 970.022 L 1510.94 1491.43 L 1510.95 1660.14 C 1510.95 1689.52 1511.14 1719.72 1510.69 1748.76 C 1510.47 1762.53 1501.8 1788.95 1491.25 1796.78 C 1480.83 1804.5 1460.94 1815.13 1449.17 1821.8 L 1315.04 1896.17 C 1301.4 1903.89 1289.53 1913.83 1275.23 1921.2 C 1259.43 1929.34 1244.24 1939.93 1228.07 1947.52 C 1209.22 1957.07 1192.86 1953.63 1175.24 1943.97 C 1139.68 1924.84 1104.78 1904.61 1069.51 1885.01 L 851.889 1764.22 L 676.18 1667.38 C 651.11 1653.4 625.502 1639.4 600.635 1625.05 C 589.999 1618.92 578.912 1608.4 570.862 1599.12 C 552.822 1577.98 541.199 1552.12 537.361 1524.59 C 534.623 1506.01 535.717 1468.09 535.742 1447.4 L 535.882 1311.56 L 535.776 849.72 L 536.085 762.946 z"/>
<path transform="translate(0,0)" fill="rgb(254,250,227)" d="M 536.085 762.946 L 543.636 764.512 C 596.446 790.223 656.733 825.266 708.901 853.546 L 1028.21 1027.04 L 1145.96 1091.15 C 1155.9 1096.53 1188.13 1115.11 1197.09 1118.84 C 1228.44 1124.73 1264.04 1108.93 1289.69 1092.76 C 1295.27 1089.24 1308.81 1082.05 1314.92 1080.76 C 1314.72 1104.06 1313.21 1150.82 1315.11 1172.78 C 1264.79 1198.71 1255.09 1211.15 1197.66 1208.98 C 1198.67 1250.53 1197.78 1294.87 1197.85 1336.65 L 1197.89 1629.65 L 1197.89 1800.99 C 1197.91 1829.48 1198.67 1858.31 1197.62 1886.75 C 1196.76 1910.21 1189.02 1923.76 1165.86 1929.74 C 1125.63 1908.97 1083.04 1884.2 1043.27 1862 L 844.945 1751.82 C 792.826 1723.34 740.881 1694.55 689.112 1665.44 L 639.17 1637.94 C 606.228 1619.87 585.679 1611.71 564.684 1578.31 C 538.575 1536.76 543.636 1502.88 543.652 1456.22 L 543.68 1322.03 L 543.565 854.865 C 541.931 853.569 537.704 850.973 535.776 849.72 L 536.085 762.946 z"/>
<path transform="translate(0,0)" fill="rgb(227,77,28)" d="M 536.085 762.946 L 543.636 764.512 C 596.446 790.223 656.733 825.266 708.901 853.546 L 1028.21 1027.04 L 1145.96 1091.15 C 1155.9 1096.53 1188.13 1115.11 1197.09 1118.84 C 1228.44 1124.73 1264.04 1108.93 1289.69 1092.76 C 1295.27 1089.24 1308.81 1082.05 1314.92 1080.76 C 1314.72 1104.06 1313.21 1150.82 1315.11 1172.78 C 1264.79 1198.71 1255.09 1211.15 1197.66 1208.98 C 1190.79 1206.93 1153.83 1186.13 1145.46 1181.6 L 1020.98 1114.18 L 543.565 854.865 C 541.931 853.569 537.704 850.973 535.776 849.72 L 536.085 762.946 z"/>
<path transform="translate(0,0)" fill="rgb(247,161,54)" d="M 544.705 774.245 C 573.033 787.849 607.294 808.08 635.367 823.392 L 798.283 912.071 L 1196.74 1128.37 C 1196.18 1148.8 1198.37 1181.45 1196.62 1199.64 C 1154.14 1175.65 1108.76 1152.06 1065.82 1128.72 L 701.48 930.959 C 648.974 902.988 596.68 874.619 544.604 845.854 C 543.489 826.141 544.515 794.592 544.705 774.245 z"/>
<path transform="translate(0,0)" fill="rgb(227,77,28)" d="M 633.913 1232.14 C 619.127 1239.15 604.644 1252.07 588.944 1247.92 C 577.354 1244.87 570.265 1237.66 564.103 1227.89 C 558.45 1219.08 554.846 1209.11 553.558 1198.72 C 552.586 1191.45 552.944 1176.91 552.971 1169.2 L 553.127 1122.18 C 553.219 1084.14 552.829 1046.1 553.012 1008.05 C 553.079 994.262 555.499 986.784 568.111 979.758 C 580.784 972.405 594.247 966.064 607.111 959.143 C 629.055 947.338 641.651 964.822 652.198 982.3 C 665.508 990.45 679.055 1013.06 682.458 1027.92 C 685.48 1041.11 684.671 1064.3 684.63 1078.64 L 684.513 1138.98 L 684.47 1198.05 C 684.454 1210.3 688.507 1246.86 672.233 1250.12 C 661.26 1252.32 643.403 1238.32 633.913 1232.14 z"/>
<path transform="translate(0,0)" fill="rgb(247,206,140)" d="M 652.198 982.3 C 665.508 990.45 679.055 1013.06 682.458 1027.92 C 685.48 1041.11 684.671 1064.3 684.63 1078.64 L 684.513 1138.98 L 684.47 1198.05 C 684.454 1210.3 688.507 1246.86 672.233 1250.12 C 661.26 1252.32 643.403 1238.32 633.913 1232.14 C 648.666 1224.46 660.029 1216.31 655.414 1196.87 C 651.931 1182.2 642.651 1172.01 629.798 1164.46 C 631.195 1156.8 630.693 1036.29 628.917 1029.26 C 631.457 1027.23 638.803 1023.89 642.094 1021.99 C 659.764 1011.81 657.756 1000.3 652.198 982.3 z"/>
<path transform="translate(0,0)" fill="rgb(254,250,227)" d="M 628.917 1029.26 C 630.693 1036.29 631.195 1156.8 629.798 1164.46 C 626.146 1165.44 620.627 1167.91 616.969 1169.41 L 616.927 1035.67 C 620.643 1033.43 625.028 1031.29 628.917 1029.26 z"/>
<path transform="translate(0,0)" fill="rgb(247,161,54)" d="M 571.788 990.093 C 612.689 992.961 607.168 1044.29 607.222 1072.64 L 607.218 1153.61 C 607.209 1177.13 607.813 1205.91 606.342 1229.64 C 606.07 1234.02 600.334 1237.74 596.857 1239.97 C 594.201 1239.78 591.68 1239.48 589.136 1238.65 C 578.938 1235.32 571.571 1226.89 566.952 1217.5 C 564.4 1212.31 562.794 1207.26 562.337 1201.47 C 560.935 1183.73 560.436 1004.69 563.248 997.49 C 564.826 993.449 568.016 991.738 571.788 990.093 z"/>
<path transform="translate(0,0)" fill="rgb(9,101,102)" d="M 884.828 1126.17 C 886.712 1127.12 888.592 1128.07 890.466 1129.04 C 906.25 1137.18 917.817 1144.86 923.616 1163.34 C 926.826 1173.56 926.212 1184.09 921.254 1193.65 C 908.886 1203.7 896.707 1193.58 884.665 1187.08 C 885.48 1168.28 884.696 1145.42 884.828 1126.17 z"/>
<path transform="translate(0,0)" fill="rgb(254,250,227)" d="M 892.734 1139.03 C 893.857 1139.44 894.967 1139.89 896.063 1140.37 C 913.725 1148.21 922.256 1168.21 914.124 1186.02 C 906.744 1191.42 900.117 1186.6 892.713 1183.16 C 892.378 1168.88 892.704 1153.4 892.734 1139.03 z"/>
<path transform="translate(0,0)" fill="rgb(9,101,102)" d="M 933.713 1347.68 C 943.442 1353.15 955.696 1358.2 963.226 1366.56 C 977.623 1382.54 963.889 1391 964.514 1393.66 C 964.79 1394.83 966.349 1396.99 966.947 1398.08 C 971.165 1405.77 972.315 1409.08 971.96 1417.9 C 970.623 1419.56 968.307 1422.58 966.166 1423.07 C 958.393 1424.83 941.668 1414.08 933.908 1410.29 C 934.146 1390.21 932.452 1367.39 933.713 1347.68 z"/>
<path transform="translate(0,0)" fill="rgb(254,250,227)" d="M 941.289 1386.17 C 955.78 1391.71 965.369 1396.64 962.939 1413.45 C 955.468 1413.61 947.974 1408.5 941.349 1404.84 L 941.289 1386.17 z"/>
<path transform="translate(0,0)" fill="rgb(254,250,227)" d="M 941.21 1361.1 C 953.092 1365.7 963.263 1369.88 961.034 1384.39 C 954.461 1385.98 947.65 1381.26 941.212 1378.08 L 941.21 1361.1 z"/>
<path transform="translate(0,0)" fill="rgb(9,101,102)" d="M 840.046 1102.51 C 852.779 1109.36 888.023 1124.82 869.904 1145.29 C 867.549 1147.95 875.765 1155.21 876.408 1159.19 C 876.99 1162.8 877.047 1164.67 876.969 1168.3 C 871.343 1184.39 849.755 1167.7 839.994 1162.17 L 840.046 1102.51 z"/>
<path transform="translate(0,0)" fill="rgb(254,250,227)" d="M 847.71 1139.86 C 861.559 1145.28 871.087 1150.27 868.413 1166.61 C 861.292 1165.86 853.485 1160.96 847.073 1157.53 L 847.71 1139.86 z"/>
<path transform="translate(0,0)" fill="rgb(254,250,227)" d="M 847.918 1115.36 C 859.231 1120.66 869.063 1124.05 866.211 1138.38 C 859.885 1138.17 853.092 1134.3 847.403 1131.47 C 847.19 1126.02 847.593 1120.79 847.918 1115.36 z"/>
<path transform="translate(0,0)" fill="rgb(9,101,102)" d="M 934.709 1252.76 C 957.199 1253.85 961.2 1282.68 960.138 1300.56 C 959.643 1308.89 957.474 1313.67 951.151 1318.9 C 923.932 1316.12 918.325 1267.91 934.709 1252.76 z"/>
<path transform="translate(0,0)" fill="rgb(254,250,227)" d="M 938.329 1261.25 C 956.662 1263.52 954.134 1297.82 948.34 1310.13 C 929.269 1309.83 931.991 1273.26 938.329 1261.25 z"/>
<path transform="translate(0,0)" fill="rgb(9,101,102)" d="M 1011.84 1293.91 C 1039.79 1295.3 1045.02 1346 1029.34 1359.54 C 1002.66 1358.39 995.408 1308.17 1011.84 1293.91 z"/>
<path transform="translate(0,0)" fill="rgb(254,250,227)" d="M 1016.18 1301.45 C 1033.9 1306.82 1033.18 1339.35 1025.05 1351.66 C 1007.66 1345.7 1007.33 1314.08 1016.18 1301.45 z"/>
<path transform="translate(0,0)" fill="rgb(9,101,102)" d="M 970.871 1273.84 C 977.49 1273.07 982.736 1274.87 987.819 1279.16 C 993.712 1284.18 997.197 1291.47 997.405 1299.21 C 997.569 1303.66 995.503 1304.72 992.765 1307.63 C 988.639 1312.01 1001.97 1322.35 999.249 1330.15 C 997.407 1335.43 996.53 1336.2 992.297 1339.24 C 976.585 1338.57 961.719 1322.66 964.742 1306.45 C 965.397 1302.94 969.209 1301.32 972.12 1299.32 C 971.865 1289.01 960.667 1287.2 970.871 1273.84 z"/>
<path transform="translate(0,0)" fill="rgb(254,250,227)" d="M 975.414 1306.66 C 978.128 1306.97 981.007 1307.22 983.299 1308.82 C 987.255 1311.53 989.928 1315.74 990.696 1320.47 C 991.498 1325.75 990.68 1326.96 987.642 1330.9 C 975.809 1328.48 968.075 1317.78 975.414 1306.66 z"/>
<path transform="translate(0,0)" fill="rgb(254,250,227)" d="M 975.777 1281.61 C 987.213 1282 992.409 1291.19 988.545 1301.6 C 976.9 1301.21 971.61 1292.25 975.777 1281.61 z"/>
<path transform="translate(0,0)" fill="rgb(9,101,102)" d="M 940.892 1157.8 C 942.396 1157.84 943.894 1158.02 945.365 1158.34 C 952.161 1159.73 963.995 1168.12 961.911 1175.76 C 955.542 1174.72 952.177 1165.91 943.325 1168.02 C 939.623 1171.24 939.268 1175.51 938.365 1180.33 L 939.135 1181.37 C 953.256 1180.5 956.791 1185.69 962.393 1198.31 C 964.469 1206.04 967.241 1225.49 953.11 1223.09 C 929.617 1219.09 921.892 1171.08 940.892 1157.8 z"/>
<path transform="translate(0,0)" fill="rgb(254,250,227)" d="M 941.83 1187.73 C 955.968 1190.81 960.107 1203.26 952.85 1215.24 C 940.796 1212 934.405 1197.99 941.83 1187.73 z"/>
<path transform="translate(0,0)" fill="rgb(9,101,102)" d="M 1024.61 1399.84 C 1066.74 1400.06 1057.12 1498.31 1021.33 1452.52 C 1019.46 1448.45 1019.49 1450.31 1019.95 1446.67 C 1024.26 1445.51 1031.15 1458.85 1040.32 1453.61 C 1042.4 1450.02 1044.82 1445.49 1043.94 1441.4 C 1042.95 1441.63 1038.59 1442.65 1037.75 1442.58 C 1025.67 1441.64 1017.98 1424.38 1018.56 1413.92 C 1018.97 1406.53 1020.05 1404.22 1024.61 1399.84 z"/>
<path transform="translate(0,0)" fill="rgb(254,250,227)" d="M 1029.85 1408.41 C 1042.46 1410.77 1048.44 1426.29 1040.48 1435.75 C 1026.71 1434.23 1021.85 1418.71 1029.85 1408.41 z"/>
<path transform="translate(0,0)" fill="url(#Gradient1)" d="M 896.475 1232 C 922.461 1236.82 928.44 1279.66 915.731 1292.69 C 913.508 1295 910.404 1296.26 907.196 1296.14 C 899.54 1295.83 894.603 1289.33 889.982 1284.02 C 889.681 1279.93 889.023 1281.44 890.735 1278.61 C 896.587 1278.63 899.162 1289.05 908.706 1286.97 C 911.73 1284.46 915.614 1277.38 913.153 1273.74 C 910.306 1272.71 905.603 1273.71 901.779 1273.29 C 889.264 1265.76 880.324 1240.76 896.475 1232 z"/>
<path transform="translate(0,0)" fill="rgb(254,250,227)" d="M 899.004 1240.64 C 911.768 1241.58 917.778 1258.1 909.268 1267.65 C 907.186 1267.22 905.151 1266.83 903.341 1265.68 C 899.398 1263.12 896.641 1259.1 895.682 1254.5 C 894.479 1248.51 895.744 1245.41 899.004 1240.64 z"/>
<path transform="translate(0,0)" fill="rgb(9,101,102)" d="M 861.64 1213.11 C 871.217 1214.58 877.119 1219.25 881.245 1228.04 C 880.867 1231.23 881.581 1229.96 879.734 1232.23 C 873.54 1231.28 870.984 1219.54 862.771 1222.36 C 859.307 1226.13 858.162 1231.14 857.686 1236.14 C 860.784 1237.24 865.558 1235.31 869.587 1237.19 C 876.767 1240.52 880.285 1249.33 882.773 1256.16 C 883.882 1264.41 884.879 1281.62 869.739 1277.34 C 849.388 1271.6 841.438 1221.51 861.64 1213.11 z"/>
<path transform="translate(0,0)" fill="rgb(254,250,227)" d="M 860.749 1242.76 C 875.244 1243.13 880.06 1259.38 873.062 1270.54 C 859.99 1268.57 854.094 1253.35 860.749 1242.76 z"/>
<path transform="translate(0,0)" fill="rgb(9,101,102)" d="M 999.313 1382.58 C 1002.6 1384.01 1002.76 1383.9 1005.48 1386.45 C 1008.74 1393.63 1006.97 1417.11 1006.9 1427 C 1011.12 1428.9 1013.56 1429.58 1015.04 1434.17 C 1013.43 1437.19 1014.62 1436.33 1011.93 1437.51 L 1007.71 1435.58 C 1005.98 1437.89 1006.84 1442.66 1006.07 1447.3 L 1004.37 1448.17 C 1001.68 1446.85 1001.01 1445.81 999.021 1443.63 L 999.898 1431.1 C 992.605 1426.81 978.717 1422.03 976.147 1413.4 C 976.452 1407.18 993.366 1389.99 999.313 1382.58 z"/>
<path transform="translate(0,0)" fill="rgb(254,250,227)" d="M 998.619 1397.69 C 1000.22 1402.31 999.686 1417.36 999.652 1423.12 L 991.548 1418.31 C 987.598 1416.05 986.968 1416.64 985.702 1413.39 C 987.766 1408.09 994.519 1402.25 998.619 1397.69 z"/>
<path transform="translate(0,0)" fill="rgb(9,101,102)" d="M 783.616 1172.24 C 796.391 1176.6 785.339 1182.02 788.663 1190.91 C 792.276 1193.22 791.411 1193.39 795.155 1193.63 C 798.376 1190 795.514 1185.18 798.58 1180.22 C 809.049 1181.38 801.292 1190.88 802.419 1197.5 C 806.556 1201.13 807.672 1201.22 808.201 1206.09 L 807.143 1207.05 L 802.068 1206.37 C 796.389 1210.52 799.697 1217.75 804.195 1221.56 C 806.097 1223.18 805.439 1224.8 805.193 1226.77 L 803.726 1227.88 C 801.445 1227.03 800.458 1226.68 798.098 1226.13 C 795.004 1229.97 798.943 1233.72 794.012 1239.15 C 792.812 1238.04 792.082 1237.14 791.006 1235.91 C 790.022 1231.29 791.143 1226.74 791.859 1221.98 L 783.269 1216.57 C 783.276 1220.78 783.554 1223.76 782.339 1227.84 C 779.827 1230.59 781.288 1230 778.092 1230.28 C 776.78 1228.44 776.564 1227.4 777.178 1225.01 C 779.892 1214.43 771.235 1211.41 772.369 1205.21 C 775.591 1205.1 776.384 1205.41 779.051 1203.66 C 783.264 1196.2 781.644 1194.05 775.262 1190.95 C 773.351 1187.66 773.888 1189.47 774.23 1185.2 C 777.864 1183.42 776.297 1186.19 781.34 1186.32 C 783.284 1182.28 783.25 1176.87 783.616 1172.24 z"/>
<path transform="translate(0,0)" fill="rgb(254,250,227)" d="M 786.643 1198.38 C 789.352 1199.03 790.612 1199.74 793.081 1200.91 C 795.873 1205.65 794.423 1209.02 793.517 1214.92 C 790.688 1213.69 787.093 1211.5 784.331 1209.95 C 784.93 1206.11 785.833 1202.19 786.643 1198.38 z"/>
<path transform="translate(0,0)" fill="rgb(9,101,102)" d="M 771.47 1065.3 C 774.611 1066.49 775.037 1066.32 776.897 1069.14 C 778.008 1076.02 772.966 1077.46 775.802 1083.79 C 779.146 1086.28 777.417 1085.94 781.004 1085.51 C 783.327 1083.46 786.876 1076.81 787.666 1073.9 L 790.406 1075.18 C 792.059 1080.25 790.356 1084.42 789.058 1089.8 C 791.748 1091.75 795.242 1094 795.657 1097.43 C 788.62 1099.82 784.939 1103.26 787.272 1111.15 C 789.818 1112.37 791.504 1112.83 793.041 1115.17 C 792.976 1117.95 793.29 1118.17 791.693 1120.32 C 789.056 1119.52 789.202 1119.5 786.464 1119.64 C 783.824 1123.32 784.41 1125.74 783.914 1130.76 L 780.991 1130.71 C 773.441 1125.9 785.469 1111.2 772.426 1111.61 C 769.501 1115.14 771.645 1118.03 769.4 1123.72 L 767.221 1123.68 C 760.595 1118.24 767.041 1116.05 765.553 1107.04 C 763.872 1105.79 763.198 1105.36 761.378 1104.42 L 759.751 1103.6 C 758.595 1100.94 758.628 1101.15 758.948 1098.27 L 760.204 1097.58 C 763.032 1098.28 763.713 1098.56 766.67 1098.63 C 769.909 1091.9 768.748 1089.35 763.745 1084.43 L 762.777 1083.5 C 761.846 1079.79 761.687 1081.5 762.924 1078.16 C 766.006 1078.44 765.965 1078.68 768.657 1077.31 C 771.229 1073.94 771.032 1069.73 771.47 1065.3 z"/>
<path transform="translate(0,0)" fill="rgb(254,250,227)" d="M 774.43 1090.45 C 777.854 1092.07 779.015 1092.32 781.373 1095.34 C 782.708 1099.43 781.467 1102.77 780.569 1107.12 C 777.138 1105.75 776.447 1105.67 773.781 1102.98 C 772.23 1099.01 773.62 1094.87 774.43 1090.45 z"/>
<path transform="translate(0,0)" fill="rgb(9,101,102)" d="M 1034.11 1206.44 C 1051.22 1212.94 1036.66 1237.18 1043.18 1250.71 C 1045.86 1252.09 1047.35 1252.48 1048.81 1255.1 C 1048.94 1259.18 1049.6 1257.72 1048.01 1260.81 C 1046.08 1260.38 1044.45 1259.47 1042.72 1258.54 C 1039.82 1261.9 1043.32 1264.26 1040.71 1270.04 C 1037.54 1270.6 1038.2 1270.18 1034.58 1268.31 L 1034.86 1254.22 L 1029.18 1251.32 C 1022.58 1247.94 1014.93 1245.08 1012.58 1237.79 C 1012.96 1231.16 1028.26 1214.41 1034.11 1206.44 z"/>
<path transform="translate(0,0)" fill="rgb(254,250,227)" d="M 1033.97 1219.82 C 1035.16 1224.84 1034.89 1240.55 1034.89 1246.43 L 1025.48 1241.41 L 1019.12 1238.05 C 1024.86 1231.66 1028.78 1226.7 1033.97 1219.82 z"/>
<path transform="translate(0,0)" fill="rgb(9,101,102)" d="M 894.028 1327.55 C 899.712 1330.7 927.063 1342.27 921.994 1350.26 C 915.34 1348.33 906.975 1343.21 901.072 1339.65 C 901.001 1344.45 900.539 1349.73 900.222 1354.56 C 920.201 1358.19 935.824 1386.71 917.162 1399.08 C 905.837 1398.26 893.093 1389.28 890.696 1377.91 L 892.511 1375.71 L 892.389 1375.72 C 899.778 1377.41 901.29 1389.58 912.073 1389.79 C 917.9 1386.49 917.7 1382.15 916.659 1376.31 C 914.179 1362.4 903.168 1365.7 894.91 1360.38 C 891.978 1356.29 894.047 1334.72 894.028 1327.55 z"/>
<path transform="translate(0,0)" fill="rgb(9,101,102)" d="M 815.167 1187.62 C 822.287 1191.19 836.364 1199.01 842.293 1203.66 C 843.715 1207.47 843.334 1205.46 842.638 1210.06 C 838.408 1210.36 826.44 1201.82 822.027 1198.99 L 821.818 1215.71 C 837.538 1217.73 847.62 1232.15 844.882 1248.47 C 844.103 1253.12 840.762 1256.14 836.746 1258.5 C 825.205 1257.58 815.682 1248.85 811.465 1238.42 C 812.336 1235.91 811.498 1236.81 813.76 1235.46 C 819.371 1237.16 821.124 1244.93 829.206 1248.74 C 838.385 1248.78 838.778 1240.18 835.925 1233.22 C 830.521 1220.04 825.05 1226.21 817.458 1222.1 C 812.2 1215.72 814.692 1196.79 815.167 1187.62 z"/>
<path transform="translate(0,0)" fill="rgb(9,101,102)" d="M 814.813 1289.03 C 830.828 1287.06 846.379 1304.14 843.23 1319.85 C 841.409 1328.93 828.101 1336.51 820.488 1341.19 C 827.805 1344.6 844.081 1350.52 846.028 1358.25 L 844.628 1359.69 C 840.552 1360.83 842.208 1360.77 837.469 1358.33 C 829.646 1353.54 812.001 1347.79 809.932 1339.81 C 813.016 1328.67 840.031 1324.91 835.196 1308.53 C 830.759 1293.5 814.574 1303.89 811.259 1294.4 C 812.29 1290.48 811.433 1292.35 814.813 1289.03 z"/>
<path transform="translate(0,0)" fill="rgb(9,101,102)" d="M 857.227 1308.95 C 872.016 1310.57 885.143 1325.53 882.432 1340.78 C 880.883 1349.49 867.08 1357.58 859.821 1362.66 C 865.741 1365.42 886.611 1373.03 885.207 1380.68 C 881.079 1383.27 879.241 1381.04 875.504 1378.96 C 868.37 1374.9 851.856 1368.14 849.74 1361.54 C 852.724 1350.96 874.811 1346.41 875.809 1333.3 C 876.266 1327.3 867.421 1319.23 861.477 1318.94 C 859.001 1320.14 857.805 1321.05 855.087 1320.74 C 852.322 1318.37 852.085 1317.15 850.648 1313.85 C 851.795 1311.19 854.032 1310.76 857.227 1308.95 z"/>
<path transform="translate(0,0)" fill="rgb(9,101,102)" d="M 982.867 1180.19 C 993.232 1181.61 1003.98 1189.58 1008.22 1199.11 C 1007.89 1202.64 1008.62 1201.16 1005.74 1203.58 C 1000.28 1203.22 991.165 1184.67 980.74 1190.74 C 976.831 1196.28 976.889 1205.61 977.391 1212.29 C 978.158 1222.48 983.644 1230.12 991.143 1236.57 C 992.787 1237.37 994.189 1237.77 995.938 1238.37 C 999.367 1237.51 1001.1 1236.74 1004.57 1237.49 C 1013.92 1244.74 1006.16 1252.48 992.928 1245.9 C 973.301 1236.14 954.701 1188.44 982.867 1180.19 z"/>
<path transform="translate(0,0)" fill="rgb(9,101,102)" d="M 798.63 1081.31 C 805.199 1083.05 825.548 1094.99 832.871 1099.11 C 831.061 1106.39 817.551 1137.73 813.996 1146.65 C 810.043 1147.65 807.92 1146.44 806.594 1142.89 C 807.964 1133.3 818.638 1111.98 823.266 1101.92 C 816.521 1098.36 807.898 1094.6 801.955 1090.27 C 798.33 1087.62 798.903 1085.37 798.63 1081.31 z"/>
<path transform="translate(0,0)" fill="rgb(254,250,227)" d="M 572.919 245.24 C 585.639 246.885 597.007 248.137 608.603 254.031 C 641.091 270.544 673.449 288.649 705.482 306.045 C 767.672 339.423 829.664 373.167 891.455 407.278 L 1055.93 497.139 C 1082.14 511.503 1109.56 525.862 1135.39 540.912 C 1144.69 546.334 1157.46 561.337 1164.08 569.794 C 1180.17 590.371 1192.17 619.568 1196.49 645.311 C 1198.33 656.322 1197.92 676.571 1197.93 688.395 L 1197.94 750.622 L 1197.94 974.562 L 1198.01 1076.07 C 1198.02 1081.87 1198.74 1114.92 1197.09 1118.84 C 1188.13 1115.11 1155.9 1096.53 1145.96 1091.15 L 1028.21 1027.04 L 708.901 853.546 C 656.733 825.266 596.446 790.223 543.636 764.512 C 544.383 751.085 543.946 733.33 543.956 719.617 L 543.939 641.398 L 543.542 393.869 C 543.572 367.104 539.889 296.407 547.127 273.703 C 551.554 259.813 560.394 251.803 572.919 245.24 z"/>
<path transform="translate(0,0)" fill="rgb(227,77,28)" d="M 635.496 762.214 C 609.654 776.217 593.255 791.929 568.742 762.844 C 561.187 753.827 556.113 742.995 554.023 731.418 C 552.317 721.436 552.911 706.186 552.956 695.764 L 553.15 640.343 L 552.994 574.74 C 552.951 563.955 551.997 535.676 555.135 527.24 C 558.802 517.384 610.12 491.31 621.62 491.217 C 632.985 491.125 645.321 507.507 651.278 516.03 C 666.331 525.72 683.871 553.326 684.603 570.92 C 685.693 597.109 685.109 625.463 685.064 651.731 L 684.903 726.878 C 684.811 738.717 685 757.455 683.831 768.627 C 672.516 787.009 658.166 777.958 643.85 768.087 C 641.051 766.15 638.266 764.192 635.496 762.214 z"/>
<path transform="translate(0,0)" fill="rgb(247,206,140)" d="M 651.278 516.03 C 666.331 525.72 683.871 553.326 684.603 570.92 C 685.693 597.109 685.109 625.463 685.064 651.731 L 684.903 726.878 C 684.811 738.717 685 757.455 683.831 768.627 C 672.516 787.009 658.166 777.958 643.85 768.087 C 641.051 766.15 638.266 764.192 635.496 762.214 C 641.967 758.766 649.718 755.14 652.955 748.324 C 663.391 726.353 647.868 706.142 630.101 695.897 C 630.537 692.013 630.541 672.12 630.201 668.773 C 628.794 654.915 632.481 570.284 628.243 564.261 C 635.428 559.091 649.503 555.664 654.189 545.57 C 658.494 536.296 654.442 525.012 651.278 516.03 z"/>
<path transform="translate(0,0)" fill="rgb(254,250,227)" d="M 628.243 564.261 C 632.481 570.284 628.794 654.915 630.201 668.773 C 630.541 672.12 630.537 692.013 630.101 695.897 C 625.231 696.752 621.673 698.501 617.115 700.385 L 616.886 570.17 L 628.243 564.261 z"/>
<path transform="translate(0,0)" fill="rgb(247,161,54)" d="M 568.565 526.009 C 588.268 524.102 602.757 541.391 605.67 559.538 C 608.166 575.085 607.177 593.38 607.184 609.375 L 607.046 689.097 C 606.981 711.71 607.561 735.811 606.765 758.472 C 606.601 763.161 602.329 766.646 598.953 769.427 C 590.145 771.242 581.766 766.03 575.891 760.038 C 571.419 755.561 563.414 742.265 562.832 735.69 C 561.248 717.786 561.808 699.265 561.803 681.272 C 561.792 634.019 561.691 586.729 562.061 539.481 C 562.116 532.527 563.689 530.628 568.565 526.009 z"/>
<path transform="translate(0,0)" fill="rgb(9,101,102)" d="M 799.827 549.966 C 816.809 552.144 837.061 574.117 821.663 589.579 L 820.739 590.493 C 821.083 598.343 841.322 616.641 819.892 625.073 C 808.761 623.306 799.579 616.248 794.06 607.091 C 788.945 598.603 786.648 584.737 797.501 580.067 C 801.674 578.271 788.297 563.238 792.643 556.47 C 795.495 552.028 793.987 552.571 799.827 549.966 z"/>
<path transform="translate(0,0)" fill="rgb(254,250,227)" d="M 802.839 588.571 C 815.483 588.723 822.485 603.108 816.449 613.432 C 803.785 612.174 795.765 600.056 802.839 588.571 z"/>
<path transform="translate(0,0)" fill="rgb(254,250,227)" d="M 805.02 560.444 C 815.383 564.198 821.482 572.08 814.239 582.216 C 812.29 581.746 810.227 581.267 808.598 580.067 C 805.194 577.56 802.895 573.83 802.185 569.662 C 801.398 565.111 802.413 563.965 805.02 560.444 z"/>
<path transform="translate(0,0)" fill="rgb(9,101,102)" d="M 713.599 502.083 C 723.358 505.948 719.509 513.071 717.7 521.951 L 727.217 527.12 C 727.836 522.526 727.981 512.384 733.613 512.083 C 737.312 518.961 735.723 522.484 734.151 530.165 C 736.36 531.591 737.419 532.419 739.461 534.091 C 740.98 537.347 741.149 537.272 741.073 541.022 L 739.609 541.992 C 737.618 541.443 737.31 541.237 735.6 540.185 L 734.026 539.205 C 732.3 541.104 731.359 548.527 730.712 551.697 C 734.086 553.065 736.024 553.411 738.066 556.387 C 738.656 560.061 738.677 559.802 737.696 563.389 L 736.213 563.722 C 734.081 562.342 733.035 561.263 730.573 561.226 C 727.765 566.897 730.507 571.448 726.508 576.353 C 723.863 575.062 723.829 575.254 722.052 572.98 C 721.219 568.029 722.905 562.251 723.586 557.069 L 714.432 552.721 C 713.818 557.172 713.548 564.253 711.381 567.755 C 699.457 565.18 709.611 553.975 707.221 547.814 C 704.988 546.839 703.542 546.121 701.397 544.96 C 699.868 542.427 700.305 541.71 700.61 538.707 C 703.519 534.409 701.23 539.471 708.102 537.381 C 710.368 534.506 710.184 529.845 710.506 525.991 C 707.512 524.66 704.938 523.979 703.121 521.375 C 702.294 518.031 701.943 517.837 703.133 514.555 C 706.144 513.723 706.791 514.877 710.506 516.536 C 712.291 515.028 712.922 505.8 713.599 502.083 z"/>
<path transform="translate(0,0)" fill="rgb(254,250,227)" d="M 717.242 530.367 C 720.655 531.751 722.27 532.079 724.781 534.808 C 726.456 538.968 725.247 543.503 724.619 548.159 C 720.303 547.355 718.938 546.862 716.458 543.821 C 715.207 539.392 716.466 535.053 717.242 530.367 z"/>
<path transform="translate(0,0)" fill="rgb(9,101,102)" d="M 933.935 624.061 C 948.613 624.262 958.176 633.843 965.593 645.397 C 965.928 648.731 966.247 647.168 964.317 650.177 C 955.786 654.452 954.871 638.419 941.254 635.809 C 932.275 637.137 930.004 649.613 931.084 657.117 C 932.881 669.598 936.909 677.572 946.681 685.572 C 947.32 685.885 947.966 686.184 948.618 686.469 C 953.884 688.722 955.738 687.165 961.256 684.9 C 963.919 688.882 967.879 692.629 965.463 697.048 C 934.905 712.144 900.559 639.177 933.935 624.061 z"/>
<path transform="translate(0,0)" fill="rgb(9,101,102)" d="M 975.568 645.015 C 981.245 647.531 1003.06 659.376 1006.54 663.68 C 1006.82 666.151 1007.29 667.879 1006.43 670.189 C 1001.9 670.968 988.905 662.14 984.13 659.252 C 983.972 664.18 983.897 667.923 984.125 672.886 C 987.406 677.62 1004.83 680.441 1006.96 694.847 C 1008.63 706.174 1014.14 720.335 997.974 723.508 C 987.383 720.176 969.717 707.85 973.444 695.101 C 981.433 693.786 980.99 706.92 992.557 712.159 C 1004.59 711.35 999.956 694.828 995.064 688.551 C 990.388 682.552 980.716 684.623 977.75 680.912 C 972.26 674.044 975.086 654.018 975.568 645.015 z"/>
<path transform="translate(0,0)" fill="rgb(9,101,102)" d="M 747.946 521.026 C 753.19 522.844 782.154 537.583 785.259 541.766 C 785.605 545.236 785.767 545.325 784.934 548.853 C 780.156 549.651 763.993 539.966 758.928 537.236 L 758.689 554.637 C 766.309 558.71 773.898 562.841 781.456 567.029 C 782.202 567.688 782.701 568.629 783.291 569.513 C 783.336 572.741 783.733 573.14 782.5 575.925 C 777.092 575.947 764.267 567.889 758.845 564.805 L 758.712 593.177 L 748.54 587.884 C 749.08 566.178 747.969 542.987 747.946 521.026 z"/>
<path transform="translate(0,0)" fill="rgb(9,101,102)" d="M 836.765 568.602 C 843.771 572.415 869.184 584.985 873.151 589.568 C 873.782 593.086 874 593.32 873.496 596.965 C 868.472 597.852 852.216 587.535 846.971 584.564 L 846.982 602.854 C 854.885 606.643 861.899 610.386 869.602 614.585 L 870.762 616.143 C 871.259 619.16 871.595 619.787 870.935 622.79 L 869.117 623.51 C 862.971 622.078 852.988 615.889 847.004 612.631 L 847.22 641.109 L 837.13 636.103 L 836.765 568.602 z"/>
<path transform="translate(0,0)" fill="rgb(9,101,102)" d="M 879.261 591.594 C 888.067 596.365 909.326 605.68 914.773 614.442 C 915.536 615.67 915.278 620.175 914.592 621.662 C 907.754 636.501 901.583 651.513 895.446 666.668 C 892.964 667.467 886.805 663.051 884.393 661.656 C 891.201 647.863 898.654 629.71 904.584 615.324 C 897.075 611.373 886.617 607.292 880.729 601.618 C 878.238 599.217 879.156 595.224 879.261 591.594 z"/>
<path transform="translate(0,0)" fill="rgb(247,206,140)" d="M 572.919 245.24 C 593.325 233.554 653.893 199.075 673.765 194.327 C 682.39 192.266 690.053 192.663 698.513 195.033 C 721.243 201.401 764.709 227.978 786.925 240.053 L 959.024 333.764 L 1149.81 437.79 L 1207.07 469.248 C 1245.9 490.643 1270.92 505.188 1292.51 546.469 C 1306.5 573.231 1313.49 596.051 1313.32 626.356 C 1313.72 660.95 1315.2 708.355 1313.63 742.072 C 1312.6 745.716 1312.65 811.268 1313.95 815.761 C 1312.85 821.38 1314.06 835.136 1313.78 841.897 C 1312.75 867.193 1316.03 904.891 1313.07 928.986 L 1313.3 977.634 C 1313.33 983.957 1313.8 997.24 1313.27 1003.12 C 1314.3 1024.09 1313.43 1045.9 1314.37 1066.98 C 1314.53 1070.68 1315.12 1077.24 1314.92 1080.76 C 1308.81 1082.05 1295.27 1089.24 1289.69 1092.76 C 1264.04 1108.93 1228.44 1124.73 1197.09 1118.84 C 1198.74 1114.92 1198.02 1081.87 1198.01 1076.07 L 1197.94 974.562 L 1197.94 750.622 L 1197.93 688.395 C 1197.92 676.571 1198.33 656.322 1196.49 645.311 C 1192.17 619.568 1180.17 590.371 1164.08 569.794 C 1157.46 561.337 1144.69 546.334 1135.39 540.912 C 1109.56 525.862 1082.14 511.503 1055.93 497.139 L 891.455 407.278 C 829.664 373.167 767.672 339.423 705.482 306.045 C 673.449 288.649 641.091 270.544 608.603 254.031 C 597.007 248.137 585.639 246.885 572.919 245.24 z"/>
<path transform="translate(0,0)" fill="rgb(247,206,140)" d="M 1197.66 1208.98 C 1255.09 1211.15 1264.79 1198.71 1315.11 1172.78 C 1313.83 1199.76 1315.4 1235.9 1313.4 1260.56 C 1312.22 1284.99 1314.15 1310.81 1313.22 1334.68 C 1313.75 1349.89 1313.89 1362.79 1313.1 1377.93 C 1312.93 1401.09 1313.96 1429.28 1313.04 1451.69 C 1313.88 1485.28 1315.5 1542.02 1313.07 1575.05 C 1312.95 1599.67 1312.98 1624.29 1313.17 1648.91 C 1312.6 1662.98 1313.61 1681.12 1313.73 1695.58 C 1313.73 1721.39 1313.47 1747.19 1312.95 1772.99 L 1313.1 1820.17 C 1313.14 1840.95 1315.39 1883.05 1298.13 1896.99 C 1278.34 1912.98 1244.06 1929.59 1221.17 1942.17 C 1202.28 1952.54 1182.09 1939.9 1165.86 1929.74 C 1189.02 1923.76 1196.76 1910.21 1197.62 1886.75 C 1198.67 1858.31 1197.91 1829.48 1197.89 1800.99 L 1197.89 1629.65 L 1197.85 1336.65 C 1197.78 1294.87 1198.67 1250.53 1197.66 1208.98 z"/>
<path transform="translate(0,0)" fill="rgb(248,216,166)" d="M 1313.27 1003.12 C 1320.89 1000.17 1327.7 996.711 1335.01 993.118 C 1336.37 1054.09 1334.65 1116.34 1335.32 1177.44 C 1335.59 1201.47 1334.65 1225.99 1335.61 1249.98 C 1327.44 1254.32 1322.1 1257.27 1313.4 1260.56 C 1315.4 1235.9 1313.83 1199.76 1315.11 1172.78 C 1313.21 1150.82 1314.72 1104.06 1314.92 1080.76 C 1315.12 1077.24 1314.53 1070.68 1314.37 1066.98 C 1313.43 1045.9 1314.3 1024.09 1313.27 1003.12 z"/>
<path transform="translate(0,0)" fill="rgb(248,216,166)" d="M 1313.17 1648.91 C 1320.47 1645.43 1327.75 1641.78 1335.37 1639.08 C 1338.5 1677.88 1334.6 1723.14 1335.21 1762.48 C 1335.36 1771.9 1320.61 1774.3 1312.95 1772.99 C 1313.47 1747.19 1313.73 1721.39 1313.73 1695.58 C 1313.61 1681.12 1312.6 1662.98 1313.17 1648.91 z"/>
<path transform="translate(0,0)" fill="rgb(248,216,166)" d="M 1313.04 1451.69 L 1335.14 1442.02 C 1336.28 1454.15 1336.21 1468.23 1335.93 1480.49 C 1335.28 1508.59 1336.62 1537.45 1335.57 1565.47 C 1327.43 1569.64 1321.87 1572.31 1313.07 1575.05 C 1315.5 1542.02 1313.88 1485.28 1313.04 1451.69 z"/>
<path transform="translate(0,0)" fill="rgb(248,216,166)" d="M 1313.32 626.356 C 1318.1 622.753 1329.97 613.122 1335 619.551 C 1336.47 630.017 1335.42 642.942 1335.66 653.727 C 1336.2 678.528 1334.49 705.96 1335.65 730.528 L 1313.63 742.072 C 1315.2 708.355 1313.72 660.95 1313.32 626.356 z"/>
<path transform="translate(0,0)" fill="rgb(248,216,166)" d="M 1313.95 815.761 C 1320.52 812.854 1328.61 809.022 1335.21 806.608 C 1337.37 840.877 1334.44 881.843 1335.82 917.301 C 1328.79 921.579 1320.53 925.357 1313.07 928.986 C 1316.03 904.891 1312.75 867.193 1313.78 841.897 C 1314.06 835.136 1312.85 821.38 1313.95 815.761 z"/>
<path transform="translate(0,0)" fill="rgb(248,216,166)" d="M 1313.22 1334.68 L 1335.59 1324.29 C 1335.44 1338.39 1335.12 1352.82 1335.18 1366.89 C 1328.91 1371.16 1320.15 1374.85 1313.1 1377.93 C 1313.89 1362.79 1313.75 1349.89 1313.22 1334.68 z"/>
</svg>