<svg version="1.1" xmlns="http://www.w3.org/2000/svg" style="display: block;" viewBox="0 0 2048 2048" width="1024" height="1024" preserveAspectRatio="none">
<path transform="translate(0,0)" fill="rgb(219,178,112)" d="M 921.348 190.275 C 927.363 190.368 933.558 191.491 938.914 194.243 C 973.51 212.017 1007.59 231.266 1041.8 249.685 L 1276.79 378.042 L 1447.02 470.619 C 1476.45 486.567 1506.91 502.45 1535.41 519.227 C 1552.82 529.479 1569.62 558.825 1570.46 578.838 C 1571.63 606.604 1571.05 636.937 1571.04 664.975 L 1571.04 852.284 L 1571 1310.51 C 1571.02 1388.85 1571.14 1467.2 1570.91 1545.54 C 1570.88 1556.45 1566.14 1571.16 1556.13 1576.88 C 1540.5 1585.82 1524.45 1594.04 1508.76 1602.89 L 1368.05 1681.98 L 1205.18 1773.05 C 1184.68 1784.51 1146 1810.9 1125.08 1815.23 L 1117.74 1812.63 C 1102.7 1806.63 1076.99 1791.97 1062.51 1783.87 L 983.262 1739.42 L 737.317 1601.92 L 573.881 1510.01 L 524.071 1482.2 C 515.862 1477.61 502.768 1470.59 495.388 1465.39 C 481.146 1455.35 466.083 1430.31 463.76 1413.07 C 462.654 1404.87 463.031 1386.6 463.039 1377.58 L 463.049 1318.06 L 463.065 1105.83 L 463.016 672.524 C 463.124 604.133 463.078 535.714 463.567 467.346 C 463.727 444.989 471.771 440.084 489.708 429.543 C 513.009 415.851 536.964 403.25 560.437 389.871 L 765.56 274.845 C 813.911 248.092 861.282 219.351 910.081 193.371 C 914.154 191.203 916.807 190.661 921.348 190.275 z"/>
<path transform="translate(0,0)" fill="rgb(254,245,224)" d="M 470.827 614.756 C 521.849 641.883 572.601 669.514 623.076 697.646 L 1134.48 978.561 C 1133.01 1035.79 1134.63 1098.96 1134.5 1156.73 L 1134.8 1601.16 L 1134.88 1718.55 C 1134.87 1732.54 1136.26 1789.75 1132.4 1800.51 C 1122.85 1809.77 1113.12 1803.39 1102.92 1797.91 C 1056.95 1773.22 1011.8 1746.97 966.193 1721.62 L 643.842 1540.88 L 557.308 1492.34 C 526.255 1474.98 487.334 1460.5 474.398 1425.94 C 468.881 1411.19 470.013 1396.86 470.019 1381.44 L 470.017 1333.89 L 470.031 1164.34 L 470.086 837.978 C 469.637 763.57 469.884 689.159 470.827 614.756 z"/>
<path transform="translate(0,0)" fill="rgb(12,99,98)" d="M 701.503 853.421 C 751.608 850.01 814.176 882.24 853.322 913.033 C 955.543 993.443 1030.74 1125.54 1047.51 1254.51 C 1055.44 1315.52 1050.66 1389.78 1011.88 1440.01 C 996.022 1461.85 974.757 1469.98 952.261 1482.02 C 928.471 1494.74 918.389 1498.78 891.254 1501.9 C 705.719 1508.57 548.168 1244.83 540.3 1081.47 C 536.687 1006.45 547.844 929.437 617.908 886.999 C 653.56 865.405 656.924 856.503 701.503 853.421 z"/>
<path transform="translate(0,0)" fill="rgb(64,192,184)" d="M 673.72 880.429 C 730.595 876.202 795.679 912.704 838.104 949.135 C 935.458 1033.61 1000.34 1156.08 1012.9 1284.47 C 1021.37 1371.08 993.391 1484.34 890.249 1493.03 C 831.553 1497.84 769.38 1464.27 725.49 1426.6 C 628.675 1342.17 561.27 1215.56 548.323 1087.63 C 539.288 998.35 568.314 888.2 673.72 880.429 z"/>
<path transform="translate(0,0)" fill="rgb(12,99,98)" d="M 694.739 944.408 C 718.308 940.953 755.831 952.884 776.602 963.659 C 852.267 1002.91 919.628 1093.14 945.506 1173.11 C 921.374 1192.82 916.624 1228.51 916.909 1257.85 C 917.297 1297.78 931.811 1333.95 949.303 1369.08 C 934.439 1401.7 910.986 1418.94 876.507 1426.82 C 873.97 1427.19 871.424 1427.5 868.873 1427.76 C 821.012 1432.48 772.938 1406.35 737.109 1376.41 C 660.7 1312.57 605.953 1210.58 596.078 1111.44 C 591.752 1068.02 598.78 1014.37 627.629 979.965 C 644.871 959.402 667.99 946.874 694.739 944.408 z"/>
<path transform="translate(0,0)" fill="rgb(173,229,224)" d="M 636.003 1154.2 C 622.074 1099.6 613.899 982.471 687.483 954.315 C 713.833 944.233 768.241 965.284 789.478 979.498 C 858.553 1023.67 907.69 1094.21 936.847 1169.17 C 917.326 1186.63 910.968 1216.86 909.605 1241.94 C 908.746 1261.19 910.421 1280.46 914.586 1299.27 C 921.429 1325.2 928.484 1345.17 941.351 1368.92 C 940.624 1370.33 939.869 1371.73 939.085 1373.11 C 930.758 1387.9 921.326 1396.92 904.587 1401.15 C 868.276 1410.33 828.523 1399.35 797.241 1380.45 C 717.938 1332.55 659.276 1242.32 636.003 1154.2 z"/>
<path transform="translate(0,0)" fill="rgb(64,192,184)" d="M 636.003 1154.2 C 648.021 1151.31 661.798 1148.77 673.522 1145.26 C 701.349 1136.94 725.316 1127.69 754.477 1137.09 C 822.617 1159.06 854.21 1229.02 897.09 1280.24 C 902.554 1286.77 907.385 1294.11 913.432 1300.18 L 914.586 1299.27 C 921.429 1325.2 928.484 1345.17 941.351 1368.92 C 940.624 1370.33 939.869 1371.73 939.085 1373.11 C 930.758 1387.9 921.326 1396.92 904.587 1401.15 C 868.276 1410.33 828.523 1399.35 797.241 1380.45 C 717.938 1332.55 659.276 1242.32 636.003 1154.2 z"/>
<path transform="translate(0,0)" fill="rgb(254,245,224)" d="M 729.507 996.302 C 747.706 993.741 801.193 999.405 798.009 1026.4 C 792.418 1034.17 777.267 1022.33 768.279 1020.38 C 725.338 1011.07 695.777 1026.97 678.677 1066.76 C 670.434 1089.15 674.002 1097.8 670.305 1117.2 C 669.095 1118.78 667.888 1120.75 665.58 1120.74 C 647.318 1120.4 652.811 1092.75 653.993 1081.46 C 657.499 1048 675.708 1013.82 708.619 1001.56 C 715.942 998.837 721.686 997.485 729.507 996.302 z"/>
<path transform="translate(0,0)" fill="rgb(219,178,112)" d="M 970.984 1608.89 C 972.802 1608.75 974.649 1608.62 976.472 1608.76 C 982.469 1609.21 1064.85 1655.63 1074.89 1662.23 C 1079.64 1665.35 1085.01 1669.36 1088.39 1673.95 C 1098.16 1687.21 1094.7 1710.96 1094.75 1726.39 C 1094.77 1733.99 1095.54 1742.06 1094.53 1749.59 C 1093.57 1756.75 1091.68 1760.05 1085.96 1764.33 C 1085.17 1764.33 1084.38 1764.34 1083.59 1764.3 C 1079.94 1764.15 1077.23 1763.26 1073.91 1761.78 C 1060.09 1755.64 977.435 1709.76 970.031 1701.22 C 958.747 1688.21 962.42 1662.97 962.286 1647.04 C 962.221 1639.3 961.01 1630.98 962.013 1623.32 C 962.935 1616.27 965.331 1613.02 970.984 1608.89 z"/>
<path transform="translate(0,0)" fill="rgb(254,245,224)" d="M 974.365 1616.83 C 986.292 1617.25 1050.42 1659.58 1065.94 1665.62 C 1069.38 1667.66 1079.34 1673.11 1081.57 1676.16 C 1093.49 1692.42 1084.68 1720.63 1087.81 1740.02 C 1088.82 1746.28 1086.94 1752.8 1083.2 1756.71 C 1081.03 1756.8 1078.08 1756.29 1076.1 1755.03 C 1043.07 1734.1 1005.53 1719.15 974.377 1695.71 C 965.474 1689.01 971.377 1643.81 969.23 1632.06 C 968.23 1626.6 970.253 1620.8 974.365 1616.83 z"/>
<path transform="translate(0,0)" fill="rgb(233,198,143)" d="M 1099.88 767.398 C 1105.27 764.568 1111.59 760.32 1117.39 757.126 C 1148.38 740.145 1179.15 722.76 1209.69 704.977 L 1412.67 588.336 L 1490.95 542.505 C 1500.12 537.195 1516.73 526.352 1525.82 523.398 C 1530.39 525.939 1533.65 528.806 1537.71 532.071 L 1538.14 530.23 C 1548.92 537.726 1561.69 559.396 1563.06 571.921 C 1566.22 600.843 1564.28 635.129 1564.26 664.383 C 1564.23 703.816 1564.17 742.93 1564.29 782.208 L 1564.86 1353.08 L 1564.78 1478.55 C 1564.83 1502.09 1564.68 1525.7 1564.29 1549.22 C 1564.07 1562.23 1558.12 1567.56 1547.41 1573.61 C 1518.89 1589.72 1490.11 1605.39 1461.58 1621.5 L 1237.95 1747.04 C 1205.83 1765.25 1172.36 1783.49 1140.82 1802.61 C 1142.82 1782.24 1141.54 1758.68 1141.38 1737.87 L 1141.58 1653.11 L 1141.15 1310 L 1141.35 974.094 L 1141.51 873.04 C 1141.42 858.105 1141.64 843.482 1140.81 828.536 C 1139.84 811.108 1126.92 799.619 1120.68 785.702 L 1120.35 782.874 C 1113.85 776.608 1107.3 772.453 1099.88 767.398 z"/>
<path transform="translate(0,0)" fill="rgb(254,245,224)" d="M 488.053 437.895 L 761.357 284.76 C 809.055 257.684 856.979 230.705 904.698 203.652 C 907.858 201.861 916.637 197.498 920.155 197.03 C 925.668 196.296 934.659 199.709 939.691 202.357 C 956.323 211.11 972.9 220.259 989.437 229.215 L 1087.34 282.439 L 1353.99 428.217 L 1480.18 496.604 C 1494.59 504.492 1526.93 520.945 1538.14 530.23 L 1537.71 532.071 C 1533.65 528.806 1530.39 525.939 1525.82 523.398 C 1516.73 526.352 1500.12 537.195 1490.95 542.505 L 1412.67 588.336 L 1209.69 704.977 C 1179.15 722.76 1148.38 740.145 1117.39 757.126 C 1111.59 760.32 1105.27 764.568 1099.88 767.398 C 1107.3 772.453 1113.85 776.608 1120.35 782.874 L 1120.68 785.702 C 1102.87 768.895 1084.59 761.522 1063.28 749.818 L 973.371 700.386 L 711.546 557.551 L 564.243 477.59 C 543.48 466.313 508.935 445.325 488.053 437.895 z"/>
<path transform="translate(0,0)" fill="rgb(199,71,39)" d="M 1179.7 359.439 C 1210.67 359.194 1239.2 371.347 1232.88 402.26 C 1231.2 410.477 1240.55 418.969 1228.11 430.723 C 1215.3 442.835 1199.3 445.548 1183.09 446.191 C 1167.18 446.321 1148.91 443.351 1136.25 432.993 C 1124.02 422.935 1126.51 409.005 1126.71 395.325 C 1127.14 365.95 1155.82 360.818 1179.7 359.439 z"/>
<path transform="translate(0,0)" fill="rgb(245,146,51)" d="M 1172.27 367.336 C 1222.01 363.785 1247.89 400.283 1191.05 411.798 C 1141.12 418.264 1109.05 377.004 1172.27 367.336 z"/>
<path transform="translate(0,0)" fill="rgb(245,146,51)" d="M 1135.22 406.577 C 1157.72 422.704 1185.38 423.851 1211.11 415.278 C 1215.51 413.814 1219.52 409.426 1224.6 407.559 L 1225.62 409.175 C 1225.93 415.282 1225.93 416.266 1224.47 422.177 C 1209.49 444.357 1151.31 443.374 1136.36 420.164 L 1135.22 406.577 z"/>
<path transform="translate(0,0)" fill="rgb(199,71,39)" d="M 1287.32 420.415 C 1304.18 420.022 1340.92 425.887 1343.41 447.392 C 1348.32 489.858 1340.45 501.24 1297.12 506.904 C 1280.26 507.344 1260.64 504.487 1247.16 493.885 C 1236.58 485.561 1236.64 478.58 1237.63 467.053 C 1238.59 455.941 1235.56 445.517 1244.37 435.895 C 1254.98 424.309 1272.65 421.559 1287.32 420.415 z"/>
<path transform="translate(0,0)" fill="rgb(245,146,51)" d="M 1281.74 428.351 C 1328.11 421.359 1361.37 461.894 1300.23 472.741 C 1247.06 478.47 1223.17 436.087 1281.74 428.351 z"/>
<path transform="translate(0,0)" fill="rgb(245,146,51)" d="M 1335.72 467.255 C 1340.09 492.838 1314.61 497.663 1294.5 498.798 C 1279.91 499.621 1260.36 495.552 1249.57 485.119 C 1246.61 480.469 1245.13 474.174 1246.25 468.716 C 1247.64 468.93 1247.69 468.747 1248.67 469.451 C 1267.85 483.342 1298.17 484.272 1319.94 476.132 C 1325.94 473.887 1330.37 470.916 1335.72 467.255 z"/>
<path transform="translate(0,0)" fill="rgb(199,71,39)" d="M 1387.58 481.318 C 1404.91 479.407 1447.62 483.437 1450.52 506.537 C 1455.46 545.948 1450.51 559.994 1409.49 566.638 C 1388.97 569.104 1350.48 563.502 1345.34 539.979 C 1343.71 532.561 1345.64 504.81 1350.96 498.097 C 1360.2 486.434 1373.94 483.466 1387.58 481.318 z"/>
<path transform="translate(0,0)" fill="rgb(245,146,51)" d="M 1391.67 488.337 C 1436.88 481.89 1468.84 524.463 1406.24 532.715 C 1358.9 537.567 1327.91 497.229 1391.67 488.337 z"/>
<path transform="translate(0,0)" fill="rgb(245,146,51)" d="M 1352.97 526.459 C 1373.58 542.129 1400.7 545.039 1425.08 536.662 C 1431.07 534.607 1436.24 530.896 1442.29 528.829 C 1444.23 532.194 1442.38 539.785 1441.59 543.813 C 1433.56 555.108 1413.51 558.865 1400.27 559.122 C 1386.74 559.385 1369.24 556.746 1359.15 546.931 C 1352.48 540.44 1353.01 535.056 1352.97 526.459 z"/>
<path transform="translate(0,0)" fill="rgb(254,245,224)" d="M 703.061 561.233 C 709.41 563.783 727.421 574.6 734.485 578.428 L 810.919 620.123 L 1008.11 727.914 L 1066.77 759.803 C 1076.08 764.878 1085.57 770.299 1094.87 775.302 C 1141.5 800.383 1134.61 844.356 1134.46 889.981 C 1134.27 916.5 1134.36 943.021 1134.73 969.538 C 1130.01 969.552 745.467 755.471 704.026 733.788 C 702.811 676.156 703.751 618.953 703.061 561.233 z"/>
<path transform="translate(0,0)" fill="rgb(9,59,64)" d="M 972.874 767.91 C 1006.02 773.668 1009.34 833.611 990.52 843.549 C 968.544 840.285 962.551 816.389 962.17 797.426 C 961.949 786.46 961.635 773.262 972.874 767.91 z"/>
<path transform="translate(0,0)" fill="rgb(254,245,224)" d="M 977.206 779.068 C 994.727 782.462 991.199 820.48 986.66 832.315 C 968.867 831.48 972.84 789.655 977.206 779.068 z"/>
<path transform="translate(0,0)" fill="rgb(9,59,64)" d="M 1062.58 817.952 C 1095.15 821.294 1100.58 880.795 1083.08 893.813 C 1081.94 893.665 1080.8 893.485 1079.67 893.274 C 1051.84 888.298 1044.38 829.976 1062.58 817.952 z"/>
<path transform="translate(0,0)" fill="rgb(254,245,224)" d="M 1068.9 829.341 C 1085.73 833.565 1082.54 871.155 1076.95 882.769 C 1060.48 878.462 1063.22 841.012 1068.9 829.341 z"/>
<path transform="translate(0,0)" fill="rgb(9,59,64)" d="M 1014.65 792.897 C 1023.66 793.421 1030.35 796.695 1036.16 802.532 C 1043.27 811.279 1050.92 823.586 1039.94 832.592 C 1034.23 837.276 1058.47 853.44 1040.19 868.738 C 1021.43 867.918 1006.64 850.131 1007.75 831.754 C 1008.08 826.223 1011.37 824.488 1015.2 820.981 C 1013.02 808.854 1002.3 806.042 1014.65 792.897 z"/>
<path transform="translate(0,0)" fill="rgb(254,245,224)" d="M 1021.93 831.529 C 1035.06 833.118 1038.22 846.794 1033.4 857.567 C 1020 855.628 1015.26 842.632 1021.93 831.529 z"/>
<path transform="translate(0,0)" fill="rgb(254,245,224)" d="M 1021.26 803.527 C 1032.51 805.186 1037.1 814.11 1032.58 824.359 C 1021.94 822.845 1017.63 812.968 1021.26 803.527 z"/>
<path transform="translate(0,0)" fill="rgb(9,59,64)" d="M 924.72 742.972 C 959.485 746.147 962.745 806.836 947.166 816.806 C 944.455 818.506 941.145 818.962 938.075 818.06 C 931.636 816.209 925.316 808.8 922.014 803.196 C 919.925 799.221 918.939 795.347 917.61 791.059 C 921.613 792.554 925.392 794.285 929.295 796.014 C 930.614 801.431 931.63 808.204 938.743 806.971 C 944.696 802.255 944.025 798.941 944.953 791.214 C 919.252 794.016 906.207 754.532 924.72 742.972 z"/>
<path transform="translate(0,0)" fill="rgb(254,245,224)" d="M 929.84 754.291 C 944.487 755.397 946.032 772.567 941.384 783.466 C 926.863 780.744 924.353 766.218 929.84 754.291 z"/>
<path transform="translate(0,0)" fill="rgb(9,59,64)" d="M 881.794 719.895 C 899.605 720.532 905.76 735.045 909.799 749.769 C 894.648 742.433 903.02 742.649 892.056 732.071 C 890.44 730.512 888.798 731.26 887.034 731.756 C 884.341 735.061 881.744 738.693 882.171 743.098 C 889.218 752.188 896.175 741.45 907.407 762.98 C 910.678 773.958 914.99 803.442 892.094 792.728 C 872.281 783.458 868.946 750.214 873.026 731.41 C 874.302 725.533 876.567 723.033 881.794 719.895 z"/>
<path transform="translate(0,0)" fill="rgb(254,245,224)" d="M 885.89 754.674 C 900.95 755.997 902.17 774.504 896.683 785.055 C 883.576 781.051 879.589 765.791 885.89 754.674 z"/>
<path transform="translate(0,0)" fill="rgb(9,59,64)" d="M 744.468 644.949 C 746.883 645.875 750.297 647.68 752.72 648.873 L 750.502 666.433 L 759.885 671.345 C 760.495 665.483 760.065 658.642 765.38 655.22 L 767.137 655.986 C 770.955 663.832 769.542 666.102 767.724 674.928 C 771.629 677.205 777.401 681.11 774.139 686.336 C 770.538 686.87 771.204 686.28 767.117 683.602 L 764.83 698.01 C 768.019 699.479 769.193 700.042 772.099 701.967 C 773.013 705.386 772.723 705.657 772.133 709.075 C 769.288 711.004 769.327 707.19 764.161 707.636 C 762.439 711.46 762.849 718.854 762.488 723.783 C 759.079 722.293 756.735 720.688 753.576 718.703 C 754.575 713.377 755.249 707.26 755.975 701.833 C 753.803 700.626 749.737 698.892 747.342 697.79 C 746.568 703.725 747.34 710.793 741.435 713.336 C 735.191 709.343 738.334 698.773 739.517 693.052 C 737.153 691.928 735.505 691.055 733.231 689.755 C 731.267 686.681 729.721 684.715 732.081 681.665 C 735.895 681.182 735.805 682.044 740.021 684.173 C 743.094 662.062 737.462 674.12 731.867 662.576 C 732.24 659.922 731.612 661.056 733.574 659.008 C 736.621 658.072 739.139 660.131 742.747 661.804 L 744.468 644.949 z"/>
<path transform="translate(0,0)" fill="rgb(254,245,224)" d="M 749.28 675.235 C 753.222 676.775 755.115 677.009 757.434 680.278 C 758.859 684.519 757.53 688.714 756.723 693.303 C 753.626 692.029 751.137 690.521 748.238 688.881 L 749.28 675.235 z"/>
<path transform="translate(0,0)" fill="rgb(9,59,64)" d="M 830.209 691.177 C 838.325 694.612 863.477 705.863 862.413 715.245 L 860.247 716.054 C 854.64 714.923 845.007 709.417 839.258 706.632 C 838.312 711.42 837.752 713.691 837.681 718.601 C 849.059 723.555 855.018 721.955 861.154 736.881 C 866.284 749.358 868.47 765.365 853.715 771.71 C 835.172 765.732 831.043 755.538 825.029 738.695 C 829.222 740.175 832.439 741.801 836.419 743.716 C 838.536 752.036 838.948 756.714 848.025 758.961 C 855.272 757.253 853.338 749.502 852.795 743.742 C 850.841 722.991 836.882 731.944 830.028 726.953 C 826.403 722.082 829.632 698.668 830.209 691.177 z"/>
<path transform="translate(0,0)" fill="rgb(9,59,64)" d="M 780.924 664.121 C 786.559 666.215 813.913 681.115 818.283 684.867 C 818.808 689.446 813.535 700.201 811.267 704.807 C 804.958 717.617 802.177 729.42 800.123 743.531 L 789.207 737.699 C 792.443 717.545 795.602 705.677 807.41 688.884 C 799.444 684.393 787.61 680.533 781.587 673.611 C 779.519 671.234 780.594 667.499 780.924 664.121 z"/>
<path transform="translate(0,0)" fill="rgb(254,245,224)" d="M 481.163 445.97 C 493.616 445.647 511.04 456.925 522.434 463.004 C 541.814 473.405 561.139 483.907 580.409 494.511 C 615.301 513.487 662.986 537.592 696.433 557.892 L 696.255 670.479 C 696.308 688.158 697.265 710.788 696.346 728.054 C 693.876 728.693 693.549 727.77 690.512 726.193 L 532.117 639.131 C 511.696 628.077 491.459 616.508 470.799 605.934 C 470.24 574.913 470.065 543.886 470.272 512.86 C 470.266 496.518 469.926 479.048 470.938 462.775 C 471.473 454.177 474.739 451.1 481.163 445.97 z"/>
<path transform="translate(0,0)" fill="rgb(219,178,112)" d="M 513.223 558.85 C 515.927 558.633 518.982 558.509 521.44 559.814 C 537.008 568.077 552.516 576.865 567.993 585.302 L 618.782 612.983 C 629.567 618.867 643.448 625.58 652.732 633.255 C 662.354 641.209 663.264 667.347 654.643 676.92 C 651.131 677.117 647.717 676.868 644.543 675.072 C 602.114 651.068 556.864 629.549 516.272 602.775 C 506.838 596.552 503.64 568.654 513.223 558.85 z"/>
<path transform="translate(0,0)" fill="rgb(233,198,143)" d="M 545.145 581.929 C 555.919 587.022 646.66 635.489 648.667 638.693 C 652.556 644.901 654.598 657.991 652.723 665.038 C 652.142 667.222 651.704 667.379 649.877 668.472 C 644.866 667.511 640.306 664.436 635.761 661.873 C 602.438 644.222 570.095 624.391 536.239 607.625 C 529.769 604.421 523.744 600.739 518.025 596.328 C 527.599 591.895 535.981 587.085 545.145 581.929 z"/>
</svg>