<svg width="1584" height="396" viewBox="0 0 1584 396" fill="none" xmlns="http://www.w3.org/2000/svg">
  <defs>
    <filter id="glow">
      <feGaussianBlur stdDeviation="3" result="coloredBlur"/>
      <feMerge>
        <feMergeNode in="coloredBlur"/>
        <feMergeNode in="SourceGraphic"/>
      </feMerge>
    </filter>
    <filter id="strongGlow">
      <feGaussianBlur stdDeviation="20" result="coloredBlur"/>
      <feMerge>
        <feMergeNode in="coloredBlur"/>
        <feMergeNode in="SourceGraphic"/>
      </feMerge>
    </filter>
  </defs>

  <!-- Background -->
  <rect width="1584" height="396" fill="#0a0e1a"/>

  <!-- Grid pattern -->
  <g opacity="0.02">
    <pattern id="grid" width="40" height="40" patternUnits="userSpaceOnUse">
      <path d="M 40 0 L 0 0 0 40" fill="none" stroke="#ffffff" stroke-width="1"/>
    </pattern>
    <rect width="1584" height="396" fill="url(#grid)" />
  </g>

  <!-- Wave forms for directional flow (background) -->
  <g opacity="0.18">
    <!-- Cyan waves from left - flowing and intertwining -->
    <path d="M 0,175 Q 198,130 396,175 T 792,175 Q 990,175 1188,220 T 1584,220" fill="none" stroke="#00FFFF" stroke-width="55" stroke-linecap="round" opacity="0.5" filter="url(#strongGlow)"/>
    <path d="M 0,205 Q 198,160 396,205 T 792,205 Q 990,205 1188,160 T 1584,160" fill="none" stroke="#00FFFF" stroke-width="45" stroke-linecap="round" opacity="0.35" filter="url(#strongGlow)"/>
    <path d="M 0,190 Q 198,240 396,190 T 792,190 Q 990,190 1188,140 T 1584,140" fill="none" stroke="#00FFFF" stroke-width="35" stroke-linecap="round" opacity="0.25" filter="url(#strongGlow)"/>

    <!-- Magenta waves from right - flowing and intertwining opposite -->
    <path d="M 1584,190 Q 1386,145 1188,190 T 792,190 Q 594,190 396,235 T 0,235" fill="none" stroke="#FF00FF" stroke-width="55" stroke-linecap="round" opacity="0.5" filter="url(#strongGlow)"/>
    <path d="M 1584,220 Q 1386,175 1188,220 T 792,220 Q 594,220 396,175 T 0,175" fill="none" stroke="#FF00FF" stroke-width="45" stroke-linecap="round" opacity="0.35" filter="url(#strongGlow)"/>
    <path d="M 1584,205 Q 1386,255 1188,205 T 792,205 Q 594,205 396,155 T 0,155" fill="none" stroke="#FF00FF" stroke-width="35" stroke-linecap="round" opacity="0.25" filter="url(#strongGlow)"/>
  </g>

  <!-- Discovery to Delivery Flow at TOP -->
  <g opacity="0.5">
    <!-- Discovery text on left -->
    <text x="40" y="60" font-family="'Inter', 'SF Pro', system-ui, sans-serif" font-size="26" font-weight="700" fill="#00FFFF" filter="url(#glow)">DISCOVERY</text>

    <!-- Flow arrows -->
    <g opacity="0.7">
      <line x1="180" y1="50" x2="400" y2="50" stroke="#FF00FF" stroke-width="3" stroke-dasharray="10,5" filter="url(#glow)"/>
      <polygon points="400,50 392,46 392,54" fill="#FF00FF" filter="url(#glow)"/>

      <line x1="980" y1="50" x2="1200" y2="50" stroke="#00FFFF" stroke-width="3" stroke-dasharray="10,5" filter="url(#glow)"/>
      <polygon points="1200,50 1192,46 1192,54" fill="#00FFFF" filter="url(#glow)"/>
    </g>

    <!-- Delivery text on right -->
    <text x="1240" y="60" font-family="'Inter', 'SF Pro', system-ui, sans-serif" font-size="26" font-weight="700" fill="#FF00FF" filter="url(#glow)">DELIVERY</text>
  </g>

  <!-- Central UI Screen with AI Vision -->
  <g opacity="0.95" transform="translate(792, 230)">
    <!-- Large Screen Frame with depth -->
    <rect x="-80" y="-100" width="160" height="200" rx="8" fill="#0a0e1a" fill-opacity="0.6" stroke="#FF00FF" stroke-width="4" filter="url(#glow)"/>
    <rect x="-76" y="-96" width="152" height="192" rx="6" fill="none" stroke="#FF00FF" stroke-width="1.5" opacity="0.4"/>

    <!-- AI/Neural visualization inside screen -->
    <g transform="translate(0, -15)">
      <!-- Central AI node with glow -->
      <circle cx="0" cy="0" r="20" fill="#FF00FF" opacity="0.3" filter="url(#strongGlow)"/>
      <circle cx="0" cy="0" r="12" fill="#FF00FF" opacity="0.6" filter="url(#glow)"/>
      <circle cx="0" cy="0" r="6" fill="#FF00FF" filter="url(#glow)"/>

      <!-- Neural network nodes around center -->
      <circle cx="-40" cy="-30" r="6" fill="#00FFFF" opacity="0.8" filter="url(#glow)"/>
      <circle cx="40" cy="-30" r="6" fill="#00FFFF" opacity="0.8" filter="url(#glow)"/>
      <circle cx="-45" cy="25" r="6" fill="#00FFFF" opacity="0.8" filter="url(#glow)"/>
      <circle cx="45" cy="25" r="6" fill="#00FFFF" opacity="0.8" filter="url(#glow)"/>
      <circle cx="0" cy="45" r="6" fill="#00FFFF" opacity="0.8" filter="url(#glow)"/>

      <!-- Connection lines -->
      <line x1="0" y1="0" x2="-40" y2="-30" stroke="#FF00FF" stroke-width="1.5" opacity="0.4" filter="url(#glow)"/>
      <line x1="0" y1="0" x2="40" y2="-30" stroke="#FF00FF" stroke-width="1.5" opacity="0.4" filter="url(#glow)"/>
      <line x1="0" y1="0" x2="-45" y2="25" stroke="#FF00FF" stroke-width="1.5" opacity="0.4" filter="url(#glow)"/>
      <line x1="0" y1="0" x2="45" y2="25" stroke="#FF00FF" stroke-width="1.5" opacity="0.4" filter="url(#glow)"/>
      <line x1="0" y1="0" x2="0" y2="45" stroke="#FF00FF" stroke-width="1.5" opacity="0.4" filter="url(#glow)"/>

      <!-- North star accent on top -->
      <g transform="translate(0, -55)">
        <path d="M0,-10 L0.8,-3.5 L0,-2.5 L-0.8,-3.5 Z" fill="#00FFFF" filter="url(#glow)"/>
        <path d="M10,0 L3.5,0.8 L2.5,0 L3.5,-0.8 Z" fill="#00FFFF" filter="url(#glow)"/>
        <path d="M0,10 L0.8,3.5 L0,2.5 L-0.8,3.5 Z" fill="#00FFFF" filter="url(#glow)"/>
        <path d="M-10,0 L-3.5,0.8 L-2.5,0 L-3.5,-0.8 Z" fill="#00FFFF" filter="url(#glow)"/>
        <circle cx="0" cy="0" r="2.5" fill="#00FFFF" filter="url(#glow)"/>
      </g>
    </g>

    <!-- UI elements at top of screen -->
    <rect x="-68" y="-82" width="136" height="5" rx="2" fill="#00FFFF" opacity="0.3"/>
    <rect x="-68" y="-72" width="80" height="3" rx="1" fill="#00FFFF" opacity="0.2"/>

    <!-- Bottom UI buttons -->
    <rect x="-48" y="72" width="32" height="11" rx="3" fill="#FF00FF" opacity="0.5" stroke="#FF00FF" stroke-width="1.5" filter="url(#glow)"/>
    <rect x="-12" y="72" width="32" height="11" rx="3" fill="#00FFFF" opacity="0.5" stroke="#00FFFF" stroke-width="1.5" filter="url(#glow)"/>
    <rect x="24" y="72" width="20" height="11" rx="3" fill="#FFFFFF" opacity="0.4" stroke="#FFFFFF" stroke-width="1.5" filter="url(#glow)"/>

    <!-- Screen stand -->
    <rect x="-16" y="104" width="32" height="8" rx="2.5" fill="none" stroke="#FF00FF" stroke-width="2.5" opacity="0.6"/>
    <rect x="-40" y="112" width="80" height="4" rx="2.5" fill="none" stroke="#FF00FF" stroke-width="2" opacity="0.5"/>
  </g>

  <!-- Robot/AI Agent - Left Side -->
  <g opacity="0.5" transform="translate(150, 200)">
    <rect x="-35" y="-40" width="70" height="60" rx="8" fill="none" stroke="#00FFFF" stroke-width="2.5" filter="url(#glow)"/>
    <circle cx="-15" cy="-20" r="6" fill="#00FFFF" opacity="0.8" filter="url(#glow)"/>
    <circle cx="15" cy="-20" r="6" fill="#00FFFF" opacity="0.8" filter="url(#glow)"/>
    <line x1="0" y1="-40" x2="0" y2="-60" stroke="#00FFFF" stroke-width="2"/>
    <circle cx="0" cy="-60" r="4" fill="#00FFFF" filter="url(#glow)"/>
    <rect x="-20" y="0" width="40" height="6" rx="2" fill="#00FFFF" opacity="0.5"/>
    <rect x="-40" y="25" width="80" height="70" rx="6" fill="none" stroke="#00FFFF" stroke-width="2.5" filter="url(#glow)"/>
    <rect x="-25" y="40" width="50" height="28" rx="3" fill="none" stroke="#00FFFF" stroke-width="1.5" opacity="0.6"/>
  </g>

  <!-- Robot/AI Agent - Right Side -->
  <g opacity="0.5" transform="translate(1434, 200)">
    <rect x="-35" y="-40" width="70" height="60" rx="8" fill="none" stroke="#FF00FF" stroke-width="2.5" filter="url(#glow)"/>
    <circle cx="-15" cy="-20" r="6" fill="#FF00FF" opacity="0.8" filter="url(#glow)"/>
    <circle cx="15" cy="-20" r="6" fill="#FF00FF" opacity="0.8" filter="url(#glow)"/>
    <line x1="0" y1="-40" x2="0" y2="-60" stroke="#FF00FF" stroke-width="2"/>
    <circle cx="0" cy="-60" r="4" fill="#FF00FF" filter="url(#glow)"/>
    <rect x="-20" y="0" width="40" height="6" rx="2" fill="#FF00FF" opacity="0.5"/>
    <rect x="-40" y="25" width="80" height="70" rx="6" fill="none" stroke="#FF00FF" stroke-width="2.5" filter="url(#glow)"/>
    <rect x="-25" y="40" width="50" height="28" rx="3" fill="none" stroke="#FF00FF" stroke-width="1.5" opacity="0.6"/>
  </g>

  <!-- Smaller AI Agent Icons - 1 on left, 3 on right -->
  <!-- Left side - 1 circle -->
  <g opacity="0.5" transform="translate(350, 330)">
    <circle cx="0" cy="0" r="30" fill="none" stroke="#FF00FF" stroke-width="2.5" filter="url(#glow)"/>
    <circle cx="-8" cy="-6" r="4" fill="#FF00FF" filter="url(#glow)"/>
    <circle cx="8" cy="-6" r="4" fill="#FF00FF" filter="url(#glow)"/>
    <path d="M -10,6 Q 0,12 10,6" fill="none" stroke="#FF00FF" stroke-width="2" stroke-linecap="round"/>
    <line x1="0" y1="-30" x2="0" y2="-42" stroke="#FF00FF" stroke-width="2"/>
    <circle cx="0" cy="-42" r="3" fill="#FF00FF" filter="url(#glow)"/>
  </g>

  <!-- Right side - 3 circles -->
  <g opacity="0.5" transform="translate(1350, 80)">
    <circle cx="0" cy="0" r="30" fill="none" stroke="#00FFFF" stroke-width="2.5" filter="url(#glow)"/>
    <circle cx="-8" cy="-6" r="4" fill="#00FFFF" filter="url(#glow)"/>
    <circle cx="8" cy="-6" r="4" fill="#00FFFF" filter="url(#glow)"/>
    <path d="M -10,6 Q 0,12 10,6" fill="none" stroke="#00FFFF" stroke-width="2" stroke-linecap="round"/>
    <line x1="0" y1="-30" x2="0" y2="-42" stroke="#00FFFF" stroke-width="2"/>
    <circle cx="0" cy="-42" r="3" fill="#00FFFF" filter="url(#glow)"/>
  </g>

  <g opacity="0.5" transform="translate(1350, 200)">
    <circle cx="0" cy="0" r="30" fill="none" stroke="#FF00FF" stroke-width="2.5" filter="url(#glow)"/>
    <circle cx="-8" cy="-6" r="4" fill="#FF00FF" filter="url(#glow)"/>
    <circle cx="8" cy="-6" r="4" fill="#FF00FF" filter="url(#glow)"/>
    <path d="M -10,6 Q 0,12 10,6" fill="none" stroke="#FF00FF" stroke-width="2" stroke-linecap="round"/>
    <line x1="0" y1="-30" x2="0" y2="-42" stroke="#FF00FF" stroke-width="2"/>
    <circle cx="0" cy="-42" r="3" fill="#FF00FF" filter="url(#glow)"/>
  </g>

  <g opacity="0.5" transform="translate(1350, 320)">
    <circle cx="0" cy="0" r="30" fill="none" stroke="#00FFFF" stroke-width="2.5" filter="url(#glow)"/>
    <circle cx="-8" cy="-6" r="4" fill="#00FFFF" filter="url(#glow)"/>
    <circle cx="8" cy="-6" r="4" fill="#00FFFF" filter="url(#glow)"/>
    <path d="M -10,6 Q 0,12 10,6" fill="none" stroke="#00FFFF" stroke-width="2" stroke-linecap="round"/>
    <line x1="0" y1="-30" x2="0" y2="-42" stroke="#00FFFF" stroke-width="2"/>
    <circle cx="0" cy="-42" r="3" fill="#00FFFF" filter="url(#glow)"/>
  </g>

  <!-- AI Brain/Neural Network Icon - Center Top -->
  <g opacity="1.0" transform="translate(792, 80)">
    <ellipse cx="0" cy="0" rx="55" ry="45" fill="none" stroke="#FF00FF" stroke-width="2.5" filter="url(#glow)"/>
    <path d="M -35,-18 Q -45,-30 -30,-38 T -8,-35" fill="none" stroke="#FF00FF" stroke-width="2" opacity="0.7"/>
    <path d="M 35,-18 Q 45,-30 30,-38 T 8,-35" fill="none" stroke="#FF00FF" stroke-width="2" opacity="0.7"/>
    <circle cx="-20" cy="-8" r="3.5" fill="#FF00FF" filter="url(#glow)"/>
    <circle cx="20" cy="-8" r="3.5" fill="#FF00FF" filter="url(#glow)"/>
    <circle cx="0" cy="8" r="3.5" fill="#FF00FF" filter="url(#glow)"/>
    <circle cx="-12" cy="16" r="2.5" fill="#FF00FF" opacity="0.7"/>
    <circle cx="12" cy="16" r="2.5" fill="#FF00FF" opacity="0.7"/>
    <line x1="-20" y1="-8" x2="0" y2="8" stroke="#FF00FF" stroke-width="1" opacity="0.4"/>
    <line x1="20" y1="-8" x2="0" y2="8" stroke="#FF00FF" stroke-width="1" opacity="0.4"/>
    <line x1="0" y1="8" x2="-12" y2="16" stroke="#FF00FF" stroke-width="1" opacity="0.4"/>
    <line x1="0" y1="8" x2="12" y2="16" stroke="#FF00FF" stroke-width="1" opacity="0.4"/>
  </g>

  <!-- Connection lines -->
  <g opacity="0.15">
    <line x1="250" y1="180" x2="692" y2="210" stroke="#FF00FF" stroke-width="2" stroke-dasharray="5,5"/>
    <line x1="1334" y1="220" x2="892" y2="210" stroke="#00FFFF" stroke-width="2" stroke-dasharray="5,5"/>
  </g>

  <!-- Data particles floating -->
  <g opacity="0.25">
    <circle cx="580" cy="160" r="3" fill="#FF00FF" filter="url(#glow)"/>
    <circle cx="730" cy="150" r="2.5" fill="#FF00FF" filter="url(#glow)"/>
    <circle cx="792" cy="280" r="3" fill="#00FFFF" filter="url(#glow)"/>
    <circle cx="900" cy="170" r="2.5" fill="#FF00FF" filter="url(#glow)"/>
    <circle cx="680" cy="200" r="3" fill="#FF00FF" filter="url(#glow)"/>
    <circle cx="420" cy="240" r="2.5" fill="#00FFFF" filter="url(#glow)"/>
    <circle cx="1160" cy="240" r="2.5" fill="#FF00FF" filter="url(#glow)"/>
  </g>

  <!-- North Star Icons -->
  <!-- Main North Star - Top Left (Cyan) -->
  <g opacity="0.95" transform="translate(120, 50)">
    <circle cx="0" cy="0" r="16" fill="#00FFFF" opacity="0.1" filter="url(#strongGlow)"/>
    <path d="M0,-23 L1.6,-6.5 L0,-5 L-1.6,-6.5 Z" fill="#00FFFF" filter="url(#glow)"/>
    <path d="M23,0 L6.5,1.6 L5,0 L6.5,-1.6 Z" fill="#00FFFF" filter="url(#glow)"/>
    <path d="M0,23 L1.6,6.5 L0,5 L-1.6,6.5 Z" fill="#00FFFF" filter="url(#glow)"/>
    <path d="M-23,0 L-6.5,1.6 L-5,0 L-6.5,-1.6 Z" fill="#00FFFF" filter="url(#glow)"/>
    <path d="M-16,-16 L-5,-5 L-6.5,-3 L-18,-15 Z" fill="#00FFFF" opacity="0.7" filter="url(#glow)"/>
    <path d="M16,-16 L5,-5 L3,-6.5 L15,-18 Z" fill="#00FFFF" opacity="0.7" filter="url(#glow)"/>
    <path d="M16,16 L5,5 L6.5,3 L18,15 Z" fill="#00FFFF" opacity="0.7" filter="url(#glow)"/>
    <path d="M-16,16 L-5,5 L-3,6.5 L-15,18 Z" fill="#00FFFF" opacity="0.7" filter="url(#glow)"/>
    <circle cx="0" cy="0" r="3.5" fill="#00FFFF" filter="url(#strongGlow)"/>
    <circle cx="0" cy="0" r="1.8" fill="#00FFFF" opacity="1"/>
  </g>

  <!-- Secondary North Star - Top Right (Magenta) -->
  <g opacity="0.8" transform="translate(1464, 50)">
    <circle cx="0" cy="0" r="12" fill="#FF00FF" opacity="0.08" filter="url(#strongGlow)"/>
    <path d="M0,-18 L1.3,-5.5 L0,-4 L-1.3,-5.5 Z" fill="#FF00FF" filter="url(#glow)"/>
    <path d="M18,0 L5.5,1.3 L4,0 L5.5,-1.3 Z" fill="#FF00FF" filter="url(#glow)"/>
    <path d="M0,18 L1.3,5.5 L0,4 L-1.3,5.5 Z" fill="#FF00FF" filter="url(#glow)"/>
    <path d="M-18,0 L-5.5,1.3 L-4,0 L-5.5,-1.3 Z" fill="#FF00FF" filter="url(#glow)"/>
    <path d="M-13,-13 L-4,-4 L-5.5,-2.5 L-14,-12 Z" fill="#FF00FF" opacity="0.6" filter="url(#glow)"/>
    <path d="M13,-13 L4,-4 L2.5,-5.5 L12,-14 Z" fill="#FF00FF" opacity="0.6" filter="url(#glow)"/>
    <path d="M13,13 L4,4 L5.5,2.5 L14,12 Z" fill="#FF00FF" opacity="0.6" filter="url(#glow)"/>
    <path d="M-13,13 L-4,4 L-2.5,5.5 L-12,14 Z" fill="#FF00FF" opacity="0.6" filter="url(#glow)"/>
    <circle cx="0" cy="0" r="2.8" fill="#FF00FF" filter="url(#strongGlow)"/>
    <circle cx="0" cy="0" r="1.4" fill="#FF00FF" opacity="1"/>
  </g>

  <!-- Small North Star - Bottom Left (Magenta) -->
  <g opacity="0.6" transform="translate(250, 330)">
    <circle cx="0" cy="0" r="9" fill="#FF00FF" opacity="0.06" filter="url(#glow)"/>
    <path d="M0,-13 L1,-4 L0,-2.8 L-1,-4 Z" fill="#FF00FF" filter="url(#glow)"/>
    <path d="M13,0 L4,1 L2.8,0 L4,-1 Z" fill="#FF00FF" filter="url(#glow)"/>
    <path d="M0,13 L1,4 L0,2.8 L-1,4 Z" fill="#FF00FF" filter="url(#glow)"/>
    <path d="M-13,0 L-4,1 L-2.8,0 L-4,-1 Z" fill="#FF00FF" filter="url(#glow)"/>
    <circle cx="0" cy="0" r="2" fill="#FF00FF" filter="url(#glow)"/>
    <circle cx="0" cy="0" r="1" fill="#FF00FF" opacity="1"/>
  </g>

  <!-- Digital Product Prototypes Icons -->

  <!-- Mobile App Prototype -->
  <g opacity="0.9" transform="translate(1150, 180)">
    <rect x="-18" y="-30" width="36" height="60" rx="3.6" fill="none" stroke="#00FFFF" stroke-width="3" filter="url(#glow)"/>
    <circle cx="0" cy="-24" r="1.8" fill="#00FFFF" opacity="0.8"/>
    <rect x="-12" y="-18" width="24" height="3.6" rx="1.2" fill="#00FFFF" opacity="0.5"/>
    <rect x="-12" y="-12" width="24" height="3.6" rx="1.2" fill="#00FFFF" opacity="0.5"/>
    <rect x="-12" y="-6" width="24" height="3.6" rx="1.2" fill="#00FFFF" opacity="0.5"/>
    <rect x="-9.6" y="18" width="19.2" height="7.2" rx="2.4" fill="#00FFFF" opacity="0.6"/>
  </g>

  <!-- Desktop/Web Prototype -->
  <g opacity="0.9" transform="translate(1100, 280)">
    <rect x="-30" y="-21.6" width="60" height="42" rx="2.4" fill="none" stroke="#FF00FF" stroke-width="3" filter="url(#glow)"/>
    <line x1="-30" y1="-14.4" x2="30" y2="-14.4" stroke="#FF00FF" stroke-width="2" opacity="0.5"/>
    <rect x="-24" y="-8.4" width="21.6" height="3.6" rx="1.2" fill="#FF00FF" opacity="0.4"/>
    <rect x="-24" y="-2.4" width="21.6" height="3.6" rx="1.2" fill="#FF00FF" opacity="0.4"/>
    <rect x="-24" y="3.6" width="30" height="3.6" rx="1.2" fill="#FF00FF" opacity="0.4"/>
    <rect x="-24" y="9.6" width="18" height="3.6" rx="1.2" fill="#FF00FF" opacity="0.4"/>
    <rect x="-3.6" y="-18" width="2.4" height="2.4" rx="0.6" fill="#FF00FF" opacity="0.6"/>
    <rect x="1.2" y="-18" width="2.4" height="2.4" rx="0.6" fill="#FF00FF" opacity="0.6"/>
    <rect x="6" y="-18" width="2.4" height="2.4" rx="0.6" fill="#FF00FF" opacity="0.6"/>
  </g>

  <!-- Tablet/Dashboard Prototype -->
  <g opacity="0.9" transform="translate(500, 250)">
    <rect x="-26.4" y="-36" width="52.8" height="72" rx="3.6" fill="none" stroke="#00FFFF" stroke-width="3" filter="url(#glow)"/>
    <rect x="-21.6" y="-30" width="43.2" height="6" rx="1.2" fill="#00FFFF" opacity="0.5"/>
    <rect x="-21.6" y="-21.6" width="19.2" height="19.2" rx="2.4" fill="none" stroke="#00FFFF" stroke-width="1.5" opacity="0.5"/>
    <rect x="0" y="-21.6" width="19.2" height="19.2" rx="2.4" fill="none" stroke="#00FFFF" stroke-width="1.5" opacity="0.5"/>
    <rect x="-21.6" y="0" width="43.2" height="3.6" rx="1.2" fill="#00FFFF" opacity="0.4"/>
    <rect x="-21.6" y="6" width="43.2" height="3.6" rx="1.2" fill="#00FFFF" opacity="0.4"/>
    <rect x="-21.6" y="12" width="30" height="3.6" rx="1.2" fill="#00FFFF" opacity="0.4"/>
    <rect x="-12" y="24" width="24" height="7.2" rx="2.4" fill="#00FFFF" opacity="0.6"/>
  </g>

  <!-- Watch/Wearable Prototype -->
  <g opacity="0.9" transform="translate(520, 120)">
    <rect x="-3.6" y="-24" width="7.2" height="6" rx="1.2" fill="none" stroke="#FF00FF" stroke-width="2" opacity="0.5"/>
    <rect x="-14.4" y="-18" width="28.8" height="36" rx="6" fill="none" stroke="#FF00FF" stroke-width="3" filter="url(#glow)"/>
    <circle cx="0" cy="0" r="9.6" fill="none" stroke="#FF00FF" stroke-width="2" opacity="0.6"/>
    <line x1="0" y1="0" x2="0" y2="-4.8" stroke="#FF00FF" stroke-width="2" opacity="0.7"/>
    <line x1="0" y1="0" x2="3.6" y2="2.4" stroke="#FF00FF" stroke-width="2" opacity="0.7"/>
    <rect x="-3.6" y="18" width="7.2" height="6" rx="1.2" fill="none" stroke="#FF00FF" stroke-width="2" opacity="0.5"/>
  </g>
</svg>
