<svg version="1.1" xmlns="http://www.w3.org/2000/svg" style="display: block;" viewBox="0 0 2048 2048" width="1024" height="1024" preserveAspectRatio="none">
<path transform="translate(0,0)" fill="rgb(2,1,1)" d="M 1052.8 94.9743 C 1061.27 94.5673 1095.28 115.113 1105.34 120.673 L 1183.28 163.768 L 1267.55 210.268 C 1286.16 220.52 1307.51 231.791 1325.36 243.034 C 1329.8 241.172 1335.78 238.089 1340.25 235.942 C 1349.41 240.75 1364.51 248.528 1372.45 254.761 C 1373.55 259.379 1373.8 263.173 1374.25 267.868 C 1382.49 272.077 1400.96 280.302 1407.07 287.31 C 1408.22 288.633 1408.77 295.459 1408.75 297.724 C 1408.45 326.269 1408.32 354.987 1408.27 383.519 L 1408.13 570.52 L 1408.29 1326.68 L 1408.3 1486 C 1408.3 1501.76 1409.27 1524.36 1407.78 1539.84 C 1407.17 1546.25 1397.43 1551.42 1392 1554.57 C 1391.85 1565.14 1391.86 1575.71 1392.03 1586.28 C 1375.5 1595.79 1357.62 1606.55 1340.83 1615.32 C 1334.31 1611.99 1327.46 1608.78 1320.86 1605.57 C 1284.78 1624.06 1245.18 1647.22 1209.46 1667.1 L 922.301 1828.68 C 886.838 1848.5 850.044 1870.2 814.279 1889.08 C 814.285 1897.17 814.218 1905.26 814.077 1913.34 C 798.99 1922.08 783.86 1931.32 768.553 1939.63 C 763.147 1942.57 762.388 1941.88 757.442 1940.28 C 731.169 1926.59 703.628 1910.46 677.583 1896 L 545.406 1823.56 L 440.567 1766.25 C 423.889 1757.1 399.387 1744.58 383.862 1734.52 C 383.07 1719.45 383.853 1695.84 383.857 1680.29 L 383.875 1570.06 L 383.951 1230.28 L 383.925 754.544 C 383.812 661.768 382.133 564.871 384.241 472.576 C 390.096 467.393 428.815 445.81 437.292 440.974 L 574.968 363.458 L 902.85 178.693 C 952.128 151.113 1002.98 121.179 1052.8 94.9743 z"/>
<path transform="translate(0,0)" fill="rgb(205,208,215)" d="M 389.142 475.337 C 398.403 479.346 414.853 488.949 424.144 494.043 L 491.384 531.066 L 707.244 649.673 L 707.256 1860.41 C 719.912 1869.82 745.388 1882.92 759.993 1890.91 C 759.61 1905.69 759.848 1920.99 759.903 1935.82 L 546.152 1818.03 C 496.023 1790.76 437.966 1760.56 389.061 1731.8 C 387.164 1667.75 388.725 1595.29 388.748 1530.62 L 388.809 1151.32 L 388.801 718.674 C 388.763 639.593 387.378 554.185 389.142 475.337 z"/>
<path transform="translate(0,0)" fill="rgb(247,248,249)" d="M 1077.85 821.108 C 1074.67 818.179 1074.21 818.18 1074.15 812.822 C 1073.91 792.322 1074.18 771.698 1074.19 751.186 L 1074.2 629.127 C 1074.19 612.49 1072.07 488.58 1075.62 477.629 C 1085.39 467.549 1130.36 443.904 1144.72 435.85 L 1264.68 368.507 L 1350.15 320.177 C 1365.39 311.549 1388.28 297.937 1403.67 291.17 C 1405.48 357.098 1404.01 429.638 1404.01 496.001 L 1403.98 887.65 L 1403.98 1306.37 C 1403.98 1379.12 1404.07 1451.84 1403.82 1524.62 C 1403.75 1546.46 1399 1543.7 1381.13 1554.39 C 1373.53 1558.94 1365.38 1563.25 1357.64 1567.59 L 1240.1 1632.91 C 1201.85 1654.62 1163.44 1676.06 1124.9 1697.24 C 1115.34 1702.53 1085.43 1721.26 1076.67 1721.97 C 1073.51 1717.19 1074.04 1690.1 1074.14 1682.94 C 1075.58 1579.34 1072.38 1474.86 1074.62 1371.34 C 1079.4 1368.72 1084.2 1366.12 1089.01 1363.56 L 1088.8 1343.33 L 1088.75 1310.96 C 1094.13 1313.83 1097.98 1316 1103.11 1319.32 C 1111.26 1323.13 1122.99 1329.85 1131.2 1334.27 C 1137.94 1330.3 1144.75 1326.44 1151.61 1322.68 C 1150.97 1279.91 1151.84 1234.47 1151.85 1191.48 L 1151.82 924.848 L 1151.98 833.628 C 1152.07 763.373 1156.27 788.845 1102.34 753.976 C 1096.5 757.155 1087.11 761.78 1083.09 766.902 C 1082.75 773.699 1082.43 784.69 1081.01 791.037 C 1079.61 797.269 1081.48 818.265 1077.85 821.108 z"/>
<path transform="translate(0,0)" fill="rgb(205,208,215)" d="M 1088.75 1310.96 C 1094.13 1313.83 1097.98 1316 1103.11 1319.32 C 1100.21 1333.63 1106.77 1337.23 1088.8 1343.33 L 1088.75 1310.96 z"/>
<path transform="translate(0,0)" fill="rgb(247,248,249)" d="M 1050.78 489.458 C 1052.25 519.874 1050.91 563.184 1050.9 594.728 L 1050.91 805.544 L 1038.88 797.842 C 1033.38 800.463 1024.64 806.096 1019.15 809.423 C 1020.19 816.081 1020 824.594 1020.05 831.48 C 1028 836.561 1035.18 840.609 1043.39 845.183 C 1046.14 846.809 1048.8 847.871 1050.19 850.589 C 1051.16 883.295 1050.26 920.583 1050.31 953.687 L 1050.08 1203.97 C 1050.1 1242.72 1049.55 1283.77 1050.44 1322.41 C 1047.58 1320.35 1042.91 1317.39 1040.97 1314.69 C 1033.07 1317.15 1026.19 1321.74 1019.21 1326.14 C 1019.32 1333.76 1019.28 1338.95 1018.63 1346.52 C 1023.8 1353.34 1034.05 1356.2 1041.06 1361.21 L 1050.99 1366.04 C 1050.42 1396.52 1050.95 1428.64 1050.98 1459.22 L 1051.11 1636.24 L 1051.12 1697.86 C 1051.12 1708.35 1051.72 1728.21 1049.75 1737.66 C 1046.82 1740.81 1042.04 1744.04 1038.28 1746.17 C 988.08 1774.56 937.574 1802.74 887.369 1831.11 C 863.032 1844.88 838.604 1858.49 814.089 1871.94 C 802.369 1878.46 788.185 1887.44 776.436 1892.72 C 775.298 1881.3 775.676 1862.9 775.684 1851.16 L 775.719 1786.71 L 775.741 1575.36 L 775.858 882.227 L 775.7 726.218 C 775.688 711.871 774.387 656.334 777.819 645.248 C 786.844 635.424 900.104 573.333 920.234 562.004 L 1001.41 516.364 C 1016.67 507.817 1035.17 496.916 1050.78 489.458 z"/>
<path transform="translate(0,0)" fill="rgb(205,208,215)" d="M 1019.21 1326.14 C 1017.22 1318.59 1017.97 1262.83 1017.97 1250.87 L 1017.98 1072.71 L 1017.83 900.848 C 1017.8 876.733 1017.49 852.677 1018.76 828.607 C 1019.1 821.987 1018.24 816.137 1019.15 809.423 C 1020.19 816.081 1020 824.594 1020.05 831.48 C 1028 836.561 1035.18 840.609 1043.39 845.183 C 1046.14 846.809 1048.8 847.871 1050.19 850.589 C 1051.16 883.295 1050.26 920.583 1050.31 953.687 L 1050.08 1203.97 C 1050.1 1242.72 1049.55 1283.77 1050.44 1322.41 C 1047.58 1320.35 1042.91 1317.39 1040.97 1314.69 C 1033.07 1317.15 1026.19 1321.74 1019.21 1326.14 z"/>
<path transform="translate(0,0)" fill="rgb(247,248,249)" d="M 1043.39 845.183 C 1046.14 846.809 1048.8 847.871 1050.19 850.589 C 1051.16 883.295 1050.26 920.583 1050.31 953.687 L 1050.08 1203.97 C 1050.1 1242.72 1049.55 1283.77 1050.44 1322.41 C 1047.58 1320.35 1042.91 1317.39 1040.97 1314.69 C 1043.99 1308.1 1040.54 960.616 1042 924.133 C 1042.44 912.937 1040.7 854.99 1043.39 845.183 z"/>
<path transform="translate(0,0)" fill="rgb(205,208,215)" d="M 1018.63 1346.52 C 1023.8 1353.34 1034.05 1356.2 1041.06 1361.21 C 1040.03 1363.25 1038.34 1372.57 1036.76 1376.77 C 1033.46 1379.95 1020.93 1384.19 1015.92 1386.13 C 1015.84 1377.46 1014.75 1352.84 1018.63 1346.52 z"/>
<path transform="translate(0,0)" fill="rgb(2,1,1)" d="M 981.884 883.838 C 984.338 884.638 983.849 884.553 986.095 886.009 C 988.281 891.289 986.893 1136.03 986.878 1162.43 C 973.424 1171.32 948.581 1184.47 933.866 1192.79 C 901.457 1211.21 868.949 1229.45 836.343 1247.52 L 833.988 1247.97 L 832.279 1246.45 C 830.986 1241.42 831.802 1183.9 831.816 1173.97 L 832.162 968.151 C 842.436 961.022 869.036 947.147 881.072 940.341 C 914.507 921.206 948.112 902.371 981.884 883.838 z"/>
<path transform="translate(0,0)" fill="rgb(158,164,177)" d="M 980.854 956.909 L 981.53 957.526 C 982.607 961.743 982.065 1005.9 982.055 1012.95 L 982.1 1156.49 C 970.998 1150.94 957.823 1143.09 946.83 1136.9 L 927.027 1125.79 L 927.153 987.044 C 944.001 978.809 964.3 966.42 980.854 956.909 z"/>
<path transform="translate(0,0)" fill="rgb(247,248,249)" d="M 979.676 890.908 L 980.866 891.008 C 982.839 894.048 982.07 943.307 982.073 950.761 C 976.185 953.734 969.93 957.045 964.237 960.356 C 922.771 984.471 880.156 1006.84 838.835 1031.17 C 837.639 1031.03 838.323 1031.24 836.99 1030.07 L 837.001 970.77 C 883.118 946.683 933.631 916.569 979.676 890.908 z"/>
<path transform="translate(0,0)" fill="rgb(2,1,1)" d="M 933.113 934.917 L 934.532 936.271 C 935.633 941.963 935.145 949.659 935.023 955.671 C 918.74 964.681 902.63 973.999 886.702 983.62 C 884.274 978.534 882.945 970.289 884.741 964.877 C 887.122 957.703 924.685 939.435 933.113 934.917 z"/>
<path transform="translate(0,0)" fill="rgb(158,164,177)" d="M 928.969 942.845 L 930.062 943.875 C 930.883 947.33 930.798 947.105 930.1 950.621 C 926.075 956.883 898.165 971.121 890.311 975.505 C 889.336 971.25 889.264 971.171 889.382 966.857 C 891.414 961.547 921.878 946.712 928.969 942.845 z"/>
<path transform="translate(0,0)" fill="rgb(2,1,1)" d="M 854.948 978.691 C 861.042 975.258 870.478 967.375 876.43 968.292 C 878.255 971.351 877.528 971.046 877.083 975.502 C 875.168 979.481 874.699 978.805 875.286 982.342 L 877.156 983.874 L 877.81 986.953 C 874.89 991.691 860.846 997.696 855.133 1000.46 C 854.713 993.229 854.883 985.941 854.948 978.691 z"/>
<path transform="translate(0,0)" fill="rgb(205,208,215)" d="M 860.055 981.747 C 865.829 979.16 871.727 974.399 877.083 975.502 C 875.168 979.481 874.699 978.805 875.286 982.342 L 877.156 983.874 C 872.227 983.989 863.634 990.025 859.173 992.78 C 859.737 989.282 859.854 985.33 860.055 981.747 z"/>
<path transform="translate(0,0)" fill="rgb(2,1,1)" d="M 958.856 920.797 C 959.545 920.825 961.524 921.256 962.284 921.401 C 964.888 924.748 965.247 932.073 962.443 935.486 L 960.543 935.306 C 958.242 932.907 958.328 931.935 957.639 928.802 C 954.961 928.269 952.957 930.325 949.816 932.143 C 948.629 932.663 949.308 932.29 947.78 933.637 L 946.463 934.815 C 943.1 935.232 944.596 935.527 941.761 934.328 L 942.242 932.39 C 947.858 926.138 951.346 924.754 958.856 920.797 z"/>
<path transform="translate(0,0)" fill="rgb(2,1,1)" d="M 958.202 937.872 C 960.67 937.773 960.534 937.7 962.837 938.541 L 962.51 940.091 C 957.219 944.947 948.543 948.611 941.892 951.345 C 941.012 946.858 939.809 943.684 943.443 940.6 L 945.5 940.803 C 945.779 943.38 945.381 942.612 946.576 944.676 C 950.038 944.001 955.057 940.033 958.202 937.872 z"/>
<path transform="translate(0,0)" fill="rgb(247,248,249)" d="M 862.118 1063.8 C 877.874 1075.84 889.057 1063.95 903.575 1056 C 909.613 1052.7 915.828 1048.53 921.572 1044.7 C 922.262 1071.5 921.464 1098.87 922.284 1125.29 C 894.594 1140.8 863.959 1157.22 836.915 1173.36 C 836.92 1141.37 837.211 1108.9 836.782 1076.96 C 847.123 1073.6 856.013 1064.79 862.118 1063.8 z"/>
<path transform="translate(0,0)" fill="rgb(247,248,249)" d="M 923.09 1146.75 C 927.629 1146.88 944.579 1157.54 950.314 1160.61 C 919.583 1178.31 888.752 1195.84 857.823 1213.19 L 847.244 1219.73 C 843.846 1217.79 840.148 1215.24 836.838 1213.07 L 836.915 1195.54 C 863.817 1181.99 896.764 1162 923.09 1146.75 z"/>
<path transform="translate(0,0)" fill="rgb(247,248,249)" d="M 923.924 1130.14 C 927.927 1131.71 938.68 1138.14 942.953 1140.57 L 979.296 1161.25 C 963.877 1168.99 946.789 1179.31 931.528 1187.95 C 900.19 1205.93 868.673 1223.58 836.981 1240.93 L 836.806 1220.32 L 846.908 1225.87 L 901.571 1194.63 C 910.276 1190.2 951.749 1167.2 957.061 1161.53 L 956.925 1160.04 C 951.81 1155.2 932.198 1144.78 924.936 1140.68 C 907.049 1147.92 878.701 1167.4 860.331 1176.7 C 853.042 1180.39 846.392 1185.6 838.327 1188.28 L 837.188 1187.03 C 836.694 1181.88 836.603 1179.47 841.795 1176.6 C 869.305 1161.42 896.773 1145.96 923.924 1130.14 z"/>
<path transform="translate(0,0)" fill="rgb(247,248,249)" d="M 905.824 999.016 C 908.195 1002.5 916.644 1035.57 918.239 1041.46 C 906.095 1048.74 892.993 1055.93 880.654 1063.11 C 877.77 1050.26 872.098 1033.07 868.209 1020.12 C 877.482 1016.05 896.351 1004.48 905.824 999.016 z"/>
<path transform="translate(0,0)" fill="rgb(205,208,215)" d="M 852.363 1029.74 C 855.677 1038.73 860.713 1054.58 862.118 1063.8 C 856.013 1064.79 847.123 1073.6 836.782 1076.96 L 836.858 1037.98 L 852.363 1029.74 z"/>
<path transform="translate(0,0)" fill="rgb(158,164,177)" d="M 862.501 1022.76 C 865.458 1025.98 874.49 1057.45 876.09 1063.54 L 873.83 1064.34 L 869.616 1062.54 C 865.297 1057.71 858.947 1034.9 857.403 1028.05 C 858.484 1025.02 859.459 1025.12 862.501 1022.76 z"/>
<path transform="translate(0,0)" fill="rgb(247,248,249)" d="M 920.434 990.935 L 921.163 991.094 C 922.819 994.96 922.355 1027.62 921.027 1032.15 L 919.891 1029.69 C 916.787 1018.69 913.771 1007.66 910.843 996.608 L 920.434 990.935 z"/>
<path transform="translate(0,0)" fill="rgb(247,248,249)" d="M 1054.82 98.9939 C 1085.72 114.519 1121.89 135.692 1152.71 152.717 C 1208.94 183.529 1264.96 214.727 1320.77 246.309 C 1315.46 249.144 1266.17 277.575 1264.65 279.339 C 1264.07 282.135 1264.08 282.785 1262.81 285.394 C 1221.04 307.026 1175.29 334.222 1133.9 357.426 L 883.497 498.338 C 849.644 517.501 815.792 536.728 781.746 555.535 C 780.614 555.809 775.482 554.808 774.989 555.058 C 756.041 564.259 737.165 577.184 718.581 586.872 C 692.934 600.243 695.519 611.742 695.994 637.61 C 689.067 633.345 681.527 629.42 674.349 625.535 C 664.409 620.758 651.11 612.926 641.229 607.503 L 574.129 570.509 C 514.552 537.708 454.004 505.145 394.877 471.669 L 742.989 274.728 L 932.783 167.943 C 973.637 145.27 1014.32 122.286 1054.82 98.9939 z"/>
<path transform="translate(0,0)" fill="rgb(205,208,215)" d="M 728.934 661.849 C 743.043 669.033 757.022 676.469 770.866 684.152 L 770.662 1890.89 C 766.199 1889.37 733.924 1870.28 729.248 1867.11 C 728.115 1818.53 728.839 1767.6 728.84 1718.81 L 728.897 1453.84 L 728.934 661.849 z"/>
<path transform="translate(0,0)" fill="rgb(247,248,249)" d="M 1357.81 264.167 L 1398.61 286.819 C 1370.33 301.748 1341.75 318.476 1313.84 334.314 L 1187.76 405.521 L 1115.1 446.224 C 1104.72 452.034 1084.02 462.95 1075.13 469.688 C 1068.7 468.038 1033.15 447.509 1028.98 442.735 C 1112.73 393.987 1198.46 347.998 1282.25 299.219 C 1286.25 296.894 1288.25 298.207 1291.98 299.953 C 1296.68 299.371 1349.56 268.466 1357.81 264.167 z"/>
<path transform="translate(0,0)" fill="rgb(158,164,177)" d="M 1089.06 767.628 L 1102.68 760.256 C 1116.16 768.954 1131.22 775.812 1143.64 784.027 C 1140.29 786.11 1133.61 789.795 1131.42 792.632 L 1131.86 794.396 C 1138.6 795.978 1141.29 792.376 1146.67 788.409 L 1146.71 1111.77 C 1146.65 1180.43 1147.57 1251.37 1146.39 1319.87 C 1142.02 1322.1 1137.31 1324.34 1133.22 1327 L 1133.01 1327.27 C 1132.37 1327.47 1131.72 1327.67 1131.08 1327.87 C 1118.9 1321.92 1100.57 1311.16 1088.88 1305.59 L 1088.82 1289.92 C 1094.45 1293.68 1113.28 1307.94 1119.02 1305.31 C 1120.77 1285.48 1119.92 1254.44 1119.93 1233.82 L 1119.86 1101.5 L 1119.98 907.273 C 1119.96 874.935 1120.97 835.687 1119.5 803.771 C 1109.67 795.604 1100.32 791.001 1089.05 785.241 L 1089.06 767.628 z"/>
<path transform="translate(0,0)" fill="rgb(247,248,249)" d="M 1131.86 794.396 C 1138.6 795.978 1141.29 792.376 1146.67 788.409 L 1146.71 1111.77 C 1146.65 1180.43 1147.57 1251.37 1146.39 1319.87 C 1142.02 1322.1 1137.31 1324.34 1133.22 1327 C 1131.83 1317.94 1132.47 1279.06 1132.58 1268.53 C 1132.79 1241.78 1132.79 1215.04 1132.58 1188.3 L 1132.61 866.927 C 1132.59 858.918 1131.32 796.362 1131.86 794.396 z"/>
<path transform="translate(0,0)" fill="rgb(247,248,249)" d="M 1089.06 767.628 L 1102.68 760.256 C 1116.16 768.954 1131.22 775.812 1143.64 784.027 C 1140.29 786.11 1133.61 789.795 1131.42 792.632 C 1128.36 792.479 1093.14 770.681 1089.06 767.628 z"/>
<path transform="translate(0,0)" fill="rgb(158,164,177)" d="M 1038.24 804.169 C 1049.06 810.2 1070.04 822.94 1080.42 827.619 C 1076.39 830.078 1071.56 832.772 1068.02 835.784 L 1070.04 838.698 C 1076.06 839.048 1078.2 836.746 1083.53 833.032 C 1082.56 919.704 1083.67 1007.48 1083.63 1094.27 C 1083.16 1182.96 1083.26 1271.65 1083.94 1360.34 C 1076.79 1363.65 1075.64 1364.29 1069.23 1369.19 C 1055.97 1363.8 1037.63 1352.77 1024.7 1345.38 L 1025 1330.45 C 1030.57 1333.65 1039 1338.83 1044.54 1341.51 C 1048.75 1344.23 1049.71 1345.79 1054.28 1346.11 L 1056.24 1344.33 C 1058.28 1338.27 1057.01 1243.51 1057 1230.42 L 1056.9 847.167 C 1045.71 840.217 1036.81 835.119 1025.25 828.907 L 1025.27 812.284 C 1029.58 809.553 1033.9 806.848 1038.24 804.169 z"/>
<path transform="translate(0,0)" fill="rgb(247,248,249)" d="M 1070.04 838.698 C 1076.06 839.048 1078.2 836.746 1083.53 833.032 C 1082.56 919.704 1083.67 1007.48 1083.63 1094.27 C 1083.16 1182.96 1083.26 1271.65 1083.94 1360.34 C 1076.79 1363.65 1075.64 1364.29 1069.23 1369.19 C 1070.4 1325.23 1069.15 1277.94 1069.2 1233.62 L 1069.24 942.851 L 1068.98 865.179 C 1068.94 860.252 1067.88 841.901 1070.04 838.698 z"/>
<path transform="translate(0,0)" fill="rgb(247,248,249)" d="M 1038.24 804.169 C 1049.06 810.2 1070.04 822.94 1080.42 827.619 C 1076.39 830.078 1071.56 832.772 1068.02 835.784 L 1067.62 836.917 C 1063.64 834.727 1059.24 831.259 1055.13 828.737 C 1045.41 822.841 1035.44 817.352 1025.27 812.284 C 1029.58 809.553 1033.9 806.848 1038.24 804.169 z"/>
<path transform="translate(0,0)" fill="rgb(247,248,249)" d="M 1000.09 458.753 C 1014.77 467.453 1031.02 477.471 1045.92 485.476 C 985.363 517.443 921.674 555.001 861.509 588.855 L 806.621 619.809 C 799.184 624.02 782.093 633.195 776.263 638.285 C 768.497 649.755 770.714 664.071 770.508 678.279 C 756.829 670.586 743.023 663.118 729.098 655.88 C 728.831 642.081 726.094 626.51 734.849 616.515 C 745.178 608.562 802.264 579.088 806.479 573.759 C 806.184 572.289 805.872 570.824 805.544 569.362 C 809.837 564.422 983.532 467.468 1000.09 458.753 z"/>
<path transform="translate(0,0)" fill="rgb(205,208,215)" d="M 729.098 655.88 C 728.831 642.081 726.094 626.51 734.849 616.515 C 741.495 621.069 768.681 635.364 776.263 638.285 C 768.497 649.755 770.714 664.071 770.508 678.279 C 756.829 670.586 743.023 663.118 729.098 655.88 z"/>
<path transform="translate(0,0)" fill="rgb(158,164,177)" d="M 712.335 652.531 L 724.143 659.584 C 723.363 706.977 724.018 755.941 723.99 803.474 L 723.932 1086.53 L 723.858 1844.87 L 715.654 1850.03 C 714.099 1851.16 714.955 1850.91 713.105 1850.84 C 711.39 1844.67 712.383 1788.02 712.385 1777.39 L 712.305 1576.53 L 712.335 652.531 z"/>
<path transform="translate(0,0)" fill="rgb(205,208,215)" d="M 1083.09 766.902 C 1083.81 774.119 1083.85 780.553 1083.95 787.81 C 1088.45 790.488 1102.78 798.631 1106.19 801.389 L 1114.99 807.052 L 1114.91 1282.03 C 1111.76 1280.07 1106.98 1277.43 1104.61 1274.8 C 1099.05 1274.21 1093.82 1278.09 1088.74 1280.89 C 1089.83 1188.36 1088.88 1094.29 1088.89 1001.64 L 1088.94 892.161 C 1088.95 871.211 1089.41 847.637 1088.45 826.868 C 1084.01 823.868 1082.78 823.131 1077.85 821.108 C 1081.48 818.265 1079.61 797.269 1081.01 791.037 C 1082.43 784.69 1082.75 773.699 1083.09 766.902 z"/>
<path transform="translate(0,0)" fill="rgb(247,248,249)" d="M 1106.19 801.389 L 1114.99 807.052 L 1114.91 1282.03 C 1111.76 1280.07 1106.98 1277.43 1104.61 1274.8 C 1105.38 1270.74 1105.15 1251.03 1105.15 1245.99 C 1105.06 1226.23 1105.11 1206.46 1105.28 1186.7 L 1106.01 886.702 C 1106.13 873.221 1106.02 859.74 1105.69 846.263 C 1105.36 834.208 1103.91 812.277 1106.19 801.389 z"/>
<path transform="translate(0,0)" fill="rgb(158,164,177)" d="M 1261.7 291.976 C 1263.61 293.748 1262.82 301.815 1262.81 304.647 C 1212.78 332.253 1163.01 360.294 1113.47 388.767 L 1053.45 422.864 C 1043.8 428.4 1029.92 435.81 1021.16 442.115 C 1018.2 449.279 1017.55 455.907 1016.68 463.486 C 1010.58 459.576 1005.99 456.681 999.577 453.35 C 984.573 459.676 945.396 483.347 929.13 492.606 L 799.124 566.091 C 794.737 563.952 790.558 561.506 786.309 559.103 L 1123.8 368.939 C 1168.71 343.918 1216.37 315.478 1261.7 291.976 z"/>
<path transform="translate(0,0)" fill="rgb(205,208,215)" d="M 1028.98 442.735 C 1033.15 447.509 1068.7 468.038 1075.13 469.688 C 1072.88 472.468 1069.82 476.278 1069.52 479.867 C 1068.57 491.395 1068.95 503.98 1068.98 515.541 L 1069.09 580.522 L 1069.08 815.906 C 1064.63 813.507 1060.06 810.474 1055.76 807.762 C 1057.62 702.986 1055.88 594.185 1055.18 489.2 C 1055.14 483.549 1027.41 469.444 1021.74 466.285 C 1021.77 464.324 1021.86 462.364 1021.99 460.407 C 1022.49 452.914 1023.24 447.762 1028.98 442.735 z"/>
<path transform="translate(0,0)" fill="rgb(205,208,215)" d="M 1056.09 1369.4 C 1061.43 1372.46 1063.53 1373.14 1069.42 1374.64 C 1068.11 1438.28 1069.19 1504.86 1069.06 1568.8 C 1068.96 1616.23 1067.65 1673.38 1069.52 1720.31 C 1068.03 1720.26 1058.97 1715.07 1056.04 1713.74 C 1057.89 1600.44 1055.98 1483.1 1056.09 1369.4 z"/>
<path transform="translate(0,0)" fill="rgb(205,208,215)" d="M 1315.52 1596.94 C 1316.38 1598.13 1315.94 1597.33 1316.36 1599.55 C 1313.39 1603.92 1277.06 1622.84 1269.76 1626.9 L 1188.13 1672.64 L 815.433 1882.74 C 814.136 1880.33 814.516 1881.58 814.652 1878.87 C 818.137 1875.41 849.128 1858.93 855.339 1855.48 L 928.958 1814.06 L 1315.52 1596.94 z"/>
<path transform="translate(0,0)" fill="rgb(205,208,215)" d="M 777.407 559.123 C 784.799 563.554 792.848 568.001 800.059 572.45 C 778.001 584.062 754.434 598.631 732.368 611.088 C 728.948 614.687 728.06 615.582 725.618 619.857 C 718.54 617.038 712.132 612.445 703.103 608.848 C 705.191 604.351 706.346 602.796 709.217 598.654 C 731.593 585.102 755.401 572.547 777.407 559.123 z"/>
<path transform="translate(0,0)" fill="rgb(158,164,177)" d="M 703.103 608.848 C 705.191 604.351 706.346 602.796 709.217 598.654 C 716.388 603.439 724.263 608.101 732.368 611.088 C 728.948 614.687 728.06 615.582 725.618 619.857 C 718.54 617.038 712.132 612.445 703.103 608.848 z"/>
<path transform="translate(0,0)" fill="rgb(205,208,215)" d="M 1339.59 241.836 C 1347.22 245.02 1364.49 253.98 1367.38 261.504 L 1366.48 261.61 C 1364.9 259.968 1363.77 258.962 1362.04 257.466 C 1355.93 256.704 1309.6 285.001 1300.84 290.098 L 1293.48 294.319 C 1285.81 288.696 1279.89 285.494 1271.64 280.924 C 1294.45 268.009 1316.62 254.635 1339.59 241.836 z"/>
<path transform="translate(0,0)" fill="rgb(247,248,249)" d="M 808.81 1881.11 C 809.706 1884.08 809.263 1905.72 809.282 1910.56 C 802.332 1914.17 768.666 1934.58 765.073 1934.61 L 764.981 1892.96 C 769.296 1894.93 773.134 1896.36 777.55 1898.03 C 785.273 1895.18 800.836 1885.71 808.81 1881.11 z"/>
<path transform="translate(0,0)" fill="rgb(247,248,249)" d="M 1385.94 1558.11 C 1387.73 1560 1387 1579.23 1386.98 1583.12 C 1373.46 1590.31 1356.22 1599.01 1344.05 1607.9 C 1342.23 1605.74 1343.13 1585.62 1343.18 1581.48 L 1385.94 1558.11 z"/>
<path transform="translate(0,0)" fill="rgb(158,164,177)" d="M 703.103 608.848 C 712.132 612.445 718.54 617.038 725.618 619.857 C 722.476 628.942 723.826 643.493 724.158 653.512 C 716.53 648.974 708.773 644.657 700.897 640.566 C 701.382 630.872 700.611 618.056 703.103 608.848 z"/>
<path transform="translate(0,0)" fill="rgb(205,208,215)" d="M 1039.14 1320.91 C 1043.13 1323.27 1047.19 1325.61 1051.07 1328.16 C 1051.18 1332.63 1052.06 1338.26 1049.77 1341.57 C 1047.29 1341.65 1047.29 1341.37 1045.02 1340.2 C 1040.58 1336.23 1031.42 1331.07 1026.04 1328.37 C 1029.9 1326.16 1035.31 1322.87 1039.14 1320.91 z"/>
<path transform="translate(0,0)" fill="rgb(247,248,249)" d="M 1101.06 1279.75 C 1105.49 1281.26 1110.9 1285.12 1115 1287.74 C 1115.14 1291.36 1116.36 1298.2 1113.34 1300.19 L 1109.72 1298.17 C 1102.06 1293.13 1097.6 1290.66 1089.36 1286.55 L 1101.06 1279.75 z"/>
<path transform="translate(0,0)" fill="rgb(205,208,215)" d="M 1336.76 1584.88 L 1337.47 1585.51 C 1338.6 1589.39 1338.1 1604 1338.07 1608.86 L 1327.67 1602.7 C 1323.65 1600.35 1321.41 1599.86 1321.75 1594.97 C 1324.51 1591.19 1332.25 1587.5 1336.76 1584.88 z"/>
<path transform="translate(0,0)" fill="rgb(158,164,177)" d="M 1268.13 286.139 C 1271.83 287.895 1279.11 290.544 1280.35 294.345 L 1277.58 296.259 L 1266.97 302.302 L 1268.13 286.139 z"/>
<path transform="translate(0,0)" fill="rgb(205,208,215)" d="M 722.709 1851.83 L 723.291 1852.32 C 724.889 1855.75 726.038 1862.21 721.728 1864.08 L 717.544 1861.56 L 714.526 1859.61 L 714.205 1857.81 C 716.787 1855.05 719.464 1853.76 722.709 1851.83 z"/>
</svg>