<?xml version="1.0" encoding="UTF-8"?>
<svg xmlns="http://www.w3.org/2000/svg" version="1.1" viewBox="3.5 0 251.6 141.7" width="200" height="60">
  <defs>
    <style>
      .cls-1 {
        fill: #131a35;
      }

      .cls-2 {
        fill: #0d54ff;
      }
    </style>
  </defs>
  <!-- Generator: Adobe Illustrator 28.6.0, SVG Export Plug-In . SVG Version: 1.2.0 Build 709)  -->
  <g>
    <g id="Layer_1">
      <g>
        <path class="cls-2" d="M65.7,69.1l-3.9,23.1c-.8,4.1-3.5,5.3-6,5.3h-18.2l7.7-42.2c-7.6-3.5-15.5-5.8-21.7-5.8s-10.7,1.6-13.9,5.4c-2.3,2.7-3.4,6.1-3.4,10.1,0,12,9.4,28.7,25.6,42.2,14.4,12,30.3,18.7,41.8,18.7s10.4-1.8,13.4-5.3c2.4-2.7,3.4-6.3,3.4-10.3,0-11.7-9.5-28-24.8-41.3"/>
        <path class="cls-1" d="M33.1,24.4c-2.9,0-5.3,1.9-5.9,5l-2.6,13.9h22.9l-9.8,54.1h18.2c2.4,0,5.2-1.1,6-5.3l8.3-48.8h16.4c2.9,0,5.3-1.9,5.9-5l2.6-13.9h-61.9Z"/>
      </g>
      <polygon class="cls-1" points="142 55.3 142 41 127.3 41 127.3 55.3 123.4 55.3 123.4 24.4 127.3 24.4 127.3 37.3 142 37.3 142 24.4 145.9 24.4 145.9 55.3 142 55.3"/>
      <g>
        <path class="cls-1" d="M164.5,37.8c-.9-1.2-2.4-2-4.3-2-4,0-6,3.3-6,6.5h11.7c0-1.7-.5-3.3-1.3-4.5M169.6,45.5h-15.6c0,2,.8,4.2,2.1,5.5,1,1,2.3,1.6,4,1.6s3.2-.5,4.1-1.4c.6-.6,1-1.2,1.3-2.4h3.6c-.3,2.2-1.6,4.2-3.4,5.4-1.6,1-3.5,1.7-5.6,1.7-3.1,0-5.6-1.3-7.3-3.3-1.8-2.1-2.7-5-2.7-8.2s.5-5,1.7-7c1.6-2.7,4.5-4.6,8.3-4.6s5.1,1.1,6.7,2.8c1.8,2,2.8,4.8,2.8,7.7v2.2Z"/>
        <path class="cls-1" d="M188.1,44.6l-5.9.3c-2.2.1-4.8,1.2-4.8,4s1.2,3.8,4.3,3.8,3.4-.6,4.5-1.8c1.3-1.3,1.9-3.2,1.9-5v-1.3ZM191.5,55.6c-2,0-3.2-1.5-3.2-3.3h0c-1.3,2.2-4,3.6-7.1,3.6-5,0-7.6-3.4-7.6-6.8s1.8-6.5,7.8-6.9l6.7-.4v-1.6c0-1.1-.1-2.4-1.1-3.3-.7-.7-1.8-1.1-3.6-1.1s-3.3.6-4,1.3-1.1,1.6-1.1,2.7h-3.6c0-2,.8-3.4,1.9-4.6,1.5-1.6,4.1-2.3,6.8-2.3,4.3,0,6.7,1.8,7.7,4.2.4,1,.7,2.1.7,3.4v10.7c0,1.2.5,1.5,1.2,1.5s1-.1,1-.1v2.7c-.8.4-1.5.5-2.4.5"/>
        <path class="cls-1" d="M203.1,55.5c-3.2,0-4.6-1.9-4.6-5.4v-26.3h3.7v26.1c0,1.5.5,2.3,2,2.3s1.5,0,1.5,0v3.1s-.8.3-2.6.3"/>
        <path class="cls-1" d="M218.2,55.6c-4.7,0-6-3-6-6v-13.2h-4.3v-3.2h4.3v-5.6l3.7-.9v6.5h6.5v3.2h-6.5v12.7c0,2.1.9,3,3,3s3.8-.4,3.8-.4v3.2c-1,.3-2.3.6-4.4.6"/>
        <path class="cls-1" d="M241.8,55.3v-14c0-3.3-1.3-5.3-4.8-5.3s-3.8,1.4-4.8,3.4c-.7,1.6-.8,3.9-.8,5.6v10.2h-3.7v-31.4h3.7v12.3c1.3-2.3,4-3.5,6.4-3.5,5,0,7.7,3,7.7,8.1v14.5h-3.7Z"/>
      </g>
    </g>
  </g>
</svg>